<?xml version="1.0" encoding="utf-8"?>
<!-- Generator: Adobe Illustrator 27.0.1, SVG Export Plug-In . SVG Version: 6.00 Build 0)  -->
<svg version="1.1"
	 id="svg87" xmlns:dc="http://purl.org/dc/elements/1.1/" xmlns:cc="http://creativecommons.org/ns#" xmlns:rdf="http://www.w3.org/1999/02/22-rdf-syntax-ns#" xmlns:sodipodi="http://sodipodi.sourceforge.net/DTD/sodipodi-0.dtd" xmlns:inkscape="http://www.inkscape.org/namespaces/inkscape" xmlns:svg="http://www.w3.org/2000/svg"
	 xmlns="http://www.w3.org/2000/svg" xmlns:xlink="http://www.w3.org/1999/xlink" x="0px" y="0px" viewBox="0 0 1000 265.7"
	 style="enable-background:new 0 0 1000 265.7;" xml:space="preserve">
<style type="text/css">
	.st0{fill:#FFFFFF;}
</style>
<sodipodi:namedview  bordercolor="#666666" borderopacity="1.0" fit-margin-bottom="0" fit-margin-left="0" fit-margin-right="0" fit-margin-top="0" id="base" inkscape:current-layer="layer1" inkscape:cx="359.45706" inkscape:cy="45.775863" inkscape:document-units="px" inkscape:pageopacity="0.0" inkscape:pageshadow="2" inkscape:window-height="837" inkscape:window-maximized="1" inkscape:window-width="1600" inkscape:window-x="-8" inkscape:window-y="-8" inkscape:zoom="0.7" pagecolor="#ffffff" showgrid="false" units="px">
	</sodipodi:namedview>
<g id="layer1" transform="translate(140,-512.5213)" inkscape:groupmode="layer" inkscape:label="Layer 1">
	<g id="g914" transform="translate(-140,512.5213)">
		<polygon id="polygon812" class="st0" points="312.3,55.7 325.6,126.2 339.4,55.7 357,55.7 334.6,164.2 317,164.2 303.8,95.2 
			290.6,164.2 272.9,164.2 250.8,55.7 268.9,55.7 282.5,126.2 295.9,55.7 		"/>
		<path id="path814" inkscape:connector-curvature="0" class="st0" d="M370.4,55.7H394l21.9,108.6h-18L394,144h-24.2l-3.9,20.3
			h-17.4L370.4,55.7z M373.1,127.2h17.7L382,80.8L373.1,127.2z"/>
		<path id="path816" inkscape:connector-curvature="0" class="st0" d="M439.1,164.3h-17.5V55.7H438c5.8,0,11.1,0.7,16,2.2
			s9,3.7,12.6,6.6c3.5,2.9,6.3,6.4,8.2,10.5c2,4.1,2.9,8.8,2.9,14.1c0,6.5-1.3,12.1-4,16.9s-6.3,8.8-11,12.1l19.1,46.1h-19.4l-15-38
			l-3.1,1.1l-3.1,1l-2,0.6L439.1,164.3L439.1,164.3z M460.4,89.2c0-4.7-1.8-8.7-5.3-11.7c-3.6-3-8.9-4.7-15.9-5v38.6l2.7-0.9
			c5.9-2.1,10.4-4.8,13.7-8.2C458.8,98.5,460.4,94.2,460.4,89.2"/>
		<polygon id="polygon818" class="st0" points="549.5,55.7 549.5,164.2 532.3,164.2 504.1,96.8 504.1,164.2 487,164.2 487,55.7 
			504.3,55.7 532.5,123.1 532.5,55.7 		"/>
		<polygon id="polygon820" class="st0" points="578.9,99.6 604.4,99.6 604.4,116.8 578.9,116.8 578.9,147.5 613,147.5 613,164.2 
			561.3,164.2 561.3,55.7 613,55.7 609.6,72.4 578.9,72.4 		"/>
		<path id="path822" inkscape:connector-curvature="0" class="st0" d="M638.4,164.3h-17.5V55.7h16.4c5.8,0,11.1,0.7,16,2.2
			s9.1,3.7,12.6,6.6c3.5,2.9,6.3,6.4,8.2,10.5c2,4.1,2.9,8.8,2.9,14.1c0,6.5-1.4,12.1-4,16.9c-2.7,4.8-6.3,8.8-11,12.1l19.1,46.1
			h-19.4l-15-38l-3.1,1.1l-3.1,1l-2,0.6L638.4,164.3z M659.6,89.2c0-4.7-1.8-8.7-5.4-11.7c-3.6-3-8.9-4.7-15.9-5v38.6l2.7-0.9
			c5.9-2.1,10.4-4.8,13.7-8.2C658,98.5,659.6,94.2,659.6,89.2"/>
		<path id="path824" inkscape:connector-curvature="0" class="st0" d="M772.4,128.6c0,5.2-1.1,9.9-3.2,14.3
			c-2.2,4.3-5.2,8.1-9.2,11.2c-3.9,3.2-8.7,5.7-14.2,7.5c-5.6,1.8-11.8,2.7-18.6,2.7H712V55.7h14.9c11.7,0,21,2.6,28,7.8
			s10.5,12.2,10.5,20.9c0,3.5-0.9,7-2.7,10.5c-1.7,3.4-4.2,6.5-7.4,9.2c5.4,1.9,9.6,4.9,12.6,9.2
			C770.8,117.6,772.4,122.7,772.4,128.6 M748.2,85.8c0-4-1.7-7.2-5.1-9.5c-3.3-2.3-8-3.7-13.9-4v30.1l2.8-0.6c5.2-1,9.1-3,11.9-5.9
			C746.8,93,748.2,89.6,748.2,85.8 M734.5,117.3l-5.3,1.3v29.3c7.5,0,13.6-1.8,18.5-5.3s7.3-8.1,7.3-13.7c0-4.9-2-8.3-6-10.4
			C744.9,116.3,740.1,115.9,734.5,117.3"/>
		<path id="path826" inkscape:connector-curvature="0" class="st0" d="M798.4,164.3h-17.5V55.7h16.4c5.8,0,11.1,0.7,16,2.2
			s9.1,3.7,12.6,6.6c3.5,2.9,6.3,6.4,8.2,10.5c2,4.1,2.9,8.8,2.9,14.1c0,6.5-1.4,12.1-4,16.9c-2.7,4.8-6.3,8.8-11,12.1l19.1,46.1
			h-19.4l-15-38l-3.1,1.1l-3.1,1l-2,0.6L798.4,164.3z M819.7,89.2c0-4.7-1.8-8.7-5.3-11.7c-3.6-3-8.9-4.7-15.9-5v38.6l2.7-0.9
			c5.9-2.1,10.5-4.8,13.7-8.2C818,98.5,819.7,94.2,819.7,89.2"/>
		<path id="path828" inkscape:connector-curvature="0" class="st0" d="M878.4,165.6c-10.5,0-18.9-4.6-25-13.9
			c-6.1-9.3-9.1-23.2-9.1-41.8s3.1-32.6,9.2-41.9c6.1-9.3,14.5-13.9,24.9-13.9s18.7,4.7,24.9,13.9c6.1,9.3,9.2,23.3,9.2,41.9
			s-3.1,32.5-9.2,41.8C897.3,161,889,165.6,878.4,165.6 M878.4,148.7c5.1,0,9.1-3.3,12-9.7s4.4-16.1,4.4-29.1
			c0-12.9-1.5-22.7-4.4-29.2s-7-9.8-12-9.8c-5.1,0-9.1,3.3-12,9.8c-3,6.5-4.4,16.2-4.4,29.2c0,12.9,1.5,22.6,4.4,29.1
			C869.3,145.5,873.4,148.7,878.4,148.7"/>
		<path id="path830" inkscape:connector-curvature="0" class="st0" d="M920.8,82.4c0-4,0.7-7.8,2.2-11.2c1.5-3.4,3.4-6.3,5.8-8.7
			c2.4-2.4,5.3-4.3,8.6-5.7s6.8-2.1,10.5-2.1c6.5,0,12.1,1.8,16.9,5.4c4.7,3.6,8.4,9.3,11,17.3l-15.1,9c-1.2-4.5-2.9-8-5-10.7
			s-5-4-8.6-4c-2.8,0-5,0.9-6.6,2.9c-1.6,1.9-2.4,4.1-2.4,6.7c0,2.9,0.9,5.7,2.5,8.4c1.7,2.7,4.3,5.3,7.8,7.9l11.6,8.7
			c5.6,4.2,9.7,8.6,12.4,13.4c2.7,4.7,4.1,10.1,4.1,16c0,4.2-0.8,8.2-2.3,11.9c-1.6,3.7-3.7,6.8-6.4,9.5c-2.7,2.6-5.8,4.7-9.4,6.3
			c-3.5,1.5-7.3,2.3-11.2,2.3c-7.3,0-13.7-2.1-19-6.2c-5.3-4.1-9.3-10.5-12-19.2l14.6-8.8c1.5,5.4,3.6,9.6,6.3,12.7
			c2.6,3.1,6.2,4.7,10.6,4.7c3.4,0,6.2-1.1,8.3-3.5c2.1-2.3,3.2-5,3.2-8.1c0-3.4-1-6.5-3-9.3s-4.6-5.4-7.8-7.9l-12.9-9.6
			c-5.5-4.1-9.3-8.6-11.5-13.3C921.8,91.9,920.8,87.1,920.8,82.4"/>
		<path id="path832" inkscape:connector-curvature="0" class="st0" d="M989.6,165.2c-2.9,0-5.3-1-7.4-3c-2-2-3-4.5-3-7.4
			c0-2.8,1-5.2,3-7.3c2-2,4.5-3.1,7.4-3.1c2.8,0,5.2,1,7.3,3.1s3.1,4.5,3.1,7.3c0,2.9-1.1,5.4-3.1,7.4
			C994.8,164.2,992.4,165.2,989.6,165.2"/>
		<path id="path834" inkscape:connector-curvature="0" class="st0" d="M157,113.3c-5.8,0-11.1,2.2-27.5,13.9v62.7
			c28.3-31.6,36.3-53.2,36.3-64.4C165.9,117.7,162.3,113.3,157,113.3"/>
		<path id="path836" inkscape:connector-curvature="0" class="st0" d="M159.3,71.7c0-11.1-12.8-20.3-29.7-21.4v58
			C150.9,95.8,159.3,83.3,159.3,71.7"/>
		<path id="path838" inkscape:connector-curvature="0" class="st0" d="M209.5,47.1l-1.1-1.7l-20-5.3l-2.8-11.4l-0.8-1.1L164.3,22
			l-2.5-10.8l-1.1-1.4L107.3,0h-2.6L51.3,9.9l-1.1,1.4l-2.5,10.8l-20.5,5.6l-0.8,1.1l-2.8,11.4l-20,5.3l-1.1,1.7
			C0.8,55.7,0,64.8,0,74c0,79.9,41.6,149.3,103.8,190.6l2.2,1.1l2.2-1.1C170.4,223.2,212,153.9,212,74
			C212,64.8,211.1,55.7,209.5,47.1 M98.2,227.8l-1.1,0.3c-15.3-17.5-25.5-38.8-32.5-62.1l-10.5,6.7c-2.8,1.9-5,1.1-6.7-1.9
			c-14.1-25-23.3-66-24.1-94.9l1.4-3.6c3.6-4.4,8.1-8.9,12.2-12.7l1.7,1.1c0,35.5,6.1,68.5,15.8,90.2l2.7,0.8l3.1-2
			c-5.8-25.8-9.1-60.2-8.3-99.9l1.1-2.5c3.1-1.9,8.6-5,13.3-6.9l1.7,0.8c-0.8,57.7,3.9,97.6,14.1,129.5l1.1-0.3
			c-0.6-11.6-0.6-21.9-0.6-34.4l-0.5-99.6l1.4-1.9c4.7-1.1,8.9-1.9,13.9-2.5l0.8,0.8V227.8z M114.9,228.1l-1.1-0.3v-195l0.8-0.8
			c37.2,2.5,61,18,61,40.5c0,9.4-3.6,18.6-9.7,25.3c12.2,3.3,16.9,12.5,16.9,24.7C182.8,144.1,167,179.9,114.9,228.1"/>
		<path id="path840" inkscape:connector-curvature="0" class="st0" d="M520.1,226h-8.5v-32.2h12.3c4.3,0,7.6,0.9,9.9,2.8
			c2.3,1.9,3.5,4.5,3.5,7.8l-0.8,4l-2.2,3.3l-3.3,2.6l-4.1,1.8l-6.9,2.1L520.1,226L520.1,226z M524.1,201.1h-4v9.5l3.9-1.2
			c1.7-0.5,3-1.1,3.7-1.9l1.2-2.7l-1.1-2.5L524.1,201.1"/>
		<rect id="rect842" x="541.7" y="193.8" class="st0" width="8.7" height="32.2"/>
		<path id="path844" inkscape:connector-curvature="0" class="st0" d="M554.8,209.9c0-2.5,0.4-4.8,1.2-6.8c0.8-2.1,1.9-3.8,3.3-5.2
			c1.4-1.4,3.1-2.5,4.9-3.3c1.9-0.8,3.9-1.2,6.1-1.2c2.9,0,5.6,0.7,8,2.2c2.4,1.4,4.2,3.4,5.5,5.9l-7,4.7l-2.7-3.8l-3.8-1.4
			c-1.8,0-3.3,0.8-4.7,2.3c-1.3,1.5-2,3.7-2,6.7c0,2.9,0.7,5.1,2,6.6s2.9,2.3,4.7,2.3l3.8-1.3l2.7-3.8l7.1,4.5
			c-1.3,2.5-3.2,4.5-5.7,6s-5.1,2.2-8,2.2c-2.2,0-4.2-0.4-6.1-1.2c-1.9-0.8-3.5-1.9-4.9-3.3c-1.4-1.4-2.5-3.1-3.3-5.2
			C555.2,214.7,554.8,212.4,554.8,209.9"/>
		<polygon id="polygon846" class="st0" points="614.8,193.8 614.8,201 604.3,201 604.3,226 595.6,226 595.6,201 585.1,201 
			585.1,193.8 		"/>
		<path id="path848" inkscape:connector-curvature="0" class="st0" d="M637.1,213.4v-19.6h8.7v20c0,2-0.3,3.8-1,5.4l-2.8,3.9
			c-1.2,1.1-2.7,1.9-4.4,2.4c-1.7,0.6-3.6,0.8-5.7,0.8c-2.1,0-4-0.3-5.7-0.8s-3.2-1.3-4.4-2.4l-2.8-3.9c-0.7-1.6-1-3.4-1-5.4v-20
			h8.7v19.6c0,1.7,0.5,3.1,1.4,4l3.8,1.4l3.9-1.4C636.6,216.5,637.1,215.1,637.1,213.4"/>
		<path id="path850" inkscape:connector-curvature="0" class="st0" d="M659.8,226h-8.5v-32.2h12.5c4.3,0,7.6,0.9,9.9,2.7
			c2.3,1.8,3.5,4.3,3.5,7.5c0,1.9-0.5,3.7-1.5,5.2c-1,1.6-2.4,2.9-4.2,4L679,226h-9.7l-5.4-9.7l-4,1.3L659.8,226z M664.2,201.1h-4.4
			v9.4l4.2-1.4c1.7-0.6,2.9-1.3,3.7-2.1l1.1-2.6l-1.1-2.3L664.2,201.1"/>
		<polygon id="polygon852" class="st0" points="690.4,206.7 703.9,206.7 703.9,213.2 690.4,213.2 690.4,218.9 706.4,218.9 
			706.4,226 681.9,226 681.9,193.8 706.4,193.8 704.8,201 690.4,201 		"/>
		<path id="path854" inkscape:connector-curvature="0" class="st0" d="M710,203.5c0-3.1,1.1-5.5,3.3-7.4c2.2-1.8,5.2-2.7,8.9-2.7
			c2.9,0,5.5,0.5,7.8,1.5s4.3,2.4,5.8,4.4l-5.5,5.7l-3.4-3.2c-1.4-0.9-3.1-1.4-5-1.4l-2.4,0.7l-0.9,1.7l0.8,1.6l2.9,1.3l4.6,1.4
			c3.5,1.1,6,2.4,7.3,3.9c1.4,1.5,2.1,3.3,2.1,5.2l-0.8,4l-2.5,3.3l-4.2,2.2c-1.7,0.5-3.7,0.8-5.9,0.8c-3.2,0-6-0.5-8.4-1.6
			s-4.4-2.5-5.8-4.4l5.5-5.6l3.7,3.4c1.5,0.9,3.2,1.4,5.3,1.4l3.1-0.8l1-1.7l-0.8-1.6l-2.3-1.2l-5.8-1.8c-3-0.9-5.2-2.2-6.5-3.8
			C710.7,207.2,710,205.4,710,203.5"/>
	</g>
</g>
</svg>
