<?xml version="1.0" encoding="utf-8"?>
<!-- Generator: Adobe Illustrator 27.0.1, SVG Export Plug-In . SVG Version: 6.00 Build 0)  -->
<svg version="1.1" id="Слой_1" xmlns="http://www.w3.org/2000/svg" xmlns:xlink="http://www.w3.org/1999/xlink" x="0px" y="0px"
	 viewBox="0 0 465.2 481.7" style="enable-background:new 0 0 465.2 481.7;" xml:space="preserve">
<style type="text/css">
	.st0{fill:#FFFFFF;}
</style>
<g>
	<path class="st0" d="M464.5,27.4c-1.2-4-3.6-7.2-7-9.8c-4.8-3.5-10.2-6.6-16.3-9.2c-4.8-2.1-7.3-3.1-7.4-3.2
		c-3.5-1.6-7.1-3-10.7-4.4c-1.9-0.7-3.5-1-4.7-0.8c-1.7,0.3-3.2,1.1-4.3,2.6c-2.4,3-4.6,6.5-6.5,10.4c-2.8,5.7-4.2,8.5-4.2,8.6
		c-2.4,4.5-5.5,9.9-9.1,16.4c-12.3,21.8-23.8,44.5-34.6,68.1c-1.8,3.9-4.4,10-7.8,18.4c-3.7,9-7.7,18-11.9,26.9
		c-1.9,4.1-4.3,8-7,11.6c-2.7,3.5-4.2,5.9-4.6,7.1c-1,2.9-0.9,5.9,0.4,8.9c1.9,4.4,5.3,6.2,10.2,5.6c3.2-0.4,6.4-0.9,9.6-1.6
		c4.2-0.9,8.1-2.3,11.9-4.2c6-3.1,11.9-6.5,17.6-10.2c0.3-0.2,0.4-0.1,0.4,0.2c-0.6,10.8-1.2,21.5-2.1,32.2c-0.6,8-1,14.6-1.2,20
		c-0.4,9.4-0.6,18.8-0.8,28.3c-0.4,22-0.4,44-0.1,66c0,2.3,0.2,5.1,0.5,8.5c0.3,2.8,0.4,5.7,0.5,8.5c0.4,9.6,1.5,19.1,3.5,28.5
		c1.9,9,7.5,14.2,17,15.6h0.1c0.4,0,0.7-0.4,0.7-0.8c-0.2-2.3,0.4-4.3,1.8-6.1c1.4-1.8,2.7-3.1,3.8-4.2c3-2.7,5.3-5.7,6.9-9.2
		c2.4-5.1,4.3-10.3,5.8-15.6c1-3.6,2.1-9,3.2-16.3c1.1-7,2.1-13.9,3.1-20.9c0.1-0.4,0.9-5.8,2.6-16.1c1.1-6.7,1.7-12.1,1.8-16.2
		c0.2-7.6,0.7-15.3,1.4-22.9c0.2-2,0.3-4.6,0.4-7.8c0.1-2.6,0.3-5.2,0.5-7.8c0.7-6.7,1.1-10.1,1.1-10.2c1.6-18.9,3.7-37.8,6.3-56.7
		c2-14.5,4.8-28.8,8.3-43c3.8-15,7.4-30.1,11-45.1c2.1-8.8,4.9-19.2,8.4-31c0.9-2.9,1.5-6.1,2-9.6C465.4,33.2,465.3,30,464.5,27.4z
		 M414.3,89.2L414.3,89.2c0.2-1,0.6-1.8,0.8-1.7c0.3,0.1,0.4,0.9,0.2,1.9l0,0c-0.2,1-0.6,1.8-0.8,1.7
		C414.2,91.1,414.1,90.2,414.3,89.2z M412.3,97.9c0.2-0.4,0.4-0.6,0.7-0.7c0.5-0.2,0.7,0.3,0.3,1.7c-0.1,0.3-0.4,0.5-0.6,0.5
		C412,99.2,411.9,98.7,412.3,97.9z M410.8,107.3L410.8,107.3c0.2-1,0.6-1.7,0.8-1.6s0.3,0.9,0.1,1.8l0,0c-0.2,1-0.6,1.7-0.8,1.6
		C410.6,109.1,410.6,108.3,410.8,107.3z M410,117c-0.4-1.2-0.5-2.4-0.1-3.6c0.3-1.1,0.6-1.1,0.9,0c0.3,1,0.2,2-0.2,3.1
		c-0.1,0.3-0.1,0.6,0,0.9c0.5,1.9,0.3,3.8-0.7,5.5c-0.2,0.3-0.3,0.4-0.5,0.5s-0.4,0-0.6-0.2c-0.1-0.1-0.1-0.3-0.1-0.6
		c0.1-1.7,0.5-3.3,1.3-4.8C410.1,117.6,410.1,117.3,410,117z M406.6,135.9c0.5-1.6,0.8-3.3,0.8-5c0-0.3,0.1-0.6,0.4-0.8
		c0.7-0.7,1-1.6,0.9-2.7c0-0.4,0.1-0.7,0.2-0.9c0.8-1.1,1.1-0.8,0.9,0.9c-0.1,0.8-0.3,1.4-0.7,1.7c-0.1,0.1-0.2,0.2-0.2,0.3
		c-0.2,0.4,0.1,0.9,0.5,1.1c1.4,0.5,1.5,1.3,0.5,2.3s-1.7,2.2-2,3.7c-0.1,0.4-0.2,0.8-0.3,1c-0.6,1-1,0.8-1.1-0.6
		C406.4,136.7,406.4,136.3,406.6,135.9z M405.8,143.8L405.8,143.8c0.3-1.5,0.8-2.6,1.2-2.6c0.3,0.1,0.4,1.3,0.1,2.8l0,0
		c-0.3,1.5-0.8,2.6-1.2,2.6C405.6,146.5,405.5,145.3,405.8,143.8z M402.6,171.2c0-0.4,0.2-0.7,0.4-0.8c0.3-0.2,0.5,0,0.7,0.5
		c0.1,0.2,0.1,0.5,0.1,0.8c0.1,2.4,1.2,4.4,3.4,5.9l0,0c0.2,0.2,0.2,0.5,0,0.7l-3.2,3.8c-0.3,0.3-0.3,0.7-0.2,1.2
		c0.7,1.9,0.3,2.5-1.2,1.7c-0.5-0.3-0.8-0.9-0.8-1.5L402.6,171.2z M410.1,274c0,0.1,0,0.1-0.1,0.2c-0.2,0.2-0.5,0.3-0.7,0.1
		c-1.9-1.3-2-2.9-0.4-4.8c0.1-0.1,0.1-0.1,0.2-0.1c0.3-0.1,0.6,0,0.7,0.3C410.4,271,410.5,272.4,410.1,274z M410.8,261.5
		c-0.2,1.8-1,3.2-1.6,3.1c-0.7-0.1-1-1.6-0.8-3.4s1-3.2,1.6-3.1C410.7,258.2,411.1,259.7,410.8,261.5z M410.6,253.5
		c0,0.5-0.5,0.9-1,0.9h-0.3c-0.5,0-0.9-0.5-0.9-1l0.5-18.3c0-0.5,0.5-0.9,1-0.9h0.3c0.5,0,0.9,0.5,0.9,1L410.6,253.5z M411.1,230.3
		L411.1,230.3c-0.1,0.7-0.6,1.3-1,1.2l0,0c-0.4-0.1-0.6-0.7-0.5-1.5l0,0c0.1-0.7,0.6-1.3,1-1.2l0,0
		C411.1,228.9,411.3,229.5,411.1,230.3z M410.9,226.4C410.9,226.5,410.9,226.5,410.9,226.4c-0.2,0.2-0.4,0.2-0.5,0l-1.5-1.6
		c-1-1.1-1.6-0.8-1.6,1.1c0,2.7-0.2,5.4-0.6,8.1c-0.2,1.2-0.2,2.7,0.1,4.3c0.2,1.5,0.3,3,0.1,4.6c0,0.3,0,0.6,0.1,0.9
		c0.6,1.4,0.7,2.6,0.3,3.5c-0.8,2.1-1.2,3.9-1.1,5.3c0.4,8.6,0.3,13.7-0.1,15.5c-0.6,2.5-0.6,5,0.1,7.5c0.3,1.1,1.1,1.5,2.3,1.2
		c1.1-0.2,1.4,0.2,1.1,1.2c-0.3,0.9-0.3,1.8-0.1,2.9c0.3,1.2,0.4,2.1,0.4,2.8c-0.2,4.7-0.4,7.5-0.8,8.7c-0.2,0.7-0.5,0.8-1,0.4
		c-0.2-0.2-0.3-0.5-0.2-0.9c0.2-1.3,0-2.4-0.6-3.2c-0.6-0.9-0.9-0.9-1,0.3c-0.1,2.8-0.2,5.4-0.2,7.9c0,1.5-0.2,3.4-0.7,5.7
		c-0.3,1.4-0.4,2.8-0.5,4.2c-0.1,1.7-0.2,3.1-0.3,4.2c-0.5,3.3-0.8,6.6-1,9.9c-0.1,2.4-0.9,4.7-2.2,6.7c-0.9,1.4-1.9,1.5-2.9,0
		c-1.4-1.9-1.8-4.1-1.2-6.5c0.4-1.9,0.6-3.2,0.5-4.1c-0.2-2.3-0.5-4.7-0.8-7c-0.4-2.5-0.6-4.8-0.4-6.9c0.1-2,0.2-4.1,0.3-6.1
		c0.1-1.7,0-3.7-0.3-6.1c-0.4-3.5-0.5-7-0.2-10.5c0.3-5.6,0.5-8.4,0.5-8.4c0.2-5.6,0.3-11.1,0.5-16.7c0,0,0-2.1-0.1-6.2
		c0-1.8,0.1-3.7,0.4-5.5c0.3-2.1,0.5-3.9,0.5-5.4c-0.2-6.8,0.1-13.6,0.8-20.3c0.3-3.1,0.5-6.1,0.5-8.9c0-4.8,0.1-7.8,0.4-9
		c0.8-3.5,1.2-7,1.2-10.5c0-0.3,0.1-0.6,0.4-0.8c1.4-1.1,2.6-0.8,3.6,0.8c0.2,0.3,0.2,0.6,0.1,0.9l-1.6,4.3c0,0.1-0.1,0.2-0.1,0.4
		c0,0.6,0.4,1.1,1,1.1c1.8,0,2.1,0.7,0.8,1.9c-1.4,1.4-2.1,2.5-2.2,3.3c-0.2,4.7-0.5,9.3-1,14c-0.2,2.4,0.2,4.6,1.3,6.7
		c0.1,0.3,0.4,0.4,0.7,0.3c1.3-0.5,1.8-1.5,1.5-3.2c-0.2-0.8-0.1-1.6,0.3-2.3c0.7-1.3,1.2-1.4,1.6-0.2c0.2,0.5,0.4,0.8,0.6,1
		c1.2,1.1,2.1,0.1,2.6-3c0.2-1.2,0-2.4-0.5-3.6c-0.5-1-0.2-2.2,0.8-3.6c0.3-0.4,0.4-0.3,0.4,0.1l-0.4,4.5c0,0.4,0,0.7,0.1,0.9
		c0.7,1.6,0.7,3.2,0,4.8c-0.1,0.3-0.1,0.6,0,0.9C412.1,221.4,412,223.9,410.9,226.4z M411.9,206.5c-0.2,0.3-0.4,0.2-0.5-0.1
		c-0.2-1-0.1-2,0.4-3c0-0.1,0.1-0.1,0.1-0.2c0.1-0.1,0.1-0.1,0.2,0C412.8,204.4,412.8,205.5,411.9,206.5z M415.3,167.9
		c-0.2,0.7-0.4,1.4-0.7,2.1c-0.1,0.3-0.1,0.6,0,0.9c0.5,1,0.6,2.1,0.5,3.1c-0.3,1.9-0.5,2.9-0.5,3c-0.1,3.4-0.3,6.3-0.7,8.7
		c-0.2,1.2-0.1,2.3,0.3,3.3c0.1,0.3,0.1,0.6,0,0.9c-0.6,2-0.9,4.1-0.9,6.1c0,0.6-0.1,1.2-0.2,1.7c-1.1,3.8-1.8,3.5-2.2-0.8
		c0-0.6,0-1.2,0.1-1.9c1.1-5.6,1.6-9.9,1.4-13c-0.1-2.2,0.2-4.2,0.8-5.7c0.1-0.3,0.1-0.6,0.1-0.9c-0.5-1.6-0.3-3.1,0.4-4.6
		c0.1-0.3,0.2-0.6,0.2-0.9c0-0.9,0.2-1.6,0.6-2.4c0.1-0.2,0.2-0.3,0.3-0.3C415.4,167.1,415.5,167.3,415.3,167.9z M417.1,158.5
		L417.1,158.5c-0.2,1.5-0.7,2.7-1,2.6l0,0c-0.4,0-0.5-1.3-0.3-2.8s0.7-2.7,1-2.6l0,0C417.2,155.8,417.3,157,417.1,158.5z
		 M419.7,117.5c-0.3,0.8-0.4,1.3-0.4,1.4c-1.7,9-3.2,18-4.6,27.1c0,0-0.1,1.2-0.3,3.4c-0.1,1.4-0.5,2.7-1,4.1
		c-0.1,0.3-0.2,0.6-0.1,1c0.3,2.5,0.2,4.9-0.2,7.3c-0.4,2.6-0.7,4.5-0.7,5.5c-0.1,1.8-0.2,3.6-0.2,5.6c0,0.4-0.1,0.9-0.3,1.3
		c-0.8,2.1-1,4-0.8,5.5c0.1,0.3,0,0.7-0.1,0.9c-0.5,1.1-0.8,2-0.8,2.5c-0.2,2.8-0.1,6.8,0.2,12c0,0.3,0,0.7-0.2,1
		c-1.2,2.4-1.7,4.9-1.7,7.5c0,2.5,0,4-0.1,4.5c-0.2,1.4-0.6,2.9-1.1,4.4c-0.6,1.9-0.9,1.8-0.9-0.1v-8c0-0.3,0.1-0.6,0.3-0.9
		c0.7-1.2,1-2.4,1.1-3.7c0.1-1.6,0.1-2.7,0.2-3.1c0.2-1,0.3-2.1,0.5-3.1c0.1-0.6,0-1.8-0.1-3.6c-0.1-0.8-0.1-1.7,0.1-2.5
		c0.2-1.1,0.3-1.9,0.2-2.4c-0.1-1.6-0.2-3.3-0.5-5.1c-0.1-0.5,0-1,0.2-1.5c1.5-4,2.2-7.3,2.4-9.9c0.2-2.9,0.2-5.9,0-8.8
		c0-0.7-0.3-1.1-0.8-1c-0.3,0-0.5,0.3-0.7,0.6c-1.1,2.1-2.1,4.3-3,6.5c-0.1,0.3-0.3,0.5-0.4,0.7c-0.5,0.4-0.4-0.1,0.3-1.5V165
		c0.1-0.4-0.1-0.7-0.5-0.8c-0.8-0.2-1.4-0.7-1.7-1.5c-0.2-0.5-0.2-1.2,0-2c0.4-1.6,0.6-3.2,0.7-4.9c0.1-1.5,0.3-1.9,0.6-1.2
		c0.2,0.4,0.2,1.5,0,3.4c0,0.5,0,0.9,0.1,1.4c0.2,1.1,0.2,2-0.1,2.8c-0.1,0.3-0.1,0.7,0,0.8c0.3,0.4,0.7,0.4,1,0
		c0.1-0.2,0.2-0.6,0.1-0.9c-0.3-1.3,0.1-2.4,1.2-3.2c4.3-3.3,6.2-8.7,5.5-16.1c0-0.2,0-0.5,0.1-0.7c1.9-5.4,2.7-11.1,2.4-17
		c0-0.3,0.1-0.6,0.3-0.8c0.8-0.8,1.2-1.7,1.3-2.8c0.1-1.8,0.5-3.3,1.1-4.7c0.1-0.3,0.4-0.5,0.7-0.4
		C419.7,116.2,419.9,116.7,419.7,117.5z M421.1,108.4c-0.6,1.4-1.2,2.4-1.5,2.3s0-1.3,0.5-2.7c0.6-1.4,1.2-2.4,1.5-2.3l0,0
		C421.9,105.8,421.7,107,421.1,108.4z"/>
	<path class="st0" d="M277.4,328.9c1.8-4.5,3-8,3.7-10.6c1.3-5,2.5-10,3.7-15c1.5-7,2.7-12,3.5-15.1c4.2-16.6,8.3-33.2,12.5-49.8
		c2-7.9,3.6-15.9,4.8-24c0.8-5.3,1.6-10.6,2.4-16c1-6.7,1.6-12,1.9-16c0.5-8.9,0.4-17.7-0.3-26.5c-0.5-5.5-1.1-12.1-2-19.9
		c-1-9.2-2.6-18.8-4.9-28.8c-1.7-7.4-3.9-14.2-6.8-20.4c-1.7-3.6-2.8-5.9-3.4-6.8c-1.4-2.2-3.4-4-5.7-5.3c-2.1-1.2-4.4-2.5-6.9-3.9
		c-1.2-0.7-2.6-1-4-1c-3.9,0-7.7,0-11.5,0c-0.4,0-0.9-0.1-1.4-0.3c-0.5-0.2-1-0.4-1.5-0.5c-0.6-0.2-1.4-0.1-2.2,0.1
		c-2.8,0.7-5.5,1.4-8.3,2.1c-0.7,0.2-1.8,0.3-3.3,0.4c-1.2,0.1-2.3,0.3-3.3,0.7c-2.7,0.9-4.2,1.5-4.7,1.6c-3.1,1-5.5,3.1-7,6.3
		c-0.6,1.2-1.1,1.1-1.5-0.1c-0.6-1.8-1.6-2.1-2.8-0.9c-0.3,0.4-0.8,1-1.2,2c-0.9,1.7-1.9,3.3-3.2,4.8c-0.2,0.2-0.5,0.3-0.8,0.2
		c-4.4-0.9-8.2-1.2-11.3-0.6c-8.3,1.4-13.5,6.3-15.6,14.8c-0.1,0.3-0.2,0.6-0.5,0.8c-1.1,1.2-1.9,2.6-2.3,4.2
		c-5.9,22-12,43.9-18.1,65.8c-2.3,8.1-4,14.6-5.2,19.3c-4.6,18.6-8.3,36.9-11,55.1c-1.3,8.7-2.3,17.9-2.9,27.6
		c-0.2,2.6-0.3,6.1-0.2,10.3c0,3.4,0,6.9-0.2,10.3c-0.2,6.5-0.2,11.7,0,15.5c0.4,6.8,1,13.6,1.8,20.4c0.9,7.5,2.6,15.7,5.2,24.5
		c2.3,7.9,5.4,15.2,9.3,21.8c4.1,6.9,8.3,12,12.7,15.2c5.8,4.2,12.5,6.3,20.1,6.2c3.2,0,6.5-0.8,9.9-2.2c9.3-3.9,18.1-9.5,26.3-17.1
		c5.1-4.6,8.4-7.9,10-9.8c0.4-0.4,0.9-0.7,1.6-1c0.7-0.3,1.2-0.6,1.6-0.9c4.6-4,8.4-8.5,11.6-13.6c1.1-1.8,2.5-4,4.1-6.5
		s2.8-4.7,3.5-6.9C275,335.2,276.3,331.7,277.4,328.9z M198,233.8c0-0.2,0.1-0.3,0.2-0.4c0.1-0.1,0.2-0.2,0.4-0.2
		c-0.2,0-0.3,0.1-0.4,0.2S198,233.7,198,233.8l-0.1,6.3c0,0.1,0,0.1,0,0.2c0-0.1,0-0.1,0-0.2L198,233.8z M197.5,270.1L197.5,270.1
		L197.5,270.1z M197.6,270.1C197.6,270.1,197.7,270.1,197.6,270.1C197.7,270.1,197.6,270.1,197.6,270.1z M197.8,269.9
		C197.8,269.9,197.8,270,197.8,269.9C197.8,270,197.8,269.9,197.8,269.9z M197.9,269.8L197.9,269.8
		C197.9,269.8,197.9,269.7,197.9,269.8C197.9,269.7,197.9,269.7,197.9,269.8z M199.1,240.1c0,0.1-0.1,0.2-0.1,0.3
		C199,240.4,199.1,240.3,199.1,240.1l0.1-6.3c0-0.1,0-0.1,0-0.2c0,0.1,0,0.1,0,0.2L199.1,240.1z M276.8,243.5l2.1-17.9l0,0
		c0-0.1,0-0.1,0.1-0.1l-0.1,0.1L276.8,243.5L276.8,243.5z M279.4,225.4h-0.1c-0.1,0-0.2,0-0.2,0.1c0.1,0,0.1-0.1,0.2-0.1H279.4
		C279.4,225.4,279.4,225.5,279.4,225.4C279.4,225.5,279.4,225.4,279.4,225.4z M277.2,243.9L277.2,243.9L277.2,243.9
		c0.1,0,0.2,0,0.2-0.1C277.4,243.9,277.3,243.9,277.2,243.9z M280.6,211c-0.2,2.7-0.4,5.5-0.5,8.2c0,0.2-0.1,0.4-0.2,0.4
		c-0.3,0.1-0.4,0-0.4-0.4l0.9-8.4c0-1.9,0-3.8,0.1-5.7c0-0.7,0.2-0.7,0.5-0.1c0.1,0.1,0.1,0.2,0.1,0.4
		C280.9,207.3,280.8,209.1,280.6,211z M279.8,194.7c0.4-0.9,0.8-0.9,1.2,0.1c0.1,0.3,0.1,0.6-0.1,0.9c-0.5,0.8-0.8,0.8-1.1-0.1
		C279.6,195.3,279.6,195,279.8,194.7z M250,106.5c0.2,0,0.4,0.1,0.7,0.2c11.1,4.4,18.7,12.2,22.8,23.5c2.7,7.3,4.5,14.8,5.6,22.5
		c1.7,12.7,2.4,25.4,2.1,38.1c0,0.3-0.1,0.5-0.2,0.7c-0.3,0.5-0.4,0.3-0.4-0.9c0-0.3,0-0.6,0-0.9c-0.5-9.6-1-19.2-1.7-28.8
		c-0.6-9.6-3-19.8-7-30.8c-2.6-7-6.4-12.5-11.5-16.6c-1.1-0.9-2.8-2-5-3.1c-2.8-1.5-4.5-2.5-5.1-2.9
		C249.1,106.7,249,106.4,250,106.5z M224.8,335.4c-0.5,0.2-1.1-0.2-1.4-0.9l0,0c-0.3-0.7-0.1-1.4,0.4-1.6s1.1,0.2,1.4,0.9l0,0
		C225.5,334.5,225.3,335.2,224.8,335.4z M260,230.3c-4.6,26.6-10.9,52.8-18.8,78.6c-2.4,8-5.5,15.7-9.2,23.1
		c-0.8,1.7-1.9,3.3-3.1,4.9c-0.1,0.1-0.2,0.2-0.3,0.2c-0.4,0.2-1,0.1-1.2-0.4c-7.5-13.8-11.2-28.7-11.2-44.8c0-0.6,0-1.3-0.1-2
		c-0.2-3.6,0.4-4.1,1.8-1.4l0.1,0.1c0.1,0.1,0.3,0.1,0.4-0.1c0.6-0.9,0.9-2,1-3.3c0.1-2.3,0.3-4.6,0.8-6.9c0.6-2.9,1-5.2,1.1-6.8
		c1.3-17.8,3.7-35.5,7.2-52.9c0,0,1.3-6.6,4-19.6c2.2-10.9,5.2-24.3,9-40c1.4-6,2.5-13.1,3.3-21.1c0.3-3.1,0.3-6.6-0.1-10.5
		c-0.3-3.4-0.5-6.9-0.7-10.5c-0.1-1.4,0.5-1.7,1.6-0.8l6.6,5.2c0.2,0.2,0.3,0.5,0.1,0.7l-0.8,1.8c-0.1,0.2,0,0.6,0.3,0.7
		c3.7,2.5,6.3,6,7.6,10.5c1.8,6.2,3,12.3,3.7,18.5c0.4,3.6,0.7,9.8,0.8,18.7C264.4,193,263.1,212.4,260,230.3z M266.1,125.1
		c-4.4-5.1-9.5-8.9-15.4-11.4c-1.9-0.8-3.2-1.4-3.9-1.8c-1.2-0.6-2.4-1.4-3.7-2.2c-0.3-0.2-0.5-0.5-0.5-0.8
		c-0.1-1.2,0.2-1.3,0.9-0.4s1.5,1.5,2.5,1.8c1.7,0.5,2.6,0.7,2.7,0.7c5.9,2.7,11.2,6.3,15.8,10.8c0.5,0.5,0.8,1,1.1,1.5
		c0.3,0.6,0.6,1.1,0.7,1.7C266.4,125.3,266.3,125.4,266.1,125.1z M270.9,134.7c-0.1,0-0.2-0.1-0.3-0.2c-1.1-2.2-2.2-4.4-3.1-6.7
		c-0.2-0.5-0.2-0.7,0.2-0.4c0.1,0.1,0.1,0.1,0.1,0.2c1,2.3,2,4.5,3.1,6.6C271.2,134.6,271.1,134.7,270.9,134.7z"/>
	<path class="st0" d="M142.9,147c1.2-5.9,0.8-11.4-1.3-16.4c-0.7-1.7-1.8-3.3-3.1-4.6c-1.2-1.2-2.6-2.4-4.3-3.6
		c-0.6-0.4-0.9-1.2-0.6-1.9c0.7-2.1,0.2-2.1-1.5-0.3c-1,1.1-2,1.3-2.9,0.5c-2.5-2-4.6-4.4-6.4-7.1c-1.3-2-3.1-3.4-5.5-4.2
		c-1.9-0.7-3.5-1.3-4.6-1.9c-2.6-1.3-5.4-1.9-8.3-2c-1.3,0-2.6,0.4-3.8,1.2c-2.7,2-5.2,4.1-7.6,6.5c-2,2-4,4.6-5.9,8
		c-20,34.2-39.2,68.7-57.8,103.7c-4.1,7.8-11.5,21.7-22.2,41.7c-2.5,4.7-4.5,9.3-6,13.8c-0.9,2.6-1.3,4.7-1.1,6.5
		c0.1,2,0.7,4.2,1.6,6.6c0.2,0.5,0.5,0.9,1,1.2c2.9,1.8,6.1,3,9.6,3.4c0.3,0,0.6-0.1,0.9-0.2l40.9-31c0.9-0.7,1.3-0.4,1.4,0.6
		c0.2,3.7,0.1,7.6-0.3,11.7c-3.2,32.3-4.7,64.6-4.6,97c0,5.3,0.2,12,0.6,20c0.4,9.4,0.8,18.8,1,28.3c0.1,2.8,0.6,10.9,1.7,24.4
		c0,0.1,0.1,2.7,0.3,7.8c0.2,5.6,1.3,11.1,3.2,16.4c1,2.9,2.8,5.3,5.2,7.3c0.5,0.4,1.1,0.7,1.6,0.7l8.3,0.7c1.1,0.1,1.8-0.5,2-1.8
		c0.4-2.6,1.2-4.6,2.6-6c0.4-0.4,1.1-1.5,2.2-3.1c0.6-0.9,1.2-2,1.9-3.3c2.5-4.7,5.4-9.1,8.6-13.3c2.1-2.7,3.7-5.6,4.9-8.8
		c0.4-0.9,0.8-1.7,1.4-2.3c0.6-0.7,1.2-1.4,1.8-2.1c0.9-1.1,1.5-2.2,1.8-3.6c0.4-2.2,0.7-4.4,0.9-6.7c0.2-2.5-0.3-3.1-1.5-1.9
		c-0.3,0.3-0.6,0.7-1,1.3c-1.7,2.8-3.6,5.4-5.5,8c-0.3,0.4-0.7,0.6-1.2,0.6c-2.3,0-3.7,0.7-4.3,2.2c-0.1,0.3-0.2,0.4-0.3,0.6
		c-0.5,0.8-0.8,0.7-0.8-0.1c0-0.2,0.1-0.4,0.2-0.6c0.3-0.5,0.6-1,1-1.4c0.5-0.5,0.8-1,0.9-1.4c0.3-1.4-0.5-1.9-2.3-1.4
		c-0.1,0-0.1,0-0.2,0c-0.2,0-0.3-0.2-0.3-0.4c0.7-2.6,0.6-5.2-0.4-7.7c-0.5-1.4-0.4-2.6,0.4-3.8c0.4-0.5,0.6-1.1,0.7-1.7
		c0.5-3,0.8-3.1,0.8-0.4c0,0.2,0,0.4-0.1,0.6c-0.4,1.2-0.3,2.3,0.3,3.4c0.2,0.3,0.2,0.6,0.1,0.9c-0.6,2-0.5,4,0.3,6
		c0.1,0.3,0.4,0.4,0.7,0.3c1-0.4,1.9-0.9,2.7-1.7c0.2-0.2,0.5-0.4,0.8-0.5c1.3-0.4,1.8-1.3,1.5-2.7c-0.7-0.5-0.4-2.1,0.7-4.8
		c0.2-0.5,0.5-0.9,0.8-1.3c0.5-0.6,1.1-1.1,2-1.5c0.3-0.1,0.5-0.4,0.6-0.7l1.8-6c0.2-0.5,0.1-0.7-0.3-0.5c-0.3,0.2-0.7,0.7-1.1,1.6
		c-0.3,0.6-0.5,1.2-0.7,1.8c-0.8,2.7-2,3.3-3.5,1.9c-1.2-1.1-1.7-0.8-1.4,0.9c0.1,0.7,0.4,1.1,1,1.4c0.3,0.2,0.5,0.4,0.5,0.7
		c0.1,1.1-0.4,2-1.5,2.4c-0.6,0.3-1.1,0.3-1.5,0c-0.7-0.4-0.7-1-0.1-2c0.4-0.6,0.5-1.4,0.3-2.1c-0.3-1.2,0-2,0.8-2.6
		c0.6-0.4,0.6-0.8-0.1-1c-1.1-0.4-1.7-1.1-1.8-2.2c-0.1-2.3-0.2-4.6-0.1-7c0-0.7,0.2-1.3,0.4-1.9c1.2-2.2,2-1.5,2.3,2
		c0,0.5,0.2,0.5,0.6,0.2c2-2,2.6-4.3,2-6.9c-0.5-2.2-0.8-3.5-0.7-4c0.3-1.8,1.7-2.6,4.1-2.6c0.3-1.9,0.2-3.7-0.5-5.5
		c-0.1-0.3-0.4-0.4-0.7-0.4c-2.3,0.6-4.2,1.8-5.8,3.7c-0.3,0.3-0.5,0.5-0.8,0.6c-1.1,0.4-1.3,0-0.6-1.3c0.3-0.6,1.8-1.9,4.4-3.8
		c0.4-0.3,0.6-0.5,0.7-0.8c0.2-0.6,0.1-0.9-0.4-1c-0.3-0.1-0.6,0-0.9,0.2l-3.8,2.6c-0.3,0.2-0.6,0.1-0.7-0.1
		c-0.6-0.9-0.1-1.7,1.4-2.5l0.1-0.1c0.1-0.2,0.1-0.4-0.1-0.5c-2.1-1.5-1.7-2.8,1.1-3.8c1.1-0.4,1-0.6-0.1-0.7c-2.9-0.2-3.9-2-3-5.3
		c0.6,0.5,1.2,0.7,2,0.7h0.1c0.2,0,0.4-0.3,0.4-0.5c-0.2-1-0.9-1.4-2.1-1.2c-0.2-2.2,0.2-3.8,1.3-4.9c0.5-0.5,0.7-1.3,0.4-2
		c-0.9-2.2-0.5-3.2,1.2-3c1.8,0.3,3-0.3,3.6-1.7c0.1-0.3,0.1-0.6,0-0.9c-0.2-0.7-0.2-1.3-0.1-2c0,0,0,0,0-0.1
		c0.1-0.3,0.3-0.4,0.6-0.3c0.5,0.2,0.6,0.6,0.3,1.2c-0.2,0.3-0.2,0.6-0.2,0.9l0.2,11.1c0,0.8-0.5,1.6-1.3,2c-1.2,0.5-1.8,1.3-2,2.2
		c-0.2,1.1,0.1,1.5,0.9,1.3c0.2-0.1,0.6-0.3,1-0.6c1.3-1,1.9-0.6,1.9,1.1l0,0c0,0.3,0.2,0.5,0.5,0.5c1.1,0,1.6-0.6,1.7-1.7
		c0.2-4.1,0-9.7-0.5-16.9c0-0.4,0-0.8,0.1-1.2c0.3-1.3,0.8-1.3,1.4-0.2c0.2,0.3,0.2,0.6,0.2,1c-0.2,9.1-0.3,18.1-0.2,27.2
		c0,0.3,0.1,0.6,0.2,0.9c0.2,0.4,0.3,0.9,0.3,1.4v0.1c0,0.2,0.2,0.3,0.3,0.2c0.1,0,0.2-0.2,0.2-0.5c0.1-6.5,0.3-13,0.5-19.5
		c0.2-5.7,0.2-10.4,0.1-14c-0.2-6.2-0.4-10.9-0.9-14c-0.5-3.2-0.7-6.1-0.7-8.5c0-4.2,0-6.4,0-6.4c-0.2-7.3,0.1-14.5,0.9-21.7
		c0-0.3,0.1-0.3,0.2,0c0.5,2.6,0.7,5.7,0.6,9.2c-0.1,4.3,0.2,10,0.9,17.1c0,0.4,0.1,0.8,0,1.3c-0.1,2.4,0.2,2.7,0.8,1.1
		c0.1-0.3,0.3-0.6,0.6-0.9c0.6-0.7,0.9-1.4,0.9-2.1c-0.1-2.1,0-3.7,0.3-5c1.4-6.2,2.3-12.4,2.9-18.8c0.1-0.6,0.2-1.1,0.3-1.7
		c0.9-3.1,1.4-5.7,1.5-7.8c0.9-12.6,2.1-25.2,3.6-37.7c0.6-5.4,1.8-10,3.4-13.7c0.1-0.3,0.3-0.5,0.6-0.7c0.9-0.7,1.5-1.9,1.8-3.5
		c4.7-26,11.6-53.5,20.6-82.6C140.5,158,141.6,153.6,142.9,147z M58.4,218.9c0.5-0.9,0.7-0.8,0.5,0.4l0,0c-0.1,0.3-0.3,0.5-0.6,0.5
		C58,219.8,58,219.4,58.4,218.9z M58.4,234.1c-1.8,4.4-3.6,7.8-4,7.6s0.6-3.9,2.4-8.3c1.8-4.4,3.6-7.8,4-7.6
		C61.3,226,60.2,229.7,58.4,234.1z M90.8,251.6L90.8,251.6c0.3,0,0.7,1,0.9,2.2c0.1,1.3,0,2.3-0.4,2.4l0,0c-0.3,0-0.7-1-0.9-2.2
		C90.3,252.7,90.4,251.7,90.8,251.6z M91.9,363.6l-3.3-1.9c-0.2-0.1-0.3-0.5-0.3-0.9c0.1-1.6,0.7-3.1,1.8-4.4
		c0.2-0.3,0.5-0.5,0.8-0.5c0.8,0,1,1,0.5,2.9c-0.2,0.8,0.2,1.7,1,2c0.3,0.2,0.6,0.8,0.6,1.9C93,363.8,92.6,364.1,91.9,363.6z
		 M94.7,357.5c-0.1,0.2-0.3,0.4-0.6,0.3c-0.9-0.2-1.2-0.6-0.9-1.2c0.1-0.3,0.5-0.4,0.8-0.3C94.5,356.4,94.7,356.8,94.7,357.5
		C94.7,357.4,94.7,357.4,94.7,357.5z M96.2,344.6c-0.3,1.7-0.4,3.4-0.3,4.9c0.2,2.4-0.8,4.4-3.2,6.1c-0.1,0.1-0.2,0.1-0.3,0.2
		c-0.5,0.1-1-0.2-1.1-0.7c-0.2-1.1-0.7-1.3-1.5-0.5c-0.3,0.3-0.5,0.5-0.8,0.5c-1.2,0.3-1.2-0.4-0.2-2.2c0.4-0.7,0.6-1.4,0.7-2.1
		c0.2-1.3,1.1-2.6,2.7-4c0.4-0.3,0.3-0.6-0.1-0.7c-3.9-1.2-4.6-3.5-2.1-6.8c0.2-0.3,0.5-0.4,0.8-0.5c0.6,0,1.2,0.2,1.7,0.5
		c0.3,0.2,0.6,0.1,0.8,0c0.5-0.5,0.8-1.1,1-1.8v-0.1c0.1-0.2,0.4-0.3,0.5-0.2c1,0.6,1.1,1.3,0.4,2.2c-0.1,0.1-0.5,0.5-1.2,1
		c-1.1,0.8-0.8,1.5,0.9,2C95.8,342.7,96.4,343.6,96.2,344.6z M96.8,318.8c-0.2,2.8-0.2,5.5,0,8.3c0,0.3-0.1,0.6-0.4,0.7
		c-2.2,1.1-3.2,0.5-3-1.9c0.1-1,0-1.9-0.2-2.9c-0.4-1.8-0.3-3.1,0.3-4c0.4-0.6,0.6-0.9,0.6-0.9c0.6-1.3,0.3-1.6-1-1
		c-0.5,0.2-0.8,0.3-1.1,0.4c-1,0-1.5-0.5-1.6-1.5c0-0.3,0.1-0.6,0.3-0.9c0.6-0.6,1.3-1,2.1-1.1c0.3,0,0.5-0.3,0.4-0.5
		c-0.1-0.7-0.1-1.2,0.1-1.5c1.6-3.6,1.4-6.8-0.6-9.7c-0.6-0.8-0.9-0.7-0.9,0.2l-0.3,9.2c0,0.3-0.2,0.6-0.4,0.7
		c-0.5,0.1-0.9-0.1-1.1-0.6c-0.1-0.3-0.1-0.6-0.1-1.1c0.8-8.1,1.2-13.5,1.2-16.2c0-9.5,1-18.8,3-28.1c0,0,0,0,0-0.1
		c0.1-0.2,0.2-0.3,0.4-0.3c0.1,0,0.1,0.1,0.2,0.2s0.1,0.1,0.1,0.2c-0.1,9.2-0.4,14.9-0.9,17c-0.6,2.3-0.4,4.6,0.7,6.9
		c0.2,0.4,0.1,0.8-0.1,1.2c-1,1.4-1.5,3-1.5,4.6c0,0.3,0.1,0.6,0.4,0.9c1.2,1.2,2.2,1,3-0.5c0.1-0.1,0.1-0.3,0.2-0.6
		c0.1-0.8,0.3-1,0.5-0.6c0.1,0.2,0.1,0.4,0,0.6c-0.5,0.9-0.7,1.9-0.5,2.9c0.2,1.4,0.3,2.1,0.3,2.2c0.1,3.2,0.2,6.3,0.3,9.5
		C97.1,312.6,97,315.3,96.8,318.8z M101.6,301.7L101.6,301.7c0,0.2-0.2,0.3-0.3,0.3H101l0,0c-0.2,0-0.3-0.2-0.3-0.3l2.5-33.7l0,0
		c0-0.2,0.2-0.3,0.3-0.3h0.3l0,0c0.2,0,0.3,0.2,0.3,0.3L101.6,301.7z"/>
	<path class="st0" d="M405,230.7c-2.8,1.1-3.6,3-2.5,5.6c0.1,0.3,0.1,0.6,0,0.9c-1.2,3.2-2,6.1-2.3,8.8c-0.2,1.2,0.1,2.5,0.8,3.8
		c0.1,0.3,0.1,0.6,0,0.9l-0.5,0.9c-0.2,0.3-0.2,0.6-0.2,0.9c0.2,2.7,0.2,6.6,0,11.5c-0.1,1.6,0.7,2.6,2.3,2.9
		c0.3,0.1,0.6-0.1,0.7-0.4c0.4-1,0.2-2-0.3-3c-0.6-1-0.6-2,0-3c1.4-2.4,1.5-4.9,0.1-7.5c-0.1-0.3-0.2-0.6,0-0.9c0.8-2,1.5-4,1.9-6.1
		c0.2-1.1,0.2-2.4-0.1-3.9c-0.3-1.3-0.4-2.7-0.5-4c0-0.9,0.2-2,0.8-3.2c0.4-1.1,0.8-2.2,0.9-3.3C406,230.6,405.7,230.4,405,230.7z"
		/>
	<path class="st0" d="M400.5,279.4c1-0.2,1.7-0.8,2-1.9c0.3-1.3,0.5-1.9,0.5-2c0.6-1.9,0.6-3.8-0.3-5.6c-0.3-0.6-0.7-1-1.2-1.2
		c-1-0.4-1.6,0.1-1.8,1.4c-0.4,2.5-0.5,5.4-0.3,8.6v0.1C399.5,279.2,400,279.5,400.5,279.4z"/>
	<path class="st0" d="M407,285.8h0.2c0.5,0,0.9-0.4,0.9-0.9v-4.7c0-0.5-0.4-0.9-0.9-0.9H407c-0.5,0-0.9,0.4-0.9,0.9v4.7
		C406.1,285.4,406.5,285.8,407,285.8z"/>
	<path class="st0" d="M401.7,283.3c-1.1,0-1.9,2.3-1.8,5c0,2.8,0.9,5,2,5s1.9-2.3,1.8-5C403.6,285.5,402.7,283.3,401.7,283.3z"/>
	<path class="st0" d="M400.8,297.1c0.1,0,0.2,0,0.3,0c0.5-0.1,0.8-0.6,0.7-1.1c-0.3-1.6-0.9-1.7-1.8-0.4
		C399.6,296.4,399.8,296.9,400.8,297.1z"/>
	<path class="st0" d="M400.8,299.5c-0.4,0.3-0.7,0.7-0.8,1.2c-0.3,1.2-0.3,2.4,0.2,3.5c0.1,0.3,0.2,0.6,0.1,0.9s-0.2,0.6-0.2,0.9
		c-0.1,0.5-0.1,0.9,0.1,1.3c0.5,1.1,1.1,0.8,1.8-0.6c0.3-0.8,0.4-2.7,0.3-5.8C402.2,299.3,401.7,298.8,400.8,299.5z"/>
	<path class="st0" d="M401.1,314.6c-0.8-0.4-1.1-0.1-0.9,0.7c0.4,1.7,0.9,2.2,1.4,1.2C402.1,315.6,401.9,315,401.1,314.6z"/>
	<path class="st0" d="M96.1,382.4c-1.3,1.8-1.2,2.2,0.3,1.4c1.2-0.6,1.3-1.2,0.4-1.6C96.6,382,96.3,382.1,96.1,382.4z"/>
	<path class="st0" d="M99.7,401.2l-0.3,5.3c0,0.1,0,0.2-0.1,0.4c-0.2,0.8-1.1,1.3-1.8,1.1c-1.6-0.5-2.2,0.2-1.7,2
		c0.1,0.3,0.3,0.5,0.6,0.6c1,0.1,1.7-0.3,2.2-1.1c0.2-0.3,0.4-0.4,0.7-0.5c1.2-0.2,1.7-1,1.3-2.5c-0.3-1-0.4-3-0.3-6
		C100.3,401.2,100.1,401.4,99.7,401.2z"/>
	<path class="st0" d="M364.6,430.4c-13.1,0-23.8,8.3-23.8,18.4c0,10.2,10.7,18.5,23.8,18.5c13.1,0,23.8-8.3,23.8-18.5
		C388.4,438.6,377.7,430.4,364.6,430.4z M364.6,460.6c-8.3,0-15-5.3-15-11.8s6.7-11.8,15-11.8s15,5.3,15,11.8
		S372.9,460.6,364.6,460.6z"/>
	<path class="st0" d="M161.1,446.5c-4.4-1.4-8.9-2.1-13.5-2.1c-3.9,0-7.3-0.4-10.2-1.2c-1.2-0.3-1.8-1.2-1.9-2.4
		c0-0.3,0.1-0.6,0.4-0.8c1.4-1.3,3.5-2,6.3-2.2c7.4-0.5,13.8,0.6,19.2,3.2c0.3,0.1,0.6,0.1,0.8-0.2l3.3-3.9c0.1-0.1,0.1-0.2,0.2-0.2
		c0.3-0.6,0.1-1.4-0.5-1.7c-4.8-2.4-9.6-3.8-14.5-4.2c-2.8-0.2-5.4-0.2-7.8-0.1c-2.6,0.1-5.2,0.7-7.7,1.5c-3.1,1.1-5.3,2.5-6.5,4.2
		c-1.6,2.3-2,5.1-1.1,8.5c0.2,0.8,0.7,1.6,1.3,2.2c1.9,1.6,3.9,2.7,5.9,3.2c3.6,0.9,7.3,1.4,11,1.4c3.4,0,6.7,0.3,10,1
		c2.5,0.5,3.4,1.6,2.9,3.4c-0.3,1.1-1.1,2-2.4,2.6c-1.3,0.6-2.6,1-4,1.2c-7.4,0.9-14.6-0.6-21.6-4.4c-0.6-0.4-1.5-0.2-1.9,0.4
		l-2.7,3.7c0,0,0,0.1-0.1,0.1c-0.3,0.6-0.1,1.3,0.4,1.6c10.4,6.1,21.5,7.3,33.3,3.8c4.6-1.4,7.3-4.1,8-8.1
		C168.6,451.8,166.5,448.3,161.1,446.5z"/>
	<path class="st0" d="M430.1,446.5c-4.1-1.3-8.2-1.9-12.5-2c-4.7,0-8.2-0.4-10.7-1.1c-2.3-0.7-3-1.8-2.2-3.2
		c0.4-0.8,1.2-1.3,2.4-1.7c3.2-1,6.6-1.3,10.5-1c4.7,0.4,8.9,1.5,12.6,3.2c0.3,0.1,0.6,0.1,0.9-0.1c1.7-1.3,2.9-3,3.6-4.9
		c0.1-0.3,0-0.6-0.3-0.7c-9.9-5-20.1-5.9-30.7-2.8c-4.7,1.4-7.3,4.3-7.8,8.8c-0.2,1.8,0.2,3.5,1.2,4.9c1,1.5,2.4,2.7,4.1,3.5
		c1.3,0.6,3.6,1.2,7,1.8c2.4,0.4,4.8,0.6,7.2,0.5c3.8-0.1,7.4,0.4,11,1.6c0.3,0.1,0.6,0.3,0.7,0.6c1,2,0.5,3.5-1.4,4.6
		c-2.3,1.2-5,1.8-8,1.8c-2.5,0-5.1-0.3-8-0.9c-3.6-0.7-7-2.1-10.5-4c-0.4-0.2-0.9-0.1-1.2,0.2l-3.5,4.2l-0.1,0.1
		c-0.2,0.4-0.1,1,0.3,1.2c8.4,5,17.6,6.8,27.5,5.7c3.4-0.4,6.5-1.4,9.2-2.8c3.1-1.7,4.8-4.3,5.1-8
		C436.8,451.1,434.7,447.9,430.1,446.5z"/>
	<path class="st0" d="M213.1,431.5l-38.7,0.2c-0.7,0-1.4,0.7-1.8,1.8c-0.4,1.3-0.4,2.6-0.1,4c0.1,0.3,0.3,0.5,0.6,0.5l15.1,0.1
		c0.6,0,1.1,0.5,1.1,1.1l0.1,26.3c0,0.3,0.2,0.6,0.5,0.6l6.8,0.2l0,0c0.5,0,0.9-0.4,0.9-1V439c0-0.6,0.5-1.1,1.1-1.1l14.6-0.1
		c0.3,0,0.6-0.2,0.6-0.5c0.4-1.8,0.3-3.6-0.2-5.4C213.7,431.7,213.4,431.5,213.1,431.5z"/>
	<path class="st0" d="M262.3,431.6l-7,0.1c-0.4,0-0.7,0.3-0.7,0.7c0.1,7.1,0.1,13.9-0.2,20.5c-0.1,1.5-0.3,2.6-0.8,3.4
		c-0.6,1.1-1.6,1.9-2.8,2.4c-5.3,2.3-10.9,2.5-16.6,0.5c-3.3-1.2-4.9-3.5-4.9-7c0-6.7-0.1-13.3-0.1-19.9c0-0.3-0.3-0.6-0.6-0.6h-7.1
		c-0.3,0-0.6,0.3-0.6,0.6c0,7.4,0,14.7,0.1,21.9c0,3.6,1.5,6.3,4.3,8.3c3,2.1,6.3,3.5,9.9,4.1c3.1,0.5,6.6,0.6,10.5,0.4
		c4.4-0.3,8.4-1.5,12-3.6c3-1.8,4.8-4.2,5.3-7.4c0-0.1,0.1-3,0.1-8.5c0-5.1-0.1-10.3-0.3-15.4C262.9,431.8,262.6,431.5,262.3,431.6z
		"/>
	<path class="st0" d="M305.8,433.7c-3-1.3-6.5-2-10.4-2c-7.5,0-15.2,0-23,0l0,0c-0.3,0-0.5,0.2-0.5,0.5v33.3c0,0.3,0.3,0.6,0.6,0.6
		c8.5,0.2,17.2,0.1,25.9-0.2c4.4-0.2,8.1-1.5,11.3-4.1c3.1-2.5,5-5.7,5.9-9.6c1-4.3,0.3-8.3-2.1-11.9
		C311.6,437.4,309,435.2,305.8,433.7z M300.4,458.4c-2.2,0.9-4.4,1.3-6.7,1.2c-4-0.1-8.2-0.2-12.5-0.2l0,0c-0.5,0-0.9-0.4-0.9-1
		l0.1-19.8c0-0.3,0.2-0.5,0.5-0.5c5.4,0,10.7,0,16.1,0c1.7,0,3.6,0.8,5.8,2.3c2.7,1.9,4.1,4.6,4.2,8
		C306.9,453.3,304.8,456.6,300.4,458.4z"/>
	<path class="st0" d="M331.6,431.7h-7.1c-0.3,0-0.6,0.3-0.6,0.6v33.4c0,0.3,0.3,0.6,0.6,0.6h7.1c0.3,0,0.6-0.3,0.6-0.6v-33.4
		C332.2,432,331.9,431.7,331.6,431.7z"/>
</g>
</svg>
