<?xml version="1.0" encoding="utf-8"?>
<!-- Generator: Adobe Illustrator 27.0.1, SVG Export Plug-In . SVG Version: 6.00 Build 0)  -->
<svg version="1.1" id="Слой_1" xmlns="http://www.w3.org/2000/svg" xmlns:xlink="http://www.w3.org/1999/xlink" x="0px" y="0px"
	 viewBox="0 0 100 80" style="enable-background:new 0 0 100 80;" xml:space="preserve">
<style type="text/css">
	.st0{fill-rule:evenodd;clip-rule:evenodd;fill:#FFFFFF;}
</style>
<g>
	<path class="st0" d="M75.1,10.3v6.2c0.4-0.7,1-0.9,1.6-0.9s1.5,0.3,2.2,0.6l4,1.8l-1-4.4L75.1,10.3z M53.1,12.3
		c-2.6-0.4-4.9,0.7-6.8,2.4c-2,1.8-3.2,4.3-2.7,7.1c0.4,1.9,2.4,3.3,4.1,3.6c3.2,0.4,6.2-0.9,8.2-3.6c1.3-1.8,2-4.5,0.9-6.6
		C56,13.7,54.7,12.5,53.1,12.3 M68.3,16v2.4l2-0.5v2.2l-2,0.4v5.6L66,26.7V16.6L68.3,16z M71.2,29.9L71.2,29.9l2.8,4.3l1.4-2.8
		L71.2,29.9z M65.3,34.2c-0.3-0.2-0.6-0.2-1.4,0l-0.7,0.2V37l0.7-0.1c0.8-0.2,1.1-0.3,1.3-0.6c0.2-0.2,0.4-0.6,0.4-1.1
		C65.7,34.6,65.5,34.4,65.3,34.2 M53.2,33.7v6.7c0,1.4,0.2,2.4,1.6,2.1c1.4-0.3,1.6-1.3,1.6-2.7v-4.9L53.2,33.7z M34.3,37.6
		L34.3,37.6l4.8,5.8v-4L34.3,37.6z M64.9,52.6c0-2.2-1.1-3.4-2.9-3.1c-1.8,0.3-2.9,1.9-2.9,4s1.1,3.4,2.9,3.1
		C63.8,56.3,64.9,54.7,64.9,52.6 M19.7,0L9.2,55.9c-0.2,0.6-0.8,0.8-1.4,0.7c-0.5-0.2-0.7-0.5-0.7-1.2L9.6,0H19.7z M94.8,55.1
		c0.7-0.1,0.7,0.1,0.6,0.5c0.3,1.3-0.7,2.8-2,3.2c-1.9,0.4-3.2-0.6-3.6-2.1c-0.2-0.5,0-0.6,0.5-0.7C91.8,55.7,93.3,55.4,94.8,55.1
		 M47.5,55.1c0-1.9-0.9-3.1-2.5-2.9l-1.4,0.2v6.5l1.4-0.2C46.5,58.5,47.5,56.9,47.5,55.1 M33.7,51.3v6.3c0,1.4,0.5,2.6,1.7,2.5
		c1.1-0.2,1.7-1.6,1.7-3v-4.5L33.7,51.3z M5.1,57.4L5.1,57.4c1.9,0.2,3.5,0.6,5.2,1c0.5,0.2,0.2,0.7,0,1.1c-0.4,1.1-1.5,1.8-2.6,1.8
		C6.5,61.4,5.5,61,5,59.6C4.6,58.7,4.5,57.2,5.1,57.4L5.1,57.4z M87.9,0L93,53.3c0.1,0.5,0,1.2-0.7,1.4c-0.5,0.2-0.9-0.2-1.1-0.5
		l-1.5-6.6l-10.2-4.1l-4,0.7c1,0.1,2,0.5,2.7,1.2L76.8,48c-0.9-0.8-2.3-0.7-3.2-0.6c-0.9,0.1-1.3,0.7-1.3,1.3c0,0.7,0.7,0.9,1.9,1
		c1.8,0.2,4.3,0.4,4.3,3.5c0,1.2-0.3,2.2-0.8,3l-8.1,1c-0.2-0.1-0.3-0.3-0.4-0.4l1.3-2.6c0.8,0.9,2.1,1.2,3.6,1
		c1-0.1,1.6-0.7,1.6-1.4c0-0.8-0.7-1-1.9-1.1c-1.8-0.2-4.2-0.3-4.2-3.5c0-0.4,0.1-0.8,0.2-1.2l-5.3-1.6c2.1,0.6,3.5,2.8,3.5,5.8
		c0,2.2-0.8,4.1-2,5.5l-7.7,1c-1.1-1-1.8-2.7-1.8-4.8c0-1.8,0.5-3.5,1.4-4.8l-3.4-1.3l0,0v11.3l-2.4,0.3v-8.5L47,49.5
		c1.7,0.6,2.9,2.4,2.9,5.3c0,2.1-0.6,3.9-1.7,5.1l-6.9,0.9v-9.7l-2-0.8l0,0V57c0,1.5-0.3,3-1,4.1l-5.7,0.7c-0.6-0.9-0.9-2.2-0.9-3.7
		v-5.7l-1.6-0.6l0,0l0.3,2.7L28,54.9v7.5l-2,0.2v-7.4l-2.1,0.3l0.1-1.3l-2.5-0.7c0.6,0.2,1.1,0.5,1.5,1l-1,2
		c-0.6-0.7-1.5-0.6-2.1-0.5S19,56.5,19,57c0,0.6,0.4,0.7,1.3,0.8c1.2,0.2,2.8,0.4,2.8,2.9c0,0.9-0.2,1.7-0.5,2.3L17,63.7
		c-0.1-0.1-0.1-0.2-0.2-0.2l0.9-2.1c0.5,0.7,1.4,1,2.4,0.9c0.6-0.1,1-0.6,1-1.1c0-0.6-0.5-0.8-1.2-1c-1.2-0.2-2.8-0.3-2.8-2.9
		c0-0.9,0.2-1.7,0.7-2.4L16,54.2v-2.3l63.5-11.2l9.5,3.8l-3.2-14.1l-6-2.3l-4.5,8.8v3.4l-2.7,0.5v-3.4l-3.3-5.2l-3-0.9l0,0
		c0.4,0.1,0.8,0.3,1.1,0.6c0.3,0.3,0.5,0.7,0.7,1.1c0.2,0.4,0.2,1.2,0.2,1.7c0,1-0.2,2-0.6,2.7c-0.4,0.6-0.9,1.2-1.5,1.6l1.8,2.7
		l-3.1,0.5l-1.7-2.5v2.8L60.6,43v-9.8l-1.7-0.6v7.2c0,1.5-0.2,2.7-0.7,3.7l-6.7,1.2c-0.5-0.8-0.7-1.9-0.7-3.3v-6.3l-1.3-0.5l0.2,2.7
		l-2.5,0.5v7.7l-2.3,0.4v-7.6l-2.5,0.5l0.1-1.9l-1.2-0.5v10.1L38.5,47l-3.9-4.4v5.1l-2.2,0.4v-8.8l-1.7-0.6l0.4,2.4L26.5,42v1.9
		l3.7-0.7v2.5L26.6,46v1.9l4.6-0.8l-0.2,1l-6.5,1.2v-8.1L22,40.5c0.6,0.2,1.1,0.5,1.5,0.9l-1,2.2c-0.5-0.6-1.3-0.7-2-0.6
		c-1.2,0.2-2.1,1.6-2.1,3.3s0.9,2.6,2.2,2.4c0.7-0.1,1.5-0.7,1.9-1.3l1,1.8c-0.1,0.1-0.1,0.2-0.2,0.3l-5.6,1
		c-0.8-0.8-1.2-2.2-1.2-3.8c0-1.8,0.5-3.4,1.3-4.5L16,41.5v-2.1l64.2-14.5l4.9,2l-1.8-7.6l-4.4-1.9v6.3l-2.3,0.5v-4.4
		c0-0.2,0-0.3,0-0.5v-0.2c0-0.6,0-1.1-0.6-0.9c-0.4,0-1,0.5-1,0.8v5.6l-2.5,0.6V15.1l-10.3-4.4l-0.7-0.2c0.9,1.4,1.5,2.9,1.8,4.6
		c0.6,5.8-2.3,10.6-7,13.9l-8.8,2.1c-2.9,0.3-5.7-0.8-7.7-3.1c-2.3-2.9-2.5-7.2-1.4-10.8l-2-1c2.8,7.1-6.2,12.4-7.1,14.9l7.6-1.6v4
		l-18.7,4.4v-2.6l10-11.3c1.5-1.7,3.3-3.1,2.8-4.7c-0.2-0.6-0.8-0.9-1.3-1c-1.6-0.3-2.8,0.4-3.9,1.3c-0.8,0.8-1.2,1.9-1.3,2.5
		l-6.1,1.4c0.2-1.6,0.5-2.7,1-4c1.7-3.6,5.3-6.4,9.1-6.9c4.1-0.7,6.9,2.1,10.4,3.3c1.6-2.9,4.4-5.9,7.2-7.5
		c3.7-2.3,9.2-2.2,13.2-0.5l12.2,5.3l1.1,0.4V9.9L75,8.8l6.6,3.2L78.8,0H87.9z M79.4,60.3l-45.9,4.9l57.4,6.4v-7.4L79.4,60.3z
		 M80.1,57.6c3.5,1.2,6.7,2.6,10.4,3.7c0.4,0.2,0.4,0,0.5-0.3v-0.2c0-0.1,0-0.2,0-0.3c0.2-0.5,0.6-0.6,1-0.7
		c1.2-0.4,2.9-0.3,3.7,0.9V72l4.4,0.7v2.4l-75.8-8.6c-2.6-0.5-6.2-0.3-8.3,1c-1.7,1.1-2.9,3-2.5,5.2c0.3,1.5,1.7,2.8,3,3.4
		c0.7,0.4,1.1,0.6,2,0.9c0.5,0.4-0.6,0.3-0.9,0.5L0,80v-1.7l4.9-0.7V64.9c0-1,1-1.4,2.1-1.4c1.3,0,2.2,0.5,2.2,1.2v12.1l4.5-0.7
		c-1.6-1.6-2.6-3.9-2-6.2c0.6-2.5,3.2-4.6,5.6-5l16.5-2l44.6-5.3L80.1,57.6z"/>
</g>
</svg>
