<?xml version="1.0" encoding="utf-8"?>
<!-- Generator: Adobe Illustrator 27.0.1, SVG Export Plug-In . SVG Version: 6.00 Build 0)  -->
<svg version="1.1" id="Слой_1" xmlns="http://www.w3.org/2000/svg" xmlns:xlink="http://www.w3.org/1999/xlink" x="0px" y="0px"
	 viewBox="0 0 159 68" style="enable-background:new 0 0 159 68;" xml:space="preserve">
<style type="text/css">
	.st0{fill:#FFFFFF;}
</style>
<g>
	<path class="st0" d="M16,17L0,18.8l3.7,34.5l19.9-2.4V16.1L16,17z"/>
	<path class="st0" d="M31.2,15V50l7.7-0.9l12.5-36.4L31.2,15z"/>
	<path class="st0" d="M155.3,0l-35.2,4.3l-12.5,36.4l34.8-4.2c-1.4-1.9-4.1-3-7.8-3h-3.2l-1.1-4.3l10.5-11.3h-15.9l2.2-6.5H150v5.7
		l-9.3,10.6c4.9,0.7,8.4,3.4,10,7.8l8.4-1L155.3,0z"/>
	<path class="st0" d="M63,11.2L50.5,47.6l15.6-1.9l12.3-10.6c5.3-4.5,7.2-7.1,7.2-10.6c0-3.9-2.7-6.2-6.3-6.1c-3.9,0-5.4,2-5.8,5.9
		c-2.3,0-7.7,0-7.7,0c0-1.9,1.2-5.1,2.7-7.4c0.9-1.4,4-5.2,11.4-5.2c7.6,0,13.2,5,13.2,12.2c0,6.2-2.1,9.5-8.9,15.3l-6.2,5.2
		L96,42.1l12.5-36.4L63,11.2z"/>
	<path class="st0" d="M3.5,60.6h3.1c1.8,0,3,0.9,3,2.6c0,1.7-1.3,2.6-3.1,2.6h-1v2.1h-2V60.6z M6.4,64.2c0.7,0,1.1-0.4,1.1-1
		c0-0.6-0.4-1-1.1-1H5.4v1.9H6.4L6.4,64.2z"/>
	<path class="st0" d="M19.7,60.6h3.4c1.1,0,1.8,0.3,2.3,0.8c0.4,0.4,0.6,1,0.6,1.7c0,1.1-0.6,1.8-1.5,2.2l1.7,2.5H24l-1.4-2.2h-0.9
		v2.2h-2V60.6z M23,64.1c0.7,0,1.1-0.3,1.1-0.9c0-0.6-0.4-0.9-1.1-0.9h-1.3v1.7H23z"/>
	<path class="st0" d="M36.1,64.2c0-2.1,1.7-3.8,3.9-3.8c2.2,0,3.8,1.7,3.8,3.8c0,2.1-1.7,3.8-3.9,3.8C37.8,68,36.1,66.3,36.1,64.2z
		 M41.8,64.2c0-1-0.7-2-1.8-2c-1.1,0-1.8,0.9-1.8,2c0,1,0.7,2,1.8,2C41.1,66.2,41.8,65.3,41.8,64.2z"/>
	<path class="st0" d="M54.2,60.6H57c2.5,0,4,1.5,4,3.6c0,2.1-1.5,3.6-4.1,3.6h-2.7V60.6L54.2,60.6z M57,66.1c1.2,0,2-0.7,2-1.9
		c0-1.2-0.8-1.9-2-1.9h-0.8v3.7L57,66.1L57,66.1z"/>
	<path class="st0" d="M71.3,64.7v-4.1h2v4c0,1,0.5,1.5,1.3,1.5c0.8,0,1.3-0.5,1.3-1.5v-4.1h2v4c0,2.3-1.3,3.4-3.3,3.4
		C72.6,68,71.3,66.9,71.3,64.7z"/>
	<path class="st0" d="M88.2,64.2c0-2.1,1.6-3.8,3.8-3.8c1.5,0,2.4,0.6,3,1.5l-1.4,1.1c-0.4-0.5-0.9-0.8-1.6-0.8
		c-1,0-1.7,0.9-1.7,1.9c0,1.1,0.7,1.9,1.7,1.9c0.7,0,1.2-0.4,1.6-0.9l1.5,1.1c-0.7,0.9-1.6,1.6-3.2,1.6C89.9,68,88.2,66.4,88.2,64.2
		z"/>
	<path class="st0" d="M107,62.4h-2.1v-1.8h6.3v1.8H109v5.5h-2V62.4L107,62.4z"/>
	<path class="st0" d="M121.4,60.6h2v7.2h-2V60.6z"/>
	<path class="st0" d="M133.8,64.2c0-2.1,1.7-3.8,3.9-3.8c2.2,0,3.8,1.7,3.8,3.8c0,2.1-1.6,3.8-3.9,3.8
		C135.5,68,133.8,66.3,133.8,64.2z M139.5,64.2c0-1-0.7-2-1.8-2c-1.1,0-1.8,0.9-1.8,2c0,1,0.7,2,1.8,2
		C138.8,66.2,139.5,65.3,139.5,64.2z"/>
	<path class="st0" d="M151.9,60.6h1.8l2.9,3.8v-3.8h2v7.2h-1.7l-3-4v4h-2V60.6z"/>
</g>
</svg>
