<?xml version="1.0" encoding="utf-8"?>
<!-- Generator: Adobe Illustrator 27.0.1, SVG Export Plug-In . SVG Version: 6.00 Build 0)  -->
<svg version="1.1" id="Layer_1" xmlns="http://www.w3.org/2000/svg" xmlns:xlink="http://www.w3.org/1999/xlink" x="0px" y="0px"
	 viewBox="0 0 600.5 370.6" style="enable-background:new 0 0 600.5 370.6;" xml:space="preserve">
<style type="text/css">
	.st0{fill:#FFFFFF;}
</style>
<g>
	<g>
		<path class="st0" d="M179.8,362.8c0,2.9,2.9,5,5.8,5c2,0,3.4-1,4.7-2.6l2.4,1.9c-1.8,2.3-4.3,3.4-7.6,3.4c-5.4,0-8.8-3.8-8.8-8.9
			c0-5.2,3.7-9,8.8-9c6,0,8.3,4.6,8.3,9.1v1.1H179.8z M190,360.2c-0.1-2.8-1.7-5-5-5c-3.2,0-5.3,2.8-5.3,5H190z"/>
		<path class="st0" d="M199.2,353.1h3.2v2.6h0.1c0.8-1.8,3-3.1,5.6-3.1c3.3,0,6.2,2,6.2,6.5v11H211v-10c0-3.2-1.8-4.5-3.9-4.5
			c-2.7,0-4.8,1.7-4.8,5.7v8.8h-3.2V353.1z"/>
		<path class="st0" d="M230.1,356h-4.7v7.6c0,2,0,4,2.5,4c0.7,0,1.6-0.1,2.2-0.5v2.9c-0.8,0.5-2.2,0.6-2.9,0.6c-5,0-5-3.1-5-5.9V356
			h-3.8v-2.9h3.8v-4.8h3.2v4.8h4.7L230.1,356L230.1,356z"/>
		<path class="st0" d="M238.5,362.8c0,2.9,2.8,5,5.8,5c1.9,0,3.4-1,4.6-2.6l2.4,1.9c-1.8,2.3-4.2,3.4-7.5,3.4
			c-5.4,0-8.8-3.8-8.8-8.9c0-5.2,3.7-9,8.8-9c6,0,8.3,4.6,8.3,9.1v1.1H238.5z M248.8,360.2c0-2.8-1.7-5-4.9-5c-3.2,0-5.4,2.8-5.4,5
			H248.8z"/>
		<path class="st0" d="M257.9,353.1h3.2v2.6h0.1c0.8-1.8,3-3.1,5.1-3.1c0.5,0,1,0.1,1.5,0.3l-0.1,3.5c-0.6-0.2-1.1-0.3-1.6-0.3
			c-3.1,0-4.9,1.8-4.9,5.6v8.5h-3.2L257.9,353.1L257.9,353.1z"/>
		<path class="st0" d="M282.2,356h-4.6v7.6c0,2,0,4,2.5,4c0.7,0,1.6-0.1,2.3-0.5v2.9c-0.8,0.5-2.2,0.6-2.9,0.6c-5,0-5.1-3.1-5.1-5.9
			V356h-3.7v-2.9h3.7v-4.8h3.3v4.8h4.6L282.2,356L282.2,356z"/>
		<path class="st0" d="M288.2,355.1c1.8-1.6,4.4-2.4,6.8-2.4c5,0,7.1,2.7,7.1,5.7v8.7c0,1.2,0,2.1,0.1,3.1h-2.8
			c-0.1-1-0.2-1.8-0.2-2.7h-0.1c-1.4,2.2-3.4,3.1-5.9,3.1c-3.2,0-6-1.8-6-5.2c0-4.3,4.3-5.9,9.4-5.9h2.4v-0.7c0-1.8-1.3-3.7-4-3.7
			c-2.5,0-3.7,1.1-4.8,2L288.2,355.1z M297.4,362c-3.1,0-6.8,0.6-6.8,3.3c0,1.9,1.4,2.8,3.6,2.8c3.7,0,4.9-2.7,4.9-5v-1H297.4
			L297.4,362z"/>
		<path class="st0" d="M310.5,344.6c1.3,0,2.3,1.1,2.3,2.4c0,1.3-1.1,2.4-2.3,2.4c-1.3,0-2.4-1-2.4-2.4
			C308.2,345.7,309.2,344.6,310.5,344.6 M308.9,353.1h3.3v17.1h-3.3V353.1z"/>
		<path class="st0" d="M319.1,353.1h3.2v2.6h0.1c0.9-1.8,3.1-3.1,5.7-3.1c3.3,0,6.2,2,6.2,6.5v11H331v-10c0-3.2-1.9-4.5-3.9-4.5
			c-2.7,0-4.8,1.7-4.8,5.7v8.8h-3.2L319.1,353.1L319.1,353.1z"/>
		<path class="st0" d="M340.9,353.1h3v2.6h0.1c0.3-0.9,2.4-3.1,5.5-3.1c2.5,0,4.2,1.1,5.3,3.2c1.1-2,3.3-3.2,5.4-3.2
			c5.2,0,6.4,3.9,6.4,7.6v10h-3.2v-9.6c0-2.5-0.5-5-3.7-5c-3.1,0-4.4,2.2-4.4,5.2v9.3h-3.3v-8.9c0-3.2-0.4-5.6-3.5-5.6
			c-2.3,0-4.4,1.8-4.4,5.7v8.9h-3.2L340.9,353.1L340.9,353.1z"/>
		<path class="st0" d="M375.8,362.8c0,2.9,2.7,5,5.7,5c2,0,3.4-1,4.7-2.6l2.4,1.9c-1.8,2.3-4.3,3.4-7.5,3.4c-5.4,0-8.8-3.8-8.8-8.9
			c0-5.2,3.7-9,8.8-9c6,0,8.4,4.6,8.4,9.1v1.1H375.8z M386,360.2c-0.1-2.8-1.7-5-4.9-5c-3.2,0-5.3,2.8-5.3,5H386z"/>
		<path class="st0" d="M395.1,353.1h3.2v2.6h0.1c0.8-1.8,3-3.1,5.6-3.1c3.4,0,6.2,2,6.2,6.5v11H407v-10c0-3.2-1.8-4.5-3.9-4.5
			c-2.6,0-4.7,1.7-4.7,5.7v8.8h-3.2L395.1,353.1L395.1,353.1z"/>
		<path class="st0" d="M426.1,356h-4.7v7.6c0,2,0,4,2.5,4c0.8,0,1.6-0.1,2.3-0.5v2.9c-0.7,0.5-2.2,0.6-2.9,0.6c-5,0-5.1-3.1-5.1-5.9
			V356h-3.8v-2.9h3.8v-4.8h3.2v4.8h4.7V356z"/>
		<path class="st0" d="M24.1,272.8H13.2v22.1c0,5.6,2.1,6.7,5.4,6.7c1.9,0,3.8-0.6,5.5-1.4l0.2,4.9c-1.9,0.9-4.5,1.3-7.1,1.3
			c-4,0-9.3-1.7-9.3-10v-23.6H0V268h7.9v-10.6h5.3V268h10.8V272.8z"/>
		<polygon class="st0" points="34.5,268 43.1,298.4 43.3,298.4 53.3,268 58.8,268 68.8,298.4 69,298.4 77.5,268 83.8,268 
			71.9,305.5 66,305.5 56.1,274.8 55.9,274.8 46,305.5 40.1,305.5 28.2,268 		"/>
		<path class="st0" d="M96,288.2c0.7,7.5,6.3,13.5,13.8,13.5c5.6,0,10-3.1,12-6.4l4.2,3.3c-4.4,5.6-10,7.9-16.2,7.9
			c-11.2,0-19.3-8.4-19.3-19.7s8.2-19.7,18.9-19.7c11.4,0,17.9,8.5,17.9,18.7v2.4L96,288.2L96,288.2z M121.5,283.9
			c0-7.2-4.6-12-12.2-12c-6.8,0-13.1,5.8-13.1,12H121.5z"/>
		<path class="st0" d="M143.5,268c0.2,2,0.2,4,0.2,6h0.2c2.3-4.1,7.6-6.9,12.5-6.9c9.6,0,14.1,5.3,14.1,14.6v23.8h-5.2v-20.8
			c0-8.3-2.4-12.9-10.2-12.9c-1.1,0-11.4,0.6-11.4,14.5v19.2h-5.3v-29.2c0-2-0.2-5.5-0.4-8.3L143.5,268L143.5,268z"/>
		<path class="st0" d="M204,272.8h-10.8v22.1c0,5.6,2.1,6.7,5.4,6.7c1.8,0,3.9-0.6,5.5-1.4l0.3,4.9c-1.9,0.9-4.5,1.3-7.1,1.3
			c-4,0-9.3-1.7-9.3-10v-23.6H180V268h7.9v-10.6h5.3V268H204L204,272.8L204,272.8z"/>
		<path class="st0" d="M226.8,299l11.4-31.1h6.5l-18.8,47.3c-2.2,5.7-5.3,9.5-11.8,9.5c-1.6,0-3.3,0-4.9-0.5l0.6-5.2
			c1.2,0.6,2.6,0.9,4,0.9c3.7,0,5.6-2.6,7.2-6.9l2.8-7.2l-15.4-38h6.6L226.8,299z"/>
		<rect x="247.3" y="283.7" class="st0" width="40" height="5.3"/>
		<path class="st0" d="M312.7,306.4c-11.7,0-19.9-8.4-19.9-19.6c0-11.3,8.2-19.7,19.9-19.7c11.7,0,20,8.4,20,19.7
			C332.6,298,324.4,306.4,312.7,306.4 M312.7,271.8c-8.7,0-14.1,6.5-14.1,14.9c0,8.4,5.4,14.8,14.1,14.8c8.7,0,14.2-6.4,14.2-14.8
			C326.9,278.4,321.4,271.8,312.7,271.8"/>
		<path class="st0" d="M348.9,268c0.3,2,0.3,4,0.3,6h0.2c2.4-4.1,7.6-6.9,12.5-6.9c9.6,0,14.1,5.3,14.1,14.6v23.8h-5.2v-20.8
			c0-8.3-2.4-12.9-10.2-12.9c-1.1,0-11.4,0.6-11.4,14.5v19.2h-5.3v-29.2c0-2-0.3-5.5-0.4-8.3L348.9,268L348.9,268z"/>
		<path class="st0" d="M393.7,288.2c0.6,7.5,6.3,13.5,13.7,13.5c5.6,0,10-3.1,12-6.4l4.1,3.3c-4.4,5.6-10,7.9-16.1,7.9
			c-11.1,0-19.4-8.4-19.4-19.7s8.3-19.7,18.9-19.7c11.4,0,17.9,8.5,17.9,18.7v2.4L393.7,288.2L393.7,288.2z M419.2,283.9
			c0-7.2-4.6-12-12.2-12c-7,0-13.2,5.8-13.2,12H419.2z"/>
		<rect x="461.2" y="244.9" class="st0" width="5.2" height="60.6"/>
		<path class="st0" d="M504.9,282.5v-1c0-6.4-3.1-9.7-9.7-9.7c-4.3,0-8.2,1.5-11.4,4.4l-3.2-3.8c3.4-3.5,8.8-5.4,15.9-5.4
			c7.4,0,13.7,4.2,13.7,13.3v16.8c0,2.9,0.3,6.4,0.6,8.4h-5.1c-0.4-1.9-0.4-4.1-0.4-6h-0.2c-3.1,5-7.2,7-13.3,7
			c-6.7,0-12.9-3.6-12.9-10.9c0-12.2,14.3-13,23.3-13H504.9z M502.1,286.8c-5.4,0-17.4,0.4-17.4,8c0,5,4.6,6.9,8.8,6.9
			c7.7,0,11.4-5.4,11.4-12.1v-2.7H502.1z"/>
		<path class="st0" d="M524.1,267.9h5.3v6.3h0.2c3.4-5,9.6-7.2,14.6-7.2c11.7,0,20,8.4,20,19.7c0,11.2-8.2,19.6-20,19.6
			c-5,0-11.1-2.1-14.6-7.1h-0.2v29.2h-5.3V267.9z M544.1,271.8c-8.7,0-15,6.5-15,14.9c0,8.4,6.3,14.8,15,14.8
			c8.8,0,14.2-6.4,14.2-14.8C558.3,278.4,552.8,271.8,544.1,271.8"/>
		<path class="st0" d="M594.5,276.9c-1.6-3-4.2-5.1-8.1-5.1c-3.7,0-7.8,1.6-7.8,5.7c0,3.5,2.5,4.8,7.4,5.9l5.3,1.3
			c5.2,1.1,9.2,4.9,9.2,10.2c0,8.2-7.3,11.5-14.6,11.5c-5.7,0-10.9-1.9-14.4-7.2l4.5-3.1c2.2,3.3,5.5,5.5,9.9,5.5
			c4.4,0,8.8-1.9,8.8-6.2c0-3.7-3.2-5-7.1-6l-5.1-1.2c-2.6-0.7-9.6-2.7-9.6-9.9c0-7.8,6.8-11.3,13.8-11.3c5.2,0,10.1,1.9,12.5,6.7
			L594.5,276.9z"/>
	</g>
	<path class="st0" d="M381.2,149.7c0,10.5-2.5,25.5-13.1,37.3c-10.1,11.1-25.4,17-45.7,17H109.5v-23.3c0-0.1-1.1-21,11.4-34.4
		c7.5-8.1,19-12.2,33.9-12.2h113.9c4.9,0,24.7-0.9,40.1-15.6c12.2-11.6,18.3-28.6,18.3-50.3c0-21.6-6-38.7-18.2-50.7
		C291.8,0.3,269.1,0.2,268,0.2L167.1,0l-10.6,0c-8.7,0-30.8,1.5-47.1,16.6c-12.1,11.1-17.9,27-17.9,47h18c0-14.6,4.5-25.7,12.4-33.3
		c13.1-12.6,36.5-11.7,36.7-11.7L268,18.3c0.1,0,10.6,0.5,20.7,6.7c13.1,8.1,19.8,22.6,19.8,43.1c0,16.3-4.2,28.7-12.5,36.7
		c-11.4,11-27.5,10.6-27.6,10.6H154.8c-20.4,0-36.4,6.2-47.6,18.3c-17,18.4-15.7,43.1-15.7,47.9V222h230.9
		c25.4,0,45.9-7.6,59.5-22.6c11.6-12.8,17.4-30,17.4-49.8L381.2,149.7L381.2,149.7z M381.1,0v136h18.1V0H381.1z M509,203.5V222h-69
		V0h18.3v203.4H509z M458.4,0H440 M399.3,0h-18.1 M509,222v-18.6"/>
</g>
</svg>
