<?xml version="1.0" encoding="utf-8"?>
<!-- Generator: Adobe Illustrator 27.0.1, SVG Export Plug-In . SVG Version: 6.00 Build 0)  -->
<svg version="1.1"
	 id="svg2" xmlns:dc="http://purl.org/dc/elements/1.1/" xmlns:cc="http://creativecommons.org/ns#" xmlns:rdf="http://www.w3.org/1999/02/22-rdf-syntax-ns#" xmlns:inkscape="http://www.inkscape.org/namespaces/inkscape" xmlns:svg="http://www.w3.org/2000/svg"
	 xmlns="http://www.w3.org/2000/svg" xmlns:xlink="http://www.w3.org/1999/xlink" x="0px" y="0px" viewBox="0 0 1170.5 480.1"
	 style="enable-background:new 0 0 1170.5 480.1;" xml:space="preserve">
<style type="text/css">
	.st0{fill:#FFFFFF;}
</style>
<g id="g16">
	<path id="path22" inkscape:connector-curvature="0" class="st0" d="M1002.8,350.1h-164l164-182.2V350.1L1002.8,350.1z M1137,350.1
		V0L810.6,362.7H559.7c-10.7,0-19.4-8.7-19.4-19.4c0-7.3,4-13.6,10-17c0.2-0.1,0.4-0.2,0.5-0.3c25.3-13,49.5-19.8,63.4-23.7l4.2-1.2
		c8.4-2.4,18.7-4.7,29.6-7.1c3.8-0.9,7.7-1.7,11.7-2.6c66.2-15.1,155.9-41.1,155.9-146.9c0-23.3-5.9-47.1-19.4-68.4
		c-21.5-33.9-62.2-61.3-128.8-69.3c-13.1-1.6-27.2-2.4-42.3-2.4C522,4.4,452.1,58.7,449.7,140c0,1.4-0.1,2.8-0.1,4.3
		c0,44.9,36.5,81.4,81.4,81.4c44.9,0,81.4-36.6,81.4-81.4c0-44.9-36.5-81.4-81.4-81.4c-2.5,0-4.9,0.1-7.3,0.3c-0.1,0-0.2,0-0.4,0
		c-16.7,1.6-32,8.2-44.2,18.3c9.2-14.5,21.8-26.9,37.3-36.9c0.2-0.1,0.4-0.3,0.7-0.4c27.8-17.8,64.9-27.9,108.2-27.9
		c4.6,0,9.1,0.1,13.6,0.3c1,0,2,0.1,2.9,0.1c9.6,1.2,17,9.3,17,19.2v225.7c0,10.6-7.3,19.4-17.1,21.9c-0.5,0.1-0.9,0.2-1.4,0.3
		c-9.1,2-17.7,4-25.1,6.1l-4.1,1.2c-20,5.6-61.6,17.2-98.5,45.2c-13,9.8-24.1,20.7-33.5,32.6c-23.9,30.5-36,67.7-36,111.3h261.7
		l105.7-117.4h192.2v117.4H1137V362.7h33.6v-12.6H1137"/>
	<path id="path24" inkscape:connector-curvature="0" class="st0" d="M67.8,364.7l82.6-176.6l82.4,176.6
		C232.8,364.7,67.8,364.7,67.8,364.7z M178,99.3c-16.8,34.7-51.1,38.4-51.1,38.4l16.6,35.5l0.1,0.2l-0.1,0L0,480.1h13.9l48-102.8
		h176.7l47.9,102.8h148.1L217.6,14.6L178,99.3"/>
</g>
</svg>
