<?xml version="1.0" encoding="utf-8"?>
<!-- Generator: Adobe Illustrator 27.0.1, SVG Export Plug-In . SVG Version: 6.00 Build 0)  -->
<svg version="1.1" id="Layer_1" xmlns="http://www.w3.org/2000/svg" xmlns:xlink="http://www.w3.org/1999/xlink" x="0px" y="0px"
	 viewBox="0 0 1000 183.8" style="enable-background:new 0 0 1000 183.8;" xml:space="preserve">
<style type="text/css">
	.st0{fill:#FFFFFF;}
</style>
<g>
	<path class="st0" d="M441.3,72.5l-5-16.1h-24.2l-4.8,16.1h-16l24.9-70.8H433L458,72.5H441.3z M424.2,15.7l-8.8,29.6h17.8
		L424.2,15.7z"/>
	<polygon class="st0" points="561.1,72.5 561.1,23.5 545.5,55.3 531.8,55.3 516.2,23.5 516.2,72.5 502.7,72.5 502.7,1.7 519.5,1.7 
		538.8,42 558.2,1.7 574.6,1.7 574.6,72.5 	"/>
	<path class="st0" d="M669.4,72.5l-5-16.1h-24.2l-4.8,16.1h-16l24.9-70.8h16.8l24.9,70.8H669.4z M652.3,15.7l-8.8,29.6h17.8
		L652.3,15.7z"/>
	<polygon class="st0" points="726.5,72.5 726.5,61.5 763,13.6 728.4,13.6 728.4,1.7 779.6,1.7 779.6,12.8 743.3,60.7 779.9,60.7 
		779.9,72.5 	"/>
	<path class="st0" d="M876.4,69.7c-5.2,3.1-11.4,4.6-18.6,4.6c-7,0-13.1-1.5-18.3-4.4c-5.2-2.9-9.2-7.2-12-12.8
		c-2.8-5.6-4.2-12.3-4.2-20c0-7.5,1.3-14,4-19.6c2.7-5.6,6.6-9.9,11.8-12.9c5.2-3,11.4-4.5,18.6-4.5c7,0,13.1,1.5,18.3,4.4
		c5.2,2.9,9.2,7.2,12,12.7c2.8,5.6,4.2,12.2,4.2,20c0,7.5-1.4,14-4,19.6C885.6,62.3,881.6,66.6,876.4,69.7 M871.8,55.5
		c3.2-4.2,4.8-10.4,4.8-18.4c0-8-1.6-14.1-4.8-18.3c-3.2-4.2-7.9-6.3-14-6.3c-6.1,0-10.8,2.1-14,6.3c-3.2,4.2-4.8,10.3-4.8,18.3
		c0,8,1.6,14.2,4.8,18.4c3.2,4.2,7.9,6.3,14,6.3C863.9,61.8,868.6,59.7,871.8,55.5"/>
	<polygon class="st0" points="982.6,1.7 982.6,51.3 953.8,1.7 937.5,1.7 937.5,72.5 951,72.5 951,23.4 979.8,72.5 996.1,72.5 
		996.1,1.7 	"/>
	<path class="st0" d="M427.8,146.1c4.9,1.9,8.5,4.2,10.7,7c2.3,2.8,3.4,6.2,3.4,10.4c0,6-2.2,11-6.7,14.7
		c-4.5,3.8-10.3,5.6-17.6,5.6c-7.6,0-14.3-1.4-20.2-4.3v-5.2c7.1,2.6,13.7,3.9,19.7,3.9c5.6,0,10.2-1.3,13.5-3.9
		c3.4-2.7,5.1-6.3,5.1-10.8c0-2.8-0.9-5.2-2.8-7.2c-1.8-2-4.8-3.8-8.9-5.3l-11.9-4.6c-5.2-2-9.1-4.5-11.5-7.3
		c-2.5-2.8-3.7-6.3-3.7-10.5c0-5.7,2-10.2,6.1-13.8c4.1-3.5,9.4-5.3,16-5.3c3,0,6.1,0.4,9.5,1.1c3.3,0.7,6.4,1.7,9.3,3v5.2
		c-7-2.4-13.1-3.7-18.5-3.7c-5.2,0-9.3,1.2-12.1,3.4c-2.8,2.3-4.2,5.6-4.2,9.8c0,2.4,0.4,4.3,1.3,5.8c0.8,1.5,2.2,2.8,4.2,4
		c1.9,1.2,4.7,2.5,8.3,3.8L427.8,146.1z"/>
	<polygon class="st0" points="512,182 506,182 506,116.7 482.5,116.7 482.5,111.2 535.5,111.2 535.5,116.7 512,116.7 	"/>
	<path class="st0" d="M635,156.3c0,8.9-2.3,15.8-6.9,20.4c-4.6,4.7-11.2,7-19.8,7s-15.3-2.3-19.8-7c-4.6-4.7-6.9-11.5-6.9-20.4v-45
		h6v46.2c0,6.7,1.8,11.8,5.3,15.4c3.6,3.6,8.6,5.4,15.3,5.4c6.7,0,11.8-1.8,15.3-5.4c3.5-3.6,5.3-8.7,5.3-15.4v-46.2h6L635,156.3
		L635,156.3z"/>
	<path class="st0" d="M688.3,182v-70.8h21.3c10.3,0,18.1,3,23.4,9.1c5.3,6,8,14.8,8,26.4c0,11.5-2.8,20.3-8.3,26.3
		c-5.5,6-13.5,9-23.9,9H688.3z M708.1,177c8.8,0,15.4-2.4,19.9-7.3c4.5-4.9,6.7-12.1,6.7-21.8v-2.5c0-19.4-8.8-29.1-26.5-29.1h-13.9
		V177L708.1,177L708.1,177z"/>
	<rect x="793.1" y="111.2" class="st0" width="6" height="70.8"/>
	<path class="st0" d="M905.1,174.1c-5.7,6.5-13.7,9.7-23.9,9.7c-10.2,0-18.2-3.3-23.9-9.8c-5.7-6.5-8.6-15.6-8.6-27.2
		c0-11.6,2.9-20.7,8.6-27.2c5.7-6.5,13.7-9.7,23.9-9.7c10.2,0,18.2,3.2,23.9,9.7c5.7,6.5,8.6,15.6,8.6,27.2
		C913.7,158.4,910.8,167.6,905.1,174.1 M881.2,178.2c8.6,0,15.1-2.7,19.5-8c4.4-5.3,6.6-13.1,6.6-23.4c0-10.3-2.2-18.1-6.6-23.4
		c-4.4-5.3-10.9-8-19.5-8c-8.6,0-15.1,2.7-19.5,8c-4.4,5.3-6.6,13.1-6.6,23.4c0,10.3,2.2,18.1,6.6,23.4
		C866.1,175.5,872.6,178.2,881.2,178.2"/>
	<path class="st0" d="M985.9,146.1c4.9,1.9,8.5,4.2,10.7,7c2.2,2.8,3.4,6.2,3.4,10.4c0,6-2.2,11-6.7,14.7
		c-4.5,3.8-10.3,5.6-17.6,5.6c-7.6,0-14.3-1.4-20.2-4.3v-5.2c7.1,2.6,13.7,3.9,19.7,3.9c5.6,0,10.1-1.3,13.5-3.9
		c3.4-2.7,5-6.3,5-10.8c0-2.8-0.9-5.2-2.7-7.2c-1.8-2-4.8-3.8-8.9-5.3l-11.9-4.6c-5.2-2-9.1-4.5-11.6-7.3c-2.4-2.8-3.7-6.3-3.7-10.5
		c0-5.7,2-10.2,6.1-13.8c4.1-3.5,9.4-5.3,16-5.3c3,0,6.1,0.4,9.5,1.1c3.3,0.7,6.4,1.7,9.3,3v5.2c-7-2.4-13.1-3.7-18.5-3.7
		c-5.2,0-9.2,1.2-12,3.4c-2.8,2.3-4.2,5.6-4.2,9.8c0,2.4,0.4,4.3,1.3,5.8c0.9,1.5,2.2,2.8,4.2,4c1.9,1.2,4.7,2.5,8.3,3.8
		L985.9,146.1z"/>
	<path class="st0" d="M0,61.8v0.8c0.1,0.7,0.5,1.4,1.2,2.1c38.1,34.3,88.5,54.9,144.4,54.9c39.9,0,86.2-12.5,118.2-36
		c5.3-3.9,0.8-9.7-4.6-7.5C223.4,91.3,184.5,98.6,149,98.6C96.5,98.6,45.6,84.2,4.5,60.4c-0.7-0.4-1.4-0.6-2.1-0.6
		C1.1,59.8,0.2,60.6,0,61.8"/>
	<path class="st0" d="M0,61.8v0.8c0.1,0.7,0.5,1.4,1.2,2.1c38.1,34.3,88.5,54.9,144.4,54.9c39.9,0,86.2-12.5,118.2-36
		c5.3-3.9,0.8-9.7-4.6-7.5C223.4,91.3,184.5,98.6,149,98.6C96.5,98.6,45.6,84.2,4.5,60.4c-0.7-0.4-1.4-0.6-2.1-0.6
		C1.1,59.8,0.2,60.6,0,61.8"/>
	<path class="st0" d="M239,63c-1.1,0.8-1.7,1.7-1.8,2.5V66c0.1,0.9,1,1.5,2.6,1.3c10.3-1.2,33.2-3.9,37.3,1.3
		c4.1,5.2-4.6,26.6-8.4,36.1c-1.2,2.9,1.3,4.1,4,1.9c17.2-14.2,21.6-44.1,18.1-48.4c-1.7-2.1-9.5-4-19.3-4
		C261,54.2,248.4,56.4,239,63"/>
	<path class="st0" d="M239,63c-1.1,0.8-1.7,1.7-1.8,2.5V66c0.1,0.9,1,1.5,2.6,1.3c10.3-1.2,33.2-4,37.3,1.2
		c4.1,5.2-4.5,26.6-8.4,36.1c-1.2,2.9,1.3,4.1,4,1.9c17.2-14.2,21.6-44.1,18.1-48.4c-1.7-2.1-9.5-4-19.3-4
		C261,54.2,248.4,56.4,239,63"/>
</g>
</svg>
