<?xml version="1.0" encoding="utf-8"?>
<!-- Generator: Adobe Illustrator 27.0.1, SVG Export Plug-In . SVG Version: 6.00 Build 0)  -->
<svg version="1.1"
	 id="svg21567" xmlns:inkscape="http://www.inkscape.org/namespaces/inkscape" xmlns:sodipodi="http://sodipodi.sourceforge.net/DTD/sodipodi-0.dtd" xmlns:svg="http://www.w3.org/2000/svg" sodipodi:docname="Apple Studios logo (2022-present).svg"
	 xmlns="http://www.w3.org/2000/svg" xmlns:xlink="http://www.w3.org/1999/xlink" x="0px" y="0px" viewBox="0 0 1084 479.4"
	 style="enable-background:new 0 0 1084 479.4;" xml:space="preserve">
<style type="text/css">
	.st0{fill:#FFFFFF;}
	.st1{fill-rule:evenodd;clip-rule:evenodd;fill:#FFFFFF;}
</style>
<sodipodi:namedview  bordercolor="#999999" borderopacity="1" id="namedview21569" inkscape:current-layer="g21573" inkscape:cx="519.66589" inkscape:cy="360.64661" inkscape:pagecheckerboard="0" inkscape:pageopacity="0" inkscape:pageshadow="0" inkscape:window-height="683" inkscape:window-maximized="1" inkscape:window-width="1366" inkscape:window-x="0" inkscape:window-y="0" inkscape:zoom="0.657153" pagecolor="#ffffff" showgrid="false">
	</sodipodi:namedview>
<g id="g21573" transform="translate(-1396.2281,-597.18457)" inkscape:groupmode="layer" inkscape:label="Image">
	<g id="g23286">
		<g>
			<path id="path23218" class="st0" d="M1918.3,804.9h20.6l11.7-34.2h48.7l11.6,34.2h20.6l-45.9-126.4h-21.2L1918.3,804.9z
				 M1974.7,699.5h0.4l18.8,55.5h-38.1L1974.7,699.5z"/>
			<path id="path23220" class="st0" d="M2040.3,835.6h18.9v-46.2h0.4c5.4,10.7,16,17.3,29.1,17.3c23.1,0,38.3-18.5,38.3-47.8v-0.1
				c0-29.4-15.1-47.8-38.5-47.8c-13.1,0-23.3,6.7-28.8,17.6h-0.4v-15.9h-18.9V835.6z M2083.5,790.5c-14.3,0-24.4-12.4-24.4-31.5
				v-0.1c0-19.2,10.1-31.6,24.4-31.6c14.8,0,24.2,12,24.2,31.6v0.1C2107.7,778.4,2098.4,790.5,2083.5,790.5z"/>
			<path id="path23222" class="st0" d="M2138.8,835.6h18.9v-46.2h0.4c5.4,10.7,16,17.3,29.1,17.3c23.1,0,38.3-18.5,38.3-47.8v-0.1
				c0-29.4-15.1-47.8-38.5-47.8c-13.1,0-23.3,6.7-28.8,17.6h-0.4v-15.9h-18.9V835.6z M2182.1,790.5c-14.3,0-24.4-12.4-24.4-31.5
				v-0.1c0-19.2,10.1-31.6,24.4-31.6c14.8,0,24.2,12,24.2,31.6v0.1C2206.3,778.4,2197,790.5,2182.1,790.5z"/>
			<path id="path23224" class="st0" d="M2238.1,804.9h18.9V678.5h-18.9V804.9z"/>
			<path id="path23226" class="st0" d="M2313,806.8c22.3,0,36.5-13.3,39.5-27.9l0.2-1h-18l-0.3,0.7c-2.4,6.9-9.8,12.7-21,12.7
				c-15.1,0-24.6-10.2-25-27.6h65.3v-6.4c0-27.7-15.9-46.3-41.7-46.3s-42.5,19.3-42.5,48.1v0.1
				C2269.5,788.3,2285.9,806.8,2313,806.8L2313,806.8z M2312.1,726.5c12.4,0,21.3,7.8,22.9,23.7h-46.3
				C2290.4,734.9,2299.8,726.5,2312.1,726.5z"/>
			<path id="path23228" class="st0" d="M1967.1,995.2c30,0,48.2-14.6,48.2-37.7v-0.1c0-19.5-11.2-30.1-37.3-35.7l-13.8-2.9
				c-15.8-3.4-23-9.2-23-18.7v-0.1c0-11,10-18.5,25.7-18.6c15,0,25.1,7.1,26.9,18.8l0.1,1.2h19.1l-0.1-1.5
				c-1.3-21.2-19.4-35.6-45.7-35.6c-26.7,0-45.7,14.8-45.8,36.4v0.1c0,18.7,12,30.1,36.8,35.4l13.8,2.9c16.7,3.7,23.7,9.2,23.7,19.4
				v0.1c0,11.8-10.7,19.4-27.6,19.4s-28.6-7.3-30.3-18.9l-0.2-1.1h-19.1l0.1,1.3C1920,981.7,1938.7,995.2,1967.1,995.2L1967.1,995.2
				z"/>
			<path id="path23230" class="st0" d="M2060.1,995c3.9,0,7.4-0.4,9.6-0.8v-14.6c-1.4,0.2-3.1,0.4-5.1,0.4c-8,0-12.2-2.8-12.2-12.2
				V916h17.3V901h-17.3v-24h-19.4v24h-13.2V916h13.2v52.8C2033.2,987.3,2041.9,995,2060.1,995L2060.1,995z"/>
			<path id="path23232" class="st0" d="M2113.9,995c14,0,23.4-6.4,28.2-15.7h0.4v13.8h19V901h-19v53.8c0,14.4-8.6,23.9-21.9,23.9
				c-13.1,0-19.6-7.7-19.6-21.6V901h-18.9v59.7C2082.1,981.9,2093.7,995,2113.9,995z"/>
			<path id="path23234" class="st0" d="M2211.9,995c13.2,0,23.4-6.7,28.9-17.4h0.4v15.6h19V866.7h-19v49.9h-0.4
				c-5.5-10.9-16-17.4-29.1-17.4c-23.1,0-38.4,18.4-38.4,47.7v0.1C2173.3,976.4,2188.4,995,2211.9,995L2211.9,995z M2216.9,978.7
				c-15,0-24.2-12-24.2-31.6V947c0-19.4,9.3-31.5,24.2-31.5c14.2,0,24.4,12.4,24.4,31.5v0.1C2241.2,966.2,2231.1,978.7,2216.9,978.7
				L2216.9,978.7z"/>
			<path id="path23236" class="st0" d="M2286.9,886.8c6.2,0,11-4.9,11-10.9c0-6-4.8-11-11-11c-6.1,0-11,4.9-11,11
				C2275.9,881.9,2280.8,886.8,2286.9,886.8z M2277.5,993.1h18.9V901h-18.9V993.1z"/>
			<path id="path23238" class="st0" d="M2352.7,995c26.4,0,43.7-18.2,43.7-47.9v-0.2c0-29.5-17.5-47.7-43.8-47.7
				c-26.2,0-43.6,18.2-43.6,47.7v0.2C2309,976.7,2326.3,995,2352.7,995z M2352.8,979.1c-14.8,0-24.4-11.7-24.4-32.1v-0.2
				c0-20.1,9.7-31.8,24.3-31.8c14.8,0,24.4,11.7,24.4,31.8v0.2C2377.1,967.4,2367.6,979.1,2352.8,979.1z"/>
			<path id="path23240" class="st0" d="M2442.8,995c21.7,0,37.5-11.6,37.5-28.4v-0.1c0-13.2-7.2-20.7-26-25.1l-15-3.4
				c-9.9-2.4-13.7-6.2-13.7-11.9V926c0-7.4,6.4-12.2,16.6-12.2c10.7,0,17,5.6,18.1,13.7l0.1,0.6h17.8l-0.1-1.1
				c-1-15.7-14.1-27.9-35.9-27.9c-21.2,0-35.6,11.3-35.6,27.8v0.1c0,13.4,8.7,21.8,26.2,25.8l15.1,3.4c9.9,2.4,13.2,5.8,13.2,11.7
				v0.1c0,7.4-6.8,12.2-18.2,12.2c-11.7,0-18-5-19.7-13.5l-0.2-0.9h-18.7l0.1,0.8C2406.3,983.6,2419.7,995,2442.8,995z"/>
		</g>
		<path id="path78" class="st1" d="M1661.7,673.7c16.8-20.2,28-48.5,24.9-76.5c-24.1,0.9-53.3,16.1-70.6,36.3
			c-15.5,17.9-29.1,46.7-25.4,74.1C1617.6,709.7,1645,694,1661.7,673.7 M1753.2,1017c23.1-33.8,32.6-66.5,33.2-68.2
			c-0.7-0.3-63.7-24.4-64.3-97c-0.6-60.7,49.5-89.8,51.8-91.2c-28.4-41.9-72.3-46.5-87.8-47.6c-39.4-2.9-72.9,22.1-91.6,22.1
			c-18.9,0-48.1-21.4-79.1-20.8c-40.7,0.6-78.1,23.7-99.1,60.1c-42.2,73.4-10.8,182,30.4,241.6c20.1,29.1,44.1,61.9,75.6,60.7
			c30.4-1.2,41.8-19.6,78.5-19.6c36.7,0,47,19.6,79.1,19C1712.5,1075.3,1733.2,1046.3,1753.2,1017"/>
	</g>
</g>
</svg>
