<?xml version="1.0" encoding="utf-8"?>
<!-- Generator: Adobe Illustrator 27.0.1, SVG Export Plug-In . SVG Version: 6.00 Build 0)  -->
<svg version="1.1"
	 id="svg2" xmlns:inkscape="http://www.inkscape.org/namespaces/inkscape" xmlns:sodipodi="http://sodipodi.sourceforge.net/DTD/sodipodi-0.dtd" xmlns:svg="http://www.w3.org/2000/svg" sodipodi:docname="Apple Original Films.svg"
	 xmlns="http://www.w3.org/2000/svg" xmlns:xlink="http://www.w3.org/1999/xlink" x="0px" y="0px" viewBox="0 0 1060.8 479.4"
	 style="enable-background:new 0 0 1060.8 479.4;" xml:space="preserve">
<style type="text/css">
	.st0{fill-rule:evenodd;clip-rule:evenodd;fill:#FFFFFF;}
</style>
<sodipodi:namedview  bordercolor="#666666" borderopacity="1.0" id="namedview4" inkscape:current-layer="g8" inkscape:cx="523.0686" inkscape:cy="423.76639" inkscape:pagecheckerboard="0" inkscape:pageopacity="0.0" inkscape:pageshadow="2" inkscape:window-height="705" inkscape:window-maximized="1" inkscape:window-width="1366" inkscape:window-x="-8" inkscape:window-y="-8" inkscape:zoom="0.4330216" pagecolor="#ffffff" showgrid="false">
	</sodipodi:namedview>
<g id="g8" transform="matrix(1.3333333,0,0,-1.3333333,-771.08398,144.19333)" inkscape:groupmode="layer" inkscape:label="0119_001">
	<g id="g4566">
		<g>
			<path id="path4453" class="st0" d="M990.2,44.5c-26.8,0-43.6-18.5-43.6-48.2s16.8-48.1,43.6-48.1c26.8,0,43.6,18.4,43.6,48.1
				S1017,44.5,990.2,44.5z M990.2,31.8c17.7,0,28.8-13.7,28.8-35.4c0-21.7-11.1-35.4-28.8-35.4c-17.7,0-28.8,13.7-28.8,35.4
				C961.4,18.1,972.6,31.8,990.2,31.8z"/>
			<path id="path4449" class="st0" d="M1058.7,6.1h-0.3v11.6h-13.3v-67.9h13.9v40.7c0,9.6,5.5,15.6,14.5,15.6c2.7,0,5.2-0.3,6.3-0.8
				v13c-1,0.2-2.8,0.5-4.8,0.5C1067.1,18.8,1061,14.1,1058.7,6.1"/>
			<path id="path4445" class="st0" d="M1089.2-50.2h13.9v67.9h-13.9V-50.2z M1096.2,43.6c-4.5,0-8.1-3.6-8.1-8c0-4.4,3.6-8,8.1-8
				c4.4,0,8.1,3.6,8.1,8C1104.2,40.1,1100.6,43.6,1096.2,43.6"/>
			<path id="path4443" class="st0" d="M1142.9,18.8c-17.4,0-28.5-13.4-28.5-34.8c0-21.2,11.2-34.5,28.2-34.5
				c9.7,0,17.7,4.8,21.5,12.2h0.3v-11.2c0-9.3-6.5-15.5-17.3-15.5c-7.9,0-14.1,3.8-16.1,9.4h-14c1.8-11.7,13.6-20.3,29.6-20.3
				c19.4,0,31.9,10.6,31.9,26.8v66.7h-13.6V6.1h-0.3C1160.4,14,1152.5,18.8,1142.9,18.8z M1146.3,7c10.9,0,18.1-9.2,18.1-23.1
				c0-14-7.2-22.8-18.1-22.8c-10.7,0-17.7,8.7-17.7,22.8C1128.6-1.9,1135.6,7,1146.3,7z"/>
			<path id="path4437" class="st0" d="M1199.6,43.6c-4.4,0-8.1-3.6-8.1-8c0-4.4,3.6-8,8.1-8c4.5,0,8.1,3.6,8.1,8
				C1207.6,40.1,1204,43.6,1199.6,43.6 M1192.6-50.2h13.9v67.9h-13.9V-50.2z"/>
			<path id="path4435" class="st0" d="M1255.4,18.9c-10.4,0-17.7-4.8-21.3-12.5h-0.3v11.4h-13.3v-67.9h13.9v39.6
				c0,10.5,6.3,17.5,16.1,17.5c9.7,0,14.4-5.6,14.4-15.8v-41.2h14v43.9C1278.9,9.3,1270.3,18.9,1255.4,18.9"/>
			<path id="path4433" class="st0" d="M1319.4,18.9c-16.8,0-27.2-9-28-21.3h13.1c1.2,6.1,6.3,9.9,14.3,9.9c8.5,0,13.6-4.5,13.6-12.1
				v-5.2l-18.6-1.1c-16.1-0.9-25.2-8.2-25.2-20.1c0-12.2,9.3-20.5,22.6-20.5c8.9,0,17.5,4.8,21.4,12.3h0.3v-11.2h13.3v46.8
				C1346.4,10.2,1335.9,18.9,1319.4,18.9z M1332.5-19.4v-5.4c0-8.8-7.6-15.5-17.3-15.5c-7.5,0-12.4,3.9-12.4,9.8
				c0,5.8,4.7,9.5,13,10.1L1332.5-19.4z"/>
			<path id="path4429" class="st0" d="M1360-50.2h13.9v93.1H1360V-50.2z"/>
			<path id="path4427" class="st0" d="M945.2-186.5h14.4v39h40v12.2h-40v29.5h43.7v12.5h-58.1V-186.5z"/>
			<path id="path4423" class="st0" d="M1020.7-92.6c-4.4,0-8.1-3.6-8.1-8c0-4.4,3.6-8,8.1-8s8.1,3.6,8.1,8
				C1028.7-96.2,1025.1-92.6,1020.7-92.6 M1013.7-186.5h13.9v67.9h-13.9V-186.5z"/>
			<path id="path4421" class="st0" d="M1042.7-186.5h13.9v93.1h-13.9V-186.5z"/>
			<path id="path4419" class="st0" d="M1144.5-117.4c-9.7,0-17.7-5-21.2-13.3h-0.3c-2.7,8.5-9.6,13.3-19,13.3
				c-9.2,0-16.3-5-19.3-12.6h-0.3v11.4h-13.3v-67.9h13.9v41.9c0,8.7,5.9,15.2,14.1,15.2c7.9,0,12.8-5,12.8-12.8v-44.3h13.7v42.4
				c0,8.6,5.7,14.7,14,14.7c8.3,0,13-5,13-13.8v-43.3h14v46.7C1166.7-126.3,1158-117.4,1144.5-117.4"/>
			<path id="path4417" class="st0" d="M1211.9-148.4l-11,2.5c-7.3,1.7-10.5,4.6-10.5,8.9c0,5.4,5,9.1,12.6,9.1
				c7.8,0,12.6-4.1,13.4-10.7h13.1c-0.4,12.5-10.7,21.3-26.5,21.3c-15.6,0-26.2-8.3-26.2-20.5c0-9.9,6.4-16.1,19.3-19l11-2.6
				c7.4-1.7,9.9-4.3,9.9-8.7c0-5.6-5.2-9-13.6-9c-8.5,0-13.4,3.5-14.7,10.6h-13.8c1.3-12.9,11.5-21.2,28.4-21.2
				c16,0,27.5,8.5,27.5,20.9C1231.1-157,1225.8-151.6,1211.9-148.4"/>
		</g>
		<path id="path78" class="st0" d="M777.4,50.7c12.6,15.2,21,36.4,18.7,57.4c-18.1-0.7-39.9-12.1-52.9-27.2
			c-11.6-13.5-21.8-35-19.1-55.6C744.3,23.7,764.9,35.6,777.4,50.7 M846-206.7c17.3,25.3,24.5,49.8,24.9,51.1
			c-0.5,0.2-47.7,18.3-48.2,72.7c-0.4,45.5,37.1,67.4,38.8,68.4c-21.3,31.4-54.2,34.9-65.8,35.7C766.1,23.5,741,4.7,727,4.7
			c-14.2,0-36.1,16.1-59.3,15.6c-30.5-0.4-58.6-17.8-74.3-45.1c-31.7-55-8.1-136.5,22.8-181.2c15.1-21.8,33.1-46.4,56.7-45.5
			c22.8,0.9,31.4,14.7,58.9,14.7c27.5,0,35.2-14.7,59.3-14.3C815.5-250.5,831.1-228.7,846-206.7"/>
	</g>
</g>
</svg>
