<?xml version="1.0" encoding="utf-8"?>
<!-- Generator: Adobe Illustrator 27.0.1, SVG Export Plug-In . SVG Version: 6.00 Build 0)  -->
<svg version="1.1" id="Layer_1" xmlns="http://www.w3.org/2000/svg" xmlns:xlink="http://www.w3.org/1999/xlink" x="0px" y="0px"
	 viewBox="0 0 929.8 1000" style="enable-background:new 0 0 929.8 1000;" xml:space="preserve">
<style type="text/css">
	.st0{fill:#FFFFFF;}
</style>
<g>
	<path class="st0" d="M157.6,565.7c0,0,5.3-6.1,15.3-6.1l21.3-1c16.4-1.4,32.4-4.5,47.8-9.2c-13.5-21.6-23.2-47.5-30.6-75.6
		c-5.5,7.4-14.3,12.3-23.6,12.3c-14.8,0-21-16.3-25.3-30c-11.8-37.2-18.7-88.9-45.9-102.4c-15-7.4-44.3-19.5-64.6-22.1
		c-30.1,0-28.9,22.4-28.9,22.4v5.9l3.5,1.5l17.8-5.3h7.6l-0.2,3.7c-16.8,0-17.9,18.9-17.9,18.9l-0.3,8l3.5,0.6l18.4-5h7.4l-0.1,3.7
		c-18.5,0-17.8,18.7-17.8,18.7v6.2l4.4,1.2l17.2-3.3l6.8-0.1c20.9,1.4,24,9.2,24,9.2c12.4,19.2,35.2,137.5,35.2,137.5
		c0,8.2,6.5,14.8,14.6,14.8L157.6,565.7"/>
	<path class="st0" d="M22.9,990.9c7.8,0,21.8-1.4,21.8-16.1c0-15.3-13.5-16.7-21.8-16.7H8.4v32.8H22.9z M20.9,950.5
		c7.2,0,19.4-1.1,19.4-14.2c0-13.7-13.2-14.2-19.4-14.2H8.4v28.3H20.9z M0,914.7h20.9c8.8,0,27.9,1.1,27.9,22
		c0,9.1-5.7,14-10.1,16.9c10.4,3,14.6,12.6,14.6,21.3c0,6.5-2.7,23.7-30.3,23.7H0V914.7z"/>
	<polygon class="st0" points="256.2,990.9 297.2,922.1 257.4,922.1 257.4,914.7 306.8,914.7 306.8,922.1 265.8,990.9 308,990.9 
		308,998.6 256.2,998.6 	"/>
	<polygon class="st0" points="388,914.7 388,998.6 434.1,998.6 434.1,990.9 396.4,990.9 396.4,960 432.8,960 432.8,952.4 
		396.4,952.4 396.4,922.1 434.1,922.1 434.1,914.7 	"/>
	<polygon class="st0" points="513.6,914.7 513.6,998.6 556.7,998.6 556.7,990.9 522,990.9 522,914.7 	"/>
	<polygon class="st0" points="629,914.7 629,998.6 675.1,998.6 675.1,990.9 637.4,990.9 637.4,960 673.9,960 673.9,952.4 
		637.4,952.4 637.4,922.1 675.1,922.1 675.1,914.7 	"/>
	<path class="st0" d="M886.7,975c0.2,3.5,1.7,17.4,17.4,17.4c11,0,17.2-8,17.2-16.9c0-10.4-7.6-13.9-11.1-15.3
		c-10.8-4.1-29.3-4.9-29.3-24.2c0-9.6,6.5-22.8,23.9-22.8c15.5,0,22.7,11.5,22.9,22.6h-8.4c-0.2-5.4-2.9-15.1-15.6-15.1
		c-10.3,0-14.4,7.8-14.4,15.3c0,9.2,6.1,11.8,16.6,14.6c8.9,2.5,24,6.7,24,24.8c0,11.3-8.2,24.5-25.6,24.5c-14.6,0-26-10.3-26-25
		L886.7,975L886.7,975z"/>
	<path class="st0" d="M143.5,963.1l26-38.2v38.2H143.5z M166.6,914.7L109.1,999l9.8-0.2l19.3-28.2h31.4v28.2h8.4v-84.2L166.6,914.7
		L166.6,914.7z"/>
	<polygon class="st0" points="829.3,914.7 771.9,998.9 760.6,998.9 760.6,914.7 768.9,914.7 768.9,988.7 819.6,914.7 	"/>
	<path class="st0" d="M189.5,124.1c-13.9,0-25.3,11.3-25.3,25.3c0,13.9,11.4,25.2,25.3,25.2c13.9-0.1,25.3-11.3,25.3-25.2
		C214.8,135.4,203.4,124.1,189.5,124.1"/>
	<path class="st0" d="M411,402.7l1.1-1.2l2.9-3.1l0.5-0.6l2.4-2.4l3.3-3.3l2.5-2.6l2.1-2.1l1.8-1.9l1-1l0.5-0.6l17.9-18.2l3.3-3.7
		l0.6-0.8l3.3-9.7c0-8.6-6.6-15.5-14.7-15.5l-10.5,4.5v0.1l-1.6,2.1l-0.3,0.4l-0.2,0.2l-9.7,12.3l-15.8,20.5l-0.3,0.5l-4.9,6.7
		l-1.3,1.6l-1.8,2.4l0.9-0.1C402.5,387.2,409.9,393.9,411,402.7"/>
	<polygon class="st0" points="378.8,441 380.4,438.8 382,436.6 382.6,435.8 384,434.1 385.7,431.9 387.2,429.9 388.1,428.8 
		389.5,427.1 391,425.3 399.3,415.6 401.3,413.4 401.5,413 402.1,412.3 402.4,412.1 404.5,405.2 393.7,393.8 384.5,399.1 
		384.3,399.3 383.6,400.5 377.5,409.6 376.7,410.6 365.1,429.8 364.8,430.4 364.1,431.7 365.3,431.5 	"/>
	<path class="st0" d="M432.5,423.6l0.8-0.8l2.5-2.2l2.9-2.5l1-0.8l1.4-1.3l2.2-2.1l2.2-2.1l2.3-2.1l3.3-3l2.4-2.2l3.2-3.1l2.1-1.9
		l3.3-3.3l1-1l0.5-0.4l3.3-3.5l0.3-0.3l3.8-3.9l6.1-11.9c0-7.6-5.7-13.6-12.9-13.6l-7.8,4.1l-1.2,1.1L452,370l-0.1,0.2l-0.8,0.7
		l-17,17.3l-1.9,1.9l-3.3,3.5l-0.5,0.5l-2.2,2.3l-1.3,1.4l-2.4,2.5l-0.6,0.6l-1.9,2.1l-3.2,3.3C425.3,407.1,432.1,414.6,432.5,423.6
		"/>
	<path class="st0" d="M418.1,70.6c1,3.2,2.7,9.7,4.3,19.1c2.2,13.1,3.3,26.8,3.3,40.7c0,33.4-6.5,66.1-19.6,97.2l8.4-1.6
		c10.2,0,19,6.8,22.2,16.6c14.7-36.9,17.9-74.6,17.9-100.2c0-12.6-0.7-25.2-2.1-37.3c-0.1-0.2-1.4-16.2-5.7-31.4
		c-4.5-16.1-11-25.7-17.6-25.7c-4,0.1-12.8,1.8-12.9,14.5l0.2,3.7L418.1,70.6"/>
	<polygon class="st0" points="357.9,429.2 359.1,427.1 359.7,425.9 365.3,416.3 365.8,415.6 371.8,406 372.3,405.3 376.1,399.7 
		378.5,396.3 379.1,395.2 379.4,394.7 381.2,388.1 369.4,375.6 359.1,382.8 355.7,388.7 354.9,390 350.5,397.8 349.1,400.2 
		344.7,408.5 343.9,410.3 339.7,418.8 339.2,420 343.1,419.5 	"/>
	<path class="st0" d="M446.9,250.9c9.6,0,18.2,6.4,21.4,15.6c21.2-46.9,24.4-88.1,24.4-108.7v-8.3c0-23.4-2.5-40-7.6-49.5l-11.2-8.1
		h-0.6c-9.4,0-12.3,7.2-13.7,12.7l-0.2,0.4c1,8.2,2.1,21.3,2.1,37.5c0,28-3.7,69.4-21.2,109.4L446.9,250.9"/>
	<path class="st0" d="M483.7,373.6l0.8-0.9l1.9-2.2l3.3-3.6l1.8-2.2l2.1-2.3l2.5-3l12-15.2l4.1-5.4l1-1.3l1.4-1.8l4.4-9.9
		c0-8.3-6.5-15-14.4-15c-7.9,0-13.4,9.6-13.5,9.6l-3.7,6.2l-1.7,2.5l-1.4,2l-2.8,4l-3.7,5.2l-2.5,3.3l-0.5,0.5l-5.6,7.1l-0.5,0.5
		l-0.6,1l-1.2,1.4l-0.6,0.6l-0.3,0.2C475.5,356,482.9,363.8,483.7,373.6"/>
	<path class="st0" d="M401.3,222.4c11.9-29.5,17.8-60.4,17.8-92c0-14.3-1.2-28.4-3.7-41.9L412.7,76l-1-3.5V72l-1.1-3.2l-0.2-0.6
		l-0.3-0.6l-0.4-0.9l-0.3-0.4l-2.1-5.1L400,45.9c-7.2-14.3-14-24.6-18.3-27.4l-1.8-0.9l-0.8-0.2l-5.5-1.3c-7.2,0-13.1,6.2-13.1,13.8
		l1.5,6.2l0.2,1l7.9,16.7c7.9,16.1,16.1,32.6,16.1,61.3c0,15-2.2,32.1-6.6,52.1c-1.3,5.6-6.8,21.7-13.2,38.2l11.1-2.5
		C389,202.9,398.4,210.9,401.3,222.4"/>
	<polygon class="st0" points="316.5,404.4 316.1,406 315.4,407.9 315,408.9 314.9,409.5 319.6,408.7 333.4,416.9 333.8,415.9 
		334.1,415.2 337.8,407.6 339,405.2 343.5,396.6 344.4,395 344.7,394.5 348.3,388.2 349.2,386.6 349.5,386 349.8,385.4 352,381.9 
		352.2,381.4 353.8,375.7 341.4,362.7 331.4,368.2 330.2,370.1 329.6,371.7 326.9,378 326.6,378.6 324,384.7 323.8,385.4 
		323.2,386.5 321.1,392.2 319.3,392.3 320.8,392.8 318.9,398.1 	"/>
	<path class="st0" d="M365.9,302.7l-3.8,6.8l-5.1,9.3l-1.9,3.3l-2.7,4.9l-1.9,3.5l-7.5,14.2l-1.3,2.5l-2.1,4l-2.5,4.9l-0.2,0.5
		l4.5-0.6c8.4,0,15.6,5.5,18.1,13.6l0.9-1.5l1.8-2.8l1-1.6l7.4-11.6l1-1.4l1.1-1.6l6.5-9.9l11.5-17.4l0.2-0.4l1.7-2.5l0.5-0.6
		l3.3-9.4c0-9.1-7.2-16.5-15.8-16.6C373,292.5,367.7,299.7,365.9,302.7"/>
	<path class="st0" d="M446.9,257.5c-7.4,0-13.4,8.5-15.7,12.3l-1,1.8l-0.6,1l-6.7,11.2l-4.9,7.8l-3,4.8l-1.9,3.2l-0.8,1l-3.8,6.1
		l3.2-0.3c10.7,0,19.5,8.3,20.9,18.9l1.4-1.8l1.4-1.7l0.5-0.6l1-1.4l0.7-0.9l1.1-1.5l0.6-0.9l0.5-0.6l1-1.4l0.6-1l1-1.3l0.3-0.3
		l1.8-2.6l0.2-0.3l2-2.9l1-1.7l0.4-0.6l0.5-0.6l8.4-13.7l0.9-1.3l0.6-0.9l2.5-4.9l0.2-0.7l0.5-0.9l0.2-0.6l0.2-0.6l1.3-5.2
		C463.2,265.1,455.9,257.5,446.9,257.5"/>
	<path class="st0" d="M504.5,304.2c9.9,0,17.9,6.8,20.3,16.3l9.9-17.5c0.2-0.3,16.6-36.5,19.3-67c-0.5-10.7-5.2-16.7-13-16.8
		l-12.7,6.1c-1.9,10.2-9.2,43.3-28,79.5L504.5,304.2"/>
	<path class="st0" d="M414.6,232.6c-8,0-13.4,7.2-15.2,10.4l-0.3,0.5l-2.3,4.3l-2.9,5.3l-0.6,1.1l-1.1,2.1l-1.2,2.2l-0.5,0.7
		l-9.3,16.6l-6.1,10.8l5.5-0.7c10.7,0,19.7,7.8,21.9,18.1l5.4-8.5l1.1-1.7l0.6-1c5.3-8.5,10-16.2,14.5-23.8l0.4-0.7l0.7-1.4l0.6-1
		l5.9-15.4C431.7,240.8,423.9,232.7,414.6,232.6"/>
	<path class="st0" d="M452.2,309.5l-2.5,3.7l-0.2,0.4l-11.9,15.9l1.8-0.1c11.6,0,21.2,9.7,21.3,21.7l0.2-0.2l2.7-3.1l5.9-7.2
		l0.3-0.4l5.3-7.1l0.4-0.4l4.7-7l0.8-1.3l3.8-6.1l0.8-1.4l0.3-0.6l1.6-2.7c5.7-8.3,6.8-12.8,6.8-15c0-9.2-7.2-16.9-16.1-16.9
		c-8,0-11.6,4.9-12.5,6.4l-9.5,15.1L452.2,309.5"/>
	<path class="st0" d="M411.8,312.9l-11.1,5.8l-5.7,8.4l-1.1,1.8l-8.6,12.8l-5.5,8.4l-6.8,10.4l-5,7.8l-0.3,0.6l-0.2,0.2l1.9-0.1
		c8.6,0,15.9,6.3,17.8,14.6l1.3-1.6l2-2.8l0.9-1.2l2.9-3.9l5.9-7.7l0.6-0.8l0.3-0.4l4.9-6.5l15.4-19.6l2.2-2.8l2.5-8.4
		C426.3,319.7,419.7,312.9,411.8,312.9"/>
	<path class="st0" d="M478.2,275.2c10,0,18.5,6.7,21.3,16.2c15.3-32.6,21-60.3,22.4-68.2l0.7-4.7c1.3-8.8,4-27,4-41.4l-0.2-4.8
		c-0.6-13.5-5.4-23.6-11.9-25.3l-3.3-0.4l-11.4,7.7v2.6c0,22.7-3.7,67.9-28.5,119L478.2,275.2"/>
	<path class="st0" d="M483.4,387.9l-7.5,3.6l-3.7,3.8l-0.6,0.6l-2.7,2.7l-2.2,2.3l-1.4,1.3l-0.5,0.6l-3.7,3.5l-1.9,1.8l-2.5,2.4
		l-2.1,1.9l-1.4,1.4l-3.6,3.3l-2.5,2.2l-3.9,3.5l-2.4,2.2l-4.5,3.9l10.7,14.9v0.4c15.3-10.2,29.7-20.8,42.5-31.6l6.1-11.9
		L483.4,387.9"/>
	<path class="st0" d="M432.1,435l-5.3,2.2l-2.4,1.8l-1.1,1.1l-19.7,16l-0.6,0.4l-5.7,4.9l-0.3,0.2l6.1,8.6
		c11-5.8,21.4-11.9,31.2-18.1l6.2-8.4L432.1,435"/>
	<polygon class="st0" points="392.8,467.4 390.1,468.8 389.5,469.4 386.6,472.8 386.5,473.1 383.9,476.7 383.6,477.2 381.2,481.2 
		379.4,481 380.8,481.7 393.1,475.6 393.9,475.2 394.7,474.8 395.2,474.6 396.5,471.5 	"/>
	<polygon class="st0" points="419.7,434.5 421.5,433.1 422,432.8 425.8,424.1 415.1,412.9 407.6,416.1 407.5,416.3 406.7,417.2 
		406.4,417.5 402.4,422.1 400.7,424 400,424.9 398.4,426.7 397,428.3 396.5,429 395,430.7 394.6,431.4 392.3,434.1 390.8,436 
		388.5,438.9 387.2,440.6 385,443.8 383.8,445.2 382.8,446.8 393.4,456.3 393.5,456 394.3,455.4 395.2,454.7 396.2,453.7 
		396.6,453.4 399.5,451 	"/>
	<path class="st0" d="M525.9,340.7l-10,4.1l-3.7,5l-2.4,3.1l-0.5,0.6l-1,1.3l-4.4,5.3l-1.8,2.1l-1.2,1.5l-1.8,2l-2.6,3l-0.6,0.9
		l-1.5,1.7l-2,2.3l-2.4,2.6l-0.8,0.9l-3.8,4.2c9.4,1.1,16.7,9.5,16.8,19.4v1c11.5-10.5,22.1-21.3,31.4-32.1l6.5-13.9
		C540.3,347.4,533.9,340.7,525.9,340.7"/>
	<path class="st0" d="M367,287.3l2.2-4l0.4-0.7l5.3-9.3c6.4-11.3,12-21.1,16.2-28.8l0.2-0.5l1.2-2.1l3.2-12
		c-0.1-0.8-1.5-20.3-18.1-20.3c-12.4,0-18.2,12.6-18.2,12.7l-4.5,9.6c-6.1,11.7-12.5,24-19.1,37.9l7.8-1.5
		C355,268.2,364.3,276.3,367,287.3"/>
	<path class="st0" d="M550,304l-9.7,2.7c-3,6-8.3,15.4-16.6,27.4l2.2-0.1c10.8,0,19.7,8.5,20.9,19.4c10.5-14.1,15.2-23.4,15.9-25.2
		l0.2-0.5l0.2-0.6l0.7-1.8l0.8-6.4l-3.8-10.5L550,304"/>
	<path class="st0" d="M538.8,373.9l-0.3,0.2c-11.9,13.9-26.1,27.9-42.2,41.5l-2.9,2.4c-15.5,13.1-33.3,26-52.7,38.1l-1,0.8l-2.1,1.3
		c-11.8,7.3-24.8,14.6-38.5,21.8l-1.6,0.9l-0.2,0.1l-1.2,0.6l-19.8,9.8l-3.2,1.4l-0.4,0.1l-12.2,5.6l-0.3,0.2l-0.3,0.1l-2.5,1.1
		l-0.3,0.1l-15.8,6.6l-2.2,0.8l-2.7,1.2l-1.7,0.7l-7.9,4.9l0,0l-10.4,17v0.1l-0.8,4.2l-0.2,1.5l-0.9,3.7l-5.7,4h-0.2l-3.8-1.4
		c-26.6-24.4-30.4-76.6-30.7-78.8l-0.3-10.9c0-10,0.9-21.1,2.5-32.6v-0.4l1-6.1c2.6-15.4,6.7-32.1,12.2-49.5l0.1-0.2l0.5-1.4
		l0.1-0.4l0.3-1.2l1-2.5c7.2-22,16.6-45.9,28-70.8l0.2-0.4l0.6-1.3l2.1-4.6c9.7-20.8,19.3-39.6,26.4-53.2l5-10.6
		c8.1-18.7,17.5-45.5,19.1-52.4c4.5-19.5,6.5-36.1,6.5-50.6c0-27.2-7.4-42.3-15.3-58.2l-8.1-17.9l-0.2-0.4l-2.1-8.8
		c0-11.2,8.9-20.4,19.7-20.4l8.1,1.8l3.6,1.7c5.5,3.9,11.5,12.7,19.7,28.2l6.1,12.8l5.2-8.1l12.7-4.6c13.9,0.4,20.5,17.5,24.2,30.5
		c2.1,7.4,3.5,15,4.4,20.9c2.6-3.4,7.5-7.5,15.5-7.5h0.8c4,0.1,11.4,1.6,16.8,11.7c5.4,10,8.1,25.6,8.4,48.1l12-5.1l5,0.7
		c9.7,2.8,15.8,14.2,16.7,31.4l0.2,5.1c0,13-2.2,29.4-3.5,38.8l11.5-3.3c9.4,0,19,7.2,19.4,23.3v0.4c-2.2,24.3-11.9,50.6-16.6,61.9
		l5.9-0.8l16,6.8l5.5,14.7l-2.2,11.1l-0.1,0.2c-1.5,3.9-9.9,19.8-28.7,42L538.8,373.9z M189.5,185.1c-19.7,0-35.7-16-35.7-35.7
		c0-19.7,15.9-35.7,35.7-35.7c19.7,0,35.7,15.9,35.7,35.7S209.2,185.1,189.5,185.1 M768.6,657.5c-12.5-2.1-14-19.9-14-22.3
		c0-4.5-5.8-44.3,12.6-98l6.4-16.7c3.6-14.6,5.5-29.9,5.5-45.6l-0.6-13.4C835.2,407.3,830,336,830,336c0-32.1-10.9-53.1-25.9-70.2
		c0,0-26.8-36.6-111.3-63.6c-29-9.2-49.2-18.7-62.8-28.4c-17-12.2-23.6-23.8-23.6-23.8c-4.1-7.3-6.4-15.7-6.4-24.6
		c0-28.1,22.7-50.8,50.6-50.8c10.9,0,21,3.4,29.2,9.2l1.3,0.6l22.3-3.8c7.6-7.6,7.6-20,0-27.6l-2.2-2l-2.1-1.1
		c-13.9-9.1-30.6-14.3-48.5-14.3c-49.4,0-89.7,40.1-89.7,89.7c0,18,5.4,34.7,14.6,48.8c0,0,26,37.4,98.4,58.2
		c61.1,17.6,98.8,50.2,110.1,75.2c3,6.8,4.5,14.4,4.5,22.3c0,26.6-18,48.9-42.4,55.4c-31.6-22.9-70.6-36.4-112.6-36.4
		c-9.9,0-19.7,0.7-29.1,2.2c-21.3,5.7-33,8.9-43.3,11.1c10.2-13.9,15.2-23.6,16.6-27.1l3-15.1c0.2-7.9-2.5-15-7.7-20.9l-15.4-9.2
		c4.9-13.9,10.7-33.3,12.3-51.6l0.2-0.6v-0.6v-0.3c-0.6-22.5-15.4-32.7-28.9-32.7h-0.1h-0.2h-0.2c1-8.2,1.8-17.6,1.8-26l-0.1-5.5
		v-0.1v-0.1c-1.1-21.5-9.9-36-23.7-39.9l-7.6-1l-2.4,0.1c-1.2-17.1-4.2-30.1-9.1-39.1c-5.5-10.4-14.5-16.6-24.9-16.6l-0.9-0.1
		l-8.8,1.3l-2-7.7c-2.6-9-10.6-36.8-33.1-37.4h-0.2h-0.2L414,36.4c-8.8-17-15.5-26.4-22.4-31.2l-5.9-2.8L374.5,0h-0.2
		c-16.1,0-29.2,13.5-29.2,29.9l2.6,12.1l0.1,0.3v0.1l0.1,0.2l8.4,18.6c7.8,15.6,14.5,29.1,14.5,54.1c0,13.8-2.1,29.6-6.4,48.4
		c-1.4,6.4-10.7,32.8-18.6,50.9v0.2l-4.6,9.7c-4,7.8-8.3,16.1-12.6,24.6c-3.9-45.6-21.3-91.4-35.5-121.1c7.7-27.2,1-60.3-2.6-74.2
		l-6.9-6.8l-5.8,5.1c-5.3,15.4-13.7,30.7-15.7,29.6c-7.8-4-28.2-12.9-53.5-12.9c-28-0.2-49.4,7.8-49.4,7.8l-0.3,0.1
		c-8.1-5.9-13.5-11.1-19.4-21.5l-6.1-5.7l-7.2,7.5c-1.5,7.9-2.7,24,8.5,40.4c-10.2,12.7-16.8,28.3-18.2,45.5l-0.9,4.2
		c-40.6,25.6-34.6,59.7-34.4,67c0,0,3.7,20.1,15,8.8c1.8-1.8,9-11.9,23.4-11.9c10.2,0,19.7,3,27.5,8.4c4.4,2.9,55,24.8,65.3,194.8
		l0.5,16.2l0.2-0.7l1.8,19.7l1.3,8.8c5.6,31.8,17.3,61.2,33.8,87.3h0.2c5.4,8.5,11.4,16.7,17.8,24.6l0.8,1
		c6.5,8,13.5,15.6,21.1,22.6c-6.1,52.2-23.5,109.7-28.4,119.3c-5.7,11.3-44.6,61.5-44.6,61.5l-15.4,4.3h-22.3
		c-20.6,0-20.5,20.4-20.5,20.4c-16,0-13.9,22.6-13.9,22.6h23.2v-0.8c0,0,1.2-23.9,21.9-23.9H203l0.2,5.7l-12.6,0.8
		c-10.5,1.9-12.8,11.8-12.9,18.2h64.7l17.7-6.7c0,0,6.1-13.1,15.8-32.5l2.7-2.1c5.2-1.1,10.7-5.3,18.2-12.9
		c11.9-11.8,14.4-34.9,13.8-49.5c21.5-37.4,46-74.2,65.1-87.4c19.2-13.2,31.4-24.7,38.9-34.2l1.8-0.2c36.5,0,70.8-10.4,99.9-28
		l5.5-3.5c6.2,42.4,33.8,78.5,47.1,93.8c42.3,48.9-23.2,113.8-27.7,116.9l-14.1,3.3h-25.3c-20.6,0-20.5,20.4-20.5,20.4
		c-16,0-13.9,22.6-13.9,22.6h23.2v-0.8c0,0,1.7-23.9,22.4-23.9h12.9l0.2,5.7l-12.9,0.8c-10.5,1.9-12.5,11.8-12.6,18.2h62.7
		c0,0,15.9,1.3,29.5-24c0,0,40-68.5,52.8-100.5c0,0,5.6-14.8-2.9-22.9l-8.1-14.8c-0.9-9.6-1.4-29.8,4.3-53v-0.2l0.6-2.4l2.4-8.4
		l0.2,0.2c10.7-33.7,28.7-64.1,52.1-89.5l6.6,0.2l1.4,6.5c-21.9,29-41.6,58.8-51,93.3c11,12.7,22.1,22.1,38.7,38.7
		c45.6,45.7,39.1,111.3,39.1,111.3c0,25.2-22.5,22.4-22.5,22.4h-22.4c-20.6,0-20.4,20.4-20.4,20.4c-16,0-13.9,22.6-13.9,22.6h22.4
		v-0.8c0,0,1.9-23.9,22.4-23.9h13l0.2,5.7l-12.9,1.3c-10.6,1.9-12.5,11.3-12.7,17.7h73.6c0,0,23.9,1,23.9-24c0,0-4.5-84.2,0-118
		C780.1,679.2,783.4,660,768.6,657.5"/>
	<path class="st0" d="M307.8,409.8l0.8-2.3l0.3-1l1-2.8l0.2-0.4l0.4-1.2l0.6-1.8l1-2.8l0.4-0.9l0.5-1.4l1-2.9l0.7-1.8l2.5-6.5l0.8-2
		l2.9-6.8l2.3-5.3l0.2-0.6l0.3-3c0-7.7-6-14.1-13.4-14.1c-10.5,0-14,13.5-14,13.6c-4.1,13.1-7.5,25.8-10,37.9l7.5-1.8L307.8,409.8"
		/>
	<path class="st0" d="M380.8,469.6l3.5-4.3l1-1.2l1.8-4.6l-5.7-6.2l-3.9,1.7l-0.4,0.6l-2.8,4.1l-0.7,1.1l-0.6,1.4
		c-5.9,10.2-9.4,19.5-10.9,27.6v0.6l10-4.5l0.2-0.7l0.3-0.8v-0.4l1-2.1l0.2-0.6l1.1-2.2l0.6-1.1l1.4-2.3l2-3.1l0.4-0.5l1.3-1.8
		L380.8,469.6"/>
	<path class="st0" d="M307.5,525.6l-0.5-1.4l-0.2-0.5l-1.9-4.9l-0.8-2.2L304,516l-1.5-4.9l-0.8-2.9l-1.2-4.5l-0.7-3l-0.6-3.8l-0.2-1
		l-0.3-1.9l-0.2-0.6l-0.9-6.9l-0.2-0.7l-0.6-14.3c0-15.5,2.3-31.4,7-48.3v-0.2l0.2-1.4l0.2-1.7l-10.4-11l-9.9,7.8l-0.5,3.2
		c-1.9,12.1-2.9,23.4-2.9,33.8l0.3,10.5c0,0.6,3.8,51.3,27.9,73.8l0.1-1.4l0.2-1.8l0.7-3.9l-1.6-3.6L307.5,525.6z"/>
	<path class="st0" d="M328.8,358.4l5.9-11.9l0.2-0.6l0.7-1.3l0.6-1.3l2.7-5.3l0.3-0.4l0.5-1.1l4-7.4l0.1-0.2
		c4.7-9,10.1-18.6,16.2-29.6l1.1-6.2c0-10-7.8-18.3-17.4-18.3c-7.9,0-13,6.1-15.7,11.1l-0.5,1.1l-0.3,0.4l-0.6,1.6
		c-9.5,20.5-17.5,40-23.9,58l7.6-1.5C318.6,345.7,325.8,350.8,328.8,358.4"/>
	<polygon class="st0" points="366.9,459.4 367.7,457.9 370.6,453.1 372.4,450.1 372.8,449.6 373.2,446.7 365.3,438.2 358.7,441.8 
		358.6,442 358.3,442.8 357.6,444.2 357.3,444.7 355.1,449.5 354.8,450.2 354.4,450.9 352.2,456.2 351.7,457.3 349.7,462.7 
		349.4,463.8 349.2,464.4 347.6,469.2 347.4,470 347,471.1 345.9,475.5 345.4,477.5 344.9,479.9 344.6,481.8 344.6,482.4 
		344.3,483.9 343.8,487.1 343.7,488 343.5,489.3 343.5,490.2 343.2,495.7 341.4,496.2 343.1,496.2 343.2,497.6 343.2,498.5 
		355.1,493.6 355.2,493.4 355.2,492.8 355.2,492.4 355.2,491.9 355.4,490.3 355.4,490 355.6,488.7 358.7,476.9 359.1,475.8 
		359.5,474.6 360,473.5 360.2,473.1 361.6,469.6 363,466.8 	"/>
	<polygon class="st0" points="342.8,462.3 343.4,460.9 344.3,458.5 345.5,455.3 345.8,454.4 346.2,453.6 347.9,449.3 348.7,447.7 
		351.2,442.1 352.5,439.2 352.9,436.5 343,426.1 335,430.6 334.5,431.2 333.8,432.8 332.5,436.5 331.7,438.8 328.6,447.9 
		327.7,451.3 327.6,451.8 327.5,452.7 326.3,457.6 326.1,458.4 325,463.8 323.3,482.2 323.3,482.5 323.5,485.8 323.6,488 
		323.8,489.5 324,491.1 324.3,493.2 324.7,495.8 324.8,496.7 325.1,498.7 325.5,500.3 325.9,502.4 326.7,505.7 325.1,506.7 
		326.7,506.3 330.6,504 331.4,503.3 331.5,503.3 332,503.1 332.6,502.8 336.7,501.3 336.7,496.2 336.7,495.8 336.8,489.6 
		336.9,489.1 337.1,488 337.6,482.9 338,481.1 339,476.1 339.5,473.9 340.7,469.2 341,468.5 341.5,466.9 	"/>
	<path class="st0" d="M318.9,501.3l-0.3-1.8l-0.4-2l-0.5-3.1l-0.2-1.1l-0.1-1.1l-0.2-1.8l-0.2-1.5l-0.1-0.6l-0.2-1.8l-0.2-3.9v-0.6
		l0.1-0.9l0.1-2.4l0.2-3.3l0.2-2.3l0.2-2.4l0.2-1.9l0.6-4.4l0.2-1.9c1.9-10.5,4.9-21.2,9.3-32.7l0.4-1l0.5-1.1l0.3-2.6l-9.4-9.9
		l-8.5,6.2l-0.3,1.1l-0.8,2.9l-0.6,2.2l-0.3,1.1l-0.3,1.6l-0.2,0.4l-0.8,3.5l-0.2,0.5l-0.3,1.7l-0.8,3.6l-0.3,2.4l-0.6,3.6l-0.5,2.6
		l-0.5,3.3l-0.4,4.1l-0.2,2.1l-0.3,3.9l-0.2,2.1v0.4l-0.1,6.5l0.1,6.7l0.2,1.8l0.3,5l0.3,2.1l0.6,4.7l0.3,2.1l1,4.9l0.6,2.6l0.3,1.5
		l0.7,2.9l0.8,2.9l1.4,4.3l0.9,3l1.6,4.1l0.6,1.6l8-11l-1.9-8.5L318.9,501.3"/>
</g>
</svg>
