<?xml version="1.0" encoding="utf-8"?>
<!-- Generator: Adobe Illustrator 27.0.1, SVG Export Plug-In . SVG Version: 6.00 Build 0)  -->
<svg version="1.1" id="Layer_1" xmlns="http://www.w3.org/2000/svg" xmlns:xlink="http://www.w3.org/1999/xlink" x="0px" y="0px"
	 viewBox="0 0 1731 829" style="enable-background:new 0 0 1731 829;" xml:space="preserve">
<style type="text/css">
	.st0{fill:#FFFFFF;}
</style>
<g>
	<path class="st0" d="M240.5,444.4c-2.3-11-6.5-21.2-11.3-31.3c-0.4-0.8-0.8-1.5-1.2-2.2c-2.1-3.7-4.5-7-7.4-10
		c-0.7-0.6-1.3-1.3-2-2.1c0.4-1.4,1.3-2.1,1.9-2.7c12.2-15.2,18.3-32.6,19.6-51.9c0.2-3,0.2-5.9,0.2-8.9c0-66.9,0-133.7,0-200.5
		c0-7.3-0.1-14.7-0.1-22c0-6.2-0.5-12.3-1.4-18.4c-1.1-7.4-2.7-14.7-5.2-21.7c-8.4-23.9-23.6-42-46.1-53.9c-8.2-4.3-17-7.5-26.1-9.8
		c-5.3-1.3-10.6-2.3-16-3c-4.7-0.6-9.4-1.2-14.1-1.3c-3.3-0.1-6.6-0.2-9.9-0.2C82.4,4.4,43.3,4.4,4.3,4.4c-1.2,0-2.4,0-3.4,0
		C0.6,4.7,0.4,4.8,0.2,5C0.1,5.3,0,5.7,0,6c0,272.1,0,544.1,0,816.1c0,0.5,0.1,1.1,0.1,1.7c0.2,0.1,0.4,0.3,0.6,0.5
		c1.4,0.3,2.8,0.2,4.2,0.2c32.3,0,64.6,0,96.9,0c11,0,22,0,33-0.1c4.8-0.1,9.5-0.2,14.2-0.7c6-0.7,11.9-1.6,17.8-3
		c11-2.6,21.4-6.7,31.1-12.6c5.6-3.3,10.8-7.2,15.4-11.9c4.2-4.3,7.9-9.1,11.1-14.2c4.3-7,7.9-14.3,10.9-21.9
		c2.6-6.9,4.5-14,5.8-21.2c1-5.6,1.8-11.2,2-16.9c0.2-3,0.2-5.9,0.2-8.9c0-79.8,0-159.7,0-239.5c0-5.7-0.1-11.3-0.8-17
		C242,452.5,241.4,448.4,240.5,444.4z M21.5,45.6c-0.5,0.3-0.8,0.2-1.8-0.5c-0.3-0.6-0.3-1.2,0-1.7c1.2-0.7,1.2-0.7,2.4,0.1
		C22.4,44.6,22.1,45.2,21.5,45.6z M34.2,87.2c0.1-0.3,0.2-0.6,0.4-0.9c0.4,0.1,0.6,0.3,0.9,0.4C35.3,87.8,35.2,87.8,34.2,87.2z
		 M45.3,58.8c-1,0.7-2,1.6-2.7,2.7c-0.7,1.1-1.1,2.3-1.5,3.7c-0.3-0.3-0.6-0.5-0.7-0.8c-1.1-3.6-3.5-5.8-7-7c-0.2,0-0.4-0.2-0.6-0.4
		c0.2-0.2,0.3-0.4,0.4-0.4c3.6-1,5.9-3.3,7.1-6.8c0.1-0.3,0.5-0.5,0.7-0.8c1.7,3.7,1.8,5.2,7.9,7.9C47.8,57.8,46.4,57.9,45.3,58.8z
		 M56.2,129.5c-0.7,0.2-1.1,0-1.7-0.8c-0.1-0.1-0.1-0.2-0.1-0.3c0.1-1,0.7-1.4,1.6-1.5c0.3,0.1,0.6,0.3,0.8,0.5
		c0.1,0.2,0.2,0.3,0.2,0.4C57.1,128.9,56.9,129.3,56.2,129.5z M80.4,174.9c-0.2-0.1-0.3-0.5-0.5-0.8c0.4-0.2,0.7-0.3,1-0.5
		c0.1,0.3,0.2,0.6,0.4,1C80.9,174.7,80.6,174.9,80.4,174.9z M81.1,26.9c-0.2,0.5-0.6,0.7-1,0.9c-0.4,0.1-0.6,0.1-1.7-0.4
		c-0.1-0.4-0.3-0.8-0.5-1.1c0.2-1.3,0.9-1.9,2.1-1.8c0.6,0.2,1,0.6,1.2,1.1C81.4,26,81.3,26.5,81.1,26.9z M103.9,352.6
		c0-83.5,0-167,0-250.5c0-1.1,0-2.1,0-3.2c0-0.3,0.2-0.6,0.3-1.2c0.6,0,0.9-0.1,1.2,0c5,0,9.9,0,14.9,0c2.1,0,4,0.4,5.9,1.2
		c6.3,2.7,9.6,7.5,10.2,14.2c0.1,1.1,0.1,2.3,0.1,3.5c0,6.1,0,12.3,0,18.4c0,67.6,0,135.3,0,202.9c0,1.1,0,2.3,0,3.5
		c-0.2,7-5.1,13.3-11.9,15.1c-1.4,0.4-2.9,0.7-4.5,0.7c-4.7,0-9.5,0-14.2,0c-0.5,0-0.9-0.1-1.3-0.1c-0.5-0.4-0.7-0.8-0.7-1.3
		C103.9,354.7,103.9,353.7,103.9,352.6z M141.8,712c0,0.9,0,1.9,0,2.8c-0.1,6.9-4.8,15.5-15.1,17.8c-1.1,0.3-2.1,0.3-3.2,0.3
		c-5.9,0-11.8,0-17.7,0c-0.5,0-0.9-0.1-1.4-0.2c-0.2-0.4-0.4-0.7-0.4-1c-0.1-1.1-0.1-2.1-0.1-3.2c0-98.2,0-196.3,0-294.4
		c0-1.3-0.1-2.6,0.1-3.9c0.7-0.7,1.2-0.6,1.7-0.5c5.9,0,11.8,0.1,17.7,0c6.6-0.1,15.4,4.4,17.9,14.5c0.3,1.1,0.3,2.1,0.4,3.2
		c0.1,1.5,0.1,2.9,0.1,4.3C141.8,538.5,141.8,625.2,141.8,712z M143.7,57.5c-0.4-0.1-0.8-0.2-1.2-0.5c-0.8-0.6-1.1-1.6-0.7-2.5
		c0.4-0.9,1.3-1.4,2.3-1.2c0.3,0.1,0.6,0.3,0.9,0.4C146.2,55.7,145.9,56.5,143.7,57.5z M173.1,112.3c-0.4,0.1-0.7-0.2-1.1-1
		c0.6-1.2,0.8-1.3,1.9-0.5C173.9,111.8,173.7,112.2,173.1,112.3z M203.8,91.4c-0.2,0.7-0.9,1.2-1.6,1.1c-0.8-0.1-1.4-1-1.2-1.8
		c0.1-0.5,0.4-0.9,0.9-1c0.2-0.1,0.5-0.1,0.7-0.1s0.5,0.1,0.7,0.2C203.9,90.4,204,90.9,203.8,91.4z M205.2,201.6
		c-0.2-0.3-0.3-0.6-0.4-0.9c0.3-0.2,0.6-0.3,0.9-0.4C206.3,201.3,206.2,201.4,205.2,201.6z"/>
	<path class="st0" d="M1372.6,106c-0.3-3.5-0.5-7.1-1-10.6c-1.1-8.5-3-16.8-5.9-24.8c-4.4-12-10.8-22.8-19.6-32.2
		c-7.6-8.1-16.4-14.5-26.3-19.6c-9.9-5-20.3-8.4-31.1-10.7c-4.7-0.9-9.5-1.7-14.3-2.3c-3.9-0.5-7.8-0.8-11.7-1.1
		c-3.7-0.2-7.5-0.3-11.3-0.3c-40.1-0.1-80.2-0.1-120.3-0.1c-1.1,0-2.1,0.1-3.4,0.1c-0.2,0.6-0.4,0.9-0.4,1.1c0,1.3,0,2.6,0,3.9
		c0,35.8,0,71.5,0,107.2c0,233.9,0,467.9,0,701.8c0,1.5,0,3.1,0,4.6c0,0.5,0.2,0.9,0.8,1.3c0.9,0.1,2.1,0.1,3.3,0.1
		c36,0,71.9,0,107.9,0c5.8,0,11.6-0.1,17.4-0.1c5,0,10-0.5,14.9-1c5.6-0.6,11.2-1.4,16.8-2.6c8.1-1.7,16-4,23.7-7.2
		c10.3-4.3,19.8-10,28.2-17.5c10.8-9.6,18.7-21.2,24.1-34.6c4.2-10.3,6.5-21,7.7-32c0.6-5.4,0.8-10.9,0.8-16.3
		c0-151.9,0-303.7,0-455.6c0-48.4-0.1-96.7-0.1-145.1C1372.8,110.3,1372.8,108.1,1372.6,106z M1198.5,23.4c0.8-0.1,1.3,0.2,1.7,0.9
		c0.3,1-0.2,1.6-1,2c-0.8,0.2-1.3-0.2-1.7-0.9C1197.3,24.4,1197.6,23.8,1198.5,23.4z M1140.3,156.3c-0.3-0.2-0.7-0.3-0.8-0.5
		c-0.2-0.4,0.1-0.6,0.4-0.9c0.3,0.1,0.6,0.3,0.9,0.4C1140.7,155.7,1140.6,155.9,1140.3,156.3z M1142.2,72.9c-0.6,0.4-1,0.6-1.5,0.4
		c-0.8-0.3-1.1-0.8-1.1-1.7c0.1-0.2,0.3-0.5,0.5-0.8c0.9-0.5,1.5-0.4,2.1,0c0.2,0.3,0.3,0.6,0.5,1
		C1142.5,72.2,1142.3,72.6,1142.2,72.9z M1164.6,240.1c-0.4-0.1-0.6-0.3-0.9-0.4c0.3-1.1,0.4-1.1,1.3-0.5
		C1164.9,239.5,1164.8,239.8,1164.6,240.1z M1180,96.2c-0.5,0.2-0.9,0.4-1.3,0.6c-2.8,1.1-4.6,3.1-5.7,5.9c-0.2,0.4-0.3,0.9-0.6,1.7
		c-0.4-0.8-0.7-1.2-0.8-1.7c-1-3-3-5-6-6.1c-0.5-0.2-1.1-0.4-1.3-1c1.3-0.4,2.5-0.7,3.6-1.5c1-0.7,1.9-1.6,2.7-2.7
		c0.8-1,0.9-2.4,1.8-3.4c0.2,0.2,0.3,0.3,0.4,0.5c1.1,3.6,3.3,5.9,6.9,7c0.2,0.1,0.4,0.3,0.5,0.4C1180.2,95.9,1180.1,96.2,1180,96.2
		z M1188,39.1c0.2-1.8,1.1-2.8,2.9-3c1.7,0.2,2.7,1.2,3,2.9c-0.2,1.7-1.2,2.7-2.9,3C1189.3,41.8,1188.2,40.8,1188,39.1z M1201,164.8
		c-0.7,0.6-1.5,1.1-2.5,1.9c0,0-0.2,0.2-0.4,0.5c-0.5,0.6-0.7,1.5-1.5,1.9c-1.1-0.4-1.1-1.7-1.6-2.1c-1.3-1.3-2.5-1.4-3.1-2.4
		c0.6-1,1.8-1.2,2.8-2.2c0.4-0.6,1-1.4,1.5-2.3c0.3,0.1,0.6,0.1,0.7,0.2c0.5,0.8,1.1,1.6,1.6,2.4c0.8,0.6,1.7,1.2,2.5,1.7
		C1201,164.6,1201.1,164.8,1201,164.8z M1268.8,717c-1.4,7.4-5.7,12.3-12.7,14.9c-1.6,0.6-3.2,0.9-4.9,0.9c-6.2,0-12.3,0-18.5,0
		c-0.5,0-1-0.1-1.6-0.8c0-1,0-2,0-3c0-210,0-420.1,0-630.1c0-0.3,0.1-0.5,0.2-0.8c0.3-0.1,0.6-0.3,0.9-0.4c0.4-0.1,0.7-0.1,1.1-0.1
		c5.6,0,11.1,0,16.7,0c2,0,4,0.2,5.9,0.9c7.2,2.6,11.6,7.5,12.9,15.1c0.2,1.6,0.3,3.2,0.3,4.9c0,15.3,0,30.5,0,45.8
		c0,182,0,364,0,546C1269.1,712.5,1269.2,714.8,1268.8,717z M1274.8,53.9c-1.1,0.6-2.4,0.3-3.2-0.7c-0.2-0.2-0.3-0.4-0.4-0.6
		c-0.1-0.3-0.2-0.7-0.4-1.3c0.3-0.6,0.5-1.1,0.8-1.8c0.6-0.3,1.2-0.6,1.6-0.8c1.6,0,2.9,1,3.1,2.3
		C1276.5,52.2,1275.9,53.3,1274.8,53.9z M1293.8,119.5c-0.3,0.2-0.5,0.3-0.8,0.5c-0.6,0-1.1-0.2-1.6-0.9c-0.3-1.2,0.1-1.9,1.4-2.1
		c0.3,0.1,0.7,0.3,1,0.5C1294.2,118.5,1294.2,118.5,1293.8,119.5z M1303,223.6c-0.1,0.1-0.3,0.1-0.6,0.1c-0.1-0.3-0.2-0.6-0.4-0.9
		c0.4-0.2,0.7-0.3,0.8-0.4c0.2,0.3,0.4,0.4,0.4,0.6C1303.3,223.2,1303.1,223.5,1303,223.6z M1327.1,62.4c-0.6,0.2-1.3,0.3-2,0.5
		c-0.9,0.2-1.9,0.5-2.7,0.9c-2.2,1.1-4,2.5-4.9,4.9c-0.1,0.2-0.2,0.4-0.3,0.6c0,0.1-0.1,0.2-0.2,0.3c-0.2-0.1-0.4-0.1-0.6-0.2
		c-0.1-0.1-0.2-0.2-0.2-0.3c-0.9-3.2-3.4-4.9-6.4-6c-0.8-0.3-1.6-0.4-2.4-0.7c-0.2-0.1-0.4-0.5-0.7-0.7c1.2-0.3,2.4-0.6,3.6-0.7
		c2.7-0.8,4.7-2.5,5.8-5.2c0.1-0.4,0.2-0.7,0.4-1c0.1-0.1,0.4-0.1,0.6-0.2c0.2,0.3,0.4,0.6,0.5,0.9c1.1,2.5,3.1,4.1,5.6,5
		c1.5,0.6,3.2,0.9,4.8,1.4C1328,62.4,1327.4,62.3,1327.1,62.4z M1329.3,180.3c-0.6-0.3-1.1-0.6-1.2-1.2c-0.1-0.3-0.1-0.7,0-1
		s0.3-0.6,0.6-0.8c0.5-0.4,1.1-0.4,2.1-0.1c0.3,0.5,0.6,1,0.7,1.3C1331.2,179.8,1330.6,180.5,1329.3,180.3z M1340,97.4
		c-0.2-0.3-0.3-0.6-0.4-0.9c0.3-0.2,0.6-0.3,0.9-0.4C1341.1,97.1,1341.1,97.1,1340,97.4z M1353.8,305.4c-0.4-0.5-0.6-0.7-0.8-0.9
		c0.2-0.6,0.5-0.9,1-0.7S1354.5,304.4,1353.8,305.4z"/>
	<path class="st0" d="M1102.5,3.8c-0.3-0.1-0.7-0.3-1-0.3c-0.9-0.1-1.9-0.1-2.8-0.1c-29.9,0-59.9,0-89.8,0c-0.9,0-1.9,0-2.8,0
		c-0.4,0-0.9,0.2-1.3,0.9c-0.2,1.2-0.1,2.8-0.1,4.3c0,109.3,0,218.6,0,327.9c0,1.8-0.1,3.5-0.1,5.3c0,0.6,0,1.2-0.3,1.7
		c-0.1-0.1-0.2-0.2-0.2-0.3c-0.4-3.3-0.9-6.5-1.4-9.8c-0.1-0.6-0.1-1.2-0.2-1.8c-0.6-4.2-1.1-8.4-1.8-12.6c-0.8-5-1.7-10-2.6-15
		c-1.3-7.1-2.6-14.2-3.9-21.3c-1.4-7.6-2.7-15.1-4.1-22.7c-1-5.7-2.1-11.4-3.1-17.1c-1.1-5.8-2.1-11.6-3.2-17.4
		c-1-5.7-2.1-11.4-3.1-17.1c-1-5.9-2.1-11.9-3.2-17.8c-1.3-7.1-2.6-14.2-3.9-21.3c-1.1-5.9-2.2-11.9-3.3-17.8
		c-1-5.7-2.1-11.4-3.1-17.1c-1.1-5.8-2.1-11.6-3.2-17.4c-1.3-7.1-2.6-14.2-3.9-21.3c-1.1-6-2.2-12.1-3.3-18.1
		c-1-5.8-2-11.6-3.1-17.4c-1-5.7-2.1-11.4-3.1-17.1c-1.4-7.2-2.7-14.4-4-21.6c-1-5.5-2-10.9-3-16.4c-0.1-0.4-0.4-0.9-0.5-1.2
		c-1.2-0.5-2.2-0.3-3.3-0.3c-24.5-0.1-49-0.2-73.5-0.2c-1.1,0-2.1,0-3.2,0.1c-0.3,0-0.6,0.3-1,0.5c-0.2,1.5-0.1,3.1-0.1,4.6
		c0,137.6,0,275.1,0,412.7c0,132.2,0,264.5,0,396.7c0,1.5,0,2.9,0,4.3c0,0.5,0.2,0.9,0.8,1.2c0.8,0,1.8,0.1,2.7,0.1
		c20.2,0,40.5,0,60.7,0c0.9,0,1.7,0,2.5-0.1c0.1,0,0.3-0.3,0.4-0.4c0-0.6-0.4-0.9-0.7-1.2c-1.1-1.3-2.2-2.8-3.1-4.3
		c-0.6-1-1.3-2-1.9-3c-3.3-5.2-6.6-10.4-10.8-14.9c-0.9-1-1.7-2.2-2.1-3.7c-0.2-1.8,0-3.5,0.8-5c0.8-1.2,1.8-1.8,2.8-2.4
		c0.6-0.4,1.3-0.7,1.7-1.2c0.8-1.1,2.1-1.8,3.1-2.7c0.4-2.3,1.3-4.1,2.5-5.6c1.4-1.6,3.2-2,4.6-3c0.4-1,0.9-2,1.2-2.7
		c1.2-1.1,2.6-1.1,3.7-2.3c0.7-1.6,1.6-3.4,2.4-5.2c1.5-3.2,3.2-6.1,5.2-8.9c1.2-1.6,2.4-3.2,3.6-4.8c5.3-6.8,11.1-13,17.1-19
		c2.7-2.7,5.4-5.2,7.8-8.2c0.3-0.3,0.6-0.7,1-1c1.5-1.3,2.7-2.9,3.8-4.6c0.2-0.3,0.5-0.6,0.6-0.8c0.9-0.8,1.9-1.2,2.4-2.3
		c0.1-1.4,0.1-2.8,0.2-4.2c0.7-1.6,1.5-3.2,2.1-4.6c0.1-2.1,0.3-4,0.4-6.1c-0.3-1.5-0.9-3.2-1.2-4.9c-0.6-3.2-1.2-6.5-1.3-9.8
		c0-1-0.2-2.1-0.5-3.1s-0.4-2-0.4-3.1c0-5.2,0.2-10.4,0.5-15.6c0-0.5,0-1,0-1.4c-0.7-0.9-1.3-1.7-1.9-2.6c-0.6-0.9-1.2-1.8-1.9-2.6
		c-0.4-0.4-0.7-0.9-1-1.4c-0.5-0.6-0.9-1.4-1.4-2c-0.6-0.7-1.1-1.5-1.5-2.4c-0.3-0.9-0.7-1.7-1.1-2.5c-0.2-1.3-0.4-2.6-0.7-3.9
		c-0.3-1.4-0.5-2.8-1.1-4.1c-1.5-3.3-2.1-6.7-2.3-10.3c0-0.4-0.1-0.7-0.1-1.1c0-3.2,0.2-6.4,2.1-9.2c0.4-0.6,0.7-1.2,0.7-2.2
		c-1-2.4-1.8-5.2-3.8-7.3c-0.5-0.5-0.7-1.2-1.1-1.8c-0.2-0.3-0.4-0.6-0.7-0.9c-0.8-0.6-1.7-1.2-2.5-1.8c-1.5-2.2-3-4.3-3.9-6.8
		c-0.2-0.5-0.4-0.9-0.6-1.3c-1.2-2.2-2-4.5-2.7-6.9c-0.8-2.8-1.6-5.7-2.5-8.5c-1.2-3.7-2.3-7.5-2.5-11.4c0-0.3-0.1-0.7-0.2-1
		c-0.4-1.5-0.5-3.1-0.5-4.6c0-1.6-0.4-3-0.9-4.5c-0.2-0.7-0.5-1.4-0.8-2c-1.3-2.7-1.7-5.6-1.8-8.6c-0.1-3.3-0.1-6.6-0.1-9.9
		c0-0.9,0-1.9,0.2-2.8c0.3-1.7,0.4-3.3,0-5c0.7-1.7,1.4-3.5,2.2-5.2c0.3-0.8,0.8-1.4,1.3-2.1c1.2-1.7,2.6-3.3,3.9-5
		c0.7-0.9,1.4-1.8,2.2-2.7c1.7-1.8,2.1-3.9,1.3-6.2c-1.6-2.1-3.6-3.5-5.2-5.2c-1.7-0.7-3.3-1.1-4.6-2.2c-1.5-1.1-3.1-2.1-4.8-3
		c-0.6-0.4-1.3-0.7-1.7-1.5c-0.2-2-0.7-4.1-2-5.6c-0.9-3.5-0.9-6.7-0.3-10c-0.5-0.8-0.9-1.5-1.3-2.2c0.4-0.5,0.7-1,1-1.4
		c-0.1-0.6-0.3-1.1-0.4-1.7c1.2-2.2,3-3.7,4.4-5.5c0.2-0.9,0.3-1.7,0.5-2.5c2.3-1.4,3.5-4,5.7-5.2c2.2-0.7,4.3-0.6,6.4-0.6
		c0.8-0.5,1.4-1,2-1.5c0.9,0.3,1.7,0.6,2.4,0.8c1-0.1,1.8-0.2,2.6-0.3c1.4-0.2,2.8-0.1,4.2,0.2c0.2,0,0.4,0.2,0.7,0.3
		c0.5,0.7,1.1,1.4,1.7,2.2c-0.6,0.9-1.1,1.9-1.6,2.8c0.8,1.6,2.1,2.6,3.7,3.2c0.9,0.4,2,0.6,2.9,1.5c0.3,0.8,0.7,1.8,1.1,2.7
		c0.9,0.9,1.9,1.4,3.1,1.7c1.6,0.4,3.2,0.8,4.8,1.2c0.2,0,0.4,0.2,0.6,0.3c0.6,0.6,1.1,1.2,0.9,2.2c-0.1,0.7-1.1,1.2-0.9,2.3
		c0.8,1.1,1.7,2.3,2.7,3.6c0,1.1,0,2.3,0.7,3.4c0.7,0.7,1.4,1.5,2.1,2.3c0.2,0.2,0.3,0.6,0.4,1c-0.3,0.8-0.5,1.5-0.8,2.3
		c-0.6,0.5-1.1,1-1.7,1.4s-1.3,0.7-1.9,1c-1.1,0.5-2.2,0.9-3.3,1.4c-2.2,1.1-3.5,2.9-3.6,5.3c-0.2,2.3-0.7,4.4-1.2,6.6
		c-0.6,2.5-1.2,4.9-1.1,7.4c0,0.3,0.1,0.7,0.2,1.1c0.4,0.6,0.8,1.3,1.3,2.1c2.3,1.3,4.6,2.6,7.1,4c1.1,1.1,2.2,2.4,3.3,3.6
		c0.5,0.5,1,1.1,1.3,1.7c1.1,2.2,2.4,4.3,3.4,6.6c1.8,4.3,3.6,8.6,5.1,12.9c2.2,6.3,4.7,12.6,7.7,18.6c3.8,7.6,7.4,15.3,10.7,23.2
		c1.6,3.9,3,7.7,4.2,11.7c2,6.6,2.8,13.2,1.4,20c0.2,1.3,0.3,2.6,0.4,3.9c0.1,0.7,0.1,1.5,0.4,2.1c0.7,1.6,0.8,3.2,0.6,4.9
		c-0.2,2.1-0.3,4.3-0.2,6.4c0,1,0,1.9,0,2.7c-1,2.5-1.4,4.9-1.8,7.4c-0.3,2.4-0.8,4.9-1.2,7.3c-0.1,0.8-0.3,1.6-0.4,2.4
		c-0.5,3.7-1.1,7.3-1.6,10.9c-0.7,4.6-1.2,9.2-1.4,13.8c-0.2,3.5-0.5,7.1-0.7,10.5c-0.9,2-1.8,3.8-2.5,5.3c-0.4,2.2-0.4,4.1-0.2,6
		c0.3,2.8,0.1,5.5-0.7,8.2c-0.7,1.1-1.7,2.1-2,3.6c-0.3,2.4,0.2,4.8-0.2,6.9c-1.1,2.2-3,3.3-4.6,5.1c-0.5,1.1-1,2.6-1.6,3.9
		c0.3,2.2,0.6,4.3,0.9,6.4c0.3,2.5,0.3,4.9-0.3,7.4c-1.1,4.5-2,9.2-2.5,13.9c-0.2,2.2-0.4,4.3-0.3,6.4c0,1.5,0,2.9,0.1,4.3
		c0,1.4-0.1,2.8-0.5,4.2c-0.7,2.1-0.8,4.2-0.6,6.3c0.2,2.7-0.2,5.4-1,8c-0.2,0.6-0.3,1.1-0.4,1.6c0.6,1.6,1.1,3,1.6,4.4
		c1,1.5,1.9,2.9,2.8,4.2c2.7,2.2,3,2.5,4.7,3.1c2.8,1,5.5,2.3,8.1,3.6c3.2,1.6,6.5,2.8,10,3.5c1.5,0.3,2.9,0.8,4.4,1.3
		c0.8,0.3,1.5,0.7,2.2,1.1c0.7,0.5,1.3,1.1,1.4,2c0,0.8-0.4,1.4-0.9,1.9c-0.6,0.6-1.3,1-1.9,1.6c-0.1,0.1,0.1,0.4,0.1,0.7
		c1.3,0.2,2.6,0.1,3.9,0.1c23.1,0,46.1,0,69.2,0c0.9,0,1.9,0,2.8,0c0.3,0,0.6-0.2,1-0.3c0.1-0.3,0.3-0.6,0.9-1.7
		c0.1-1.3,0.1-2.6,0.1-3.9c0-47.2,0-94.4,0-141.6c0-222.6,0-445.2,0-667.8c0-1.5-0.1-2.9-0.1-4.3C1102.8,4.5,1102.6,4.2,1102.5,3.8z
		 M886.1,51.8c0.7-0.1,0.9,0.3,1,0.8c-0.3,0.2-0.5,0.4-0.8,0.7c-0.3-0.3-0.5-0.5-0.8-0.7C885.7,52.3,885.9,52,886.1,51.8z
		 M886.4,126.9c-0.3-0.7-0.6-1.3-1-1.8c-0.8-1.8-2.1-3.1-3.8-4c-0.6-0.3-1.4-0.4-1.7-1.1c4.2-2.2,4.6-2.7,6.4-6.9
		c2.2,4.4,2.7,4.9,6.8,6.9C888.5,122.8,888.5,122.8,886.4,126.9z M911.5,61.4c-1.6,0.9-3.6,0.5-4.6-1.1c-0.4-0.5-0.6-1.2-0.9-2
		c0.2-0.7,0.3-1.1,0.6-1.6c0.8-1.5,2.1-2.1,3.8-1.9c1,0.1,1.7,0.6,2.3,1.4C913.6,57.6,913.6,60.3,911.5,61.4z M920,168.3
		c-0.1-0.3-0.2-0.7-0.4-1.2c0.2-0.5,0.3-0.9,0.4-1c0.6-1,1.6-1.3,2.7-1c0.9,0.3,1.5,1.1,1.5,2.1s-0.6,1.8-1.5,2.1
		C921.6,169.6,920.6,169.3,920,168.3z M923.8,251.2c-0.2-0.3-0.5-0.5-0.7-0.7c0.1-0.6,0.4-0.9,0.9-0.8c0.2,0.1,0.4,0.5,0.6,0.8
		C924.3,250.7,924.1,251,923.8,251.2z M933.2,96.3c-0.3-0.1-0.6-0.2-0.8-0.4c-0.2,0-0.3-0.3-0.5-0.4c-0.3-0.6-0.3-1.1,0.1-1.6
		c0.5-0.6,1.1-0.7,1.8-0.4c0.5,0.5,0.7,1,0.7,1.6C934.3,95.7,933.9,96.1,933.2,96.3z M1013.1,60.5c-0.2,0.4-0.5,0.5-0.8,0.3
		c-0.2-0.1-0.4-0.3-0.4-0.5c-0.1-0.4,0.1-0.6,0.4-0.8c0.3-0.1,0.6,0,0.8,0.4c0,0.1,0.1,0.2,0.1,0.3
		C1013.1,60.3,1013.1,60.4,1013.1,60.5z M1024.9,230.9c-0.1,0.2-0.3,0.4-0.5,0.5c-0.4,0.1-0.5,0-1-0.8c0.2-0.2,0.5-0.4,0.7-0.7
		C1024.9,230.4,1025.1,230.6,1024.9,230.9z M1037.7,85.7c-0.8,0.8-1.6,0.8-2.4,0c-0.1-0.2-0.2-0.4-0.2-0.6c0-0.4,0.1-0.7,0.2-1
		c1.2-0.9,1.2-0.9,2.4-0.1C1038,84.6,1038,85.1,1037.7,85.7z M1049.9,169.8c-1.9,0-3.6-1.6-3.6-3.6c0-2.1,1.4-3.6,3.5-3.5
		c2,0,3.6,1.5,3.6,3.5C1053.5,168,1051.8,169.7,1049.9,169.8z M1061.1,22.3c-0.6-0.1-1-0.6-1.1-1.2c0.6-1.5,0.7-1.6,2.2-1.4
		c0.5,0.4,0.8,0.9,0.7,1.4c-0.1,0.3-0.3,0.7-0.5,0.9C1062,22.4,1061.6,22.4,1061.1,22.3z M1065.3,184.2c-0.3,0.7-0.8,1.1-1.7,1.3
		c-1.2-0.1-1.8-0.8-2.1-1.9c0.3-1.4,0.3-1.4,1.6-2.1c0.8-0.2,1.4,0.2,1.9,0.7C1065.5,182.8,1065.6,183.5,1065.3,184.2z
		 M1069.7,110.8c-0.6-0.3-1-0.8-1-1.6c0.2-0.2,0.3-0.5,0.4-0.9c1.5-0.5,1.6-0.5,2.5,0.8C1071.3,110.6,1071.2,110.7,1069.7,110.8z
		 M1087.3,34c-3.1,1.3-5.1,3.4-6.1,6.5c0,0.1-0.1,0.2-0.1,0.3c-0.1,0.3-0.2,0.5-0.3,0.7c-0.5-0.3-0.6-0.9-0.8-1.4
		c-1.1-3.1-3.3-5.1-6.3-6.2c-0.3-0.1-0.7-0.3-1-0.4c0,0-0.1-0.1-0.2-0.2c4.8-2,5.9-2.6,8.4-8.5c1.1,4.7,3.8,7.3,8.1,8.3
		C1088.6,33.8,1087.9,33.8,1087.3,34z"/>
	<path class="st0" d="M644.8,570.7c0-69.5,0-138.9,0-208.3c0-1.1,0-2.3-0.1-3.5c-0.1-0.3-0.3-0.7-0.4-0.9c-0.3-0.1-0.5-0.3-0.7-0.3
		c-40.4-0.2-80.7-0.1-120.9-0.1c-0.3,0.3-0.5,0.4-0.7,0.6c-0.3,1.1-0.2,2.3-0.2,3.5c0,28.5,0,57,0,85.5c0,0.9,0,1.9,0.1,2.8
		c0,0.3,0.3,0.6,0.4,0.8c1,0.4,2,0.2,2.9,0.2c4.3,0,8.7,0,13.1,0c0.7,0,1.4,0.1,2.1,0.2c0.2,0.4,0.4,0.8,0.4,1.1
		c0.1,0.9,0.1,1.9,0.1,2.8c0,91.3,0,182.6,0,273.9c0,0.9,0,1.9,0,2.8c0,0.5-0.2,0.9-0.8,1.4c-6,1.5-12.3,2.3-18.7,2.2
		c-1.9,0-3.7-0.3-5.6-0.7c-2.1-0.4-4.1-1.1-6-2.2c-3.2-1.8-5.3-4.5-6.2-8.2c-0.3-1.5-0.6-3-0.6-4.6c0-1.3,0-2.6,0-3.9
		c0-198.1,0-396.2,0-594.3c0-1.5,0-2.9,0-4.3c0-3.1,0.5-6.1,1.3-9.1c0.9-3.1,2.2-6,4.3-8.5c2.2-2.8,5.1-4.6,8.5-5.5
		c3-0.7,6-0.9,9.1-0.3c4.1,0.8,7.3,2.8,9.7,6.1c1,1.3,1.8,2.8,2.4,4.3c1.2,2.9,1.9,5.8,2.2,8.9c0.3,2.8,0.4,5.7,0.4,8.5
		c0,46.6,0,93.2,0,139.8c0,1.5-0.2,3.1,0.1,4.6c0.2,0.1,0.3,0.3,0.5,0.5c1.2,0.4,2.5,0.2,3.8,0.1c31.5,0,63.1,0,94.7,0
		c1.1,0,2.1-0.1,3.2-0.1c0.3,0,0.6-0.2,1-0.3c0.1-0.4,0.3-0.7,0.3-1c0.1-1.1,0.1-2.3,0.1-3.5c0-30.6,0-61.3,0-91.9
		c0-18.6,0-37.1,0-55.7c0-6.8-0.3-13.7-1.2-20.5c-0.9-7.2-2.4-14.2-4.7-21.1C629.9,45.9,613,26.3,588,13.7
		c-9.1-4.6-18.7-7.8-28.7-10c-4.5-1-9-1.7-13.6-2.3c-5.1-0.7-10.3-1.2-15.5-1.3C528.1,0,525.9,0,523.8,0c-7.4,0-14.7,0.1-22,1
		c-6.7,0.8-13.4,1.9-19.9,3.5c-9.7,2.5-19.2,5.9-28.1,10.6c-13,7-24.1,16.1-33.1,27.9c-8.1,10.5-13.7,22.3-17.2,35.1
		c-1.5,5.1-2.5,10.3-3.2,15.6c-0.6,4.2-1.1,8.4-1.1,12.7c0,15.1-0.1,30.1-0.1,45.1c0,175.2,0,350.3,0,525.5
		c0,15.1,0.1,30.1,0.1,45.1c0,1.7,0,3.4,0.2,5c0.3,3.1,0.7,6.2,1.1,9.2c0.9,7.3,2.7,14.4,5.1,21.3c8,22.8,22.3,40.6,43.2,53.5
		c11.3,6.9,23.6,11.3,36.5,14.2c4.6,1,9.3,1.8,14,2.4c4.8,0.5,9.6,1.1,14.5,1.2c6.7,0.2,13.5,0.2,20.2-0.1c4.4-0.2,8.8-0.5,13.1-0.9
		c6.2-0.6,12.4-1.4,18.6-2.5c9.1-1.6,18.1-3.7,26.9-6.5c10.8-3.4,21.1-7.7,30.8-13.5c6.4-3.8,12.8-7.7,19.2-11.5
		c0.7-0.5,1.3-1,2-1.4c0.4-1.6,0.2-3.2,0.2-4.7C644.8,715.5,644.8,643.1,644.8,570.7z M622.4,160.7c0.3,0.1,0.6,0.2,0.9,0.3
		c-0.1,0.4-0.2,0.7-0.4,1c-0.3-0.1-0.6-0.2-0.9-0.4C622.1,161.3,622.3,161,622.4,160.7z M605.1,68.8c0.7-0.4,1.5-1,2.2-1.4
		c1-0.9,1.1-2.2,2.2-2.9c1,0.7,1.2,2,2.2,2.9c0.6,0.4,1.4,0.9,2.2,1.4c0,0.3,0,0.5-0.1,0.8c-0.7,0.4-1.5,0.9-2.3,1.4
		c-0.6,1-1.1,1.8-1.8,2.8c-0.2-0.1-0.5-0.2-0.6-0.3c-0.5-0.8-1-1.6-1.6-2.5c-0.6-0.3-1.3-0.7-2-1.2c-0.2-0.2-0.3-0.4-0.4-0.6
		C605,69.1,605.1,69,605.1,68.8z M577.6,216.9c-0.1-0.3-0.3-0.7-0.3-0.9c0.1-0.2,0.5-0.3,0.8-0.5c0.2,0.4,0.3,0.7,0.5,1
		C578.3,216.6,578,216.7,577.6,216.9z M582.6,124c0.5,0,0.9,0.1,0.9,0.8c0,0.1-0.3,0.4-0.4,0.4c-0.3,0-0.5-0.1-0.9-0.2
		C582.4,124.6,582.5,124.3,582.6,124z M565,31.3c3.5-1.7,4.7-2,7.2-7.3c0.2,0.1,0.5,0.1,0.6,0.2c0.2,0.3,0.3,0.7,0.4,1
		c1.1,2.7,3.1,4.7,5.9,5.7c0.3,0.1,0.6,0.2,0.9,0.4c0.1,0.1,0.1,0.4,0.2,0.6c-4.5,1.7-5.6,2.8-7.8,7.9c-2.4-5.1-3.2-5.9-7.5-7.9
		C564.9,31.7,565,31.5,565,31.3z M557.5,60.2c1.5-0.5,1.6-0.5,2.5,0.8c0,0.9-0.4,1.5-1.3,1.7c-0.3,0.1-0.7-0.1-1-0.2
		c-0.4-0.2-0.3-0.3-0.7-1.5C557.2,60.7,557.3,60.4,557.5,60.2z M427.9,99.6c-0.2-0.3-0.3-0.6-0.5-0.9c0.2-0.3,0.3-0.6,0.5-0.9
		c0.4,0,0.7,0,1.1,0c0.2,0.3,0.4,0.6,0.6,0.9c-0.2,0.3-0.4,0.6-0.6,0.9C428.6,99.6,428.3,99.6,427.9,99.6z M429.2,168.6
		c-0.1-0.3-0.3-0.7-0.2-0.9s0.5-0.3,0.8-0.5c0.2,0.4,0.3,0.7,0.4,1C429.9,168.3,429.6,168.4,429.2,168.6z M452.9,70.5
		c-0.4,0.7-0.9,1-1.7,1c-0.4-0.1-0.8-0.3-1.1-0.4c-0.7-0.8-0.8-1.5-0.4-2.3c0.5-0.8,1.4-1.2,2.1-0.9C452.8,68.3,453.1,69,452.9,70.5
		z M470,81.4c-0.3,0.5-0.7,1.1-1.1,1.7c-0.2-0.1-0.5-0.1-0.6-0.2c-0.4-0.5-0.8-1.1-1.2-1.7c-0.5-0.5-0.9-1-1.4-1.5
		c0.7-1,1.4-1.8,2-2.6c0.3-0.4,0.5-0.7,0.8-1.1c0.1-0.1,0.3-0.1,0.5-0.1c0.6,1.4,1.4,2.7,2.7,3.5C471.5,80.3,470.6,80.6,470,81.4z
		 M483.2,133.7c-0.3-0.2-0.6-0.3-1-0.5c0.1-0.2,0.1-0.5,0.2-0.6c0.2-0.1,0.4-0.2,0.6-0.2s0.4,0.2,0.6,0.4
		C483.5,133.1,483.3,133.4,483.2,133.7z M491.2,23.6c-0.3,0.2-0.5,0.3-0.8,0.5c-0.5,0.1-1-0.1-1.3-0.4c-0.5-0.4-0.6-1-0.4-1.6
		c0.6-0.8,0.6-0.8,1.6-1c0.2,0.2,0.5,0.4,0.9,0.5C491.6,22.6,491.6,22.6,491.2,23.6z"/>
	<path class="st0" d="M1730.7,731.6c-0.4-0.1-0.7-0.3-1-0.3c-1.1-0.1-2.3-0.1-3.5-0.1c-30.9,0-61.7,0-92.6,0c-1.1,0-2.1,0-3.2,0
		c-0.5,0-0.9-0.1-1.5-0.2c-0.2-0.4-0.4-0.9-0.4-1.3c0-1.1,0-2.3,0-3.5c0-90.2,0-180.3,0-270.4c0-1.1,0-2.3,0-3.5
		c0-0.3,0.2-0.6,0.3-1c0.3-0.1,0.6-0.4,0.9-0.4c1.1-0.1,2.3-0.1,3.5-0.1c28.5,0,57,0,85.5,0c1.3,0,2.6-0.1,3.9-0.1
		c0.4,0,0.9-0.1,1.3-0.8c0.2-1.1,0.1-2.4,0.1-3.7c0-28.1,0-56.3,0-84.4c0-1.1,0-2.1,0-3.2c0-0.3-0.2-0.6-0.3-1c-0.3,0-0.7-0.2-1-0.2
		c-1.1,0-2.3,0-3.5,0c-28.5,0-57,0-85.5,0c-1.1,0-2.1,0-3.2,0c-0.4-0.1-0.9-0.1-1.4-0.2c-0.1-0.4-0.4-0.7-0.4-1
		c-0.1-1.1-0.1-2.1-0.1-3.2c0-83.7,0-167.3,0-250.9c0-1.1,0-2.1,0.1-3.2c0-0.4,0.3-0.7,0.4-1c1.3-0.5,2.6-0.3,3.8-0.6
		c30.9,0,61.7,0,92.6,0c1.3,0,2.6,0,3.9-0.1c0.3,0,0.6-0.2,0.9-0.4c0.1-0.4,0.2-0.8,0.2-1.1c0-30.3,0-60.5,0-90.7
		c-0.2-0.3-0.4-0.5-0.6-0.8c-1.3-0.2-2.7-0.1-4.1-0.1c-65.5,0-131.1,0-196.6,0c-1.1,0-2.1,0-3.2,0.1c-0.4,0-0.7,0.2-0.9,0.3
		c-0.6,0.6-0.5,1.2-0.5,1.8c0,3.8,0,7.6,0,11.4c0,267.1,0,534.1,0,801.2c0,1.5,0.1,2.9,0.1,4.3c0,0.3,0.2,0.7,0.3,1
		c0.3,0.1,0.7,0.3,1,0.3c0.9,0,1.9,0,2.8,0c66,0,132,0,198,0c0.9,0,1.9-0.1,2.8-0.1c0.5,0,0.9-0.2,1.3-0.9c0.1-1,0.1-2.3,0.1-3.6
		c0-28,0-56.1,0-84.1c0-1.1,0-2.1,0-3.2C1730.9,732.3,1730.8,732,1730.7,731.6z M1715.4,48.9c0.6,0.5,0.5,0.9,0,1.4
		c-0.5,0-0.9-0.2-1-0.7C1714.5,49.1,1714.9,48.9,1715.4,48.9z M1692.1,79.6c0.1-0.5,0.3-0.9,0.5-1.4c0.6-0.3,1.2-0.7,1.6-0.9
		c1.4-0.1,2.6,0.7,3,1.7c0.4,1.1,0,2.4-1,3.1c-0.4,0.4-1,0.5-1.6,0.5c-0.8,0-0.9,0-2.2-1.1c-0.2-0.4-0.3-0.8-0.4-1.1
		C1692.1,80.1,1692,79.8,1692.1,79.6z M1545.4,196.2c-0.1-0.2-0.4-0.6-0.6-1.1c0.2-0.5,0.5-1.1,0.6-1.4c0.8-0.5,1.5-0.6,2.2-0.3
		c0.5,0.2,0.7,0.5,1.1,1.7c-0.1,0.7-0.5,1.2-1.2,1.6C1546.8,196.9,1546.1,196.9,1545.4,196.2z M1548.6,327.4
		c-0.4-0.2-0.6-0.3-0.9-0.4c0.3-1.1,0.4-1.1,1.3-0.5C1548.9,326.8,1548.7,327.1,1548.6,327.4z M1555,60.9c-0.2-0.2-0.4-0.4-0.5-0.7
		c0.5-0.7,0.7-0.8,1-0.6c0.2,0.1,0.4,0.3,0.4,0.5C1555.9,60.6,1555.6,60.9,1555,60.9z M1560.4,135.5c-0.4,0.2-0.8-0.3-0.8-0.8
		c0-0.3,0.4-0.6,0.7-0.5c0.3,0.1,0.5,0.4,0.8,0.6C1560.8,135.1,1560.7,135.4,1560.4,135.5z M1572.7,28.6c-0.2-0.6,0.2-0.8,0.6-1
		c0.2,0.1,0.4,0.2,0.6,0.2c0.1,0.1,0.1,0.2,0.2,0.3c0.1,0.5-0.2,0.8-0.7,1C1573.1,28.9,1572.9,28.8,1572.7,28.6z M1574.9,253.5
		c-0.3-0.2-0.6-0.4-0.9-0.5c-0.5-0.8-0.5-1.4,0-2.1c0.3-0.1,0.5-0.3,0.9-0.5c1,0.2,1.6,0.6,1.6,1.5
		C1576.5,252.8,1575.9,253.3,1574.9,253.5z M1594.7,77.9c-0.2,0.4-0.4,0.8-0.7,1.7c-0.9-2.2-1.6-4.1-3.1-5.5c-1.5-1.5-3.3-2.2-5.4-3
		c5.3-2.2,6.4-3.2,8.5-8.5c2.1,5.2,3.3,6.4,8.2,8.3c-0.4,0.5-1,0.7-1.5,0.9C1597.8,72.9,1595.8,75,1594.7,77.9z M1603.7,180.2
		c-0.7-1-1.4-2.1-2.2-3.1c-0.7-0.9-1.9-1.2-2.8-1.8c0.4-1.1,1.4-1,2-1.6s1.2-1.2,1.7-1.8c0.5-0.7,0.8-1.4,1.3-2.2
		c0.7,0.5,0.7,1.4,1.2,2c0.6,0.8,1.3,1.4,2,2c0.7,0.5,1.7,0.3,1.9,1.4C1605.8,176.9,1605.8,176.9,1603.7,180.2z M1614.1,296.3
		c-0.2,0-0.4-0.3-0.4-0.5c0-0.5,0.4-0.7,0.9-0.7c0.1,0.2,0.2,0.5,0.4,0.9C1614.6,296.1,1614.3,296.3,1614.1,296.3z M1627.2,43.4
		c1-0.7,1.5-0.8,2.1-0.3c0.6,0.6,0.6,1.2,0.3,1.9c-0.4,0.5-0.9,0.8-1.5,0.6C1627,44.9,1627,44.9,1627.2,43.4z"/>
	<path class="st0" d="M833.5,4.4c-0.9-0.1-1.9-0.1-2.8-0.1c-35.5,0-71,0-106.5,0c-1.1,0-2.3,0.1-3.5,0.1c-0.4,0-0.7,0.1-1.3,0.3
		c-0.2,1.9-0.1,3.6,0,5.2c0,136.5,0,273,0,409.5c0,133.2,0,266.3,0,399.5c0,1.5,0.1,2.9,0.1,4.3c0,0.3,0.2,0.7,0.3,1
		c0.3,0.1,0.7,0.3,1,0.3c0.9,0,1.9,0,2.8,0c35.8,0,71.5,0,107.2,0c0.9,0,1.9-0.1,2.8-0.1c0.5-0.1,0.9-0.4,1.2-1.1c0-1,0-2.3,0-3.6
		c0-270.2,0-540.5,0-810.7c0-1.1,0-2.1,0-3.2c-0.1-0.3-0.2-0.6-0.3-1C834.1,4.7,833.8,4.4,833.5,4.4z M733.3,234.2
		c0,0-0.1-0.1-0.1-0.2c-0.1-0.1-0.1-0.4-0.2-0.6c0.2-0.2,0.5-0.3,0.8-0.4C734.3,233.9,734.3,234,733.3,234.2z M734.2,35.2
		c-0.8-0.1-1.3-0.6-1.4-1.6c0.5-1.1,1.2-1.5,2.3-1c0.1,0.2,0.4,0.5,0.5,0.8c0.1,0.2,0.1,0.5,0.1,0.7C735.5,34.8,735,35.3,734.2,35.2
		z M754.7,146.2c0.1-0.3,0.2-0.6,0.4-0.9c0.3,0.1,0.5,0.3,0.8,0.4C755.7,146.7,755.6,146.7,754.7,146.2z M754,118.9
		c-0.8,0.2-1.6,0.4-2.3,0.8c-2.2,1-3.9,2.5-4.8,4.9c-0.1,0.4-0.2,0.7-0.4,1.1c-0.2-0.2-0.6-0.4-0.7-0.7c-0.4-1.1-0.9-2.2-1.7-3.1
		c-1.3-1.5-3-2.4-4.8-3c-1.3-0.4-2.5-0.7-3.8-1.1c0.4-0.4,0.8-0.3,1.2-0.4c1-0.3,2.1-0.5,3.1-0.8c2.7-0.9,4.7-2.5,5.7-5.3
		c0.2-0.6,0.4-1.1,1-1.4c0.1,0.1,0.2,0.2,0.1,0.5c1.1,3.5,3.7,5.3,7,6.4c1.5,0.4,3,0.7,4.6,1.1C756.7,118.2,755.4,118.5,754,118.9z
		 M774.5,67c-0.5,0.6-1,1.3-1.5,1.9c-0.9-0.3-1-1.2-1.6-1.7c-0.5-0.6-1.3-0.9-1.8-1.7c0.6-0.6,1.3-1,1.8-1.6s0.9-1.3,1.4-2
		c0.5,0.7,0.9,1.4,1.5,2s1.3,1,1.9,1.5C776.1,66.4,775,66.4,774.5,67z M780,219.7c-0.5-0.9-0.5-1,0.5-1.3c0.1,0.3,0.2,0.6,0.4,0.9
		C780.6,219.5,780.3,219.6,780,219.7z M782.8,142.3c-0.8,0.6-1.6,0.8-2.6,0.8c-0.9,0-1.6-0.3-2.3-0.8c-1-0.8-1.4-1.9-1.5-3.1
		c0-1.1,0.3-2.1,1.2-2.8c0.7-0.6,1.5-1,2.5-1.1s1.8,0.2,2.6,0.8s1.1,1.1,1.6,3.1C784.2,140.4,783.8,141.5,782.8,142.3z M805.9,182.7
		c-0.1-0.2,0.1-0.5,0.2-0.9c0.4,0.2,0.7,0.3,1.1,0.4c-0.2,0.3-0.3,0.6-0.5,1C806.4,183,806,182.9,805.9,182.7z M807.1,284.4
		c0.1-0.3,0.3-0.6,0.4-0.9c0.3,0.1,0.6,0.3,0.9,0.4C808.1,285,808,285,807.1,284.4z M811.5,27c-0.3,0.2-0.7,0.2-0.9-0.1
		c-0.1-0.2-0.1-0.4-0.2-0.6c0.2-0.2,0.3-0.3,0.4-0.5c0.3-0.1,0.8,0,0.9,0.3S811.7,26.8,811.5,27z M817.8,85c0,1-0.4,1.7-1.2,1.9
		c-0.8,0.3-1.7,0-2.1-0.7s-0.3-1.6,0.3-2.2s1.3-0.7,2.2-0.3c0.2,0.1,0.3,0.3,0.6,0.5C817.8,84.7,817.9,84.9,817.8,85z"/>
	<path class="st0" d="M373.9,4.6c-0.3-0.1-0.7-0.3-1-0.3c-1.1-0.1-2.1-0.1-3.2-0.1c-32.8,0-65.7,0-98.6,0c-1.1,0-2.1,0-3.2,0.1
		c-0.4,0-0.7,0.2-1.2,0.4c-0.3,1.6-0.2,2.9-0.3,4c0,14.4,0,28.9,0,43.3c0,255.5,0,510.9,0,766.4c0,1.5,0.1,3.1,0.1,4.6
		c0,0.3,0.2,0.7,0.3,1c0.3,0.1,0.7,0.3,1,0.3c0.9,0.1,1.9,0.1,2.8,0.1c33.2,0,66.3,0,99.4,0c0.9,0,1.9,0,2.8,0
		c0.5,0,0.9-0.2,1.3-0.9c0.1-1,0.1-2.3,0.1-3.6c0-270.4,0-540.7,0-811.1c0-1.1,0.1-2.1,0-3.2C374.2,5.3,374,4.9,373.9,4.6z
		 M277.1,85.2c-0.4,0-0.7,0-1.1,0c-0.1-0.3-0.3-0.6-0.5-0.9c0.2-0.3,0.4-0.6,0.5-1c0.4,0,0.7,0,1.1,0c0.2,0.3,0.4,0.6,0.6,0.9
		C277.5,84.6,277.3,84.9,277.1,85.2z M292,124.7c-0.3,0.3-0.6,0.4-1.6,0.2c-1-1.4-1-1.5,0.1-2.6c0.8-0.3,1.4,0,1.9,0.6
		C292.7,123.8,292.5,124.3,292,124.7z M303,114.3c-1-0.4-1.2-1.5-1.9-2c-0.9-0.6-1.7-1.3-2.6-1.8c-0.8-0.5-1.7-0.8-2.7-1.2
		c1.5-0.8,2.8-1.5,4.1-2.2c1.2-0.7,1.9-2,3-3.1c0.8,1.3,1.7,2.4,2.8,3.3c1.1,0.8,2.5,1.1,3.8,2.1C306.6,110.4,304.3,111.7,303,114.3
		z M318.5,26.7c-0.2,0.3-0.3,0.6-0.5,0.9c-1,0.7-2,0.7-2.8-0.3c-0.7-0.7-0.7-1.8,0-2.5c0.6-0.7,1.3-0.7,2.8-0.1
		c0.2,0.2,0.3,0.4,0.4,0.6c0.1,0.3,0.1,0.5,0.2,0.7C318.6,26.3,318.6,26.5,318.5,26.7z M330.3,47.1c-1.9,0-3.5-1.7-3.5-3.6
		c0-2,1.6-3.5,3.6-3.5s3.5,1.6,3.5,3.6C333.9,45.5,332.3,47.1,330.3,47.1z M338.7,167.3c0.1-0.3,0.2-0.6,0.4-0.9
		c0.3,0.1,0.6,0.3,0.9,0.4C339.7,167.9,339.6,167.9,338.7,167.3z M344,95.9c-0.7,0.4-1.2,0.3-2.2-0.4c-0.4-1.1-0.1-1.8,1-2.2
		c0.8,0,1.4,0.2,1.7,1C344.7,94.9,344.5,95.6,344,95.9z"/>
	<path class="st0" d="M1501.4,4.4c-0.6,0-1.3-0.1-2-0.1c-34.5,0-69.1,0-103.6,0c-0.2,0-0.4,0.1-1,0.3c-0.1,0.6-0.3,1-0.4,1.5
		c0,1.1,0,2.3,0,3.5c0,63.1,0,126.3,0,189.4c0,206.4,0,412.9,0,619.4c0,1.5,0,2.9,0,4.3c0,0.5,0.2,0.9,0.3,1.3
		c0.2,0.1,0.3,0.2,0.4,0.2s0.2,0.1,0.3,0.1c34.7,0.1,69.3,0.1,104,0.1c0.7,0,1.5-0.1,2.1-0.1c0.2-0.2,0.4-0.4,0.6-0.7
		c0-1.2,0-2.5,0-3.8c0-13.4,0-26.9,0-40.4c0-256.5,0-513,0-769.5c0-1.5,0-2.9,0-4.3C1502.1,5.1,1501.9,4.7,1501.4,4.4z M1463.3,31.3
		c1-0.2,1.8,0.3,3,0.4c0.8-0.2,1.8-0.4,2.9-0.6c0.1,0.4,0.3,0.7,0.3,1c-0.1,0.8-0.3,1.6-0.5,2.4c0.1,0.9,0.3,1.9,0.5,2.7
		c-0.2,0.3-0.3,0.5-0.5,0.7c-0.9-0.2-1.8-0.4-2.8-0.6c-0.9,0.2-1.8,0.4-2.6,0.6c-0.3-0.2-0.4-0.3-0.7-0.5c0.2-0.8,0.4-1.8,0.5-2.8
		c-0.1-1-0.3-2-0.5-3C1463.1,31.4,1463.2,31.3,1463.3,31.3z M1419.5,26.6c0.2,0.4,0.3,0.6,0.4,0.9c-0.9,0.6-1,0.5-1.3-0.5
		C1418.9,26.9,1419.2,26.7,1419.5,26.6z M1408.9,266.1c-0.5,0.1-0.8-0.3-0.9-0.9c0.2-0.2,0.5-0.4,0.9-0.8c0.2,0.3,0.5,0.5,0.9,0.8
		C1409.4,265.6,1409.2,266,1408.9,266.1z M1421.2,108.4c-0.4,0.4-1,0.6-1.6,0.5c-0.4,0-0.9-0.2-1.3-0.4c-0.6-0.3-0.7-0.6-1.1-2.1
		c0.2-0.9,0.5-1.6,1.1-2.1c0.4-0.2,0.9-0.4,1.3-0.4c1.6,0,2.3,0.9,2.6,2.3C1422.2,107.2,1421.9,107.9,1421.2,108.4z M1432.3,218.6
		c-0.7,1-2,1.3-3.1,0.8s-1.7-1.8-1.5-2.9c0.3-1.2,1.3-2.1,2.5-2.1c1.2-0.1,2,0.4,2.5,1.5c0.1,0.3,0.2,0.7,0.3,1.1
		C1432.8,217.5,1432.6,218.1,1432.3,218.6z M1443.7,151c0.1-0.3,0.3-0.6,0.4-0.9c0.4,0.1,0.6,0.3,0.9,0.4
		C1444.7,151.5,1444.6,151.6,1443.7,151z M1466.2,149.8c-0.1-0.1-0.4-0.1-0.5-0.2c-0.8-1.5-2-2.6-3.5-3.3c0-0.1,0-0.2,0-0.3
		c0.7-0.6,1.5-1.1,2.2-1.7c0.6-0.7,1.1-1.5,1.7-2.2c1.4,2.1,1.4,2.1,3.8,4C1467.7,147.7,1467.7,147.7,1466.2,149.8z M1470.6,199.7
		c-0.4-0.1-0.6-0.3-0.9-0.4c0.3-1.1,0.4-1.1,1.3-0.5C1470.8,199.1,1470.7,199.3,1470.6,199.7z M1471.4,87.3
		c-0.4,0.2-0.8,0.3-1.3,0.4c-1.3,0.2-2.5,0.6-3.7,1.2c-2.3,1.1-4.1,2.7-4.8,5.3c-0.1,0.2-0.2,0.4-0.3,0.6c-0.1,0-0.2,0-0.3-0.1
		c-0.3-0.3-0.5-0.6-0.6-0.9c-0.9-2.8-3-4.5-5.6-5.5c-1.1-0.5-2.3-0.8-3.4-1.1c0-0.2,0.1-0.4,0.1-0.7c0.6-0.1,1.3-0.2,2-0.4
		c3.3-1,5.9-2.8,6.9-6.4c0.1-0.2,0.3-0.4,0.4-0.6c0.1-0.1,0.2-0.1,0.4-0.2c0.1,0.3,0.3,0.6,0.4,1c0.8,2.3,2.5,3.9,4.7,5
		c1.3,0.7,2.6,1.2,4,1.4c0.5,0.1,0.9,0.2,1.4,0.3C1471.6,86.9,1471.5,87.2,1471.4,87.3z"/>
	<path class="st0" d="M964,767.4c-1.7,2.5-3.9,4.7-6.6,6.6c-0.6,1.2-1.3,2.5-1.9,3.9c-0.9,1.8-1.9,3.5-3.3,5
		c-1.3,1.3-2.3,2.7-3.1,4.3c-0.2,0.4-0.5,0.8-0.7,1.2c-0.9,1.5-2,2.8-3.5,3.9c-1.6,1.1-2.9,2.5-3.9,4.1c-0.3,2.8-0.3,5.5-0.2,8.2
		c0.5,1.3,1,2.6,1.6,4.1c0,1-0.1,2.2,0,3.4s0.3,2.4,0.4,3.3c0.8,1.3,1.5,2.4,2.2,3.6c2.8,1.4,6,1.9,8.8,3.2c0.7,0.8,1.2,1.4,1.7,2
		c0.4,0.1,0.8,0.2,1.1,0.2c3.9,0,7.8,0,11.7,0c0.4,0,0.9-0.1,1.1-0.7c-0.8-2.2-1.1-4.5-1.1-6.9c0-0.9,0-1.9-0.1-2.8
		c-0.2-3.3,0-6.4,1-9.5c0.6-1.9,0.8-3.9,0.5-5.9c-0.4-3-0.7-6.1-1.1-9.1c-0.2-1.1-0.2-2.1,0-3.2c0.7-3.1,0.9-6.3,0.9-9.5
		c0.1-4.2,0-8.3,0.8-12.4c0.1-0.6,0.3-1.4-0.2-2.1C967.7,763.5,965.6,765.1,964,767.4z"/>
</g>
</svg>
