<?xml version="1.0" encoding="utf-8"?>
<!-- Generator: Adobe Illustrator 27.0.1, SVG Export Plug-In . SVG Version: 6.00 Build 0)  -->
<svg version="1.1" id="Layer_1" xmlns="http://www.w3.org/2000/svg" xmlns:xlink="http://www.w3.org/1999/xlink" x="0px" y="0px"
	 viewBox="0 0 1000.1 285.3" style="enable-background:new 0 0 1000.1 285.3;" xml:space="preserve">
<style type="text/css">
	.st0{fill:#FFFFFF;}
</style>
<g>
	<path class="st0" d="M39,121.1l-1.3-1.1l1.2-1.2c6.8-6.5,6.8-9.8,6.8-17.9V83.8c0-12.7-4.5-16.2-20.9-16.2H0
		c1.9,4.7,2.2,7.1,2.2,12.3v88c0,5.2-0.3,7.6-2.2,12.3h24.8c16.6,0,20.9-3.3,20.9-16.2v-26.8C45.7,129.8,45.8,126.4,39,121.1
		 M31,161c0,4-0.5,8-6.8,8h-7.4v-42.5h7.4c6.2,0,6.8,3.9,6.8,8V161z M31,107.1c0,4-0.5,8-6.8,8h-7.4V79.4h7.4c6.2,0,6.8,3.9,6.8,8
		V107.1z"/>
	<path class="st0" d="M122.1,169.1V80c0-5.2,0.3-7.6,2.3-12.3h-19.2c2,4.7,2.2,7.1,2.2,12.3v88c0,5.2-0.3,7.5-2.2,12.3h35.9v-12.8
		c-4.2,1.4-8.1,1.6-17.6,1.6"/>
	<path class="st0" d="M240.2,80c0-5.2,0.3-7.6,2.2-12.3h-19.1c1.9,4.7,2.2,7.1,2.2,12.3v81.5c0,7.3-3.9,8.9-7.1,8.9
		c-4.3,0-7.1-3.5-7.1-8.9V80c0-5.2,0.3-7.6,2.3-12.3h-19.2c1.9,4.7,2.2,7.1,2.2,12.3v83.1c0,7.8,2.1,11,6.2,14.8
		c3.3,2.6,9.2,4.2,15.7,4.2c6.5,0,12.3-1.6,15.5-4.2c4.6-4.1,6.1-7.7,6.1-14.7"/>
	<path class="st0" d="M376.5,68.5h-24.1l-14.3,74.5l-14.8-75.4h-23c1.8,4.4,2,6.8,2,11.9v88.4c0,5.1-0.3,7.5-2,11.9h16.2
		c-1.7-4.3-2.1-6.8-2.1-11.9V82.6l18.6,97.2h10.3l18.8-98.3v86.4c0,5.1-0.4,7.6-2.2,11.9h16.2c-1.7-4.4-2-6.8-2-11.9v-87
		C374.1,74.6,374.7,72.9,376.5,68.5"/>
	<path class="st0" d="M694.8,70.1c-3.2-2.7-9-4.3-15.4-4.3c-6.4,0-12.2,1.6-15.4,4.3c-4.4,3.9-6,7.6-6,14.3v78.6
		c0,7.6,2,10.9,6.1,14.5c3.2,2.5,8.9,4.1,15.3,4.1c6.4,0,12.2-1.6,15.4-4.2c4.5-3.9,5.8-7.3,5.8-14.4V84.4
		C700.7,77.3,699.2,73.9,694.8,70.1 M686.9,161.4c0,8.4-5.4,9.4-7.7,9.4c-4.6,0-7.4-3.6-7.4-9.4V86.2c0-4.3,2-9.4,7.4-9.4
		c4.9,0,7.7,3.4,7.7,9.4V161.4z"/>
	<path class="st0" d="M790.9,79.6v81.8c0,7.7-4.1,9.3-7.5,9.3c-5.6,0-7.5-5-7.5-9.3V79.6c0-5.2,0.3-7.6,2.1-11.9h-18
		c1.8,4.4,2,6.8,2,11.9V163c0,7.6,2,10.9,6,14.5c3.2,2.5,9,4.1,15.5,4.1c6.4,0,12.2-1.5,15.3-4.1c4.6-4,6-7.4,6-14.4V79.6
		c0-5.2,0.2-7.5,2-11.9h-17.9C790.7,72.1,790.9,74.4,790.9,79.6"/>
	<path class="st0" d="M895.1,121.4l-5.5-6.8c-0.9-1.2-1.7-2.1-2.4-3.1c-4-4.9-6-7.4-6-12.8V83.6c0-4,2.1-6.6,5.5-6.6
		c3.3,0,5.9,2.9,5.9,6.6l0,3.5c0,5.5,0,7.6-0.9,11.4h14.3c-1-3.8-0.9-6.6-0.9-10.1l0-2.8c0-4.9,0-9.1-2.1-12.8
		c-2.8-4.7-7.6-6.9-14.7-6.9c-1.3,0-2.6,0.1-3.7,0.2c-6.3,0.5-17.1,4.8-17.1,17v17.4c0,9.6,2.4,12.4,9.3,20.7l0.3,0.3
		c0.8,1,1.8,2.1,2.8,3.3l5.4,6.9c5.9,7,7.3,8.7,7.3,15.7v16.8c0,4-2.2,6.7-5.6,6.7c-3.3,0-5.8-2.8-5.8-6.7l0-3.7
		c0-5.7,0-8.7,0.8-12.9h-14.2c0.9,4.3,0.9,8.2,0.9,12l0,3.7c-0.1,5.5-0.2,10.7,6,15c2.8,2.1,7.3,3.4,12.2,3.4c2.8,0,5.5-0.4,7.4-1.1
		c3.6-1.3,11.9-5.1,11.9-13.5v-22.1c0-10.1-1-11.3-7.4-18.9C897.6,124.4,896.4,123,895.1,121.4"/>
	<path class="st0" d="M1000.1,67.6h-33.5c1.8,4.4,2,6.8,2,11.9v88.4c0,5.1-0.2,7.5-2,11.9h33.5v-12c-4.3,1.5-6.1,1.5-13.9,1.7
		l-3.7,0V78.3h5c6.7,0,8.6,0.1,12.7,1.5"/>
	<path class="st0" d="M987.7,127c1.1-0.2,5.9-2.8,6.9-3.5c1.5-1,3-1.9,4.9-1.8v-13.2c-0.9,0.6-1.8,1.4-2.7,2.3
		c-1.7,1.6-7.1,5.1-9.1,5.5"/>
	<path class="st0" d="M238.4,249.5v-0.8c0-2.9,0-5.2-2-7.3c-2-2.1-5.3-2.4-8.3-2.4l-7.8,0c0.7,1.8,0.8,2.8,0.8,4.8v35.7
		c0,2-0.1,3-0.8,4.8h7.3c-0.7-1.8-0.8-2.8-0.8-4.8v-11.4h0.8c0.2,0,0.5,0,0.8,0c0.5,0,1,0,1.6,0c2.2,0,3.9-0.4,4.9-1
		c3.6-2.3,3.6-5.5,3.6-9.4 M232.8,260.5c0,1.7-0.2,3.4-2.9,3.4h-3.2v-20.4h3.2c2.7,0,2.9,1.8,2.9,3.4V260.5z"/>
	<path class="st0" d="M296.1,278.5v-11.3c0-2.3,0-3.4-1.8-6l-0.4-0.5l0.4-0.5c1.4-1.5,1.8-2.6,1.8-4.2l0-8.2c0-3,0.1-4.8-1.8-6.8
		c-2-2.1-5.8-2.1-8.2-2l-0.8,0H278c0.7,1.8,0.8,2.8,0.8,4.8v35.6c0,2-0.1,3-0.8,4.8h7.3c-0.7-1.8-0.8-2.8-0.8-4.8v-17h0.8
		c4.3,0,5.3,0.4,5.3,4.4v17.4h6.4c-0.7-2.1-0.7-3-0.8-4.6C296.2,279.5,296.2,279,296.1,278.5 M290.6,255.1c0,3.2-2.2,3.2-5.3,3.2
		h-0.8v-15h2c1,0,4.1,0,4.1,3.2L290.6,255.1L290.6,255.1z"/>
	<path class="st0" d="M351.1,240.1c-1.3-1.1-3.6-1.7-6.2-1.7c-2.6,0-4.9,0.7-6.2,1.7c-1.8,1.6-2.4,3.1-2.4,5.8v31.8
		c0,3.1,0.8,4.4,2.4,5.8c1.3,1,3.6,1.7,6.2,1.7c2.6,0,5-0.7,6.2-1.7c1.8-1.6,2.4-3,2.4-5.8v-31.8C353.5,243,352.9,241.6,351.1,240.1
		 M348,276.9c0,3.4-2.2,3.8-3.1,3.8c-1.8,0-3-1.5-3-3.8v-30.4c0-1.8,0.8-3.8,3-3.8c2,0,3.1,1.4,3.1,3.8V276.9z"/>
	<path class="st0" d="M402,239.1h-9c0.7,1.8,0.8,2.8,0.8,4.8v35.7c0,2-0.1,3-0.8,4.8h6.3c4.2,0,7-0.2,9.2-2.4
		c1.7-1.7,2.6-4.3,2.6-7.8v-26.7C411.1,240.8,409.3,239.1,402,239.1 M405.5,276.7c0,1.7-0.2,3.4-2.9,3.4h-3.2v-36.6h3.2
		c2.7,0,2.9,1.8,2.9,3.4V276.7z"/>
	<path class="st0" d="M463.4,244.1V277c0,3-1.5,3.6-2.9,3.6c-1.7,0-2.9-1.4-2.9-3.6v-32.9c0-2.1,0.1-3.1,1-5h-7.8
		c0.8,1.9,0.9,2.9,0.9,5v33.6c0,3.1,0.8,4.5,2.5,6c1.3,1.1,3.7,1.7,6.3,1.7c2.6,0,5-0.6,6.3-1.7c1.9-1.7,2.5-3.1,2.5-6v-33.6
		c0-2.1,0.1-3,0.9-5h-7.7C463.3,241,463.4,242,463.4,244.1"/>
	<path class="st0" d="M520.8,267.5c0.4,1.9,0.4,3.8,0.4,7.3v2.1c0,2.5-1,3.8-3.1,3.8c-1.8,0-3-1.4-3-3.8v-30.4c0-2.3,1.2-3.8,3-3.8
		c2,0,3.1,1.4,3.1,3.8v2.4c0,1.6-0.1,3.4-0.4,4.8h6.3c-0.4-1.6-0.4-2.7-0.4-4.1l0-3.8c0-2.8-0.6-4.2-2.5-5.8
		c-1.3-1.1-3.6-1.7-6.2-1.7s-4.9,0.6-6.2,1.7c-1.6,1.4-2.4,2.7-2.4,5.8v31.8c0,3.1,0.8,4.4,2.5,5.8c1.2,1,3.6,1.7,6.2,1.7
		s4.9-0.7,6.2-1.7c1.6-1.4,2.4-2.7,2.4-5.8l0-4.7c0-2.2,0-3.8,0.4-5.5"/>
	<path class="st0" d="M563.5,243.9c1.2-0.5,2.5-0.5,4.9-0.5h0.7v36.2c0,2-0.1,3-0.8,4.8h7.2c-0.7-1.8-0.8-2.8-0.8-4.8v-36.2h0.8
		c2.4,0,3.6,0,4.9,0.5v-4.8h-16.9"/>
	<path class="st0" d="M625.8,239.1h-7.3c0.7,1.8,0.8,2.8,0.8,4.8v35.7c0,2-0.1,3-0.8,4.8h7.3c-0.7-1.8-0.8-2.8-0.8-4.8v-35.7
		C624.9,241.9,625,240.9,625.8,239.1"/>
	<path class="st0" d="M680.1,240.1c-1.3-1.1-3.6-1.7-6.2-1.7c-2.6,0-4.9,0.7-6.2,1.7c-1.8,1.6-2.4,3.1-2.4,5.8v31.8
		c0,3.1,0.8,4.4,2.4,5.8c1.3,1,3.6,1.7,6.2,1.7c2.6,0,4.9-0.7,6.2-1.7c1.8-1.6,2.3-3,2.3-5.8v-31.8
		C682.5,243,681.9,241.6,680.1,240.1 M677,276.9c0,3.4-2.2,3.8-3.1,3.8c-1.8,0-3-1.5-3-3.8v-30.4c0-1.8,0.8-3.8,3-3.8
		c2,0,3.1,1.4,3.1,3.8V276.9z"/>
	<path class="st0" d="M743.2,243.9c0-2.1,0.1-3,0.8-4.8h-6.5c0.7,1.8,0.8,2.7,0.8,4.8v29.4l-9.4-34.2h-6.5c0.7,1.8,0.8,2.7,0.8,4.8
		v35.7c0,2.1-0.1,3-0.8,4.8h6.6c-0.7-1.7-0.9-2.7-0.9-4.8v-29.5l9.9,34.3l6,0c-0.7-1.8-0.8-2.7-0.8-4.8"/>
	<path class="st0" d="M796.2,262.6c-0.5-0.6-1-1.2-1.5-1.8l-2.2-2.8c-0.4-0.5-0.7-0.9-1-1.2c-1.6-2-2.4-3-2.4-5.2v-6.1
		c0-1.6,0.9-2.7,2.2-2.7s2.4,1.2,2.4,2.7v1.4c0,2.2,0,3.1-0.4,4.6h5.8c-0.3-1.5-0.3-2.7-0.3-4.1v-1.2c0-1.9,0-3.7-0.8-5.1
		c-1.1-1.9-3-2.8-5.9-2.8c-0.5,0-1.1,0-1.5,0.1c-2.6,0.2-6.9,1.9-6.9,6.9v7c0,3.9,0.9,5.1,3.7,8.4l0.1,0.1c0.3,0.4,0.7,0.8,1.1,1.3
		l2.2,2.8c2.4,2.9,3,3.5,3,6.4v6.8c0,1.6-0.9,2.7-2.3,2.7c-1.3,0-2.3-1.1-2.3-2.7v-1.5c0-2.3,0-3.5,0.3-5.2h-5.8
		c0.4,1.8,0.4,3.3,0.4,4.8l0,1.5c0,2.2-0.1,4.3,2.5,6.1c1.1,0.9,2.9,1.4,4.9,1.4c1.1,0,2.2-0.2,3-0.4c1.5-0.6,4.8-2.1,4.8-5.5v-8.9
		C799.2,266.2,798.8,265.7,796.2,262.6"/>
	<path class="st0" d="M595.1,80.9c0-5.1,0.3-7.3,2.1-11.9h7.7v-2.1l-19-44.6h-41L518.3,0l-26.5,22.7h-40.4l-19.6,44.4v2l0.7-0.1h7.1
		c1.7,4.6,1.5,6.8,1.5,11.9v88.1c0,4.9,0.2,8.1-1.3,11.2h48.5c1.5-4.6,2.1-6.2,2.1-11V80.9c0-5-0.6-7.4-2.2-11.6l-1-1.8H510
		l-0.7,1.8c-1.7,4.2-2,6.6-2,11.6v34.5h21.6V80.9c0-5,0-7.5-1.7-11.6l-0.4-1.8h21.2l-0.5,1.8c-1.6,4.2-1.8,6.6-1.8,11.6v88.3
		c0,4.9,0.1,6.4,1.6,11h49.5c-1.5-4.6-1.7-6.3-1.7-11.2"/>
	<polyline class="st0" points="507.3,127.7 507.3,180.2 528.9,180.2 528.9,127.7 	"/>
</g>
</svg>
