<?xml version="1.0" encoding="utf-8"?>
<!-- Generator: Adobe Illustrator 27.0.1, SVG Export Plug-In . SVG Version: 6.00 Build 0)  -->
<svg version="1.1" id="图层_1" xmlns="http://www.w3.org/2000/svg" xmlns:xlink="http://www.w3.org/1999/xlink" x="0px" y="0px"
	 viewBox="0 0 199 41" style="enable-background:new 0 0 199 41;" xml:space="preserve">
<style type="text/css">
	.st0{fill:#FFFFFF;}
</style>
<path class="st0" d="M89.1,12.6v3.7h-1.4v-2.4h-9V3.4h1.5v9.2H86V3.4h1.5v9.2H89.1z M99.4,12.6v1.3h-7.6V3.4h7.4v1.3h-5.9v3.2h5.3
	v1.3h-5.3v3.4H99.4z M111.5,3.4v10.5H110V9.2h-6v4.7h-1.5V3.4h1.5v4.5h6V3.4H111.5z M122.7,4.7h-3.6v9.2h-1.5V4.7H114V3.4h8.7V4.7z
	 M129.3,3.4c1.4,0,2.4,0.3,3.2,1s1.2,1.5,1.2,2.7s-0.4,2-1.2,2.7s-1.9,1-3.2,1h-2.6V14h-1.5V3.4H129.3z M129.2,9.4
	c0.9,0,1.7-0.2,2.2-0.6s0.8-1,0.8-1.7s-0.3-1.3-0.8-1.7s-1.2-0.6-2.2-0.6h-2.6v4.7h2.6V9.4z M142.8,11.3h-5.6l-1.2,2.6h-1.5
	l4.8-10.5h1.5l4.8,10.5H144L142.8,11.3L142.8,11.3z M142.2,10.1L140,4.9l-2.3,5.1h4.5V10.1z M156.6,3.4v10.5h-1.5V4.7h-4.6l-0.1,3.1
	c-0.1,1.4-0.2,2.6-0.4,3.5s-0.5,1.6-0.9,2s-0.9,0.7-1.6,0.7c-0.3,0-0.6,0-0.9-0.1l0.1-1.3c0.2,0,0.3,0.1,0.5,0.1
	c0.4,0,0.8-0.2,1-0.5c0.3-0.3,0.5-0.9,0.6-1.6c0.1-0.7,0.2-1.6,0.3-2.7l0.2-4.4L156.6,3.4L156.6,3.4z M87.7,27.3v10.5h-1.5v-9.2
	h-6.1v9.2h-1.5V27.3H87.7z M98.5,35.2h-5.6l-1.2,2.6h-1.5L95,27.3h1.5l4.8,10.5h-1.6L98.5,35.2z M97.9,34l-2.3-5.1L93.4,34H97.9z
	 M107.8,27.3c1.4,0,2.4,0.3,3.2,1s1.2,1.5,1.2,2.7s-0.4,2-1.2,2.7s-1.8,1-3.2,1h-2.6v3.2h-1.5V27.3H107.8z M107.8,33.4
	c0.9,0,1.7-0.2,2.2-0.6c0.5-0.4,0.8-1,0.8-1.7s-0.3-1.3-0.8-1.7s-1.2-0.6-2.2-0.6h-2.6v4.7L107.8,33.4L107.8,33.4z M121.9,28.6h-3.6
	v9.2h-1.5v-9.2h-3.6v-1.3h8.7V28.6z M133.4,27.3v10.5h-1.5v-4.7h-6v4.7h-1.5V27.3h1.5v4.5h6v-4.5H133.4z M145,36.5v1.3h-7.6V27.3
	h7.4v1.3h-5.9v3.2h5.3v1.3h-5.3v3.4H145z M152.2,27.3c1.4,0,2.4,0.3,3.2,1c0.8,0.6,1.2,1.5,1.2,2.7s-0.4,2-1.2,2.7s-1.9,1-3.2,1
	h-2.6v3.2h-1.5V27.3H152.2z M152.1,33.4c0.9,0,1.7-0.2,2.2-0.6c0.5-0.4,0.8-1,0.8-1.7s-0.3-1.3-0.8-1.7s-1.2-0.6-2.2-0.6h-2.6v4.7
	L152.1,33.4L152.1,33.4z M172.5,27.3v10.5h-13.2V27.3h1.5v9.2h4.4v-9.2h1.5v9.2h4.4v-9.2H172.5L172.5,27.3z M176.5,27.3h1.5v8.1
	l6.2-8.1h1.4v10.5h-1.5v-8.1l-6.2,8.1h-1.4C176.5,37.8,176.5,27.3,176.5,27.3z M198.5,27.3v10.5H197v-9.2h-6v9.2h-1.5V27.3H198.5z
	 M49.9,1.4c-1.3-0.2-3.4-0.4-6.7-0.3c-10.8,1-19.1,5.2-25.5,10C24.1,5.9,33.3,0.4,44,0c7.4-0.2,13,1.9,13,5.3c0,0.9,0,2.9-0.3,5.3
	l0,0c-0.4,3.1-1.4,6.7-3.9,9.4C48.4,24.6,37,28.5,32,30c-5,1.6-11.8,3.7-11.8,3.7s-2,0.7-2.6,1.6c-0.6,0.9-2.5,4.3-6.2,5.2
	c-1.8,0.4-3-0.1-3.2-0.2c-0.5-0.2-1.1-1.6,0.9-2.1c1.8-0.4,4.9-0.9,5.8-1.5c1.2-0.9,1.8-2.3,1.8-2.3s0.5-1.1-0.8-1.1s-6.4,1.3-9.4,3
	c-1.1,0.6-3.7,1.8-5.2,1c-1-0.6-1.2-2-1-3c0,1.6,1.3,2.1,3.1,1.4c2.7-0.9,12.3-10,22.4-13.6c10.1-3.7,14.1-3.1,21.3-5.9
	c4.3-1.7,5.9-5.1,6.8-7.4C54.3,7.4,53,7.2,53,7.2c-4-1-9.4-0.9-14.1-0.3c-2.2,0.3-3.2,0.8-5.2,0.8s-6-0.2-8,0.6
	c-15,6.1-23.2,20.8-24.8,23.9l0.3-0.6l2.4-7.8c0,0,0.3-1.2,1.5-1.6c0.7-0.2,2.5-0.6,3.3-1.6c2.5-3,5.2-5.7,9.2-8.7
	c6.5-4.8,15-8.8,25.8-9.9c5-0.3,7.8,0,9.9,0.7C53.3,2.8,52.4,1.8,49.9,1.4L49.9,1.4z"/>
</svg>
