<?xml version="1.0" encoding="utf-8"?>
<!-- Generator: Adobe Illustrator 27.0.1, SVG Export Plug-In . SVG Version: 6.00 Build 0)  -->
<svg version="1.1" id="Layer_1" xmlns="http://www.w3.org/2000/svg" xmlns:xlink="http://www.w3.org/1999/xlink" x="0px" y="0px"
	 viewBox="0 0 1000 268.8" style="enable-background:new 0 0 1000 268.8;" xml:space="preserve">
<style type="text/css">
	.st0{fill:#FFFFFF;}
</style>
<path class="st0" d="M461.7,159.8v109c-0.1,0,16.6-0.2,16.9,0c0.2,0.2,0-47.5,0-47.5h15.2l25.8,47.5c0,0,18.5,0.2,18.5,0l-25.4-47.3
	h1.9c8.9,0,16.8-7.9,16.5-17c-0.7-14.2,0.5-27.3,0-27.5c0-8.8-7.8-16.9-17-17.2C513.9,160,461.8,160,461.7,159.8z M478.6,176.7h35.5
	v27.8h-35.5V176.7z"/>
<path class="st0" d="M223.7,159.9c8-0.3,16.9,6,16.7,16.7v18.5c-0.2,0.2-16.7,3.7-16.9,3.7v-22h-34.8v75.3h34.8
	c0.2,0,0.2-22.5,0-22.5c0.2,0.2,16.9,3.9,16.9,3.7c-0.3,10,0.2,18.8,0,18.8c0.2,13.2-8.9,16.9-16.9,16.7h-34.8
	c-10.6,0.2-17-6.5-17-16.7v-75.3c-0.2-9.7,6.1-16.9,17-16.9L223.7,159.9L223.7,159.9z"/>
<path class="st0" d="M81.6,159.8c-0.5,0-1.1,0-1.6,0.1H27.7l-0.1,108.9h17v-47.5c0,0,35.9,0.3,35.6,0c10,0.3,16.5-6.2,16.5-14v-30.5
	C97,166.8,89.5,159.8,81.6,159.8z M44.6,176.8h35.2v27.8H44.6C44.6,204.8,44.8,176.8,44.6,176.8z"/>
<path class="st0" d="M141.1,268.8c-0.2,0-17.3,0-16.9,0V159.9h16.9V268.8z"/>
<path class="st0" d="M379.9,252c0.2,0,35.6,0,35.4,0v-92.2h16.9v92.4c0,9.6-7.2,16.5-16.5,16.6l-36-0.1c-8.9,0-16.8-6.7-16.8-16.5
	c0-0.3,0-92.4,0-92.4h16.9V252z"/>
<path class="st0" d="M335.9,159.9c0.2-0.1,0,16.9,0,16.9h-26.7v92h-17v-92h-27.1v-16.9C265.3,160.1,336.1,160,335.9,159.9
	L335.9,159.9z"/>
<path class="st0" d="M701,159.9c8.9-0.3,17.2,8.1,16.9,16.5c0,0.2,0,10.6,0,10.4l-16.9,3.9c0.2,0.3,0-13.9,0-13.9h-35v27.8
	c0.2,0.2,35.4,0.2,35.2,0c10.2,0,17,6.3,16.7,17.1c0,0.5,0,30,0,30.4c0.3,11.3-7.9,16.7-16.7,16.7h-35c-9.4,0-17-6.5-17.2-16.7v-8.8
	c5.8-1.9,16.9-4,16.9-4.3v13h35c0,0.2,0-30.6,0-30.8h-35.1c-10,0-16.6-5.8-16.8-16.7c0.2,0,0-27.6,0-27.6c0.2-9.3,8-17.1,17.2-17.1
	C666.5,159.9,701,159.9,701,159.9L701,159.9z"/>
<path class="st0" d="M621.3,176.8h-38.4c-0.2,0,0,27.8,0,27.8c0.2,0,29.3,0,29.3,0c0,0.2,0,16.9,0,16.7h-29.3v30.8h38.4v16.7
	c0.2,0-55.1,0-55.4,0V159.9c0.2,0.2,55.4,0,55.4,0V176.8z"/>
<path class="st0" d="M115.2,27.6c-9.1,0.3-16.9,5.1-16.9,16.7V120c0.2,8.8,7.7,16.9,17.2,16.5h40.7c9.1,0.2,16.9-7.2,16.7-16.5V44.7
	c0-9.8-7.2-17.2-16.7-17.2H115.2z M115.2,44.5H156v75.3h-40.7V44.5z"/>
<path class="st0" d="M304.2,119.8h35.6V27.6h16.7l0.1,92.5c0,8.3-7.7,16.7-16.8,16.5c-0.5,0-35.6,0-35.6,0c-9.1,0.2-17-7.6-17-16.7
	c0.2-0.2-0.1-92.3,0-92.3h17L304.2,119.8L304.2,119.8z"/>
<path class="st0" d="M219.4,119.8l38.1,0l0,16.7c0,0-36.8,0-55.1,0v-109c0.3,0,16.7,0,16.9,0L219.4,119.8z"/>
<path class="st0" d="M404.9,27.5c0.2,0.2,27.6,59.3,27.4,59.3L459,27.5h18.7v108.9h-17V64.1L432.1,126c-0.1,0-29.1-61.9-29.1-61.9
	v72.3c0.3,0-16.9,0.2-16.9,0c0,0,0-109.1,0-108.9C386.2,27.5,404.9,27.5,404.9,27.5L404.9,27.5z"/>
<path class="st0" d="M689.5,27.4l-42,109c0-0.1,18.7,0.2,18.5-0.1c0.2,0,11.2-29.1,11.2-29.2h33.3l11.4,29.2h18.6l-42-108.9H689.5z
	 M694.2,63.8c0.2,0,10.1,26.8,10.1,26.6c0,0.2-20.4,0-20.5,0L694.2,63.8z"/>
<path class="st0" d="M515.3,27.5c-4.9,0-8.1,0-8.1,0.1v109h53.2c9.1,0,16.9-6.9,16.9-16.5c0.2,0,0-30.4,0-30.8
	c-0.2-8.1-6.3-8.2-7.6-8.6c4.5-1.9,5.7-3.2,5.9-8.3c0.2,0,0-27.8,0-27.6c0-9.9-8.5-17.2-16.7-17.2C559,27.7,529.9,27.5,515.3,27.5z
	 M524.2,44.5c-0.2,0,34.6,0.3,34.6,0v27.8h-34.6V44.5z M524.2,89h36.2v30.9c0,0.2-35.8-0.2-36.2,0V89z"/>
<path class="st0" d="M52,27.6c8-0.2,16.9,6,16.7,16.7c0,0,0,18.5,0,18.6C68.5,63,52,66.5,51.8,66.5v-22H17v75.3h34.8
	c0.2,0,0.2-22.5,0-22.5c0.2,0.2,16.9,3.9,16.9,3.7c-0.3,10,0.2,18.8,0,18.8c0.2,13.2-8.9,16.9-17,16.7H17C6.3,136.7,0,130,0,119.8
	V44.5c-0.3-9.7,6.2-16.9,17-16.9H52z"/>
<path class="st0" d="M624,136.5c-0.2,0-17.2,0-16.9,0v-109H624"/>
<path class="st0" d="M853.3,0l-3,5.7c-1.5,3.8,2.4,5.8,3.2,8.9c-0.2,2.1,0.8,5.5-1.5,6.6c-0.6,0.2-1.4,0.6-1.7,0
	c3.6-2.7-2.1-5.7-0.2-9.1c-0.9,1.1-1.4,2.2-1.7,3.5c-0.4,2-0.4,4.6,1.4,5.7c-0.7,0.3-1.8,0.1-2.6,0.2c-0.3,0.3-0.1,1.2-1,0.9v0.5
	l2.7,0.2c0.5,0.5-0.3,1.1-0.5,1.5l-7.8,2.3l-84.1,0.5l-0.2,80.4l0.2,160.9H1000V27.3h-86.6l-8.9-2.6c-1.4-2.5-3.7-4.9-6.1-6.9
	c-10.1-8.5-27.2-9.7-38.7-3.5c-3.7,0.6-3.1,5-6.1,6.4c0.1-1.2,1.4-2.3,1.7-3.6c2.6-5.3-4.1-8.5-1.5-13.3
	C854.4,2.6,854.3,0.7,853.3,0z M856.9,4.8c-4.1,2.2,1.2,4.9,0.7,7.8l0.8-2.1C858.8,8.5,858.6,6.3,856.9,4.8z M877.6,15.1
	c12.3,0.2,24.1,7.3,30.4,18.8c0.6,0.9,0.9,2.6,1.9,2.6c-0.3-2.1-0.8-4-1.7-5.9c9.9,1.8,20,10.1,22.6,20.6c0.6,1.9,0.8,4.1,1.7,5.8
	c0.6-0.6,0.4-2.2,0.2-3c6.9,0.1,13.1,5,16.2,11.4c0.7,0.9,0.7,2.3,1.4,3.4c-0.3-7-4.3-14.1-11.1-17.3l-7.2-2.1
	c-1.5-5.4-4.3-10.3-7.8-15l68.2,0.1l0.1,107.2c-4.4-1.8-9.6-2.8-14.4-2.2c-3.2-6.5-8.8-13.6-16.1-14.9c5.5,4,10.6,9.8,12,16.4
	l-3.8,2.8c3.1-0.7,6.3-2.5,10.2-2.1c4.6,0.1,8.7,1.9,12.1,4.8v115.2h-37.7l0-9.9h-23.4l0-8.5H922l0-9.1h-4.1v-1.3
	c-10.3-0.2-22.6-4.2-26.3-14.8c-2.9-7.9-2.3-17.1-2.6-26c-0.5-0.9-0.4-2.9-1.5-3.1c-0.1,13.3-1.5,26-5.4,37.7c1,0.4,2.3-0.6,3.6-0.8
	c7.7-1.2,12.9,4.6,19.6,6.7c-6.9,1.2-10.4-5.4-17.5-3.8c-3.8,0.1-7.2,2.2-9.2,5.5h-4.3c8.9-13.2,8.5-33.3,4.7-48.8
	c5.1-9.8,2-22-2.5-31.1c-0.2-1.7,0.2-3.2,1.1-4.3c1.2-1.6,3.5-1.8,5-0.9c4.2,3.8,3.6,9.9,4.2,15.4c5.2-8.9,2.6-21.3-2-29.8
	c-4.6-5.7-10.5-11.3-8-19.4c1.1-2.7,2.5-5.8,5.7-6.6c6.1,0.8,12,5.7,14.2,11.6c1.5-2.1,5.1-2.2,5.3-5.4c1.2-4.1-2.2-6.9-3.8-10.2
	c1.9,0.8,2.9,3.5,4.6,3.8c-0.2-2.8,0.4-6.1-0.7-8.8c-4-1.1-8.3-2-12.6-2.4c2.8-1.7,7.1-1.7,11.1-1.4l0.3-0.3c-2-3.5-4.1-6.9-7.2-10
	c-8,4.3-16.1,9.1-23.1,15.6c-4.2-6.3-3.9-15.2-4-22.5c2.8,5.4,5.2,11.2,7.4,17l0.3-0.2c-2.4-8.8,5.5-13.3,6.6-20.6
	c-0.1-0.2,0.1-0.6-0.2-0.8l-6.9,9.3v3.5l-7.4-10.6c0.4-1.4,2.2-1.3,3.2-1.9l3.8,2.4c0.3-1.1-0.4-2.3-0.6-3.6
	c2.5-0.6,2.9-2.8,2.6-5.2c-0.7-1.1-2.8-0.1-2.2-2.1c0.7-1.2,2.8,0,2.9-1.7c-0.3-1.4-4.2-0.3-2.2-2.4c-0.6-2,1.4-4.9-1.7-5.7
	c-0.7-0.2-1.5-0.6-1.8-1.2c-0.1-1.7,1.1-3.4,2.7-3.5c2-0.3,4.1,0.3,4.8,2.3l0.8,1.7l0.1,7.6c-0.2,0.8-1.8,1.4-1.2,2.3
	c0.9,0.7,2.8,0.3,4-0.4c3.1-3.5,1.2-9-0.4-12.5c0.8-2.5-1.2-4.7-3.3-6c-2-0.5-4.8-0.7-6.7,0.1c-1.4-0.9-3.6-0.5-5.2-0.3
	c-1,0.5-2,1.5-2.1,2.7c1.1,2.8-3.2,3.3-2.2,6.2c-0.4,3.2-1.5,7.5,1.7,9.9c0.5,0.9,2.3,1.3,1.7,2.4c-1.2,1.3-1.6,3.4-0.5,4.7
	c0.3,0.4,0.4,0.7,0.3,1l-1.2,1.1c-4.8-2.1-7-7.3-10-11.1c-0.6-0.5-1.2,0-1.7,0.5l0.3,2.3c3.6,3.3,7.3,6.7,9.4,10.9
	c-0.2,1.4-0.5,2.8-0.8,4.3c-3.7-4.8-6.9-11.1-10.8-16.6c1.8-8.1-3.8-16.3,1.1-23.5c-0.2-1.6,0-3.1,1.5-4l-0.2,8.7h-0.5
	c-0.5-1.4,0-3.1-0.5-4.5c-1.1,1.9-1.5,4.4-1.9,6.8c2-0.1,0,2.6,1.8,2.7c0.8,0.1,2.5,0.1,1.8-1.4v-0.5c1.2,0.4,1.6-0.6,1.4-1.5
	c0-0.6,0-1.2-0.5-1.6V23.7l2.8-0.7c0.1-0.8-1.2-0.6-0.9-1.4c5.1-4.1,12-5.4,18.9-6.4C875.9,15.1,876.8,15.1,877.6,15.1z M844.5,30.3
	c-0.6,1.7-1.2,3.6-0.9,5.5c1-0.7,1-2.1,1.7-3.1c0,3.2-1,7.1,0.9,9.9c0.5,7.3-0.6,14.4-0.5,21.8c3.4,7.2,8,13.7,13.1,20.2l0.2,16.3
	c1,1.7,2.7,3.1,4.1,4.6c-2.7,1.7-3.6,4.7-4.1,7.8l-5.7,9c0,4.4-0.5,9.1,2,12.5c1.9,3.1-2.7,4.5-0.9,7.5c1.6,2.3,2.5,5.1,2.2,8.1
	c-3.8,18.8-2.3,39.7-1.2,59.3c-0.5,3.5,3,6.7,0.9,9.8c-5.1,8.7-14.2,15.7-25,14.7v9.1h-12v8.5h-19.4V262h-36.5V146.2
	c4.2-3.2,9-5.1,14.6-4.1l5.7,1.9c-0.3-1.4-2.1-1.9-3.3-2.8c1.6-6.5,6.1-12.6,12-16.3c-7.4,0.7-13.1,8.6-16.1,15
	c-4.6-1.1-9.1,0.1-12.9,1.9v-107H829c-3.9,4.5-6.2,9.6-7.8,15c-6.3,1.4-13.1,5.8-15.9,12.1c-0.9,2.5-2,5.7-1.2,8.2
	c1.4-5.8,4.6-11.6,10.5-14.2l5.8-1.9l0.1,3.1c1.9-2.5,1.6-6.4,3.3-9.2C826.9,39.1,835.8,32.3,844.5,30.3z M852.4,32.3
	c0.1,0,0.3,0,0.4,0v2.7h-0.5C852.7,33.9,850.7,32.3,852.4,32.3L852.4,32.3z M850.3,32.6C850.3,32.6,850.4,32.6,850.3,32.6l-0.3,0.1
	c-0.4,0.4-0.5,1.4-0.4,2.2c-0.8-0.5,0-1.5,0.2-2.1l0.2-0.1C850.1,32.6,850.2,32.6,850.3,32.6z M876.4,56.5c-0.4,0-0.8,0.2-1.1,0.5
	c-0.2,1.1,1.2,0.7,1.8,1.1c0.5-0.1,0.7-0.7,0.8-1.1C877.3,56.6,876.8,56.4,876.4,56.5z M869.8,59.3c1.2,0,2.2,1,1.6,2.5
	c0.1,0.7-0.1,1.2-0.5,1.8c-0.9-0.9-3-2-2.3-3.8C869,59.5,869.4,59.4,869.8,59.3z M885.5,72.8c-0.1,0-0.1,0-0.2,0
	c0.3,2,1.2,4.6,1.9,6.5c0.2-1.1,0.3-2.1,0.5-3.3C888.7,74.1,887.3,72.8,885.5,72.8L885.5,72.8z M950.6,76.6
	c6.9,3.6,11,10.6,12.1,17.9c1.9,10.9-2,21.2-9.8,27.9c3.8-2.4,7.8-5.6,10.2-9.5c4.6-7,5.1-18.1,1.2-25.6
	C961.8,82.1,956.2,77.6,950.6,76.6z M802,77.9c-2.4,0.2-4.3,1.7-6.4,2.8c-6.1,5.1-8.5,12-8.8,19.4c0,9.6,5.2,18.5,14,23
	c-4.6-4.1-7.7-8.9-9.2-14.3C789.4,97.6,791.4,84.7,802,77.9z M883.4,78.6c-1.5,4.3-1.8,9.1-2.6,13.6l3.6-2.4
	C884.4,86.1,883.8,82.2,883.4,78.6z M892.3,79.5c-0.9,2-1.8,4.3-2,6.9C893.2,85.3,891.7,81.7,892.3,79.5z M863.8,88.4l1.6,11.8
	C860.2,97.5,864.3,92.4,863.8,88.4z M879.7,101.9c1.7,0,3.4,0.7,4.4,2.1c-3.6,0.8-7.4,1.8-9.5,5.3c-1.9,0.4-3.8-1.8-5.1,0.6
	c-0.6,0-0.3-0.6-0.3-0.9l0.9-1.1l-0.2-0.2l-3.4,2.5c0.3-2.2,2.3-4.2,4-6.1c1.1-1.6,2.9-0.9,4.4-0.5
	C876.2,102.4,878,101.9,879.7,101.9z M864.8,114.4l-7.2,10.9l-0.5-2.5C859.2,119.6,862.4,117,864.8,114.4z M890.4,122.7
	c4.6,6.5,4.6,15.1,4.4,23.4c-0.9-0.8-1.5-1.8-2.7-1.4c1.3,3.9,1.4,8.3,2,12.6c0.5,3.4-2.2,8.5,1.6,10.8c2.1,6.8-1.6,12.9-0.7,19.8
	c2.2,7,1.8,15.1,2.4,22.8c0.7,5.6,1.8,12.2,7.6,14.6c-1.8-5.4-2.1-11.4-2.7-17.3c1.2-13.1-2.1-25.6-1.6-38.7c0-5.4,2-11.1-0.9-15.7
	c0.5-8.8-0.3-17.9-3.6-25.6L890.4,122.7z M862.6,126.7c-0.6,4.7-1.5,9.3-2.5,13.8c-1-0.3-1.3-1.6-1.9-2.4L862.6,126.7z M864.3,144.4
	c0.2,21.1,4.3,45.4-2.1,65c-2.8-19-2.4-40.5,0.4-59.3L864.3,144.4z M884.7,235h25.7c-2.4,2.1-2.1,6-5.5,7.8h-5.1
	c-2.5,3.1-3.6,7.2-7.1,9.3c-1.9-0.4-3.5-2.2-4.3-4c-0.1-1.5-0.5-2.9-0.3-4.5c1.4-0.8,4.9,1.2,4.7-1.7l-8.3-6.4L884.7,235z
	 M870.4,235l2.4,0.2c-3.4,2.5-3.9,10-10,7.8C864.7,240,867.8,237.4,870.4,235z"/>
</svg>
