<?xml version="1.0" encoding="utf-8"?>
<!-- Generator: Adobe Illustrator 27.0.1, SVG Export Plug-In . SVG Version: 6.00 Build 0)  -->
<svg version="1.1" id="Слой_1" xmlns="http://www.w3.org/2000/svg" xmlns:xlink="http://www.w3.org/1999/xlink" x="0px" y="0px"
	 viewBox="0 0 562 231.4" style="enable-background:new 0 0 562 231.4;" xml:space="preserve">
<style type="text/css">
	.st0{fill:#FFFFFF;}
</style>
<g>
	<path class="st0" d="M491.4,17.3c-1.9,0-3.8,0-5.7,0.1c-2.4,0.1-4.3,0.4-5.6,0.9c-3.5,1.3-5.7,3.9-6.8,7.8
		c-1.6,5.7-0.1,10.3,4.4,14c2.3,1.9,5,2.9,8.1,2.9c2.1,0,4.1,0,5.9-0.1c0.5,0,0.8-0.4,0.8-0.9V18.5
		C492.6,17.9,492.1,17.3,491.4,17.3z"/>
	<path class="st0" d="M94.5,54.8c-3.7-9.7-7.3-19.5-10.9-29.2c-0.8-2.1-1.6-2.1-2.4,0c-4.4,11.3-8.8,23-13.2,35.1
		c0,0-0.2,0.5-0.6,1.3c-0.8,1.8-0.2,2.7,1.8,2.6c1.3,0,1.9-0.1,2-0.1c7.6,0.2,15.8,0.2,24.5,0.1c0.8,0,1.4-0.8,1.3-1.6
		C96.5,60.5,95.6,57.8,94.5,54.8z"/>
	<path class="st0" d="M362.9,83h151.5c0.3,0,0.7-0.1,0.9-0.3c1-0.7,2.3-1.8,3.9-3.4c12.2-12.1,24.5-24.4,36.8-36.9
		c1.1-1.1,1.1-2.1,0-3.2l-12.9-12.8L516.7,1c-0.5-0.4-1.1-0.7-1.7-0.7C450.7,0,386.3,0,321.7,0.1c-1,0-2.7,0.1-5.2,0.2
		c-1.7,0.1-3.5,0.1-5.2,0c-4.9-0.2-7.4-0.2-7.5-0.2c-66.5-0.1-124.3,0-173.3,0.3c-0.4,0-0.7-0.1-0.8-0.2C101,0.3,72.2,0.4,43.4,0.3
		c-1.2,0-2.1,0.2-2.9,0.7c-0.9,0.5-1.7,1.2-2.4,2C26.6,13.8,15.2,24.8,3.9,35.8c-1.5,1.5-2.7,2.9-3.6,4.4C-0.1,40.8,0,41.5,0.5,42
		c11.8,12.1,23.7,24.1,35.8,36c2.2,2.2,3.9,3.7,5.1,4.7c0.3,0.2,0.6,0.3,0.9,0.3h54.9h106.2c8.6,0.2,17.2,0.2,25.8,0.2
		c30.4-0.1,60.8-0.1,91.2,0C334.5,83.3,348.7,83.2,362.9,83z M282.1,15.5c0,0.4-0.9,0.9-2.6,1.4c-0.5,0.2-0.9,0.5-1,1
		c-0.5,1.5-0.8,3.2-0.7,5.1c0,5.1,0.1,9.8,0.2,14.4c0,1.2,0.5,1.4,1.4,0.6c6.8-6.4,13.4-12.9,19.6-19.4c0.6-0.6,0.7-1.2,0.3-1.8
		c-0.2-0.3-0.3-0.6-0.3-0.8c0.1-0.6,0.5-0.8,1.2-0.8c0.8,0,1.3,0.1,1.3,0.1c2.6-0.2,5.1,0,7.6,0.5c-0.3,0.3-1,0.6-2,0.8
		c-2.6,0.4-5,1.8-7,4c-1.4,1.5-2.1,2.2-2.2,2.3c-5,4.9-9.7,9.8-14.1,14.8c-0.7,0.8-0.6,1.9,0.1,2.6c5.3,5.2,10.6,10.4,15.8,15.5
		c3.9,3.9,6.1,6,6.8,6.5c2.5,1.9,5.4,3.3,8.6,4.1c0.4,0.1,0.6,0.3,0.5,0.5c0,0.2-0.3,0.4-0.7,0.4c-6,0.5-11.2-1.3-15.6-5.5
		c-7-6.8-13.8-13.7-20.5-20.9c-0.2-0.2-0.5-0.2-0.7,0c-0.4,0.5-0.5,1.1-0.2,1.9l-0.2,9.8c0,2.8-0.1,5.7-0.2,8.5
		c-0.1,2.5,1,4.2,3.2,5.1c0.4,0.2,0.6,0.4,0.7,0.6s-0.1,0.5-0.5,0.5c-6.1,0.2-9.9,0.2-11.1,0c-0.5-0.1-0.7-0.2-0.6-0.5
		c0.1-0.2,0.4-0.4,0.8-0.5c2.2-0.7,3.2-2.4,3-5.1c-0.3-4.1-0.1-17.6,0.5-40.5c0.1-2.3-1.1-3.8-3.4-4.5c-0.3-0.1-0.4-0.2-0.5-0.3
		c-0.2-0.2-0.1-0.4,0.2-0.7h11.8C281.8,15.1,282.1,15.2,282.1,15.5z M342,15.6c0.2,0.3,0,0.5-0.4,0.7c-1.4,0-2.4,0.4-3.1,1.3
		c-0.4,0.6-0.6,1.6-0.6,3c-0.1,14.6,0,29,0.4,43.4c0,0.4,0.4,0.8,0.8,0.8c7.5,0.6,14.9,0.8,22.4,0.3c0,0,0.9,0,2.8-0.1
		c1.6,0,3.1-0.3,4.4-0.7c0.6-0.2,0.9-0.7,0.9-1.3c0-14.1-0.2-28.2-0.5-42.3c0-1.2-0.2-2.2-0.6-2.8c-0.5-0.8-1.3-1.5-2.4-1.8
		c-0.3-0.1-0.4-0.4-0.3-0.6c0.2-0.3,0.6-0.5,1.3-0.5c1,0.1,3.8,0,8.2,0c1.2-0.3,2.2-0.1,3,0.8l-3.5,1.7c-0.3,0.1-0.4,0.4-0.5,0.8
		c-0.3,10.2-0.4,20.4-0.1,30.5c0,1.3,0,3.6-0.2,6.9c-0.1,2.6,0,4.9,0.3,6.9c0.2,1.6,1.2,2.5,2.9,2.4c4.3,0,5.5,1.5,3.8,4.7
		c-0.6,1-0.9,1-1-0.2c-0.1-0.7-0.3-1.2-0.8-1.6c-0.3-0.3-0.8-0.5-1.5-0.5c-15.8-0.3-31.6-0.4-47.4-0.2c-0.6,0-1.1-0.2-1.5-0.5
		l2.5-1.3c1.2-0.7,1.8-1.5,1.8-2.5c0-14.2,0-28.3,0-42.2c0-2.5-1.1-4.1-3.4-4.8c-0.2,0-0.3-0.2-0.3-0.3v-0.2c4-0.7,8.1-0.8,12.2-0.2
		C341.8,15.4,341.9,15.5,342,15.6z M255.1,19.7c-0.5-0.1-0.8-0.5-0.9-1.2c-0.4-0.9-1.4-1.4-3-1.5c-4-0.1-8,0-12,0.2
		c-0.4,0-0.7,0.4-0.7,0.8l0.1,19.7c0,0.5,0.4,1,1,1l11.8,0.3c0.8,0,1.7-0.4,2.3-1c1.5-1.5,2.1-1.4,1.9,0.2c-0.2,1.8-0.2,3.7,0,5.6
		c0.1,0.8-0.1,1.1-0.5,0.9c-0.2-0.1-0.5-0.3-0.6-0.7c-0.4-0.8-0.9-1.5-1.6-2c-0.6-0.5-1.3-0.7-2.3-0.8c-3.7-0.2-7.5-0.2-11.2,0.1
		c-0.3,0-0.5,0.2-0.5,0.5c-0.5,8.3-0.5,15.6,0,21.7c0.1,1,0.7,1.3,1.8,1c4,0.5,8,0.5,12,0c1.4,0.4,2.4,0,3-1.1
		c0.5-0.9,1-1.6,1.5-2.2c0.7-0.8,1.1-0.7,1,0.4l-0.2,4.1c0,0.8-0.7,1.3-1.6,1.3c-8-0.2-15.9-0.2-23.7,0c-3.2,0.1-3.1-0.7,0.3-2.4
		c0.8-0.4,1.3-1.2,1.2-2c-0.3-14-0.4-27.7-0.3-41.1c0,0,0-0.5,0.1-1.3c0.2-2-0.9-3.1-3.3-3.4c-1.3-0.2-1.6-0.5-1-1.1
		c0.2-0.2,0.6-0.3,0.9-0.3l16-0.3l8.4,0.3c0.3,0,0.6,0.2,0.6,0.5l0.2,3.4C255.6,19.5,255.3,19.8,255.1,19.7z M443.4,66.9
		c-0.2,0.1-0.4,0.2-0.6,0.2c-4,0.4-8,0.4-11.9,0c3-1.4,4.4-3.8,4.2-7c-0.1-1.6-0.2-2.5-0.2-2.5c0-10.3,0.1-20.7,0.3-31.4
		c0-1-0.3-1.1-1-0.4c-11.7,13.4-23,27-33.9,40.8c-0.8,1-1.3,0.9-1.7-0.3c-0.3-1-0.4-2.5-0.4-4.5c0.2-14.3,0.2-28.7,0-43
		c0-1.2-0.8-1.9-2.4-2.3c-0.7-0.2-1-0.5-1.1-1.2l12.2-0.2c0.7,0.3-0.2,1-2.8,2.2c-0.6,0.2-0.9,0.8-0.9,1.4l-0.5,36.7
		c0,1.7,0.6,2,1.9,0.9c1.1-0.9,2.4-2.3,3.8-4.1c8.2-10.5,16.5-20.9,25-31.2c0,0,0.5-0.7,1.5-2.1s2.3-2.4,3.9-3.1
		c0.1,0.1,0.2,0.2,0.3,0.4c0.1,0.1,0.1,0.3,0.1,0.5c0,14.5,0.1,29.1,0.3,43.6c0,0,0,0.6-0.1,1.6c-0.1,2.3,1.1,3.7,3.6,4.2
		C443.6,66.2,443.8,66.5,443.4,66.9z M500.8,67.2c-0.1,0.1-0.2,0.2-0.5,0.2c-3.6,0.2-7.1,0.1-10.7-0.3c-0.3,0-0.5-0.3-0.4-0.5
		c0.1-0.5,0.5-0.8,1.2-0.9c1-0.1,1.5-0.5,1.7-1.3l0.5-18.2c0-1.2-0.6-1.8-1.9-1.8l-5.5-0.1c-0.4,0-0.7,0.1-0.9,0.2
		c-1.2,0.8-2.3,2-3.3,3.5c-3.2,4.6-6,8.8-8.3,12.5c-1.9,3-3.6,5-5.1,5.8c-2.7,1.5-5.7,1.6-9.1,0.4c-0.4-0.1-0.5-0.3-0.5-0.6
		c0-0.2,0.3-0.4,0.8-0.5c2.2-0.3,4.1-1,5.8-2.1c1.2-0.8,2.4-2.3,3.8-4.6c3-4.9,6.2-9.5,9.5-13.9c0.8-1,0.6-1.9-0.5-2.5
		c-2.8-1.7-5-3.9-6.7-6.5s-2.4-5.5-2-8.6c0.5-4.8,2.8-8.2,7-10.1c2.3-1,6.1-1.6,11.4-1.6c3.9,0,7.7,0,11.6,0c1,0,1.6,0.2,1.8,0.7
		c-0.2,0-0.4,0-0.5,0.2c-1.7,0.3-2.5,1.2-2.4,2.8c0.1,0.9,0.1,1.4,0.1,1.5c-0.1,13.9,0,27.8,0.2,41.7c0,1.1,0.3,1.9,0.7,2.5
		c0.6,0.7,1.3,1.3,2.3,1.6C500.9,66.8,500.9,67,500.8,67.2z M112.1,68.9c-0.1,0.3-0.3,0.6-0.6,0.6c-0.7,0.1-1.2-0.2-1.6-1
		c-0.6-1.2-1.5-1.7-2.8-1.6c-0.9,0.1-1.4,0.1-1.5,0.1c-15.6-0.1-31.2,0-46.8,0.2c-0.3,0-0.7,0.1-0.9,0.3c-0.7,0.6-1.1,1.3-1.4,2.2
		c-1.2,0.7-1.8,0.4-1.7-1c-0.5-3.2,0.9-4.7,4.3-4.3c1.4,0.2,2.6-0.3,3.5-1.5c0.5-0.6,1-1.8,1.7-3.5c5.5-14.6,11.1-29.2,17-43.7
		c1.3-1.4,2.4-1.1,3.1,0.8c6,15.7,12.5,30.7,19.2,45.1c0.9,1.9,2.5,2.9,4.6,2.8C111.5,64.4,112.8,65.9,112.1,68.9z M171.9,67.3
		c-3.8,0.3-7.6,0.2-11.3-0.3l3.4-2.7c0.2-0.2,0.4-0.5,0.4-0.8l0.5-35.9c0-2.3-0.7-2.6-2.2-0.8l-33.5,40.5c-0.4,0.5-0.7,0.4-0.8-0.2
		c-0.3-2.3-0.4-4.5-0.4-6.5c0.3-14,0.1-28-0.4-42c0-1-0.9-1.8-2.5-2.2c-0.9-0.3-1-0.7-0.2-1.2c3.3,0,6.7-0.1,10-0.1
		c3,0,3.2,0.5,0.7,1.6c-0.9,0.1-1.7,0.5-2.4,1.1c-0.2,0.2-0.4,0.5-0.4,0.9L132.2,55c0,1.9,0.7,2.3,2.3,1.2c0.7-0.5,1.5-1.3,2.2-2.3
		c1.1-1.6,1.7-2.4,1.9-2.6c3.9-4.9,11.9-14.8,24.1-29.7c2-2.5,3.8-4.4,5.2-5.7c0.7-0.2,1.1,0,1,0.7c-0.2,2.8-0.3,4.9-0.3,6.2
		c0.3,13.6,0.5,27.3,0.6,40.9c0,0.4,0.1,0.7,0.3,0.9c0.7,0.7,1.6,1.2,2.6,1.4c0.4,0.1,0.7,0.2,0.8,0.4
		C173.4,66.9,173.1,67.2,171.9,67.3z M187.6,66.6l2.6-1.8c0.2-0.2,0.4-0.5,0.4-0.8c0.7-15.2,0.8-30.5,0.3-45.7
		c0-0.3-0.2-0.7-0.4-0.9c-0.4-0.4-1-0.7-1.5-0.9c-0.2-0.1-0.4-0.2-0.5-0.3c-0.1-0.1-0.1-0.3,0-0.4c0.1-0.2,0.3-0.3,0.6-0.3
		c3.1-0.1,8.1-0.2,14.8-0.3c3.3,0,6.2,0.7,8.8,2.3c2.5,1.5,4.2,3.8,5.1,6.8c1.8,6.1-0.3,11.3-6.1,15.5c-3.7,2.7-7.8,3.4-12.2,2.1
		c-0.8-0.2-0.7-0.4,0.2-0.5l3.5-0.2c6.2-0.5,9.7-3.8,10.5-9.8c0.7-5.3-0.8-9.3-4.6-12.1c-1.6-1.2-3.6-2-5.8-2.3
		c-2.1-0.3-4.2-0.3-6.4,0.1c-0.5,0.1-1,0.5-1,1.1c-0.3,5.3-0.3,10.6-0.2,16c0.2,5.4,0.2,10.3,0.2,14.7c0,4.8,0.2,9.7,0.5,14.7
		c0,0.7,0.4,1.2,1,1.5c1.6,0.7,2.2,1.3,1.8,1.7c-0.2,0.2-0.7,0.3-1.5,0.3c-2.6,0-5.3,0.1-7.9,0.3C188.9,67.6,188.2,67.3,187.6,66.6z
		"/>
	<path class="st0" d="M562,168.8c-0.2-7.2-1.1-13.7-2.6-19.5c-2-7.4-5.8-14.2-11.5-20.3c-10.1-10.9-22.5-17.3-37.3-19.3
		c-20.9-2.8-38.2,2.6-51.7,16.3c-4.8,4.8-8.7,10.2-11.7,16.1c-4.1,8-6.3,16.5-6.9,25.6c-0.7,13.1,2.2,25.3,8.9,36.7
		c4.6,7.9,10.6,14,17.9,18.3c9.2,5.4,19.4,8.2,30.7,8.5c12.3,0.8,23.6-2,34-8.2c13-7.8,22-18.9,26.9-33.3
		C561.1,183,562.2,176,562,168.8z M527.6,217.5c-10.1,6.7-21.2,8.9-33.2,6.5c-12.1-2.8-21.8-9.2-29-19.3
		c-7.2-11-10.9-23.1-11.3-36.3c0.1-0.6,0.1-1.2,0-1.9c0.2-7.4,1.4-14.5,3.8-21.3c2.4-6.9,5.8-12.6,10.1-17.1
		c7.8-8.2,17.8-12.4,30.1-12.6c12.3-0.2,23.3,3.7,33,11.8c8.5,8.9,13.5,19.6,15,32c1.7,10.3,1.5,20.5-0.5,30.8
		C542.9,201.3,536.8,210.5,527.6,217.5z"/>
	<path class="st0" d="M251.1,227.5c-2.3-0.9-4.7-1.7-7.1-2.5c-2.4-0.8-3.6-2.3-3.7-4.4c-0.7-18.1-0.9-41.6-0.8-70.5l-0.2-36.8
		l-0.3-3.5c-0.1-1.5-0.8-1.7-2-0.7c-1.6,1.3-3,2.7-4.2,4.2c-5,6.2-10,12.5-15.1,18.7c-18.4,22.1-36.7,44.3-54.9,66.5
		c-1,1.2-2.1,2.3-3.3,3.2c-0.4,0.3-0.7,0.2-0.8-0.3c-0.5-4-0.7-7.9-0.7-12c0-21.4,0.2-42.8,0.7-64.2c0-1,0.1-2,0.2-3.1
		c0.1-1,0.2-2.1,0.3-3.1c0.2-1.7,1.1-2.8,2.7-3.3c2.4-0.8,4.8-1.6,7.2-2.6c0.7-0.3,1-0.8,0.7-1.4c-0.1-0.3-0.4-0.5-0.7-0.6
		c-1.9-0.6-3.9-0.8-6-0.7c-7.3,0.4-14.5,0.4-21.8,0c-0.7,0-3,0.1-6.8,0.4c-0.6,0-1.1,0.2-1.3,0.5c-0.6,0.5-0.5,1.1,0.4,1.8
		c0.8,0.6,2.8,1.2,5.9,2c2.3,0.5,3.6,1.8,3.8,3.9c0.4,4.7,0.7,10.6,0.7,17.9c0.1,9.7,0.1,14.6,0.1,14.7c0.4,22.7,0.6,45.4,0.7,68.2
		c0,4.4,0.2,7.1,0.4,8c0.8,3.1,2.4,3.5,4.7,1.2c3.3-3.4,8.5-9.7,15.6-18.9c5.5-7.2,23.5-29.6,54-67c1.5-1.8,3-3.6,4.7-5.3
		c0.8-0.9,1.2-0.7,1.2,0.5c0.1,25.1,0,50.3-0.1,75.6c0,2.7-0.1,5.3-0.4,8c-0.1,0.9-0.6,1.8-1.5,2.2c-2.7,1.5-5.5,2.8-8.5,3.9
		c-0.4,0.2-0.7,0.3-0.9,0.6c-0.3,0.4-0.3,0.8,0,1.2c0.2,0.2,0.5,0.4,0.8,0.4c11.5,0.3,23,0.4,34.5,0.3c2,0,2.6-0.8,1.9-2.3
		C251.7,227.8,251.4,227.6,251.1,227.5z"/>
	<path class="st0" d="M403.9,110.8c-0.6-0.2-1.2-0.3-2.1-0.3c-10.6,0-21.1,0-31.7,0c-1.3,0-1.8,0.6-1.6,1.7c0.1,0.3,0.3,0.5,0.6,0.7
		c1.8,0.7,3.6,1.4,5.5,2c1.5,0.5,2.5,1,3,1.5c0.8,0.8,1.2,2,1.2,3.4c0.4,13.7,0.4,27.3,0,41c0,0.4-0.3,0.7-0.7,0.7l-64,0.2
		c-0.4-0.9-0.5-2-0.5-3.5c0.1-3.4,0-11.9,0-25.5l0.8-14.5c0.1-1.3,0.7-2.1,2-2.5c2.4-0.8,4.8-1.6,7.1-2.6c0.5-0.2,0.8-0.4,1.1-0.7
		c0.4-0.5,0.4-1,0-1.4c-0.2-0.2-0.5-0.3-0.9-0.3c-11.4-0.4-22.8-0.4-34.2,0c-0.4,0-0.7,0.2-0.9,0.4c-0.8,0.8-0.5,1.5,0.7,2
		c1.9,0.8,3.9,1.4,5.9,2c2.1,0.6,3.2,1.8,3.3,3.6c0.3,5.2,0.4,11.5,0.3,18.7c-0.2,9.7-0.3,15.9-0.3,18.7c0,21.9-0.2,43.8-0.5,65.7
		c0,1.5-0.7,2.7-2.1,3.4c-2,1.1-4.1,2.1-6.2,2.9c-0.5,0.2-0.9,0.4-1.1,0.6c-0.9,0.8-0.6,1.3,0.7,1.5c1.7,0.4,3.9,0.5,6.7,0.3
		c3.3-0.2,5.5-0.3,6.7-0.3c6.2,0,12.4,0.1,18.7,0.2c2.1,0,2.6-0.7,1.8-2.3c-0.2-0.3-0.4-0.5-0.7-0.6c-1.7-0.6-3.5-1.2-5.2-1.8
		c-2.5-0.8-3.8-2.2-3.8-4.3c-0.2-16.8-0.1-33.8,0.5-51.1c0-0.8,0.6-1.4,1.4-1.4c5.3-0.3,10.7-0.4,16.1-0.4c8.7,0.1,14,0.1,16,0
		c9.8-0.1,19.9-0.2,30.3-0.1c0.9,0,1.6,0.7,1.6,1.6l0.3,26.2l-0.2,23.8c0.3,2.7-0.8,4.6-3.1,5.8l-5.6,2.2c-0.3,0.1-0.6,0.4-0.7,0.6
		c-0.5,1-0.1,1.5,1.3,1.6c2.6,0.2,6.4,0.1,11.2-0.2c6.8,0.1,13.6,0.1,20.4,0.1c0.6,0,1.1-0.1,1.4-0.3c0.6-0.4,0.7-1,0.4-1.6
		c-0.1-0.2-0.4-0.4-0.7-0.6l-7.6-3.2c-1.2-0.5-1.8-1.5-1.9-2.9c-0.3-14.4-0.3-28.9-0.2-43.3c0-2.3,0-6.4-0.1-12.5
		c-0.2-11.7-0.1-26.1,0.2-43.4c0-2.3,0.3-3.8,0.6-4.5c0.7-1.4,2.1-2.4,4.2-2.8c1.3-0.3,2.6-0.7,3.8-1.3
		C405.7,112.5,406.1,111.5,403.9,110.8z"/>
	<path class="st0" d="M114.2,227.1c-0.4-0.1-0.9-0.3-1.7-0.4c-6.3-0.9-11.9-3.2-16.8-6.9c-0.5-0.4-3-2.5-7.3-6.3
		c-2.7-2.3-5-4.5-7-6.6c-14-14.4-27.9-28.5-41.6-42.4c-0.5-0.5-0.5-1.4,0-1.9C53.1,149,66.1,136.1,79,123.8c2.4-2.3,4.3-3.9,5.8-4.9
		c2.2-1.5,4.5-2.6,6.9-3.3c2.8-0.9,5-1.6,6.7-2.4c0.4-0.2,0.6-0.4,0.8-0.6c0.3-0.5,0.2-0.8-0.2-1.1c-0.2-0.1-0.6-0.2-1.1-0.2
		c-9.2-0.3-18.4-0.4-27.7-0.4c-1.8,0-2.2,0.8-1.3,2.4c0.5,0.9,1.2,1.5,2.2,1.9c0.6,0.2,0.9,0.7,0.9,1.5c0,0.5-0.2,1-0.5,1.5
		c-1.8,2.4-3.8,4.8-5.9,7c-12.1,12.6-24.3,25-36.8,37.3c-0.7,0.7-1,0.5-1-0.4c-0.3-13.2-0.2-26.4,0.2-39.7c0.1-1.6,0.4-2.9,0.9-4
		c0.5-1,1.5-1.8,3.1-2.3c2.2-0.8,4.3-1.6,6.5-2.4c1.9-0.7,1.7-1.4-0.4-2c-1.2-0.3-2.3-0.5-3.6-0.5c-9.5,0-19,0.1-28.5,0.1
		c-0.8,0-1.5,0.1-2.1,0.2c-2.2,0.5-2.4,1.3-0.6,2.5c0.5,0.3,1.2,0.6,2,0.8c1.8,0.5,3.5,1,5.1,1.7c1.1,0.4,1.7,1.2,1.8,2.4
		c0.6,5.2,0.9,10.5,0.8,15.8c-0.1,5,0,14.5,0.3,28.5v44.2c0.1,6.4-0.1,10.9-0.5,13.5c-0.5,3.2-2.8,5.3-7,6.4c-1.1,0.3-2,0.7-2.9,1.4
		c-1.2,0.9-1.2,1.6-0.2,2c0.4,0.1,0.8,0.2,1.5,0.2c11.1,0,22.2,0,33.2,0c2.1,0,2.6-0.8,1.6-2.4c-0.2-0.3-0.4-0.4-0.8-0.5
		c-4.2-1.2-6.8-2.3-7.8-3.1c-1.4-1.2-2.2-2.8-2.3-4.7c-0.2-5-0.4-10-0.6-15c0-9.8,0.1-19.7,0-29.5c0-1.7,0.2-3.4,0.5-5
		c1,0.6,1.9,1.4,2.7,2.3c13.9,15.8,28.4,31.1,43.5,45.8c6.8,6.6,14.7,10.4,23.8,11.4c4.6,0.5,9.6,0.4,15-0.4c0.6-0.1,1-0.2,1.4-0.5
		C115.7,228.2,115.6,227.6,114.2,227.1z"/>
</g>
</svg>
