<?xml version="1.0" encoding="utf-8"?>
<!-- Generator: Adobe Illustrator 27.0.1, SVG Export Plug-In . SVG Version: 6.00 Build 0)  -->
<svg version="1.1" id="Layer_1" xmlns="http://www.w3.org/2000/svg" xmlns:xlink="http://www.w3.org/1999/xlink" x="0px" y="0px"
	 viewBox="0 0 1651.3 412.5" style="enable-background:new 0 0 1651.3 412.5;" xml:space="preserve">
<style type="text/css">
	.st0{fill:#FFFFFF;}
</style>
<g>
	<g>
		<path class="st0" d="M142,361.5l23-46.2h0.1l23.1,46.2l-6.5,1.3l-7.7-15.6h-18.2l-7.7,15.6L142,361.5z M171.4,341.2l-6.5-13
			l-6.4,13H171.4z"/>
		<polygon class="st0" points="199.4,362.5 199.4,315.3 199.5,315.3 228.6,347.1 228.6,317.4 235.1,316.4 235.1,362.8 235,362.8 
			205.9,331.1 205.9,361.7 		"/>
		<polygon class="st0" points="251.3,316.4 251.3,362.3 257.8,361.7 257.8,315.3 		"/>
		<polygon class="st0" points="270.6,361.7 279.8,315.3 279.9,315.3 295.6,349.9 311.1,315.3 311.2,315.3 320.5,361.7 314.2,362.5 
			308.7,333.8 308.6,333.8 295.7,362.3 295.5,362.3 282.3,333.8 282.2,333.8 276.8,362.5 		"/>
		<path class="st0" d="M328.1,361.5l23-46.2h0.1l23.1,46.2l-6.5,1.3l-7.7-15.6h-18.3l-7.7,15.6L328.1,361.5z M357.5,341.2l-6.5-13
			l-6.4,13H357.5z"/>
		<polygon class="st0" points="380.9,322.3 383,316.4 409.7,316.4 409.7,322.3 399.2,322.3 399.2,361.7 392.7,362.5 392.7,322.3 		
			"/>
		<polygon class="st0" points="422.6,316.4 422.6,362.3 429.1,361.7 429.1,315.3 		"/>
		<path class="st0" d="M466.9,315.3c13.1,0,23.8,10.4,23.8,23.7c0,13.4-10.7,23.8-23.8,23.8c-13.1,0-23.8-10.4-23.8-23.8
			C443.1,325.7,453.8,315.3,466.9,315.3 M466.9,356.8c9.5,0,17.3-8.3,17.3-17.8s-7.8-17.8-17.3-17.8s-17.3,8.3-17.3,17.8
			C449.5,348.5,457.3,356.8,466.9,356.8"/>
		<polygon class="st0" points="504.8,362.5 504.8,315.3 504.9,315.3 534,347.1 534,317.4 540.5,316.4 540.5,362.8 540.3,362.8 
			511.2,331.1 511.2,361.7 		"/>
		<path class="st0" d="M586,351.5c1.9,2.9,5,5.4,8.7,5.4c4.8,0,8.3-2.3,8.3-7.9c0-10.5-20.8-4.8-20.8-20.7c0-8,5.8-12.9,13.9-12.9
			c5,0,9.8,2.6,12.8,6.6l-4.4,4.4c-2.5-2.6-5-5-8.7-5c-4.2,0-7.1,2.6-7.1,6.9c0,9.3,20.8,5.1,20.8,20.8c0,8.1-6.2,13.8-14.1,13.8
			c-6.2,0-10-3-14.1-7.3L586,351.5z"/>
		<polygon class="st0" points="619.5,322.3 621.6,316.4 648.4,316.4 648.4,322.3 637.8,322.3 637.8,361.7 631.3,362.5 631.3,322.3 
					"/>
		<path class="st0" d="M693.4,315.3v28.9c0,14-4.5,18.6-15.9,18.6c-12.5,0-16.1-5.6-16.1-18.6v-27.8l6.5-1.1v32.3
			c0,5.8,3.4,9.2,9.1,9.2c5.6,0,10-2.5,10-9.2v-31.3L693.4,315.3z"/>
		<path class="st0" d="M709.8,316.4h11.3c13.7,0,22.9,11,22.9,22.7s-9.1,22.7-22.9,22.7h-11.3V316.4z M716.3,355.8h4.8
			c7.7,0,16.4-6.3,16.4-16.7c0-10.4-8.7-16.7-16.4-16.7h-4.8V355.8z"/>
		<polygon class="st0" points="758,362.3 758,316.4 764.4,315.3 764.4,361.7 		"/>
		<path class="st0" d="M802.2,315.3c13.1,0,23.8,10.4,23.8,23.7c0,13.4-10.7,23.8-23.8,23.8s-23.8-10.4-23.8-23.8
			C778.4,325.7,789.1,315.3,802.2,315.3 M802.2,356.8c9.5,0,17.3-8.3,17.3-17.8s-7.8-17.8-17.3-17.8s-17.3,8.3-17.3,17.8
			S792.7,356.8,802.2,356.8"/>
		<path class="st0" d="M842.9,351.5c1.9,2.9,5,5.4,8.7,5.4c4.8,0,8.3-2.3,8.3-7.9c0-10.5-20.8-4.8-20.8-20.7c0-8,5.8-12.9,13.9-12.9
			c5,0,9.8,2.6,12.8,6.6l-4.4,4.4c-2.4-2.6-5-5-8.7-5c-4.2,0-7.1,2.6-7.1,6.9c0,9.3,20.8,5.1,20.8,20.8c0,8.1-6.2,13.8-14.1,13.8
			c-6.2,0-10-3-14.1-7.3L842.9,351.5z"/>
		<path class="st0" d="M80.2,100.3C42.7,114.7,20,166.2,18.7,200.9c-1.1,28.5,4.6,61.4,31.9,62.4c10.5,0.4,18.3-4.7,22.8-12
			c-3-6.8-5.9-13.8-5.6-34.3c0.3-27.4,16.1-55.2,23.9-62.6c3.4-3.3,12-5.9,16-6.2s7.9,0.1,11.2,3.4c3.6,3.7,4.4,24.6-3.4,48.3
			c-4.7,14.4-10.1,30.6-26.5,49.4c2.8,8.2,9.4,32,35.7,32.6c29.5,0.7,64.3-52.6,58.7-113.2c-7.3-80.1-51.6-113.1-56-113.7
			c-1.8-0.2-2.9,1-4,1.3c-0.9,0.3-2.3-1-2.2-3.3c0.1-2.3,1.5-3.4,3.1-3.4c2,0,4.3,0.9,9.4,4c8.5,5.2,58.5,49.6,58.4,131.6
			c0,51.7-26.4,99.3-64.4,104c-24.3,3-41-15.1-49.4-29.6c-2.9,2.5-12.6,9.9-27.4,10.3c-30.6,0.9-50.2-26.8-48.9-69
			s32-97.1,77.7-105.1c4.6-0.8,6.3,0.7,6.4,1.6C86.1,98.6,82.1,99.6,80.2,100.3 M86.8,236.5c0.5,0.2,1.1-0.1,2.7-2.2
			c2.7-3.4,10.3-14.7,17.4-39.1s6.3-34.7,3.4-35.7s-10.4,4.2-19.1,34.5c-5.5,18.8-5.6,32.8-5.1,39.7C86.2,235,86.4,236.3,86.8,236.5
			"/>
		<path class="st0" d="M195,228.4c2.3,2,5.1,3.1,6.9,3.5c1.6,0.4,1.9,0.2,2.6-2.2c5.1-19.1,15.4-39.5,26.1-55.4c0,0,1.5-2.3,2.8-2.6
			c1.7-0.4,4.8,0.5,6.7,1.5c2,1,4.8,3,5.6,4.1s0.3,3.2,1,9.7c0.7,6.6,7,33,8,37c1,3.9,2.5,3,3.5,2.8c0.8-0.2,1.6-0.3,2.1,0.5
			c0.6,0.8,0.3,2.6-0.9,4.8c-1.6,2.7-2,5.3-1.9,7.7s2.9,24.5,3.5,27.1s-0.5,2.9-2.6,3s-7.9-0.3-9.8-1.4c-1.9-1-5.1-24.9-5.1-26.3
			c0-1.3-0.3-1.6-1.1-1.3s-6.8,1.2-10.8,1s-9-1.2-11.1-1.3c-2.6-0.2-3.7,2-4.9,5.9c-0.8,2.8-5.5,22.8-6,24.9s-0.7,2.7-2,3
			s-4.8-0.2-7.7-0.6c-2.9-0.5-2.5-2.3-2.5-4.7c0.1-3.2,3.8-28.1,4.1-29.6c0.2-1.2-1-1.4-2.4-2.2c-5.6-3.3-7.7-9.9-6.6-10.7
			C193.1,225.9,193.9,227.4,195,228.4 M220.1,227.2c-0.4,1.7-1.5,4.5,1.8,5.8c3.4,1.3,6.2,1.7,9.5,1.6c3.2-0.1,8-1.1,8.9-1.6
			s1.7-0.9,1.5-2.7s-5.2-26.2-5.8-28.7c-0.7-2.5-1.1-3-1.8-3.2s-1.4,0-2.7,2C229.5,203.3,222.1,218.2,220.1,227.2"/>
		<path class="st0" d="M287.7,181.8c1.1-2.5,2.8-3.9,4.8-3.9c2.6-0.1,5.6,1.1,6.9,2.6c1.3,1.4,1.7,3.1,0.2,7.6
			c-2.4,7.1-8.1,27.8-9.6,42.2c-1.3,12.9,0.3,27,9.2,26.4c10.9-0.7,21.3-11.8,24.6-15.7c1.8-2.1,3.1-4.3,4.2-3.8
			c0.6,0.3,0.6,1-0.7,3.3c-1.5,2.7-15.1,26-36.1,26.1c-17.8,0.2-18.2-21.6-18-31.2C273.6,219.3,281.3,193.5,287.7,181.8"/>
		<path class="st0" d="M353.4,262.4c0.1,6.9,1.2,14.7,0.6,17.3c-0.3,1.2-1.2,3.1-3.6,4c-2.3,1-6.8,0.4-8.8-4.7
			c-4.5-11.6-5.4-29.2-4.1-45.1c1.2-15.1,4.2-25.3,7.4-34.1c-16.2-1.9-23.4-12.5-24.6-15.2c-1-2.3-0.8-3.5-0.5-4.3
			c0.1-0.4,0.6-1.1,1.4-1.1c0.5,0,0.8,0.5,1.4,1.3c7.8,10.9,18.6,12.9,25,13.6c3.7-8,12.7-22.4,26.9-22.9
			c11.3-0.4,13.9,8.1,12.7,13.3c-2,8.8-12.2,16.7-27.6,17.8C357.7,208,353,225.3,353.4,262.4 M380.3,182.5c0.8-2.4,1.1-5.8-1.7-6
			c-4.9-0.5-11.8,6-16.8,17.9C374.8,192.8,379.4,185.1,380.3,182.5"/>
		<path class="st0" d="M460.3,260.8c-28.1-7-56.8-19.4-57.2-30.5c-0.4-8.7,19.9-20.9,55.7-23.1C458.4,224.7,459,243.6,460.3,260.8
			 M483.1,276.1c7.4,1.1,16.9,1.8,32.7,2.1c42.2,0.9,109.9-14.9,108.5-77.1C622.7,133,541.5,88,427.2,86.9
			c-33.4-0.3-51,3.1-53.1,11.9c-0.9,3.9,2.8,6.6,6.9,7.1c2.5,0.3,5-0.4,6.3-1.2c1.6-1,0.9-1.7,0.2-2.3c-1.2-1-2.5-3.2,1.5-5.2
			c2.6-1.3,11.8-4.7,35.8-4.6c107.3,0.7,183.8,46.5,183.1,109.9c-0.4,40.8-40.2,62.6-92.6,64.4c-8.7,0.3-23.1-1-34.4-2.6
			c-2.9-17.2-4.7-42.4-4.8-58.2c45-1.4,84.9,9.4,84.9,12.3c0.1,2.9-14.4,3.8-16.5,4.1s-2.8,2.4-0.7,4c2.1,1.5,5.3,2.5,9,2.7
			s28.9,1.2,27.8-8.8c-0.3-2.9-4.6-6.3-12.8-8.9c-11-3.6-38.5-12.1-91.8-11.9c-0.3-25.7,0.8-38.5,2.5-50.8c0.9-6.4,0.5-8.8-0.9-9.5
			s-5.3-0.2-8.6,7.2c-6,13.3-8.8,31.4-9.8,53.7c-32,1.8-67.1,13.1-66.9,29.5c0.2,17.5,35,34.4,69.4,43c0.8,6,1.6,9,4.1,12
			c2.8,3.2,6.4,4.7,10.7,4.7c4,0,7.1-1.4,7.8-4.3C484.9,282.3,483.7,278.7,483.1,276.1"/>
		<path class="st0" d="M648.6,160c0.6,0.7,1.4,1.1,0.7,1.7c-0.4,0.4-1.6,0.2-2.3,0c-1.1-0.5-5.8-2.8-7.4-11.2
			c-4.9-1.5-23.5-6.9-23.1-26.4c0.4-21.4,27.4-28.6,40.9-26.6c4.3-4.1,13.4-10.8,25.1-8.9c10.1,1.6,14.4,12,13.1,24.1
			c-2.6,23.6-26.5,41.4-49.6,38.9C646.1,156.4,647,158.1,648.6,160 M651.2,104c-0.1-0.4-0.5-0.6-2.3-0.3
			c-4.5,0.6-11.4,3.5-14.6,11.7c-3.7,9.6-0.4,18.5,2.1,21.9c1.8-17.6,11.6-29.2,14.3-32.1C651,104.8,651.4,104.4,651.2,104
			 M646,147.4c14.5,2.5,42.2-14.2,44.3-39.1c0.6-7.8-2-15-9.5-15.5c-7.1-0.5-12.5,5.4-14.7,7.8c0.8,0.5,2,1.3,4.1,1.6
			c1.2,0.1,1.3,0.7,1.4,1.2c0.1,0.5-0.4,1.1-1.9,2s-4.8,1.8-8.4,1.1C658.2,110.3,647.1,127,646,147.4"/>
		<path class="st0" d="M648.7,173.6c2.8,0.2,3.6,2.3,3.3,7.6c-0.3,6.6-0.5,21.5,0.3,35.6c0.9,17.1,2.5,28.4,3.1,31.8
			c0.6,3.4,1,10.3-4.5,10.9c-5.5,0.7-8-3-9.7-6.9c-1.8-4.3-4.7-14-4.1-34.3c0.7-23.2,4-34.2,6.2-40.1
			C645,174,646.9,173.4,648.7,173.6"/>
		<path class="st0" d="M743,188.1c0.1-1.2-1.5-2.4-4.7-3s-13-1.5-26.9,0.6c-13.8,2.1-44.8,8.9-44.5,22.7
			c0.2,9.6,22.8,11.6,34.2,13.6c17.4,3.1,27.5,5.9,27.4,15.5c-0.1,9.7-14.1,13.6-23.2,14.1c-8.1,0.5-18.2-2.2-18.1-6.6
			c0.1-4.4,6.2-5.7,11.1-5.9c4.1-0.2,6,0.1,7.4,0.3c1.7,0.3,1.5-0.8,1.2-1.4c-0.3-0.6-1.1-1.6-3-2.2c-1.6-0.5-4.4-0.7-7.9-0.7
			c-10.7,0.1-27.4,2.7-27.7,10.5c-0.2,5.6,9.5,13.3,36.7,12.5s40.7-12,40.2-23.8c-0.5-13.7-23.2-16.2-37.9-18.5s-25.2-2.9-24.5-9.5
			c0.6-5.2,13.3-9.6,25.9-12.6c11.4-2.6,25.8-3.6,28.9-4C740.8,189.4,742.7,189.5,743,188.1"/>
		<path class="st0" d="M765.5,262.7c-1.7,0.8-6.6-1.4-7.9-4.2c-1.2-2.7-2.3-8.6-1.8-25.5s6.9-47.4,13.9-47.1
			c7,0.2,17.7,17.6,25.9,31.7c11.8,20.2,17.6,25.4,20.1,25.2s4.2-13.5,4.1-23.2c-0.3-23.5-7.7-41.9-12.5-49
			c-2.5-3.7-6.1-7.6-7.6-8.8s-1.9-2.2-1-2.7s3.2-0.3,5.8,1.6c2.7,1.9,22.1,17,24.6,59.2c1.8,31.4-7.8,40.5-11.5,40.6
			s-13.8-9.8-22.6-25.7c-13-23.4-16-29.4-18.5-29.9c-1.8-0.3-2.6,1.5-3.3,4.3c-0.6,2.3-5,19.8-2.7,43.8c0.2,1.8,0,4.9-0.7,6.2
			C769.1,261.3,767.6,262.6,765.5,262.7"/>
		<path class="st0" d="M866.4,186.6c7.3-2.3,14.2-3.6,18.4-3.9c4.7-0.3,5.5,0.8,5.8,1.5c0.4,0.9-0.1,1.6,0.1,2.1
			c0.3,0.9,7.4,0.4,10.8,0s10.5-2.5,10.4-4.7c-0.1-3.3-8.7-5.5-21.4-5c-14,0.5-31.2,4.2-37.4,6c-3.7,1-8,2.4-7.1,6
			c0.8,3.6,5.4,2.2,7.5,1.7c-2.4,8.4-5.3,18.5-7.4,26.8c-2.3,0.8-5.1,2.4-5.2,5.2c0,2.8,1.8,3.1,2.6,3.3c-0.5,3.3-2.3,10.1-2.5,16.4
			c-0.3,6.9,1.1,13.8,6.3,18c4.8,3.8,10.6,4.6,17.2,3.6c8.5-1.3,23.5-7.4,30-14.4c2.2-2.4,2.2-3.2,1.8-4.1c-0.2-0.6-1.1-1-3.6,0.2
			c-3.6,1.7-15.7,7.2-24.1,8.7c-5.8,1-11.3,1.6-11.8-5.8c-0.6-8.1,2.4-20.8,3.7-26.6c7.2-1.5,18.3-4.3,25.4-6.1
			c6.5-1.6,14.9-4.1,15.2-6.3c0.2-2-11-1.5-16.5-0.9c-6.6,0.8-17.9,2.4-22.3,3.1C863.2,204.6,865.6,191.8,866.4,186.6"/>
		<path class="st0" d="M930.1,317.7c-1.5,14.5-1,25.3-0.9,30.7c0.1,5.4-3.9,6.3-7.8,6.1c-3.8-0.2-7.6-2.7-9.6-5.3
			c-2-2.6-3.8-5.1-6-8c-2.2-3-3.9-3.9-2.9-6.3s4.9-1.4,6.7-0.8c1.2,0.4,1.3-1.1,1.6-4c0.1-1.3,0.2-8.5,1.9-18
			c2.9-15.8,7.2-35.4,14.1-52.4c-9.3-2.3-17.8-12.1-17.6-27.7c0.2-24,15.4-42.4,18-46.3c2.9-4.4,6.8-8.9,9.3-10.2
			c6.2-3.5,10.8-1,13.2,0.2c2.4,1.3,0.9,3.8-1.3,6.8c-12.3,16.4-22.4,34.7-24.3,49.1c-1.9,14.4,2.4,17,6.4,19.2
			c5-11.1,10-20.3,20.7-34.1c11.8-15.2,36.9-39.4,46.2-34.2c9.2,5.2,2.8,29-13.8,49.2c-15.9,19.4-28.8,26-41.8,28.4
			C938,271.3,933.1,288,930.1,317.7 M945,252.7c5.7-0.4,18-4.4,34.4-23.4c12.3-14.1,19.4-34.7,14.7-37c-1.8-0.8-3.4-0.5-7.3,2.7
			C979.8,200.6,959.5,221.2,945,252.7"/>
	</g>
	<path class="st0" d="M1236.6,37.8c-0.5-1-2.8-2-4.1-2.5c-1.2-0.4-3.7,0.8-4.5,1.3s-2.9,2.2-4,3c-1.6,1.2-5.1,5.3-5.6,6.9
		c-0.5,1.6,1,4.2,1.6,5s3.1,2.1,3.9,1.9c1.4-0.4,4.4-2.1,6.3-3.1s5-4.3,6.8-7.1C1238.7,40.7,1237.2,38.8,1236.6,37.8z M1232.4,43.6
		c-0.2,0.6-3.1,2.8-3.5,3.3c-0.5,0.5-1.6,1.5-2.5,1.6s-2.4-0.5-2.5-1.1s-0.8-2,0.8-3.6c1.6-1.7,4.4-4.9,6.8-3
		C1232.3,41.4,1232.6,43,1232.4,43.6z"/>
	<path class="st0" d="M1648.3,401.2c0-0.6-2.2-1.3-3.5-1.3s-2.1,1.4-4.1,1.4c-2.1,0-5.4-0.8-6-1.7c-0.6-0.9-6.7-0.8-7-1.4
		s-7.3-0.5-9-0.5s-3.2,0.2-5.1-0.3s-3,1.4-3.5,2.4s-1.3,0.9-2.1,0.9c-0.8,0-2.8-0.1-3.6-0.9c-0.8-0.8-3-0.8-3.6-1.3s-4.1,0-4.9-0.6
		s-2.5-1.6-4.4-1.9s-3.6,2.8-4.4,3.2c-0.8,0.3-2.5,0.2-3,0.2s-3.5-0.2-3.5-0.6c0-0.5-2.7-1.4-4.6-1.4s-2.8,2.1-3.8,2.2
		c-1,0.2-3.6-0.2-4.4-0.2s-7.3-0.2-7.8-0.2s-1.6-1.4-3.5-1.6s-3.3,1.9-4.4,1.9s-5.1,0.3-5.7-0.2s-3.6-0.2-4.8-0.2
		c-1.1,0-4.7-0.5-5.2-1s-6.2,0.2-7.1-1.1c-0.4-0.5-6.5-0.5-7.9-0.5s-5.5,0.5-6.3-0.1s-4.1-0.5-5.5-0.2s-3.2-0.2-4.3-0.3
		c-1.1-0.2-4.3-1-5.4-1.1c-1.1-0.2-2.4,0-3.2,0.5c-0.8,0.5-3.6,0.3-4.4,0s-2.7-2.1-3.3-2.2c-1.6-0.4-3.2-0.4-4.7,0.5
		c-0.8,0.5-3.1,1.1-4,1.4c-1,0.3,0,0-2.1,0.5s-2.4,0-4.1,0s-6.3,0-8.9,0.3c-2.5,0.3-6.8-0.1-7.7-0.9c-1-0.8-1-0.9-0.6-1.9
		c0.3-0.9,3.2-5.2,4.4-6.5c1.3-1.3,3.8-7.9,4.4-9.2c0.6-1.3,2.2-4.9,3-6s2.1-6.2,2.4-7.7c0.3-1.6,1.1-2.9,1.4-4.3
		c0.9-4.2,1.3-6,1.3-7.4s0.3-5.4,0.3-6.8s0.3-4.4-0.3-5.7c-0.6-1.3-0.9-4.6-0.8-5.2s0.6-1.3,2.2-2.2c1.6-0.9,2.5-7.1,2.2-8.5
		s-0.5-3,0.6-3.3s5.2,0.1,7.1,0.1s8.1,1.4,9,1.7c0.9,0.3,2.4,0.5,4.1,0.8s5,0.9,6.3,1.3c1.3,0.3,2.4,0.9,3.9,1.1
		c1.2,0.1,7.8,2.1,9.2,2.2c1.4,0.2,10.3,2.4,11.7,2.7c1.7,0.4,3.4,0.9,3.9,1.1s3.7,0.7,5.3,1.3c1.8,0.6,2.9,1.2,4.5,1.6
		c2.5,0.6,0.8,0.2,5.2,1.3c1,0.3,3.3,0.9,3.6,1.1c0.6,0.3,2.8,1.3,3.9,1.7c1.1,0.5,3.7,1.4,4.8,1.7c1.6,0.4,3.4,1.3,4,1.5
		c1.2,0.4,4.1,2.5,5.7,3.2c1,0.5,3,1.6,5.7,3.8c2.9,2.3,6.8,7.3,9,10.3c2.2,2.9,4.4,8.7,2.4,12.7c-1.5,3-5,7.5-10.9,8.1
		c-1.9,0.2-9-0.3-10.1-0.6c-1.1-0.3-5.2-3.5-6.8-4.4c-1.6-0.9-4.4,0.5-4.4,2.5c0,2.1,4.7,4.9,5.5,5.5s2.7,1.3,3.3,1.3
		c0.6,0,3.9,0.5,6,0.6c2.1,0.2,5.6,0,6.3,0c0.6,0,3.9-0.4,4.5-0.6c4.1-1.3,4.9-2.1,8.5-6c2.7-2.9,4.7-7.1,4.6-10.8
		c-0.1-4.1-2.7-7.7-3.8-9.8c-1.1-2-4.6-5.8-5.2-6.5c-0.6-0.6-2.8-2.5-3.7-3.3c-1.4-1.3-3.5-2.7-4.9-4s-6.2-4.3-8.5-5.4
		c-0.9-0.4-3-1-3.6-1.3s-2.4-1-3.2-1.6c-0.8-0.6-6.5-2.5-8.4-3s-3.4-0.7-4.1-0.9c-0.9-0.3-2.2-0.5-3.2-0.8c-0.9-0.3-2.4-0.7-4-1.4
		c-1.5-0.6-5.7-1.9-7.1-2.4c-1.5-0.5-4.2-0.9-5.7-1.3c-1.9-0.5-6.8-1.4-7.4-1.6c-0.7-0.2-2.9-1-3.9-1.3c-1.7-0.5-7-1.5-8.7-2
		c-1.8-0.5-4.3-1.3-5.2-1.5c-0.6-0.2-2.8-0.8-4.6-1.2c-1.4-0.3-6.8-1.4-7.7-1.6c-0.9-0.2-3.8-0.8-5.4-1.2c-1.7-0.4-5.7-0.7-6.5-0.9
		c-0.8-0.2-2.2-0.6-3.5-1.3c-0.7-0.4-2.2-1.4-2.5-2s-0.9-1.6-1.8-2.8c-0.8-1.1-1.7-2.4-2.4-3.6c-0.7-1.2-3.4-4-4.1-5.2
		s-0.6-2.9-0.3-3.6c0.3-0.7,1.6-1,2.5-1.7c1-0.7,3-2.2,4-3.4c1.1-1.2,1.6-3.6,1.9-5.9s-3.7-9.7-4.7-11c-1.1-1.3-3-4.3-3.5-5.1
		c-0.5-0.7-0.5-2.9-0.4-3.7c0.1-0.7,2.6-2.4,3.7-3.2c1.1-0.7,5.3-4.7,6.3-5.2s2.8,0.3,4.2,0.6c1.4,0.3,3.5,2.4,4.7,2.7
		c1.3,0.3,4.7,1,5.5,1.3s3,0.3,4.5,0.4s2.1-0.8,3.2-1.2c1-0.3,6.1-4.4,6.9-5.5c0.7-1.1,1.3-4,1.4-5.7s-1.2-4-1.7-5
		c-0.5-0.9-3.7-3.8-4.4-4.3c-0.7-0.5-3.1-1.6-4.3-1.6c-1.2,0-3.6-0.5-3.7-0.5s-0.6-0.4-1.6-0.7s-2.8-0.8-6.2-1.8
		c-3.4-1-5.4-2.8-6.3-3.4c-0.9-0.6-2.3-3-2.7-4.3c-0.3-1.3-3.8-5-5.1-6.4c-1.3-1.4-7.1-5.6-8.1-6.1c-0.9-0.5-3.2-0.7-3.9-1.9
		c-0.7-1.2-3.7-4.5-4.5-5.4s-2.3-0.9-2.7-0.9c-0.4,0-1.7-0.2-1.9-0.8c-0.2-0.6-2.7-2-3.2-2.3s-0.4-1.6-0.4-2.5c0-0.8-6.2-6.8-8.4-9
		c-2.1-2.1-5.4-6.1-8.5-7.3c-0.8-0.3-2.3-0.1-3.4-1.2c-2.5-2.7-16-4.9-19.3-5.4s-3.9-1.9-4.2-2.7c-0.3-0.7-0.5-1.7,0.8-2.7
		c1.3-0.9,6.4-5,8.4-6.7c1.9-1.7,5.9-6,6.6-7.6c0.7-1.5,2.3-2.7,3.1-4.1c0.7-1.4,2.7-0.9,4.6,1.3c1.2,1.4,8.6,9.2,13.4,12.6
		c4.8,3.5,13.6,5,18,4.8s14.2-4.3,15.8-5.2c1.6-0.9,7.8-6.4,9.6-8.8c1.9-2.3,4.9-7.5,5.7-9.3c1.1-2.3,2.5-5.2,3-7.2s1.1-3.6,1.4-5.7
		c0.3-2,0.5-6,0.1-8.5c-0.2-1.7-1-4.3-1.2-5.3s-2-4.9-2.8-6.8s-3-5.3-4.4-7.1c-1.3-1.8-5.4-6-6.7-6.7c-1.3-0.7-2.8-1.5-3.7-2.5
		c-0.8-1-4.6-1.8-6.6-2.3s-7.3-1.7-9.6-1.8c-2.2-0.1-7.6,0.2-9.9,0.7s-7.4,3.5-9.3,4.7s-5,4.5-5.6,4.8s-2.1,0-2.3-0.4
		c-0.2-0.4,0-1.7-0.5-3.2c-0.5-1.2-0.7-4.1-0.6-4.8c0.1-0.7-0.3-1.6-0.8-3.4c-0.5-1.7-4.2-7.7-5-9s-1.1-3.3-0.5-3.6
		c0.6-0.3,4-0.4,5.4-0.7c1.4-0.3,8.8-4.8,10.7-6.2c1.9-1.4,10.5-12,11.5-13.9s2.6-6.9,2.9-8.7c0.2-1.7,0-6.7-0.1-7.5
		c-0.1-0.7-0.1-1.7-0.3-2.6c-0.2-0.9-1-2.7-1.3-3.9c-0.2-0.7-1.2-2.8-2.1-4c-0.8-1.2-2.5-4.3-5.7-7.4c-2.4-2.4-8-7.5-13-9.8
		c-2.4-1.1-6.4-2.5-8.1-3c-0.9-0.3-5.9-1.9-12.4-1.7c-6.5,0.1-13.4,1.9-16.9,3.6c-3.6,1.6-6.7,3.9-8.2,5c-1.4,1.1-5.4,5.5-6.5,7.7
		c-1.1,2.1-3.2,5.6-3.7,6.8s-0.9,5.8-1,8c-0.1,2.1,1.8,10.2,2.6,11.6c0.7,1.4,0.8,2.6,0.4,3.3s-13.8,0.9-15.5,1.4s-7.9,2.5-9.3,2.8
		s-8.9,3.5-11.5,5.1c-2.7,1.6-9.2,6.2-10.9,8.2c-1.8,2-8.6,9.6-10.1,10.7c-1.5,1.2-3.3,0.7-4.4,0.1c-1.2-0.6-3.7-1.7-4.1-2.2
		s-4.1-1.7-4.5-1.8c-0.4-0.1-1.4-0.7-1.4-1.7c0-0.9,0.2-3.3,0.5-4.2c0.3-0.9,0.8-3.2,0.6-4.3c-0.2-1.6-0.6-2.8-1.1-4.3
		c-0.3-1.1-1.3-3.3-1.9-4.7c-0.6-1.4-3.8-4.5-5.8-6.2s-5.6-1.5-7.7-0.1c-3.1,2-6.9,6.7-7.6,10.7c-0.4,2-0.3,6.9-0.4,7.8
		c-0.1,1,0,2.7,0.2,4.3c0.2,1.6,1.3,7.6,2.2,8.7c1,1.2,0.3,3.3-1.5,4s-2.8-0.6-2.9-1.2c-0.1-0.5-3.4-3.2-4-4s-2.2-2.9-2.9-3.7
		c-0.6-0.8-2-3-2.3-3.4s-1.2-1.7-1.7-2.5s-1.9-2.1-2.9-3.5c-1.1-1.4-4.4-7.4-4.4-7.9s3.9-4.4,5.5-9.4c0.8-2.4,1.1-4.8,0-6
		s-1.5-3.1-1.7-4.3c-0.2-1.1,0.4-2.1,1.1-3.6c0.9-1.9,0.3-5.5-1.4-6.9c-1.7-1.5-2.8-3.2-2.4-5c0.7-3.1,9.7-3.4,16.2-7.3
		s7.8-15.2,3.7-19c-1.8-1.7-5.5-3.7-6.6-3.7s-3.3-0.8-5.7-0.9c-2.4-0.2-7.4,0.1-8.7,0.5c-1.3,0.3-4,0.5-4.6,0.9
		c-0.6,0.3-2,1.4-2.6,1.5c-0.6,0.2-3,1.1-4.1,2.2s-4.1,4.3-5.7,5.9s-5.2,7.3-5.7,7.6s-3.8,0.3-5.4,0.3s-5.7,0.5-6.2,0.2
		c-1.8-1.2-6.6-3.6-8.1-4.1c-1.4-0.5-3.6-1.3-4.6-1.7c-0.9-0.5-3.6-1.7-5.4-2.2c-1.7-0.5-8.2-1.7-9.2-1.9c-0.9-0.2-5-0.8-6.6-0.8
		h-6.2c-2,0-6.7,1.4-8.8,2c-2.1,0.6-4.6,2.8-5.1,5.7c-1.1,0-3,0.3-5.1,0.6c-2.1,0.3-5.2,1.6-7.7,2.5c-2.5,1-4.7,3.6-6.3,4.7
		c-1.6,1.1-2.5,3.8-3.5,4.8c-1,0.9-0.6,2.2-2.1,5c-1.4,2.9,0,5.5,1.3,7.6s5.7,3.9,7,4.4s3.8,1.4,4.6,1.7c0.8,0.3,3.4,1.1,4.4,1.4
		c1.3,0.4,4,1,5.8,1.4c1.9,0.5,9,2.5,11.9,3c2.8,0.5,6.3,2.5,7.1,3.3c0.8,0.8,3,4.7,3.2,6.8c0.2,2,5.4,6.6,5.4,6.6s2.7,1.7,3.2,2.4
		c0.5,0.6,6.8,4.4,7.9,4.7c1.1,0.3,4.3,2.2,5.4,2.5s2.4,0.5,3.5,0.7c1.5,0.3,3.5,0.8,3.9,0.8c1.4,0.3,2.4,0.1,2.9,0.5
		c0.9,0.6,5,2.8,6.6,3.6c1.6,0.8,3.9,0.5,6.2-0.5c0.7-0.3,4.6-1.8,6-2.7c1.4-0.9,2.7-0.8,3.6,0.5s12.5,15.2,13.9,16.6
		s10,10.9,10.8,12s3.3,3.5,3.8,5.5c0.5,2.1,0.6,7.3,3.2,12.3c1.6,3.3,7.9,11.9,9.6,13.8c1.7,1.9,7.6,6.2,10.3,7.8
		c2.7,1.6,6,3.5,7.1,4.4s4.7,4.7,5.5,5.5s1.5,1.9,2.4,2.9c1,0.9,0.7,1.1,1.7,1.7c0.9,0.6,1.6,2.2,2.8,3.6c1.3,1.4,3.9,5.2,4.9,5.9
		c0.9,0.6,0.6,1.4,0.2,2.7c-0.5,1.3-3.5,4.3-4.8,5.4c-1.3,1.1-10.4,11.5-10.4,11.5s-2.5,2.8-3.3,3.6s-4.7,5.2-5.7,6.3
		c-0.9,1.1-5.8,6.3-6.3,6.6s-1,1.6-1.4,2.1c-0.5,0.5-1.6,1.7-2.4,2.5s-1.8,4.6-2.4,5.8c-0.5,1.1-2,6-2.3,7.1
		c-0.3,1.4-0.6,2.8-0.7,3.5c-0.1,0.6-0.8,8.2-0.6,9.2c0.2,1,0.8,7.8,1.1,10c0.3,2.2,4.1,13.6,4.7,15s2.1,4.7,2.2,5.2
		c0.3,1.3-0.8,2.7-2.2,4.3c-1.4,1.6-2.6,3.9-2.7,6.3c-0.2,2.4,1.6,4.6,2.2,5c0.3,0.3,2.7,2.7,3.7,3.6c0.8,0.7,5.4,4.3,6.9,5.6
		c1.6,1.3,5.1,4,5.8,4.9c0.8,1,0.6,2.1,0.2,4c-0.2,0.8-0.9,2.9-1.3,4.1c-0.5,1.5-0.7,1.7-1.2,2.7c-0.4,0.9-2.1,5.3-2.8,6.8
		c-0.6,1.4-1.8,3.9-2.3,5.3s-1.1,2.9-1.6,4.1c-0.3,0.9-1.6,3.6-2.1,5.1c-0.5,1.6-1.3,4.4-1.9,5.9c-0.6,1.4-3.3,7.9-3.9,9.6
		c-0.6,1.8-2.1,3.5-3.2,4s-8.2,1.1-9,1.1s-4.4-3.3-5.1-4c-0.6-0.6-5.1-3-6.5-4.9s-13.8-10-15.2-10.9c-1.4-0.9-5.9-3-7.6-4.4
		s-3.8-2.2-6-2.9c-2-0.7-3.7-1.1-5.7-1.2c-3.2-0.2-5,0.3-7,1c-2.5,0.9-8.5,3.3-9.9,4.4s-3.3,2.8-5.1,3.8c-1.7,1-6.3,6.5-7.1,8.9
		c-0.8,2.4,1.4,3.3,1.7,3.8c0.3,0.5,0.6,1.7,0.3,2.5c-0.3,0.8-1.1,0.6-2.2,0.5c-1.1-0.2-1.4,1-2.2,1.7c-0.9,0.8-1.8,2.1-2.4,2.5
		c-0.7,0.6-1.4,1.6-2.2,2.7c-0.9,1.3-0.8,5.2-0.5,8.7s2.8,7.4,4.3,8.9c1.4,1.4,4.7,5.3,5.1,5.8c1.1,1.2,2.4,2.8,3.9,4.2
		c2.1,1.8,5.1,4.7,7.5,6c1.3,0.7,3.9,2.1,5.9,3.6c2.1,1.4,1.7,1.7-0.1,2.1c-1.3,0.2-3.2-0.5-4.7-0.6c-1.6-0.2-3.2-0.9-4.4-0.6
		c-1.3,0.3-1.8-0.1-2.6-0.3c-1.2-0.3-2.8-0.8-4.7-1.5c-1.9-0.6-6.6-1.3-7.6-1.6c-0.9-0.3-2.8-0.5-4.1,0c-1.3,0.5-0.4,1.9,1.7,2.2
		c2.1,0.3,4.7,0.8,3.8,1.4c-1,0.6-4.7,0.1-5.5,0.3c-0.8,0.2-7.3,0.5-9.5,0.5s-4.4-2.1-7.3-2.2c-2.8-0.2-7.6,0.8-8.7,1.4
		s-4.1,1.4-5.5,1.4s-4.1-0.3-4.6-0.9s-1.6,0-2.4,0.1c-0.8,0.2-3.5,1-4.3,0.2s-1.7-0.8-2.4-0.2c-0.6,0.6-2.4,1.1-3.3-0.1
		c-0.9-1.3-3.3-0.5-4.4-0.5s-3-1-5.1-1.6s-7.9,1.4-8.9,0.8c-0.9-0.6-4.7-0.5-5.5,0s-1.4,1.3-2.9,1.3c-1.4,0-3.2,1.4-4.1,1.6
		s-4.7,1-5.9,1c-1.1,0-1.7-0.6-2.4-1.4c-0.6-0.8-5.7-0.5-7-0.5s-1.3,0.9-4.4,0.8c-1.3-0.1-1.9-0.3-4.3-0.5c-2.1-0.1-5.2,0.8-6.5,1.1
		c-1.3,0.3-1.7,1.3-2.5,1.1c-0.8-0.2-3.9,1.1-5.8,1.3c-2,0.2-2.2,0.4-3.1,0.4c-1,0-3.2,0.1-3.4-0.8c-0.2-0.9-6-0.5-7.1-0.5
		s-5,0.6-5.8,0.5c-0.8-0.2-2.2,0.3-2.7,0.9c-0.8,1-1.3,2-5.2,2.7c-3.9,0.6-5.7,6.2-4.1,7.9c1.6,1.8,5.2,1,7.9,1.3
		c2.7,0.3,2.8-0.9,4.4-0.9c3.3,0,6.4-3.5,7.6-3.9c2.4-0.8,4.2-1,5.6-1.4c2.2-0.7,2.3-0.7,3.8-0.8c1.4-0.2,5.1,1,5.7,1.3
		s5.2,0,6.6-0.6s2.8-1.1,3.8-1.3c0.9-0.2,1.8-0.3,2.9-0.5s3.2,0,4.4,0c1.3,0,2.8,1.3,3.8,1.1c1-0.2,2.4-0.3,3.3-0.2
		c0.9,0.2,3.5,1.7,4.6,1.7s3.2,0.5,4,0.5s2.8-0.1,3.6-0.1c0.8,0,5.7,0.2,7.4,0c1.7-0.2,6.5-0.6,9-0.5s2.5,0.3,3.9,0.4
		c0.5,0,2.7-0.2,2.7-0.2h3.2c1.7,0,5.1-0.1,7.6,0.3c0.9,0.1,1.8,0.4,3.3,0.8c0.8,0.2,4.5,0.2,5.7,0.2h10.9c1.3,0,1.7-0.1,3.4-0.3
		c1.7-0.2,2.1,0,3.4,0.2c1.5,0.2,2.4-0.1,3.1-0.1c0.6,0,1.4-0.1,2.2-0.2c1-0.2,1.2-0.5,2.5-0.7c1.4-0.2,2.9-0.7,3.9-0.7
		s1.8,0.4,3.2,0.4c1.4,0,6,0.4,7.3,0.4s2.5,0.3,3.7,0.4c1,0.1,2.4,0.5,3.3,0.6c1.7,0.3,6.5-0.3,8.1,0.5c1.3,0.7,16.3,0.8,17.7,0.6
		c1.4-0.2,4.7,0.5,6.5,0.3s6.8-0.3,8.2-0.2c1.1,0.1,1.5,0.2,2.9,0.3c0.8,0.1,2.8,0.3,3.9,0.5s9.2,0,10.3,0c1.1,0,9.2,0.5,10.1,0.3
		c0.9-0.1,1.6-0.1,2.9-0.1s7.4,0.6,8.4,0.6s8.5,0,9.7-0.1c1.1-0.2,4.7,1.4,6.8,1.4c2.1,0,3-2,7.9-2.2c2.2-0.1,4.9,1.6,7.4,1.3
		c2.5-0.3,5.1-0.5,5.5-0.5c0.5,0,3.2,0.5,4.3,0.5c1.1,0,1.9-0.6,2.9-0.9s1.5-0.6,2.7-0.2c0.4,0.1,1.7,0.1,3.6,0.1s2.3-0.5,2.9-0.9
		c0.6-0.5,4.4,0.5,6.3,0.3s6.2,0,7.3,0c1.1,0,2.8-0.9,3.8-0.9c0.9,0,1.6-0.3,2.6,0s1.1,0.4,2.2,0.4s1.6-0.5,1.6-0.5s1.2-0.1,2,0
		c0.6,0,1.4,0.4,2.5,0.4s8.2,0.3,9.6,0.3s14.1,0.2,16.5,0c13.2-0.9,15.9,0.7,18.3,0.9c0.7,0.1,2.6,0.5,7,0.5
		c1.4,0,20.6-0.2,23.4-0.2s4.1-0.5,4.9-0.8s2.4,0.5,3.2,0.5c0.8,0,1.5-0.2,3.1,0.2c1,0.2,2.4-0.7,4.1-0.7s1.9,0.5,3.3,1s8.5,0,9.5,0
		s6.8-0.2,9.3,0c2.5,0.1,3.6-1,5.1-1.3c1.4-0.3,3.9,0,4.6,0c0.6,0,3.6,0.3,5.1-0.2c1.4-0.5,15.2,0.5,17.2,0.5s8.2-0.2,8.4,0.6
		c0.1,0.8,2.4,0,3.6,0c1.3,0,7.4,0.3,8.9,0.3c1.4,0,7.6,0.1,8.9,0.3c1.3,0.2,5.1,0.5,6.3-0.3c1.3-0.8,7.4,0.1,8.9,0.1
		c1.4,0,3-0.1,3.6,0.2c0.6,0.3,3.1,0.5,4.4,0.5c1.2,0,1.9-1.2,3.2-1.7c1.3-0.5,6.5-0.2,6.5-0.2s0.8,1.6,5.7,1.1
		c0.8-0.1,3.3,0.8,4.9,0.5s2.5-2.7,4.9-3.2c1.1-0.2,4.1-0.2,4.9-0.2s2.8,0.5,3.6,1.1c0.8,0.6,4.9,0.5,6-0.3s4.2-2.2,5.6-2.2
		s2.7,0,4.5,0.8c1.7,0.8,4.7,1.1,5.2,1.1s1,0.6,2.4,0.9s5.7,0.6,7.4,0.5c1.7-0.2,3.3-1.3,5.2-1.4c1.9-0.2,3.5,1.1,4.9,1.1
		s2.8-1.9,4.4-1.7c1.6,0.2,4.7,0.3,7.6-1c1.8-0.8,2.2-3,2.2-3.8C1651.3,402.5,1648.3,401.9,1648.3,401.2z M1254.7,62.7
		c-0.4-0.8-1-2.5-1.2-3.5s-1.2-4-3.5-2.7s-7.1,4-8.1,5.1s-5.4,6.1-6.2,7.4c-1,1.7-1.4,4-0.7,4.7c0.6,0.7,3.1,0.6,3.9,1.3
		c0.8,0.6,1.3,2.8,0.3,3.8c-1,0.9-6.8,1.9-8.9,1.3c-2-0.6-3.9-3.2-4.3-4.3c-0.5-1-0.9-2.5-0.5-2.8c0.5-0.3,1.1-2.1,1.1-2.9
		s0.6-1.6,0.9-2.1s0.8-2.7-0.5-2.8c-1.4-0.2-3.6,2-4.1,2.8s-0.8,2.4-1.3,3.5c-0.5,1-2.3,3-3.6,3.5c-1.3,0.5-4.1-1-4.8-1.2
		c-0.7-0.2-5.8-3-7.6-4.3c-3.2-2.2-6.2-4.4-9-9.5c-1.3-2.3-0.8-3.3-1.7-4.3c-0.9-1-1.2-3.6-2.9-4.1c-1.7-0.5-5.8-2.4-8.2-2.8
		c-2.4-0.4-6.2-1.7-8.5-2.2c-2.4-0.6-5.1-1.2-5.5-1.5c-0.4-0.2-1.8-0.4-3.6-0.8c-1.5-0.4-5.5-1.6-7.2-1.9c-1.7-0.3-5.1-2.8-5.9-3.8
		c-0.8-0.9-1.8-4-1.1-5.4c0.7-1.4,3.1-3.2,5.4-3.5s7.4,0.5,10,0.8c2.5,0.3,8.5,1.8,10,2.4c1.4,0.6,2,0.3,3.7,1
		c0.6,0.3,1.9,0.7,3.3,1.1c1.3,0.4,2.9,1.2,5.3,2.1c2.4,0.9,4.4,1.8,5.1,2.5s0.9,2.8,1.9,3.2c0.9,0.3,3-0.9,3.1-1.6
		c0.1-0.6,2.5-1.8,3-2.1s1.7-1.8,1.1-2.6c-0.5-0.8-2.4-1.3-3.6-1c-1.1,0.3-4-0.3-4.9-0.7c-1-0.4-3.2-1.3-4.8-1.7
		c-1.7-0.4-3.8-1.3-4.7-1.6c-0.9-0.3-4.7-1.4-6.7-1.9c-2.1-0.5-6.7-1.6-7.5-1.6s-0.6-0.6-2.3-0.6c-1.7-0.1-3.2-0.5-4.3-0.5
		c-1,0-4.1-0.2-5.3-0.5c-1.2-0.4-1.9-1-1.3-2.2c0.5-1.3,2.1-3.2,4.7-3.9c2.6-0.6,10-0.6,12.7-0.6s6.6,0.4,9.2,1s2.9,0.6,3.8,0.8
		c0.9,0.2,3.1,0.8,4.3,0.9c1.2,0.2,2.1,0.7,3.9,1.2s3.1,0.7,3.6,1.2s2.7,1,4,1.4c0.9,0.2,2.1,0.8,2.7,1.3c0.6,0.6,2.4,1.3,2.4,2.2
		c0,0.9,0.3,2.4,1,2.6c0.7,0.2,2.5-0.5,3.5-1.4c0.9-0.9,4.4-3.5,4.2-4.3c-0.2-0.8-1.5-1.3-2.8-0.8s-3,0.8-3.6,0.3s-3.6-1.7-4-2.1
		c-0.5-0.4-2.7-0.9-3.9-1.4c-1.1-0.5-6.5-2.1-7.7-2.5c-1.1-0.4-2.3-0.8-2.5-0.8c-0.3-0.1-1.2-0.5-1.7-0.6s-2.3-0.4-3.5-0.7
		c-1.3-0.3-3.1-0.6-4.2-0.8c-1.1-0.2-1.8-0.8-3.6-1.3c-1.8-0.5-3.4-0.4-3.6-1s0.3-1.4,2.1-2c1.9-0.6,3-0.8,3.4-1s1.5-0.3,2.3-0.4
		c0.8-0.1,2.8,0,4.4,0s6.7,0.7,7.7,1c0.9,0.3,5.2,0.5,5.7,0.6s4.6,0.9,5.9,1.4c1.3,0.6,6.6,2.7,7.8,3.2c1.2,0.5,4,1.9,5.3,2.6
		s3.9,3.5,5.3,3.1c1.7-0.4,9.7-0.8,10.9-1.3c1.2-0.5,1.8-1.8,2.8-3.5s9.7-10.2,10.4-10.7c0.7-0.5,5.4-2.8,6-3s2.1-0.7,2.8-0.6
		c0.7,0.1,4-0.6,5-0.9c1-0.4,3.2-0.5,4.2-0.2c1.3,0.5,4.3,1.4,5.6,2.3c1.4,0.9,3.8,3.4,4.2,4.9c0.4,1.5,1,5.1-0.2,6.4
		c-1.3,1.3-4.5,3.9-6.6,4.8c-2,0.9-6.9,1.7-8.1,2.3c-1.2,0.6-4.2,1.4-5.3,1.8c-1.1,0.5-4.3,4.2-4.5,5.1s0.6,2.2,1.4,3
		c0.9,0.8,2.9,2.5,2.8,3.6s0.3,3.4,0.6,3.8c0.3,0.4,0.9,2.3,0.2,3.6c-0.8,1.4-3,1.4-4,0.8c-1-0.6-3.7-0.6-4.7-0.3s-5.6,1.4-7.4,3.3
		c-1.8,1.9-3.2,3-2.5,3.8s2.5,1,3.2,0.1s2.1-1.5,2.9-1.8s2.1-1,2.6-1s1.7-0.5,2.1-1c0.6-0.5,2.1-0.6,3.1-0.6c0.9,0.1,3.4,1,4,1.9
		s2.5,1.4,2.1,5s-1.9,6.8-2.8,7.7C1256.7,63.5,1255.1,63.5,1254.7,62.7z M1465.3,340.5c-0.1,0.8,0,1.9-0.2,3.4
		c-0.2,1.3-0.4,2.7-0.6,4c-0.2,1.2-1.1,3.6-1.2,4.7c-0.2,1.1-0.8,5.3-1.1,6.5c-0.3,1.6-1,3.1-1.2,4.4c-0.2,1.4-1.2,3.7-1.7,5.3
		c-0.4,1.3-1.1,2.3-2,4.1c-0.9,1.7-5,7.9-8.3,11.1c-3.3,3.1-6.7,4.8-7.7,5.3c-1.4,0.6-2.7,0.9-4,1.1c-1.2,0.2-3,0.5-4.4,0.8
		c-1,0.2-3,0.5-4.2,0.5s-7,0.3-9.1-0.1c-1.7-0.4-4.3-0.7-5.4-1.1c-0.6-0.2-1.8-0.8-2.8-1.1c-0.8-0.2-3.4-1.1-3.4-1.1l-2-0.8
		c0,0-3-2.8-3.9-4.2c-0.9-1.4-2.3-6.9-2.5-9.3c-0.1-2.5,0.2-6.1,0.3-6.9c0.2-2,0.9-3.1,1.4-4.1c0.5-1.2,2.8-4.4,4.7-6.7
		c1.9-2.3,6.2-7,7.2-7.6c0.9-0.6,1.4-1.4,1.7-1.7c0.4-0.4,1.7-0.6,3.1-0.5s2.3,1.4,3.3,2c0.9,0.6,4.7,1.9,5.6,1.7
		c0.9-0.1,2.6-0.2,3.6-0.5c0.8-0.2,2.1-0.7,2.8-0.9c1.6-0.6,3.8-1.8,4.7-2.5c1.6-1.4,2.4-3,2.8-3.7s0.9-1.2,1.3-2.3
		c0.3-0.7,1.8-5-0.7-5.3s-2.5,3-3.4,4.5c-0.9,1.6-2.7,3.8-3.8,4.1c-1.1,0.3-1.9,1.1-3.3,1.4s-5,0.2-6.5-0.8c-1.6-0.9-4.5-2.8-4.3-5
		c0.1-2.2,0.6-4.2,2.8-4.2c2.2,0,4.7,1.2,4.7,2.5c0,1.2,0.6,1.7,1.2,1.7s2.2-1.9,2.3-2.6c0.2-0.8,0.9-5.5,0.9-6.5
		c0-1.1-0.6-7-1.4-8.3c-0.8-1.2-2.5-4.6-3.1-5.5c-0.6-0.8-3.3-2-3.6-1.1c-0.3,0.9-2,2-2.8,2.2c-0.8,0.1-2-1.1-1.7-2.3
		c0.3-1.2,1.1-2.6,1.6-3.3c0.5-0.6,3.4-3.6,5.3-4.1s3.6-0.1,5,0.5s4.4,4.1,5,5.3c0.6,1.2,1.4,2.6,2.2,2.5c0.8-0.2,1.2-1.7,1.1-2.7
		c-0.1-0.9-2.7-5.6-3.6-6.4s-1.4-2.6-0.9-3.4s2.3-2.8,3.4-3.1c1.1-0.3,3.4-1.1,4.2-1.1c2.3,0,3.7-0.3,4.5,0.1c0.9,0.4,1.6,1,2.5,1.7
		c0.7,0.6,1.6,0.6,2,0.9c0.5,0.3,2.3,2.5,3.1,3.4c0.8,0.9,2.8,5,3.6,5.8c0.8,0.8,2,3.4,2.7,4.5c0.6,1.1,1.5,3.8,1.6,4.6
		c0.1,1.1,0.7,2.4,0.7,3.6c0,0.8,0.9,2.6,0.9,4.1c0,1.6,0.6,1.8,0.8,3c0.1,0.8,0.6,3,0.6,4.1
		C1465.6,335.9,1465.4,339.5,1465.3,340.5z M1412.1,275c0.2,1,0.1,1.4,0.3,2.3c0.2,0.8,0.7,3.3,0.9,4.2c0.2,1,0.7,2.9,1,3.7
		c0.5,1.4,0.5,1.1,0.8,2.1c0.4,0.9,1.6,2.8,2.3,3.3c0.7,0.5,2,1.9,3.4,2.3c1.4,0.3,5.6-0.1,6.5-0.7c0.8-0.5,2.2-1.9,3.1-2.7
		c0.8-0.8,2.6-4.2,2.7-5c0.2-1,0.6-2.6,0.6-3.9s0.5-3.6,0.4-4.7c0-1.3,0.5-2.5,0.8-3.6s1.6-2.5,3.5-2.9c1.9-0.3,5,1.7,5.6,3.4
		c0.6,1.7,2.1,5.4,2.7,6.7c0.6,1.4,2.2,4.5,3.1,6.5c0.8,2,2.6,4.2,3.4,5c0.7,0.7,3.1,3.3,2.1,4.2c-1,0.9-3,2-3.9,1.5
		s-2.6-1.8-3.2-1.9c-0.5-0.1-3.4-0.8-5.4-0.7c-2.6,0.1-5.7,0.6-7.1,1.8c-1.4,1.2-3.7,2.7-4.6,2.7s-3.6-0.9-4.3-1.2
		c-0.7-0.2-1.6-0.4-2.4-0.8c-1-0.5-2.9-1.2-3.9-1.7c-0.6-0.3-2.9-1.4-4.1-1.7c-1.2-0.3-2.3-0.9-3.7-1.5c-1.1-0.5-4.4-1.6-4.6-2.3
		c-0.1-0.7-0.7-3-0.8-3.6c-0.2-0.6-0.1-1.1-0.4-2.5c-0.4-1.6-0.5-1.7-0.8-3.2c-0.3-1.7-0.5-1.4-0.8-3.1c-0.4-1.9-0.8-3.7-0.8-5.6
		c0-2-0.1-3.9,1.1-5.4s2.8-4.1,4-5.9s2.2-4.9,2.3-6.3c0.1-1.5,1.2-3.8,2.3-3.8c1,0,2.8,1.3,3.1,2c0.2,0.7,1.1,2.2,0.6,2.6
		c-0.4,0.4-2.3,3.2-2.8,4.4c-1.3,3.1-1.4,4-1.6,4.8c-0.3,1.2-0.5,1.7-0.8,2.8c-0.2,0.8-0.4,2.1-0.5,3
		C1412.3,271.1,1411.9,273,1412.1,275z M1406.1,294.3c1.4,1.1,4.8,2.4,5.5,2.7c0.7,0.3,2.4,1.1,2.9,1.4s3.4,2.1,4.2,2.4
		c0.8,0.3,1.9,0.3,2.4,1.7c0.5,1.4-1,2.5-1.5,2.9c-0.6,0.3-2.8,2.6-3.3,3.1s-2.4,4-2.6,5.3s-0.4,3.2-0.8,3.7s-1.9,1.3-2.7,1.3
		c-1.4,0.1-4.1-1-5.2-2.2s-3.6-3-4.2-3.7s-1-1-1.2-1.3c-0.2-0.2-1.1-1.2-1.7-1.8c-0.6-0.6-1.1-1.4-1.8-2.6c-0.3-0.5-1.1-2.6-1.8-3.4
		c-0.7-0.9-1.4-2.1-2.1-2.6s-1.1-1.5-0.6-2.1c0.7-0.8,3.6-3.2,4.8-3.7c1.1-0.5,4.4-2.8,5.1-3
		C1402.2,292.1,1404.8,293.3,1406.1,294.3z M1464.5,306.6c0.4,0.7,1.8,2.7,2.4,3.5c0.6,1.1,1.5,2.1,2,2.7c0.4,0.5,1.6,2.3,2.2,3
		c0.7,0.7,0.5,2.6,0.8,4.2c0.2,1.2,0.5,5,0.5,6.1s0.2,3.9-2.3,3.9c-1.7,0-2-2.2-1.9-3.8c0.2-1.6-0.2-2.3-0.4-3
		c-0.3-1.2-0.5-2.1-0.7-2.6c0,0,0-0.1-0.1-0.2c0,0,0,0,0-0.1s-0.1-0.2-0.1-0.3v-0.1c-0.1-0.1-0.1-0.3-0.2-0.4c0-0.1-0.1-0.1-0.1-0.2
		s-0.1-0.2-0.1-0.3c0-0.1-0.1-0.2-0.1-0.2v-0.1c-0.3-0.7-0.7-1.4-0.8-1.9c-0.1-0.2-0.2-0.4-0.4-0.7l0,0c-0.1-0.3-0.3-0.6-0.4-0.9
		l0,0c-0.1-0.1-0.1-0.2-0.2-0.3c0,0,0-0.1-0.1-0.1c0-0.1-0.1-0.2-0.1-0.3c0,0,0-0.1-0.1-0.1c0-0.1-0.1-0.1-0.1-0.2
		c0,0,0-0.1-0.1-0.1c0-0.1-0.1-0.2-0.1-0.3c-0.2-0.4-0.9-1.9-1.6-3c-0.6-1.1-1.1-1.7-1.5-2.4c-0.6-1-0.6-0.7-1.2-1.8
		c-0.5-1-1.1-2.3-0.6-3.7c0.4-1.1,3.4-0.6,3.9,0.5C1463.3,304.2,1463.9,305.5,1464.5,306.6z M1429.7,214c1.6-1.2,4.7-2.4,6.6-3.1
		c2.1-0.7,6.7-0.1,8.4,0.2c1.6,0.3,2.9,0.8,3,1.9c0.1,1-0.4,1.9-0.8,2.1c-0.5,0.2-0.5,1.4,0,1.6c0.5,0.2,2.3,0.7,2.7,0.9
		c0.4,0.2,1.5,1.1,2.4,1.1s3,1.5,4.2,1.4s3.1,0.1,4.2,0.8c1,0.7,4.5,3.3,5.1,3.8c0.6,0.6,2.6,2.6,3,3.8c0.5,1.3,2.4,4.9,3.6,5.9
		c1.2,1.1,4.4,4.3,5.2,4.4c0.8,0.1,4.3,1.4,6.4,1.8c2.1,0.3,5.4,1.5,6.5,1.7c1.2,0.2,4,1.4,5.1,2.1c1.6,0.9,3.6,2.4,3.6,4.1
		c0,1.6-0.8,5.2-3,6.2c-2.2,0.9-7.7,0.9-8.7,0.6c-1-0.4-2.7-0.9-3.7-1.4s-2.3-2-3-2.2s-3.4-0.9-4.2-1.3c-0.8-0.3-2.3-1.5-3.6-0.8
		c-1.3,0.7-3.1,3.6-4.4,4.7c-1.3,1-4,4.2-4.8,4.4s-4.3,1.5-4.8,2.5c-0.5,0.9-0.2,3.1,0.7,4.4c0.9,1.3,2.8,5.2,4,6.9
		c1.2,1.6,3.4,6.1,4,7.3c0.6,1.3,1.4,4.5,0.5,6.3s-4.2,5.1-7.2,4.4s-5.9-4.1-6.5-5.5s-1.5-3.3-1.9-4.6c-0.3-0.9-1-3-1.2-3.8
		s-1.2-3.1-1.5-3.8c-0.4-0.7-1.1-2.9-1.1-2.9s-0.7-2.1-0.8-3c-0.1-0.9-1.2-2-2-2.5s-1.7-0.8-3.3-1c-0.9-0.2-3.4,0-5.2,0.4
		c-0.9,0.2-3.1,0.9-3.7,1.8c-0.7,1-1.6,2.1-2.1,3.2c-0.5,1-0.8,4.5-0.7,5.8c0.1,1.3-0.9,6.6-1.1,8c-0.1,1.4-1.9,4.7-2.9,5.1
		c-1,0.5-4.2,1.2-5.7-0.1c-1.5-1.3-2.6-2.6-2.9-3.2c-0.7-1.4-1-2.9-1.6-4.6c-0.2-0.7-0.5-2.4-0.5-3.4c0-1.3,0.1-2.7,0.3-4.6
		c0.1-1.3,0.9-3.6,1-4.4s0.9-2.5,1.3-3.4c0.7-1.7,1.7-3.8,2.6-5.1c0.8-1.3,2.4-2.7,2.3-3.8c-0.1-1.2,0-3.6-0.7-4.1s-2-3.1-2.2-4.2
		c-0.2-1.1-1.3-3.7-1.9-4.1c-0.6-0.3-2.8-2.3-4.1-2.3c-1.3,0-3.4-0.3-4.9-0.9c-1-0.4-3-1.8-4.8-3.7c-1.1-1.2-2.2-3.7-2.4-4.9
		c-0.3-1.6-0.8-4.4-0.5-5.9c0.3-1.3,1.1-3.9,2.2-5.2c0.8-1,2.5-3.1,4.1-3.2c1.6-0.1,3.6,1.6,4,2.6c0.3,0.9,0.3,3.3,1,3.9
		c0.7,0.7,1.5,1.8,2,2.7c0.9,1.5,3.6,3,6.3,2.3c2.7-0.7,4.1-3.3,5.1-4.1s3.8-3.6,4.8-4c0.9-0.3,2.4-2.1,0.8-2.4
		c-1.6-0.4-2.6,0-3.1-0.4C1428.6,216.8,1428.1,215.2,1429.7,214z M1404.3,192.5c0.7,0.3,4.8,1.1,5.7,1.4c0.9,0.3,4.4,2.4,6,3.2
		s6.4,4.5,7.7,5.9c1.3,1.4,4,4.1,3.6,5.2c-0.4,1.1-3.1,3.4-3.8,3.9c-0.8,0.6-2,2.4-1.9,2.8c0.1,0.5,0.1,2.3,0.1,3.1s-0.2,3.1-1,3.4
		c-0.8,0.2-2.4-0.5-2.5-1.5s-1.9-4-2.5-4.8s-3.2-3-4.5-3.2s-4.8-1.1-6.1-0.4c-1.3,0.7-2.7,0.6-3.4,0c-0.7-0.6-3.3-3.2-4.7-3.9
		c-1.4-0.8-6.4-4.5-6.6-5.9c-0.1-0.7,0.3-2.3,0.6-2.8c0.3-0.5,1.2-2.6,1.2-3.2c0-0.7,0.2-2,0.9-2.8c0.7-0.8,2.8-0.6,5.2-0.7
		C1400.9,192,1403.7,192.2,1404.3,192.5z M1292.8,67.2c1.2-0.5,3.9,0.8,4.4,2.4s1.5,7.4,0.1,8.1c-1.4,0.6-3.9-1.7-4.2-3.5
		C1292.9,72.5,1291.5,67.7,1292.8,67.2z M1319.9,160.2c-0.3-1.3-1.3-4.6-2.7-5.7c-1.4-1.1-4-2.2-4.7-2.6c-0.6-0.4-2.2-0.8-3-1.6
		c-0.5-0.5-2.1-1.4-2.7-1.7s-2.8-2-3.8-2.5c-0.7-0.4-2.5-1.3-3.2-1.7c-0.6-0.5-1.4-1.1-2.3-1.7c-0.8-0.5-2.1-1.1-3.2-2
		c-1.1-0.8-4.5-3.3-6.5-6.2c-1.8-2.7-4.3-6-5.5-8.9c-0.8-2-1.2-2.5-1.4-3.1c-0.4-1.6-0.4-1.8-0.7-2.3c-0.3-0.5-0.8-3-0.9-3.7
		c-0.1-0.6-0.5-1.4-0.5-3s-0.2-5.3,0-6.3c0.4-1.9,1.3-3.2,1.4-4c0.2-0.8,0.6-1.6,1.1-2.4c0.4-0.7,1.1-2.2,1.7-3s1.7-2.4,3.3-2.5
		c1.6-0.2,4.3,0.6,4.7,0.9c0.5,0.4,2.1,0.8,2.6,0.9c0.7,0,1.6,0,2.2-0.3c0.4-0.2,3-0.8,3.9-2c0.9-1.3,2.8-3.5,2.8-4.3
		s0.6-2.7,1.9-2.8c1.3-0.2,3.6,0.8,5.4,1.9c1.7,1.1,5.2,3.9,5.9,5.1c0.6,1.1,1.9,3.5,2.7,5.5c0.8,2,1.2,2.7,1.9,4.6
		c0.7,1.8,1.7,3.2,2.8,2.8c1-0.3,1.9-2.7,1.4-3.8c-0.5-1.1-0.6-2.1-0.9-2.7c-0.4-0.9-0.7-2.4-1-3c-0.2-0.5-0.6-1.4-1.1-2.1
		c-0.5-0.6-2.1-2-1.7-3c0.3-0.9,2.2-4.9,3.5-6.3c1.2-1.4,2.3-2.5,2.7-2.8c0.6-0.5,1.1-1.3,2.3-2.3c0.9-0.7,1.9-2,2.3-2.4
		c0.5-0.5,1.3-1,1.9-1.6s3-3.5,3.5-3.6s3.1-1.9,3.9-2.3c0.8-0.5,2.4-1.1,3.1-1.6c0.6-0.5,2.5-1.4,3.3-1.7c0.9-0.3,1.9-0.8,3.4-1.5
		c1.2-0.5,2.4-1,3.3-1.2c1.1-0.2,5.8-0.9,7.3,0.3c1.4,1.3,2.8,3.8,2.7,5.1c-0.1,1.4-0.3,2.7,0.3,2.8c0.6,0.2,2.2-1,2.9-1.4
		c0.9-0.5,2.2-1.1,2.9-1.6c1.4-0.9,3.6-1.6,4.3-2.1c1-0.7,3.1-0.8,4.1-1.1c0.9-0.2,3.9-0.5,6.2-0.5c2.2,0,4.9,0.8,5.8,0.9
		c0.9,0.2,2.1,0.6,3.2,1c0.6,0.2,2.7,1.1,3.4,1.4c0.6,0.3,4,2.5,4.9,3.9c1,1.4,2.8,5.2,3.2,5.9c0.3,0.6,1,2.5,0.9,4.4
		c-0.1,1.6,0.1,3.7-0.3,5.1c-0.3,1.4-0.6,3.3-1.3,4.6l-3,6c-0.8,1.6-4.7,6.2-5.4,7.3c-0.8,1.1-2.5,2.1-2.8,2.5
		c-0.3,0.5-2.3,1.8-3.6,2.6c-1.3,0.8-4,2-5.1,2.7c-1.1,0.8-6.2,2.4-7.6,2.8c-1.4,0.5-3.8,1.7-4.3,3.3c-0.5,1.6,0.3,3.5,1.3,3.3
		c0.9-0.1,1.4-1.2,2.7-1.9c1.3-0.6,5.1-2.2,6.3-2.7c1.3-0.5,4.8-2.4,5.7-2.7c1-0.3,4.9-3.3,6.3-4.4s3-2.5,4.3-3s7.9-1.4,10.3,0.3
		c2.4,1.7,7.9,5.9,8.5,8.4s2.5,4.8,2.5,5.9s1.6,5.4,1.2,7.3c-0.3,1.9-0.4,7.6-1.4,10.6c-1.3,3.8-3.8,9.5-6.5,12.7
		s-11.1,11.4-14.4,13.4c-3.3,2.1-9.6,5.9-10.6,5.7s-1.1-1.1-0.6-1.4c0.5-0.3,3.3-6.2,1.4-6.6c-1.9-0.5-3.5,2.4-4.3,3.8
		c-0.8,1.4-7,6.8-10.7,10.1c-1.7,1.5-2.3,1.8-2.7,2c-0.7,0.4-1.6,0.6-2.7,1c-0.9,0.3-3,0.9-3.6,0.9s-11.5,0.5-15.3,0.2
		c-3-0.3-7.5-2.3-8.2-2.5c-1.2-0.4-3.2-1.6-3.2-1.6s-4.7-3.5-7.7-6.5C1327.2,171,1320.2,161.5,1319.9,160.2z M1302.1,291.2
		c-1.9-1.1-6.7-5.3-7.6-6.3s-2.3-2.8-2-3.4s1.4-1.9,2-2.6s1.8-1.8,3.3-0.7c1.4,1.1,3.3,2.2,4,2.7c0.6,0.5,2,1.9,3.1,2
		c1.2,0.1,2.7-1.2,2.7-1.7c0-0.6-2.7-3.1-4.4-4c-1.7-0.9-4.4-5.6-5.3-6.6c-0.8-1-3.8-7-4.4-8.1s-2.1-6.8-2.7-7.3
		c-0.6-0.4-1.4-2.1-1.6-3c-0.1-0.8-1.3-5.4-1.3-5.4s-0.3-2.1,0-2.7c0.3-0.6,0-4.4,0-5.1s0.1-3.2,0.3-4.1c0.3-1.3,0.9-2.8,0.9-3.4
		c0-0.6,0.8-2.7,1.1-3.4c0.6-1.6,0.9-2.8,1.6-4.1s2.9-5.4,4.3-7.6c0.9-1.5,2.8-2.7,3.7-2.6c0.9,0.1,1.9,2.7,2.5,3.6
		c1.2,2,3.3,4.1,4.5,4.9c1.1,0.9,4.2,2.6,5.1,3.1c0.5,0.3,3.9,2,4.7,2.6c0.8,0.6,4.3,3.1,6.3,3.9c2.3,0.8,7.8,0.7,9.5,0.7
		s7.2,0.6,8.3,0.6c0.7,0,4.6,0.1,5.8,0.1c1.3,0,5-0.6,6.4-0.9c2.1-0.4,6.1-1.6,8.1-2.3c2.5-0.8,7.4-3.6,9.1-4.6s3.5-1.9,4-2.3
		c0.9-0.6,2.7-1.6,3.3-2.1c1.5-1.2,2.7-2.5,3.4-3.9c0.6-1.3,2.6-3.3,3-3.8c0.4-0.4,2.4-3,3.4-3.4s3,0.7,4,1.6c1,0.9,4.3,3.3,5,4
		s-0.1,2.6-0.3,3c-0.1,0.4-0.4,1.7-0.7,3.3c-0.3,1.4-0.6,4.7-0.5,5.3s0.2,3,1,4.2c0.3,0.4,1.6,2.7,2,3.4s2,3.1,2.8,4.1
		s2.6,2.8,3.4,3.6c0.4,0.4,1.2,0.9,1.8,1.4c0.9,0.7,1.9,1.2,2.2,1.7c0.3,0.6-0.9,5.1-1.3,5.5s-2.4,2.6-2.6,3.4
		c-0.1,0.9-1.6,3.3-1.6,4s-0.7,2.6-0.7,3.7c0,1.2,0,2.4-0.6,3.1s-1.9,2.4-3.1,2.9c-1.3,0.4-2.3-0.7-2.7-1.1c-0.4-0.4-2-2.8-3.1-2.4
		s-1.8,2.8-1.8,4.7c0,1.8-0.1,6-0.1,7.3s-0.1,3.3,0.7,3.6c0.8,0.3,2.7,0.3,3.4-0.6c0.7-0.9,1.4-3.3,2-4s3.1-1.1,3.4-0.7
		s1.3,3.1,1.6,3.8c0.3,0.7,0.9,2.9,0.9,3.9s-0.7,2.7-1.9,3.9c-1.1,1.1-6.4,4.8-7.8,5.4s-8,3.6-8.7,4s-6.1,3.1-7.1,3.4
		s-5,1.3-5.8,1.4c-0.9,0.1-3.4,0.9-3.8,1.3s-2.6,0-3.4,0.1c-0.9,0.1-1.9,1.4-2.7,1.4c-0.9,0-2.6-0.6-3-1.3c-0.4-0.7-1.1-1.9-0.4-2.3
		s3.1-2.4,4.6-2.6c1.4-0.1,2.8-1.3,2.6-2.3c-0.3-1-1.1-3.9-3-3.6s-7,0-8,0.6s-4.7,1-5.7,1s-5.8-0.6-6.4-0.6s-2.9-1-4.1-1
		c-1.3,0-3.8,0.1-4.8,1.6c-1,1.4-1.1,3.3,0.4,4c1.6,0.7,4.6,1.4,5.4,1.4s1.6,0.6,1.4,1.4s-0.7,2.4-2,2.6c-1.3,0.1-4.6-0.6-5.6-0.3
		c-1,0.3-2.4-0.1-2.9-0.4c-0.4-0.3-1.8-1.3-3-1.3s-3.9-0.1-5.4-0.6c-1.6-0.4-6.9-2.4-8.4-3.1C1311.2,296.6,1304,292.3,1302.1,291.2z
		 M1202.8,357.7c0.9-0.3,3.4-1.9,3.4-1.9s1.5-0.6,2.3-0.6c0.7,0,6.7,0,8.1,0.2c2.2,0.3,8,1.7,9,1.9c1.6,0.4,5.4,1.8,6.6,2.6
		c1.2,0.7,4.9,2.5,6.1,3.3s6.1,3.3,7.3,4.6c1.2,1.3,1.6,2.5,1.6,2.5s-1.8-0.5-2.3-1c-0.6-0.5-5.4-2.6-6.2-3
		c-1.2-0.7-1.9-1.1-2.6-1.5c-0.7-0.3-1.2-0.9-2.8-1.5c-1.3-0.5-3.5-1.3-4.1-1.5c-0.5-0.2-1.3-0.6-2.3-0.9c-0.5-0.1-2.9-0.8-3.5-1.1
		c-0.6-0.3-3.4-0.6-4.6-0.9s-5.5-0.8-6.6-0.8c-1,0-3.6,0.3-4.5,0.8c-0.9,0.4-2.7,1.8-3.3,1.9c-0.6,0.1-1.7-0.1-2.1-0.9
		C1202.2,359.6,1202,358,1202.8,357.7z M1280.1,400.1c-1.8,0.1-8.4-0.6-10-0.6s-10.5-1.2-13.2-1.3c-2.7-0.1-9-1.5-10.2-1.5
		s-5.2-0.9-6-1.2c-1.4-0.4-8.2-3-9.1-3.3s-6.9-2.8-7.6-3.3c-0.8-0.4-7.5-4.8-8.8-5.5c-1.4-0.7-5.5-4.5-6.3-4.8
		c-0.7-0.3-0.9-0.7-2.1-2.1c-1.2-1.3-4.9-6.9-5.1-8.5c-0.1-1.5,2.7-2.7,3.6-2.7s5.2-0.6,6.9-0.2c1.6,0.5,7.7,1.2,8.7,1.4
		c1.5,0.2,3.1,0.8,4.2,1.2c1,0.3,2.7,0.9,3.1,1.2c0.5,0.3,4.3,1.7,5.3,2.3c1,0.6,5.8,3,6.9,3.9c1,0.9,6.9,2.8,7.3,3.4
		s3.9,2.4,4.8,2.7c0.9,0.3,5.7,2.5,6.6,3.4s3.7,2.7,4.8,3.3c1,0.6,5.9,3.8,7.1,4.6c1.3,0.9,5.4,2.6,6.5,3.2c0.9,0.6,3.2,1.7,4.1,2
		c0.7,0.2,5.1,1,5.1,1.9C1286.8,400.6,1281.9,399.9,1280.1,400.1z M1314.1,390.6c-2.2,2.1-5.1,3-7.1,3.5c-2.1,0.6-3.5-0.1-5-0.1
		c-1.2,0-3.6-0.5-4.7-0.5s-5.7-0.8-7.1-1.9s-11.7-6.8-13.1-7.9s-14.1-9.6-15-10.4c-1-0.8-4.1-3.8-5.5-4.4s-7.7-5.7-9.6-6.8
		c-1.9-1.1-9.6-6-10.6-6.6c-0.9-0.6-3.6-2-4.2-2.1c-0.9-0.1-1.9-0.6-1.9-0.6l-2.8-0.6c0,0-1.4-0.5-2.2-0.8c-0.9-0.3-1.4-0.4-2.2-0.6
		c-0.5-0.1-4.5-0.8-6-0.8c-1.4,0-4.7,0.3-5.6,0.3s-4.1,0.3-4.9-0.3c-0.8-0.6-1.1-1.7-0.6-3.5s2.5-5.1,4.3-6.8
		c1.7-1.8,3.9-3.2,4.4-3.8c0.9-0.9,2.1-1.9,3.3-2.4c0.7-0.3,2.6-1.2,3.4-1.4c2.4-0.5,5.3-0.4,7.5,0.2s3.7,0.8,4.8,1.5
		c0.8,0.5,5.8,2.1,7.3,2.7c1.4,0.6,4,1.6,5.1,2.2s6.8,3.3,7.6,4.3c0.8,1,8.7,7,10.7,8.5c2.1,1.6,4.2,2.6,5.1,3.3
		c0.3,0.3,2.2,1.4,2.2,1.4l1.9,1.6c0,0,1.7,1,2.1,1.3c0.8,0.5,1.2,0.9,2,1.5c0.6,0.5,2.6,2.4,3.6,3.1c1,0.6,4.9,3.6,5.9,4.1
		c0.9,0.5,2.4,0.8,2.5,0s0-2.4-0.8-2.9s-3.3-3.2-4-4c-0.6-0.8-0.5-2.2,0-2.7c1-1,5.6-0.5,7.1-0.3c1.6,0.1,7.1,1.9,8.7,2.5
		s5,2.4,6.6,3.8c1.1,0.9,3.8,5.1,3,7.3c-0.8,2.2-2.7,1.7-3.8,1.4c-1.1-0.3-3.5-1-3.5-1s-2.4-1.6-2.5-0.8c-0.2,0.8-0.8,3,0.5,3.6
		s4.5,2.5,6,3.2c1.1,0.5,4.1,2.2,4.9,2.7s2.8,2.1,3.2,2.8C1316,385.4,1316.3,388.6,1314.1,390.6z M1396.3,387.1
		c-1.1,0.6-2.7,1.7-3,2.5s-0.2,3.2,0,4.1c0.1,0.9-1.6,2-2.8,2.2c-1.3,0.2-3.5,0-4.7,0s-8.4-1.1-9.8-0.5s-2.1-0.6-2.7-0.6
		s-6.2-0.3-7-0.3s-0.9-1.4-3.2-1.4c-2.2,0-3.8-0.2-4.7-0.6s-1.9-1.3-3-1s-3.3,1.1-2.8,1.7s3,0.8,3.5,1.4s0.5,2.2,0.5,2.2
		s-0.5,1.1-2.7,1.3c-2.2,0.2-5.2-0.2-6.7,0c-1.4,0.2-6-0.3-6-0.3s0-1.3-0.8-1.3s-2.9-0.1-3.8,0.3c-1,0.5-2.8,0.5-2.8,0.5
		s0.2-1.7-1.6-1.6c-1.7,0.2-2.1,1.7-3.3,1.6c-1.3-0.2-3.5-0.8-4.4-0.8c-1,0-3.5-1.1-3.3-2.8c0.2-1.7,0.2-5.1,0.7-5.9
		s0.7-2.1,0.5-2.9c-0.1-0.6-0.5-2.7-1.2-3.4c-0.6-0.6-3.2-4.3-3.8-4.9c-0.6-0.6-0.8-2-0.8-2.7c0-0.9,0-1-0.2-1.7
		c-0.2-0.8,0.1-0.3-0.3-1.3c-0.3-0.7-0.4-0.7-0.4-0.7s-0.2-2.5-0.8-3.8c-0.6-1.3-1.9-3.6-3-4.3c-1.1-0.6-4.5-3.4-4.7-5.2
		c-0.1-1.1,0.7-4.3,1-5.2c0.3-1,1.2-3.3,1.2-3.8s1.6-5.5,1.9-6.4c0.3-1,0.9-3.4,1.3-4.6c0.3-0.9,0.8-2.3,0.8-2.9s0.4-1.7,0.8-3.2
		c0.3-1.3,1.1-3.5,1.5-5.2c0.5-2.1,0.9-3.2,1-4c0.2-0.8,0.6-3.6,1.1-5s1.3-4,1.9-5.5c0.6-1.6,1.3-3.2,2.1-3.5
		c0.8-0.3,7.3,0.3,8.9,0.8s4.1,1.1,4.7,1.1s5.1,0.2,5.7,0c0.6-0.1,2.8-0.3,3.5-1.4c0.6-1.1,2.2-5.2,2.5-6.2s1.7-2.4,2.4-2.4
		c0.6,0,2.2,1,2,2.2c-0.1,1.3,0.3,3,0.3,4.7c0,2.4,0.2,3.5,1.6,3.5s7.1-0.5,8.4-0.8s4.3-1.4,5.5-1.9c1.3-0.5,3.8-1.1,3.8-1.1
		s3.6-0.8,4.3-0.6c0.6,0.2,2.2,2.2,2.7,2.9c0.5,0.6,1.2,2.7,1.9,3.5c0.8,0.9,2.5,3.6,2.5,3.6c0.8,1.3,2.4,3.3,3.3,4.7
		c1,1.4,3.2,4.1,4.4,5.1c1.3,1,3.6,2.8,4.4,3.2c0.8,0.4,1.5,1.2,2.2,1.6c0.5,0.3,2.2,1.5,2.9,1.9c0.9,0.5,1.2,0.4,1.7,0.8
		c0.5,0.3,2.5,1.1,3.6,1.4s5.2,0.8,6.5,0.8s1.6,0.2,1.9,0.8c0.3,0.6,1.3,2.1,1.3,2.8c0,0.8-2.2,2.2-3.2,3.3c-1,1.1-1.6,1.8-2.5,2.8
		c-0.9,0.9-5,4.1-6.6,6c-1.4,1.6-4.7,6.2-5.4,7.4c-0.6,1-2.7,5.1-3,6.7c-0.4,1.8-1,4.8-0.8,5.8s0.2,5.3,1.3,7.7
		c0.7,1.6,1.7,4,2.2,5.4C1397.1,385.1,1397.4,386.5,1396.3,387.1z M1453.5,391.4c-1,1.1-1.7,2.5-2.6,3.1c-0.7,0.5-1.6,1.4-3.1,2.4
		c-0.8,0.6-1.3,0.9-2.4,1.4c-0.7,0.4-1.9,0.5-3,1c-0.5,0.2-2,0.6-3.3,0.9c-1.5,0.4-3,0.8-4,0.9c-1.1,0.2-3.2,1.1-7.4,1.1
		c-2.7,0-5.5,0.6-6.6,0.5c-1.1-0.2-4.6-0.2-4.6-0.2s-1.9-0.1-2.8-0.4c-0.8-0.2-6.1-0.5-8.4-1.2c-1.2-0.4-1.3-0.6-2-1
		c-0.6-0.3-2.5-1.9-3.6-2.7c-1.1-0.8-2.7-3.3-1.3-5.5c0.5-0.7,1.6-1.1,2.5-0.8c1,0.3,4.3,1,4.9,1.4c0.6,0.5,2.5,1.3,3.6,1.4
		s6.5,0.9,7.9,1.1s9.5,1,12.2,0.8c2.7-0.1,4.2-0.7,5.2-0.9c1-0.1,3.9-0.4,5.5-0.8c1.9-0.4,3.4-1.6,4.7-2.4c1.3-0.8,4.4-3.5,5.5-4.3
		s4.1-3.5,4.7-4.3s3.3-2.2,3-0.5s-1.4,3.4-2.1,4.7C1455.6,388.3,1454.4,390.5,1453.5,391.4z"/>
	<path class="st0" d="M1330.2,86.5c0.8-0.8,1.1-1.1,2.1-2.1c0.9-1,1.5-1.3,2.6-2.4c1-1-0.5,0.3,2.6-2c1.6-1.2,3.4-2.7,4.4-3.5
		c1.4-1.1,3.2-2.3,3.7-2.8c0.5-0.4,1.9-1.1,1.9-1.1s3.8-1.4,6.2,0.1c1.4,0.9,3.8,2.7,3.9,4.3c0.3,2.8-2.4,6.2-4.4,8.1
		s-3.6,3.2-4.3,3.3c-1.3-0.2-4-0.8-4.9-0.9c-2.1-0.4-2.5-0.9-2.5,1.3c0,1.8,0,5.7-0.2,6.7c-0.2,0.9-2.1,2.4-3.2,3s-3.8,2.5-4.4,2.8
		s-3,1-3.6,0.5s-4.4-2.2-4.3-4.7C1325.9,94.4,1327.3,89.4,1330.2,86.5"/>
	<path class="st0" d="M1363.7,91.3c1.1-1.1,3.9-2.9,4.5-3.3c0.8-0.5,3.3-2.2,4.7-2.9c1.3-0.6,4.7-1.9,5.4-2.1c0.6-0.1,2-0.6,3.2-0.5
		c1.5,0.2,2.6,1.2,3.2,1.7c0.3,0.4,1.1,1.6,1.1,2.1s0.3,3.9-0.2,4.9s-2.8,3-3.8,4.3s-2.8,2.7-3.5,3c-0.6,0.3-3.2-1.1-4.1-1.3
		c-1-0.2-2.5-0.5-3-0.2s-1.1,2.8-0.6,4c0.5,1.1,1.7,2.2,1.9,2.7c-0.2,1.3-3.6,3.9-4.6,4.7c-0.9,0.8-3.7,2.5-4.3,2.7
		c-1.2,0.4-3.6,0.6-5.1,0.2c-0.8-0.2-3.3-2.5-4.1-3.8c-0.8-1.3,0-5.2,0.6-6.5c0.7-1.4,1.8-3.5,2.7-4.3c0.8-0.8,3.1-3.3,4-4
		C1362.5,92.2,1363.7,91.3,1363.7,91.3"/>
	<path class="st0" d="M1403.9,123.4c-0.5-1-4.6-3.4-6.5-3.7c-1.9-0.3-5.7,1.4-6.3,1.9c-0.6,0.5,0.5,1.4,1,1.3s2.7,0,3.4,0.3
		c0.6,0.3,1.7,1.2,1.5,1.8c-0.4,1.3-3.9,5.3-6.1,8s-10.1,9.1-12.3,10.7c-2.2,1.6-5.8,3.8-6.6,4.3c-0.6,0.4-3.2,1.7-3.5,1.8
		s-2.5,1-3.4,1.2c-0.8,0.2-7.8,1.7-10.1,2.1c-2.3,0.4-17.7,0.2-18.6,0.2c-0.8,0-5.3-0.6-6.1-1c-0.8-0.3-3.9-1.9-4.6-2.6
		c-0.7-0.7-2.9-0.4-3.7,0.8c-0.7,1.3,0.7,2.7,1.8,3.4c1,0.6,1.7,1.8,2.2,2.3s1.6,2.7,2.3,4.5c0.7,1.8,5,8.4,6,9.4
		c1.1,1,5,4.3,6.3,5.1c1.4,0.7,4.6,2,6.2,2.5s4.7,1.4,6,1.6c1.3,0.2,5.2,0.1,6.1,0c1-0.1,3.1-0.8,4.4-1c1.4-0.2,3-1.5,3.5-1.6
		c0.4-0.1,3.5-1.3,6.5-3.5c4.2-3,8.9-8.3,11.7-14.1c1.2-2.4,5.4-12.1,6.5-14.7c1.2-2.5,3.7-8.6,4.3-10.2c0.6-1.6,1.7-4.6,2-5.8
		s1.6-1.4,2.4-1.4s1.8,0.2,1.9,1.1c0.1,0.8,1,3.1,0.7,3.5c-0.2,0.4,0.9,1.8,1.7,1.8c0.8,0,1.7-3,1.9-4.4
		C1406.8,127.5,1404.5,124.3,1403.9,123.4z M1376.9,165.3c-1.1,1.1-6.3,5-7.4,5.5s-3,2-3.3,2s-2.2,0.3-3,0.6s-3.5,0.8-4.5,0.9
		c-1,0.1-3,0.1-4.4,0.2c-1.4,0.1-4.5-0.3-5.5-0.7s-2.8-1-4.5-1.8c-1.7-0.7-4.4-2.7-5.5-3.4c-1.1-0.6-5.6-4.5-4.7-6.2
		c1.1-2.2,3.5-2.6,4.1-2.7c1-0.3,1.2-0.2,1.6-0.3c0.3-0.1,2.1-0.4,4-0.3c1.9,0.1,2.7,0,3.7,0.8c0.9,0.8,1.5,2.4,0.8,3.3
		c-0.6,0.8-1,2.6-0.3,2.7c0.6,0.1,2.4-0.6,3.2-1.7c0.7-1,2.3-2.3,3-2.7s4.1-1.5,5.6-1.8s4.9-0.7,7.8-0.7c3,0,4.8,1,6,1.2
		c1.2,0.1,2.5-0.1,3.2,0.7C1377.4,161.8,1378,164.3,1376.9,165.3z"/>
	<path class="st0" d="M1435.9,223.1c1.5-0.2,2.8,1.7,2.9,3s0.8,5,0.6,5.6c-0.2,0.6-0.7,2.4-0.9,3.7c-0.2,1.3-1.4,3.9-2.9,3.7
		c-1.5-0.1-2.1-1.4-2.1-1.4s-1.5-1.6-1-2.7c0.5-1,1.5-3.1,1.5-4.8C1433.9,228.7,1433.3,223.4,1435.9,223.1"/>
	<path class="st0" d="M1445.6,222.3c1.9-0.5,3.4,3.1,3.5,4.7c0.1,1.5,0.4,7.4,0,7.9c-0.3,0.5-1.5,3.3-2.3,3.1
		c-0.8-0.1-3.3-1.3-3.5-2.6s0.4-4.4,0.4-5.5s-0.4-5.6,0-6.2C1444,223.2,1445.2,222.4,1445.6,222.3"/>
	<path class="st0" d="M1453.8,221.9c0.8-0.1,2,0.6,2.3,1.3s1,4,0.9,5c-0.1,1.1,0.3,6.3,0.3,6.3s0,1.2-0.9,1.6
		c-0.9,0.5-3.6-1-3.6-1.8c0-0.7-0.1-5,0-5.9C1453,227.5,1452.4,222.2,1453.8,221.9"/>
	<path class="st0" d="M1305.5,230.4c-1.9-2.6-4.7-3.5-6.4-3.6c-2.4-0.2-4.8,2.6-5.4,3.8c-0.6,1.3-1.7,6.3-2,8.4
		c-0.3,2.1-0.2,6.7-0.1,7.8s0.6,5.5,1.1,6.6c0.7,1.6,1.2,2.4,2.3,4c0.9,1.3,3.7,3.1,5.3,3.3c1.6,0.1,4.7-2.1,5.6-4.3
		c0.9-2.1,2-8,2-9.8c0-2.4,0.3-7.4,0.3-10.1C1308.2,235.1,1306.9,232.1,1305.5,230.4 M1303.3,247.3c0.1,1,0.1,1.9-0.2,3.6
		c-0.2,1.4-0.3,2.1-1,3.1s-1.6,1.6-2.8,1.6c-1.3,0-3.1-1.7-3.4-2.6c-0.3-0.8-0.6-3.5-0.7-4.3c-0.1-0.7-0.2-2.2-0.3-3.6
		c-0.1-1.3,0.6-4.1,0.6-5.3c0-1.5,0.3-2.9,0.4-4.3c0.1-1.4,1.3-3.8,3.1-4c2.1-0.2,2.9,1.4,3.4,2.1c0.6,0.7,0.4,3.2,0.7,4.2
		c0.3,1,0.1,2.1,0.2,3.4c0.1,1.3,0.2,2.8,0.1,3.7C1303.3,245.7,1303.1,246.3,1303.3,247.3"/>
	<path class="st0" d="M1348.6,242.8c-0.7-1.7-2.7-3.8-4.1-4.6c-1.2-0.6-4.8-2.2-7.7-2.1c-2.5,0-5.1,0.6-8.1,3.1
		c-3,2.6-3.7,7.3-3.8,9.3c-0.2,2,0,6.8,0.4,8.7c0.4,1.9,1.8,8.3,4.4,10.4s9.3,2.7,12.4,1c3.3-1.8,4.9-5.6,5.8-7.1
		c1.2-2.1,2.1-6.7,2.7-9.6C1351.1,249,1349.3,244.5,1348.6,242.8 M1344.9,254.2c-0.4,3.7-2.6,7.1-3.6,8c-1,0.9-4.5,1.7-6.6,1
		c-2.9-1-4.6-4.4-5.1-7.3c-0.6-2.8-0.6-5.4-0.6-6.1c0-0.7,0.1-3.8,1.7-5.7c1.7-2,3.8-3.3,6.3-3.3c1.7,0,3.3,0.8,4.3,1.6
		c1.5,1.2,2.4,2.8,3,5.4C1344.6,249.1,1345.1,251.5,1344.9,254.2"/>
	<path class="st0" d="M1338.4,388.3c0.5-1.1,1.5-0.8,1.9-0.5s3,1,3.4,1.3c0.4,0.2,2.6,1.9,3.4,2.4s2.2,2.1,2.2,2.1s-2.6,0.6-3.2,0.3
		c-0.6-0.3-3-1-3.7-1.5C1341.8,392,1338.2,388.8,1338.4,388.3"/>
</g>
</svg>
