<?xml version="1.0" encoding="utf-8"?>
<!-- Generator: Adobe Illustrator 27.0.1, SVG Export Plug-In . SVG Version: 6.00 Build 0)  -->
<svg version="1.1" id="Слой_1" xmlns="http://www.w3.org/2000/svg" xmlns:xlink="http://www.w3.org/1999/xlink" x="0px" y="0px"
	 viewBox="0 0 1000 311" style="enable-background:new 0 0 1000 311;" xml:space="preserve">
<style type="text/css">
	.st0{fill:#FFFFFF;}
</style>
<g id="g5888">
	<g id="g3357">
		<path id="path3359" class="st0" d="M268.9,108.7l3,6.6l1.4-7.1l7.2-0.8l-6.3-3.6l1.4-7.1l-5.3,4.9l-6.3-3.5l3,6.6l-5.3,4.9
			L268.9,108.7z"/>
	</g>
	<g id="g3361">
		<path id="path3363" class="st0" d="M304,305.8h-14.4l-0.9-7.4l-1.2-1.2l-2.6-33.4l1.4-2.5V254c-1.1-0.5-2.6-0.7-5.1-0.9l0.7-1.3
			v-4.2l1-0.6c-0.8-1.3-7.7-15.3-7.7-15.3s-0.2-5.1-0.3-8.7c0.9,0.2,2.4-0.1,2.5,0.7c0-0.8,0-2,0-2c0-0.4-0.6-0.6-1.5-0.6
			c-0.6,0-0.8,0-1-0.1c0-0.5,0-0.9,0-1.1c0-0.7-0.6-0.7-0.6,0v11.9c-1.2,2.6-7.9,15.1-7.9,15.1l0.8,0.7v4.4c0,0,0.5,0.9,0.9,1.4
			c-2.1,0.1-3.7,0.3-4.5,0.6c0,0,0,5.2,0,5.8c0,0.6,0.4,1.1,0.4,1.1l0.8,0.3v1.3h-3.6l-3,1.4v3.6h-2v-2H254v2h-1.8v-2h-2.5v2.1h-2.2
			c0,0-0.3-2.5-0.3-3c-0.1-0.5-0.3-1.4-0.7-1.8l0.7-0.9l-7.4-9.4v-3.3h-2c-0.1-1.5-0.5-14.1-0.5-14.1l2.3-4.2v-6.2
			c-0.7-0.3-1.9-0.4-3.2-0.4v1.8h-1.6v-7.5h1.2c-3.3-6.8-7.1-14-8.2-29.1c0.3,0,0.8,0,1.4-0.3c0.6-0.3,1.1-0.1,1.3,0
			c0.4,0.2,0.7,0.3,1.2,0l-0.1-2c-0.3,0.2-0.7-0.1-1.1-0.3c-0.5-0.2-0.9-0.2-1.3,0c-0.5,0.2-0.8,0.4-1.5,0.1c0-0.6,0-0.8-0.3-0.8
			c-0.1,0-0.2,0.1-0.2,0.3c-0.8,17.3-4.3,25.1-6.9,32.1l1.3-0.1l0,7.6l-1.3,0.1l0-1.9c-0.9,0-2.3,0.1-3,0.2v6.2l2.2,4.3
			c-0.1,2.4-0.3,7.6-0.3,7.6l-2.2-5.7l-6-0.1v-12.6c0.6-1.2,2-2.3,2-2.3v-10c1-1.7,1-3.4,1-3.4h-1.1l-2.4-11.2l-2.5,10.7
			c-2.7-6.7-2.6-14.1-2.6-14.1h-0.2l-0.6,2.1h-2.7c0,0-0.5-1.6-0.5-2l-0.2,0c-0.2,4.8-1,7.6-2,10.9l-2.6-7.3l0.9-2.5
			c0,0-3.4-18.3-3.7-20.5c-0.2-1.5,0.5-2.9,1.7-3.9l-0.3-4.6c0.5-0.7,0.7-1,0.8-1.2c0.1-0.2,0.1-0.5-0.1-0.6
			c-0.2-0.1-0.7-0.4-0.7-0.4l-0.8-8.8c0,0-0.8,3.9-1,4.4c-0.1,0.5-0.4,0.7-0.5-0.1c-0.1-0.7-2.7-44-2.7-44.6c0-0.6-0.2-0.7-0.4-0.7
			c-0.2,0-0.4,0.1-0.4,0.7c0,0.6-2.6,43.8-2.7,44.6c-0.1,0.8-0.3,0.6-0.5,0.1c-0.1-0.5-0.9-4.4-0.9-4.4l-0.8,8.8
			c0,0-0.5,0.3-0.7,0.4c-0.2,0.1-0.3,0.4-0.1,0.6c0.1,0.2,0.3,0.5,0.8,1.2l-0.4,4.6c1.2,1,1.8,2.6,1.8,4.1l-5.5,0c0,0,0-5.5,0-7.5
			c0-2,1.1-2.4,1.5-2.7c0,0,0.3-2,0.3-2.4c0-0.4-0.5-0.9-0.6-1l0-1.5c0,0,0,0,0.4-0.5c0.4-0.4,0.3-0.8,0.2-1.1
			c-0.1-0.3-0.3-1.1-0.8-2.6v-4.2l-1.5,1l-1.6-0.8c-0.3-5.5-1-26.3-1-38.9c1.8-1.5,1.6-3.7,1.4-4.7c2.4-0.9,1.4-3.5,1.1-4.6
			c-0.3-1.1,0-1.4,0.5-1.9c-0.7-0.3-3-0.6-4.7-0.7V80.4h-1.6c0,0,0,5.5,0,6.1h-0.6c0,0-0.9-12-1.7-23c0.6,0.1,1.2,0.2,1.8,0.2
			c32.7,4.9,62.3,16.9,87.1,34c-25.1-17.9-55.4-30.6-89-35.8c-0.6-8.5-1.2-16.1-1.2-16.3c0-0.5,0.1-0.8,0.2-0.9c0.1-0.1,1-0.7,1-0.7
			l0.4-1.6h-1.3c0,0-0.2-5.7-0.2-6.6c0.4-0.2,0.6-0.6,0.6-1c0-0.5-0.3-0.9-0.7-1.1l-0.1-3.6c1.1-0.6,2.4-0.4,3.2,0.3
			c0.8,0.8,1.3,0.8,2,0.7c1-0.1,1.7,0,2.2,0.5l0-4.2c-0.8-0.6-1.1-0.5-2.2-0.4c-0.8,0.1-1.3-1.3-3-1.6c-0.7-0.1-1.5-0.1-2.3,0.2
			l0-1.2c0.4-0.1,0.7-0.5,0.7-0.9c0-0.5-0.4-1-1-1c-0.5,0-1,0.4-1,1c0,0.4,0.3,0.8,0.6,0.9l-0.2,9.2c-0.4,0.2-0.8,0.6-0.8,1.1
			c0,0.5,0.3,0.8,0.6,1.1c0,0.9-0.2,6.6-0.2,6.6h-1.3l0.4,1.6c0,0,0.9,0.6,1,0.7c0.1,0.1,0.2,0.3,0.2,0.9c0,0.2-0.5,7.5-1.2,15.8
			C104.9,52.9,45.2,73,5.5,111V5.2H304V305.8z M229.6,220l-2.7,1.9h0.9l0,4c-0.7,0-1.2,0-1.8,0L226,224c-1.3,0-2.3,0-3.2,0.1l0-5.6
			c0.9-0.1,4.1-0.3,6.8-0.3V220z M227.2,231.1c-0.4,0-1,0.1-1.5,0.1v1.7l-1.5-1.7c-0.4,0-1.1,0-1.4,0v1.6l-1.4-1.6
			c-0.7-0.1-1.7,0-2.1,0.1l-0.1-0.8c1.1-0.1,5.9-0.2,7.9-0.2C227.2,230.4,227.2,231.1,227.2,231.1z M219.7,251.5h-2.4V248h2.4V251.5
			z M213.8,245.6h-2.5v-3.6h2.5V245.6z M222.4,267.4h-2v-2.1h-2.2v2.1h-2.3v-2.1h-2.3v2.2h-2.1v-2.2h-2.3v2.1h-1.4l0.1-2.4
			c1.4-0.7,3.9-2.4,8-2.6v-3.6c-1.2,0-1.8,0-2.3,0c-0.5,0-0.5-0.3-0.5-0.6v-1c0,0-0.1-0.7,0.6-0.8c0.7-0.1,3.4-0.6,7.2-0.1
			c0,1.2,0,4.8,0,5.3c0,0.3,0.1,0.9,1.7,1.1L222.4,267.4z M203.5,265.3v2.1l-1.2,0l-0.7-16.9l-0.2,12.4l-0.6-0.8l-1.6,2.3l0,2
			l-0.6,1c-1.3,0-1.3,0-1.3,0v-1.6h-1.3v-4.4h-10.5v-6.7c-1.1-2-3.5-3.7-3.2-4.4c0.3-0.8,0.9-0.7,1.2-0.7v-1.9l-0.5-0.4V246h18.6
			v-2.1h3.5v18.5l1,2.9H203.5z M194.2,266.9h-1.6v-2.2h1.6V266.9z M209.3,210.6v-1.2h3.1c0,0.3,0,1.2-0.7,1.2
			C211.1,210.6,209.3,210.6,209.3,210.6z M203.5,210.2c0.3,0,0.3-0.8,1.1-0.8c0.7,0,0.7,0.8,1.1,0.8c0.4,0,0.3-0.5,0.3-0.5l0.4-0.2
			l0.5,0.3l0,4c0.4,0,0.8,0.1,0.8,0.7c0,0.5-0.4,0.6-0.7,0.6c0,0.9-0.2,1.1-0.6,1.2c-0.3,0-0.5-0.3-0.5-1h-2.5c0,0.7-0.2,1-0.5,1
			c-0.4,0-0.6-0.2-0.6-1.2c-0.4,0-0.7-0.1-0.8-0.6c0-0.6,0.5-0.7,0.8-0.7l0-4l0.5-0.3l0.4,0.2C203.2,209.7,203.1,210.2,203.5,210.2z
			 M195.3,222.4v-4.9c0,0,0.8-1.1,0.9-1.3c0.1-0.2,0.2-0.2,0.3-0.2c0.1,0,0.2,0.1,0.3,0.2c0.1,0.2,0.5,0.8,0.9,1.3l0,4.9H195.3z
			 M192.5,214v-4.9c0,0,0.8-1.1,0.9-1.3c0.1-0.1,0.2-0.2,0.3-0.2c0.1,0,0.2,0.1,0.3,0.2c0.1,0.2,0.5,0.7,0.9,1.3l0,4.9H192.5z
			 M185.2,204.5c0.1,0.2,0.4,0.7,0.7,1.1l0,5.2H184v-5.2c0,0,0.6-0.8,0.7-1c0.1-0.1,0.1-0.2,0.2-0.2
			C185.1,204.3,185.1,204.4,185.2,204.5z M188.1,190.7h-3V186h3V190.7z M188.4,156.8c0.5-0.3,1.7-0.3,2.3,0l-0.5,6.3
			c-0.3-0.2-0.8-0.2-1.2,0L188.4,156.8z M188.7,205.6l0,5.2h-1.8v-5.2c0,0,0.6-0.8,0.7-1c0.1-0.1,0.1-0.2,0.2-0.2
			c0.1,0,0.2,0.1,0.2,0.2C188.1,204.7,188.4,205.2,188.7,205.6z M181.1,236h-1.4l-1.9-20.6l1.6-0.9l1.4,0.8v3l1.3,0
			c0-1.4,0.3-4.2,0.3-4.2l-1.1-0.3v-1.3h7.6l0.2,1.2l-0.8,0.4l1.5,15.9h0.8V226c0,0,0.8-1.1,0.9-1.3c0.1-0.2,0.2-0.2,0.3-0.2
			c0.1,0,0.2,0.1,0.3,0.2c0.2,0.2,0.5,0.7,0.9,1.3l0,4.9h-0.6c0.6,0.9,1.2,2.2,1.4,3.4l6,0.8v-17.2h9.8v-2.3c0-0.5-0.1-0.9-0.9-1
			v-2.5l2.4,0v9.7c-0.5,0.4-1.7,2-2.2,3v7.3l-4.6,2.1v3.5h-5.7l-0.1,1.6H196v2.4h-3.3v1.4h-2.2v-1.4h-2l0,1.4h-2.1v-1.4h-2.2v1.4
			h-2.3L181.1,236z M179.9,256.7h-2.5v-3.1h2.5V256.7z M176.6,205.6c0,0,0.6-0.8,0.7-1c0.1-0.1,0.1-0.2,0.2-0.2
			c0.1,0,0.2,0.1,0.2,0.2c0.1,0.2,0.4,0.7,0.7,1.1l0,5.2h-1.8V205.6z M178.7,180.5v6.5l-1.8-0.4v-6.5L178.7,180.5z M181.7,202.3
			c0.2,0.3,0.8,1,1.4,1.8l0,6.8h-3.7v-6.8c0,0,1.2-1.5,1.5-1.8c0.2-0.2,0.3-0.3,0.5-0.3S181.6,202.1,181.7,202.3z M181.2,196.7h-1.5
			v-19.4l1.5,0.4L181.2,196.7z M175.3,154.9c2,0.3,3.5,0.5,4.7,1.1c0.2,0.7,0.5,1.9,0.5,1.9c-0.9-0.4-3.3-0.9-4.7-1
			C175.4,156.9,175.5,155.6,175.3,154.9z M175.4,165.4v-2.8l0-0.2c0,0-0.3,0-0.6-0.1c0.5-0.6,0.5-1.6,0.5-2c1.7,0.1,3.8,0.6,4.5,0.8
			c0.7,0.2,1.4,0.5,1.6,0.8c0.2,0.2,0.2,1.1-0.2,1.3c-0.4,0.2-0.8,1.8-0.9,2.1c-0.1,0.4-0.2,0.3-0.3,0.3v-2.5
			c-0.7-0.2-1.6,1.6-1.8,2.3c-0.1,0.4-0.5,0.2-0.5,0.2v-2.7c-1-0.1-1.6,1.8-1.8,2.2C175.8,165.5,175.6,165.5,175.4,165.4z
			 M175.9,195.6h-1.6l0-24.6l1.6,0.6V195.6z M175.5,210.8h-1.8v-5.2c0,0,0.6-0.8,0.7-1c0.1-0.1,0.1-0.2,0.2-0.2
			c0.1,0,0.2,0.1,0.2,0.2c0.1,0.2,0.4,0.7,0.7,1.1L175.5,210.8z M173.4,95.5l0,5.3h-1.3l0-5.4L173.4,95.5z M173.4,92.4
			c0.3,0,0.3,0.7,0,0.7c0,0.6-0.2,1.4-0.6,1.4v0l0,0c0,0,0,0,0,0v0c-0.4,0-0.6-0.8-0.6-1.4c-0.3,0-0.3-0.7,0-0.7
			c0-0.8,0.2-1.5,0.6-1.5v0c0,0,0,0,0,0v0v0C173.2,90.9,173.4,91.6,173.4,92.4z M172.2,243c-0.2-0.4-0.5-1.2-0.7-1.2
			c-0.2,0-1.2,0-1.4,0c-0.1,0-0.2,0.1-0.3,0.2c-0.1,0.1-0.3,0.8-0.3,1c-0.4,0-2.7,0-2.7,0v-1.6l-1.1-1.4h1.1c0.2,0,0.3-0.1,0.3-0.5
			v-2.7c0-0.1-0.1-0.3-0.4-0.3s-1.1,0-1.1,0l-4.7-20.6c0,0-0.1-17.4,0-17.5c0.1-0.2,0.5-0.4,0.8-0.1c0.4,0.4,0.3,0,0.3-0.2
			c0-0.3-0.2-1-1-1.2c-0.3-0.6-0.7-1.7-1-1.7c-0.3,0-0.6,1.2-0.8,1.6c-0.7,0.1-1.1,0.5-1.1,1.2c0,0.6,0.2,0.3,0.3,0.1
			c0.3-0.3,0.7-0.2,0.8,0.1v2.7h-2.9c0,0-0.8-2.7-1.2-2.7v0c-0.4,0-1.2,2.7-1.2,2.7h-2.9v-2.7c0.2-0.3,0.6-0.4,0.8-0.1
			c0.1,0.1,0.4,0.5,0.3-0.1c0-0.7-0.4-1.1-1.1-1.2c-0.2-0.4-0.5-1.6-0.8-1.6c-0.3,0-0.7,1.1-1,1.7c-0.8,0.2-1,0.9-1,1.2
			c0,0.2-0.1,0.5,0.3,0.2c0.3-0.3,0.7-0.1,0.8,0.1c0.1,0.2,0,17.6,0,17.6l-4.7,20.6c0,0-0.8,0-1.1,0c-0.3,0-0.4,0.2-0.4,0.4
			c0,0.1,0,2.3,0,2.7c0,0.4,0.1,0.4,0.3,0.4h1.1l-1.1,1.4v1.6c0,0-2.2,0-2.7,0c0-0.2-0.2-0.9-0.3-1c-0.1-0.1-0.1-0.2-0.3-0.2
			c-0.1,0-1.2,0-1.4,0c-0.2,0-0.5,0.8-0.7,1.2h-2.3c0,0,3.9-50,3.9-51.3c-1.6-1.6-2.9-4.8-2.8-5.1c0.1-0.2,1.1-0.2,1.5-0.2h16.5
			h16.5c0.5,0,1.4,0,1.5,0.2c0.1,0.2-1.3,3.4-2.8,5.1c0,1.3,3.9,51.3,3.9,51.3H172.2z M174.3,256.7h-2.5v-3.1h2.5V256.7z
			 M166.8,247.9V246h7.4v1.9l-2.8,0c0,1.2-1.9,1.2-1.9,0L166.8,247.9z M172.2,276.4h-1.7v2.9l-1.6,0.8l-1.7-0.8l0-2.9h-1.7l0-3.3
			h6.7V276.4z M167.1,289.2L167.1,289.2l-0.9,0.1l0-2.3c0-2.2-0.7-4.4-2-6v-2h0.5c1.9,2.4,2.4,5.3,2.4,6.7
			C167,287,167.1,289.2,167.1,289.2z M155.4,281h-0.7v-0.9c0.2,0,0.5,0,0.7,0c0.2,0,0.5,0,0.7,0v0.9H155.4 M155.4,281.7h0.7l0.5,1.3
			l0.5-1.3h1.4l0.5,1.3l0.5-1.3h1.3l0.5,1.3l0.4-1.2c2.4,1.6,3.4,4.2,3.4,6.7c0,0.9-0.1,7.3-0.1,7.3h-1.3v2.4h1.3v4.9l0.9,0.6
			l0.4,2.2h-22l0.4-2.2l0.9-0.6v-4.9h1.3v-2.4h-1.3c0,0-0.1-6.4-0.1-7.3c0-2.5,1-5.1,3.4-6.7l0.5,1.2l0.5-1.3h1.3l0.5,1.3l0.5-1.3
			h1.3l0.5,1.3l0.5-1.3H155.4 M147.7,247.2h2.2v15.2h-2.2V247.2z M152.4,243c-0.9-0.3-2.8-0.3-3.4,0l-0.7-0.8c1.1-0.7,1.7-1.9,2-2.5
			c0.3-0.6,0.6-0.6,0.9,0c0.3,0.7,1.1,1.9,2,2.5L152.4,243z M153.6,262.4h-2.2v-15.2h2.2V262.4z M153.6,275.5h-1.3v-0.3
			c0.4-0.1,0.8-0.2,1.3-0.2V275.5z M152.4,277.5v-1.4h1.3v1.2C153.2,277.4,152.8,277.4,152.4,277.5z M152.4,280.4
			c0.4-0.1,0.8-0.2,1.3-0.2v0.8h-1.3V280.4z M151.3,280.7v0.3h-0.7C150.8,280.9,151,280.8,151.3,280.7z M150.1,276.1h1.2v1.7
			c-0.4,0.1-0.8,0.3-1.2,0.5V276.1z M147.8,279h1c-0.4,0.2-0.7,0.5-1,0.8V279z M149,276.5v1.9h-1.3v-1
			C148.1,277,148.6,276.7,149,276.5z M155.4,276.1h0.7v1.1c-0.2,0-0.4,0-0.7,0h0c-0.2,0-0.5,0-0.7,0v-1.1H155.4 M155.4,275.5h-0.7
			v-0.6c0.2,0,0.4,0,0.7,0h0c0.2,0,0.5,0,0.7,0v0.6H155.4 M158.4,275.2v0.3h-1.3V275C157.6,275,158,275.1,158.4,275.2z M157.2,247.2
			h2.2v15.2h-2.2V247.2z M161.8,243c-0.6-0.3-2.5-0.3-3.4,0l-0.8-0.8c1-0.6,1.7-1.8,2.1-2.5c0.3-0.6,0.6-0.6,0.9,0
			c0.3,0.6,0.9,1.8,2,2.5L161.8,243z M163.1,262.4h-2.2v-15.2h2.2V262.4z M164.1,278.3C164.1,278.3,164.1,278.3,164.1,278.3
			L164.1,278.3L164.1,278.3z M163.1,279v0.8c-0.3-0.3-0.6-0.6-1-0.8H163.1z M161.8,276.5c0.5,0.3,0.9,0.6,1.3,0.9v1h-1.3V276.5z
			 M159.5,277.8v-1.7h1.2v2.1C160.3,278.1,159.9,277.9,159.5,277.8z M159.5,280.7c0.2,0.1,0.5,0.2,0.7,0.3h-0.7V280.7z M158.4,277.5
			c-0.4-0.1-0.8-0.2-1.3-0.2v-1.2h1.3V277.5z M157.2,280.2c0.4,0,0.9,0.1,1.3,0.2v0.6h-1.3V280.2z M143.7,289.2c0,0,0-2.2,0-3.5
			c0-1.4,0.5-4.3,2.4-6.7h0.5v2c-1.3,1.7-2,3.8-2,6l0,2.3L143.7,289.2L143.7,289.2z M141.9,280.1l-1.6-0.8v-2.9h-1.7v-3.3h6.6l0,3.3
			h-1.7l0,2.9L141.9,280.1z M136.5,247.9V246h7.4v1.9l-2.8,0c0,1.2-1.9,1.2-1.9,0L136.5,247.9z M138.4,256.7h-2.5v-3.1h2.5V256.7z
			 M135.7,225c0,0.1,0,0.2-0.1,0.5c-0.1,0.5,0,0.6-0.5,0.6c-0.6,0-1,0.3-1,0.6c0,0.7,0.2,1.5,0,1.7c-0.3,0.3-1.7,1.1-1.7,0.4v0
			l0-2.7h-1.6l0,1.7h-1.5v-1.7h-1.5v1.8h-1.7l0-1.8h-1.6v1.8l-1.6,0v-1.8h-1.5v1.8l-1.6,0v-1.8H118v1.8h-1.6l0-1.8h-1.5v1.8h-1.6
			v-1.8h-1.6v1.7H110v-1.8c0,0-0.5,0-0.9,0c-0.4,0-0.4,0.3-0.4,0.6c0,0.3,0.5,10.9,0.8,14.5h-3c0-1,0.9-13.6,0.9-14.4
			c0-0.8-0.6-0.8-1-0.8c-0.3-0.1-0.5-0.3-0.5-0.4v-1.1h26.9v-1.3c0,0-25-0.1-25.5,0c-0.5,0.1-0.6,0-0.9-0.2c-0.3-0.2-0.8-0.8-1.1-1
			c-0.3-0.3-0.3-0.6,0-0.6h30.1c0.7,0,0.9,0.2,0.8,0.4c-0.3,0.4-0.8,0.9-1.1,1.4c-0.1,0.6-0.2,1.2,0.1,1.3
			C135.7,224.6,135.7,224.7,135.7,225z M132.8,256.7h-2.5v-3.1h2.5V256.7z M121.5,247.1h-9.3V246h9.3V247.1z M124.6,267.4h-2.1v-2.1
			h-2.2v2.1H118v-2.1h-2.3v2.2h-2.2v-2.2h-2.3v2.1h-2.1v-2.1h-2.2c0,0,5.9-9.8,6.4-10.6c0.5-0.8,0.9-0.9,1.3-1
			c0.4-0.2,3.1-1.3,3.1-1.3l0-2h-1.3v1.3l-1.3,0v-1.3h-1.4v1.4h-1.3v-1.4h-1.4v1.4l-1.3,0v-1.4h-1.3v1.3h-1.3v-2.5h13.7v6.1l4,4
			V267.4z M101.8,267.7v-2.4h-2.5c0.2-4.8,0.7-14.8,0.7-16.1l-1-2c1.2-0.3,3.6-0.2,4.6,0c-0.3,0.6-1,2-1,2
			c0.4,5.5,1.4,18.5,1.4,18.5H101.8z M98.1,233.1h-1.6v-3.2h1.6V233.1z M93.8,244.5h-1.4v-3.7h1.4V244.5z M90.9,239.1
			c-1.5,0-3.3,0-4.7,0.3c-0.3,0-0.3-0.1-0.3-0.9c0-0.5,0-0.7,0.2-0.8c1.6-0.3,3.5-0.4,4.8-0.3c0.4,0,0.3,0.2,0.3,0.5
			c0,0.3,0,0.7,0,0.9C91.4,238.9,91.3,239.1,90.9,239.1z M105.1,182.6h1.6v2.6h-1.6V182.6z M108.4,182.6h1.6v2.6h-1.6V182.6z
			 M111.8,182.6h1.6v2.6h-1.6V182.6z M115,182.6h1.5v2.6H115V182.6z M118,182.6h1.4v2.6H118V182.6z M119.2,177.9
			c1.4,0.3,0.6,0.3,0.6,0.7c0,0.2,0,2.8,0,2.8c-0.3,0-1.4,0-1.4,0v-2.1c-0.2,0-0.7,0-1,0l0,2.2c-0.7,0-1.3,0-1.5,0l0-2.2
			c-0.4,0-1,0-1.2,0l0,2.2c-0.4,0-1.3,0-1.6,0v-2.2c-0.4,0-1,0-1.3,0c0,0.5,0,2.2,0,2.2c-0.5,0-1.2,0-1.7,0v-2.2c-0.5,0-1,0-1.3,0
			c0,0.6,0,2.2,0,2.2c-0.5,0-1,0-1.5,0v-2.2c-0.5,0-0.8,0-1.1,0l0,2.2c-0.5,0-1,0-1.4,0l0-3.6c1.4-0.1,4-0.2,5.8-0.2
			C113.2,177.6,117.8,177.6,119.2,177.9z M106.3,195.2h-1.6v-2.4h1.6V195.2z M103.5,195.2h-1.6v-2.4h1.6V195.2z M102.8,198.6
			c0,0,0.9-1.1,1.1-1.3c0.1-0.1,0.2-0.2,0.4-0.2c0.2,0,0.2,0.1,0.3,0.2c0.2,0.2,0.6,0.8,1,1.3l0,5.1h-2.8V198.6z M103.8,181.3h-1v-2
			h1V181.3z M102.1,182.6h1.4v2.6h-1.4V182.6z M107.4,192.7h1.6v2.4h-1.6V192.7z M111.6,207.2h3l-0.8,1.4v2.9
			c-0.4,0.3-1.2,0.3-1.5,0v-2.9L111.6,207.2z M119.8,192.8v2.3H117v-4.6l-0.7-0.9l-0.8,1v4.5h-1.9v-4.6l-0.9-1l-0.9,1v4.6l-1.8,0
			c0,0,0-1.7,0-2c0-0.3,0.3-0.5,0.6-0.7v-3.3c0,0-6.3-0.1-6.9,0c-0.5,0.1-1.3-0.2-0.1-0.6c4-1.4,9.1-1.9,16.4-2l0,4
			c-0.8,1-1,1.4-1.1,1.7C119,192.5,119.4,192.6,119.8,192.8z M125.4,193.2l0,12h-4.2v-12c0,0,1.3-2,1.6-2.4c0.2-0.3,0.3-0.5,0.5-0.5
			c0.3,0,0.4,0.3,0.5,0.4C124,191.2,124.8,192.3,125.4,193.2z M130.9,193.2l0,12h-4.2v-12c0,0,1.3-2,1.6-2.4
			c0.2-0.3,0.3-0.5,0.5-0.5s0.4,0.3,0.5,0.4C129.6,191.2,130.3,192.3,130.9,193.2z M138,181.8v3.9h-2l0-3.9l1-1.2L138,181.8z
			 M145.6,151.6h-1.5v-2.1h1.5V151.6z M145,160.8h-1.8v-2.6h1.8V160.8z M141.9,152.6h-1.2v-2.6h1.2V152.6z M140.1,172.6
			c-0.3-0.4-0.5-1.1-0.5-2c1-0.5,4.5-0.4,5.5,0c0,0.9-0.3,1.7-0.5,2C143.7,172.4,141,172.4,140.1,172.6z M143.9,184.9h-2.3v-2.5
			c-1-0.4-1.4-0.6-1.8-1c-0.4-0.4-0.2-0.7,0.2-0.6c0.4,0.1,1,0.1,1.5,0.2v-3.1c-0.9,0-0.7-1.1-0.1-1.1c0.4,0,0.4-0.3,0.4-0.5v-1.2
			c0-0.5-0.1-0.5-0.6-0.5c-0.3,0-0.7,0-1.1,0c-0.6,0-0.4-0.1-0.2-0.4c0.1-0.2,0.4-0.5,0.6-0.5c0.8-0.1,2.9-0.1,3.7,0.1
			c-0.1,0.7-0.5,1.8-0.5,1.8C143.8,177.1,143.9,184.9,143.9,184.9z M146.3,153.8h1.5v3.2h-1.5V153.8z M157.9,181h3.7v2.3h-3.7V181z
			 M152.4,114.5h-1v-2.9h1V114.5z M155.4,161.5C155.4,161.5,155.4,161.5,155.4,161.5C155.4,161.5,155.4,161.5,155.4,161.5
			 M155.4,167.9h-3.1v-3.3c-0.3,0-0.4-0.2-0.2-0.4c0.2-0.2,0.8-0.9,0.8-0.9h1.4c0.5-1,0.8-1.8,1.1-1.8v0c0,0,0,0,0,0c0,0,0,0,0,0v0
			c0.2,0.1,0.6,0.8,1.1,1.8h1.4c0,0,0.6,0.7,0.8,0.9c0.2,0.2,0.1,0.4-0.2,0.4v3.3H155.4 M149.9,114.5h-1v-2.9h1V114.5z M149.2,181
			h3.7v2.3h-3.7V181z M153.3,179.9l0-5.3c0,0-0.8,0.8-1.5,1.2l-0.5-0.3v-4.7c0,0-0.6-0.7-0.9-0.9c-0.2-0.2,0-0.3,0.1-0.4
			c0.3-0.1,0.8-0.1,1.4-0.1c0.6,0,1.1,0.1,1.4,0.1c0.3,0.1,0.4,0.2,0.2,0.4c-0.3,0.3-0.6,0.7-0.9,0.9v2.3l2.7-2.9v0v0l0,0v0l2.7,2.9
			v-2.3c-0.2-0.2-0.6-0.6-0.9-0.9c-0.2-0.2-0.1-0.3,0.2-0.4c0.3-0.1,0.7-0.1,1.4-0.1c0.6,0,1.1,0.1,1.4,0.1c0.2,0.1,0.4,0.1,0.2,0.4
			c-0.2,0.2-0.9,0.9-0.9,0.9c0,0.6,0,4.7,0,4.7l-0.5,0.3c-0.7-0.4-1.5-1.2-1.5-1.2l0,5.3l-2.1,1.8v0h0v0L153.3,179.9z M167.2,100.7
			H166l0-5.3l1.3-0.1L167.2,100.7z M167.2,92.4c0.3,0,0.3,0.7,0,0.7c0,0.6-0.2,1.4-0.6,1.4v0c0,0,0,0,0,0c0,0,0,0,0,0v0
			c-0.4,0-0.6-0.8-0.6-1.4c-0.3,0-0.3-0.7,0-0.7c0-0.8,0.2-1.5,0.6-1.5v0v0C166.9,90.9,167.2,91.5,167.2,92.4z M170.2,184.9h-2.3
			v-2.5c-1-0.4-1.4-0.6-1.8-1c-0.4-0.4-0.2-0.7,0.2-0.6c0.4,0.1,1,0.1,1.5,0.2v-3.1c-0.9,0-0.7-1.1-0.1-1.1c0.4,0,0.4-0.3,0.4-0.5
			c0-0.4,0-0.9,0-1.2c0-0.5-0.1-0.5-0.6-0.5c-0.3,0-0.7,0-1.1,0c-0.6,0-0.4-0.1-0.2-0.4c0.1-0.2,0.4-0.5,0.6-0.5
			c0.9-0.1,2.9-0.1,3.7,0.1c-0.1,0.7-0.5,1.8-0.5,1.8C170.1,177.1,170.2,184.9,170.2,184.9z M171.4,170.6c0,0.9-0.3,1.7-0.5,2
			c-0.9-0.2-3.6-0.2-4.5,0c-0.3-0.4-0.5-1.1-0.5-2C166.9,170.2,170.4,170.2,171.4,170.6z M170.5,95.3v5.4c-0.3,0-1.3,0-1.7,0v-5.4
			C169.3,95.3,170,95.2,170.5,95.3z M170.4,92.2c0.4,0,0.4,0.8,0,0.8c0,0.9-0.3,1.5-0.7,1.5v0c0,0,0,0,0,0v0l0,0
			c-0.4,0-0.7-0.6-0.7-1.5c-0.4,0-0.4-0.8,0-0.8c0-1,0.4-1.4,0.7-1.5v0h0h0v0C169.9,90.7,170.3,91.2,170.4,92.2z M85.9,249
			l-12.1,14.4c-1.3-1.2-3.9-4.4-4.6-7.3c-0.9,2.9-2.8,5.5-4.4,7.1c-0.5,0.5-0.2,0.7,0.1,0.8c0,1.5-0.1,3.3-0.2,3.5l-1.6,0l0-1.7h-2
			l0,1.7h-1.6l0-1.7h-2l0,1.7h-1.7c0-0.7-0.3-6.3-0.3-9.2c0.7-1.2,1.2-2.9,1.2-2.9h-1.2v-5.3h1.1c-1.3-3.6-4.2-16.4-4.3-16.9
			c-0.1-0.5-0.3-0.8-0.4,0c-0.1,0.8-2.2,9.5-3.9,16h-2.9v-4.9c0.5-0.4,1-0.8,1-1.2c0-0.4,0-2.3,0-3.7c0-0.7,0.3-0.7,0.4-0.8
			c0.2-0.1,0.2-0.2,0-0.6c-0.4-0.9-7.3-17.9-7.4-18.1c-0.1-0.2-0.1-0.5-0.1-0.6c0-0.1,0.6-1.7,0.7-1.9c0.1-0.2-0.3-0.5-0.8-0.6
			c0-0.9-0.3-14.8-0.3-16.2c0-0.6,0-1-0.4-1c-0.4,0-0.4,0.4-0.4,1c0,1.5-0.3,15.3-0.3,16.2c-0.5,0.2-0.8,0.4-0.8,0.6
			c0.1,0.2,0.6,1.7,0.7,1.9c0.1,0.2,0,0.4-0.1,0.6c-0.1,0.2-7,17.2-7.4,18.1c-0.2,0.4-0.2,0.5,0,0.6c0.1,0,0.4,0.1,0.4,0.8
			c0,1.4,0,3.3,0,3.7c0,0.4,0.5,0.8,1,1.2v4.2l-1.4,0v1.3h-1.7v-1.4h-1.8v7.8c0.5,0.4,1.3,1.8,1.4,3.4h0.4c0,0.6-2.6,37.4-2.6,37.4
			h-1.7l-0.8,8.7H5.5V115.5C44.6,76.4,104.4,55.2,167.8,63c-0.8,11.1-1.7,23.5-1.7,23.5h-0.6v-6.1H164v20.5c-1.7,0-4,0.4-4.7,0.7
			c0.5,0.5,0.8,0.8,0.5,1.9c-0.3,1.1-1.3,3.7,1.1,4.6c-0.1,1-0.4,3.2,1.4,4.7c0,12.6-0.7,33.4-1,38.9c-0.1,0.6-0.4,0.7-0.8,0.7
			c-0.4,0-0.7-0.3-0.7-0.8c0-0.5-0.1-5.4-0.1-6.3c0,0,0-1,0-1.7c0.3-0.1,0.5-0.3,0.5-0.9c0-0.7-0.5-1-0.8-1.2c0,0-0.1-1.7-0.1-2.2
			c0-0.5-0.1-0.6-0.2-0.6c-0.2,0-0.2,0.1-0.2,0.6c0,0.5-0.1,2.2-0.1,2.2c-0.3,0.3-0.8,0.5-0.8,1.2c0,0.6,0.3,0.8,0.5,0.9
			c0,0.7-0.1,1.7-0.1,1.7c-2-0.1-2.4-0.6-3.4-1c0,0-0.4-21.6-0.4-22.3c0,0,1.2-0.8,1.8-1.4v-1.2c0,0-1.8-1.2-2.3-1.6
			c0-0.7-0.5-9.1-0.5-11.1c0,0-0.7,1.5-1.2,2.6c0,0-1.6-32.9-1.6-33.2c0-0.3-0.1-0.4-0.2-0.4c-0.1,0-0.2,0.1-0.2,0.4
			c0,0.3-1.6,33.2-1.6,33.2c-0.5-1.1-1.2-2.6-1.2-2.6c0,1.9-0.5,10.3-0.5,11.1c-0.6,0.3-2.3,1.6-2.3,1.6v1.2
			c0.6,0.5,1.8,1.4,1.8,1.4c0,0.7-0.4,22.3-0.4,22.3h-1.6v3.6h-4.6c0-0.4,0.4-1.9,0.7-2.1c0.2,0,0.4-0.6,0.1-0.9
			c-0.2-0.2-0.8-0.6-1.1-0.7c-0.2-1.3-1.4-8.8-1.4-8.9c0-0.1,0-0.3-0.2-0.3c-0.1,0-0.2,0.2-0.2,0.3c0,0.1-1.2,7.6-1.4,8.9
			c-0.3,0.1-0.9,0.5-1.1,0.7c-0.3,0.3-0.1,0.9,0.1,0.9c0.4,0.2,0.7,1.7,0.7,2.1c0,0.8,0,9.3,0,9.6c-0.5,0-0.5,0.9-0.1,1
			c0.4,1.1,1.2,2.6,1.7,2.6c0.5,0,1.3-1.5,1.7-2.2c0,1.5,0,5.8,0,6.3c-0.5,1.9-1.5,6.4-1.5,6.4c-0.3,0.3-0.8,0.9-0.8,0.9
			c0.4,0.4,0.6,0.5,0.8,0.7c0,0.5,0,5.3,0,5.3h-3l-2-8.6c-0.3,1.1-2.5,9.3-2.5,9.3h0.6l0,6.4h-10.1v-4c0,0,0.6-0.8,0.8-1.1v-3.8
			c0-0.6-0.3-0.6-0.4-0.4c-0.2,0.2-0.6,0.6-1.1,1.1c0,0-7.6-13.5-7.9-14.2c0-0.3-0.1-3.9-0.1-4.2c0.3-0.1,0.3-0.2,0.3-0.3
			s-0.1-0.3-0.3-0.3c-0.1,0-0.3-0.1-0.7-0.1c0-0.1,0-3.3,0-3.7c0,0,0.2-0.1,0.6-0.4c0.4-0.2,0.2-0.6,0-0.6c-0.2-0.1-0.4-0.1-0.9-0.4
			c0-0.1,0-1.9,0-2.1c0,0,0.5-0.2,0.8-0.4c0.4-0.2,0.2-0.5,0.1-0.5c-0.1-0.1-0.5-0.3-0.9-0.6c0-0.4-0.3-8.6-0.4-12.7
			c0.8,0,1.1,0.8,1.9,0.8l-0.2-2.2c-0.7,0.1-0.9-0.9-1.8-0.8v-0.1c0-0.3-0.1-0.4-0.3-0.4c-0.2,0-0.3,0.1-0.3,0.4
			c0,0.3-0.4,14.5-0.4,15c-0.4,0.3-0.7,0.5-0.9,0.6c-0.1,0.1-0.3,0.3,0.1,0.5c0.4,0.2,0.9,0.4,0.9,0.4c0,0.1,0,2,0,2.1
			c-0.6,0.2-0.8,0.3-0.9,0.4c-0.2,0.1-0.4,0.4,0,0.6c0.4,0.2,0.6,0.4,0.6,0.4c0,0.4,0,3.6,0,3.7c-0.4,0-0.5,0.1-0.7,0.1
			c-0.1,0-0.3,0.1-0.3,0.3s0,0.2,0.3,0.3c0,0.3,0,3.9-0.1,4.2c-0.2,0.7-7.8,14.2-7.8,14.2c-0.5-0.6-0.9-0.9-1.1-1.1
			c-0.2-0.2-0.4-0.2-0.4,0.4c0,0.6,0,3.8,0,3.8c0.2,0.3,0.8,1.1,0.8,1.1v5.2l1.2,2.4c-0.4,0.1-1.2,0.1-1.2,0.1
			c0.1,0.6,0,38.5,0,38.5v0.1h-7.5l-3.8-8.1c0,0-4.6,10.6-4.9,11.2c-0.3,0.6-0.1,0.8,0.2,0.8v12.8c0.6,0,1.1,0.7,1.1,2
			C86,247.9,85.9,249,85.9,249z M309.1,0H0.3v311h308.8V0z"/>
	</g>
	<g id="g3365">
		<path id="path3367" class="st0" d="M150.6,75.9C150.6,75.9,150.7,75.9,150.6,75.9C150.7,75.9,150.7,75.9,150.6,75.9L150.6,75.9z"
			/>
	</g>
	<path id="path3369" class="st0" d="M189.2,248.4h12.3v-1.3h-12.3V248.4z"/>
	<g id="g3371">
		<path id="path3373" class="st0" d="M192.5,230.9c-0.3-0.4-0.5-0.8-0.8-1c0,0-0.5,0-1,0c0,0.6,0,1,0,1H192.5z"/>
	</g>
	<g id="g3375">
		<path id="path3377" class="st0" d="M115.9,179.2L115.9,179.2"/>
	</g>
	<g id="g3379">
		<path id="path3381" class="st0" d="M167.2,189.4h-1.5l0-1h-2.1v1h-2.2v-1h-2.1v1h-2.6v-1h-2.5v1h-2.6v-1h-2.1v1h-2.2v-1h-2.1v1
			h-1.5l-1.5,2.3c0,0-0.1,0.2,0.2,0.2l26.3,0c0.3,0,0.2-0.2,0.2-0.2L167.2,189.4z"/>
	</g>
	<g id="g3383">
		<path id="path3385" class="st0" d="M200.2,250.5v1.3l-1.3,0v-1.3h-1.4v1.4h-1.3v-1.4h-1.3v1.4l-1.3,0v-1.4h-1.3l0,2.1
			c0,0,5.4,0.8,6.2,0.9c0.8,0.2,0.2,0.7,0.6,1.3c0.4,0.6,2.5,4.3,2.5,4.3v3.7l0.1-12.4H200.2z"/>
	</g>
	<g id="g3387">
		<path id="path3389" class="st0" d="M185.9,214.5c-0.2-0.3-0.4-0.5-0.5-0.6c0,0-0.1-0.1-0.1-0.1c-0.1,0-0.1,0-0.1,0.1
			c-0.1,0.1-0.5,0.6-0.5,0.6c0,0.4,0,2.3,0,2.3h1.2L185.9,214.5z"/>
	</g>
	<path id="path5914" class="st0" d="M634.1,152.8c-1.3-4.5-3.2-8.8-8.1-9.6c-2.9,0.7-4.5,3.6-5.1,5.8c-3.5,20.6-4.1,42.2-3.8,64.1
		c0.4,7.5-0.9,18.4,8.3,20.3c4.5,1.3,8.9,0,12.4-2.9c1.2-24.7-0.8-47.5-2.3-71.2C635.1,156.4,634.5,154,634.1,152.8"/>
	<path id="path5916" class="st0" d="M888.4,163.2c4.4-0.3,16.5,0.3,22.2-4.4c0.6-7-5.7-13.4-12-16.2c-19.4-1.3-37.8,2.8-56.2,5.1
		c-1.7,0.3-5.1,0.6-5.1,3.2c1.6,8.3,9.8,9.9,16.2,11.5l-0.3,0.9l-5,15.4l-1.3,0.1l-2.4,0.2c-0.5,0.1-1.1,0.2-1.7,0.3
		c-2.1,0.7-4.6,1.7-3.8,4.3c6,12.1-6.1,20.3-4.8,32.4c0.9,7.8,5,16,12,20c1,0.5,2.5,1,4.6,1.3c18.5,1.6,33.6-8.1,47.5-19
		c1.6-3.5-0.9-7.9-3.2-10.8c-13.3-2.8-26,3.2-39.4,4.1l0,0l-1.1,0.1c1.4-3.4,3.9-10.8,6.7-19.3c1.7-0.2,5.1-0.4,7.8-0.2
		c2.7,0.1,5.6,0.4,7.3,0.4c6.4,0,12.9,0.5,17.6-2.9c0.8-0.6,1-1.5,1-2c0.2-2.2,0.8-6.5-0.8-9.1c-8-2.9-17.8-1.6-26.4-1.6l-1.3,0
		l4.1-13L888.4,163.2z"/>
	<path id="path5918" class="st0" d="M987,175.2L987,175.2c-0.1,10.1-4.2,18.9-12,25.8c-7.6,6-16.5,10.8-26.2,10.8
		c0.5-0.9,0.9-1.8,1.4-2.7c2.2-3.9,4.5-7.8,6.8-11.7c5.6-9,12-17.8,19.2-25.9c0.2-0.2,0.4-0.4,0.6-0.7c0.2-0.2,0.3-0.3,0.5-0.5
		c1.5-1.6,3.1-3.2,4.7-4.8c0.4-0.3,1-0.6,1.6-0.5h0c1.6,0.3,2.2,2.3,2.8,3.9C986.6,170.3,987,172.6,987,175.2L987,175.2z
		 M990.7,152.4c-0.6-0.7-1.3-1.3-1.7-1.7c-2.2-1.7-4.7-2.7-7.5-2.8c-2.1,0-4.9,1.4-6.4,2.1c-10.5,6-19.6,14.5-28,24.3
		c-0.2,0.2-0.3,0.4-0.4,0.5c-5,6-11.9,15.1-18.8,26.3c-1.9-2.2-1.9-6.8-1.7-9.6c2.2-19.4,21.8-32.4,19.6-52.5
		c-3.7-0.3-6,3.1-8.5,5.4c-0.9,0.9-1.8,2-2.8,3c-13.8,17.3-24.8,36.6-21.7,60.1c0.5,3.1,1.7,6.6,3.1,9.4c0.6,1.2,1.2,2.2,1.7,2.8
		c-3.3,6.8-6.3,14.1-8.8,21.7c-3.7,12.4-7.1,24.9-9.2,38.1c-0.6,3-1.5,8.7-0.9,13.8c0.2,1.5,0.4,3,1.1,4.4c3.1,6.7,10.5,14,17.8,13
		c2.2-16.8,6.1-33,10.7-48.8c2.5-8,5.7-17.5,9.9-27.6c9.5,1.7,17.3-1.2,17.3-1.2c20-7,39-26.1,43.3-46.7
		C1002,174.1,998.4,162,990.7,152.4"/>
	<path id="path5920" class="st0" d="M660.3,104.2c-2.8,1.9-5.7,3.1-8.6,4.4c-8.9,3.2-18.1,4.8-27.3,3.2
		c7.9-12.4,20.3-24.5,33.9-29.7c0.7-0.3,2.2-0.7,3.7-0.9c3.9-0.4,8.4-0.7,9.7,4C673.3,93.4,666.3,99.7,660.3,104.2 M609.5,102.6
		c-0.3,0.4-0.7,0.8-1,1.2c-1.7-1.5-1.4-3.9-0.7-6.1c0.5-1.7,1.2-2.9,1.4-3.3c1.3-2.2,3.2-4.6,5.1-6.5c2.9-2.9,6.3-5.2,9.9-7.3
		c0.6-0.4,1.7-0.8,2.6-1.2c0.1-0.1,0.2-0.1,0.4-0.2c1-0.4,3.1-0.9,6.2-0.6h0c0.6,0.1,1.3,0.2,1.9,0.4
		C622.6,87.4,612.6,98.9,609.5,102.6 M681.2,76c-0.4-0.5-0.8-0.9-1.3-1.3h0c0,0-2.6-2.6-6.2-3.7c-0.4-0.1-0.7-0.2-1.1-0.3
		c-1.6-0.4-3.1-0.5-4-0.5c-0.3,0-0.7,0-1,0.1c-1.1-3.8-5.7-6.2-5.7-6.2c-3.1-1.7-6.6-2.5-9.7-2.9l-0.4-0.1
		c-7.6-0.8-13.5,0.2-18.2,1.4c-3.7,1-6.9,2.4-8.8,3.3c-18,9-24.9,19.3-27.5,25.4c-0.1,0.2-0.2,0.3-0.3,0.4c-0.3,0.7-0.5,1.4-0.7,2.1
		c-0.3,1.1-0.5,1.8-0.6,2.3c-1.6,7.7,0.2,16.1,6.1,21.9c0,0.7-0.1,2.9-0.1,5.1c0.1,1.1,0.2,2.6,0.6,4.1c0.2,0.8,0.5,1.8,1,2.8
		c1.4,2.9,2.6,3.9,4.9,3.9c4.1,0.4,6-6.3,7.3-7.9c8,2.5,17.5,4.1,26.1,1.5c6-1.9,11.1-4.4,16.5-7.9c8.8-5.9,16.9-13.1,22.5-22.6
		c1.8-3.1,2.6-6.2,3-8.2C684.6,83.8,684.1,79.5,681.2,76"/>
	<path id="path5922" class="st0" d="M808,138.5c-2.6-3.7-7-10.5-12.7-10.8c-2.2,0.9-2.3,4.1-1.9,6c4.1,20.9,12.4,39.9,12.4,62.3
		c0,0.9,0,2.4-0.3,3.3c-0.3,0.9-0.8,1.7-1.6,1.8c-12.5-16.9-21-35.9-36.5-51.4c-0.7-0.6-1.1-0.9-1.4-1.1c-2.5-1.1-4.8,0.3-6.5,2.2
		c-0.5,0.6-1.4,2-2.5,4.3c-4.9,11.4-7.2,24.1-9,36.7c-1,6.4-3.8,24.1,0.6,34c1.9,3.5,5.4,7,9.5,6.7c2.9-0.3,5.1-3.8,6-6.7l3.1-51.4
		l1.3,2.2c10.5,16.8,15.9,35.9,32.4,49.2c2.3,1.5,5.4,1.2,7.9,0.2c1.6-0.6,3.9-1.6,5.8-3.3c5.7-4.6,8.7-12.5,9.5-18.8
		C827,179.8,821,157.2,808,138.5"/>
	<path id="path5924" class="st0" d="M739.4,148.9c0-0.4-0.2-0.8-0.5-1.2c-0.2-0.2-0.6-0.4-0.9-0.5c-24.1-9.9-57.4-7-79.8,5.3
		c-6.8,3.5-9.9,10.1-10.4,17.5c-0.1,1.2,0,4.4,1.4,7.1c1.1,1.9,2.7,3.7,4.6,4.6c0.3,0.1,0.8,0.3,1.3,0.5c7.4,1.6,15.2,2.1,23,2.6
		c3.9,0.3,6.8,0.5,6.8,0.5c14.8,1.3,21.8,3.2,21.8,3.2h0.1c5.9,1.6,14.1,3,15.8,10.3c0.1,0.3,0,0.5-0.1,0.8c-5,8-19.9,10.7-30,12.4
		c-6.6,0.8-23.2,3.5-31.3-3.1c-1.1-0.9-1.3-2-1.4-2.7c0-0.2,0-0.3,0-0.5c0.1-1.1,0.4-2.3,1.2-3.4c0.1-0.1,0.5-0.6,1-1
		c10.5-6.1,23.9,6.9,34.6,5.6c10.8-1.1,14.3-3.6,15.4-6c0.9-1.8,0.5-2.9,0.5-2.9c-3.8-3.2-12.4-5.7-19.4-7c-9.9-1.4-24-3.5-33.9,2.4
		c-0.2,0.1-2,1.3-3.3,3.1c-1.9,2.8-3.3,6.3-3.5,9.9c0,0.6,0.1,1.6,0.5,2.7c5.1,12.7,18.3,19.4,30.4,22.1
		c16.4,2.6,34.1,0.4,46.2-10.4h0c2.3-2,3.6-3.9,4.2-4.9c3-6,4-15.7,2-23.2c-0.6-2.1-1.5-3.8-2.2-4.8c-12.6-16.6-35.8-11.9-55.5-15.1
		c-2.4-0.3-5.9-0.9-8.9-1.9c-1.9-0.5-3-1-3.6-1.4c-0.2-0.1-0.4-0.2-0.5-0.3c0,0-0.1-0.1-0.1-0.1c-0.4-0.3-0.8-0.7-0.9-1.3
		c-0.1-0.3,0.1-0.5,0.3-0.6c17.1-6.8,37.6-5.9,56.5-8.1c6-0.9,12.4-0.7,16.5-5.3c0.1-0.1,0.4-0.4,0.6-0.7c0,0,0,0,0-0.1
		c0.1,0,0.1,0,0.1,0c0.4-0.5,0.8-1.3,1.1-2.3c0.2-0.5,0.3-1,0.3-1.3v-0.2C739.4,149.1,739.4,149,739.4,148.9L739.4,148.9
		L739.4,148.9z"/>
	<path id="path5926" class="st0" d="M441.5,220.4c-19-6.9-38.8-17-51.8-35.2c-0.2-0.4-0.3-0.7-0.4-0.9c0,0,0,0,0-0.1
		c0,0,0-0.1,0-0.1c-0.5-3.4,3.5-6,6.2-6.9c7.3-2.5,15.3-4.2,23.2-5.4c13.9-2.1,21.6-2.5,24.8-2.8
		C443.4,186.2,442.2,202.9,441.5,220.4 M604.4,169.4L604.4,169.4c0,0-3.2-34.3-51.5-70.8c-0.3-0.2-0.6-0.5-0.9-0.7
		c-0.2-0.1-0.4-0.3-0.5-0.4c-3.4-2.5-7-5-10.8-7.5c-15.3-10.2-31.1-17.7-43.7-23.2c-37.3-16.3-91.8-27.9-140.5-13
		c-7.1,2.5-9.6,9.3-11.8,15.6c-0.2,0.9-0.6,2.7,0.1,3.7c2.6,2.8,6.8,3.1,10.9,3.2c1.7,0,5.4,0,7.9-0.4c1.5-0.4,2.9-1,2.9-2.7
		c0-0.4-0.1-0.6-0.3-0.8c-3.1-3.9-8.2-2.4-11.6-4.3c-0.1-0.1-0.1-0.3-0.1-0.4c0.2-0.3,0.3-0.5,0.5-0.7h0c1.2-1.1,3.2-1.7,5-2.1
		c0,0,0.6-0.2,0.7-0.2c0.3,0,0.7-0.1,1-0.1c0.4-0.1,0.6-0.1,0.6-0.1c39.4-6.2,77.6,1.1,111.7,13.6c39.2,16,84.8,40,103.1,82.7
		c0.5,1.1,0.9,2.5,1.4,4c0,0.2,0.1,0.3,0.1,0.4c0.1,0.3,0.2,0.6,0.2,0.8c0.2,0.8,0.4,1.7,0.6,2.6c0,0.2,0.1,0.4,0.1,0.6
		c2.9,15-0.7,31.4-13.1,41.7c-27,21.6-65.4,23.5-99.4,17.1l-0.9-48.2c0-2.4,0-8,0-10.6c-0.1-0.9,0-0.5,0-1.4c4.5-0.1,5.8,0,7.3,0.1
		c15.3,0.7,36.9,3.5,53,11.5c0.3,0.2,0.6,0.5,0.6,1v0c0,0.1,0,0.2-0.1,0.3c-0.2,1-0.6,1.9-1,2.7h0c0,0-0.1,0.1-0.1,0.1
		c-0.2,0.3-0.4,0.6-0.6,0.9c-1.3,1.9-2,2.5-2.3,2.7c-2.8,2.4-7,3.6-7,7.2c0,0.3,0.1,0.3,0.4,0.5c3.3,1.4,7.1,2.1,10.7,2.1
		c0.5,0,2.4,0,4.4-1c5.4-2.9,11.6-7.7,13.1-13.6c1.5-5.4-0.3-10-2.7-14.2c-1.5-2.5-3.8-4.6-5-5.5c-13.2-10.1-29.3-13.9-46-15.2
		c-10-0.9-17.5-0.8-21.9-0.6h-1.3l-1.1,0.1c-0.1,0-1,0.1-1.1,0.1l-0.7-27.5c-1-7-4.8-15.2-12.1-17.8c-7.6,14-7.8,44.9-8.5,47.3
		c-0.9,0.2-1.9,0.4-2.7,0.6c-5,0.9-10.5,2.1-16.2,3.7c-4.7,1.2-9.5,2.5-14.1,4.3c-8.6,3.4-17.3,7.7-24.7,14.9
		c-0.5,0.5-1.2,1.3-1.7,2c-1.8,2.8-2.9,6.4-2.3,9.8c0.1,0.3,0.3,1.3,0.9,2.3c13.1,22.5,37,39.3,59.2,49.7c1.6,7.9,1.6,16.5,6.7,22.2
		c4.4,1.3,9.4,0.5,12.7-0.3c4.4-1.8,4.2-8,4.5-12.2c0.4,0,0.3,0,0.5,0.1c38.7,9.2,81.3,5.7,112.4-17.2
		C598.8,214.4,608.3,192.9,604.4,169.4"/>
</g>
</svg>
