<?xml version="1.0" encoding="utf-8"?>
<!-- Generator: Adobe Illustrator 27.0.1, SVG Export Plug-In . SVG Version: 6.00 Build 0)  -->
<svg version="1.1"
	 id="Layer_1" xmlns:dc="http://purl.org/dc/elements/1.1/" xmlns:cc="http://creativecommons.org/ns#" xmlns:rdf="http://www.w3.org/1999/02/22-rdf-syntax-ns#" xmlns:sodipodi="http://sodipodi.sourceforge.net/DTD/sodipodi-0.dtd" xmlns:inkscape="http://www.inkscape.org/namespaces/inkscape" xmlns:svg="http://www.w3.org/2000/svg" sodipodi:docname="EOne 2015 (Print).svg"
	 xmlns="http://www.w3.org/2000/svg" xmlns:xlink="http://www.w3.org/1999/xlink" x="0px" y="0px" viewBox="0 0 1000.1 443.3"
	 style="enable-background:new 0 0 1000.1 443.3;" xml:space="preserve">
<style type="text/css">
	.st0{fill:#FFFFFF;}
</style>
<sodipodi:namedview  bordercolor="#666666" borderopacity="1" gridtolerance="10" guidetolerance="10" id="namedview218507" inkscape:current-layer="Layer_1" inkscape:cx="510.62459" inkscape:cy="221.672" inkscape:pageopacity="0" inkscape:pageshadow="2" inkscape:window-height="837" inkscape:window-maximized="1" inkscape:window-width="1600" inkscape:window-x="-8" inkscape:window-y="-8" inkscape:zoom="0.97035431" objecttolerance="10" pagecolor="#ffffff" showgrid="false">
	</sodipodi:namedview>
<g id="g219445">
	<path id="path218502" class="st0" d="M171,362.8c-16.9,20-42.7,32.1-72.1,32.1C50.7,394.9,0,362.1,0,298.7
		c0-64.1,48.3-95.8,97.2-95.8c51.4,0,95.5,34.8,95.5,95.1c0,3.1-0.3,6.2-0.7,9c-0.3,5.2-3.5,7.6-8.6,7.6H47.6
		c3.8,25.2,30,39.3,51.4,39.3c12.8,0,27.9-4.8,38.3-15.2c3.8-3.4,7.2-4.5,11.7-1.4l20.3,13.8C173.8,354.2,174.4,358.3,171,362.8
		 M95.8,242.9c-20.3,0-40.3,11-46.5,35.2h93.4C137.2,253.6,117.2,242.9,95.8,242.9"/>
	<path id="path218500" class="st0" d="M884.3,362.8c-16.9,20-42.8,32.1-72.1,32.1c-48.3,0-98.9-32.8-98.9-96.2
		c0-64.1,48.3-95.8,97.2-95.8c51.4,0,95.5,34.8,95.5,95.1c0,3.1-0.3,6.2-0.7,9c-0.3,5.2-3.4,7.6-8.6,7.6H760.9
		c3.8,25.2,30,39.3,51.4,39.3c12.8,0,27.9-4.8,38.3-15.2c3.8-3.4,7.2-4.5,11.7-1.4l20.3,13.8C887.1,354.2,887.8,358.3,884.3,362.8
		 M809.2,242.9c-20.3,0-40.3,11-46.5,35.2h93.4C850.6,253.6,830.6,242.9,809.2,242.9 M570.1,213.9V226
		c13.4-17.9,34.8-23.1,56.2-23.1c54.5,0.3,73.1,38.3,72.7,87.6v93.4c0,5.5-2.8,8.3-8.3,8.3h-30c-5.5,0-8.3-2.8-8.3-8.3v-93.1
		c0-28.9-12.1-45.5-36.9-45.8c-24.1-0.3-43.8,18.6-43.8,45.8v93.1c0,5.5-2.8,8.3-8.3,8.3h-31.4c-5.5,0-8.3-2.8-8.3-8.3v-170
		c0-5.5,2.8-8.3,8.3-8.3h29.6C567.3,205.6,570.1,208.4,570.1,213.9 M259.3,271.8c0-70.7,55.8-125.1,124.8-125.1
		c69.3,0,125.5,54.5,125.5,125.1c0,69.6-56.2,124.1-125.5,124.1C315.1,395.9,259.3,342.2,259.3,271.8 M459.6,271.8
		c0-47.6-36.2-77.6-76.2-76.9c-39.6,0.3-74.8,29.6-74.8,76.9c0,46.9,35.2,76.2,74.8,76.5C423.4,348.4,459.6,318.7,459.6,271.8
		 M826.7,0H219.8c-5.5,0-8.3,2.8-8.3,8.3v262.2c0,97.7,77.6,172.9,173.4,172.9h606.9c5.5,0,8.3-2.8,8.3-8.3V172.9
		C1000.1,75.3,922.5,0,826.7,0"/>
</g>
</svg>
