<?xml version="1.0" encoding="utf-8"?>
<!-- Generator: Adobe Illustrator 27.0.1, SVG Export Plug-In . SVG Version: 6.00 Build 0)  -->
<svg version="1.1"
	 id="svg6472" xmlns:inkscape="http://www.inkscape.org/namespaces/inkscape" xmlns:sodipodi="http://sodipodi.sourceforge.net/DTD/sodipodi-0.dtd" xmlns:svg="http://www.w3.org/2000/svg" xmlns:cc="http://creativecommons.org/ns#" xmlns:dc="http://purl.org/dc/elements/1.1/" xmlns:rdf="http://www.w3.org/1999/02/22-rdf-syntax-ns#" inkscape:output_extension="org.inkscape.output.svg.inkscape" sodipodi:docname="Escape Artists.svg"
	 xmlns="http://www.w3.org/2000/svg" xmlns:xlink="http://www.w3.org/1999/xlink" x="0px" y="0px" viewBox="0 0 1000 248.4"
	 style="enable-background:new 0 0 1000 248.4;" xml:space="preserve">
<style type="text/css">
	.st0{fill:#FFFFFF;}
</style>
<sodipodi:namedview  bordercolor="#666666" borderopacity="1.0" fit-margin-bottom="0" fit-margin-left="0" fit-margin-right="0" fit-margin-top="0" gridtolerance="10.0" guidetolerance="10.0" id="base" inkscape:current-layer="svg6472" inkscape:cx="496.75701" inkscape:cy="77.634978" inkscape:pageopacity="0.0" inkscape:pageshadow="2" inkscape:window-height="705" inkscape:window-maximized="1" inkscape:window-width="1366" inkscape:window-x="-8" inkscape:window-y="-8" inkscape:zoom="1.4142136" objecttolerance="10.0" pagecolor="#ffffff" showgrid="false">
	</sodipodi:namedview>
<defs>
	
		<inkscape:perspective  id="perspective4353" inkscape:persp3d-origin="96.942963 : 64.279851 : 1" inkscape:vp_x="0 : 96.419777 : 1" inkscape:vp_y="0 : 1000 : 0" inkscape:vp_z="193.88593 : 96.419777 : 1" sodipodi:type="inkscape:persp3d">
		</inkscape:perspective>
</defs>
<g id="g130">
	<path id="path786" inkscape:connector-curvature="0" class="st0" d="M64.6,82.4c-20.7,16.9-35.5,31.9-41.5,38.2h10.2
		c7.2-7.2,19.7-19.2,36-32.4L64.6,82.4z"/>
	<path id="path790" inkscape:connector-curvature="0" class="st0" d="M157.5,206c-6.1-4.6-11.7-9.9-16.7-15.7
		c-5-2.6-10-5.3-15.1-8.3c-2.9-1.7-5.9-3.5-8.8-5.3c-11.8-7.5-22.8-15.4-32.6-23.1l-4.7,5.7c16.2,12.8,35.5,26.1,56.6,37
		C143.2,199.7,150.3,203,157.5,206"/>
	<path id="path794" inkscape:connector-curvature="0" class="st0" d="M347.2,185.4c35.5-24.8,61.2-51.2,68.2-58.7l2.3-2.5l-2.3-2.5
		c-7-7.5-32.7-33.9-68.2-58.7c-7.9-5.5-15.6-10.4-23.3-15l-3.5,6.6c43.3,25.7,76.9,58.8,87.2,69.6c-10.3,10.7-43.9,43.9-87.2,69.6
		l3.5,6.6C331.6,195.8,339.4,190.9,347.2,185.4"/>
	<path id="path798" inkscape:connector-curvature="0" class="st0" d="M363.6,154.5c12.3-10,22.5-19.4,29.9-26.6h-10.7
		c-6.3,5.9-14.4,13.2-23.9,20.9L363.6,154.5z"/>
	<path id="path802" inkscape:connector-curvature="0" class="st0" d="M280.1,42.5c6.1,4.6,11.7,9.9,16.6,15.7c5,2.6,10,5.3,15.1,8.3
		c2.9,1.7,5.8,3.5,8.8,5.3c9.5,6,18.5,12.4,26.8,18.6l-3.1,3.7l-1.6,2c-7.4-5.6-15.5-11.3-24-16.8c-0.7-0.4-1.3-0.9-2-1.3
		c-3.4-2.2-6.8-4.2-10.1-6.1c2.4,4,4.5,8.1,6.3,12.4c1.6,3.7,2.9,7.5,4.1,11.4c1,3.5,1.8,7,2.5,10.6c2.8,1.9,5.5,4,8.3,6
		c5,3.7,10,7.7,15,11.8c-5,4.1-10,8.1-15,11.8c0.4-3.9,0.7-7.8,0.7-11.8c0-0.6,0-1.2-0.1-1.9c-2.5-2.1-5.1-4.1-7.6-6
		c0.2,2.6,0.3,5.2,0.3,7.9c0,6.1-0.6,12-1.6,17.8c-0.6,3.6-1.5,7.2-2.5,10.6c-1.1,3.9-2.5,7.7-4.1,11.4c-1.8,4.3-4,8.4-6.3,12.4
		c3.4-2,6.8-4,10.2-6.1c0.7-0.4,1.3-0.8,2-1.3c22.7-14.5,42.1-30.9,54.5-42.2l3-2.7l-3-2.7c-6.5-5.9-14.9-13.2-24.7-20.8l9.3-11.4
		c-16.2-12.7-35.5-26.1-56.5-37C294.4,48.7,287.3,45.4,280.1,42.5 M365.2,124.2c-10.5,9.4-25.1,21.5-42,33.1c1.1-3.6,2.1-7.3,2.9-11
		c8.2-5.9,16.5-12.3,24.7-19.3l3.3-2.8l-3.3-2.8c-8.2-6.9-16.5-13.4-24.7-19.3c-0.8-3.7-1.7-7.4-2.9-11
		C340.1,102.7,354.7,114.8,365.2,124.2"/>
	<path id="path806" inkscape:connector-curvature="0" class="st0" d="M363.6,93.8l-4.7,5.7c9.6,7.8,17.8,15.1,24.2,21.1h10.6
		C386.3,113.4,376,104,363.6,93.8"/>
	<path id="path810" inkscape:connector-curvature="0" class="st0" d="M301.2,196.2c21.1-10.9,40.4-24.2,56.6-37l-4.7-5.7
		c-9.8,7.7-20.7,15.7-32.6,23.1c-3,1.9-5.9,3.6-8.8,5.3c-5.1,3-10.2,5.8-15.2,8.3c-5,5.8-10.5,11.1-16.7,15.7
		c-5.8,4.3-12.1,8.1-18.7,11.1l4,9.5c16.9-4.9,34.4-12.5,52.3-22.6l-3.5-6.6c-9.7,5.5-19.7,10.5-30.1,14.7
		C290.3,207.5,296.1,202.1,301.2,196.2"/>
	<path id="path814" inkscape:connector-curvature="0" class="st0" d="M73,124.2c18.6-16.2,41.9-34.6,63.2-46.8
		c-7.3,12.8-11.7,27.5-12.3,43.1h0.1v0.1h6.8h0.5h7.4c-0.1,1.2-0.1,2.4-0.1,3.6c0,43,34,78.1,76.5,80.1v-14.7
		c1.2,0.1,2.4,0.1,3.7,0.1c10.6,0,20.6-2.5,29.4-7l-3.7-6.4c-7.8,3.9-16.5,6-25.8,6c-20.1,0-37.9-10.3-48.3-25.9l-6.4,3.7
		c9.8,14.8,25.5,25.5,43.7,28.6v7.5c-34.9-5.3-61.8-35.6-61.8-72c0-21.4,9.3-40.6,24-53.9l5.2,5.2l5.2,5.2
		c10.2-9.1,23.7-14.6,38.4-14.6c9.3,0,18.1,2.2,25.8,6.1l3.7-6.4c-8.9-4.5-18.9-7.1-29.5-7.1c-14.1,0-27.2,4.5-37.9,12.1l-5.3-5.3
		c12.1-8.9,27-14.2,43.1-14.2c32.4,0,59.9,21.2,69.3,50.5l7.1-1.9c-5.7-18-17.6-33.3-33.2-43.3l3.7-6.4c20,12.8,34.5,33.4,39,57.6
		c0,0,0,0.1,0,0.1c0,0.1,0,0.3,0.1,0.4c0.2,1.1,0.4,2.2,0.6,3.4c0,0,0,0.1,0,0.1c0.1,0.5,0.1,0.9,0.2,1.4c0.1,0.8,0.2,1.7,0.3,2.5
		c0,0,0,0.1,0,0.1c0.1,0.9,0.1,1.7,0.2,2.6c0,0.5,0.1,0.9,0.1,1.4v0.1c0.1,1.4,0.1,2.7,0.1,4.1v0v0c0,14.7-3.6,28.5-10,40.6l6.3,3.7
		c0,0,0-0.1,0.1-0.1l0.1,0c6.9-13.2,10.9-28.2,10.9-44.2c0-45.2-31.7-83.1-74.1-92.6l-0.1,0c-5.5-1.2,0,0,0,0c-5.5-1.2,0,0,0,0
		c-5.5-1.2,0,0,0,0c-5.5-1.2,0,0,0,0c-5.5-1.2-11.3-2.1-17-2.2v7.3c13.3,0.6,25.8,4.1,36.9,9.9l-3.7,6.4c-11-5.7-23.6-9-36.9-9
		c-40.5,0-74,30.2-79.4,69.2H132c5.2-42,40.2-74.7,83.2-76.5v-7.3H215c-4.1,0.2-8.5,0.5-12.6,1.3c-22.9,4-43,16.2-57.1,33.4
		c-29.2,14.8-59.8,38.1-84,60c3.5,3.2,11.8,10.5,16.3,14.3l-4.7,5.7c-9.1-7.6-16.7-14.6-22.3-20C63.9,111.6,88,90.1,117,71.8
		c2.9-1.8,5.8-3.6,8.7-5.3c5.1-3,10.2-5.8,15.1-8.3c4.9-5.8,10.5-11.1,16.6-15.7c5.8-4.4,12.1-8.1,18.7-11.2l-4-9.5
		c-14.9,4.3-30.1,10.7-45.8,19l-3.4-6.4c26.1-13.9,55.1-24.5,84.7-26.7v7.4c-9.2,0.7-18.7,2.3-28.3,4.7l3.7,8.6
		c9.5-3.6,19.7-5.7,30.3-6.3c0.1,0,0.3,0,0.4,0c1,0,1.9,0,2.9-0.1c0.7,0,1.4,0,2.1,0c0.7,0,1.4,0,2.1,0c1.1,0,2.2,0,3.3,0.1
		c10.3,0.4,20.7,2,30.9,4.5l2.6-7c-11.2-2.8-22.1-4.4-32.8-4.9c-2.5-0.1-5.1-0.2-7.6-0.1c-0.7,0-1.4,0-2.1,0.1V0
		C111.6,2.5,13.9,108.9,9.7,113.5L0,124.2l9.7,10.7c4.2,4.6,104.2,113.5,209.1,113.5s204.9-108.9,209.1-113.5l9.7-10.7l-9.7-10.7
		C423.7,108.9,326,2.5,222.5,0v7.4c32.1,0.8,63.7,12,92,27l-3.4,6.4c-15.9-8.4-31.3-14.8-46.3-19.2l-2.6,6.9
		c7.4,2.1,14.7,4.7,21.9,7.7c10.3,4.3,20.4,9.3,30,14.7l6.9-13c56.8,31.9,98.8,77.6,101.5,80.5l5.2,5.8l-5.2,5.8
		c-4.1,4.5-101.9,111.1-203.6,111.1c-38.3,0-76.1-15.1-108.5-34.3l3.4-6.4l1.4-2.6l2.1-4.1c-39.1-23.2-70.2-52.4-83.5-65.8H23.3
		c8.4,8.9,33.2,33.9,67,57.4c5.7,4,11.4,7.7,17,11.2l-2.2,4.1l-1.2,2.3c-50.3-31.1-86.3-70.3-88.8-73.1l-5.2-5.8l5.2-5.8
		c2.7-2.9,44.6-48.6,101.5-80.5l6.9,13c9.6-5.4,19.7-10.4,30-14.7l0,0l0,0c-6.3,4.7-12.1,10.1-17.3,16
		c-18.6,9.6-35.8,21.1-50.7,32.5l-4.6-5.6c10.9-8.3,23.1-16.7,36.2-24.5l-3.5-6.6c-15.1,9-29.5,18.9-43.3,29.8l9.4,11.4
		c-15.6,12.3-28.3,24-36.9,32.3l-2.7,2.6l2.7,2.6C50.3,134.1,61,144,74,154.5l9.3-11.4c10.3,8.4,22.4,17.4,35.6,25.9
		c0.7,0.4,1.3,0.9,2,1.3c3.4,2.2,6.8,4.2,10.2,6.1c4.8,2.8,9.6,5.3,14.2,7.7c15.2,18.6,37.3,31.3,62.5,34.2v7.5
		c-18.4-1.5-36.7-6.6-54.1-13.7c-10.4-4.3-20.5-9.3-30.1-14.7l-3.5,6.6c32.8,18.5,64,28.4,93.1,29.5c0.7,0,1.3,0,2,0.1v-22
		c-45.4-1.9-81.9-38.3-83.8-83.7H124v0.1l-0.1,0c0.6,15.6,5,30.1,12.3,42.9c-3.8-2.2-7.6-4.4-11.4-6.9c0,0,0,0-0.1-0.1
		c-1.6-3.7-2.9-7.5-4.1-11.4c-1-3.5-1.8-7-2.5-10.6c-2.8-2-5.5-4-8.3-6.1c-5-3.7-10-7.7-15-11.8c5-4.1,10-8,15-11.8v0
		c-0.4,3.9-0.6,7.8-0.6,11.8c0,0.6,0,1.2,0.1,1.9c2.5,2.1,5.1,4.1,7.6,6c-0.2-2.6-0.3-5.2-0.3-7.9c0-6.1,0.6-12,1.6-17.8
		c0.6-3.6,1.5-7.1,2.5-10.6c-3,2-6.1,4.2-9.2,6.4c-8.2,5.9-16.4,12.3-24.7,19.3l-3.3,2.8l3.3,2.8c8.2,6.9,16.5,13.4,24.7,19.3
		c0.8,3.7,1.7,7.4,2.9,11C99.7,147.2,83.1,132.9,73,124.2"/>
	<path id="path818" inkscape:connector-curvature="0" class="st0" d="M262.2,124.2c0,23.9-19.5,43.4-43.4,43.4
		c-6.6,0-12.8-1.5-18.4-4.1l-3.7,6.4c6.7,3.2,14.2,5.1,22.1,5.1c28,0,50.8-22.8,50.8-50.8c0-1.3-0.1-2.5-0.2-3.8h14.7
		c-1.2-21.3-12.6-39.9-29.4-50.9l-3.7,6.4c12.6,8.5,21.8,21.7,24.8,37.2h-7.5c-5.1-22.6-25.3-39.6-49.5-39.6
		c-26.8,0-48.8,20.9-50.6,47.2h7.4c1-11.8,6.7-22.3,15.2-29.5l5.2,5.2l5.2,5.2c4.9-3.8,11-6.1,17.6-6.1c15.8,0,28.7,12.9,28.7,28.7
		c0,15.8-12.9,28.7-28.7,28.7c-15.8,0-28.7-12.9-28.7-28.7c0-6.6,2.2-12.6,6-17.5l-5.2-5.2c-5,6.2-8.1,14.1-8.1,22.7
		c0,19.9,16.2,36.1,36.1,36.1c19.9,0,36.1-16.2,36.1-36.1s-16.2-36.1-36.1-36.1c-6,0-11.6,1.5-16.5,4l-5.4-5.4
		c6.4-3.8,13.9-6,21.9-6C242.7,80.8,262.2,100.2,262.2,124.2"/>
	<path id="path822" inkscape:connector-curvature="0" class="st0" d="M190.3,166.2l3.7-6.4c-10.3-7.2-17.3-18.7-18.5-31.9h-14.7
		c-0.1-1.2-0.1-2.5-0.1-3.8c0-14.7,5.5-28.1,14.5-38.3l-5.2-5.2c-10.3,11.6-16.6,26.8-16.6,43.5c0,10.6,2.6,20.7,7.1,29.6l6.4-3.7
		c-2.3-4.6-4-9.6-5-14.8h7.5C172.1,148.1,179.8,159.1,190.3,166.2"/>
	<path id="path826" inkscape:connector-curvature="0" class="st0" d="M298.9,175L298.9,175c0-0.1,0-0.1,0-0.2l-12.7-7.3
		c8-12.5,12.7-27.3,12.7-43.3c0-5.9-0.7-11.6-1.9-17.1L290,109c1,4.9,1.6,10,1.6,15.2c0,38.9-30.7,70.8-69.1,72.7v7.3
		c24.1-1.1,45.5-12.9,59.5-30.8l6.4,3.7c-15.3,20-39,33.3-65.9,34.4v22c0.7,0,1.3,0,2-0.1c10.9-0.4,22.2-2.1,33.7-5l-3.6-8.7
		c-7.8,2.9-16.1,4.9-24.7,5.9v-7.4C258.9,215,283.9,198.5,298.9,175"/>
	<path id="path830" inkscape:connector-curvature="0" class="st0" d="M284.1,127.7h-7.4c-1.1,18.7-11.2,35-25.9,44.8l3.7,6.4
		C271.5,167.8,283,149.2,284.1,127.7"/>
</g>
<g id="g145">
	<path id="path834" inkscape:connector-curvature="0" class="st0" d="M464.9,114.9H482v11.3h-17.1v23.2h21.5v11.3h-34V81.5h34v11.3
		h-21.5V114.9z"/>
	<path id="path846" inkscape:connector-curvature="0" class="st0" d="M510.9,80.6c12.1,0,18.4,7.3,18.4,19.9v2.5h-11.8v-3.3
		c0-5.7-2.3-7.8-6.2-7.8c-4,0-6.2,2.2-6.2,7.8c0,5.8,2.5,10.1,10.7,17.2c10.4,9.2,13.7,15.8,13.7,24.8c0,12.7-6.3,20-18.6,20
		c-12.2,0-18.6-7.3-18.6-20v-4.9H504v5.7c0,5.7,2.5,7.7,6.5,7.7c4,0,6.5-2,6.5-7.7c0-5.8-2.5-10.1-10.7-17.2
		c-10.4-9.2-13.7-15.8-13.7-24.8C492.6,87.8,498.8,80.6,510.9,80.6"/>
	<path id="path850" inkscape:connector-curvature="0" class="st0" d="M572.7,131.2v10.5c0,12.7-6.3,19.9-18.6,19.9
		c-12.2,0-18.6-7.3-18.6-19.9v-41.3c0-12.7,6.3-19.9,18.6-19.9c12.2,0,18.6,7.3,18.6,19.9v7.7h-11.8v-8.5c0-5.7-2.5-7.8-6.5-7.8
		c-4,0-6.5,2.1-6.5,7.8v42.9c0,5.7,2.5,7.7,6.5,7.7c4,0,6.5-2,6.5-7.7v-11.3L572.7,131.2z"/>
	<path id="path854" inkscape:connector-curvature="0" class="st0" d="M620.7,160.8h-12.6l-2.1-14.4h-15.3l-2.2,14.4H577l12.7-79.4
		H608L620.7,160.8z M592.2,135.7h12l-5.9-40.1h-0.2L592.2,135.7z"/>
	<path id="path866" inkscape:connector-curvature="0" class="st0" d="M663.4,101.1v10.3c0,12.7-6.1,19.6-18.6,19.6h-5.9v29.8h-12.5
		V81.5h18.4C657.3,81.5,663.4,88.4,663.4,101.1 M638.9,92.8v26.9h5.9c4,0,6.1-1.8,6.1-7.5v-11.9c0-5.7-2.2-7.5-6.1-7.5H638.9z"/>
	<path id="path870" inkscape:connector-curvature="0" class="st0" d="M681.6,114.9h17.1v11.3h-17.1v23.2h21.5v11.3h-34V81.5h34v11.3
		h-21.5V114.9z"/>
	<path id="path874" inkscape:connector-curvature="0" class="st0" d="M768.8,160.8h-12.6l-2.2-14.4h-15.3l-2.2,14.4h-11.4l12.7-79.4
		h18.3L768.8,160.8z M740.4,135.7h12l-5.9-40.1h-0.2L740.4,135.7z"/>
	<path id="path886" inkscape:connector-curvature="0" class="st0" d="M800.7,160.8c-0.7-2-1.1-3.3-1.1-9.8v-12.5
		c0-7.4-2.5-10.1-8.2-10.1h-4.3v32.3h-12.5V81.5h18.8c12.9,0,18.5,6,18.5,18.3v6.2c0,8.2-2.6,13.4-8.2,16v0.2
		c6.2,2.6,8.3,8.5,8.3,16.8v12.2c0,3.9,0.1,6.7,1.4,9.6L800.7,160.8z M787.1,92.8v24.4h4.9c4.6,0,7.5-2,7.5-8.4V101
		c0-5.7-1.9-8.2-6.3-8.2H787.1z"/>
	<path id="path890" inkscape:connector-curvature="0" class="st0" d="M816.5,81.5h38.5v11.3h-13v68h-12.5v-68h-13V81.5z"/>
	<path id="path894" inkscape:connector-curvature="0" class="st0" d="M860.5,81.5h12.5v79.4h-12.5V81.5z"/>
	<path id="path906" inkscape:connector-curvature="0" class="st0" d="M898.7,80.5c12.1,0,18.4,7.3,18.4,19.9v2.5h-11.8v-3.3
		c0-5.7-2.3-7.8-6.2-7.8s-6.2,2.2-6.2,7.8c0,5.8,2.5,10.1,10.6,17.2c10.4,9.2,13.7,15.8,13.7,24.8c0,12.7-6.3,20-18.6,20
		c-12.2,0-18.6-7.3-18.6-20v-4.9h11.8v5.7c0,5.7,2.5,7.7,6.5,7.7c4,0,6.5-2,6.5-7.7c0-5.8-2.5-10.1-10.6-17.2
		c-10.4-9.2-13.7-15.8-13.7-24.8C880.4,87.8,886.6,80.5,898.7,80.5"/>
	<path id="path910" inkscape:connector-curvature="0" class="st0" d="M920.8,81.5h38.5v11.3h-13v68h-12.5v-68h-13V81.5z"/>
	<path id="path922" inkscape:connector-curvature="0" class="st0" d="M981.5,80.6c12.1,0,18.4,7.3,18.4,19.9v2.5h-11.8v-3.3
		c0-5.7-2.3-7.8-6.2-7.8c-4,0-6.2,2.2-6.2,7.8c0,5.8,2.5,10.1,10.7,17.2c10.4,9.2,13.7,15.8,13.7,24.8c0,12.7-6.3,20-18.6,20
		c-12.2,0-18.6-7.3-18.6-20v-4.9h11.8v5.7c0,5.7,2.5,7.7,6.5,7.7c4,0,6.5-2,6.5-7.7c0-5.8-2.5-10.1-10.7-17.2
		c-10.4-9.2-13.7-15.8-13.7-24.8C963.2,87.8,969.4,80.6,981.5,80.6"/>
</g>
</svg>
