<?xml version="1.0" encoding="utf-8"?>
<!-- Generator: Adobe Illustrator 27.6.1, SVG Export Plug-In . SVG Version: 6.00 Build 0)  -->
<svg version="1.1" id="Слой_1" xmlns="http://www.w3.org/2000/svg" xmlns:xlink="http://www.w3.org/1999/xlink" x="0px" y="0px"
	 viewBox="0 0 4220 1257" style="enable-background:new 0 0 4220 1257;" xml:space="preserve">
<style type="text/css">
	.st0{fill:#FFFFFF;}
</style>
<g>
	<path class="st0" d="M1928.2,594.8c76.2,0,139.8-27.7,166.5-74.7l2.5,55.4h96.2V276h-231.8v93.1h123c0,69.6-59.4,127.5-135.6,127.5
		c-107.9,0-154-104-154-195.5c0-132.6,61.9-204.7,154.8-204.7c63.6,0,119.7,41.9,125.5,94h117.1C2184.3,78.9,2082.2,0,1950,0
		c-179.9,0-273.6,131.7-273.6,296.2C1676.3,451.4,1774.2,594.8,1928.2,594.8z"/>
	<polygon class="st0" points="2638,476.5 2335,476.5 2335,333.1 2607,333.1 2607,234.9 2335,234.9 2335,115.8 2638,115.8 2638,18.5 
		2222.1,18.5 2222.1,575.5 2638,575.5 	"/>
	<polygon class="st0" points="2770.7,201.4 3008.3,575.5 3115.5,575.5 3115.5,18.5 3006.7,18.5 3006.7,376.7 2785.8,18.5 
		2662.7,18.5 2662.7,575.5 2770.7,575.5 	"/>
	<path class="st0" d="M2038.7,944.2c-41-18.5-102.1-33.6-164.8-48.7c-61.9-15.1-86.2-35.2-86.2-70.5c0-41.9,34.3-65.4,99.6-65.4
		c70.3,0,104.6,27.7,110.5,84.7h110.5c-4.2-106.6-82.8-182.9-223.4-182.9c-135.6,0-203.3,71.3-203.3,171.2
		c0,70.5,33.5,110.7,92.9,137.6c39.3,17.6,83.7,27.7,152.3,42.8c69.5,15.1,86.2,37.8,86.2,70.5c0,49.5-39.3,78.9-108,78.9
		c-74.5,0-122.2-35.2-123.8-92.3h-112.1c2.5,125,97.9,186.2,235.1,186.2c129.7,0,221.8-54.5,221.8-177
		C2125.7,1000.4,2087.2,966,2038.7,944.2z"/>
	<polygon class="st0" points="2104.1,777.2 2271.5,777.2 2271.5,1237 2387.8,1237 2387.8,777.2 2556,777.2 2556,679.9 2104.1,679.9 
			"/>
	<path class="st0" d="M2907.3,1051.6c0,73-36.8,108.2-111.3,108.2c-62.8,0-99.6-43.6-99.6-112.4V679.9h-118v378.4
		c0,134.2,84.5,198,219.2,198c145.6,0,228.4-69.6,228.4-204.7V679.9h-118.8v371.7H2907.3z"/>
	<path class="st0" d="M3268.6,679.9h-215.1V1237h232.6c143.9,0,240.2-114.9,240.2-284.4C3526.4,783.1,3419.3,679.9,3268.6,679.9z
		 M3262.8,1142.2h-96.2V776.4h86.2c111.3,0,154.8,50.3,154.8,176.2C3407.5,1078.4,3364,1142.2,3262.8,1142.2z"/>
	<rect x="3550.1" y="679.9" class="st0" width="116.3" height="557.1"/>
	<path class="st0" d="M3954.7,661.5c-170.7,0-266.9,113.3-266.9,302c0,187.9,96.2,292.8,266.9,292.8s265.3-99,265.3-290.3
		S4125.4,661.5,3954.7,661.5z M3954.7,1156.4c-96.2,0-152.3-58.7-152.3-190.4s54.4-201.4,152.3-201.4c97.1,0,150.6,69.6,150.6,201.4
		C4105.3,1097.7,4038.3,1156.4,3954.7,1156.4z"/>
	<path class="st0" d="M1261.7,17.7h-1104C70.6,17.7,0,87.5,0,173.6v907.6c0,86.1,70.6,155.9,157.7,155.9h1104
		c87.1,0,157.7-69.8,157.7-155.9V685.7l-719.2-105L898,806.6l-139.5-20.4L561,560.8l7.8-52l0,0l5.7-38.3l844.9,123.3V173.6
		C1419.4,87.5,1348.8,17.7,1261.7,17.7z"/>
</g>
</svg>
