<?xml version="1.0" encoding="utf-8"?>
<!-- Generator: Adobe Illustrator 27.0.1, SVG Export Plug-In . SVG Version: 6.00 Build 0)  -->
<svg version="1.1" id="Слой_1" xmlns="http://www.w3.org/2000/svg" xmlns:xlink="http://www.w3.org/1999/xlink" x="0px" y="0px"
	 viewBox="0 0 976.1 321" style="enable-background:new 0 0 976.1 321;" xml:space="preserve">
<style type="text/css">
	.st0{fill:#FFFFFF;}
</style>
<g>
	<g>
		<path id="pjgIkJbxL" class="st0" d="M681.9,239.6c-2.3-1-5-3.2-6.2-4.8c-6.3-8.9-3.9-24.2,4.6-30c11.2-7.5,25.2,0.6,25.2,14.5v4.4
			l-13.2-0.3l-13.3-0.3l0.2,2.9c0.6,7.2,7.9,11.3,17.3,9.6c3-0.5,5.6-0.8,5.6-0.7c0.1,0,0.5,1.1,0.8,2.3c0.6,1.9,0.2,2.3-3.1,3.2
			C694.1,242,686.5,241.7,681.9,239.6z M698.5,216.5c0-3.6-2.8-7.7-6.1-9c-2.8-1.2-3.6-1.1-6.8,0.6c-3.5,1.8-7.6,7.9-6.5,9.6
			c0.3,0.4,4.8,0.8,10,0.8C697.9,218.5,698.5,218.4,698.5,216.5z"/>
		<path id="p8cU68NTi" class="st0" d="M719.5,239.3c-1.9-1.3-4.4-4.3-5.8-6.8c-2-3.9-2.3-5.5-1.9-11.7c0.7-12,6.8-18.7,16.9-18.6
			c3.1,0,5.7,0.8,7.7,2.2l3,2.2l0.3-10.8L740,185l3.3-0.2l3.2-0.3v25.8c0,14.1,0.3,26.7,0.6,28c0.6,2.2,0.4,2.3-2.7,2
			c-2.5-0.2-3.5-0.9-3.9-2.7c-0.5-2.2-0.6-2.2-1.9-0.7C734.4,241.9,725,243,719.5,239.3z M737.5,231.8c1.6-2.1,2-4.1,2-10.5
			c0-7.5-0.2-8.1-2.9-10.9c-3.3-3.3-7.5-3.8-12-1.4c-7.4,3.8-8.3,18.6-1.5,24.7C727,237.1,734,236.2,737.5,231.8z"/>
		<path id="pEtSJGtJy" class="st0" d="M778.5,239.3c-4.8-3.3-6.2-8.6-3.5-13.6c2.9-5.2,6.3-7.2,14.3-8.4c8-1.3,8.8-2.4,5.1-7.2
			c-1.6-2.1-2.9-2.6-6.4-2.6c-2.4,0-5.6,0.5-7,1.2c-2.8,1.3-3,1.2-3.9-1.9c-0.6-1.8-0.1-2.3,3.1-3.4c5.6-1.8,13.5-1.6,16.6,0.4
			c5.5,3.6,6.2,5.9,6.5,21.9l0.4,14.8h-3.1c-2.5,0-3.1-0.4-3.1-2.1c0-2,0-2-3.1,0.2C789.7,241.9,782.8,242.3,778.5,239.3z
			 M793.6,233.6c2.4-2.4,2.9-3.8,2.9-7.5c0-4.6,0-4.6-3.5-4.6c-9.8,0-15.7,7.2-10.5,12.8C785.5,237.5,790,237.2,793.6,233.6z"/>
		<path id="p16F9iVJo7" class="st0" d="M609.5,221.5v-19.1l2.7,0.3c2.2,0.2,2.9,0.9,3.3,3.3c0.6,2.9,0.6,2.9,1.8,0.9
			c0.6-1.2,3-2.9,5.2-3.8c5.3-2.1,11-0.8,13.8,3.2l2,2.7l2.7-2.8c5.1-5,12.6-5.6,17.4-1.3c4.2,3.8,5.1,7.5,5.1,22.1v13.5H660h-3.5
			v-13c0-14.6-1.1-18.5-5.6-19.6c-1.6-0.4-3.9,0-5.9,0.9c-4.4,2.1-5.5,6-5.5,20.5v11.2h-3h-3v-11.2c0-6.2-0.5-13-1-15
			c-1.9-6.7-7.7-8.7-12.7-4.4c-2.8,2.4-2.8,2.6-3.3,16.3L616,240l-3.2,0.3l-3.3,0.3V221.5z"/>
		<path id="p52ApmnVf" class="st0" d="M758.5,221.4v-19l3.3,0.3l3.2,0.3l0.3,18.8l0.2,18.7H762h-3.5V221.4z"/>
		<path id="p146bQbDlK" class="st0" d="M758.7,195.3c-1.9-1.9-1.4-5.6,0.8-6.8c2.3-1.2,5.4,0,6.4,2.6c0.8,2.1,0.8,2-1,3.8
			C763.1,196.8,760.4,197,758.7,195.3z"/>
		<path id="pmDsoNWfW" class="st0" d="M929,178.3c-0.2-0.7-1-3.8-1.8-6.9l-1.4-5.6l3.4-1.2c4.1-1.5,11.3-8.1,11.3-10.4
			c0-0.9-4.5-12.8-9.9-26.4l-10-24.8l8.6-0.3c4.7-0.2,9,0.1,9.4,0.5c0.9,1,9.9,30.9,9.9,32.9c0,0.8,0.3,1.4,0.8,1.4
			c0.4,0,2.5-7.4,4.6-16.5c2.2-9.1,4.3-17,4.6-17.5c0.4-0.7,4-1,9.1-0.8l8.5,0.3l-7.8,22c-12.3,34.5-18.2,45.2-28.2,51
			C934.8,179,929.7,180.1,929,178.3z"/>
		<path id="p6L7RzR8c" class="st0" d="M465.5,155.4c-19.6-3.2-31.5-20.6-28.1-41c2.1-12.9,8.6-21.9,19.5-27
			c10.1-4.7,20.1-5.9,32.1-3.8c9,1.5,9.1,1.6,7.5,8.9l-1.3,6.2l-3.6-0.9c-2-0.4-7.9-0.8-13.2-0.8c-8.9,0-9.9,0.2-14.4,3
			c-6.8,4.2-9.7,10-9.7,19.3c-0.1,8.3,2.5,14.7,7.8,19.1c4.2,3.4,12.5,5.4,18.2,4.5l4.2-0.7v-7.3v-7.3l-5.2-0.3L474,127l-0.3-6.2
			l-0.3-6.3H487h13.5v19v18.9l-3.7,1C484.8,156.5,475.9,157.1,465.5,155.4z"/>
		<path id="pIhhXDcKF" class="st0" d="M524.4,153.8c-9.8-5-14.4-13.9-13.7-26.3c0.4-8.4,3.9-15.3,9.6-19.7c12.3-9.4,31.9-6.9,39.9,5
			c7.4,11,6.3,27-2.5,36C550,156.7,534.8,159,524.4,153.8z M544.2,141.9c3.2-3.5,4.6-9.8,3.8-16.3c-1.6-12.5-13.3-16.3-18.6-5.9
			c-2.6,5.1-2.5,13.9,0.2,19.4C532.8,145.8,539.6,147.1,544.2,141.9z"/>
		<path id="p1ASymo42p" class="st0" d="M589.2,155.1c-5.8-2.1-10.5-6.2-13.5-11.9c-2.3-4.5-2.7-6.4-2.7-13.7c0-7.5,0.4-9.1,2.9-13.8
			c5.1-9.2,12.7-13.2,25-13.2c16.9,0,28,12.3,26.2,29.2c-1.1,11-5.9,18-15.1,22.4C606.2,156.9,595.5,157.3,589.2,155.1z
			 M605.4,143.1c2.4-1.8,5.1-8.9,5.1-13.1c0-11.9-6.2-18.7-14.1-15.4c-5.7,2.3-8.5,12.7-5.9,22C592.6,144,600.1,147.3,605.4,143.1z"
			/>
		<path id="pqqEjIzIF" class="st0" d="M647.4,154.2c-14-7.3-17.1-32.7-5.5-45c6.1-6.6,19.1-8.9,26.2-4.8c1.9,1.2,3.7,2.1,4,2.1
			c0.2,0,0.4-6.1,0.4-13.5V79.5h8h8v38v38h-7h-7v-2.8c0-3.9-1-4.6-2.8-2.1C667.7,156.4,655.1,158.2,647.4,154.2z M668.8,140.9
			c3-2.9,4.2-9,3.4-16.2c-1.2-11.2-14.3-13.8-19.1-3.8c-3.2,6.8-1.4,17.5,3.5,21C660.2,144.4,665.8,144,668.8,140.9z"/>
		<path id="pgjD7UuzQ" class="st0" d="M728.4,155c-7.8-2.1-7.7-2-4.9-12.6l1-3.8l3.7,1.5c9.1,3.9,21.1,3.5,24.5-0.6
			c4.4-5.4,0.9-9.6-12.6-15.5c-12.5-5.4-17.6-11.5-17.6-21c0-12.5,9.1-20.3,24.7-21.3c9.1-0.5,21.8,2,21,4.2c-0.2,0.6-1,3.5-1.8,6.4
			c-1.2,5-1.5,5.3-3.9,4.8c-13.9-3.2-20.1-2.5-22.9,2.6c-2.5,4.3,0.6,7.4,12.5,12.5c11.1,4.8,16.5,9.5,18.3,15.9
			c1.6,5.9,1.3,9.4-1.3,15c-2.8,6-5.8,8.6-13.2,11.4C749.5,156.8,735.9,157.1,728.4,155z"/>
		<path id="p1IvR03pL" class="st0" d="M791.4,154.4c-6.1-3.6-7.2-7.2-7.7-24.6l-0.4-15.3h-3.4h-3.4v-6v-6h3.5h3.5v-5v-4.9l4.3-1.1
			c2.3-0.6,5.5-1.5,7.1-2c1.6-0.6,3.3-1,3.7-1s0.9,3,1.1,6.8l0.3,6.7l5.8,0.3l5.7,0.3v5.9v5.9l-5.7,0.3L800,115v12.3
			c0,11.9,0.1,12.5,2.4,14.3c1.6,1.3,3.6,1.9,5.5,1.7l3.1-0.3l0.3,6.1c0.3,5.7,0.1,6.2-2,6.8C804.1,157.2,795,156.5,791.4,154.4z"/>
		<path id="p8Qvx1n0U" class="st0" d="M833.5,154.6c-5.4-2.2-10.3-6.8-13.3-12.5c-3.1-6-3-19.2,0.2-25.9
			c4.5-9.1,14.1-14.7,25.5-14.7c10.8,0,18.7,4.6,23.9,13.8c2.6,4.7,3,6.3,3,13.2c0,6.8-0.5,8.8-2.9,13.7
			c-3.2,6.4-9.1,11.6-15.2,13.3C849,157.1,838.6,156.6,833.5,154.6z M851.6,142.3c3.1-3.3,4-6.5,4.1-13.4c0-9.5-3.7-15.3-9.9-15.4
			c-4.5,0-6,0.8-8.2,4.4c-4.3,6.8-3.6,18.6,1.4,24C842.2,145.4,848.4,145.6,851.6,142.3z"/>
		<path id="pON77usTQ" class="st0" d="M883.5,133.6c0-12-0.3-23.9-0.6-26.5l-0.7-4.6h7.7h7.6v4.7v4.7l2.5-3.4
			c3.1-4.2,7.9-6.9,12.3-7h3.2v7.8v7.9l-2.9-0.5c-4.3-0.6-10.1,2.5-11.7,6.4c-1,2.3-1.4,7.8-1.4,17.9v14.5h-8h-8L883.5,133.6
			L883.5,133.6z"/>
	</g>
</g>
<polygon class="st0" points="0,0 139.2,0 139.2,140.9 "/>
<polygon class="st0" points="141.8,0 141.8,140.9 198.7,226.7 290.2,152.8 "/>
<polygon class="st0" points="141.8,147.1 141.8,321 216.5,260.3 "/>
<polygon class="st0" points="305.9,65.3 291.3,149.7 226.5,82.4 "/>
<polygon class="st0" points="309.1,68.1 333.9,102.7 301.9,104.1 "/>
</svg>
