<?xml version="1.0" encoding="utf-8"?>
<!-- Generator: Adobe Illustrator 27.0.1, SVG Export Plug-In . SVG Version: 6.00 Build 0)  -->
<svg version="1.1" id="Layer_1" xmlns="http://www.w3.org/2000/svg" xmlns:xlink="http://www.w3.org/1999/xlink" x="0px" y="0px"
	 viewBox="0 0 1000 421.2" style="enable-background:new 0 0 1000 421.2;" xml:space="preserve">
<style type="text/css">
	.st0{fill:#FFFFFF;}
</style>
<g>
	<path class="st0" d="M804.4,305c2.3,1.8,4.4,5.8,3.7,10.8c-1,8.7-8.7,13.6-18.4,11.5l-4.5-2.1l-3.5-3.1l1.7-3.6l2.2-3.2
		c2.1,1.5,5.5,5.4,9.6,4.8c2.5-0.4,5.4-2.8,4.2-6.7l-11.6-6c-4.1-2.4-6-8.4-3.8-14.2c2.1-5.4,8.9-8.4,16.5-6.7l5.5,2.8l-2.5,6.3
		c-2.2-0.4-4.6-3-8.6-2.2l-1.3,7.4L804.4,305"/>
	<path class="st0" d="M753,287.1c0.5,12.4,0.5,27,0,39.3h-8.8l-4.6-6.4c-3-4.7-6-8.7-8.9-13l-4.4-6.6l-0.2,3.8
		c0.5,6.7-0.3,15.3-0.2,22.1l-8.3,0.2c-0.4-12.1-0.2-26.9,0-39.2h8.4l4,5l3.6,5.4l7.2,10.6l3,4.9l0.7-6.1c0-6.4-0.2-14.1,0.1-19.8
		L753,287.1"/>
	<path class="st0" d="M618.6,287.3c0.5,12.5,0.2,26.2,0.2,39l-8.9,0.2c-0.3-10.8-0.3-23.4-0.3-34.8l0.5-4.5L618.6,287.3"/>
	<path class="st0" d="M580.7,287.3v8l-7.8,1.1l-0.2,7.2c0,7.5,0.2,16.3,0,22.7l-8.8,0.2c-0.5-6.1-0.3-15.2-0.3-23l-0.3-7.4l-8-0.6
		l-0.3-4.2l0.5-4.1C563.2,287.2,572.7,287,580.7,287.3"/>
	<path class="st0" d="M529.3,288.9l-0.2,9.3l-4.8-3l-6.5-0.1c-11.1,3-9.7,26.2,5.5,23.5l5.7-3.2v9.4c-2.7,2.4-8.6,3.3-13.6,2.4
		c-14.5-2.9-18.8-26-8.2-36.4c2.8-2.7,7-4.9,12.3-4.9L529.3,288.9"/>
	<path class="st0" d="M472,287.3c-0.7,12.6,2.9,30.3-3.9,36.9c-3.2,3.1-11.6,4.3-18.1,3.1l-8.1-5.3c-3.7-6-2.1-19.7-2.4-29.4
		l0.5-5.3l8.4,0.1c1.8,9.3-3.5,29.4,4.9,32c4.3,1.3,8.4-1.2,9.3-4.9c0.8-3.6,0.1-9.3,0.1-13.6c0-4.8-0.1-9.3,0.2-13.5L472,287.3"/>
	<path class="st0" d="M395.2,287.3c12,1.7,17.5,14.2,14.1,26.8c-1.7,6.3-7.2,11.2-14.2,12.2c-5.1,0.7-11.5,0-17.5,0
		c-0.3-12.6-0.3-26.2,0-38.7l0.4-0.5C384,287.6,389.7,286.6,395.2,287.3 M396.6,316.9c5.1-3.3,5.9-13.4,2.1-18.3l-5.8-3.4l-6.3,0.7
		c-0.2,7-0.5,15.4,0.2,22.1L396.6,316.9z"/>
	<path class="st0" d="M346.8,299.6c1.3,4.1,1.3,11.2-0.1,15.1c-2.2,5.9-7.9,11.2-14,12.5c-12.7,2.7-22.7-6.8-23.9-17.9
		c-0.7-6.4,1.5-12,4.1-15.5c2.4-3.3,6.8-6.6,11.3-7.4h0.9c7.3-0.9,12.9,1.3,16.6,5L346.8,299.6 M334.6,317.1
		c6.3-5.3,4.9-18.2-2-21.8l-5.5-0.9c-6.6,1.2-10.2,7.5-9,16c0.8,5.1,6,10.1,11.8,9.1L334.6,317.1z"/>
	<path class="st0" d="M282.5,326.5l-9.9-0.2l-2.1-3.6l-6.3-10.5l-0.9,6.8l-0.3,7.4l-8.1,0.2c-0.7-9,0.1-19.3-0.3-29l0.2-9.8l0.5-0.5
		c7.6,0.8,15.4-1.6,20.9,1.4c5.8,3.2,7.4,14.8,2,19.5l-4.5,2.8l1.9,4.1l2.3,3.8L282.5,326.5 M271.8,303.6c2.5-5-2.1-11.1-8-9.1v11.6
		L271.8,303.6z"/>
	<path class="st0" d="M220.4,288.4c5.6,3,7.7,14.1,3.8,20.2c-3.1,4.8-9.2,4.5-16.1,5.2l-0.8,12.7h-8c-0.2-12.7-0.2-26.3,0-39
		l0.5-0.3C207,288,215.1,285.7,220.4,288.4 M217.3,301.6c1.3-6-5-8.3-9.4-6.3v9.6L217.3,301.6z"/>
	<path class="st0" d="M687.5,303.8l-0.5,9.6c-1.7,6.7-8.2,12.7-14.4,13.9c-12.5,2.5-21.7-5.9-23.7-15.7v-9.1
		c1.1-6.1,5.1-11.4,10.3-14.3l5.2-1.7c9.9-1.5,17.1,3.5,20.5,9.3L687.5,303.8 M666.7,319.4c10,1.4,14.9-11.9,10.2-19.9
		c-1.7-2.9-6-6-9.9-5.3c-8.8,1.7-12.2,13.7-6.6,21.3L666.7,319.4z"/>
	<path class="st0" d="M520.2,376.3c10.6-0.9,19.8,2.7,21.5,8.4l0.7-3.5c-0.5-6.4-10.3-10.8-21.8-9.8c-11.5,1-20.3,7-19.8,13.4
		l0.3,1.4C503.2,381.3,510.8,377.1,520.2,376.3"/>
	<path class="st0" d="M553.7,389.1c-0.2-6,7.6-12.4,18.4-14.4c8.9-1.8,17-0.1,20.8,3.7l-0.2-3.9c-2-6.1-12.5-8-23.5-4.3
		c-10.9,3.7-18.2,11.6-16.1,17.7L553.7,389.1"/>
	<path class="st0" d="M468.2,47.8c10.2-2.7,17-10.3,15.3-17l-7.2-6.9l1.2,2.3c2.2,6.5-4.1,14.5-14.1,18c-5,1.7-10.1,1.9-14.1,0.8
		C453.3,48.5,460.7,49.8,468.2,47.8"/>
	<path class="st0" d="M602,380.5c0.6-3.3,4.3-7.9,9.8-11.6c6.1-4.1,12.5-5.9,15.5-4.5l-0.4-2.8c-2.1-3.1-9.6-1.5-16.8,3.5
		c-7.3,4.9-11.5,11.4-9.4,14.4L602,380.5"/>
	<path class="st0" d="M411,199.3l0,1.8l-0.6,2l0,0.2v0.5h0.3c10.5,0,19.1,8.5,19.1,19.1l-1.7,7.7c4.7-3.5,7.8-9,7.8-15.3
		c0-10.5-8.6-19.1-19.1-19.1l-5.1,0.7l-0.1,1L411,199.3"/>
	<path class="st0" d="M396.4,151.7l0.4-1.9l0.7-3.5l0.1-1.2l-3-0.2c-5.3,0-10.1,2.1-13.6,5.6"/>
	<path class="st0" d="M374.3,132.3c5.4-1.9,9.9-7.1,11.3-13.9c2.1-9.6-2.7-18.9-10.8-20.6l-9.2,1.5l1.6,0.2c8,1.8,12.9,11,10.8,20.6
		c-0.9,4.2-3,7.8-5.6,10.3L374.3,132.3"/>
	<path class="st0" d="M513.7,264.2c0-10.6-8.6-19.1-19.1-19.1c-8.8,0-16.3,6-18.4,14.3c3.5-4.4,8.9-7.2,15-7.2
		c10.5,0,19.1,8.6,19.1,19.1l-0.6,4.8C512.1,272.9,513.7,268.7,513.7,264.2"/>
	<path class="st0" d="M562.7,266.6c0-10.6-8.6-19.1-19.1-19.1c-10.5,0-18.9,8.4-19.1,18.8c3.1-6.2,9.6-10.5,17-10.5
		c10.6,0,19.2,8.6,19.2,19.1v0.3L562.7,266.6"/>
	<path class="st0" d="M589.4,253.5l-9.8-1.6l-0.6-0.5c-2.3,2.8-3.8,6.4-4.3,10.4c-0.6,5.1,0.7,9.9,3.2,13.7V270
		c1.2-10.5,9.9-18,19.4-17c4.8,0.6,9,3.3,11.7,7.4c-1-7.4-5.9-13.3-12.6-15.1C595.8,248.2,594,252.2,589.4,253.5"/>
	<path class="st0" d="M565.4,355.7l0.1,1.4l1.4-6c0-8.6-8.1-15.6-18.1-15.6c-9.9,0-18,7-18,15.6l0.1,1.7c2.4-5.2,7.8-9.2,14.5-10.1
		C555.2,341.3,564.3,347.2,565.4,355.7"/>
	<path class="st0" d="M612.8,347l0.5,3l2-10.4c-2.4-6.8-11.9-9.7-21.3-6.4c-8.1,2.7-13.5,9.1-13.4,15.2c2.3-3.4,6.2-6.2,10.9-7.9
		C600.9,337.3,610.5,340.2,612.8,347"/>
	<path class="st0" d="M489.5,343.7c11.2,0,20.2,7,20.2,15.7l-0.9,4.6c3.6-2.8,5.8-6.7,5.8-11c0-8.6-9-15.6-20.2-15.6
		c-9.1,0-16.8,4.7-19.3,11C478.8,345.5,483.9,343.7,489.5,343.7"/>
	<path class="st0" d="M456.9,356.8c2.9-8-2.7-17.6-12.7-21.3c-10-3.6-20.5-0.1-23.5,8v0.1c4.7-3.3,11.7-4.2,18.5-1.7
		c10,3.6,15.6,13.2,12.7,21.3L456.9,356.8"/>
	<path class="st0" d="M443.7,248.4c-7.6,0-14.1,4.4-17.2,10.8c3.4-2.8,7.6-4.5,12.3-4.5c10.5,0,19.1,8.6,19.1,19.1l-1.9,8.3
		c4.2-3.5,6.9-8.7,6.9-14.7C462.8,257,454.2,248.4,443.7,248.4"/>
	<path class="st0" d="M478.5,213.8v-0.3l0.1-1.7l0.6-2l0-2v0l0.7-1.7v-0.1l0.1-1.9l0.5-1.5c-3.5-4.1-8.8-6.9-14.7-6.9
		c-8,0-14.9,5-17.7,12c3.4-3.1,7.8-4.9,12.8-4.9c7.8,0,14.6,4.7,17.5,11.4l0-0.2L478.5,213.8"/>
	<path class="st0" d="M529.3,208.6l0.1-0.1v-1.4l0.7-2V205l0.1-1.7l0.5-1.5c-4.5-3.1-10.3-4.5-16.1-2.9c-6.3,1.6-11,6.4-13.1,12.1
		l-0.9,3.9c2.5-3.8,6.3-6.7,11-7.9c6.2-1.7,12.4,0,17,3.8v-0.2L529.3,208.6"/>
	<path class="st0" d="M450,167.5c-1.2,5.2-4.3,9.5-8.7,12.3c9.3-0.8,16.8-8.1,17.6-17.5l-2.3,1.2L450,167.5"/>
	<polyline class="st0" points="439.9,141.5 430,144.3 431.4,144.3 441.1,146.9 447.6,143.1 	"/>
	<path class="st0" d="M442.8,81.7c10.2-2.7,16.8-11.3,14.6-19.3c-1.6-5.9-7.5-9.8-14.8-10.3l7.2,8.3c2.1,8-4.4,16.6-14.6,19.3
		l-7.5,0.8C431.9,82.5,437.3,83.2,442.8,81.7"/>
	<path class="st0" d="M432.2,113.7c0-9.8-8-17.9-18-17.9l-7.2,1.5c9.9,0,17.9,8,17.9,18c0,7.2-4.4,13.5-10.6,16.3l0.2,0.1
		C424.3,131.5,432.2,123.5,432.2,113.7"/>
	<path class="st0" d="M638.5,250.9l8.1,5.7c-1.1-7-5.2-12.3-10.6-13c-7.1-0.9-13.9,6.6-15.1,16.8c-0.6,5.4,0.5,10.5,2.7,14.2
		l-0.1-6.8C624.6,257.6,631.3,250.1,638.5,250.9"/>
	<path class="st0" d="M668.9,242.5c-5.6-0.6-11.1,6.2-12.1,15.3c-1,7.6,1.6,14.5,5.7,16.8c-1.2-3.1-1.8-6.9-1.2-11.1
		c1.1-9.1,6.5-15.9,12.1-15.2l2.5,0.8L668.9,242.5"/>
	<path class="st0" d="M633.6,340.5c6.5-6,13.7-8.6,16.1-6l0.4,0.5l0.9-7.8c-2.5-2.7-9.7,0-16.2,5.8c-6.1,5.7-9.3,12.3-7.5,15.3
		L633.6,340.5"/>
	<path class="st0" d="M408.9,268.7c0,4.4-1.4,8.6-3.7,11.8c5.2-3.6,8.6-9.8,8.6-16.8c0-8.9-5.6-16.4-13.4-19.1l-2.3,6.1
		C404.5,254.1,408.9,260.9,408.9,268.7"/>
	<path class="st0" d="M340.8,214.6c1.3,6.6,0.7,12.7-1.4,16.9c5.6-2,8.4-11.5,6.3-21.8l-2.8-8.4l-5.6,3.8L340.8,214.6"/>
	<path class="st0" d="M490.1,17.4l-10.4-0.5c3.4,1.8,9.5,2.8,16.5,2.4c10.5-0.6,18.9-4.1,18.7-7.9c-0.2-2.4-3.7-4.3-9.1-5.3l2.9,3.4
		C509,13.3,500.7,16.9,490.1,17.4"/>
	<path class="st0" d="M561.8,17.9c-0.3,2.3-6.3,3.3-14.2,2.8c10.1,1.4,18.6,0.3,18.9-2.4v-0.2l-5.5-1.9L561.8,17.9"/>
	<path class="st0" d="M373.6,82.4l1.7,2.2c5.3,5.2,15.2,3.6,22.1-3.6c6.9-7.1,8.1-17.1,2.8-22.2l-3.3-2.1c3.2,5.4,1.5,13.8-4.5,20
		C386.8,82.5,379.1,84.7,373.6,82.4"/>
	<path class="st0" d="M423.5,50.2c8.4-5.2,12.5-13.9,9.1-19.4l-7.2-4.3l1.5,1.8c3.4,5.6-0.6,14.4-9.1,19.5c-4.8,2.9-10,4.1-14.2,3.5
		C407.8,55,416,54.7,423.5,50.2"/>
	<path class="st0" d="M343.5,121.9c3.7-9.2,3.4-18-0.8-19.7l-3.4,0.1c2,3.4,1.7,10.5-1.3,17.7c-2.2,5.5-5.4,9.8-8.6,12.1l6,1.5
		C338.5,131.3,341.4,127.1,343.5,121.9"/>
	<path class="st0" d="M343.7,93.6l0.6,0.6c3.7,2.5,11.2-2.1,16.8-10.3c5.5-8.2,7-16.9,3.3-19.4l-4.4-0.5c3,3.1,1.3,11.3-3.9,19
		C352.4,88.6,347.6,92.5,343.7,93.6"/>
	<path class="st0" d="M377.6,49l-9.6,6.4l0.2,0.2c1.9,2.1,8.2-0.7,14-6.1c5.7-5.5,8.9-11.5,7-13.6l-4.4,2.8
		C384.1,41.4,381.5,45.4,377.6,49"/>
	<path class="st0" d="M411.6,25.1l8.9-4.9c-6.1,2.5-12.1,5.2-17.9,8.2L411.6,25.1"/>
	<path class="st0" d="M441.8,18.8l-9.8,1.7c2.9,1,8.5,0.5,14.5-1.2c8.3-2.4,14.5-6.7,13.7-9.5l-0.6-1l-4.1,0.7
		C455.8,12.4,449.8,16.5,441.8,18.8"/>
	<path class="st0" d="M686.7,271.6c-0.2-3.1,0.2-7.4,1.3-11.9c1.5-7.1,3.9-12.7,6-14.6l-1.9-5.2c-2.3-0.5-5.8,6.3-7.7,15.3
		c-2,8.9-1.7,16.6,0.7,17.2L686.7,271.6"/>
	<path class="st0" d="M685,161.8c0.7,9.1,3.1,16.4,5.5,16.3l1.4-1c-1-2.8-1.6-6.6-1.9-10.7c-0.6-7.2,0.2-13.5,1.7-15.8l-3.6-5.4"/>
	<path class="st0" d="M622.2,290.7l0.2,7l7.1-0.4l4.7,2.4c-1.7-4.3-4.9-7.6-9.3-8.6L622.2,290.7"/>
	<path class="st0" d="M591,313.6l0.5-4.1c0-5.6-2.9-10.5-7.2-13.6l-0.1,0.4l-0.4,1.5l-1.3,0.7l-5.7,0.6l-0.7,0l0.1,1.7
		C583.4,301.5,589.3,306.7,591,313.6"/>
	<polyline class="st0" points="560.1,307.8 560.1,303.5 560.2,301.2 560.2,299.9 557.1,309.4 557.6,313.2 	"/>
	<path class="st0" d="M523.1,298.6l-4.4-0.1l-4.3,5l2.8-0.2c6,0,11.3,3,14.5,7.7l0.4-0.2l0.1,1l2.6,7.9l1.4-6.9
		c0-4.2-1.5-8.1-4-11.2l-0.3,1.6l-4.2-1.6l-3.5-2.1L523.1,298.6"/>
	<path class="st0" d="M475.6,299.1l0.2,8.6c2.3,3.1,3.8,6.9,3.8,11.2l-1.9,8.2c4.1-3.5,6.9-8.7,6.9-14.6c0-6.8-3.6-12.7-9-16.1
		L475.6,299.1"/>
	<polyline class="st0" points="452.2,299.5 452.1,302.2 459.2,300.1 459.2,297.5 459.2,294.9 	"/>
	<path class="st0" d="M324.8,314.8l4.6,1.2l3-1.6l2.8-7.2l-0.1-1.5l-4-7.2l-3.3-0.6c-4.7,0.9-7,5.5-6.1,12L324.8,314.8"/>
	<path class="st0" d="M433.2,312.3c0-11-8.6-20-19.3-20l-3.9,0.5l2.9,6.3c8.8,1.9,15.4,9.9,15.4,19.6l-2.1,9.2
		C430.3,324.2,433.2,318.6,433.2,312.3"/>
	<polyline class="st0" points="396.9,302.9 396.9,302.9 396.7,303.1 	"/>
	<path class="st0" d="M359.8,289.3l9.6-2.7l4.7,0.7v-0.2l0.1-0.5l2.6-2.7l0.8-0.2h3.4l-6.6-1.2C368.5,282.4,363.3,285,359.8,289.3"
		/>
	<path class="st0" d="M390.1,298.5L390,308l0.1,5.7c2.2-3.1,3.5-7.1,3.5-11.4l-0.3-3.4l-1-0.3L390.1,298.5"/>
	<path class="st0" d="M310.3,175.2L310.3,175.2l0.8-4l0.2-1.6l0.3-0.6l0.9-6.6c-3.6,5.3-5.8,12.6-7.7,19.3l-0.3,0.9l-0.2,0.6
		l1.4,1.1l7.2,2.3l-3.1-4.8"/>
	<path class="st0" d="M317.2,111.7l-0.6,9.1l-0.5,1.7l-1.7,4.4v0.3l-4.9,9.2v0l4.9-2.2c4.2-5.7,10.1-18.4,9.9-25.9l-2.3-5.7
		l-5.6,9.5"/>
	<path class="st0" d="M669.9,298.1c-2.2,6.4-2.1,12.1,0.6,13.2l1.5,0.1c-0.2-2.6,0.3-6.4,1.7-10.3L669.9,298.1"/>
	<path class="st0" d="M700.7,224.4c-1.5,23.2-7,45.5-15.7,66l2.7,3.8l1,1.9c9.6-21.5,15.7-45,17.5-69.6l-0.2-0.1L700.7,224.4"/>
	<path class="st0" d="M702.1,166.4C681.8,71.4,597.1,0,496.2,0c-88.9,0-165,55.3-196,133.3l5.8,0.8c3.1-7.6,6.5-14.9,10.4-22
		l5.6-9.5c16-25.7,37.4-47.6,62.8-64l4.4-2.8c4.3-2.7,8.7-5.1,13.2-7.4c5.8-3,11.7-5.7,17.9-8.2c11.3-4.5,23-8,35.2-10.5l4.1-0.7
		c11.9-2.1,24-3.2,36.5-3.2c22.6,0,44.4,3.7,64.8,10.5l5.5,1.9c66.5,24.4,117,82.3,130.8,153.2l0.7-0.7L702.1,166.4"/>
	<path class="st0" d="M662.2,330.6c-14.2,19.6-31.8,36.8-51.9,50.3l-0.8,0.5l-3.1,1l-2.7,1.1l-1.9,0.6l-2.2,0.6l-3.1,0.5
		c-11.5,0.6-18.2,6-29.6,6.6h-8.1c-17.5-2-30.7,5.6-46.8,3.1h-0.3c-4.9-0.9-11.4-2.3-14.6-5.3l-3.9-6.3c-6.7-9.5-18.1-13.7-33.5-15
		c-6.3-0.5-12.2,2.3-19.7,0.8l-11.6-4.7l-9.4-6.9l-6.1-9.7c-5.2-7.7-11.5-12.4-19.5-17.7h-10.1l-9.2-0.2l0-3.4l-0.2-8.5
		c-16.1-10.7-14.9-26.6-14.9-26.6l-0.8-0.1l-3.3-3.1l-4.7-1.7c-3.8-2.7-4.5-7.4-8.3-10.5c-4.1-10.3-4.6-23.9-10.3-32.7
		c-5-7.6-13.8-11.5-12.2-25.8v-5.7l-1.3,0.3l-8-0.2c0.4,5.5,0.5,12.6-2.3,15.3c-4.3-2.1-6.1-10.4-5.3-17.4l-4.9-2.6
		c-1.6,5.3-3,10.8-4.5,16.5l-1.3,4.3l0,0.3l-2.3,8.5l-1.6,5.3c3.1,20.6,9.2,40.3,17.9,58.5l3-7.1l1.2-1.8c3.2-4.5,8.6-7.9,13.6-8.7
		l1.1,0c7.7-0.9,14.7,1.2,19.5,6l6.1,9.5l1.2,8.4l-1.3,9.1c-2.6,7.2-9.5,13.2-16.6,14.8l-2.8,0.5l0-0.1l-7.3-0.5
		c38.1,54.6,101.4,90.5,173,90.5c71.2,0,134.3-35.6,172.4-89.9L662.2,330.6 M326.1,272.7c-4,1.3-7.7-8.4-8.3-11.3l1.4-8.9
		c3.3,0.2,6.3,4.6,7.5,8.6L326.1,272.7z M394.5,355.6c-5.3,2.4-12.6-2.9-13-7.8C387.4,343.5,395.9,348.3,394.5,355.6 M457.4,390.1
		h-0.3c-3.9-1.7-8-3.2-8.6-8.3l7.2-0.9l6.6-0.6c7.8,0.3,12.2,5.6,16.4,8.9C475.2,394,462.2,392.9,457.4,390.1"/>
	<polyline class="st0" points="682.4,284.1 678.3,285.1 683,288.1 684.3,287.7 	"/>
	<path class="st0" d="M998.6,196.8l1.4,4.8l-4.1,7.2c-3.6,4-8.9,8.5-15.3,9.8c-7.9,1.5-13.4-3.2-16-7.8l-1.7-4.3v-8.7l0.7-2.2
		l0.1-1.9c0.9-4,2.6-8.1,3.9-12l3.1-8.8l0.9-3l-0.5-4l-4.1,1.2c-3.9,1.7-7.7,3.8-10.3,6.4c-3.8,3.6-6.3,8.5-8.4,13.6
		c-3.1,7.8-6,15.8-9.7,23.4c-1.7,3.5-3,8.4-7.9,8.2c-3.9-0.3-7.2-3.8-6.5-8.8l2.2-5.8c2.9-7.8,6-19.7,6.5-28.2l0.1-8.8l-4.2,1.8
		l-7.1,5l-3.2,2.9l0.8,3.8v9.3l-0.7,2.4l-0.1,2.3l-0.8,2.1c-2.4,9.6-8.2,18.1-17,21.4c-2.8,1.1-7.7,1.7-11.9,1.3l-5.3-1.3
		c-4.7-1.5-9.2-3.8-12.1-7.2l-2.3-2.7l-4,2.9l-8.1,5.5l-4.4,2.3l-3.1,2.9c-2.6,2-5.7,3.1-9.8,3.8l-2.6,0.4l-2.7-0.5l-2.9-0.2
		c-5.9-1.2-11.3-4.2-15.9-7.7l-3.6-2.7l-9.3,3.8c-5.5,1.5-13.9,1.5-18.8-0.6l-7.3-6.6l-5,3.6l-9.5,1.7l-4.5-1.9
		c-3.8-2.3-6.8-6.6-8-11.2l-1.4-4.3l-2.8,3.4l-7.9,10c-3.8,4.2-8.3,8.4-14.1,9.8l-2.2,0.3l-14.4-0.3l-8.6-4.2l-5.1-6.9l-1.6-2.3
		l-3.4,3.1c-3.2,3.2-6.5,6.5-10.4,8.8c-2.7,1.4-7.2,2.7-11.5,1.5c-4.3-1.2-7.5-4.7-9.3-8.5l-1.9-3.9l-2.9,2.1
		c-5.4,4.7-10.1,9-17.9,11.5c-2.6,0.9-5.6,1.6-9.8,1l-7-2.8c-3-2-6.4-6.3-8-10.8l-1.6-6l0.5-8.4l1.6-6.2c3.5-9.1,9.3-16.2,15.6-22.5
		c6.4-6.4,15.2-12.7,26.1-14.6l2.1-0.7h8.1c7,1.1,12.9,6.2,15.2,11.3l0.7,3.9l-1.3,3.8l-1,4.1c-1.7,5.3-4.2,8.9-6,14.4l-1.2,4
		c-0.8,2.6-1.9,6.7-1.2,10.8l3,4l7.7-5.5c8.6-9.1,14.9-20.5,23.2-29.7c5-5.7,11.2-11.2,18.7-14.4l6.9-2.1l7.4-0.5l5.7,1.6l7.3,4.6
		l2.3,1.5l2.1-3.7c3.6-9.5,7.2-19.3,10.4-29.2c2.9-8.7,5.8-16.6,8.6-25.4l1.6-4.1l5.3-6.8l7.2,4.2l-1.2,8.6
		c-1.3,4.1-2.7,9.1-3.8,13.1c-4.3,14.8-9.2,28.5-12.9,44l-1.6,6.8c-1.2,5.3-5,19.3-3.6,23.9l2.9,6.9l4.7-4.1
		c3.3-5.7,6.1-11.4,8.9-17.3c2-3.9,4-8.4,5.5-11.9l2.7-6.2l5.4-8.4c5.2-2,10.8,1.8,9.1,8l-1.8,4.1c-3.3,7.9-7,16.4-9.4,25.6
		l-0.3,2.5l-0.7,2.2v3l0.5,4.6l5.3,1.3l2.5-0.4c7-1.4,11.8-5.1,16.1-9.4c3.9-3.9,7.2-7.9,10.4-12.2c5.1-6.9,9.2-13.1,14.1-20
		c2.3-3.2,4.3-7.5,8.6-8.1l6.8,4.5c1.9,10.7,4.8,20.4,6.6,31.2l0.6,5.5l4.5-4l3.4-5l0.4-2.3c1.3-4.6,2.7-9.1,4.4-13.6l3.1-7.3
		c1.6-3.9,2.2-8.1,6-9.6l8.4-2.2c4.3-0.7,9.5,0.2,12.4,1.3l7.9,4.8l3.4,3.5l4.9-2.9l4.5-3.2c2.4-1.7,6.9-4,11.2-4.1l8.4,3.2l3.2,6
		l0.9,2l2.6-1.7c4-3.6,8.6-6.1,13.8-8.3l3.2-1.2l7.4-0.9l7.4,3.8c2.6,2.9,4,7.6,3.3,13.6l-0.5,1.9l-0.1,2.4l-1,3.4
		c-1.2,5.3-3.2,10.5-5,15.6l-1.9,6.3l1.1,6.5l8-4.4l3.1-3.2l6.9-3L998.6,196.8 M905.8,190.4l0.2-8.6l-5.8,1.2l-2.8,0.1l-2.3,0.5
		l-4.1-0.4l-2.1-0.2l-4-1.6l-3,5.6l-2.1,5.5l1.8,9.6l6.3,3.1c6.3,1.4,10.4-0.3,13.2-4l4.3-8.7L905.8,190.4z M891.3,167l7.4,0.7
		L891.3,167z M846.7,198l-0.4-1.7l-0.1-4.4l-1.3-5.5l-0.2-1.9l-0.6-1.6l-1.7-2.9l-0.4,0.1l-4.4,6.4c-3.6,5.2-7.6,10.5-11.6,15.4
		l-2.2,3.2l5.7,2.2l2,0.7h8.4l1.9-0.6l2.1-0.4l2.2-4.2l0.1-3.2L846.7,198z M741.3,183.7l1.8-4.1l-1.8-3.1c-2.6-3-5.5-6-10.8-5.2
		c-7.6,1-13.2,5.3-17.8,9.8c-4,4-7.5,9.6-8.8,15.6l-0.5,3.6c0.1,7.1,8.4,10.5,15.5,8.6l7.6-4.5C732.7,199,737.3,191.4,741.3,183.7
		 M661.9,174.4l1.8-6.4l-7.4-2.1l-3.3,0.7l-9.7,4.7c-7.4,4.6-13.7,10.4-18.3,17.6c-2.5,3.9-6,10.3-4.1,16.5l5.3,5.4l9.8-2.8l8.9-8
		l7.7-9.2C656,186.1,659.5,180.5,661.9,174.4"/>
	<path class="st0" d="M805.8,129c3,2.6,4.8,8.9,1.7,13.6c-1.8,2.8-5.7,5.2-10.7,3.7l-3.6-2.6c-2.1-2.4-3-5.7-1.9-9.9l6.7-6.5
		L805.8,129"/>
	<path class="st0" d="M620,110.2v9.4c-1.2,8.2-1.6,16.6-4.3,24.5l-0.4,2.1c-2.2,7.7-4.2,15.7-6.3,23.6l-0.6,1.9
		c-5.5,23.4-10.7,46.9-15.7,70.6l-4.5,7.1c-5.3,1.4-8.8-2.2-8.9-6.5l0.4-2.6c0.7-4.1,1.4-7.6,2.5-11.6l1.3-4.2l0.7-4.6l1.2-4.1
		l0.3-2.3l0.7-1.9l0.7-4.5c1-4.1,2-8.3,2.9-12.6l0.5-1.4l0.2-1.8l0.6-1.7l1.4-6.2l1.5-6.5c1.7-8.3,3.7-16.2,5.9-24.2
		c1-3.7,2.2-7.6,3.2-11.5l1.2-5.1l0.7-3.3l0.6-2.1v-1.9l0.6-2.2l0.2-3.5c0.4-2.9,1-7.5,0.6-11.3l-0.5-2l-0.3-2.2
		c-1-4.2-4.1-8.1-8.6-9l-7.6,1.3c-6.2,3.5-11.2,11.6-15,18.5c-7.5,14.3-13.5,32.1-18.4,48.6c-1.3,4.3-2.3,8.9-3.5,13.3
		c-1.2,4.4-2.5,8.8-3.4,13.2l-1.3,6.2c-1.7,8-3.2,16.4-5.7,24.2l-3.7,2.7c-3.8,0.8-8.4-2.7-7.9-7.6l1.3-6.1
		c5.7-30.3,15.6-66.6,12.2-97.5l-4.3-6.9l-8.5,3.3l-6,6c-7.4,8.6-11.6,19.7-14.9,32.3c-2.3,8.5-4.2,16.2-6.2,24.6l-1.5,6.7
		c-1.7,9-3.8,18.2-5.8,27.2l-2.7,11.1c-1.1,4.1-1.4,8-6.3,8.1c-3.8,0.1-7.2-2.6-7.1-6.7l0.4-4.5c1.6-6.5,2.2-13,4.1-19.4l0.8-3.8
		c1-4.4,2.3-9,3.5-13.6l1.9-8c2.8-11.5,5.9-23.4,6.8-35.2l0.6-2.9c0.5-4.1,0-9.7-0.6-14l-3.1-6h-6.6c-4.4,1.4-9,4.8-12.1,7.8
		l-6.6,2.9c-2.8-1.4-4.8-4.7-3.7-8.7l8.5-8.8c3.6-2.4,6.9-4.7,11.2-5.9l8.2-0.9l8,3.3l6,8.6l3.2,2.2l3.6-5.1
		c3.8-4.7,7-7.6,12.5-10.7c4-2.2,8.6-4.1,15.2-3.2l5.9,2.5l6,9.5l1.5,3.6l0.1,2l0.7,1.4l1.4,5.8l2.4-3.7c4.7-9.3,10-18.7,17.7-25.2
		l5-3.4l5.7-2.6l3.5-0.4l2.7-0.2c11.4,1,18.6,8.1,21.9,17.4l1.3,4.1l0.2,2.4L620,110.2"/>
	<path class="st0" d="M455.9,143.7c5.4-1.2,8.5,3.4,8.1,9c-1.4,4.1-5.5,5-9.4,7.1c-7.1,3.9-13.6,8.9-20.2,13.3
		c-7.6,5.1-15.4,10.6-22.8,16.4l-3.1,2.4l-1.1,5.1l-0.6,1.8v1.8l-0.6,1.9l-0.1,2.2l-0.6,1.7v1.7l-0.6,1.6l-0.1,1.9l-0.7,1.8v1.4
		l-0.6,1.8c-1.5,6.5-2.8,12.9-4.5,19.2c-1.5,5.6-3.6,11-5.6,16.1c-3.4,8.4-7.7,18.2-15.7,22.4c-2.4,1.3-4.7,2.2-8.6,1.9
		c-7.1-0.5-11.6-3.9-14.8-8.6l-2.9-6.5c-1.8-9.4,1-18.6,4.1-25.4c3.6-8.1,7.7-13.7,12.5-20.7l1.7-2.5l3.5-4.8l1.4-2.7l-4.3-0.8
		c-7.2-1.2-13-6.8-15.2-13.2l-1.6-4.1l-3.6,2.9c-5.8,5.8-11.1,10-18.8,13.8l-6.9,2.9l-2.5,0.8l-2.2,0.1l-1.7,0.5l-9.6-0.8
		c-4.6-1-8.2-3.5-12-6l-1.9,3.7c-3.1,10-5.5,20.4-8.5,30.9c-2.5,8.5-5,17.2-7.7,26l-3.2,8l-6.7,1l-4-4.8c0-4.8,1.5-8.4,2.6-12.4
		l2.5-9.1c2.9-9.1,5.2-17.8,8-27c1.4-4.6,2.7-8.8,3.9-13.5l2.3-9.3l0.4-4.6l-3.4,2.1c-5.5,5.1-12,9.4-20.5,11.9l-4.1,1.2h-10.3
		l-5.3-1.5l-8.6-4.9l-3.9-2.9l-1.7,4.1c-1.2,4.6-2.6,9.2-3.8,13.4c-3.7,12.4-6.6,23.7-9.9,36.1c-1.1,4.1-2.5,8.9-3.7,13.5l-3.3,6.4
		c-4.5,2.2-9.1-1.1-8.8-6.2l2.4-10.5c3.5-17,7.2-33.5,10.8-50.4l1.3-7.2l-5.4,2.2l-2.3,0.8l-10.1,1c-5.1-0.6-9.4-3.1-11.7-6.6
		l-2.5-3.5l-3,2.7l-8.2,8.8c-3.8,3.5-9.1,6.9-14.3,8.2h-12.9c-5.9-1.9-9.6-8.1-11.3-14.6l-0.5-3.1l-0.6-2.2v-9.3l0.6-2.1l0.9-5.2
		c2.5-8.7,8-15.7,14.6-21.7c5.6-5,12.4-8.5,20.7-10.8c5.2-1.4,13.1-3,20.1-1.7c3.8,0.7,7.9,2.3,10.4,4.5l1.9,5.7
		c-1.8,8.4-6.3,15.4-7.2,24l-0.6,2.3c-0.6,4.8-0.4,11,3.2,12l7.6-0.8c7.6-2.4,12.3-8.8,16.5-14.9l3.9-6.4l3.9-9.8l4.1-9.7l7.6-2.4
		l2.1,1.4l1.8,1.7l3.5-1.9l7.2-3.4l3.8-1.4l1.9-0.1l1.4-0.5c9.7-1.6,16.8,2.5,20.3,8l2.7,6l0.8,3.7l0.7,2.1l-0.1,11l2.7-2.6
		c4-6.2,7.5-13.6,10.2-21.5l3.6-6.5l8.5,1.9l1.1,1.7l3.1-1.6l6.3-2.7c2.9-1,6.1-1.7,10.3-1.4c7,0.5,11.1,4.1,14.8,8.1l4,6l2.7,7.1
		l0.1,2.1l0.7,2.2l0.6,3.5l2.5-3.3l1.8-3.9l0.2-1.9l0.6-1.8v-1.6l0.6-2.2l2.7-11c1.1-3.8,1.6-8.1,7.1-7.2l5.9,5.4
		c1.2,11.2-6.4,25.1-6.5,32.8l-0.6,2.8c-0.7,6.7,0.1,15.5,4.9,16.9l1.9,0.1l1.5,0.4l1.6-0.4h1.8l8.9-6c6.5-6.9,11.1-17.8,13.9-28.7
		l1.1-4.9l0.8-3.7l0.8-7.4c1.4-6.1,11.5-6.6,12.7-0.2l-0.6,7.1c-0.2,6.4-1.9,12.8-2.2,19.2l-0.2,5.8l5.5-3.6
		c5.2-3.6,10.3-7.1,15.9-10.8c5-3.4,10.5-7.1,16.3-10.3L455.9,143.7 M391.1,211.8l0.5-4.4l-1.2,0.2l-7.9,9.4
		c-6.3,7.9-12.1,16.9-16.4,26.8l-2.3,6.3l-0.1,1.9l-0.5,3.8l6.9,6.6l3.4-2.4l5.2-8l3.8-9.4c1.7-4.8,3.6-9.8,4.9-14.8l1.6-6.9
		l0.6-1.4v-1.4l0.6-1.4L391.1,211.8z M337.4,168.8v-8.4c-1-5.2-5.9-10.4-12.4-10.3l-4.7,1l-6.9,4.1c-6.7,5.5-9.7,15.5-12.6,25.4
		l-0.7,3.8l3.3,3.4c3.7,2.6,9.8,4,15.3,2.6c5.2-1.4,9.3-4.1,12.7-8.4C334.5,178.4,336.5,173.5,337.4,168.8 M269.5,165.6l-0.1-9.6
		c-1.2-4.6-6.2-6.2-11.6-5.2h-0.2c-11.4,3-18.2,11.7-22.7,21.7l-1.8,4.6l2.8,3.4c4.7,4.6,8.7,12.9,18,9.3l6.1-4.4
		c3.8-4.2,7-10.9,8.6-17.1L269.5,165.6z M177.1,166.3c2-4.5,4.4-9.1,5.2-14.4l-5-0.8l-4.2,0.5l-3,0.7l-8.4,2.9
		c-9.1,4.3-17.9,10.9-20.8,20.9l-0.9,3v2.2l-0.6,2v4.4l0.6,2v1.7l2.8,5l6.1,0.8c4.8-0.9,9.1-4.3,12.5-7.2
		C168.5,183.7,173.1,175.1,177.1,166.3"/>
	<path class="st0" d="M149.3,120.1c4.4,1.2,6.4,7.6,3.2,11.2l-2.8,2.4c-5.3,4.7-12.7,9-19.5,12.3l-3.6,1.5l-1.8,5.7
		c-1.4,5.2-2.9,10.5-4.4,16l-1.8,6.7c-3.3,13.9-6.8,27.9-9.7,41.9l-4.4,7c-5.1,2-9-2-9-6.5l0.9-4.5c3.1-12.2,4.4-25,2.6-37.6
		l-0.8-3.1c-0.8-4-2.7-8.6-4.9-12.1l-2.6-3l-2.3,0.7h-1.4l-1.8,0.6c-4.4,1-8.7,2.2-13,3.5c-4.3,1.3-8.7,2.1-13.4,3.1l-1.7,0.7h-1.7
		l-2.2,0.7l-8.6,0.8l-4.4,0.2l-2.1,0.5l-7.7-0.7l-2.7,6.8c-2.1,7.4-4.5,15-6.7,21.9c-2.8,8.7-5.1,17-7.9,25.5c-1.1,3.3-2,6.7-6.1,7
		c-4,0.2-7.6-3-7.2-7.7l2-7.1c4.7-15.1,9.4-29.7,13.9-45.3l0.7-3.9l-3.7-2.9c-3.2-2.1-7.3-4.7-6.2-10.5c0.9-4.7,4.4-9.1,7.5-12
		l8.7-5.9l3.2-1.6l2.2-6.8c5-16.4,8.9-32.8,13.5-49.5l1.3-4.8l0.9-3.6l1.5-5.9l5.1-6.6c3.9-0.4,6.1,2.3,7.3,5.1l-1.1,8
		C54.3,79,51.6,90,48.8,100.6c-2.6,9.3-5.2,18.7-7.5,28l5.9,0.4c4.5,0,9.4,0,13.5,0.4l2.3,0.5l2.5,0.2l2.3,0.7l4.6,0.8
		c7,1.5,13.6,4.1,18.7,7.8l7.2,2.8l4.4-1.3c4.6-1.1,9.1-2.2,13.2-3.8l3.2-9.1c2.3-7.6,5.1-15.4,7.2-23.4l1.4-4.7
		c2.2-8.9,3.7-16.9,5-25.8l0.1-4.2c0.5-3.3,3.2-5.9,7.8-4.9c2.7,0.6,4.3,3.9,4,8.1l-0.4,6.1c-1.4,4.1-1.7,14.1-3.3,18.7l-0.8,3.2
		c-1.9,8-4.2,16.1-6.6,23.8l-0.4,2.9l3.5-1.3l5.6-4.4L149.3,120.1 M109.9,157.9l0.8-4l-5.1,0.9l1.1,3.2l1.7,2.7L109.9,157.9z
		 M73.8,147.1l-6.1-2.1l-1.6-0.7h-1.9l-2.2-0.6l-3.6-0.2l-3.1-0.7H43.6l-2.8,0.7l-3.1,0.2l-2.2,4.5l-1.3,5.5l4.4,0.5
		c9.3,0.1,18.1-2.4,27.2-4.4l1.5-0.7L73.8,147.1z"/>
</g>
</svg>
