<?xml version="1.0" encoding="utf-8"?>
<!-- Generator: Adobe Illustrator 27.0.1, SVG Export Plug-In . SVG Version: 6.00 Build 0)  -->
<svg version="1.1"
	 id="svg8" xmlns:dc="http://purl.org/dc/elements/1.1/" xmlns:cc="http://creativecommons.org/ns#" xmlns:rdf="http://www.w3.org/1999/02/22-rdf-syntax-ns#" xmlns:sodipodi="http://sodipodi.sourceforge.net/DTD/sodipodi-0.dtd" xmlns:inkscape="http://www.inkscape.org/namespaces/inkscape" xmlns:svg="http://www.w3.org/2000/svg" sodipodi:docname="HBOMAXES.svg"
	 xmlns="http://www.w3.org/2000/svg" xmlns:xlink="http://www.w3.org/1999/xlink" x="0px" y="0px" viewBox="0 0 1000 173.4"
	 style="enable-background:new 0 0 1000 173.4;" xml:space="preserve">
<style type="text/css">
	.st0{fill:#FFFFFF;}
</style>
<path id="path3441" inkscape:connector-curvature="0" class="st0" d="M123.2,172.6H77v-65.7H47.3v65.7H0V3h47.2v62.8H77V3h46.2
	C123.2,3,123.2,172.6,123.2,172.6z M334.4,173.3c47.7-0.5,86-39.4,85.7-87.1c0.1-47.5-38.2-86.1-85.7-86.2C301.3,0,271,19,256.6,49
	c-1.6-24.5-21-44.1-45.4-46.1h-78.7v169.7h73.3c26.9,0,49.2-21,50.9-47.8C271.1,154.5,301.3,173.4,334.4,173.3z M200,104.4
	c7.9,1.2,13.4,8.6,12.3,16.5c-0.9,6.3-5.9,11.3-12.3,12.3h-23.4v-28.8H200z M200,40.7c7.8,1.2,13.2,8.5,12.1,16.3
	c-0.9,6.2-5.8,11.1-12.1,12.1h-23.4V40.7L200,40.7L200,40.7z M231.4,86.3c6.8-1.8,12.9-5.4,17.7-10.5c-1.3,7.8-1.3,15.7,0,23.4
	c-4.3-6.2-10.5-10.8-17.7-13.1C231.4,86.2,231.4,86.3,231.4,86.3z M291.8,86.3c0.1-23.8,19.4-43.1,43.2-43
	c23.8,0.1,43.1,19.4,43,43.2c-0.1,23.8-19.3,43-43.1,43c-23.8,0-43.1-19.3-43.1-43.1C291.8,86.3,291.8,86.3,291.8,86.3z
	 M334.8,120.2c18.7-0.1,33.9-15.3,33.8-34c-0.1-18.7-15.3-33.9-34-33.8c-18.7,0.1-33.8,15.2-33.8,33.9c0,18.7,15.2,33.9,33.9,33.9
	C334.8,120.2,334.8,120.2,334.8,120.2z"/>
<path id="_Compound_Path_" inkscape:connector-curvature="0" class="st0" d="M666.5,63c-0.9-41-30-62.8-65.6-62.8
	c-18.4-0.6-36.1,6.3-49.2,19.3c-13-12.9-30.8-19.9-49.2-19.3c-35.6,0-64.7,21.8-65.6,62.8v94.2c0,8.6,7,15.6,15.6,15.6h14.7
	c1.5-0.1,2.6-1.3,2.6-2.7V63.3l0,0c0-18.1,14.7-32.7,32.8-32.7c18.1,0,32.7,14.7,32.7,32.7l0,0v94.2c0,8.6,6.9,15.5,15.5,15.6h14.8
	c1.4,0,2.6-1.2,2.6-2.6V63.2l0,0c0-18.1,14.7-32.8,32.8-32.8c18.1,0,32.8,14.7,32.8,32.8l0,0v94.2c-0.1,8.6,6.8,15.5,15.4,15.6
	c0,0,0.1,0,0.1,0h14.8c1.4,0,2.6-1.2,2.6-2.6l0,0V63.1l0,0L666.5,63L666.5,63z M998.1,2.8h-25c-6.9,0-13.4,3.5-17.3,9.2L928.2,53
	c-2.9,4.2-8.6,5.3-12.8,2.4c-0.9-0.6-1.7-1.4-2.4-2.4L885.4,12c-3.9-5.7-10.3-9.2-17.3-9.2h-24.9c-1.1,0-2,0.9-2,2
	c0,0.4,0.1,0.7,0.3,1l49.3,73.3c3.6,5.3,3.6,12.2,0,17.5l-49.3,73.3c-0.6,0.9-0.3,2.2,0.6,2.7c0.3,0.2,0.7,0.3,1,0.3h24.9
	c6.9,0,13.4-3.5,17.3-9.2l27.6-40.9c2.9-4.2,8.6-5.3,12.8-2.4c0.9,0.6,1.7,1.4,2.4,2.4l27.6,40.9c3.9,5.7,10.3,9.2,17.3,9.2h25
	c1.1-0.1,1.9-1,1.9-2.1c0-0.3-0.1-0.6-0.3-0.9l-49.3-73.3c-3.6-5.3-3.6-12.2,0-17.5l49.2-73.3c0.6-0.9,0.4-2.1-0.5-2.8
	c-0.3-0.2-0.6-0.3-1-0.4L998.1,2.8L998.1,2.8z M830.7,2.8H816c-7.3,0-13.7,5.1-15.3,12.2C787,5,770.4-0.3,753.4,0
	c-43.1,0-78.1,30-78.1,86.7c0,56.6,34.9,86.7,78.1,86.7c16.9,0.3,33.4-4.9,47-14.9c0.7,8.1,7.5,14.3,15.6,14.2h14.7
	c1.5-0.1,2.6-1.3,2.6-2.7V5.5C833.3,4,832.1,2.8,830.7,2.8c-0.1,0-0.3,0-0.4,0H830.7z M753,141.1c-25.7,0-46.7-18.8-46.7-54.3
	s20.9-54.4,46.7-54.4c25.7,0,46.7,18.8,46.7,54.4C799.7,122.4,778.7,141.1,753,141.1z"/>
<path class="st0" d="M666.5,63c-0.9-41-30-62.8-65.6-62.8c-18.4-0.6-36.1,6.3-49.2,19.3c-13-12.9-30.8-19.9-49.2-19.3
	c-35.6,0-64.7,21.8-65.6,62.8v94.2c0,8.6,7,15.6,15.6,15.6l0,0h14.7c1.5-0.1,2.6-1.3,2.6-2.7V63.3l0,0c0-18.1,14.7-32.8,32.8-32.8
	c18.1,0,32.8,14.7,32.8,32.8l0,0l0,0v94.2c0,8.6,6.9,15.5,15.5,15.6h14.8c1.4,0,2.6-1.2,2.6-2.6V63.2l0,0
	c0-18.1,14.7-32.8,32.8-32.8c18.1,0,32.8,14.7,32.8,32.8l0,0v94.2c-0.1,8.6,6.8,15.5,15.4,15.6c0,0,0.1,0,0.1,0h14.8
	c1.4,0,2.6-1.2,2.6-2.6V63.1l0,0L666.5,63L666.5,63z M998.1,2.8h-25c-6.9,0-13.4,3.5-17.3,9.2L928.2,53c-2.9,4.2-8.6,5.3-12.8,2.4
	c-0.9-0.6-1.7-1.4-2.4-2.4L885.4,12c-3.9-5.7-10.3-9.2-17.3-9.2h-24.9c-1.1,0-2,0.9-2,2c0,0.4,0.1,0.7,0.3,1l49.3,73.3
	c3.6,5.3,3.6,12.2,0,17.5l-49.3,73.3c-0.6,0.9-0.3,2.2,0.6,2.7c0.3,0.2,0.7,0.3,1,0.3h24.9c6.9,0,13.4-3.5,17.3-9.2l27.6-40.9
	c2.9-4.2,8.6-5.3,12.8-2.4c0.9,0.6,1.7,1.4,2.4,2.4l27.6,40.9c3.9,5.7,10.3,9.2,17.3,9.2h25c1.1-0.1,1.9-1,1.9-2.1
	c0-0.3-0.1-0.6-0.3-0.9l-49.3-73.3c-3.6-5.3-3.6-12.2,0-17.5l49.2-73.3c0.6-0.9,0.3-2.2-0.6-2.7C998.7,3,998.4,2.9,998.1,2.8z
	 M830.7,2.8H816c-7.3,0-13.7,5.1-15.3,12.2C787,5,770.4-0.3,753.4,0c-43.1,0-78.1,30-78.1,86.7c0,56.6,34.9,86.7,78.1,86.7
	c16.9,0.3,33.4-4.9,47-14.9c0.7,8.1,7.5,14.3,15.6,14.2h14.7c1.5-0.1,2.6-1.3,2.6-2.7V5.5C833.3,4,832.1,2.8,830.7,2.8
	c-0.1,0-0.3,0-0.4,0H830.7z M753,141.1c-25.7,0-46.7-18.8-46.7-54.3s20.9-54.4,46.7-54.4c25.7,0,46.7,18.8,46.7,54.4
	C799.7,122.4,778.7,141.1,753,141.1z"/>
<path class="st0" d="M666.5,63c-0.9-41-30-62.8-65.6-62.8c-18.4-0.6-36.1,6.3-49.2,19.3c-13-12.9-30.8-19.9-49.2-19.3
	c-35.6,0-64.7,21.8-65.6,62.8v94.2c0,8.6,7,15.6,15.6,15.6l0,0h14.7c1.5-0.1,2.6-1.3,2.6-2.7V63.3l0,0c0-18.1,14.7-32.8,32.8-32.8
	c18.1,0,32.8,14.7,32.8,32.8l0,0l0,0v94.2c0,8.6,6.9,15.5,15.5,15.6h14.8c1.4,0,2.6-1.2,2.6-2.6V63.2l0,0
	c0-18.1,14.7-32.8,32.8-32.8c18.1,0,32.8,14.7,32.8,32.8l0,0v94.2c-0.1,8.6,6.8,15.5,15.4,15.6c0,0,0.1,0,0.1,0h14.8
	c1.4,0,2.6-1.2,2.6-2.6V63.1l0,0L666.5,63L666.5,63z M998.1,2.8h-25c-6.9,0-13.4,3.5-17.3,9.2L928.2,53c-2.9,4.2-8.6,5.3-12.8,2.4
	c-0.9-0.6-1.7-1.4-2.4-2.4L885.4,12c-3.9-5.7-10.3-9.2-17.3-9.2h-24.9c-1.1,0-2,0.9-2,2c0,0.4,0.1,0.7,0.3,1l49.3,73.3
	c3.6,5.3,3.6,12.2,0,17.5l-49.3,73.3c-0.6,0.9-0.3,2.2,0.6,2.7c0.3,0.2,0.7,0.3,1,0.3h24.9c6.9,0,13.4-3.5,17.3-9.2l27.6-40.9
	c2.9-4.2,8.6-5.3,12.8-2.4c0.9,0.6,1.7,1.4,2.4,2.4l27.6,40.9c3.9,5.7,10.3,9.2,17.3,9.2h25c1.1-0.1,1.9-1,1.9-2.1
	c0-0.3-0.1-0.6-0.3-0.9l-49.3-73.3c-3.6-5.3-3.6-12.2,0-17.5l49.2-73.3c0.6-0.9,0.3-2.2-0.6-2.7C998.7,3,998.4,2.9,998.1,2.8z
	 M830.7,2.8H816c-7.3,0-13.7,5.1-15.3,12.2C787,5,770.4-0.3,753.4,0c-43.1,0-78.1,30-78.1,86.7c0,56.6,34.9,86.7,78.1,86.7
	c16.9,0.3,33.4-4.9,47-14.9c0.7,8.1,7.5,14.3,15.6,14.2h14.7c1.5-0.1,2.6-1.3,2.6-2.7V5.5C833.3,4,832.1,2.8,830.7,2.8
	c-0.1,0-0.3,0-0.4,0H830.7z M753,141.1c-25.7,0-46.7-18.8-46.7-54.3s20.9-54.4,46.7-54.4c25.7,0,46.7,18.8,46.7,54.4
	C799.7,122.4,778.7,141.1,753,141.1z"/>
<path class="st0" d="M666.5,63c-0.9-41-30-62.8-65.6-62.8c-18.4-0.6-36.1,6.3-49.2,19.3c-13-12.9-30.8-19.9-49.2-19.3
	c-35.6,0-64.7,21.8-65.6,62.8v94.2c0,8.6,7,15.6,15.6,15.6l0,0h14.7c1.5-0.1,2.6-1.3,2.6-2.7V63.3l0,0c0-18.1,14.7-32.8,32.8-32.8
	c18.1,0,32.8,14.7,32.8,32.8l0,0l0,0v94.2c0,8.6,6.9,15.5,15.5,15.6h14.8c1.4,0,2.6-1.2,2.6-2.6V63.2l0,0
	c0-18.1,14.7-32.8,32.8-32.8c18.1,0,32.8,14.7,32.8,32.8l0,0v94.2c-0.1,8.6,6.8,15.5,15.4,15.6c0,0,0.1,0,0.1,0h14.8
	c1.4,0,2.6-1.2,2.6-2.6V63.1l0,0L666.5,63L666.5,63z M998.1,2.8h-25c-6.9,0-13.4,3.5-17.3,9.2L928.2,53c-2.9,4.2-8.6,5.3-12.8,2.4
	c-0.9-0.6-1.7-1.4-2.4-2.4L885.4,12c-3.9-5.7-10.3-9.2-17.3-9.2h-24.9c-1.1,0-2,0.9-2,2c0,0.4,0.1,0.7,0.3,1l49.3,73.3
	c3.6,5.3,3.6,12.2,0,17.5l-49.3,73.3c-0.6,0.9-0.3,2.2,0.6,2.7c0.3,0.2,0.7,0.3,1,0.3h24.9c6.9,0,13.4-3.5,17.3-9.2l27.6-40.9
	c2.9-4.2,8.6-5.3,12.8-2.4c0.9,0.6,1.7,1.4,2.4,2.4l27.6,40.9c3.9,5.7,10.3,9.2,17.3,9.2h25c1.1-0.1,1.9-1,1.9-2.1
	c0-0.3-0.1-0.6-0.3-0.9l-49.3-73.3c-3.6-5.3-3.6-12.2,0-17.5l49.2-73.3c0.6-0.9,0.3-2.2-0.6-2.7C998.7,3,998.4,2.9,998.1,2.8z
	 M830.7,2.8H816c-7.3,0-13.7,5.1-15.3,12.2C787,5,770.4-0.3,753.4,0c-43.1,0-78.1,30-78.1,86.7c0,56.6,34.9,86.7,78.1,86.7
	c16.9,0.3,33.4-4.9,47-14.9c0.7,8.1,7.5,14.3,15.6,14.2h14.7c1.5-0.1,2.6-1.3,2.6-2.7V5.5C833.3,4,832.1,2.8,830.7,2.8
	c-0.1,0-0.3,0-0.4,0H830.7z M753,141.1c-25.7,0-46.7-18.8-46.7-54.3s20.9-54.4,46.7-54.4c25.7,0,46.7,18.8,46.7,54.4
	C799.7,122.4,778.7,141.1,753,141.1z"/>
</svg>
