<?xml version="1.0" encoding="utf-8"?>
<!-- Generator: Adobe Illustrator 27.0.1, SVG Export Plug-In . SVG Version: 6.00 Build 0)  -->
<svg version="1.1" id="Слой_1" xmlns="http://www.w3.org/2000/svg" xmlns:xlink="http://www.w3.org/1999/xlink" x="0px" y="0px"
	 viewBox="0 0 170 60" style="enable-background:new 0 0 170 60;" xml:space="preserve">
<style type="text/css">
	.st0{fill:#FFFFFF;}
</style>
<g>
	<path class="st0" d="M23.1,36.7c1.3,1.3,3,2.2,4.8,2.6c1.8,0.4,3.7,0.2,5.5-0.5c1.7-0.7,3.2-1.9,4.3-3.5c1-1.6,1.6-3.4,1.6-5.3
		c0-2.5-1.1-5-2.8-6.8c-1.8-1.8-4.2-2.8-6.7-2.9c-1.9,0-3.7,0.6-5.2,1.6c-1.5,1.1-2.7,2.5-3.5,4.3c-0.7,1.7-0.9,3.7-0.5,5.5
		C20.9,33.7,21.8,35.3,23.1,36.7z M25.1,35.1c0,0.3,0.1,0.6,0.3,0.9l0.1,0.1c0.1,0.1,0,0.4-0.4,0.1l-0.1-0.1c-0.7-0.5-1.2-1.2-1.4-2
		c-0.2-0.6-0.3-1.2-0.2-1.9c0.1-0.6,0.4-1.2,0.8-1.7c0.4-0.5,1-0.9,1.6-1.1c0.6-0.2,1.3-0.3,1.9-0.2c0.4,0.1,0.4,0.4,0.3,0.4
		c-0.9,0.4-1.7,1.1-2.1,2c-0.4,0.5-0.6,1-0.7,1.6C24.9,33.9,24.9,34.5,25.1,35.1z M30.8,37.8h-0.3c-0.8,0.1-1.6,0-2.4-0.3
		c-0.6-0.3-1.1-0.7-1.5-1.2c-0.4-0.5-0.6-1.2-0.6-1.8c0-0.7,0.1-1.3,0.4-1.9c0.3-0.6,0.7-1.1,1.2-1.5c0.4-0.3,0.5-0.1,0.4,0.1
		c-0.3,1-0.3,2,0,3c0.3,1.1,1,2.1,2,2.8c0.3,0.2,0.6,0.3,0.9,0.4h0.1C31.2,37.5,31.2,37.8,30.8,37.8z M36,34.7l-0.1,0.1
		c-0.5,0.7-1.2,1.2-2,1.4c-0.6,0.3-1.2,0.3-1.9,0.2c-0.6-0.1-1.2-0.4-1.7-0.9c-0.5-0.4-0.9-1-1.1-1.6c-0.2-0.6-0.2-1.3-0.1-2
		c0.1-0.4,0.3-0.4,0.4-0.3c0.4,0.9,1.1,1.7,2,2.1c1,0.6,2.2,0.8,3.4,0.5c0.3,0,0.6-0.1,0.9-0.3H36C36.2,34.2,36.3,34.3,36,34.7z
		 M36.9,29.4c0.1-0.2,0.2-0.3,0.2-0.5v-0.1c0-0.3,0.3-0.3,0.3,0.1v0.3c0.1,0.8,0,1.6-0.3,2.4c-0.3,0.6-0.7,1.1-1.2,1.5
		c-0.5,0.4-1.2,0.6-1.8,0.6c-0.7,0-1.3-0.1-1.9-0.4c-0.6-0.3-1.1-0.7-1.5-1.2c-0.3-0.4-0.1-0.5,0.1-0.4c0.9,0.4,1.9,0.4,2.9,0.1
		c1.1-0.3,2.1-1,2.7-2C36.6,29.6,36.7,29.5,36.9,29.4z M34.5,24.7c0-0.3-0.1-0.6-0.3-0.9v-0.1c-0.1-0.1,0-0.4,0.4-0.1l0.1,0.1
		c0.6,0.5,1.1,1.1,1.4,1.8c0.3,0.6,0.3,1.2,0.2,1.9c-0.1,0.6-0.4,1.2-0.9,1.7c-0.4,0.5-1,0.9-1.6,1.2s-1.3,0.3-1.9,0.2
		c-0.4-0.1-0.4-0.4-0.3-0.4c0.9-0.4,1.7-1.1,2.1-2c0.3-0.5,0.6-1,0.7-1.6C34.6,25.9,34.6,25.3,34.5,24.7z M28.6,22.1h0.3
		c0.8-0.1,1.6,0,2.4,0.3c0.6,0.3,1.1,0.7,1.5,1.2c0.4,0.5,0.6,1.2,0.6,1.8c0,0.7-0.1,1.3-0.4,1.9c-0.3,0.6-0.7,1.1-1.2,1.5
		c-0.4,0.3-0.5,0.1-0.5-0.1c0.4-0.9,0.4-1.9,0.1-2.9c-0.3-1.1-1-2.1-2-2.8c-0.3-0.2-0.6-0.3-0.9-0.4h-0.1
		C28.2,22.4,28.2,22.2,28.6,22.1z M23.5,25.3l0.1-0.1c0.5-0.6,1.1-1.2,1.8-1.6c0.6-0.3,1.2-0.3,1.9-0.2s1.2,0.4,1.7,0.9
		c0.5,0.4,0.9,1,1.1,1.6c0.2,0.6,0.3,1.3,0.2,2c-0.1,0.4-0.3,0.4-0.4,0.3c-0.4-0.9-1.1-1.7-2-2.1c-1-0.6-2.2-0.8-3.4-0.7
		c-0.3,0-0.6,0.1-0.9,0.3h-0.1C23.4,25.7,23.1,25.5,23.5,25.3z M22.3,28.4c0.3-0.6,0.7-1.1,1.2-1.5s1.2-0.6,1.8-0.6
		c0.7,0,1.3,0.1,1.9,0.4c0.6,0.3,1.1,0.7,1.5,1.2c0.3,0.4,0.1,0.5-0.1,0.4c-0.9-0.4-1.9-0.4-2.9-0.1c-1.2,0.4-2.3,1.1-3,2.1
		c-0.2,0.3-0.3,0.6-0.4,0.9v0.1c0,0.1-0.3,0.3-0.3-0.3v-0.3C22,30,22,29.2,22.3,28.4z"/>
	<path class="st0" d="M29.8,0c-5.9,0-11.6,1.8-16.5,5.1c-4.9,3.3-8.7,8-11,13.5C0,24-0.6,30,0.6,35.9c1.1,5.8,4,11.2,8.1,15.4
		c4.2,4.2,9.5,7.1,15.2,8.2c5.8,1.2,11.8,0.6,17.2-1.7c5.4-2.3,10.1-6.1,13.4-11c3.3-4.9,5-10.7,5-16.7c0-7.9-3.2-15.6-8.8-21.2
		C45.2,3.2,37.7,0,29.8,0z M2.1,26.1c0.7-5.1,2.9-9.9,6.3-13.8c2.6-3.2,6-5.7,9.7-7.5c3.7-1.7,7.8-2.6,12-2.5
		c2.2-0.1,3.7-0.1,0.5,0.3c-2.2,0.5-4.3,1.4-6.1,2.6S21,8.1,19.8,10c-2.6,4.3-3.5,7-8.2,8.8c-4.7,1.8-6.4,3.2-7.7,4.9
		C2.6,25.4,2,27.5,2.1,26.1z M35.4,18.9c6.8,0.3,13.2,3.2,18,8c4.8,4.5,3.9,4.3,2.9,4.6c-5,1.4-9.9,3.3-14.6,5.5
		c-8.4,3.7-15.7,5.5-26.2,1.8c-5-1.7-9.4-4.9-12.4-9.2c-1-1.3-1-1.2,0.4-1.6c3.6-0.9,7.1-2.2,10.4-3.9
		C19.5,21.4,27.8,18.6,35.4,18.9z M18.4,55.5C13.1,53,8.6,48.9,5.6,43.8c-2.4-3.7-3.3-10.3-3.3-10.3s-0.7-3.2,0.4-0.4
		C3.4,34.7,6.1,44.2,15,49.2c9.1,5.1,14,2.6,13.1,3.7C27.5,53.4,23.8,58.2,18.4,55.5z M57.2,33.9c-0.7,5.1-2.9,9.9-6.3,13.8
		c-2.6,3.2-6,5.7-9.7,7.5c-3.7,1.7-7.8,2.6-12,2.5c-2.1,0.1-3.5,0-0.4-0.3c2.2-0.5,4.3-1.4,6.1-2.6c1.8-1.3,3.4-2.9,4.6-4.9
		c2.6-4.3,3.5-7,8.1-8.8c4.6-1.8,6.4-3.2,7.7-4.9C56.7,34.6,57.3,32.5,57.2,33.9z M56.9,25.3c0,0,0.8,4.3-0.3,1.4
		c-0.7-1.6-3.4-10.9-12.3-15.9c-9.1-5.1-14.2-2.4-13.1-3.7c0.5-0.5,4.3-5.3,9.7-2.6c5.3,2.6,9.8,6.6,12.8,11.7
		C55.4,19,56.4,22.1,56.9,25.3z"/>
	<polygon class="st0" points="136.3,10.1 136.3,45.1 138.7,45.1 138.7,7.2 135.7,7.2 112.4,42.2 112.3,42.2 112.3,7.2 109.9,7.2 
		109.9,45.1 112.8,45.1 136.2,10.1 	"/>
	<polygon class="st0" points="141.1,7.2 141.1,9.2 154.5,9.2 154.5,45.1 156.8,45.1 156.8,9.2 170,9.2 170,7.2 	"/>
	<polygon class="st0" points="82,24.9 106.5,7.2 103.1,7.2 79.9,23.9 79.9,7.2 77.6,7.2 77.6,45.1 79.9,45.1 79.9,31.7 79.9,29 
		79.9,26.1 103.7,45 107.5,45 	"/>
	<polygon class="st0" points="81.7,52.2 80.4,52.2 78.6,54.2 78.6,52.2 77.6,52.2 77.6,56.9 78.6,56.9 78.6,55.4 79.2,54.8 
		80.6,56.9 81.9,56.9 79.9,54.1 	"/>
	<polygon class="st0" points="88.5,55.5 88.5,52.2 87.5,52.2 87.5,56.9 88.6,56.9 90.4,53.7 90.4,56.9 91.4,56.9 91.4,52.2 
		90.2,52.2 	"/>
	<polygon class="st0" points="100.3,54 98.4,54 98.4,52.2 97.4,52.2 97.4,56.9 98.4,56.9 98.4,54.9 100.3,54.9 100.3,56.9 
		101.3,56.9 101.3,52.2 100.3,52.2 	"/>
	<path class="st0" d="M111.1,52.9c-0.2-0.2-0.5-0.4-0.8-0.5s-0.6-0.2-0.9-0.2c-0.4,0-0.9,0.1-1.3,0.4s-0.7,0.6-0.9,1
		c-0.2,0.4-0.2,0.9-0.2,1.3s0.3,0.9,0.6,1.2c0.3,0.3,0.7,0.6,1.1,0.7c0.4,0.1,0.9,0.1,1.3-0.1s0.8-0.4,1.1-0.8
		c0.3-0.4,0.4-0.8,0.5-1.2c0-0.3,0-0.6-0.1-0.9C111.5,53.4,111.3,53.1,111.1,52.9z M109.4,56.2c-0.8,0-1.3-0.6-1.3-1.6l0,0
		c0-1,0.5-1.6,1.3-1.6s1.3,0.6,1.3,1.6S110.3,56.2,109.4,56.2z"/>
	<path class="st0" d="M119.5,53c0.2,0,0.5,0.1,0.7,0.2c0.2,0.2,0.3,0.4,0.4,0.6h1c-0.1-0.5-0.3-0.9-0.7-1.3
		c-0.4-0.3-0.9-0.5-1.3-0.4c-0.3,0-0.6,0.1-0.9,0.2c-0.3,0.1-0.5,0.3-0.8,0.5c-0.2,0.2-0.4,0.5-0.5,0.8s-0.1,0.6-0.1,0.9
		c0,0.3,0,0.6,0.1,0.9c0.1,0.3,0.3,0.6,0.5,0.8s0.5,0.4,0.8,0.5c0.3,0.1,0.6,0.2,0.9,0.2c0.3,0,0.5,0,0.8-0.1
		c0.2-0.1,0.5-0.2,0.7-0.4c0.2-0.2,0.3-0.4,0.4-0.6c0.1-0.2,0.2-0.5,0.2-0.8h-1c-0.1,0.7-0.3,1.1-1.1,1.1c-0.7,0-1.2-0.8-1.2-1.6
		S118.6,53,119.5,53z"/>
	<polygon class="st0" points="126.9,53.1 128.3,53.1 128.3,56.9 129.3,56.9 129.3,53.1 130.7,53.1 130.7,52.2 126.9,52.2 	"/>
	<path class="st0" d="M138.2,54.7l-1.1-2.5H136l1.3,2.9c0.1,0.2,0.2,0.4,0.2,0.6c0,0.1,0,0.1,0,0.2c0,0.1-0.1,0.1-0.1,0.1
		s-0.1,0.1-0.2,0.1s-0.1,0-0.2,0c-0.2,0-0.3,0-0.5-0.1l0,0.9c0.2,0.1,0.4,0.1,0.6,0.1c0.8,0,1.1-0.4,1.6-1.3l1.6-3.4h-1.1
		L138.2,54.7z"/>
	<path class="st0" d="M149.6,52.2h-3.3V53c0.1,1.1-0.2,2.2-0.7,3.1h-0.4v2.1h1v-1.2h3v1.2h1v-2.1h-0.5V52.2z M148.5,56.1h-1.9
		c0.5-0.9,0.7-1.9,0.6-2.9v-0.1h1.3L148.5,56.1z"/>
	<polygon class="st0" points="158.4,52.2 156.7,55.5 156.7,52.2 155.7,52.2 155.7,56.9 156.9,56.9 158.6,53.7 158.6,56.9 
		159.7,56.9 159.6,52.2 	"/>
	<path class="st0" d="M166.6,52.3c-0.2,0.1-0.4,0.2-0.5,0.3c-0.2,0.1-0.3,0.3-0.4,0.5c-0.1,0.2-0.1,0.4-0.1,0.6
		c0,0.3,0.1,0.6,0.3,0.9c0.2,0.2,0.5,0.4,0.8,0.5l-1.4,1.9h1.3l1.3-1.8h0.6V57h1v-4.7h-2.3C167,52.3,166.8,52.3,166.6,52.3z
		 M168.4,53.1v1.3h-1c-0.5,0-0.9-0.1-0.9-0.7c0-0.5,0.4-0.6,0.9-0.6H168.4z"/>
</g>
</svg>
