<?xml version="1.0" encoding="utf-8"?>
<!-- Generator: Adobe Illustrator 27.0.1, SVG Export Plug-In . SVG Version: 6.00 Build 0)  -->
<svg version="1.1"
	 id="svg87" xmlns:inkscape="http://www.inkscape.org/namespaces/inkscape" xmlns:sodipodi="http://sodipodi.sourceforge.net/DTD/sodipodi-0.dtd" xmlns:svg="http://www.w3.org/2000/svg" xmlns:cc="http://creativecommons.org/ns#" xmlns:dc="http://purl.org/dc/elements/1.1/" xmlns:rdf="http://www.w3.org/1999/02/22-rdf-syntax-ns#" sodipodi:docname="lightstorm.svg"
	 xmlns="http://www.w3.org/2000/svg" xmlns:xlink="http://www.w3.org/1999/xlink" x="0px" y="0px" viewBox="0 0 942.6 544.4"
	 style="enable-background:new 0 0 942.6 544.4;" xml:space="preserve">
<style type="text/css">
	.st0{fill-rule:evenodd;clip-rule:evenodd;fill:#FFFFFF;}
	.st1{fill:#FFFFFF;}
</style>
<sodipodi:namedview  bordercolor="#666666" borderopacity="1.0" fit-margin-bottom="0" fit-margin-left="0" fit-margin-right="0" fit-margin-top="0" id="base" inkscape:current-layer="layer1" inkscape:cx="475.13353" inkscape:cy="159.41985" inkscape:document-units="px" inkscape:pageopacity="0.0" inkscape:pageshadow="2" inkscape:window-height="837" inkscape:window-maximized="1" inkscape:window-width="1600" inkscape:window-x="-8" inkscape:window-y="-8" inkscape:zoom="0.49497475" pagecolor="#ffffff" showgrid="false" units="px">
	</sodipodi:namedview>
<g id="layer1" transform="translate(120.83889,-340.61391)" inkscape:groupmode="layer" inkscape:label="Layer 1">
	<g id="layer1-7" transform="translate(-289.19834,-469.95861)" inkscape:label="Layer 1">
		<g id="g10" transform="matrix(4.3091138,0,0,-4.3091138,100.14185,1568.9978)">
			<g id="g12" transform="scale(0.1)">
				<path id="path16" inkscape:connector-curvature="0" class="st0" d="M1287.7,1758.6c49.8,4.2,100.7-0.2,148.4-16.5
					c42.5-14.3,81.8-37.9,114.8-68.3c20.9-18.5,38.6-40.3,55.1-62.8l148.6,36.6l-40.3,22l386.2,72.5l-265.2-89.5l38.1-24l-173-58.2
					l17.6-13.7l0.2-2.4l-398.1-122.3l254.4,118.6l-51.8,40.6l44.5,10.6c-20.7,37-51.4,68.3-86.2,92.6
					c-56.9,38.6-125,59.3-193.1,63.3C1287.9,1757.7,1287.7,1758.1,1287.7,1758.6"/>
				<path id="path18" inkscape:connector-curvature="0" class="st0" d="M1241.4,1525.3c10.1,4,20.7,7.3,31.7,7.1
					c14.1-36.4,28-73,42.1-109.3c125.2,31.5,246.9,75.4,371.9,107.8c2.2-20.7-3.3-42.8-18.5-57.8c-2.4-3.1-7.7-5.5-6.6-10.4
					c9-76.9-4.2-156.1-36.1-226.4c25.6,1.1,50.9,4.6,76.5,5.3l137.3-387.3l-184.7,253.5c-106,4.4-212.5-1.8-317.2-18.7
					c-191.6-30.4-375.8-94.6-553.1-171.7c-45.4-19.4-90.2-40.6-135.3-60.8c21.2,15.9,43.9,30,66.1,44.3
					c181,114.2,380.5,196.8,585.2,257.2c-0.7,3.3-2.9,5.3-5.7,6.2c-46.5,20.3-92.6,41.9-134.7,70.3c-34.2,22.9-65.7,50.7-90.6,83.6
					c-5.3,7-10.8,14.1-14.5,22c30.9,9.7,61.7,19.8,92.6,29.8c0.7,27.3,4.4,54.7,15.2,80C1177.2,1484.3,1205.7,1513.4,1241.4,1525.3
					L1241.4,1525.3z M1419.5,1358c66.1,39.2,131.6,79.8,197.9,119c3.8-2.2,8.8-4,9.7-8.8c2.7-15,5.1-30.2,4.6-45.4
					c1.3-64.1-7.3-130.1-35.5-188.3c-60.4-14.1-121-28-181.6-41.9c0.9,47.2,2.6,94.6,3.7,142
					C1418.6,1342.4,1418.6,1350.3,1419.5,1358"/>
			</g>
		</g>
		<path id="path4703" inkscape:connector-curvature="0" class="st1" d="M1094.9,1224.5L1069,1272l-26-47.5l-16,63.4h11.4l8.5-35.5
			l22.1,39.3l1.3-2.4l20.6-36.8l8.5,35.4h11.6L1094.9,1224.5z"/>
		<path id="path4701" inkscape:connector-curvature="0" class="st1" d="M653.1,1228c-0.7,0-1.4,0-2.2,0.1l-2.2,0.2l-0.1,0
			c-1.4,0.3-2.8,0.6-4.2,0.9c-1.4,0.4-2.8,0.9-4.2,1.6h0h0c-2.6,1.3-4.6,3-6.2,5.1l0,0l0,0c-1.4,2.1-2.3,4.2-2.5,6.4l0,0.1v0.6v0.5
			v1.1l0.3,1l0-0.1c0.2,0.8,0.4,1.7,0.8,2.5c0.3,0.9,0.8,1.6,1.3,2.4c1.7,2.5,4,4.4,6.8,5.9l0,0l0,0c2.8,1.3,5.7,2.4,8.8,3.4h0
			l1.2,0.4l1,0.3l0.8,0.4l0.2,0c0.3,0.1,0.5,0.1,0.7,0.2c0.1,0,0.2,0.1,0.4,0.1l0.2,0.1l0.2,0c0.3,0,0.5,0.1,0.6,0.1
			c2.1,0.7,4.1,1.5,5.9,2.5l0,0l0,0c1.7,0.9,3,2,3.9,3.4l0,0l0,0c0.1,0.1,0.2,0.3,0.2,0.5l0,0.1l0,0.1c0.1,0.3,0.2,0.5,0.3,0.7l0,0
			l0,0c0.2,0.5,0.3,1.1,0.4,1.5c0.1,0.5,0.1,1,0.1,1.4c0,2.7-1.3,4.8-4.1,6.6l0,0l0,0c-2.8,1.8-5.7,2.7-9,2.7c-0.6,0-1.2,0-1.8-0.1
			h0c-0.5-0.1-1-0.1-1.5-0.3l-0.1,0l-0.1,0c-0.6-0.1-1.2-0.2-1.9-0.4c-0.5-0.2-1.1-0.4-1.6-0.7c-1.5-0.9-2.7-1.9-3.5-3.1
			c-0.8-1.3-1.6-2.7-2.2-4.1l0.1,0.4c0-0.3-0.1-0.6-0.3-0.9l0.2,0.5c0-0.3-0.1-0.6-0.3-0.9l-0.7-1l-10.2,3.8l0.4,0.9
			c0.9,2.3,2.2,4.5,3.8,6.5l0,0l0,0c1.8,2,4.2,3.6,7.1,4.9l0,0l0,0c1.1,0.5,2.3,0.8,3.4,1.1c1.1,0.3,2.3,0.6,3.4,0.8l0,0h0
			c0.9,0.1,1.7,0.2,2.6,0.3c0,0,0,0,0,0c0.9,0.1,1.9,0.2,2.8,0.2h0.1h0.2h0c6.1-0.1,11.8-1.7,16.9-4.9h0h0c5.2-3.3,7.8-7.7,7.8-12.9
			c0-0.2-0.1-0.4-0.1-0.5v0v-0.7c0-0.2-0.1-0.4-0.1-0.5v0v-0.7l0-0.1c-0.5-3.6-2.1-6.6-4.8-8.9c-2.7-2.3-6.1-4.1-10.2-5.5h0
			l-10.2-3.5h0c-2.3-0.7-4.1-1.6-5.4-2.6c-1.4-1-2.4-2-3-2.9c-0.3-0.5-0.5-0.9-0.6-1.3c-0.1-0.5-0.2-0.9-0.2-1.3
			c0-1.8,0.8-3.3,2.7-4.7c2-1.5,4.1-2.1,6.6-2.1c0.7,0,1.5,0.1,2.3,0.2h0h0c0.9,0.2,1.8,0.4,2.6,0.7c1.1,0.4,2.2,1.1,3.4,1.9l0,0
			l0,0c1.1,0.8,2.2,1.7,3.1,2.9l0.8,1l9.5-4.8l-0.7-0.9c-2-2.8-4.9-5.1-8.6-6.6h0c-3.6-1.5-7.3-2.4-11.2-2.5h0h-0.5L653.1,1228z"/>
		<path id="path4699" inkscape:connector-curvature="0" class="st1" d="M349.8,1228.2c-5.7,0-11.3,0.9-16.7,2.6h0h0
			c-5.4,1.8-10,4.5-13.6,8.1l0,0l0,0c-2.1,2.2-3.9,4.6-5.2,7.2l0,0l0,0c-1.3,2.6-2.2,5.3-2.7,8c-0.2,0.8-0.3,1.6-0.4,2.4
			c-0.1,0.8-0.1,1.6-0.1,2.4v1.5l0.2,1.5c0.2,1.7,0.5,3.4,1.1,5.1c0.6,1.7,1.2,3.3,1.9,4.8l0,0l0,0c2.9,5.4,7.6,9.6,14.2,12.5
			c6.5,2.9,13.3,4.4,20.5,4.7h0h0.9h0.8c7.3,0,14.2-1.4,20.7-4.2c6.7-2.9,11.4-7.3,14-13.2l0,0l0,0c0.7-1.5,1.1-3.1,1.4-4.7
			c0.3-1.5,0.6-3.1,0.7-4.7l0,0v-1.8c0.1-0.6,0.2-1.2,0.2-1.8l0-0.1v-0.4v-1.6h-33.1v1.1v7h20.6c-0.8,5.2-3.4,9-8.1,11.7h0h0
			c-5.1,3-10.6,4.4-16.5,4.4h-0.9c-0.2,0-0.4,0-0.6-0.1l-0.1,0l-0.1,0c-5.9-0.3-11.3-1.9-16.5-5c0,0,0,0,0,0
			c-4.9-3.1-7.8-7.4-8.7-13.3l0,0.1c0-0.3-0.1-0.6-0.1-0.8v-1l0-0.1c-0.1-0.2-0.1-0.4-0.2-0.7v-0.7c0-6.1,2.4-11.3,7.2-15.9h0
			c4.8-4.5,11.1-6.8,19.3-6.9h1.2c4.7,0,8.8,0.9,12.5,2.6l0,0h0c3.7,1.7,6.8,4,9.3,7.1l0.9,1.1l9.7-5.8l-0.8-0.9
			c-3.4-3.7-7.8-6.6-13.1-8.6h0c-5.3-2.1-10.8-3.2-16.5-3.6c-0.6-0.1-1.1-0.1-1.7-0.1L349.8,1228.2z"/>
		<path id="path4697" inkscape:connector-curvature="0" class="st1" d="M852.4,1228.4c-7.1,0-13.9,1.4-20.3,4
			c-6.5,2.7-11.6,6.7-15.2,11.8c0,0,0,0,0,0h0c-1,1.4-1.8,2.8-2.4,4.3c0,0,0,0,0,0c-0.6,1.4-1.2,2.9-1.6,4.4l0,0
			c-0.2,0.9-0.4,1.9-0.6,2.8l0,0l0,0c-0.1,0.9-0.1,1.8-0.1,2.7c0,5.5,1.9,10.8,5.6,15.7h0h0c3.7,4.9,9,8.7,15.8,11.3c0,0,0,0,0,0
			c0,0,0,0,0,0c2,0.8,4.2,1.5,6.4,2h0h0c2.2,0.5,4.5,0.9,6.7,1.2l0.1,0l0.1,0c0.9,0.1,1.8,0.1,2.7,0.2h0h0c1,0.1,2,0.1,2.9,0.1
			c7.8,0,15.2-1.6,22.2-4.9c7-3.3,12.2-7.9,15.4-13.9l0,0l0,0c0.9-1.8,1.6-3.7,2.1-5.5c0.5-1.9,0.7-3.8,0.7-5.8v-1
			c0-0.4,0-0.8-0.1-1.2c-0.4-4.6-2.1-9-5.1-13.2c-3-4.3-7.2-7.7-12.4-10.2h0h0c-2.5-1.2-5.2-2.2-7.9-2.9c-2.7-0.7-5.4-1.3-8.1-1.7h0
			h0c-1.1-0.1-2.3-0.2-3.4-0.3h0C854.6,1228.4,853.5,1228.4,852.4,1228.4L852.4,1228.4z M851.4,1236.7L851.4,1236.7h0.5h0.7
			c0.7,0,1.4,0,2.1,0.1h0l2.3,0.2c1.9,0.3,3.8,0.7,5.7,1.3l0,0l0,0c1.9,0.5,3.7,1.2,5.4,2.1h0h0c3.9,2,7,4.5,9.1,7.8l0,0l0,0
			c2.3,3.3,3.4,6.6,3.6,10v0.3v0.3c0,0.5,0,1-0.1,1.6l0,0.1v0.1c0,0.5-0.1,0.9-0.2,1.4l0,0l0,0c-0.1,0.8-0.4,1.7-0.8,2.6l0,0l0,0
			c-0.3,0.9-0.7,1.7-1.1,2.5l0,0l0,0c-2.2,4.2-5.8,7.5-10.8,10c-5,2.4-10.3,3.6-15.8,3.6h-1.4c-0.5-0.1-0.9-0.1-1.3-0.1l0.2,0
			c-1.8-0.2-3.6-0.5-5.3-0.9c-1.7-0.4-3.4-0.9-5-1.6h0h0c-4.7-2-8.4-4.7-11.1-8.3h0c-2.7-3.7-4-7.4-4-11.3c0-0.7,0-1.5,0.1-2.3
			c0.1-0.8,0.3-1.6,0.6-2.4c0.3-1,0.7-1.9,1.1-2.9c0.4-0.9,1-1.8,1.6-2.7l0,0l0,0c2.4-3.6,5.7-6.3,10.1-8.4
			C842,1237.9,846.6,1236.8,851.4,1236.7L851.4,1236.7z"/>
		<path id="path4695" inkscape:connector-curvature="0" class="st1" d="M168.4,1229.4v58.5h1.5h37.5v-8.6h-27.4v-49.9H168.4z"/>
		<path id="path4693" inkscape:connector-curvature="0" class="st1" d="M253.4,1229.4v58.5h1.5h10.2v-58.5H253.4z"/>
		<path id="path4691" inkscape:connector-curvature="0" class="st1" d="M435.9,1229.4v58.5h1.5h9.9v-28.3h35.8v28.3h11.8v-58.5
			h-11.8v21.6h-35.8v-21.6H435.9z"/>
		<path id="path4689" inkscape:connector-curvature="0" class="st1" d="M541,1229.4v8.6h20.3v49.9h1.5h10.5V1238h20.3v-8.6H541z"/>
		<path id="path4687" inkscape:connector-curvature="0" class="st1" d="M723.2,1229.4v8.6h20.3v49.9h1.5h10.5V1238h20.3v-8.6H723.2z
			"/>
		<path id="path4685" inkscape:connector-curvature="0" class="st1" d="M955.6,1229.4l-19.6,0v58.5h11.4v-1.1v-24.5l25.6,25.7h14.8
			l-28-27.1c4.6-0.3,8.8-1,12.3-2.5c4.5-2,7-5.7,7.6-10.8l0,0v-1.5c0-0.6,0-1.2-0.1-1.8c-0.1-0.6-0.2-1.2-0.2-1.7l0,0l0,0
			c-0.3-1.4-0.8-2.8-1.5-4.1c-0.7-1.4-1.6-2.6-2.7-3.7l0,0l0,0c-1.8-1.7-4-3-6.6-3.7c-2.5-0.7-5.1-1.1-7.8-1.2
			c-0.8-0.1-1.6-0.1-2.4-0.1l-0.1,0C957.3,1229.4,956.4,1229.4,955.6,1229.4L955.6,1229.4z M947.5,1237.4h6.2
			c3.9,0,7.4,0.5,10.5,1.5c1.3,0.4,2.2,1.1,2.9,2.2s1.1,2.7,1.1,4.7v1.2c-0.1,3-1.3,4.6-3.7,5.5c0,0,0,0,0,0c-2.7,1-5.7,1.5-8.9,1.6
			h-0.9h-0.9H953h-0.6h-1.4h0c-0.5-0.1-0.9-0.1-1.4-0.1h-2c-0.1,0-0.1,0-0.2,0L947.5,1237.4z"/>
		<path id="path4655" inkscape:connector-curvature="0" class="st1" d="M813.3,1315.2l-15.4,28.1l-15.4-28.1l-9.5,37.6h6.7l5-21
			l13.1,23.3l0.8-1.4l12.2-21.8l5,21h6.9L813.3,1315.2z"/>
		<path id="path4653" inkscape:connector-curvature="0" class="st1" d="M328.1,1315.7v37h0.9h5.7v-24l31.6,26.3v-36.9h-6.7v24.2
			L328.1,1315.7z"/>
		<path id="path4651" inkscape:connector-curvature="0" class="st1" d="M708.3,1315.7v37h0.9h5.7v-24l31.6,26.3v-36.9h-6.7v24.2
			L708.3,1315.7z"/>
		<path id="path4649" inkscape:connector-curvature="0" class="st1" d="M904.1,1315.7v37h0.9h5.7v-24l31.6,26.3v-36.9h-6.7v24.2
			L904.1,1315.7z"/>
		<path id="path4647" inkscape:connector-curvature="0" class="st1" d="M626.3,1315.8l-0.8,1.4l-20,35.6h7.3l5.6-10.2h15.6l5.6,10.2
			h7.4L626.3,1315.8z M626.3,1327.9l5.4,9.9h-11L626.3,1327.9z"/>
		<path id="path4645" inkscape:connector-curvature="0" class="st1" d="M275.1,1318.1v34.7h0.9h23.6v-5h-17.6v-11.5h17.6v-5h-17.6
			v-8.2h17.6v-5L275.1,1318.1z"/>
		<path id="path4643" inkscape:connector-curvature="0" class="st1" d="M393.4,1318.1v5.1h12v29.6h0.9h6.2v-29.6h12v-5.1H393.4z"/>
		<path id="path4641" inkscape:connector-curvature="0" class="st1" d="M447.1,1318.1v34.7h0.9h23.6v-5h-17.6v-11.5h17.6v-5h-17.6
			v-8.2h17.6v-5L447.1,1318.1z"/>
		<path id="path4639" inkscape:connector-curvature="0" class="st1" d="M500.8,1318.1v34.7h6.8v-0.7v-14.5l15.1,15.2h8.8l-16.6-16
			c2.7-0.2,5.2-0.6,7.3-1.5c2.7-1.2,4.1-3.4,4.5-6.4l0,0v-0.9c0-0.3,0-0.7-0.1-1v0c0-0.4-0.1-0.7-0.1-1l0,0l0,0
			c-0.2-0.8-0.5-1.6-0.9-2.4c-0.4-0.8-0.9-1.6-1.6-2.2l0,0l0,0c-1.1-1-2.4-1.8-3.9-2.2c-1.5-0.4-3-0.7-4.6-0.7c-0.5,0-1-0.1-1.5-0.1
			h-0.1c-0.5,0-1-0.1-1.5-0.1L500.8,1318.1z M507.5,1322.8h3.7c2.3,0,4.4,0.3,6.2,0.9c0.8,0.2,1.3,0.6,1.7,1.3
			c0.4,0.7,0.6,1.6,0.6,2.8v0.7c0,1.8-0.8,2.7-2.2,3.3c-1.6,0.6-3.4,0.9-5.3,1h-0.5h-0.6h-0.3h-0.3h-0.8c-0.3,0-0.6-0.1-0.9-0.1
			h-1.2h0c0,0-0.1,0-0.1,0L507.5,1322.8z"/>
		<path id="path4637" inkscape:connector-curvature="0" class="st1" d="M556.3,1318.1v5.1h12.1v29.6h0.9h6.2v-29.6h12.1v-5.1H556.3z
			"/>
		<path id="path4635" inkscape:connector-curvature="0" class="st1" d="M672.3,1318.1v34.7h0.9h6v-34.7H672.3z"/>
		<path id="path4633" inkscape:connector-curvature="0" class="st1" d="M851.1,1318.1v34.7h0.9h23.6v-5h-17.6v-11.5h17.6v-5h-17.6
			v-8.2h17.6v-5L851.1,1318.1z"/>
		<path id="path4631" inkscape:connector-curvature="0" class="st1" d="M969.4,1318.1v5.1h12v29.6h0.9h6.2v-29.6h12v-5.1H969.4z"/>
	</g>
</g>
</svg>
