<?xml version="1.0" encoding="utf-8"?>
<!-- Generator: Adobe Illustrator 27.6.1, SVG Export Plug-In . SVG Version: 6.00 Build 0)  -->
<svg version="1.1"
	 id="svg1" xmlns:inkscape="http://www.inkscape.org/namespaces/inkscape" xmlns:sodipodi="http://sodipodi.sourceforge.net/DTD/sodipodi-0.dtd" xmlns:svg="http://www.w3.org/2000/svg" inkscape:version="1.4.2 (ebf0e94, 2025-05-08)" sodipodi:docname="464587.svg"
	 xmlns="http://www.w3.org/2000/svg" xmlns:xlink="http://www.w3.org/1999/xlink" x="0px" y="0px" width="1379.1px"
	 height="917.4px" viewBox="0 0 1379.1 917.4" style="enable-background:new 0 0 1379.1 917.4;" xml:space="preserve">
<style type="text/css">
	.st0{fill:#FFFFFF;}
</style>
<sodipodi:namedview  bordercolor="#000000" borderopacity="0.25" id="namedview1" inkscape:current-layer="g1" inkscape:cx="933.98046" inkscape:cy="1018.9869" inkscape:deskcolor="#d1d1d1" inkscape:pagecheckerboard="0" inkscape:pageopacity="0.0" inkscape:showpageshadow="2" inkscape:window-height="1001" inkscape:window-maximized="1" inkscape:window-width="1920" inkscape:window-x="-9" inkscape:window-y="-9" inkscape:zoom="0.45878904" pagecolor="#ffffff">
	</sodipodi:namedview>
<g>
	<polygon class="st0" points="0,533.3 0,550.7 0,568 62,568 124,568 124,550.7 124,533.3 62,533.3 	"/>
	<path class="st0" d="M123.3,580.7H62H0.7L0.3,596c-0.2,8.4-0.1,16.1,0.3,17.1l0,0c0.6,1.6,9.8,1.8,61.7,1.1
		c33.5-0.4,61.2-0.8,61.4-0.8s0.2-7.4,0-16.4L123.3,580.7z"/>
	<path class="st0" d="M665.4,452.4c-0.5-0.6-1.7-3.5-2.6-6.4s-4.7-11.5-8.3-19.1c-5.3-11-8.4-15.6-15.6-22.7
		c-15.4-15.5-31.8-21.9-56.3-21.9c-16.1,0-26.5,2.3-40.8,9.1c-17.5,8.4-35.8,25.2-49.9,45.9c-5.6,8.3-9.2,11.8-7.4,7.2
		c2.3-5.8,8.8-45.3,8.8-53.5c0-1.4-12.6-1.7-64-1.7c-35.2,0-64,0.3-64,0.6c0,0.3-6,49.1-13.4,108.3c-7.4,59.3-17,136.8-21.4,172.4
		s-8.3,65.7-8.7,67c-0.4,1.3-0.3,2.9,0.1,3.7l0,0c1,1.6,122.3,1.4,127-0.2c2.2-0.8,3-2.1,3-4.9c0-7.4,22.8-185.1,24.7-192.9
		c5-20,14.1-30,28.4-31.1c9.4-0.7,15.1,1.8,18.5,8.1c3.5,6.4,2.8,19-3.5,69.6c-16.4,131.1-18.7,150.5-18,151.6
		c0.5,0.8,25.3,1,64.3,0.6c34.9-0.4,63.6-0.7,63.7-0.8c0.4-0.2,3.5-24.5,11.8-93.4c13.1-109.1,14.7-116.8,26.3-129.9
		c4.1-4.6,7-6.5,12.6-8.1c6.8-2,7.6-2,12.1,0.3c2.7,1.3,6.1,4.1,7.6,6.2c5.3,7.2,5.2,8.4-15.9,176.7c-3.3,25.9-5.6,47.6-5.3,48.1
		c0.7,1.1,127.3,0.4,128.5-0.7c0.4-0.4,0.2-1.5-0.5-2.5c-0.7-0.9-5.2-7-10.1-13.3c-15.5-20.5-25.7-41.9-32.4-67.6
		c-16.3-62.8-7.8-133.3,22.8-190.5c9.9-18.5,22.6-36.8,33.5-48.3l4.7-5l-8.9-8.7c-16.2-15.8-40.5-24.4-63.6-22.5
		c-35,2.8-60.1,21.4-80.7,59.7C669.2,448.2,665.9,453,665.4,452.4z"/>
	<path class="st0" d="M1379,103l-0.4-103h-109.3H1160v104v104h109.3c60.1,0,109.4-0.4,109.7-1C1379.1,206.5,1379.2,159.7,1379,103z
		 M1333,155l-0.4,16.3l-60.2,0.3c-33.9,0.2-60.6-0.2-61-0.8c-1.2-2,5.9-10.6,30.2-36.2c28.6-30.1,34.7-37.3,40.1-46.6
		c8.7-15.1,4.3-28.9-9.1-28.6c-9.1,0.2-12.8,4.5-15.8,18.2l-0.8,3.7h-20.6c-23.9,0-22.2,1.4-18-15.3c3.3-12.9,7.4-20,15.9-27.6
		c10-9,18.9-12,38.4-12.7c13.9-0.5,17.6-0.2,25.5,2.2c11.9,3.6,21.2,9.9,26.6,17.9c5.5,8.3,7,13.9,7,26.6c0,17.9-7.1,30.6-29.2,52.2
		c-6.7,6.5-12.1,12.2-12.1,12.7s8.4,0.6,18.6,0.3c10.3-0.3,30.3,0.3,22,0.3h3.4L1333,155z"/>
	<path class="st0" d="M796.6,622.7c9,67.5,47.1,113.1,103.4,123.9c4,0.8,8.5,1.7,10,2l0,0c1.5,0.3,13.6,0.4,27,0.2
		c26.6-0.5,28.3-0.9,28.4-7.9c0-2.3,3-28.4,6.6-58.1c3.6-29.7,6.4-54.2,6.1-54.5s-3.4-0.8-6.9-1.1c-16.2-1.4-26.9-8.2-34-21.4
		c-7.5-13.9-9.9-36.9-5.7-54.7c6.6-28,27.9-48.1,55-51.7c3.8-0.5,7.3-1.4,7.7-2.1c0.4-0.6,3.8-26.1,7.6-56.6
		c5.4-43.8,6.5-55.8,5.2-57.1c-2.9-2.9-42.3-1.9-57.5,1.4c-24.8,5.4-43.2,13.1-63.4,26.7C821.3,455.1,785.5,539.6,796.6,622.7z"/>
	<path class="st0" d="M1158.7,208H669.5c-444.8,0-489.3,0.2-490,2.1c-1.1,2.9-1,705.2,0.1,706.3c1.5,1.5,978.8,1.1,979.3-0.4
		c0.2-0.7,0.3-160.3,0.1-354.7L1158.7,208z M1110.7,562.7v306.7H674.2l0,0c-240.1,0-438.2,0.3-440.3,0.8c-2.1,0.4-4.3,0.3-4.8-0.2
		s-1-138.9-1-307.4V256h441.3h441.3V562.7z"/>
</g>
</svg>
