<?xml version="1.0" encoding="utf-8"?>
<!-- Generator: Adobe Illustrator 27.0.1, SVG Export Plug-In . SVG Version: 6.00 Build 0)  -->
<svg version="1.1" id="Layer_1" xmlns="http://www.w3.org/2000/svg" xmlns:xlink="http://www.w3.org/1999/xlink" x="0px" y="0px"
	 viewBox="0 0 1976 301.6" style="enable-background:new 0 0 1976 301.6;" xml:space="preserve">
<style type="text/css">
	.st0{fill:#FFFFFF;}
</style>
<g id="Layer_2_00000108278431758252963540000006584881094598880665_">
	<g id="Layer_1-2">
		<g id="Layer_2-2">
			<g id="Layer_1-2-2">
				<g id="Layer_2-2-2">
					<g id="Слой_1">
						<path class="st0" d="M1238.1,176v-55.6l7.7-7.1h54.8l7.7,7.1v13.8h-15.6v-7h-39v41.7h39.2v-6.8h15.6v14l-7.7,6.7H1246
							L1238.1,176z"/>
						<path class="st0" d="M1318.3,182.8v-69.6h15.6v69.6H1318.3z"/>
						<path class="st0" d="M1345.1,182.8v-69.6h15.6l39.1,46.2v-46.3h15.6v69.6h-15.6l-39-46.3v46.4H1345.1z"/>
						<path class="st0" d="M1426.5,182.8v-69.6h66.4v13.9h-50.8V141h46.8v14h-46.8v13.7h50.8v13.9L1426.5,182.8z"/>
						<path class="st0" d="M1502.9,182.8v-69.6h15.6l27.3,33.6l27.8-33.7h15.1v69.6h-15.6v-46.9l-20.4,26.7h-13.1l-20.9-26.7v46.9
							L1502.9,182.8L1502.9,182.8z"/>
						<path class="st0" d="M1598.8,182.8v-48.6l23.3-21h46.8v69.6h-15.6V162h-38.9v20.8H1598.8z M1614.4,148.1h39v-21h-23.5
							l-15.6,14L1614.4,148.1z"/>
						<path class="st0" d="M1238.1,301.9v-69.6h62.5l7.7,7.2v34.7l-7.7,7h-46.9v20.7H1238.1z M1253.6,267.3h39.2v-21h-39.2V267.3z"
							/>
						<path class="st0" d="M1318.3,301.9v-69.6h62.5l7.7,7.2v34.7l-7.7,7l7.7,6.7v14H1373V295l-7.7-7.1l-7.7-6.9h-23.4v20.9H1318.3z
							 M1333.9,267.3h39.1v-21h-39.1V267.3z"/>
						<path class="st0" d="M1399.6,295.1v-55.5l7.7-7.1h54.8l7.7,7.1v55.6l-7.7,6.7h-54.8L1399.6,295.1z M1415.2,288h39.1v-41.7
							h-39.1V288z"/>
						<path class="st0" d="M1481,301.9v-69.6h46.9l23.3,20.9v42l-7.7,6.7H1481z M1496.6,287.9h39v-27.7l-15.6-14h-23.4V287.9z"/>
						<path class="st0" d="M1561.3,295.1v-62.7h15.6V288h39.1v-55.6h15.6v62.7l-7.7,6.9h-54.8L1561.3,295.1z"/>
						<path class="st0" d="M1642.7,295.1v-55.5l7.8-7.1h54.8l7.7,7.1v13.8h-15.6v-7.1h-39.1V288h39v-6.9h15.6V295l-7.7,6.9h-54.8
							L1642.7,295.1z"/>
						<path class="st0" d="M1719.6,246.3v-13.9h70.2v13.9h-27.2v55.6H1747v-55.6H1719.6z"/>
						<path class="st0" d="M1797.6,301.9v-69.6h15.6v69.6H1797.6z"/>
						<path class="st0" d="M1824.4,295.1v-55.5l7.8-7.1h54.8l7.7,7.1v55.6l-7.7,6.7h-54.8L1824.4,295.1z M1840,288h39.1v-41.7h-39
							L1840,288z"/>
						<path class="st0" d="M1905.8,301.9v-69.6h15.6l39,46.3v-46.3h15.6v69.6h-15.6l-39-46.4v46.4H1905.8z"/>
					</g>
				</g>
				<g id="Layer_2-3">
					<g id="Layer_2-2-2-2">
						<polygon class="st0" points="344.7,301.6 265.7,301.6 265.7,142.7 172.5,228 79,142.7 79,301.6 0,301.6 0,0 30.6,0 
							172.5,136.9 314.1,0 344.7,0 						"/>
						<polygon class="st0" points="775.8,69 593.1,69 689.7,151.1 593.1,233.3 775.8,233.3 775.8,301.9 427.2,301.9 427.2,274.7 
							585.2,150.8 427.2,26.9 427.2,0 775.8,0 						"/>
						<polygon class="st0" points="1186,301.7 1108.9,301.7 1108.9,145.7 1017,229.5 925,145.7 925,301.7 847.7,301.7 847.7,5.5 
							877.8,5.5 1016.9,140 1155.9,5.5 1186,5.5 						"/>
					</g>
				</g>
			</g>
		</g>
	</g>
</g>
</svg>
