<?xml version="1.0" encoding="utf-8"?>
<!-- Generator: Adobe Illustrator 27.0.1, SVG Export Plug-In . SVG Version: 6.00 Build 0)  -->
<svg version="1.1"
	 id="svg3734" xmlns:dc="http://purl.org/dc/elements/1.1/" xmlns:svg="http://www.w3.org/2000/svg" xmlns:cc="http://creativecommons.org/ns#" xmlns:rdf="http://www.w3.org/1999/02/22-rdf-syntax-ns#"
	 xmlns="http://www.w3.org/2000/svg" xmlns:xlink="http://www.w3.org/1999/xlink" x="0px" y="0px" viewBox="0 0 300 139.5"
	 style="enable-background:new 0 0 300 139.5;" xml:space="preserve">
<style type="text/css">
	.st0{fill:#FFFFFF;}
</style>
<g id="layer1" transform="translate(-109.99998,-382.58985)">
	<path id="path3269" class="st0" d="M150.8,464.2c-1.9,28.9-17.6,47.5-18.5,49.3c-0.9,1.8-2.8,2.3-4.5,5.1c-2.7,4.5,6.2,1.9,7.9,1.1
		c1.7-0.9,10.8-3.9,12.7-3.9c1.9,0,11.9-2.1,12.1-3.9c0.8-7.6,3.6-17.4,3.6-17.4s2.6,10.6,5.5,16c2.8,5.3,6-0.4,6-0.4l4.3-7.8
		c0,0,2.6,6.2,4.3,9.4c1.7,3.2,6.4,1.2,6.4,1.2s2.6-1.6,9.8-3c7.2-1.4,7.2,0.7,7.2,0.7s3.6,4.6,3.6,6.4c0,1.8,4.7,2.1,4.9,0.4
		s-4-9-4-9s13.6-1.1,17.4-2.7c4.6-2-1.7-3.7-1.7-3.7l-18.5,1.4c0,0-10.2-20.2-13-22.5c-4.2-3.4-3.4,3-3.4,3l10,17.6l0.9,3.4
		c0,0-13.8,3.9-15.1,4.1c-1.3,0.2-1.7-3.4-4.3-9.2c-2.6-5.9-5.7-1.8-6.8-1.4c-1.1,0.4-4.9,7.6-5.3,6.6c-0.4-1.1-4.9-10.6-6.2-17.7
		c-1.3-7.1-4.5-1.4-4.5-1.4s-4.2,14.2-4.7,19.5c-0.6,5.3-3.8,4.8-3.8,4.8l-15.1,3.5c0,0,4-6.9,10.4-18.4c6.4-11.5,7.2-30.7,6.8-33.3
		c-0.4-2.7-1.7-2-1.7-2S151.3,457.8,150.8,464.2 M241.5,513.5v1.2h0c-0.6-0.9-1.5-1.4-2.7-1.4c-2.3,0-4.2,1.9-4.2,4.5
		c0,2.7,2,4.4,4.1,4.4c0.4,0,1.8-0.1,2.8-1.4h0v1.1h1.9v-8.3H241.5L241.5,513.5z M239,520.2c-1.5,0-2.5-1.1-2.5-2.5
		c0-1.5,1-2.6,2.5-2.6c1.5,0,2.4,1.1,2.4,2.5C241.5,519.2,240.5,520.2,239,520.2 M255.6,513.5h1.9v0.8h0c0.3-0.3,0.9-1,2.3-1
		c1.9,0,3.3,1.4,3.3,3.7v4.9h-2v-4.4c0-1.9-0.9-2.3-1.7-2.3c-1.6,0-1.7,1.5-1.7,2.3v4.4h-2L255.6,513.5L255.6,513.5z M274.7,510.7h2
		v1.8h-2V510.7L274.7,510.7z M274.7,513.5h2v8.3h-2V513.5z M289.3,513.5h1.9v0.8h0c0.6-0.8,1.5-1,2.2-1c0.8,0,1.9,0.4,2.5,1.3
		c0.5-0.7,1.3-1.3,2.7-1.3c2,0,3.4,1.4,3.4,3.7v4.9h-2v-4.4c0-0.8-0.1-2.3-1.7-2.3c-1.5,0-1.6,1.5-1.6,2.3v4.4h-2v-4.4
		c0-0.8-0.1-2.3-1.7-2.3c-1.5,0-1.6,1.5-1.6,2.3v4.4h-2L289.3,513.5L289.3,513.5z M320.4,513.5v1.2h0c-0.6-0.9-1.5-1.4-2.7-1.4
		c-2.3,0-4.2,1.9-4.2,4.5c0,2.7,2,4.4,4.1,4.4c0.4,0,1.8-0.1,2.8-1.4h0v1.1h1.9v-8.3H320.4z M317.9,520.2c-1.5,0-2.5-1.1-2.5-2.5
		c0-1.5,1-2.6,2.5-2.6c1.5,0,2.4,1.1,2.4,2.5C320.3,519.2,319.3,520.2,317.9,520.2 M337.3,515.3h-1v-1.8h1v-2.8h2v2.8h1.2v1.8h-1.2
		v6.6h-2V515.3z M355.2,510.7h2v1.8h-2V510.7L355.2,510.7z M355.2,513.5h2v8.3h-2V513.5z M374.7,513.3c-2.6,0-4.5,2-4.5,4.4
		c0,2.4,1.9,4.4,4.5,4.4s4.5-2,4.5-4.4C379.2,515.3,377.3,513.3,374.7,513.3 M374.7,520.2c-1.5,0-2.4-1.2-2.4-2.5
		c0-1.4,0.9-2.6,2.4-2.6c1.5,0,2.4,1.2,2.4,2.6C377.2,519.1,376.2,520.2,374.7,520.2 M396.2,513.3c1.9,0,3.3,1.4,3.3,3.7v4.9h-2
		v-2.1v-0.6v-0.2v-1.5c0-0.3,0-0.6-0.1-0.9c0-0.2-0.1-0.3-0.1-0.5c-0.3-0.8-0.9-1-1.5-1c-0.9,0-1.3,0.4-1.5,1
		c-0.2,0.5-0.2,1-0.2,1.3v4.4h-2v-1.4v-1v-3.3v-2.5h1.9v0.8h0C394.2,514,394.8,513.3,396.2,513.3 M244.8,473.1c0,0-5.3,6.3-8.2,13.6
		c-4.4,10.8-3.1,18.7-3.1,18.7s2.4,0.1,4.2-3.4c1.3-2.7,1.8-7.9,2.7-10.9c0.8-2.8,2.1-3.7,2.1-3.7s-0.1,5.1,1,9.2
		c0.9,3.3,2.9,5.8,2.9,5.8s1.9,0,3.5-2.7c1.2-2.1,1.7-6.3,2.6-8.6c0.9-2.4,2.2-2.9,2.2-2.9s0.4,1.3,0.7,3.2c0.6,3.1,1.6,7.9,3,10.9
		c1.7,3.6,4.5,3.1,4.5,3.1s-0.6-10.1-2.8-17.8c-2.3-7.9-6.3-9.9-6.3-9.9s-1,0.4-1.6,1.1c-1.2,1.3-1.6,4.2-2.5,5.7
		c-1,1.6-1.9,1.5-1.9,1.5s-0.7-0.5-0.8-2.8c-0.1-2.2,0.4-6.2,0-8.1C246.6,473.2,244.8,473.1,244.8,473.1 M264.5,476.9
		c0,0,3.6-3.5,10.8-4.3c5.4-0.5,8.2,2,8.2,2s-0.1,1.5-1.5,2.3c-1.9,1-6.7,0.6-9,1.5c-2.1,0.8-1.7,3-1.7,3s-0.3,1.7,1.2,2.1
		c1.6,0.4,4.1,0.1,6,0.1c1.6,0,2.7,0.5,2.7,0.5s1.2,0.5,0.7,2.2c-0.3,1-1.2,1.7-1.2,1.7s-0.9,0.6-2.2,0.6c-2,0.1-4.9-0.4-6.7,0
		c-1.1,0.2-1.2,1.6-1.2,1.6s0,3,0.1,5.1c0,1.2-0.7,1.7-0.7,1.7s0.7,0.4,2.2,0.5c2.5,0.2,6.5,0.4,8.8,1.3c1.7,0.7,1.9,2.7,1.9,2.7
		s-3.5,2-9.9,1.7c-2-0.1-4.1-0.5-5.5-1.1c-1.4-0.6-2.1-1.4-2.1-1.4s-0.1-2.6,0-5.5c0.2-4.1,0.7-9,0.7-9s0.2-3.1-0.2-5.8
		C265.4,478.6,264.5,476.9,264.5,476.9 M288.7,474.6c0,0-1.7,6.5-1.4,15.4c0.2,6.9,1.5,13.9,1.5,13.9s1.8-0.4,4.5-0.6
		c2.2-0.2,5-0.2,6.9-0.8c3.3-1,3.8-3.1,3.8-3.1s-0.8-1.9-2.4-2.1c-1.8-0.3-4.3,0.4-6.2,0.6c-1.6,0.2-2.8-0.1-2.8-0.1s-0.1-2,0-4.9
		c0.1-3.9,0.2-9.4,0-13.4c-0.2-3-1.4-5-1.4-5L288.7,474.6L288.7,474.6z M308.4,472.4c0,0-0.6,0.7-1.1,2.3
		c-1.9,5.4-1.7,14.4-0.4,18.7c0.9,3.1,2.3,3.8,2.3,3.8s1.2-0.2,1.7-2.3c0.5-2.1,0.5-5.5,0.7-7.6c0.1-1.4,0.7-2.1,0.7-2.1
		s0.8,0.8,1.7,2.6c1.1,2.1,2.5,5.3,4,7.2c1.5,2,3.3,2.3,3.3,2.3s1.4-3.9,2.4-8.2c0.2-1.1,1-5,1.3-8.4c0.5-5.7-0.6-9.6-0.6-9.6
		l-2.3-0.1c0,0-0.7,0.8-1.1,2.3c-0.5,1.9-0.8,6.2-1.3,8.4c-0.5,2.4-1.3,2.8-1.3,2.8s-0.4-0.6-0.9-1.6c-1-2-2.7-5.3-4.6-7.6
		C311.1,473,308.4,472.4,308.4,472.4 M330.4,473.1c0,0-0.2,2.4-0.5,5.7c-0.4,4.2-0.8,10.1-0.2,14.7c0.6,5.1,3,6.6,3,6.6
		s1.3-1.8,2-5.5c0.5-2.9,0.6-7.3,0.4-10.5C334.5,474.7,330.4,473.1,330.4,473.1 M350.1,475.4c0,0,2.7,0.3,4.7-0.2
		c1.5-0.3,2.1-1.4,2.1-1.4s-0.5-1.4-2.7-2.3c-2.1-0.9-6-1.2-8.5-1c-2.2,0.2-5.5,0.9-7.1,1.9c-2,1.3-2,3-2,3s0.4,0.6,1.3,0.7
		c0.9,0.1,2.1,0,3,0c1.1,0,1.9,0,1.9,0s0.8,0.1,1.2,0.5c0.3,0.3,0.1,1.3,0.1,1.3s0,1.9-0.6,4.2c-0.7,3.2-1.9,7.5-1.9,11
		c0,4.5,2.4,6.3,2.4,6.3s1.6-1.4,2.8-6.3c1.1-4.4,1.3-11.9,2.4-15.2C349.8,476.3,350.1,475.4,350.1,475.4 M325.9,463.3
		c0,0,0,1.5,1.1,2.7c0.8,0.9,2.7,1.7,3.8,1.7c1.3-0.1,2.4-0.3,3.1-0.7c2.1-1.3,1.9-3.7,1.9-3.7s-1.4-2.9-5.8-2.8
		C326.6,460.5,325.9,463.3,325.9,463.3 M379.7,478.3c0,0-0.8-3-3.5-4.8c-4.3-2.9-11-1.8-14.7,0.7c-1.9,1.3-2.5,2.8-2.5,2.8
		s-1.2,2.4-0.3,4.4c1.9,4,4.8,2.9,11,7.2c2.1,1.4,2.3,4,2.3,4s-2.3,2-5.1,1.5c-2.8-0.5-5.3-2.6-7.3-3.8c-1.6-1-2.7-1.4-2.7-1.4
		s-1.6,3.1,0.2,5.6c2.3,3.3,6.5,4.2,6.5,4.2s4.7,1.1,8.7,0.1c4.1-1,5.4-4,5.4-4s1.5-4.1-0.3-6.5c-1.3-1.7-3.8-2.8-5.6-3.4
		c-1.3-0.5-2.3-0.9-2.3-0.9s-2.4-1-3.8-2.7c-1.2-1.4-1.3-3.7-1.3-3.7s1.4-0.8,3.7-0.5c2.6,0.3,6,1.9,8.7,1.8
		C378.6,478.9,379.7,478.3,379.7,478.3 M410,488.9c0,0-0.5-1-1.7-1.3c-1.3-0.3-3.3-0.2-4.8-0.2c-1.6-0.1-2.7-0.3-2.7-0.3
		s-0.7-0.2-0.9-1c-0.4-1.8-0.6-5.3-0.6-5.3s-0.2-5.6-1.7-9.1c-1.1-2.5-3.6-3.3-3.6-3.3s-6.8,5.1-9.6,19.1
		c-0.9,4.5-1.8,10.9-1.3,14.3c0.5,3.6,2.5,4.2,2.5,4.2s1.4-0.1,2.3-2c0.9-2.1,0.6-5.9,1.2-8.1c0.4-1.6,2-2,2-2s2.7,0,4.2,0.2
		c0.6,0.1,0.9,0.5,0.9,0.5s0,1.3-0.1,3c-0.1,1.3-0.4,2.9-0.1,4c0.5,1.9,2.5,2.1,2.5,2.1s1.5-0.2,2-2.3c0.5-2,0.2-5.2,0.3-7.3
		c0.1-1.7,0.7-2.5,0.7-2.5s4,1.3,6.4,0.4C410.2,491.5,410,488.9,410,488.9 M390.6,486.7c0,0,0.1-3.8,0.9-7.2
		c0.7-2.9,2.2-5.5,2.2-5.5s0.3,0.2,0.5,0.7c0.5,1.7,1.4,5.8,1.4,8.4C395.4,488.2,390.6,486.7,390.6,486.7 M224.1,422.1
		c-2.1-0.5-2.6,0-2.6,0s-10.4-15.3-10.9-16.7c-0.5-1.3-2.8-8.3-4.2-8.5c-1.3-0.2-2.5-1.4-4.6,0c-2.2,1.4-24.9,14.7-24.9,14.7
		s-1.7,1.2-2.4,2.8c-0.7,1.5-1.8,8.2-1.5,11.8c0.3,3.6-1,6.7-1,6.7s-0.4,2.9,3.4,3.2c3.8,0.3,15.2,2.7,16.6,3.5
		c1.4,0.8,4,1.1,6.9-0.8c2.9-1.9,15.1-9,18-9.3c2.9-0.4,7.7-3.3,8.3-4.1C226.1,424.5,226.2,422.6,224.1,422.1 M203.9,401.2l2.7,7.3
		c0,0-7.3,4-9.5,5.5c-2.3,1.5-7.9,4-9.6,4s-4.7-3.6-4.7-3.6L203.9,401.2z M192,434.2c-2.3-0.2-9.1-1.6-9.1-1.6s-0.9-3.5-1.9-4.6
		s-2.9-2.2-2.9-2.2V418c0,0,4,0.3,5.9,4.1c1.9,3.8,0.4,4.1,2,5.1c1.6,1.1,2.6-0.5,4.3,0.4c1.7,1,3.9,5,3.8,5.7
		C193.8,434.1,194.2,434.4,192,434.2 M189.7,422.1c0,0,18.9-9,19.2-9.5s2.5,2.4,2.2,3.3c-0.3,0.9-14.8,9.1-15.8,9.3
		C194.3,425.4,189.7,422.1,189.7,422.1 M198.9,432.6c0.1-0.6-1.3-3.5-1.3-3.5s16.5-9,16.7-8.3c0.2,0.7,2.8,3.3,2.8,3.3
		S198.8,433.3,198.9,432.6 M172.9,407c0,0-10.6-18.5-11.5-21.6c-0.9-3.1-4.7-2.8-5.4-2.8c-0.7,0.1-13,7.3-13,7.3s-6.1,3.5-11.2,4.6
		c-5.1,1.2-2,5.4-2,5.4s11.1,14.9,12.9,18.7c1.8,3.8,5.1,9,5.1,9s8.6,1.2,16,2.3s6.7-2.8,6.7-2.8s2.6-13.8,2.7-15.1
		C173.1,410.7,172.9,407,172.9,407 M153.1,389.7c0.3-0.6,3.8-2.3,3.8-2.3s4.4,9,4.8,9.7c0.4,0.7,4.9,9,4.9,9s0.7,1.1-1.9,1.2
		c-2.6,0.1-3.9-0.7-7.9-8.3C152.7,391.2,152.8,390.4,153.1,389.7 M148.2,392.1l9,16.6c0,0-1,2.3-1.9,2.6c-0.8,0.3-11.4-16-11.4-16.8
		C143.9,393.5,148.2,392.1,148.2,392.1 M148.1,418.1c0,0-7.8-10.8-8.4-12c-0.7-1.2-4.8-7.4-4.8-7.4s4-2,4.5-2
		c0.6-0.1,1.3,1.4,1.9,2.5c0.6,1.1,9.1,14.9,9.1,14.9L148.1,418.1z M166.9,417.3c0,0-3.8,2.7-5,3.5s-3.9,3.1-3.9,3.1l-7.6-0.2
		c0,0,1.6-5.2,4.1-6.6c2.5-1.3,5.1-3.4,6.3-4c1.2-0.6,2.9-1.5,5-1.5c2.1,0,2.7,0.4,2.7,0.4L166.9,417.3L166.9,417.3z M163.8,434.6
		c-0.9-0.7-7.2-2.3-9.3-2.3c-2.1,0.1-7.8-2-9.1-3c-1.2-1.1-6.7-1.6-6.6-1.5c0.1,0.1-3.7,0.9-5.3,2.5c-1.5,1.6-22.3,10-23.3,10.9
		c-1,0.9,0.2,3.2,1.5,3.9c1.3,0.7,6.1,9.3,8.5,13c2.5,3.9,6.3,12.3,7.8,13.4c1.5,1,4.7-1.2,6.4-2c1.7-0.8,24.1-13.2,24.4-13.7
		c0.3-0.5,1.9-2.5,3.9-10.3C164.8,437.8,164.7,435.3,163.8,434.6 M118.6,445.9c-0.2-0.4-1.6-2.5-1.4-2.8c0.2-0.3,10.3-4.2,11.3-5
		c0.9-0.8,7.5-3.3,8.5-4.2c1-0.9,1.4-0.7,1.4-0.7s0.5,6.5,0.3,6.8c-0.2,0.2-9.2,4.9-10.9,5.5c-1.8,0.6-6.9,3.3-7.2,3.3
		C120.3,448.9,118.8,446.3,118.6,445.9 M122.9,452.8c-0.1-0.8,5.9-3,7.8-3.9s10.6-4.7,10.6-4.7s3.5,2.3,3.5,2.7
		c0,0.4-0.4,0.6-0.9,0.7c-0.5,0.1-8.3,3.4-10.1,4.5c-1.9,1.1-8,4.7-8,4.7S122.9,453.6,122.9,452.8 M141.6,460
		c-1.3,0.6-11.3,6.7-11.3,6.7s-3.6-5.9-2.4-6.7c1.2-0.7,20.1-9.2,21.1-9.4s2.7,3.3,3,3.2C152.3,453.7,142.9,459.4,141.6,460
		 M158.2,444.4c-1.1,0-1.3,6.8-2.3,6.5c-1-0.3-2.6-3.9-2.7-4.4c-0.1-0.5-1.7-2.2-3.3-2.1c-1.6,0.1-4-3.3-3.7-3.9
		c0.3-0.6-2.2-1.8-2.9-2.7c-0.7-0.9-0.3-4.2-0.5-4.4c-0.1-0.2,8.2,3.3,8.5,3.3c0.3,0.1,1.6-0.1,2,2.9
		C153.8,442.6,159.3,444.4,158.2,444.4 M208.1,466.3c-0.2-0.2-7.6-7.6-10-12.6c-2.4-5.1-8.1-10-8.5-10.2c-0.4-0.2-4.7-1.4-6.3-1.4
		c-1.6,0-6.3-1.4-9-2.4c-2.7-1-2.3-1.6-4.7-1s-2.6,4.2-2.6,4.2c-0.5,1.3,0.2,4.6-2,8.3c-4.6,7.7-4.7,10.3-1.2,14.5
		c3.5,4.2,8.6,15.3,9.7,18.5c1.1,3.2,2.8,3.8,4.3,3.8s8.7-4.4,13.2-6.7s9.5-2.7,15-4.9c5.5-2.2,4.7-2.5,5.3-4.6
		C211.7,469.7,208.3,466.5,208.1,466.3 M167.1,458.7c-0.8-0.1,1.6-4.3,2-5.2c0.5-0.9,1.3-3.2,2.3-3.9c1-0.8,4.1-2.1,4.5-2.5
		c0.4-0.4,1.6-1.2,1.6-1.2s5.2,0.7,5.7,1.2c0.5,0.5-1.9-0.2-3.2,1.7c-1.3,1.9-4.5,4.6-6.3,5.2c-1.8,0.7-2.2,3.1-3,3.6
		C169.9,458.1,168,458.8,167.1,458.7 M179.4,482c-0.9,0.3-1,0.9-1,0.9s-3.2-9.5-4.9-11.2c-1.8-1.7-5.5-8.5-5.5-8.5s3.8-0.5,4-1
		c0.2-0.6,2.5,3.9,2.8,4.7s6.8,10.2,6.8,12.2C181.6,481.2,180.3,481.7,179.4,482 M190.8,475.6c-0.5,0.5-3.9,2.4-4.1,2.5
		c-0.2,0.1-4.6-7.9-4.9-8.6c-0.3-0.7-5.7-8.8-5.7-10.6c0-1.9,4.5-3.6,4.5-3.6s3.1,6.9,3.8,8.6c0.7,1.7,4,5.9,4.7,6.9
		C189.8,471.8,191.3,475.1,190.8,475.6 M201,472.5c-2.4,0.6-4.7,1.7-4.7,1.7s-5.4-9.5-6.5-10.8c-1.1-1.3-6.7-10.1-6.9-10.2
		c-0.2-0.1,5.4-4,5.4-4s4.5,3.8,6.4,7.7c1.9,3.8,5.7,7.8,6.2,8.3s4.8,5.7,4.8,5.7S203.4,472,201,472.5"/>
</g>
</svg>
