<?xml version="1.0" encoding="utf-8"?>
<!-- Generator: Adobe Illustrator 27.0.1, SVG Export Plug-In . SVG Version: 6.00 Build 0)  -->
<svg version="1.1" id="Layer_1" xmlns="http://www.w3.org/2000/svg" xmlns:xlink="http://www.w3.org/1999/xlink" x="0px" y="0px"
	 viewBox="0 0 200.3 82.5" style="enable-background:new 0 0 200.3 82.5;" xml:space="preserve">
<style type="text/css">
	.st0{fill:#FFFFFF;}
</style>
<g>
	<path class="st0" d="M4.7,4.7h190.9v73.2H4.7V4.7z M0,82.5h200.3V0H0V82.5z"/>
	<polyline class="st0" points="46.9,21.6 48.8,21.6 64.2,47.4 79.7,21.6 81.5,21.6 84.4,57.7 78.1,57.7 76.4,37 64.7,56.9 
		63.4,56.9 51.6,37 50,57.7 44,57.7 	"/>
	<path class="st0" d="M122.5,57.7h-7.3l-8.5-11.8c-1.8,0.2-3.8,0.3-5.9,0.3h-2v11.5h-6.2V22.1h6.9c7.2,0,12.5,1,15.9,2.9
		c3.3,1.9,5,5,5,9.2c0,5-2.5,8.4-7.5,10.3 M100.7,41c2.5,0,4.6-0.1,6.3-0.4c1.7-0.3,3.1-0.7,4.2-1.2c1.1-0.5,1.8-1.2,2.3-2.1
		c0.5-0.8,0.7-1.8,0.7-2.9s-0.2-2.1-0.7-2.9c-0.5-0.8-1.2-1.5-2.3-2c-1.1-0.5-2.5-0.9-4.2-1.2c-1.7-0.3-3.8-0.4-6.3-0.4h-1.9V41
		L100.7,41L100.7,41z"/>
	<path class="st0" d="M138.9,57.2c-2.3-0.7-4.4-1.9-6.1-3.4c-1.8-1.5-3.2-3.4-4.2-5.7c-1-2.3-1.6-5-1.6-8.2c0-3.1,0.5-5.8,1.6-8.1
		c1.1-2.3,2.4-4.2,4.2-5.8c1.8-1.5,3.8-2.7,6.1-3.5c2.3-0.8,4.7-1.1,7.2-1.1c1.3,0,2.6,0.1,3.8,0.3c1.2,0.2,2.3,0.4,3.2,0.6
		c1,0.2,1.8,0.5,2.5,0.7c0.7,0.2,1.2,0.5,1.5,0.6l-1.8,5.6c-1.7-0.8-3.3-1.3-4.9-1.5c-1.6-0.2-2.9-0.4-3.9-0.4c-2,0-3.8,0.3-5.3,0.9
		c-1.6,0.6-2.9,1.4-4,2.5c-1.1,1.1-2,2.4-2.6,4c-0.6,1.6-0.9,3.3-0.9,5.3c0,2,0.3,3.8,0.9,5.4c0.6,1.6,1.5,2.9,2.6,4
		c1.1,1.1,2.5,1.9,4.1,2.4c1.6,0.6,3.3,0.8,5.2,0.8c1,0,1.9-0.1,2.9-0.3c0.9-0.2,1.8-0.4,2.5-0.6c0.8-0.2,1.5-0.4,2-0.7
		c0.6-0.2,1.1-0.4,1.4-0.5l2,5.3c-1.1,0.6-2.6,1.1-4.5,1.7c-1.9,0.5-4,0.8-6.3,0.8C143.6,58.3,141.2,57.9,138.9,57.2"/>
</g>
</svg>
