<?xml version="1.0" encoding="utf-8"?>
<!-- Generator: Adobe Illustrator 27.0.1, SVG Export Plug-In . SVG Version: 6.00 Build 0)  -->
<svg version="1.1"
	 id="Layer_1" xmlns:inkscape="http://www.inkscape.org/namespaces/inkscape" xmlns:sodipodi="http://sodipodi.sourceforge.net/DTD/sodipodi-0.dtd" xmlns:svg="http://www.w3.org/2000/svg" xmlns:cc="http://creativecommons.org/ns#" xmlns:dc="http://purl.org/dc/elements/1.1/" xmlns:rdf="http://www.w3.org/1999/02/22-rdf-syntax-ns#" sodipodi:docname="MTV_Entertainment_Studios_(Print).svg"
	 xmlns="http://www.w3.org/2000/svg" xmlns:xlink="http://www.w3.org/1999/xlink" x="0px" y="0px" viewBox="0 0 1000 534.4"
	 style="enable-background:new 0 0 1000 534.4;" xml:space="preserve">
<style type="text/css">
	.st0{fill:#FFFFFF;}
</style>
<sodipodi:namedview  bordercolor="#666666" borderopacity="1" gridtolerance="10" guidetolerance="10" id="namedview102" inkscape:current-layer="Layer_1" inkscape:cx="467" inkscape:cy="262" inkscape:deskcolor="#d1d1d1" inkscape:pagecheckerboard="0" inkscape:pageopacity="0" inkscape:pageshadow="2" inkscape:showpageshadow="2" inkscape:window-height="705" inkscape:window-maximized="1" inkscape:window-width="1366" inkscape:window-x="-8" inkscape:window-y="-8" inkscape:zoom="0.5" objecttolerance="10" pagecolor="#ffffff" showgrid="false">
	</sodipodi:namedview>
<g id="g1049" transform="translate(-582,-118.54436)">
	<path id="path1044" class="st0" d="M1120.2,412.6c-7.8,0-14.2,6.5-14.2,14.6c0,8.1,6.4,14.6,14.2,14.6s14.2-6.5,14.2-14.6
		C1134.4,419.2,1128.1,412.6,1120.2,412.6z M582,413.4v145.4h74.2v-25.2h-48V491h38.8v-24.7h-38.8v-27.8h46.5v-25.2H582z
		 M762.7,427.8v27.1H750v22.9h12.7V523c0,24.5,13.8,35.7,35.3,35.7h5.8v-23.2h-3.2c-3.6,0-14-0.1-14-15.6v-42.3h17.2v-22.9h-17.2
		v-27.1L762.7,427.8z M970.9,427.8v27.1h-12.7v22.9h12.7V523c0,24.5,13.8,35.7,35.3,35.7h5.8v-23.2h-4.1c-3.6,0-13.1-0.7-13.1-15.6
		v-42.3h17.2v-22.9h-17.2v-27.1L970.9,427.8z M1540.9,427.8v27.1h-12.7v22.9h12.7V523c0,24.5,13.8,35.7,35.3,35.7h5.8v-23.2h-4.1
		c-3.6,0-13.1-0.7-13.1-15.6v-42.3h17.2v-22.9h-17.2v-27.1H1540.9z M947.4,450.5c-14.1,0-19.2,8.1-23.5,17.3v-12.9h-24.5v103.9h24.5
		v-54.3c0-17.3,7.3-29.2,23.5-27.7V450.5z M849.3,450.8c-23.3,0-36.4,23.5-36.4,55.9c0,42.9,20.7,55.9,36.6,55.9
		c15.9,0,29.1-7.7,34.2-31.8l-22.9-6.1c-2.1,13.3-6.4,14.6-11.3,14.6c-5.5,0-10.1-8.7-11.4-23.9h47.6c0.2-2.8,0.3-5.6,0.3-8.7
		C885.8,475.8,875.9,450.8,849.3,450.8L849.3,450.8z M1058.7,450.8c-15.9,0-29.5,8.8-34.2,31.4l23.2,5.5c1.9-12,6.1-13.6,11-13.6
		c5,0,8.3,3.9,8.9,18.8c0,0-7.8-0.6-17.1,1.7c-13.1,3.3-29.4,12.4-29.4,36.9c0,17.8,8.5,30.5,25.7,30.5c14,0,19.3-11.1,20.9-15.6
		v12.4h24.4v-65.4C1092.1,456,1072.2,450.8,1058.7,450.8z M1397.8,450.8c-23.3,0-36.4,23.5-36.4,55.9c0,42.9,20.7,55.9,36.6,55.9
		c15.9,0,29.1-7.7,34.2-31.8l-22.9-6.1c-2.1,13.3-6.4,14.6-11.3,14.6c-5.5,0-10.1-8.7-11.4-23.9h47.6c0.2-2.8,0.3-5.6,0.3-8.7
		C1434.4,475.8,1424.4,450.8,1397.8,450.8L1397.8,450.8z M716.1,451c-12.6,0-17.9,6.6-22.2,15.8v-12h-23.9v103.9h23.9v-58.5
		c0-11,2.5-24.4,11.2-24.4c9,0,9.3,11.1,9.3,17.9v65h24.7v-70.1C739.1,477,737,451,716.1,451z M1195.5,451
		c-12.6,0-17.9,6.6-22.2,15.8v-12h-23.9v103.9h23.9v-58.5c0-11,2.5-24.4,11.2-24.4c9,0,9.3,11.1,9.3,17.9v65h24.7v-70.1
		C1218.5,477,1216.4,451,1195.5,451L1195.5,451z M1279.9,451c-12.6,0-17.9,6.6-22.2,15.8v-12h-23.9v103.9h23.9v-58.5
		c0-11,2.5-24.4,11.2-24.4c9.3,0,9.3,12.6,9.3,17.9v65h24.7v-58.5c0-11,2.5-24.4,11.2-24.4c9.1,0,9.3,11.9,9.3,17.9v65h24.7v-70.1
		c0-13.3-2.9-37.7-23.9-37.7c-16.8,0-21.9,11.2-23.8,18.1C1297.8,459.6,1292,451,1279.9,451L1279.9,451z M1494.6,451
		c-12.6,0-17.9,6.6-22.2,15.8v-12h-23.9v103.9h23.9v-58.5c0-11,2.5-24.4,11.2-24.4c10.2,0,9.3,12.6,9.3,17.9v65h24.7v-70.1
		C1517.6,477,1515.5,451,1494.6,451L1494.6,451z M1108.2,454.9v103.9h23.9V454.9H1108.2z M849.4,474.1c7.5,0,10.6,9.6,11.6,22.3h-23
		C839.3,480.2,843.9,474.1,849.4,474.1z M1397.9,474.1c7.5,0,10.6,9.6,11.6,22.3h-23C1387.9,480.2,1392.5,474.1,1397.9,474.1z
		 M1067.7,510.4v8.5c0,7.2-3,21-12,21c-7.8,0-9.4-6.9-9.4-12.3C1046.2,512.4,1060.5,510.4,1067.7,510.4L1067.7,510.4z"/>
	<path id="path1041" class="st0" d="M1278.7,633.3l7.7-1.1c0,0,0.7,12.4,8.9,12.4c4.6,0,7-3.8,7-8.4c0-4.6-3.2-8.7-9.5-12.3
		c-6.3-3.6-12.3-9.5-12.3-17.3c0-9.1,5.4-16.4,14.6-16.4c14.5,0,14.5,16.9,14.5,16.9l-8.2,1.1c0,0-0.3-10.1-7-10.1
		c-3.9,0-5.8,3.8-5.8,7.1c0,3.2,1.5,7.3,9.1,11.7c7.5,4.3,12.9,8.1,12.9,18s-3.6,17.6-15.8,17.6
		C1279.2,652.5,1278.7,633.3,1278.7,633.3L1278.7,633.3z M922.5,592.1v7.3h11.7v52h8.4v-52h11.7v-7.3H922.5z M1072.1,592.1h13.6
		c9.9,0,20.3,4.1,20.3,28.4s-10.3,30.9-20.8,30.9h-13.2V592.1z M1080,599.7v43.4h5c5.3,0,12.3-4,12.3-22.5s-7-20.9-11.3-20.9H1080z
		 M1149.5,592.1h8.4v59.3h-8.4V592.1z M996.3,592.1h8.6v39.6c0,6,2.2,12.3,7.8,12.3c5.5,0,7.9-6.6,7.9-12.3v-39.6h8.6v38.3
		c0,11.9-4,22.6-16.5,22.6c-12.5,0-16.3-11.1-16.3-22.3L996.3,592.1z M1219.3,590.1c-15.5,0-18.7,19.2-18.7,31.4s3.2,31.1,18.7,31.1
		c15.5,0,18.7-18.9,18.7-31.1C1238,609.3,1234.8,590.1,1219.3,590.1z M1219.3,599.2c8.2,0,9.5,14.5,9.5,22.4c0,7.9-1.4,22-9.5,22
		c-8.1,0-9.5-14.1-9.5-22C1209.7,613.7,1211.1,599.2,1219.3,599.2z M851.7,633.3l7.7-1.1c0,0,0.7,12.4,8.9,12.4c4.6,0,7-3.8,7-8.4
		c0-4.6-3.2-8.7-9.5-12.3s-12.3-9.5-12.3-17.3c0-9.1,5.4-16.4,14.6-16.4c14.5,0,14.5,16.9,14.5,16.9l-8.2,1.1c0,0-0.3-10.1-7-10.1
		c-3.9,0-5.8,3.8-5.8,7.1c0,3.2,1.5,7.3,9.1,11.7c7.5,4.3,12.9,8.1,12.9,18s-3.6,17.6-15.8,17.6
		C852.2,652.5,851.7,633.3,851.7,633.3L851.7,633.3z"/>
	
		<path id="path1038" inkscape:connector-curvature="0" sodipodi:nodetypes="cccccccccccccccccccccccccccccccccccccccccccc" class="st0" d="
		M870.4,118.5v276.9h159.8v-94.9l51.7,51.7l51.7-51.7v94.9h21.9c0.4-13.7,0.2-32.8,0.2-49.4c0-30.8,3.6-47.3,1.9-86
		c-0.5-12.2-7.9-12.1-15.1-7.5c-12.5,8-26.5,18.4-37.7,26.6c-10,7.4-19.4,6.7-24.5-0.1c-6.3-8.3-3.4-16.2,2.7-19.9
		c5.6-3.4,13-3.8,20.2-8.1l44.4-26.4c2.7-1.6,3-4.7,3-7c0-7.1,1-10.5,5-13.1c4.5-2.9,16.1-2.7,20.8,0.6c0,0,14.3-7.3,24.8-14.9
		c3.7-2.7,8-6.4,10.8-9.8c2.8-3.5,7-6.1,12.1-6.1c3.8,0,7.8,2.7,10.3,6.3c7.6,10.8-0.8,19.9-11.7,25.8
		c-24.5,13.2-37.2,22.2-37.2,22.2c-1.2,41.7,3.5,47.5,4.1,75.4c0.4,16.1-0.4,25.9-0.4,43.2c0,15,2.2,35.8,3.2,48.2h100.8v-134
		c-14.1,23.8-33,67.7-32.5,86.5c0.3,11.2-5.4,17.5-13.7,17.5c-12.7,0-17.5-6-23.7-19.2c-3.2-6.9-19.2-63.1-23.5-93.6
		c-2.2-15.2,2.4-22.3,13.3-24.6c14.1-3,18.8,8.2,18.8,16.5c0,8.7,2.1,34.7,4.7,44.3c1.4,5.2,7.7,7.1,10.8-1.1
		c13-34.8,23.3-54.2,45.8-83.4v-85.7h-157.6l-53.8,53.9l-53.8-53.9L870.4,118.5L870.4,118.5z"/>
</g>
</svg>
