<?xml version="1.0" encoding="utf-8"?>
<!-- Generator: Adobe Illustrator 27.0.1, SVG Export Plug-In . SVG Version: 6.00 Build 0)  -->
<svg version="1.1"
	 id="svg8" xmlns:dc="http://purl.org/dc/elements/1.1/" xmlns:cc="http://creativecommons.org/ns#" xmlns:rdf="http://www.w3.org/1999/02/22-rdf-syntax-ns#" xmlns:sodipodi="http://sodipodi.sourceforge.net/DTD/sodipodi-0.dtd" xmlns:inkscape="http://www.inkscape.org/namespaces/inkscape" xmlns:svg="http://www.w3.org/2000/svg"
	 xmlns="http://www.w3.org/2000/svg" xmlns:xlink="http://www.w3.org/1999/xlink" x="0px" y="0px" viewBox="0 0 707.9 334.8"
	 style="enable-background:new 0 0 707.9 334.8;" xml:space="preserve">
<style type="text/css">
	.st0{fill:#FFFFFF;}
	.st1{fill-rule:evenodd;clip-rule:evenodd;fill:#FFFFFF;}
</style>
<sodipodi:namedview  bordercolor="#666666" borderopacity="1.0" fit-margin-bottom="0" fit-margin-left="0" fit-margin-right="0" fit-margin-top="0" id="base" inkscape:current-layer="layer1" inkscape:cx="225" inkscape:cy="-7.8571429" inkscape:document-units="px" inkscape:pagecheckerboard="0" inkscape:pageopacity="0" inkscape:pageshadow="2" inkscape:window-height="1017" inkscape:window-maximized="1" inkscape:window-width="1920" inkscape:window-x="-8" inkscape:window-y="-8" inkscape:zoom="0.7" pagecolor="#ffffff" showgrid="false" units="px">
	</sodipodi:namedview>
<g id="layer1" transform="translate(-3.1212598,-120.33673)" inkscape:groupmode="layer" inkscape:label="Layer 1">
	<path id="path236" class="st0" d="M132.8,120.3l-7.5,7.6l11.5,11.6c1.5,1.5,1.5,4,0,5.5l-12,12c-1.5,1.5-4,1.5-5.5,0l-11.5-11.6
		c-0.3,0.4-4.1,4.2-7.8,7.8c5.2,5.2,20.7,20.7,20.7,20.7c-13.3,0-29.9,0-46.4,0l0,0H39l-0.2,12.8c0,2.2-1.7,3.9-3.9,3.9h-17
		c-2.2,0-3.9-1.7-3.9-3.9v-12.8c-6.1,0.2-10.9,5.1-11,11.3L3.2,445c0.6,5.6,5.1,9.9,10.9,10.1V442c0-2.2,1.7-3.9,3.9-3.9h17
		c2.2,0,3.9,1.7,3.9,3.9v13.1H145l121.5-0.1c6-0.3,10.8-5.2,10.8-11.3V330.5l21,21l7.7-7.6l-11.4-11.5c-1.6-1.6-1.6-4,0-5.6l12-12
		c1.5-1.5,4.1-1.8,5.3-0.2l9.2,9.4l2.3,2.2l7.8-7.6c-16.1-16.3-37.4-37.4-53.9-53.8l-0.1-0.1l0.1-52.9v-26.6
		c0-6.3-5.1-11.3-11.3-11.3h-31.4l0,0h-48.2L132.8,120.3z M167.7,172c1,0,2,0.4,2.8,1.1l0.8,0.8l12.9,12.9c0.4,0.4,0.7,0.8,0.8,1.3
		c0.2,0.5,0.3,1,0.3,1.5s-0.1,1-0.3,1.5s-0.5,0.9-0.8,1.3l-10,10l-2,2c-1.6,1.5-4.1,1.5-5.6,0l-2-2l-11.7-11.7
		c-0.4-0.4-0.7-0.8-0.9-1.3s-0.3-1-0.3-1.5s0.1-1,0.3-1.5s0.5-0.9,0.9-1.3l11.2-11.2l0.8-0.8C165.7,172.3,166.7,172,167.7,172
		L167.7,172z M215,219.2c1,0,2,0.4,2.8,1.1l13.7,13.7c1.5,1.5,1.5,4,0,5.6l-7.1,7.1l-4.9,4.9c-1.6,1.5-4,1.5-5.6,0l-13.7-13.7
		c-1.5-1.5-1.5-4.1,0-5.6l12-12C212.9,219.6,214,219.2,215,219.2z M17.9,233.9h17c2.2,0,3.9,1.7,3.9,4v19.3c0,2.2-1.7,3.9-3.9,3.9
		h-17c-2.2,0-3.9-1.8-3.9-3.9v-19.3C14,235.7,15.7,233.9,17.9,233.9z M262.1,266.5L262.1,266.5c1,0,2,0.4,2.7,1.2l13.7,13.7
		c1.6,1.5,1.6,4,0,5.5l-1.3,1.3l-10.7,10.7c-1.5,1.5-4,1.5-5.5,0l-13.7-13.7c-1.5-1.5-1.5-4,0-5.6l12-12
		C260.1,266.9,261.1,266.5,262.1,266.5L262.1,266.5L262.1,266.5z M17.9,300.8h17c2.2,0,3.9,1.7,3.9,3.9v19.4c0,2.2-1.7,4-3.9,4h-17
		c-2.2,0-3.9-1.8-3.9-4v-19.4C14,302.5,15.7,300.8,17.9,300.8z M17.9,367.6h17c2.2,0,3.9,1.8,3.9,3.9v19.4c0,2.2-1.7,3.9-3.9,3.9
		h-17c-2.2,0-3.9-1.7-3.9-3.9v-19.4C14,369.4,15.7,367.6,17.9,367.6z"/>
	<g id="g6922" transform="matrix(0.12051875,0,0,0.12051875,-23.435761,88.744368)">
		<g>
			<path id="path6801" class="st1" d="M4317.8,1028.6l110.1,379.8h36.1l106.4-328.4l106.4,328.4h36.1l110.1-379.8h-55.9l-73.1,293.8
				l-96.3-293.8H4587h-33.3H4543l-96.3,293.8l-73.1-293.8L4317.8,1028.6L4317.8,1028.6z"/>
			<path id="path6803" class="st1" d="M3320.9,1028.6h32.1l232.5,283.5v-283.5h48.2v372.3h-32.2l-232.4-283.5v283.5h-48.2
				L3320.9,1028.6L3320.9,1028.6z"/>
			<path id="path6805" class="st1" d="M3862.3,1028.6h48.2h223v44.4h-223v114.3h197v44.4h-197v124.7h223v44.4h-223h-48.2V1028.6z"/>
		</g>
		<g>
			<path id="path6807" class="st1" d="M3320.9,1675.3h48.2v327.9h223v44.4h-223h-48.2V1675.3z"/>
			<path id="path6809" class="st1" d="M3811.3,2047.6h48.2v-372.3h-48.2V2047.6z"/>
			<path id="path6813" class="st1" d="M4104.3,1675.3h32.2l232.4,283.5v-283.5h48.2v372.3H4385l-232.4-283.5v283.5h-48.2v-372.3
				H4104.3z"/>
			<path id="path6815" class="st1" d="M4645.8,1675.3h48.2h223v44.4h-223V1834h197v44.4h-197v124.7h223v44.4h-223h-48.2V1675.3z"/>
		</g>
		<g>
			<path id="path6811" class="st1" d="M5163.6,2322.1h24.1h24.1h15.6l129.5,268.3l129.5-268.3h15.6h24.1h24.1v372.3H5502v-299.8
				l-124,250.7h-42.1l-124-250.7v299.8h-48.2v-372.3H5163.6z"/>
			<path id="path6817" class="st1" d="M3841,2694.3h48.2V2322H3841V2694.3z"/>
			<path id="path6819" class="st1" d="M4133.1,2322.1h32.2l232.4,283.5v-283.5h48.2v372.3h-32.2l-232.4-283.5v283.5h-48.2V2322.1z"
				/>
			<path id="path6821" class="st1" d="M4673.6,2322.1h48.2h223v44.4h-223v114.3h197v44.4h-197v124.7h223v44.4h-223h-48.2V2322.1z"/>
			<path id="path6823" class="st1" d="M5919.9,2376.4l-75.3,189.4h150.7L5919.9,2376.4z M5898.8,2315.5h42l153.3,378.9h-47.9
				l-36.8-92.6h-179.3l-36.8,92.6h-47.9L5898.8,2315.5z"/>
			<path id="path6825" class="st1" d="M3502.5,2314.5c24.6,0,62.5,7,104,19.9v43.1c-41.1-11-78.4-17.1-100.9-17.2
				c-75.4-0.3-135.6,34.6-135.6,146.9c0,112.3,60.2,146.6,135.6,146.9c22.5,0.1,59.8-5.5,100.9-16.1v43.4
				c-41.5,13.2-79.4,20.4-104,20.4c-86.2,0.2-181.6-36.6-181.6-193.7C3320.9,2351.2,3416.3,2314.7,3502.5,2314.5z"/>
		</g>
	</g>
</g>
</svg>
