<?xml version="1.0" encoding="utf-8"?>
<!-- Generator: Adobe Illustrator 27.0.1, SVG Export Plug-In . SVG Version: 6.00 Build 0)  -->
<svg version="1.1" id="Слой_1" xmlns="http://www.w3.org/2000/svg" xmlns:xlink="http://www.w3.org/1999/xlink" x="0px" y="0px"
	 viewBox="0 0 772.9 449.4" style="enable-background:new 0 0 772.9 449.4;" xml:space="preserve">
<style type="text/css">
	.st0{fill:#FFFFFF;}
</style>
<g>
	<path class="st0" d="M106.1,62.7C47.6,62.7,0,109.8,0,168.5C0,226.9,47.6,274,106.1,274c58.7,0,106.3-47.1,106.3-105.5
		C212.4,109.8,164.8,62.7,106.1,62.7z M106.1,229.8c-32.5,0-59.2-28.8-59.2-61.4c0-32.8,26.7-61.6,59.2-61.6
		c32.8,0,59.5,28.8,59.5,61.6C165.6,201,138.9,229.8,106.1,229.8z"/>
	<path class="st0" d="M45.2,46.8c12.7,0,23.3-10.6,23.3-23.5C68.5,10.6,57.9,0,45.2,0c-13,0-23.5,10.6-23.5,23.3
		C21.7,36.2,32.3,46.8,45.2,46.8z"/>
	<path class="st0" d="M166.9,46.8c12.7,0,23.3-10.6,23.3-23.5c0-12.7-10.6-23.3-23.3-23.3c-13,0-23.5,10.6-23.5,23.3
		C143.4,36.2,153.9,46.8,166.9,46.8z"/>
	<path class="st0" d="M106.1,46.8c12.7,0,23.3-10.6,23.3-23.5c0-12.7-10.6-23.3-23.3-23.3c-13,0-23.5,10.6-23.5,23.3
		C82.5,36.2,93.1,46.8,106.1,46.8z"/>
	<polygon class="st0" points="574.8,66.4 523.2,66.4 462.1,151.3 462.1,3.4 415.3,3.4 415.3,270.3 462.1,270.3 462.1,185.4 
		527.9,270.3 583.2,270.3 502,167.2 	"/>
	<polygon class="st0" points="393.3,66.4 341.7,66.4 280.6,151.3 280.6,3.4 233.8,3.4 233.8,270.3 280.6,270.3 280.6,185.4 
		346.5,270.3 401.8,270.3 320.6,167.2 	"/>
	<path class="st0" d="M666.5,62.7c-58.5,0-106.1,47.1-106.1,105.8C560.4,227,608,274,666.5,274c58.7,0,106.3-47.1,106.3-105.5
		C772.9,109.8,725.2,62.7,666.5,62.7z M666.3,229.8c-32.5,0-59.2-28.8-59.2-61.4c0-32.8,26.7-61.6,59.2-61.6
		c32.8,0,59.5,28.8,59.5,61.6C725.8,201,699.1,229.8,666.3,229.8z"/>
</g>
<g>
	<path class="st0" d="M695.2,439.8c-7.5-6.2-11.2-14.1-11.2-23.8c0-9,3.1-16.1,9.4-21.4c6.3-5.3,16.4-9.4,30.4-12.3
		c13.7-2.8,23-6.2,27.9-10.2s7.4-9.5,7.4-16.3c0-6.6-2.7-12.1-8.2-16.5s-12.6-6.7-21.4-6.7c-13.6,0-25.7,4.6-36.2,13.7l-5.7-7.1
		c6.3-5.1,12.7-8.8,19.1-11.2c6.4-2.4,13.9-3.5,22.4-3.5c11.2,0,20.5,3.1,27.9,9.2s11.1,13.7,11.1,22.7c0,9.3-3.2,16.7-9.5,22
		s-16.8,9.5-31.3,12.5c-13.3,2.7-22.3,5.9-27.1,9.9c-4.8,3.9-7.2,9.2-7.2,15.9c0,7.2,2.9,13,8.6,17.6c5.7,4.6,13.1,6.8,22.1,6.8
		c8.8,0,16.5-1.4,23.2-4.2c6.7-2.8,13.4-7.4,20.2-13.8l5.9,6.7c-14.4,12.9-30.7,19.4-48.8,19.4C712.3,449,702.7,446,695.2,439.8z"/>
	<path class="st0" d="M538,386.8c0-17.2,5.7-31.9,17-44.2c11.3-12.3,25.9-18.4,43.8-18.4c17.9,0,32.5,6.2,43.9,18.5
		s17.1,27,17.1,44.1c0,17.2-5.6,31.9-17,44.2c-11.3,12.3-25.9,18.4-43.8,18.4c-17.9,0-32.5-6.2-43.9-18.5
		C543.7,418.5,538,403.8,538,386.8z M650.4,386.8c0-15.3-4.9-28.3-14.6-38.7c-9.7-10.5-22-15.7-36.8-15.7s-27.1,5.3-36.9,15.9
		c-9.9,10.6-14.8,23.5-14.8,38.6c0,15.3,4.9,28.3,14.6,38.7c9.7,10.5,22,15.7,36.8,15.7s27.1-5.3,36.9-15.9
		C645.5,414.7,650.4,401.9,650.4,386.8z"/>
	<path class="st0" d="M497.1,447.3V326.2h9v121.1L497.1,447.3L497.1,447.3z"/>
	<path class="st0" d="M419.6,447.3c-18.8,0-34.2-5.8-46.3-17.3c-12.1-11.5-18.1-25.9-18.1-43.2c0-17.4,6-31.9,18-43.3
		c12-11.5,27.4-17.2,46.4-17.2h40.3v121.1h-40.3V447.3z M451,334.5h-31.3c-16.5,0-29.8,5-39.9,15s-15.1,22.4-15.1,37.2
		c0,15,5,27.4,15.1,37.4c10.1,9.9,23.4,14.9,39.9,14.9H451V334.5z"/>
	<path class="st0" d="M240.8,435.3c-9-9.3-13.5-22.4-13.5-39.4v-69.7h9V397c0,14.3,3.6,25.2,10.7,32.8c7.2,7.6,17,11.3,29.6,11.3
		c12.8,0,22.8-3.9,30.1-11.8c7.3-7.9,10.9-18.9,10.9-33.1v-69.9h9V397c0,16.6-4.6,29.5-13.7,38.6s-21.1,13.7-36,13.7
		C261.8,449.2,249.8,444.6,240.8,435.3z"/>
	<path class="st0" d="M150.7,447.3V334.5h-42.2v-8.3h93.4v8.3h-42.2v112.8H150.7z"/>
	<path class="st0" d="M11.2,439.8C3.7,433.6,0,425.7,0,416c0-9,3.1-16.1,9.4-21.4s16.4-9.4,30.4-12.3c13.7-2.8,23-6.2,27.9-10.2
		s7.4-9.5,7.4-16.3c0-6.6-2.7-12.1-8.2-16.5s-12.6-6.7-21.4-6.7c-13.6,0-25.7,4.6-36.2,13.7l-5.7-7.1c6.3-5.1,12.7-8.8,19.1-11.2
		s13.9-3.5,22.4-3.5c11.2,0,20.5,3.1,27.9,9.2s11.1,13.7,11.1,22.7c0,9.3-3.2,16.7-9.5,22s-16.8,9.5-31.3,12.5
		c-13.3,2.7-22.3,5.9-27.1,9.9s-7.2,9-7.2,15.7c0,7.2,2.9,13,8.6,17.6s13.1,6.8,22.1,6.8c8.8,0,16.5-1.4,23.2-4.2
		c6.7-2.8,13.4-7.4,20.2-13.8l5.9,6.7c-14.5,13-30.8,19.4-48.9,19.4C28.4,449,18.7,446,11.2,439.8z"/>
</g>
</svg>
