<?xml version="1.0" encoding="utf-8"?>
<!-- Generator: Adobe Illustrator 27.0.1, SVG Export Plug-In . SVG Version: 6.00 Build 0)  -->
<svg version="1.1"
	 id="svg2" xmlns:sodipodi="http://sodipodi.sourceforge.net/DTD/sodipodi-0.dtd" xmlns:inkscape="http://www.inkscape.org/namespaces/inkscape" xmlns:svg="http://www.w3.org/2000/svg" sodipodi:docname="Paramount_Pictures_2022.svg"
	 xmlns="http://www.w3.org/2000/svg" xmlns:xlink="http://www.w3.org/1999/xlink" x="0px" y="0px" viewBox="0 0 1000 806.2"
	 style="enable-background:new 0 0 1000 806.2;" xml:space="preserve">
<style type="text/css">
	.st0{fill:#FFFFFF;}
</style>
<sodipodi:namedview  bordercolor="#666666" borderopacity="1.0" id="namedview4" inkscape:current-layer="g8" inkscape:cx="457" inkscape:cy="420" inkscape:pagecheckerboard="0" inkscape:pageopacity="0.0" inkscape:pageshadow="2" inkscape:window-height="705" inkscape:window-maximized="1" inkscape:window-width="1366" inkscape:window-x="-8" inkscape:window-y="-8" inkscape:zoom="0.5" pagecolor="#ffffff" showgrid="false">
	</sodipodi:namedview>
<g id="g8" transform="matrix(1.3333333,0,0,-1.3333333,-487.57613,36.698792)" inkscape:groupmode="layer" inkscape:label="ONSCREEN FILMPASS MAY JUN 2022">
	<path id="path1414" class="st0" d="M715.9-489.7c1.3,3.2,0,6.7-2.9,7.8c-2.7,1.1-6.1-0.6-7.4-3.8c-1.1-3.2,0-6.7,2.9-7.8
		C711.5-494.6,714.8-492.9,715.9-489.7 M695.8-485c0,16.7-18.8,32.4-50.6,33.9c-28.9,1.4-77.8-13.7-77.8-53.4
		c0-19.6,17.9-26.3,30.2-26.3c12.3,0,23.5,8,23.5,15.9c0,8.2-4.7,8-6,8c-3.4,0-6.5-4.8-4.3-10.7c1.3-3.7-2.2-11.3-13.7-11.3
		c-8.1,0-19.3,6.5-19.3,24.4c0,17.8,20.2,50.6,67.2,50.6c16.8,0,36.5-9.1,36.5-31.1c0-12.9-12.8-31.3-32-31.3c0,0,4.7,25.3,17.3,41
		c1.1,1.3-0.5,2.5-2.2,1.3c-40.1-25.5-35-100.6-80.5-100.6c-4.5,0-21.5,1-21.5,14.2c0,0-0.9,3.1,3.1,5.6c2,1.2,3.3,3.4,3.3,5.7
		c0,3.9-3.3,7.1-7.2,7.1c-3.8,0-5.6-3.3-6.9-7.1c-1.1-3.2-1.6-27.9,29.1-28.2C607-577.4,640-561.6,648-520
		C648-520,695.8-515,695.8-485 M897.2-531.6c-1.3-5-3.8-7.7-6.5-8.9c-2.5-1.1-4,0.7-2.9,2.2c1.1,1.5,2.9,4.7,2.7,7
		c-0.2,2.9-2.9,4.6-2.9,4.6s-1.6,0.9-0.5,2.6l5.8,9.5c0,0,2,3.8,2.7,0.8C896.6-517,898.8-526.6,897.2-531.6 M863.1-516.7
		c0.9,1.9,2.9,7.3,8.7,13c2,1.9,4,3.7,6.3,4.1c2.5,0.4,2.7-2.2,2.5-3.8c-0.5-1.6-1.4-4.5-3.6-7.1c-2-2.6-4.7-5.5-6.9-6.9
		c-2.3-1.3-4-2.2-5.8-2.2C862.7-519.6,862.2-518.7,863.1-516.7 M907.1-486.4c-4.5-1.3-8.1-11.2-10.5-15.7
		c-3.6-6.5-12.6-19.3-12.6-19.3s-10.5-17.8-20.2-16.6c-9.6,1.2-2.5,14.8-2.5,14.8c15.9,3.4,22.6,11.2,24.9,15.6
		c2.5,4.3,0.4,11-6.3,10.5c-0.7,0-1.6-0.1-2.5-0.2c-0.7-0.1-1.3-0.2-1.8-0.4c-1.4-0.3-2.7-0.8-4.3-1.3c-2-0.8-3.8-1.8-5.2-2.7
		c-0.7-0.4-1.3-0.8-2-1.3c-4.3-3-9.4-10.3-11.9-9.9c-2.7,0.5,0.5,5.5,2,8.9c1.3,3.4,1.6,5.4-1.3,5.5c-2.9,0-7.2-3.1-9.2-4.7
		l-4.5-4.1l4,7h-11.2c-9.9-23.7-17.2-29.8-17.2-29.8s-5.6-6-8.1-5.6c-2.7,0.4-0.5,5.6-0.5,5.6l13.2,29.8h-10.8l-9.4-19.8
		c0,0-7.4-15.7-14.1-15.6c-3.1,0-0.2,6.7-0.2,6.7l13,29.1h-10.7c0,0-9.4-19.4-12.6-24.7c-3.1-5.4-10.7-11.9-13.7-11.1
		c-1.1,0.3-1.8,1-1.8,1.7c-0.4,1,0.2,2.3,0.2,2.3l12.8,28.5h8.3l1.6,3.5l-8.3-0.1l7.9,17.8h-11l-8.3-17.8h-5.6l-1.6-3.3h5.6
		l-6.5-14.5c-1.8-3.6-15.9-22.8-25.3-21.2c-9.4,1.5-7.4,9.5-7,13.7c0.9,5.4,7,15.8,8.5,18.1c1.3,2.2,9.6,11.7,13.9,8.2
		c3.6-3,0-7.9,0-7.9s-6.7-4.4-4.3-9c2.5-5,8.3-0.9,9.6,1.3c4.7,6.9,4.5,21.5-11,18.5c-17.7-3.4-26.2-23.4-26.2-23.4
		s-9.4-17.1-13.2-17.2c-4.2-0.4-2.2,4.7-2.2,4.7l13.9,32.7h-10.3c0,0-3.4-7.2-9.4-20.6c-6-13.4-17.5-19.8-17.5-19.8
		c-0.7-3,2.7-1.6,2.7-1.6s4.9,2.8,9.2,7.2c0,0,0.5,0.6,0.5,0.3c0,0-1.4-9.5,6.9-9.6c0.7,0,1.3,0.1,2.2,0.2c0.9,0.1,2.5,0.7,4,1.7
		c0.5,0.2,0.7,0.4,1.1,0.6c4.5,2.8,7.8,8.2,8.5,9c1.1,1.5,0.5,2.1,2.7-2.5c2.2-5.2,6.7-8.9,14.8-9c8.1-0.1,15.5,5.7,18.4,8l2.2,1.9
		c0-10.5,8.5-10.1,8.5-10.1c6.3-0.1,15.2,9,16.8,10.5c0,0,0,0.1,0.2,0.2v0c0,0-1.8-8.8,4-10.2c4.7-1.1,13.4,4.9,17.9,10.1
		c0,0,0,0.2,0.2,0.2v-0.1c0,0-2.2-5.6,1.4-9.1c3.8-3.8,13.4,2.1,20.8,10c0,0,0.2,0.2,0.2-0.1l-4.5-10.4h11l9.6,21.4
		c0,0,2,5.9,4.9,8.2c3.3,2.6,1.1,0.8,2.9-2.4c3.6-5.8,9.9-1.8,9.9-1.8c-7-17.2-2.5-23.2,5.6-25.7c0,0,9.2-3.7,22.2,9.3
		c0,0-1.1-4.1,1.6-6.8c2.5-2,7.4-4.3,13.7-2.2c8.1,2.6,12.1,12.3,13,18.8c0.7,6.4-2.5,14.9-2.5,14.9s-4.9,13.1-0.2,16
		c5.6,3.5,5.8,5,4.7,6.3C908.9-486.1,907.5-486.3,907.1-486.4 M579.9-414.3c1.8,2,5.4,5.6,6.7,7.3c2,3.2,4.3,5.6,5.1,6.3
		c4.9,3.9,7.6,4.2,9.2,6.5c0.7,1.1,10.3,15.5,13.7,21.4c3.4,5.5,11.2,16.3,9.2,18c-1.1,0.9-15.2-13.5-24.7-23.6
		c-3.4-3.5-5.4-6.8-6.7-8.4c0,0-4-6.8-6.3-9.6c-2.2-2.8-7.6-10.9-10.1-14.4c-0.7-1.2-2.9-6.3-7.2-11.5c-2-2.7-4.3-6.1-8.3-11.3
		c-5.6-7.1-9.6-12.9-8.7-13.6c0.4-0.4,8.7,9.3,17.2,19.8C572.7-423.1,576.8-418.6,579.9-414.3 M803.8-360.4
		c-2.9,7.3-17.3,33.4-18.8,36.1c-0.9,1.5-3.6,6-7.2,11.4c-3.1,5-5.8,10.5-7.4,12.9c-2.9,4.7-8.5,15.3-11.4,19.6
		c-3.1,4.4-6.9,14-8.5,12.4c-1.6-1.5,4.5-15.9,7.2-25.1s0.7-12.9-0.9-15.6c-1.6-2.6-1.6-4.3,0-8.9c1.3-4.2,6.5-28.4,8.1-33.4
		s3.1-5.3,4-7.3c2.9-7.5,7.4-7.9,9.6-8.5c6.1-1.9,6.7-10.2,10.8-17.7c3.6-7,7.2-13.3,10.3-20.9c3.4-7.6,20.2-49.1,23.1-55.4
		c0.9-2.3,9-2.3,8.1,0c-2,4.6-6.7,16-9.4,27.4c-1.8,7.4,5.2,2.2,0.7,14c-2,5.4-6.1,10.9-8.1,13c-2.3,2.2-4.5,11.6-6.3,15.8
		c-1.8,4.1-0.9,4.3-4.5,14.2C800.4-369.1,808-371.5,803.8-360.4 M899.2-428.3c-1.6,4.1-8.3,14.4-10.5,17.7c-2,3.3-5.6,10.5-9.6,15.1
		c-3.6,4-0.7,5.2-4.3,8.7c-2.2,2.1-9.2,8.3-10.7,9.5c-1.6,1.3-7.2,6.4-10.6,9.2c-3.1,2.8-11,8.1-10.7,11.6c0.2,3.5-1.6,10.2-4,12.5
		c-2,1.6-7.4,10.5-13.9,15.7c-3.1,2.7-10.1,9.8-15.2,15.9c-4.9,5.9-8.7,11.2-9.9,10.5c-1.6-1.1,5.8-11.4,6.5-12.7
		c0.9-1.1,9.4-15.9,10.3-19.8c0.9-3.9,16.8-30.8,20.2-39.1c2-4.9,13-11.4,17.5-19c4.2-7,5.4-5.6,7.2-5.7c4-0.1,12.8-9.7,14.6-12.3
		c1.8-2.7,16.1-16.9,19.7-20.4c1.6-1.5,13-19.9,14.6-18.6c1.5,1.3-4.5,10.2-5.4,12.2C904.2-435.4,900.8-432.5,899.2-428.3
		 M914.7-405.1c-0.9,1.6-7.8,11.6-10.3,14.9c-4.5,5.6-0.5,7.8-2.7,11.2c-1.1,1.5-6.7,8.3-13.2,15.1c-3.3,3.3-7.2,6.6-10.3,9.5
		c-5.4,4.6-9.2,8.1-9.9,7.5c-0.9-0.9,2.2-4.6,3.6-6.3c1.1-1.6,3.4-4.6,6-7.8c4.5-5.3,0.2-9.3,4.5-13.6c0.9-0.7,12.5-13.8,15.5-16.2
		c4.2-3.8,19.5-22,20.6-23c1.8-1.7,4.9-5.3,5.4-4.6c0.7,0.7-0.9,2.6-1.8,4.1C921.2-412.8,915.8-406.8,914.7-405.1 M637.5-396.9
		c-1.6-3.7-1.3-8.5-1.8-10.1c-0.7-1.5-7.8-16.9-9.6-20.3c-1.3-2.1-0.9-3-1.3-4.2c-0.7-1.5,0.2-1.9,1.3-0.8c1.3,1.4,9,13.1,11.4,14.5
		c2.2,1.5,4.5,3.6,4.7,8.7c0.5,5,3.8,6.4,6.3,9.4c2.5,2.9,5.8,6.9,7.6,11c1.8,4.3,3.8,1,7.8,7.4c3.8,6.4,12.8,22.1,14.8,25.1
		c1.8,3,0.4,7.4,0.2,11.1c0,1.9,0.2,6.6,1.3,11.7c1.1,4.5,3.1,9,4.3,12c0.9,1.9,3.6,7.5,3.4,9.7c0,0.4-0.9,1.1-1.8,0.3
		c-3.8-3.9-11.9-17.7-14.8-19.3c-6.9-3.4-9.9-11.4-11.9-14.5c-1.6-2.4-3.4-6.1-6.7-10.9c-2.9-4.1-6-10.2-7.2-12.4
		c-1.3-2.2-1.8-4.3,0.4-4.3c2.3,0,0.5-3.6-2.2-7.5C642.2-382.7,638.4-393.9,637.5-396.9 M426-445.3l-14.3,11.7l6.9,17l-15.7-10
		l-14.6,11.7l4.5-18l-15.5-9.5l18.2-1.2l4.7-17.8l7.2,17.4L426-445.3z M384.3-394.1l10.5,15.6l17.9-4.9L400.9-369l10.1,15.4
		l-17.3-6.8l-12.1,14.2l0.9-18.5l-16.8-6.4l17.7-4.6L384.3-394.1z M392.8-257l15.5,10.6l14.8-11.1l-5.6,17.6l15.2,10.5l-18.8,0.2
		l-5.6,17.7l-6.1-17.6l-18.1,0.4l14.6-10.8L392.8-257z M416.3-192.4l17.3,7.6l12.3-13.9l-2,18.3l16.8,7.5l-18.1,3.7l-2.5,18.6
		l-9.2-16.1l-17.7,3.8l12.3-13.5L416.3-192.4z M381.8-325.2l13.2,13.5l16.8-8.3l-8.7,16.2l12.8,13.2l-18.4-3.4l-9.2,16.3l-2.5-18.3
		l-17.9-3.1l16.4-7.9L381.8-325.2z M470.1-129.4l9.4-15.9l1.6,18.3l17.9,4.2l-17.2,7.2l1.3,18.6L471-111.2l-16.8,7.3l9.6-15.6
		l-12.1-13.9L470.1-129.4z M437.8-476.6l-13.4-12.7l-16.6,8.6l8.1-16.8l-13.4-12.3l18.1,2.3l7.9-16.7l3.8,18.4l18.4,2.2l-16.1,8.8
		L437.8-476.6z M655.9-177c-4.9,0-9.9-4.8-13.2-8.6c-3.8-4.7-10.3-13.8-11.2-20.3c-0.7-3.5,0.9-4.9,2.7-4.9c4.3,0,9.9,7.4,13.2,13.7
		c3.3,6.9,4.9,10.9,8.9,19.6C656.5-177,656.1-177,655.9-177 M1074.9-477.8l-16.6-8.6l-13.5,13l3.4-18.1l-16.1-8.7l18.4-2.4l3.6-18.4
		l8.1,16.7l17.9-2.6l-13.2,12.5L1074.9-477.8z M1094-411.7l-14.6-11.7l-15.7,10.2l6.7-17.2l-14.3-11.6l18.6,1.1l7.2-17.3l4.7,17.9
		l17.9,0.9l-15.2,9.8L1094-411.7z M963.1-179.7h-8.3c-4.7-10-8.5-18.4-12.8-27.9c-1.6-3.2-3.1-8.6-2.2-11.9c0.4-1.9,2.9-2.3,4.9-1.6
		c6.3,2.2,10.5,7.6,14.3,13.4c0,0.6,3.4,0.1,3.1-0.3c-4.3-8.6-13.7-17.3-22.6-17c-2.7,0-5.6,1.7-7.2,3.9c-0.9,1.2-1.3,2.2-1.8,3.7
		c-0.4,2.3-0.4,4.9,0,7.4c-4.9-3.7-9.6-8.2-15.7-9.4c-2.7-0.4-6.1,0.6-6.7,3.5c-0.5,2.3-0.2,4.7,0.7,6.7c3.8,8.4,7.2,16,11,24.8
		c0.2,0.4,0,1.9-0.5,2.1c-0.7,0.6-2.5,0.6-4-0.7c-7.6-5.7-11.4-13.1-14.8-20.7c-2.2-5.1-4.7-10.2-7.2-15.2h-11
		c1.3,3,3.1,7.2,4.5,10.4c0,0.2,0,0.2,0,0c-4.5-4.5-10.3-9.5-16.1-11.1c-2.2-0.6-4.5,0.2-5.6,2.3c-1.3,2.1-1.8,5.1-0.7,7.8
		c0,0.1,0,0.1-0.2,0c-4-4.1-8.1-7.8-13.4-9.6c-6.3-1.9-11.9,2.4-7.8,11.4c0.9,2.4,4,9.3,7.4,17.4c-2.7-1.2-6.3-1.2-8.1-0.6
		c-0.2,0-0.2,0-0.2-0.2c-2.5-11.4-9.2-21.9-19.7-26.9c-5.2-2.5-10.8-3.1-15.9,0.4c-2.5,1.6-4,5.6-4,9c-5.4-5.3-11.4-12.1-19.5-10.9
		c-1.4,0.3-2.2,1.4-2.9,2.5c-1.8,3.1-0.7,6.4,0.5,9.1c3.8,8.1,7.2,15.8,11,25c0.7,1.3-1.1,2.2-2.5,1.6c-3.8-1.9-6.3-3.7-8.3-7
		c-1.1-1.8-2.5-3.8-3.4-5.8c-3.6-7.8-7.4-16-10.5-23.9h-11.2c4.9,11.1,9.6,22,14.6,33.1c0.4,1,0.2,2.5-0.5,2.8
		c-0.9,0.5-2.7-0.3-3.8-1c-2.7-1.8-4.9-4.3-6.7-7.4c-2-3.1-3.6-6.1-4.9-9.5l-8.3-18.1h-10.8c0.9,2.4,2.9,7.1,4.3,9.5
		c0,0.2-0.2,0.4-0.2,0.2c-6.1-4.9-13.5-11.3-19.1-10.2c-1.8,0.2-3.6,1.9-4,3.5c-0.2,2-0.2,3.9,0.2,5.7c0,0.2-0.2,0.2-0.4,0
		c-4.7-4.5-9-8.2-14.8-9.6c-3.6-0.8-6.7,1.4-7.8,3.9c-1.6,2.8-1.8,7.4,0.7,12.5c1.3,3.3,2.9,6.7,4.9,9.6c-1.1-0.6-3.6-0.8-5.2-0.6
		c-1.6,0.2-2.9,1.3-3.6,2.3c-0.9,0.9-1.1,2.8-1.1,4c0.2,0.2-0.5,0.2-0.9,0c-3.4-2.6-4.7-5.7-6.3-9.2l-9.4-21.4h-11.2l4,9.1
		c0.2,0.1,0,0.4-0.2,0.1c-5.6-5.1-12.6-10.9-18.2-9.8c-1.6,0.3-3.4,1.9-3.6,3.4c-0.4,1.9-0.2,4,0,5.8h-0.4c-4.5-4.5-9-8.2-14.8-9.4
		c-3.4-1-6.3,1-7.6,3.9c-1.6,4.1-1.1,8.4,0.4,12.3c4.3,11.1,12.1,19,22.6,25.1c7,3.8,17.3,5,24.7,1.2c-4.9-11.5-8.7-19.7-13.5-30.6
		c-0.4-1-0.9-2.8,0.2-3.5c0.9-0.4,1.8-0.4,2.5,0c5.8,2.9,11.2,9.9,15.2,17.9l7.4,16.3h10.5l-2.9-6.2c-0.2-0.3-0.2-0.5,0-0.3
		c3.3,2.5,6.7,6.1,11,8.4c1.6,0.8,5.4,0.8,4.9-1.9c0-2.4-1.8-4.2-2.9-6.5c-0.7-1.5-1.3-3.3-1.1-4.3c0.4-1,1.8-1.7,3.4-0.4
		c1.6,1,2.9,1.9,4.3,3.1c2.7,2.5,6,4.9,9.6,6.8c7.4,3.5,17.5,5.6,24.9,0.9c-5.2-11.5-9-20.1-13.9-30.9c-0.9-1.9-0.2-2.4,0.2-2.9
		c0.7-0.4,2-0.6,3.6,0.3c4,1.7,11.2,9.7,14.1,15.9c2.7,5.8,5.1,11.5,8.1,18h10.8l-3.2-6.3l0.5-0.2c2.9,2.6,10.3,8.6,15.9,7.4
		c3.1-0.7,4.5-4.3,4.3-7c3.6,2.6,7.2,5.6,12.3,6.9c7.4,1.8,10.3-3.4,8.1-8.3c-2.9-6.8-8.7-20.1-11.9-26.9c-0.4-0.7-0.4-2.2,0-2.6
		c0.7-0.6,2.3,0,2.9,0.4c3.6,3.1,5.6,5.2,8.5,9.3c0.7,7.2,4.7,13.8,10.1,19.3c5.6,6.4,14.6,11.2,23.3,8.4c3.1-0.9,5.2-4.1,5.8-7.1
		c0.4-1.7,0.9-2.5,0.9-4.3c4.5-3.3,10.5,2.1,13,6.1c0.7,1.7,1.3,3.5,1.8,4.7c2.7-0.2,7.6,0,10.8,0l-13.4-30.6
		c-0.9-1.8-1.1-2.8-1.1-4.2c0-1.1,1.3-1.3,2.7-1.1c3.6,0.6,9.6,7.9,12.5,13.9c3.6,7.6,6.7,13.9,10.1,21.5h10.7
		c-4.2-10.2-9.2-21.1-12.5-29.1c-0.9-1.7-1.8-3.3-1.3-5.6c0.4-1,2-0.8,2.7-0.4c4.7,2.7,12.8,11.7,15.7,17.2
		c2.9,6.6,4.9,11.5,8.1,17.9h11.2l-2.7-6.4c4,3.3,8.5,6.8,13.9,7.7c2.5,0.3,5.6,0.2,7-2.3c1.6-2.8,0.7-5.9-0.7-8.6
		c-2.9-7-6.5-14.6-9.6-21.4c-0.4-1.7-0.7-3.2,0.5-3.9c1.8-1,9.4,3.7,13.4,12.3c3.4,7.6,5.6,12.1,8.7,19.4h-5.6l1.6,3.3h5.6l8.3,17.8
		h11l-7.9-17.8h8.3L963.1-179.7z M528.1-253.4c-30.5,0.2-30,25-28.9,28.2c1.1,3.7,3.1,7.1,6.9,7.1s6.9-3.1,6.9-7.1
		c0-2.3-1.1-4.6-3.1-5.7c-4-2.5-3.1-5.6-3.1-5.6c0-13.2,16.8-14.2,21.3-14.2c45.7,0,40.6,75.1,80.7,100.6c1.8,1.2,3.1,0,2-1.2
		c-12.6-15.8-17.3-41.1-17.3-41.1c19.5,0,32.3,18.4,32.3,31.3c0,22-19.7,31.1-36.8,31.1c-46.8,0-67.2-32.8-67.2-50.6
		c0-17.9,11.4-24.4,19.5-24.4c11.4,0,15,7.6,13.4,11.3c-2.2,5.8,0.9,10.7,4.5,10.7c1.4,0,6.1,0.2,6.1-8c0-7.9-11.2-15.9-23.8-15.9
		c-12.3,0-30.2,6.7-30.2,26.3c0,39.8,49.1,54.8,77.7,53.4c32.1-1.5,50.7-17.2,50.7-33.9c0-29.9-47.5-35.1-47.5-35.1
		C583.9-237.9,551-253.7,528.1-253.4 M741.7-35.8C569.4-35.9,430-175.5,430-347.7c0-46.9,12.3-99.7,34.5-143.1
		c40.1,37.4,145.4,156.2,157.5,170c18.4,21,26.2,7.6,36.1,19.4c5.4,6.5,8.5,8.9,10.8,10.2c3.8,2.2,8.1,7.6,10.3,9.2
		c2.2,1.6,6.9,8.1,10.8,11.3c3.8,3.2,11.4,8.1,19,14.6c7.4,6.5,20.4,21.6,34.3,21.6c16.8,0,23.7-11.3,25.1-12.7
		c1.3-1.3,11.6-10.4,13.2-12.1c2-2,13-10.7,18.8-10.7c6.1,0,10.3-6.5,13.5-9.7c7.2-6.5,36.3-37.2,45.9-43.7
		c4.3-2.9,8.3-2.4,11.6-4.9c3.2-2.4,4.7-4,6.7-4.6c1.8-0.5,8.1,1,15.2-8c3.4-2.3,4.3-2.7,4.3-2.7s10.1-9,13.7-15.4
		c3.1-5.5,77.1-103.7,103.5-138.9c24.7,44.5,38.8,95.7,38.8,150.2C1053.6-175.3,913.8-35.8,741.7-35.8 M729.2-177
		c-4.7,0-9.9-4.8-13.2-8.6c-3.8-4.7-10.1-13.8-11.2-20.3c-0.7-3.5,0.9-4.9,2.9-4.9c4,0,9.8,7.4,13.2,13.7c3.1,6.9,4.9,10.9,9,19.6
		C730.1-177,729.6-177,729.2-177 M831.3-177.8c-4.7,1.9-10.8-7.2-15.7-16.4c-4.9-9.2-8.5-20.7-4.2-22.8c4.5-2.3,10.3,7.7,15.2,16.9
		C831.6-190.8,835.4-179.3,831.3-177.8 M692.4-20.2l13.9,12.2l15.7-9.5l-7.4,17.2l13.9,12.5l-18.4-1.7l-6.9,16.7l-4.3-17.7
		l-18.2-1.8l15.9-9.7L692.4-20.2z M1035.7-177.5l-2.2-18.2l12.8,13.8l17-7.6l-9.2,16.2l12.3,13.1l-17.7-3.6l-9.2,16.2l-2.2-18.6
		l-18.1-3.6L1035.7-177.5z M516.3-81.9l6.5-17.5l4.7,17.8l18.6,0.6l-15.7,10.3l4.9,18.1L520.7-64l-15,10.1l6.3-17l-14.3-11.4
		L516.3-81.9z M1047.6-226.1l15.2-10.7l-5.8-17.6l15,11.1l15.2-10.7l-5.8,17.7l14.8,10.6l-18.2-0.1l-5.8,17.5l-5.8-17.7
		L1047.6-226.1z M1086.8-375.2l10.1-15.6l1.3,18.5l17.5,4.4l-16.8,6.6l1.1,18.5l-12.1-14.4l-17.3,7.1l9.9-15.5l-11.9-14.2
		L1086.8-375.2z M951-79.5l4.7-17.8l6.7,17.4l18.6-0.5l-14.3,11.6l6.5,16.9l-15.3-10l-14.3,11.5l4.7-18.2l-15.7-10.2L951-79.5z
		 M1092.6-274.3l-9.2-16.3L1065-287l12.8-13.4l-9-16l16.8,7.9l13-13.4l-2.3,18.5l16.6,7.6l-17.9,3.3L1092.6-274.3z M980.1-120.2
		l17.9-4.2l1.3-18.4l9.6,15.9l18.2-4.1l-11.9,14.1l9.6,15.3l-16.8-6.9l-11.9,14l1.1-18.7L980.1-120.2z M570.7-43.8l2.9-18.5
		l8.3,16.6l18.2-2.9l-13.2,13.1l8.1,16.8l-16.4-8.5l-12.8,12.9l2.9-17.9l-16.4-8.5L570.7-43.8z M755.8-17l15.9,9.3l13.7-12.2
		l-4,18.2l15.9,9.5l-18.4,1.9l-3.8,17.8l-7.2-16.7l-18.4,1.8l13.9-12.5L755.8-17z M896.3-44.2l8.1-16.5l3.1,18.3l18.4,3l-16.3,8.6
		l3.1,17.8l-13-12.7l-16.4,8.6l8.3-16.9l-13.5-13L896.3-44.2z M818.6-26.1l17.5,6.2l11-14.8l-0.5,18.7l17.5,6.4l-17.7,5.4l-0.2,18.1
		L835.6-1l-17.5,5.3l11.2-15L818.6-26.1z M631-35.5l11,14.7l17.5-6.3l-10.5,15.4l11.2,14.9L642.2-2l-10.1,15l-0.5-18.1L614-10.3
		l17.5-6.5L631-35.5z"/>
</g>
</svg>
