<?xml version="1.0" encoding="utf-8"?>
<!-- Generator: Adobe Illustrator 27.0.1, SVG Export Plug-In . SVG Version: 6.00 Build 0)  -->
<svg version="1.1" id="Слой_1" xmlns="http://www.w3.org/2000/svg" xmlns:xlink="http://www.w3.org/1999/xlink" x="0px" y="0px"
	 viewBox="0 0 869 344" style="enable-background:new 0 0 869 344;" xml:space="preserve">
<style type="text/css">
	.st0{fill:#FFFFFF;}
</style>
<g>
	<path class="st0" d="M855.1,3.5c-4.2-2.2-8.6-3.3-13.3-3.3c-9.3,0-18.7,0-28,0h-72H538h-86.8H194C140.4,0.2,86.8,0.1,33.2,0
		c-5.4,0-9.1,0.1-11,0.5C14,1.8,7.6,5.8,3.1,12.5C1.4,15,0.4,17.8,0,21.1c0,100.6,0,201.2,0,301.8c0.2,0.5,0.3,1.1,0.3,1.7
		c0,0.7,0.1,1.3,0.2,1.7c3.7,10.2,11.1,16.1,22.2,17.7c212.7,0,425.5,0,638.2,0c61.4,0,122.8,0,184.2,0c12.4-1.5,20.2-8.2,23.3-20.2
		c0.1-0.7,0.3-1.3,0.5-1.9c0-36.4,0-72.8,0-109.2c0-63.1,0-126.2,0-189.2C867.7,14.2,863.1,7.6,855.1,3.5z M850.2,332.9
		c-1.9,1-4.2,1.6-6.7,1.6c-27.6,0-88.8,0-183.5,0c-211.2,0-422.3-0.1-633.5,0c-3,0-5.4-0.4-7.3-1.2C12.1,330.1,8.5,324,8.5,315
		c0-94.6,0-189.2,0-283.8c0-4.9,0.5-8.4,1.4-10.7c2.2-5.4,6.5-8.9,12.9-10.4c1.5-0.4,4-0.5,7.5-0.3s6,0.2,7.5,0.2c59,0,118,0,177,0
		h252H550h195.2h58c12.4,0,24.7,0.1,37.1,0c3.9,0,6.9,0.4,9,1.3c4.6,1.9,7.7,5.1,9.2,9.7c0.7,2.2,1.1,6.4,1.1,12.6
		c0,88.6,0,177.1,0,265.7v15.5C860.5,323,857.3,329.1,850.2,332.9z"/>
	<path class="st0" d="M69,141c0,0.3,0,1.1,0.2,2.4c0.1,0.7,0.1,1.6-0.1,2.5c-0.2,1.3,0.4,2.1,1.7,2.3c2.9,0.4,5.8,0.5,8.6,0.1
		c1.8-0.2,2.8-1.3,2.8-3.2v-33.2c0-0.4,0.3-0.7,0.7-0.7c8,0,15.9,0,23.8,0c5.1,0,9.8-0.7,14.2-2c5.6-1.7,10-4.7,13.3-9.1
		c2.4-3.2,4-7,4.7-11.4c0.6-4,0.7-8.2,0-12.6c-0.9-6.5-3.8-11.7-8.7-15.6c-3.5-2.8-7.4-4.7-11.7-5.9c-2.7-0.7-7-1.1-12.8-1.1
		c-11.1,0-22.6,0-34.3,0c-1.5,0-2.2,0.8-2.2,2.2C69,73.2,68.9,90.8,69,108.5c0,0,0.1,5.4,0.3,16C69.3,129.9,69.3,135.5,69,141z
		 M82.9,64.6c4.8-0.2,9.6-0.2,14.4-0.2c0.1,0,1.9,0,5.4-0.1c4.4-0.1,8.5,0.4,12.3,1.3c1.7,0.4,3.3,1.3,5,2.8
		c3.6,3.2,5.7,6.9,6.2,11.3c0.5,4.2-0.3,8.2-2.4,11.9c-2.9,5.1-7.8,7.8-14.9,8c-8.3,0.3-17,0.3-25.9,0.2c-0.3,0-0.6-0.3-0.6-0.6
		L82.3,65C82.4,64.9,82.7,64.6,82.9,64.6z"/>
	<path class="st0" d="M498.7,53.6c-3.4-0.5-6.5-0.5-9.3-0.1c-0.7,0.1-1.2,0.5-1.5,1.1L459,109.5c-0.4,0.8-0.8,0.8-1.2,0l-28.9-55.2
		c-0.1-0.3-0.4-0.5-0.7-0.6c-1.9-0.5-3.9-0.7-5.9-0.5c-0.1,0-1,0-2.9,0c-2,0-3.1,1.2-3.1,3.7c0,29.3,0,58.5,0,87.8
		c0,2.4,1,3.7,3,3.8c2.6,0.1,5.1,0,7.6-0.2c1.4-0.2,2.1-0.9,2.1-2.3l-0.2-66c0-1.3,0.3-1.3,0.9-0.2c6.4,12.4,12.8,24.9,19.1,37.3
		c2,3.9,3.1,6.1,3.4,6.3c1.7,1.9,4.2,2.7,7.6,2.3c2.1-0.2,3.7-1,4.7-2.3c0,0,0.8-1.4,2.2-4.3c6.7-12.9,13.4-26,20.2-39.2
		c0.5-1.1,0.8-1,0.8,0.2c0,21,0,41.7,0,62.2c0,2.2,0,3.5,0.1,3.8c0.4,1.5,1.6,2.3,3.6,2.3c1.2,0,2.5,0.1,3.7,0.2
		c2.7,0.3,4.3-0.5,4.9-2.4c0.1-0.4,0.2-1.9,0.2-4.6c0.1-28.9,0-57.7-0.3-86.5C500,54.4,499.4,53.7,498.7,53.6z"/>
	<path class="st0" d="M780.3,108.4c-0.1-0.2,0-0.5,0.2-0.6c13.7-4.6,19.9-14.5,18.7-29.7c-0.4-5.5-2.1-10.1-5-14
		c-2.6-3.4-6.4-6.2-11.3-8.3c-4.7-2-9.4-2.9-14.1-2.8c-11.3,0.3-22.6,0.4-33.9,0.3c0,0-0.6,0-1.7-0.1c-1.9-0.2-2.8,0.7-2.8,2.7
		c-0.1,29.9-0.1,59.8-0.1,89.7c0,1.5,0.7,2.3,2.2,2.5c2.3,0.3,4.7,0.4,7.1,0.1c1.4-0.1,2.4-0.6,2.9-1.2c0.6-0.8,0.9-2,0.8-3.4
		c-0.2-5.7-0.1-16.7,0.2-33.1c0-0.3,0.2-0.5,0.5-0.5l22.4-0.1c0.5,0,0.9,0.3,1.2,0.7c6.4,11.6,13,22.9,19.7,34.1
		c0.9,1.5,1.9,2.6,3,3.1c1.4,0.7,2.9,0.9,4.5,0.8c0.2,0,1.3,0,3.1,0s3-0.9,3.5-2.6c0.1-0.3,0.1-0.6-0.1-0.9L780.3,108.4z
		 M743.8,98.7c-0.3,0-0.5-0.2-0.5-0.5V65c0-0.3,0.2-0.6,0.6-0.6c7.5,0,14.9,0,21.9,0c3.4,0,6.7,0.5,10,1.6
		c6.2,2.1,9.7,6.6,10.3,13.6c0.3,3.1,0,5.9-0.9,8.4c-0.9,2.6-2.5,4.8-4.7,6.6c-3,2.3-6.5,3.6-10.6,3.7
		C761.2,98.7,752.6,98.8,743.8,98.7z"/>
	<path class="st0" d="M186.5,146.2c0,1,0.8,1.9,1.8,2c2.4,0.3,4.8,0.4,7.2,0.4c2.5,0,3.8-1.4,3.8-4.1c0-10.9,0-22.2,0-33.7
		c0-0.4,0.3-0.7,0.7-0.7l22.3-0.1c0.7,0,1.3,0.4,1.7,1c6.4,11.4,12.9,22.7,19.5,33.9c0.8,1.4,1.6,2.3,2.2,2.8c1,0.7,2.2,0.9,3.7,0.8
		c1.6-0.1,3.3-0.1,4.9,0.1c1.8,0.1,2.8-0.5,3.2-1.9c0.2-0.8,0-1.8-0.7-3c-6.3-11.7-13-23.3-20.1-34.8c-0.2-0.3,0-0.8,0.4-0.9
		c10.8-3.3,17-10.7,18.4-22.2c0.5-4,0.3-8-0.5-11.9c-1.3-6-4.4-10.8-9.3-14.4c-3.4-2.5-7.4-4.2-11.8-5.1c-2.5-0.5-6.7-0.8-12.6-0.8
		c-10.7,0-21.6,0-32.6,0c-0.9,0-1.7,0.7-1.9,1.6c-0.4,2.4-0.6,4.9-0.5,7.4c0,2.6,0.1,3.9,0.1,3.9C186.1,93,186.2,119.6,186.5,146.2z
		 M199.2,65c0-0.3,0.2-0.6,0.6-0.6c8.2,0,16.2,0,23.9,0c4.9,0,9.1,1.3,12.8,3.9c3.4,2.4,5.2,5.7,5.7,10.1c0.8,9-2,15-8.4,18
		c-2.8,1.3-7.9,2-15.3,2.2c-6.1,0.1-12.4,0.1-18.7,0c-0.3,0-0.5-0.2-0.5-0.5V65H199.2z"/>
	<path class="st0" d="M307.4,148.4c0.2,0,1.4,0.1,3.8,0.1c17.6,0,35.2,0.1,52.9,0.2c2.8,0,4.3-1.4,4.5-4.2c0.1-1.7,0-3.3-0.2-4.6
		c-0.4-1.9-1.5-2.9-3.5-2.9l-46.5-0.1c-0.3,0-0.5-0.2-0.5-0.5l-0.1-29.9c0-0.3,0.2-0.5,0.5-0.5h42.6c2,0,3-1,3.1-3
		c0-0.7,0-1.6,0-2.8c0-0.1,0-0.8,0.1-2c0.1-2.4-1.1-3.6-3.7-3.6c-13.9-0.1-28-0.1-42.2-0.1c-0.3,0-0.5-0.2-0.5-0.5V65
		c0-0.3,0.2-0.5,0.5-0.5h45.9c2,0,3-0.8,3-2.5l-0.1-6.5c0-1.3-0.8-1.9-2.3-1.9h-58.5c-0.4,0-0.7,0.3-0.8,0.7
		c-0.3,3.9-0.5,8-0.5,12.1c0,26.1,0,52.3,0.1,78.4C305.1,146.8,305.8,148,307.4,148.4z"/>
	<path class="st0" d="M563.4,53.4h-7.5c-1.6,0-2.9,1.3-2.9,2.9v89.3c0,1.6,1.3,2.9,2.9,2.9h7.5c1.6,0,2.9-1.3,2.9-2.9V56.3
		C566.2,54.7,565,53.4,563.4,53.4z"/>
	<path class="st0" d="M622,148.5h57.2c1.3,0,2.1-0.6,2.4-1.8c0.3-1.1,0.5-2.3,0.5-3.6c0-2.1-0.1-3.3-0.1-3.6
		c-0.3-1.6-1.6-2.4-3.7-2.4c-15.1,0-30.4,0-45.9,0c-0.5,0-0.8-0.4-0.8-0.9v-29.6c0-0.3,0.2-0.5,0.5-0.5l43.3-0.2
		c1.8,0,2.7-0.9,2.7-2.8v-5.2c0-2-1-3-3-3l-43-0.3c-0.3,0-0.5-0.2-0.5-0.5V65c0-0.3,0.2-0.5,0.5-0.5l46.5-0.1c1,0,1.8-0.6,2.1-1.5
		c0.9-2.5,0.9-5.2,0-8.2c-0.2-0.8-1-1.4-1.8-1.4c-18.6,0-37,0-55,0c0,0-0.6,0-1.7-0.1c-1.9-0.1-3.1,0.6-3.4,2.1c0,0.1,0,1.4,0,3.9
		c0,28.8,0,57.4,0,85.8C618.8,147.4,619.9,148.5,622,148.5z"/>
	<path class="st0" d="M140.7,245c-2.7-2.5-6-4.4-9.9-5.8c-4.6-1.7-8.7-2.9-12-3.5c-5.9-1.1-11.7-2.6-17.4-4.5
		c-2.7-0.9-4.6-1.8-5.7-2.8c-2.1-1.8-2.7-4.1-1.8-6.7c0.8-2.1,2.3-3.7,4.6-4.7c3.1-1.3,6.6-1.6,10.4-0.8c3.5,0.7,6.2,2.3,8,4.8
		c1.3,1.8,2.1,2.8,2.3,3c1.1,0.8,2.3,1.2,3.8,1.2c5.5,0,11,0.1,16.5,0.2c3.9,0.1,5.5-1.7,4.8-5.4c-1.2-5.8-4.3-10.8-9.3-14.9
		c-6.9-5.7-14.9-8.9-23.9-9.7s-17.2,0.2-24.5,2.9c-7.3,2.7-12.6,6.9-15.9,12.6c-4.3,7.3-4.8,15.4-1.5,24.2c1.3,3.5,3.6,6.4,6.9,8.8
		c3.4,2.5,6.9,4.4,10.3,5.7c5.1,1.8,10.2,3.2,15.5,4.3c6.4,1.3,10.7,2.5,13,3.5c2,0.9,3.6,1.8,4.6,2.7c1.2,1.1,1.9,2.4,1.9,4
		c0,1.3-0.4,2.6-1.3,3.8c-1.3,1.9-3.3,3.1-5.9,3.8c-5.4,1.3-10.5,1.3-15.2-0.2c-3.5-1.1-6.2-3.1-8.3-6.1c-1.1-1.6-2.9-2.4-5.5-2.4
		c-5.6,0-11.2-0.1-16.7-0.2c-2.6-0.1-3.9,1-3.8,3.2c0.4,7.5,3.8,13.7,10.2,18.6c3.1,2.4,6.6,4.2,10.3,5.5
		c12.3,4.1,24.5,4.6,36.5,1.5c7.6-1.9,13.5-4.9,17.7-8.7c6.9-6.4,9.5-15.1,7.7-26.1C146.1,251.9,144,248.1,140.7,245z"/>
	<path class="st0" d="M663.2,199.5c-5.6-2.7-11.9-4.2-18.8-4.4c-5.9-0.2-11.3,0.3-16.2,1.3c-5.7,1.2-10.7,3.4-15.1,6.6
		c-6.9,5.1-11.2,11.5-12.8,19.2c-1.3,6-1.8,12.1-1.7,18.2c0.1,4.7,0.2,10.5,0.5,17.5c0.4,10.6,4.5,19.3,12.2,26
		c3,2.6,6.4,4.6,10.1,5.9c8.9,3.1,18.1,4.1,27.4,3.1c7.1-0.8,13.4-2.9,18.9-6.3c6.8-4.2,11.3-10.2,13.6-18.2c1.2-4.2,2-9.1,2.2-14.7
		c0.4-9.7,0.1-18.4-0.7-26.2C681.3,214.5,674.8,205.2,663.2,199.5z M656.8,257.6c0,8.1-6.6,14.7-14.8,14.7h-1.7
		c-8.1,0-14.7-6.6-14.7-14.8v-27c0-8.1,6.6-14.7,14.8-14.7h1.7c8.1,0,14.7,6.6,14.7,14.8V257.6z"/>
	<path class="st0" d="M793.8,246.2c-2.9-3.2-6.5-5.6-10.7-7.1c-4.4-1.6-7.8-2.6-10.1-3.1c-5.3-1-11.7-2.5-19.2-4.6
		c-2.1-0.6-3.9-1.5-5.4-2.7c-1.7-1.4-2.6-3-2.8-4.9c-0.3-2.8,1-4.9,3.9-6.4c3.5-1.8,7.4-2.3,11.7-1.4c3.7,0.7,6.5,2.6,8.4,5.6
		c0.9,1.4,1.6,2.3,2.2,2.7c1,0.6,2.2,0.9,3.5,0.9c5.8,0,11.5,0,17.2-0.1c3.3,0,4.6-1.7,4-4.9c-0.7-3.4-2.1-6.6-4.2-9.7
		c-1.8-2.6-4.3-5-7.5-7.2c-7.2-5.1-15.3-7.8-24.1-8.1c-5.4-0.2-10.6,0.2-15.4,1.1c-5.3,1-10.2,3-14.5,6c-8.2,5.6-12,13.7-11.5,24.2
		c0.5,8.7,4.2,15.1,11.2,19.2c6,3.5,12.8,6,20.6,7.5c2.9,0.6,4.9,1,6.2,1.3c2,0.5,4.1,1.1,6.1,1.6c2.1,0.6,4,1.3,5.9,2.3
		c2,1,3.3,2.5,3.7,4.4c0.4,1.8,0.1,3.5-1,5.1c-1.3,1.8-3.1,3-5.5,3.6c-4,1-8.1,1.2-12.3,0.7c-4.5-0.6-8-2.6-10.6-6
		c-1.2-1.6-2.2-2.5-2.9-2.8c-1.1-0.5-2.5-0.7-4.2-0.7c-5.3,0-10.5-0.1-15.8-0.2c-3.2-0.1-4.5,1.5-4,4.7c0.9,5.3,3,9.9,6.3,13.7
		c2.8,3.2,6.8,5.9,12,8c8.1,3.3,17,4.7,26.9,4.1c6.3-0.4,12-1.5,17.2-3.4c5.9-2.2,10.6-5.3,14.3-9.4c5.6-6.4,7.6-14,5.8-22.9
		C798.3,252.8,796.5,249.1,793.8,246.2z"/>
	<path class="st0" d="M254.8,196.5c-23.2,0-46.4,0-69.6,0c-2.7,0-4.3,0-4.7,0.1c-1.9,0.5-2.9,2-2.9,4.6c0,4.6,0,9.2,0,13.8
		c0,2.3,1.2,3.6,3.5,3.8c7.4,0.6,15,0.7,22.6,0.2c0.8,0,1.5,0.6,1.5,1.5c-0.1,22.6,0,45.1,0,67.5c0,1.3,0.3,2.2,0.8,2.8
		c0.8,0.8,1.8,1.2,3,1.1c1.1-0.1,1.7-0.1,1.8-0.1c6.1,0.1,12.1,0,17.9-0.2c1.4-0.1,2.1-0.8,2.1-2.2l0.1-69.5c0-0.3,0.2-0.5,0.5-0.5
		c7.4,0,14.8-0.1,22.2-0.3c1.6,0,2.7-0.3,3.3-0.7c0.9-0.7,1.4-1.9,1.4-3.6c0-4.2,0-8.5,0-12.7c0-0.1,0-0.6,0.1-1.5
		C258.7,197.8,257.4,196.5,254.8,196.5z"/>
	<path class="st0" d="M371.5,196.5c-6.2,0-12.4,0-18.5,0c-2.7,0-4,1.3-3.8,4c0.1,1,0.1,1.5,0.1,1.6c-0.1,17.3-0.2,34.5-0.2,51.8
		c0,4.1-0.3,7-0.9,8.7c-1.1,3.2-2.9,5.6-5.7,7.2c-3.3,2-7.2,2.6-11.8,2c-5.3-0.7-8.9-3.5-10.8-8.3c-0.9-2.3-1.4-6.5-1.5-12.4
		c-0.2-16-0.3-32-0.2-48c0-0.1,0-0.7,0.1-1.9c0.2-2.9-1.3-4.4-4.4-4.5c-5-0.1-9.9-0.1-14.9-0.1c0,0-0.6,0-1.7-0.1
		c-1.4-0.1-2.5,0.3-3.4,1c-0.8,0.7-1.2,1.9-1.3,3.6c-0.2,19.7-0.1,39.4,0.3,59c0.2,10.4,4,18.5,11.4,24.2c6.2,4.8,13.6,7.6,22.3,8.4
		c6.1,0.6,11.8,0.5,17.2-0.4c6.2-0.9,11.5-2.8,16-5.6c6.5-4.1,10.9-9.8,13.2-17.2c1.1-3.6,1.7-10.2,1.8-19.8
		c0.2-16.8,0.2-33.5-0.2-50.1C374.7,197.5,373.6,196.5,371.5,196.5z"/>
	<path class="st0" d="M477.3,201.1c-3.5-1.7-7.6-2.9-12.3-3.7c-4.3-0.7-8.6-1-12.9-1c-11.1,0.1-22.2,0.1-33.2,0.1
		c-2.7,0-4,1.4-4,4.3c0,28.5,0,57.1,0,85.6c0,0.1,0,0.5-0.1,1.2c-0.1,1.6,0.5,2.8,1.9,3.8c0.3,0.2,0.8,0.4,1.2,0.4
		c9.3,0,18.5,0,27.6,0c9.2,0,14.2,0,14.8-0.1c5.3-0.3,10.2-1.3,14.6-2.9c13.2-4.8,20.4-14.6,21.8-29.2c0.8-8.7,0.9-17.9,0.2-27.8
		C495.8,217,489.3,206.8,477.3,201.1z M470.7,250.6c-0.1,5-0.3,8.2-0.6,9.4c-0.8,3.5-2.6,6.2-5.4,8.2c-2.3,1.6-5.6,2.6-10,2.9
		c-4.3,0.3-8.7,0.4-13.4,0.1c-0.4,0-0.8-0.4-0.8-0.8v-52.6c0-0.3,0.2-0.5,0.5-0.5c4.7,0,9.3,0,14,0.1s8.5,1.6,11.4,4.6
		c1.8,1.9,3,4.4,3.6,7.4c0.4,2.4,0.7,5.2,0.7,8.4C470.8,242,470.8,246.3,470.7,250.6z"/>
	<path class="st0" d="M557.5,196.5h-19.8c-1.8,0-3.2,1.4-3.2,3.2v88.8c0,1.8,1.4,3.2,3.2,3.2h19.8c1.8,0,3.2-1.4,3.2-3.2v-88.8
		C560.8,197.9,559.3,196.5,557.5,196.5z"/>
</g>
</svg>
