<?xml version="1.0" encoding="utf-8"?>
<!-- Generator: Adobe Illustrator 27.0.1, SVG Export Plug-In . SVG Version: 6.00 Build 0)  -->
<svg version="1.1"
	 id="svg4165" xmlns:dc="http://purl.org/dc/elements/1.1/" xmlns:cc="http://creativecommons.org/ns#" xmlns:rdf="http://www.w3.org/1999/02/22-rdf-syntax-ns#" xmlns:sodipodi="http://sodipodi.sourceforge.net/DTD/sodipodi-0.dtd" xmlns:inkscape="http://www.inkscape.org/namespaces/inkscape" xmlns:svg="http://www.w3.org/2000/svg" sodipodi:docname="Scott Free Productions.svg"
	 xmlns="http://www.w3.org/2000/svg" xmlns:xlink="http://www.w3.org/1999/xlink" x="0px" y="0px" viewBox="0 0 1000 243.3"
	 style="enable-background:new 0 0 1000 243.3;" xml:space="preserve">
<style type="text/css">
	.st0{fill-rule:evenodd;clip-rule:evenodd;fill:#FFFFFF;}
	.st1{fill:#FFFFFF;}
</style>
<sodipodi:namedview  bordercolor="#666666" borderopacity="1.0" id="base" inkscape:current-layer="layer1" inkscape:cx="571.94252" inkscape:cy="181.84875" inkscape:document-units="px" inkscape:pageopacity="0.0" inkscape:pageshadow="2" inkscape:window-height="705" inkscape:window-maximized="1" inkscape:window-width="1366" inkscape:window-x="-8" inkscape:window-y="-8" inkscape:zoom="0.5" pagecolor="#ffffff" showgrid="false" units="px">
	</sodipodi:namedview>
<g id="layer1" transform="translate(0,-809.08818)" inkscape:groupmode="layer" inkscape:label="Layer 1">
	<g id="g4784" transform="matrix(0.53373566,0,0,0.53373566,94.695106,444.16626)">
		<path id="path4724" inkscape:connector-curvature="0" class="st0" d="M1016,683.7c-5,0.1-9.7,1.3-13.9,4.4
			c-17,46.7-1,97.8-51.3,120c-29.9-2.9-103.7-37.8-159.3-38.1c-13.7-23.7-56.6-44.6-99.6-44.6c-18.3,0-31.2,2.3-41.7,7.2
			c-12.1,5.7-20,13.2-23.7,17.3c-24.7,4.3-79.1,14.4-79.1,14.4c27.9,3.7,60.9,9.9,75.7,21.7c8.8,21.6,30.7,76.6,65.9,106.2
			c17,63.3,78.9,94.1,134.4,114.3c-3.9,4.3-19,16.9-36,29.6c-20.7,15.6-45.4,25.7-73,9.9c-10.5,20.4-30.7-1.7-40.2,19.1
			c-0.1,0.3,13.3-3.8,18.5-5.4c9.7,8.3,29.6,1.8,40.3,7.2c-3.4,5.8-10.5,12.4-16.3,21.1c16.3-8.6,55.6-42.2,98.7-25.2
			c1.3-12.3,15.2-11.8,22.1-11.2c-25.4-7.1-18.3,3.9-35.1,3.9c-9,0-16.8-1.9-22-5.3c14.7-9.6,56-38.8,63.6-43.7
			c22,6.2,46.5-14.3,58.1,11.4c-18.2,29.3-56.2,80.3-79.3,83.8c-10.9,1.6-33.8-13.8-40.5,4.6c13.1-13,24,1,39.2,1.6
			c-12.5,18.2-36.6,2-49,17.9c11.3-6.5,15.9,1.5,28.6,0.6c12.8-1,13-11.3,22.6-7.1c-2.5,4.1-11.1,11.6-8.1,20.1
			c11.8-12.7,36-37.4,41.2-44.3c13.2,4.6,43.5-4.5,57.7-11.2c-30.8,5.1-49.2,3.4-50.5,1.4c20.5-36.9,62.3-50.6,48.8-83.8
			c68.2-32.4,91.5-63,94.6-73c-0.6-8.9-0.8-15.2,6.7-24.5c9-4.3,67-22.7,79.4-27.3c-28.8-9.2-69.4-21-72-22.5
			c-0.1-16.6,1.4-44.5,2.8-57c40.2-66.8,38.4-89.7,41-104.1C1048.9,693.2,1031,683.4,1016,683.7L1016,683.7z M663.8,763.8
			c5.7,0.1,10.3,2,13.2,5.2c-1,2.5-6.4,8.1-13.4,8.1c-4.5,0-6.8-1.6-7.5-2.2c-1.5,0.3-2.3,0.6-3.5-0.4c-1.3-1.1-2.7-3.9-3.2-5.4
			c3.6-3.8,7-5,13.2-5.3C663,763.8,663.4,763.8,663.8,763.8z M977.5,849.6c-8.4,2.3-36.7,11.8-72,16.3c-24.4,3.1-50.9,3.3-61.6,0.4
			c23.7-2.9,34.4-4.2,60.5-7.3C930.4,855.8,961.6,851.6,977.5,849.6z M1001.2,866.1c-9.2,2.5-41.6,13.8-80,19.1
			c-25.1,3.5-49.8,5.2-66.4,3.7c25.9-3.1,40.2-5.8,65.1-9.6C944.8,875.6,983.8,868.3,1001.2,866.1z M1028.7,881.7
			c-8.4,3.7-43.7,17-81.6,25.3c-23.9,5.3-62.4,11.4-79,9.8c22-4.6,40.1-8.7,70.5-14.5C968.9,896.6,1011.4,885.6,1028.7,881.7z"/>
		<g id="g4773">
			<path id="path4736" inkscape:connector-curvature="0" sodipodi:nodetypes="ccssszszcsszsccc" class="st0" d="M-135.1,932
				c-0.3,3.5-0.4,8.8-0.4,13.7c0,1-1.3,1.4-1.4-0.2c-0.4-8.9-7.9-12.5-15.6-12.1c-6.8,0.3-14,3.9-14,12.5c0,10.3,5.3,13.7,14.3,21.2
				c9,7.5,18.5,13.4,18.5,29.9c0,14.2-11.8,22.3-24.2,22.3c-12.4,0-15.3-1-19.4-4.7c-0.4-1.3,0-10.6,0.8-15.2
				c0.2-1.4,1.4-1.9,1.4,0.4c0,9.7,5.2,14,16.1,15.3c10.9,1.3,18-7.8,18-15.2c0-19.8-33.5-25.3-33.5-49.6
				c0-12.2,10.1-20.5,21.5-20.5C-143.5,929.8-137.9,931.3-135.1,932L-135.1,932z"/>
			<path id="path4738" inkscape:connector-curvature="0" sodipodi:nodetypes="scscssccssscs" class="st0" d="M25.6,949.5
				c-13.7,0-33.2,11.1-33.2,34.3c0,23.1,20.1,35.5,39.7,35.5c7.8,0,15.2-1.4,18.2-3.2c0.8-3.1,2.3-8.3,2.3-13.3c0-1-1.3-1.4-1.4,0.2
				c-1,10.6-10.2,12.2-16.7,12.2c-18,0-33.5-12.5-33.5-34.5c1-22.2,16-27.6,25.1-27.6c16,0,23.6,3.6,24.6,14.2
				c0.2,1.6,1.4,1.2,1.4,0.2c0-5,0.2-11.5,0.5-15.1C45.5,951.3,42.1,949.5,25.6,949.5z"/>
			<path id="path4743" inkscape:connector-curvature="0" sodipodi:nodetypes="ccsccscccs" class="st1" d="M193.1,949.5
				c-13.7,0-32.8,11.1-33.2,34.3c0.4,22.7,15.2,35.6,34.8,35.6c11.3,0,34.7-8.5,34.7-38.2C229.4,962.8,214.6,949.5,193.1,949.5z
				 M193.7,952.5c16,0,27.4,13,27.4,32.8c0,14.2-6.2,30.5-24.6,30.5c-15.4,0-28.2-13.2-28.2-35.1
				C169.4,958.5,184.6,952.5,193.7,952.5z"/>
			<path id="path4746" inkscape:connector-curvature="0" sodipodi:nodetypes="cssscsccccsccscccc" class="st0" d="M339.8,949.4
				c-0.6,2-2.5,8-2.5,11.2c0,1.2,0.6,0.9,0.7,0c0.2-1,1.6-5.8,7.2-5.8c5.1,0,10.8-0.1,16.9-0.1c0.2,9.7-0.1,42.9-0.1,55.8
				c0,6.3-3.2,6.3-4.8,6.3c-1.6,0-0.9,0.9,0,0.9c6.8-0.1,13.2,0,19.9,0c1,0,1.4-1.1-0.2-1.1c-1.7-0.1-6.9,0.5-6.9-5.8
				c0-12.9-0.4-46.4-0.1-56.1c9.5,1,21.9-2.3,21.9,6.8c0,1.6,1.3,1.2,1.3,0.2c0-5,0.1-8.1,0.4-11.6c-6.9,0.8-45.3,0.8-53.1-0.5
				C340,949.6,339.8,949.4,339.8,949.4L339.8,949.4z"/>
			<path id="path4758" inkscape:connector-curvature="0" class="st0" d="M1522.9,950.2c-0.5-0.1-3.1,0.9-5.8,1
				c-11.1,0.6-23.5,0.2-30.4,0.2c-1,0-1,0.8,0,0.8c0.8,0,1.3,0,1.8,0c5.1,0,5.5,5.4,5.5,9c-0.1,9.8-0.3,35.9-0.3,48.9
				c0,6.3-4.4,6.8-6.1,6.9c-1.6,0-1.4,0.9-0.4,0.9c6.8-0.1,28,0,34.7,0c2.4,0,2.8-6.1,3.1-10.7c0.1-0.8-0.2-2-1-0.2
				c-1.1,2.9-1.2,6.6-6.6,7c-3.5,0.2-11.9,0-12.1,0c-2.7-0.2-4.4-3-4.4-9.3c0-5.2,0-12.8,0.1-20.6c3.4,0.1,9.4,0.2,12.6,0.2
				c4.5-0.1,5.5,1,5.5,5.1c0,1.6,1.1,1.6,1.1,0.6c0-3.2,0.6-6.7,0.9-9c0.1-1.2,0.6-2,0.1-2.2c-0.5-0.2-1.2,1.4-3.9,1.5
				c-7.9,0.4-12,0.2-16.2,0c0.1-10.2,0.2-20.2,0.3-25.3c10.6-0.2,19.1-2,19.3,5.9c0,1.6,1.1,1.6,1.1,0.6c0-3.2,0.7-6.6,0.8-9
				C1522.7,950.9,1523,950.5,1522.9,950.2L1522.9,950.2z"/>
			<path id="path4760" inkscape:connector-curvature="0" sodipodi:nodetypes="cssscsccccsccscccc" class="st0" d="M509.3,949.4
				c-0.6,2-2.5,8-2.5,11.2c0,1.2,0.6,0.9,0.7,0c0.2-1,1.6-5.8,7.2-5.8c5.1,0,10.8-0.1,16.9-0.1c0.2,9.7-0.1,42.9-0.1,55.8
				c0,6.3-3.2,6.3-4.8,6.3c-1.6,0-0.9,0.9,0,0.9c6.8-0.1,13.2,0,19.9,0c1,0,1.4-1.1-0.2-1.1c-1.7-0.1-6.9,0.5-6.9-5.8
				c0-12.9-0.4-46.4-0.1-56.1c9.5,1,21.9-2.3,21.9,6.8c0,1.6,1.3,1.2,1.3,0.2c0-5,0.1-8.1,0.4-11.6c-6.9,0.8-45.3,0.8-53.1-0.5
				C509.5,949.6,509.3,949.4,509.3,949.4L509.3,949.4z"/>
			<path id="path4765" inkscape:connector-curvature="0" class="st0" d="M1694,950.2c-0.5-0.1-3.1,0.9-5.8,1
				c-11.1,0.6-23.5,0.2-30.4,0.2c-1,0-1,0.8,0,0.8c0.8,0,1.3,0,1.8,0c5.1,0,5.5,5.4,5.5,9c-0.1,9.8-0.3,35.9-0.3,48.9
				c0,6.3-4.4,6.8-6.1,6.9c-1.6,0-1.4,0.9-0.4,0.9c6.8-0.1,28,0,34.7,0c2.4,0,2.8-6.1,3.1-10.7c0.1-0.8-0.2-2-1-0.2
				c-1.1,2.9-1.2,6.6-6.6,7c-3.5,0.2-11.9,0-12.1,0c-2.7-0.2-4.4-3-4.4-9.3c0-5.2,0-12.8,0.1-20.6c3.4,0.1,9.4,0.2,12.6,0.2
				c4.5-0.1,5.5,1,5.5,5.1c0,1.6,1.1,1.6,1.1,0.6c0-3.2,0.6-6.7,0.9-9c0.1-1.2,0.6-2,0.1-2.2c-0.5-0.2-1.2,1.4-3.9,1.5
				c-7.9,0.4-12,0.2-16.2,0c0.1-10.2,0.2-20.2,0.3-25.3c10.6-0.2,19.1-2,19.3,5.9c0,1.6,1.1,1.6,1.1,0.6c0-3.2,0.7-6.6,0.8-9
				C1693.8,950.9,1694.1,950.5,1694,950.2L1694,950.2z"/>
			<path id="path4767" inkscape:connector-curvature="0" sodipodi:nodetypes="sssscsccsccsccszsscccscssczccss" class="st1" d="
				M1331.1,951.1c-9.4,0.2-14.2,0.1-21.1,0.1c-1,0-1.1,0.9-0.2,0.9c0.8,0,1.1,0.1,1.6,0.1c5.1,0,5.2,5.4,5.2,9
				c-0.1,9.8-0.3,35.9-0.3,48.9c0,6.3-3.5,6.8-5.8,6.9c-1.6,0-1.2,0.9-0.2,0.9c6.8-0.1,14.8,0,21.4,0c0.6,0,0.6-0.9-0.5-0.9
				c-1.7-0.2-2.8-0.5-3.3-0.5c-2.7-0.2-4.4-5.6-4.4-11.9c0-5.2-0.3-7.4-0.3-15.1c2.9,0.3,6.1,0.4,12.3,0.1
				c5.1,6,11.8,14.9,15.4,19.6c5.7,7.6,10.3,8.9,16.1,9c5.8,0.1,6.8-0.1,7.6-0.1c1.1,0,2.4-1.1-0.1-1.1c-8.5,0-15.7-8.6-18.4-12.2
				c-4.6-5.2-11.2-14.6-14-17.4c5.3-4.8,10.9-10.6,10.9-19.2c-0.1-4.1-1.1-8.9-6-12.7C1342.2,951.6,1336.6,951.1,1331.1,951.1
				L1331.1,951.1z M1329.3,953.6c8.1-0.2,16.2,4,16.2,17.4c0,13.4-6.6,15.9-11.4,15.8c-4.8-0.1-8.8-1-10.7-2.5
				c0.2-9.4,0.1-18.9,0.3-28.3c0-0.9,0.8-1.9,2.2-2.1C1327,953.7,1328.1,953.6,1329.3,953.6L1329.3,953.6z"/>
			<path id="path4771" inkscape:connector-curvature="0" sodipodi:nodetypes="csssscsccsccsscsssccccscszcsccc" class="st0" d="
				M1176.6,930.4c-0.6-0.2-2.4,0.7-5.9,0.9c-14.4,0.7-34.9,0-43.9,0c-1.3,0-0.8,1.8,0.4,1.8c1,0,2.3,0,3,0c6.7,0,5.9,6.2,6.1,11.5
				c-0.2,12.8-0.2,46.7-0.2,63.5c0,8.2-3.9,8-6.1,8.1c-2,0-1.8,1.5-0.5,1.5c8.9-0.1,17.1,0.1,25.8,0.1c1.6,0,1.9-1.4-0.2-1.4
				c-1.1,0-2.3-0.2-3.9-0.4c-3.6-0.3-4.9-3.4-4.9-11.6c0-6.2-0.6-18.7-0.5-27.9c0-0.9,0.1-2.9,1.8-2.9c4.5,0.1,10.2,0.5,14.4,0.4
				c5.8-0.1,8.8,2.3,8.8,7.6c0,2,1.3,1.7,1.3,0.4c0-4.2,1-9.9,1.4-12.5c0.2-1.6,0.5-3.1-0.1-3.3c-1.6-0.6-1.2,1.6-4.6,2.4
				c-4.8,1.2-20.4,1.7-22.7,0.7c-1-4-0.8-11.3-0.5-20.4c0.1-4.9,0.1-9.5,0-11.7c0-1.2,0.8-1.6,1.8-1.5c5.5,0.5,9.2,0.5,15.5,0.4
				c6.3-0.1,9.8,1,10.4,7.5c0,2,1.4,1.7,1.4,0.4c0-4.2,1.4-8.8,1.6-10.5C1176.6,932.1,1177.2,930.5,1176.6,930.4L1176.6,930.4z"/>
		</g>
	</g>
</g>
</svg>
