<?xml version="1.0" encoding="utf-8"?>
<!-- Generator: Adobe Illustrator 27.0.1, SVG Export Plug-In . SVG Version: 6.00 Build 0)  -->
<svg version="1.1" id="Layer_1" xmlns="http://www.w3.org/2000/svg" xmlns:xlink="http://www.w3.org/1999/xlink" x="0px" y="0px"
	 viewBox="0 0 1000 171.4" style="enable-background:new 0 0 1000 171.4;" xml:space="preserve">
<style type="text/css">
	.st0{fill:#FFFFFF;}
	.st1{fill-rule:evenodd;clip-rule:evenodd;fill:#FFFFFF;}
</style>
<g>
	<path class="st0" d="M985,171.2c-150.2-26.5-313.5-41-484.2-41c-171.2,0-335,14.6-485.7,41.3c152-22.1,315.6-34.2,485.8-34.2
		C670.6,137.3,833.5,149.2,985,171.2"/>
	<path class="st1" d="M40.8,0c11.5-0.2,19.8,2.3,28.7,4.2c0,0.2,0.7,5.3,1.3,8.7c0.8,4.9,1.7,10.5,2.4,15.6
		c-0.1,0.1-0.2,0.2-0.3,0.3c-2.7,0-4.3,1-7,1.1c-3.8-9.7-8.1-18-18.4-21.3c-4.2-1.4-11.7-0.3-14.6,1.7c-4.9,3.4-7.8,9.6-9.4,14.8
		c-0.9,3.1-2.2,8.4-1.1,12.6c3.1,11.5,13,17.5,21.8,23.4c15.7,10.4,31.5,17.7,36.3,39.4c1.5,6.7-1.6,16.2-3.4,20
		c-6.7,15.6-19.1,22.5-37.1,27.1c-8.5,2.2-20.3,0.7-27.3-1.4c-2.4-0.7-6.4-1.4-7.3-2.5c-1.5-1.9-1.6-4.9-2-7.6
		c-0.6-4.5-2.5-15.6-3.4-19.3c2-0.5,5.5-3.1,7-2.5c1.2,2.8,2.4,5.6,3.7,8.4c3.9,6.4,9.1,12.8,16.7,15.6c4.2,1.4,10.8,1.4,15.1,0
		c9.8-3.4,19.8-15.9,15.6-30.2c-5.3-18.4-21.7-24.5-35.3-33.8c-4.7-3.2-11.8-9.2-16-15.9C2,51.2,1,37.3,4.5,27.6
		C6.3,22.5,9,18,12,14C16.2,8.5,23.7,3.9,31,1.7C33.1,1.1,37.8,0,40.8,0"/>
	<path class="st1" d="M871.1,4.8c1.1,1.8,3.5,20.4,3.9,26.7l-7.2,1.4c-3-13.9-10-20.7-23.7-24c-3.3-0.8-9.2-1-12.5,0
		c-2.5,0.7-5.5,1.5-7.6,2.8c-10.4,6.3-16.5,16.9-20.3,29.9c-1,3.2-2.5,15-2.5,22.9c0,8,1.3,16,2.5,19.7c4.3,14.4,11,26,22.6,33.2
		c6,3.8,17.2,6.4,25.7,2.8c5.8-2.4,10.9-7.6,14.2-12.6c1.2-1.7,5.9-8.4,5.9-8.4l5.9,3.6l-1.7,5.6c0,0-4.8,16.1-7.8,19.5
		c-9.4,3.7-33.9,2.9-42.4,0.3c-3.1-1-5.8-1.3-8.6-2.5c-18.7-8.1-28.8-21.6-35.9-41.3c-3-8.2-4.6-22.3-1.7-35.3
		c5.2-23.2,16.3-37,34.8-44.2C833-2.2,869.2,3.2,871.1,4.8"/>
	<path class="st1" d="M114.4,2.5h46.9v6.7c-0.1,0-0.2,0.2-0.3,0.2c-3.9,0-8.8,0.9-10.6,3.4c-2.5,3.4-2.2,9.7-2.2,15.6
		c0,10.5-0.1,32.3,0,32.3c0.2,0,2.3-0.9,3.3-1.6c2.1-1.4,13.8-14.4,17.1-19c2.7-3.8,16.6-21.9,16.7-28.4c-2.3-1.5-5.4-2.3-9.2-2.3
		c-0.2-0.5,0-0.2-0.3-0.6c0.5-1.5,0.3-4.4,0.3-6.4h42.1c0.6,1.7,0.3,4.6,0.3,6.7c-0.1,0-0.2,0.2-0.3,0.2c-7.3,0-13.1,2-18.2,5.6
		c-9.4,6.6-15.6,18.1-21.4,26.3c-2.4,3.4-5.1,6.6-7.5,10c-1.1,1.5-2.2,2.7-3.4,4.5c2.5,2.5,6,8.5,9.8,13.9
		c6.5,9.2,13.3,18.5,19.8,27.7c3.3,4.7,6.6,10.8,11.1,14.2c2.4,1.8,5.2,3,8.4,3.9c1.4,0.4,3.6-0.1,4.7,0.6c0.8,1.1,0.3,4.4,0.3,6.2
		c-0.3,0-6.1,0.4-10.6,1.1c-6.2,0.8-14.2,1.6-20.7,1.9c-3.8-5-7.4-10.1-10.9-15.1c-6.7-9.5-13.1-19.2-19.5-28.8
		c-2.4-3.7-6.8-13.2-12-13.6c-0.2,0.5,0,9.1,0,13.1c0,12.5-0.4,27.9,1.4,38.5c0.8,1.5,1.7,2.3,3.6,2.2c3,0.1,5.9,0.2,8.9,0.3
		c0.8,1.2,0.4,4.7,0.3,6.4c-0.1,0.1-0.2,0.2-0.3,0.2c-7.7,1.2-45.7,5.6-47.1,5c-0.8-1.2-0.3-4.6-0.3-6.4c0.1-0.1,0.2-0.2,0.3-0.3
		c3.9-0.3,9.6-1.8,11.4-4.4c2.9-4.4,1.7-15.8,1.7-23.2V43.3c0-8.7,0.9-25-1.7-29.6c-1.8-3.2-7-4.1-12-4.1L114.4,2.5L114.4,2.5z"/>
	<path class="st1" d="M243.9,2.5h44.6c0.5,1.7,0.3,4.6,0.3,6.7c-0.1,0-0.2,0.2-0.3,0.2c-3.6-0.1-9.2,0.8-9.2,4.5
		c1.6,3.5,3.1,6.6,4.5,9.7c3.1,7,7,14.4,10.6,21.2c1.1,2.1,4.7,8.1,5.9,10.4c1.2-3.2,3.1-6.1,4.5-9.2c2.9-6.7,5.9-13.1,8.8-19.7
		c1.8-4.1,5.3-8.9,4.3-14.4c-2.9-1.4-6.2-2.4-10.6-2.5v-7h38.5v7c-16,0.2-18.7,11.9-24.3,22.3c-3.9,7.2-7.5,14.8-11.5,22.3
		c-1.6,3.1-4.3,7.6-5,11.2c-0.4,2.1-0.3,7.1-0.3,10.8c0,9.5,0.5,25.3,1.1,28.8c0.3,1,0.8,1.2,1.6,1.8c2.6,1.7,8.6,1.4,12.9,1.3v6.7
		c-2.1,0.2-14.2,0.8-21.5,1.4c-5.9,0.4-23.2,1.7-29.9,2.3c0-1.8-0.1-6.9,0-7c4.6,0,10.9-1.4,12.8-4.2c3.2-4.7,2.3-21.4,2.3-29.3
		v-9.5c-1.3-5-4.2-9.2-6.4-13.4c-4.1-8-8-16.2-12-24c-3.2-6.2-6.1-14.9-11.5-18.7c-1.7-1.2-4.4-1.9-6.7-2.5c-1.3-0.3-2.4,0-3.3-0.5
		C243.4,8,243.9,4.3,243.9,2.5"/>
	<path class="st1" d="M726,82.6c0,0-0.6-38.9-0.6-47.7c0-7.4,0.5-17.9-3.1-22c-2.6-3.2-10.5-3.4-13.7-3.6V2.5h40.5v6.7
		c0,0-4.3,0-5.9,0.4c-1.9,0.7-4.7,2.1-5.8,4c-2.3,3.9-2.3,12.1-2.3,19.5c0,7.5-0.3,67.9-0.3,85.4c-1.8-0.1-5.7-0.5-8.3-0.7
		c-3.7-6-8.4-10.6-12.5-16.2c-11.6-15.8-24-31-35.5-46.9c-4.2-5.9-16.7-23.3-18.5-24.3c0,1.7,0.1,4.9,0.1,6.5V50v25.4
		c0,4.9,0.1,14.2,0.6,18.3c0.4,4.2,0.8,7.3,2.2,9.3c2.4,3.4,8.4,4.2,13.7,4.8v6.7c-7.3-0.3-36.5-1.9-40.9-2.1
		c0.1-1.8,0.3-6.5,0.3-6.5c5.3,0,10.1-0.9,12.2-4c2.4-3.6,2.1-10.2,2.3-15.3c0.1-2.3,0.5-19.2,0.5-23.5V37.9
		c0-6.4,0.9-17.3-1.6-21.2c-3.7-5.6-7.5-6.1-15.3-7.6l-0.3-6.4c3.5-0.5,22.7-0.3,29.3-0.3c4.3,6.6,25.5,33.2,30.2,38.9
		c4.6,5.7,19.8,24.8,21.5,27.2C716.5,71.1,723.8,82.2,726,82.6"/>
	<path class="st1" d="M909.1,2.5H992c0.6,8.4,1.7,25.4,1.7,25.4l-6.7,0.8c0,0-0.8-3-1.4-4.7c-0.8-2.4-2.1-5.4-3.3-7.5
		c-3.2-5.9-13.7-6.6-21.9-6.6c-4.5,0-15.2-0.7-17,2.3c-1.8,3.1-0.4,40.2-0.4,53.4c6,0.8,29,2.2,31.5,0.5c3.6-2.4,3.2-6.1,4.2-10
		c2.1,0.2,4.9,0.4,7,0.8L985,90.4c-2.5-0.2-5.1-0.5-7.3-0.8c0-3.7-1.2-9-3.4-10.6c-2.9-2.2-24.9-3.9-31.4-3.9
		c0,3.7-0.1,20.6-0.1,24.7c0,11-0.3,22,0.1,26c0.1,2.2,1.7,6.2,3.2,7.3c5.2,3.8,30.9,7.9,36.8,3.7c3.3-2.4,6.2-7.2,8.1-10.9
		c0.9-1.6,1.3-4,2.8-4.7c1.5-0.8,6.5,2,6.1,3.9c-0.3,1.7-4.9,20.4-6,25.9c-8.6-1.6-72.3-11.3-87.4-13.1c0,0,0.2-5.3,0.2-7.4
		c4.7,0.1,8.1,1.7,13.7-1.4c5.6-3.1,3.4-112.3,0.3-116.3c-3.2-4.1-7.4-3.1-11.7-3.1L909.1,2.5L909.1,2.5z"/>
	<path class="st1" d="M375,111.8v-6.7c5-0.2,11-1.2,13.1-4.4c2.4-3.8,1.7-14,1.7-20.1V33.5c0-6.2,0.8-17.3-1.7-20.9
		c-1.8-2.7-8.1-3.1-11.7-3.1V2.6c2.8-0.3,12,0,16.5,0h36.5c5.5,0,13.8,0.9,17.9,1.9c12.3,3.4,22.4,8.4,29,17.3
		c3.8,5.3,6.4,11.6,8.3,18.7c3.3,12.1-0.3,27.6-4.2,36.5c-6.1,14-16.7,23-31.2,28.5c-6.2,2.3-11.7,3.4-20.1,4.4
		c-6.8,0.3-13.6,0.8-20.3,1.1C406.2,111,380.2,111.8,375,111.8 M429.2,10.6c15,1,24.2,9.9,29.6,22c1.4,3.4,2.6,7.2,3.3,11.2
		c0.9,5.4,1.4,18.6-1.1,27.3c-4.8,16.1-13.7,26.3-30.4,30.4c-6.5,1.6-15.4,0.6-18.1-3.3c-2.6-3.8-2-11.3-2-17.7V42.4
		c0.1-10.1,0.3-22.2,0.8-26.6c0.3-2.2,0.5-3.3,1.5-4.2c0.9-0.8,3.9-1,5.8-1C418.6,10.6,429.2,10.6,429.2,10.6z"/>
	<path class="st1" d="M538,103v6.4c-7.8-0.1-30.8-0.3-37.5-0.2c0,0,0-4.4,0.1-6.6c0.1,0,3.2-0.2,4.4-0.5c3.3-0.9,6.6-2.1,8.4-4.4
		c4.5-6.2,21.9-52.6,27.9-67.6c4.3-11,10.3-26.9,11.2-27.9c1.2-0.9,6.1-2.1,8.1-2.2c7.9,21,15.3,42.6,23.2,63.6
		c2.7,7.1,5.2,14.1,7.8,20.9c1.5,4.1,2.8,7.6,4.8,11.3c1.5,2.7,3.6,6.2,6.5,7.4c1.7,0.7,3.9,1.2,6.5,1.6c0,0-0.1,6.2-0.1,6.3
		c-6.2-0.4-40-1.2-45.3-1.3c0,0,0-4.3,0.1-6.4c0.1-0.1,9.4,0.1,9.5-3.9c0-5.9-2.7-10.5-4.4-15c-1.6-4-2.8-7.9-4.2-11.1
		c-6.6,0.2-15-0.1-22.1-0.1h-8.4c0,0-2.4,5.9-3.1,7.8c-1.9,5.1-5.6,12.7-4.1,18.8c0.4,0.7,1.4,1.9,2.7,2.3
		C532.2,103,535.3,102.8,538,103 M550.5,30.1c1.9,5.8,9.7,28.8,11.4,33.6c-1.7-0.1-18.6,0-23.9,0c0.9-3.3,10.5-30.5,11.7-33.5
		C549.7,30.1,550.5,30.1,550.5,30.1z"/>
</g>
</svg>
