<?xml version="1.0" encoding="utf-8"?>
<!-- Generator: Adobe Illustrator 27.0.1, SVG Export Plug-In . SVG Version: 6.00 Build 0)  -->
<svg version="1.1" id="Layer_1" xmlns="http://www.w3.org/2000/svg" xmlns:xlink="http://www.w3.org/1999/xlink" x="0px" y="0px"
	 viewBox="0 0 1218.3 654.7" style="enable-background:new 0 0 1218.3 654.7;" xml:space="preserve">
<style type="text/css">
	.st0{fill:#FFFFFF;}
</style>
<g>
	<g>
		<g>
			<path class="st0" d="M173.1,575.2V472.9c0-14.5-12.6-50.7-12.6-89.3c0-37.3,13.7-83.2,13.7-99l0-107.4l-38.4,17.9
				c0,86.5,0,164.4,0.1,167.7c0.3,13.7,11.2,13.9,11,27.2c-0.2,15.5-11.3,23-11,31.6c0.2,4.7,0.2,85.3,0.1,170.7L173.1,575.2z"/>
			<path class="st0" d="M184.1,570.1l36.1-16.8c0-25.5,0-43.5,0-46.9c0.6-49.2-13.4-82.8-13.5-143.8c-0.1-55,14.7-94.6,15.8-139.9
				c0.1-2.9,0.1-30.6,0.1-68l-38,17.7l-0.1,110.1c0.2,15.4,10.9,48.4,10.9,85c0,36.6-11.5,89.2-11.3,101.8L184.1,570.1z"/>
			<path class="st0" d="M231,548.2l39-18.2c-3.4-37.5-16-112.1-16-189.8c0-91.1,18-178.2,18-200.3v-8.4l-38.4,17.9
				c0,38.2,0,66.5,0.1,69.4c0.6,43.2,10.5,79.4,10.5,126.3c0,46-12.5,110.8-13.1,157.2C231,505.7,231,523.3,231,548.2"/>
			<polygon class="st0" points="35.6,241.8 2.1,257.5 2.1,654.7 35.6,639.1 			"/>
			<polygon class="st0" points="45.1,634.7 79.3,618.8 79.4,221.4 45.1,237.4 			"/>
			<path class="st0" d="M125.9,199.7l-37.2,17.3l0,397.3l37.1-17.3c0.2-88.8,0.3-169.6,0.1-171.5c-1.1-12.6-10.1-8.4-10.3-21.5
				c-0.3-15.8,10.3-24,10.3-33.7C125.9,366.8,125.9,287.6,125.9,199.7"/>
			<path class="st0" d="M317.8,507.8c-5.1-50.9-12.4-124.9-12.4-190.9c0-66.9,7.4-152.1,12.4-206.7l-35.2,16.4c0,3.5,0,5.9,0,7
				c-0.1,22.1,13.5,95.7,13.8,186.9c0.3,86.8-11.7,164.2-14.1,203.8L317.8,507.8z"/>
			<path class="st0" d="M354.7,292.9c0.4-60.2,5.5-137,10.2-204.6l-30.8,14.4C338,152.5,346,223.2,346,297.2
				c0,66.4-4.5,145.5-7.7,201.1l27.3-12.7C360.2,424.6,354.3,352,354.7,292.9"/>
			<path class="st0" d="M414.9,462.6c-5.4-68.5-10.7-145.1-10.5-192.5c0.2-57.6,5.5-137,10.2-205l-28.2,13.1
				c4.2,60.1,10.3,132.8,10.6,195.6c0.3,56.2-4.4,132.2-7.8,200.8L414.9,462.6z"/>
			<path class="st0" d="M440,451l22.4-10.4c-4.4-60.7-9.8-132-9.7-192.4c0-70,5-130.1,9.2-205.1l-26.4,12.3
				c5,64.7,10.9,132.1,10.8,195.3C446.3,310,443.4,385.6,440,451"/>
			<path class="st0" d="M510,48.1c0.4-9.4,0.6-18.7,0.6-27.9l-26.1,12.1c0.9,9.8,1.6,18.7,2,27.2c3.2,87.3,9.1,88.9,8.9,168.2
				c-0.2,79.6-3,129.1-6.8,200.6l19-8.8c-2.7-73.5-6.7-112.4-6.8-193.6C500.8,158.7,506.1,134.3,510,48.1"/>
			<path class="st0" d="M542.3,205.8c0.2,26.3-4.8,120.6-9.4,201.9l20.3-9.5c-2.8-82.9-6.8-166.4-7.1-194.5
				c-0.3-27.2,3.4-105.1,7.7-187.8c0.1-5.2,0.1-10.5,0.1-16l-20.8,9.7C537.6,95.8,543,172.2,542.3,205.8"/>
		</g>
		<g>
			<g>
				<path class="st0" d="M750.9,178.2h12.2V209h-11.4c0-5.5-8-20.8-41.2-22.1c-33.8-1.3-37.2,15.3-25.8,18.8
					c14.7,4.5,43.8,3.6,61.9,9.4c23.8,7.7,30.5,33.3,9.7,46.9c-18.7,12.2-51.4,10.8-74.6,2.8c-4.2-1.5-11-5.2-10.7-0.3v2.9H657
					v-33.8h12.6c0.2,1.9-1.5,9.4,12.5,17.2c16.3,9,46,9.4,57.9,2.9c7-3.8,8-16.2-4.7-17.9c-13.6-1.8-35.3-3.1-51.5-6.8
					c-11.5-2.6-20.3-5.9-25.5-12.7c-4-5.2-10.7-25.7,12.4-36c28.6-12.9,68.3-3.9,75.3,1.9C748.9,184.8,752.1,184,750.9,178.2"/>
				<path class="st0" d="M892.6,222.9c0-23.2-16.2-36.4-37.7-36.4s-37.7,13.1-37.7,36.4c0,23.2,16.8,36.9,37.7,36.3
					C875.8,258.7,892.5,245.9,892.6,222.9 M855.5,173.2c31.8,0,65.6,15.3,64.9,50.3c-0.7,35.1-34.1,48.7-64.9,48.7
					c-30.8,0-67.3-13.6-67.9-48.7C786.9,188.5,824.3,173.2,855.5,173.2"/>
				<path class="st0" d="M1200.2,193.7c-2.5,2.5-34.1,40-34.1,40v20.1c-0.1,2.2,0.1,2.1,2.5,2.1h13.1v11.5h-59.9v-11.5
					c0,0,12.1,0.2,14.6,0c2.5-0.2,2.7-0.7,2.8-2.1v-20.2c0,0-35.1-38.5-35.4-39c-1.2-1.7-4.4-4.6-10.2-4.8h-9.9v-11.6h60.6v11.6
					h-6.2c-1.3,0-3.2,2.8-0.7,5.3c2.5,2.5,20.6,24.1,20.6,24.1l20.6-24.3c1.2-1.6,0.8-5.1-1.7-5.1h-7.5v-11.6h49.5v11.6h-11.5
					C1203.5,189.7,1201,192.8,1200.2,193.7"/>
				<path class="st0" d="M968.9,250.4c0,5.9,3,5.5,5.7,5.4h11.9v11.4H934v-11h11.6c4.7-0.3,5.4-2.8,5.6-5.5v-54.2
					c0.1-3.6,0.2-6.6-6.2-6.8h-11.1l-0.1-11.9h44.4l60,55.5V196c0-6.4-3.2-6.4-5.8-6.7h-11.2V178h50.9v11.5h-12.2
					c-2.9,0-4.1,2.8-4.3,5.5v72.3h-16.7l-70-61.6L968.9,250.4L968.9,250.4z"/>
				<path class="st0" d="M678.9,323.7h17.7c7.2-0.2,11.4-1.9,11.4-8.3c0-6-4.2-8.4-10.4-8.4h-18.7V323.7z M655.8,354.7v-7.1h6.2
					c2.4,0,3-1,3-3l0-34.2c0-2.1-0.6-3.2-3-3.2h-5.9v-7.3h46.5c15.9,0,21,3.7,21,15.2s-7.1,16.1-25,16.1h-19.6v13.5c0,2.1,0.6,3,3,3
					h6.4l-0.1,7.1H655.8z"/>
				<path class="st0" d="M754,344.5c0,2.1,0.6,3,3,3h6.3v7.1h-32.4v-7.1h6.2c2.4,0,3-0.9,3-3v-34.3c0-2.1-0.6-3.4-3-3.4h-6.2v-7.1
					h32.4v7.1H757c-2.4,0-3,1.4-3,3.4V344.5z"/>
				<path class="st0" d="M834.8,337.7c-1.1,8.5-10.9,19.7-28.4,19.7c-16.6,0-37.4-7.1-37.7-29.6c-0.4-22.1,19.5-31.4,35.8-31.1
					c9.7,0.2,18.4,3.5,20.6,5.7c1.4,1.4,3.2,1.5,2.5-2.7h6.4v18.8h-6c-0.6-9.9-12-16.1-24.3-14.6c-13,1.6-19.4,11.5-19.3,23.7
					c0,13.5,11.2,22.8,22.4,22.8c7.4,0,19.1-2.2,21.5-12.7L834.8,337.7z"/>
				<path class="st0" d="M843.8,320.6v-20.9h65.3v20.9h-6.6c0.2-14.7-1.3-13.3-6.3-13.9l-12.7,0v37.9c0,2.1,0.5,3.4,3,3.4h6.2v6.7
					h-32.5v-6.7h6.2c2.4,0,3-1.3,3-3.4v-37.9l-12.6,0c-5.6,0.6-6.4-0.4-6.4,13.9L843.8,320.6z"/>
				<path class="st0" d="M953,357.1c-13.1,0-27-3-27-19.9v-26.9c0-2.1-0.6-3.4-3-3.4h-6.2v-7.2h32.4v7.1H943c-2.4,0-3,1.4-3,3.5V338
					c0,1.8-0.8,12.8,13,12.8c15.4,0,16.8-6.7,16.8-12.8l0-27.7c0-2.1-0.5-3.4-3-3.4h-6.2v-7.2h27.5v7.1h-6.3c-1.5,0-2.9,1.6-2.9,5.7
					l0.1,25.2C979.2,354,966.4,357.1,953,357.1"/>
				<path class="st0" d="M1018.7,323.7h17.7c6.8,0,10.5-3.2,10.5-8.3c0-5.2-4.4-8.4-9.8-8.4h-18.4L1018.7,323.7L1018.7,323.7z
					 M1048.6,328.1c5.5,1.3,9.3,2.5,9.6,9.1v7.9c0,1.6,0.3,3.9,2.9,3.9c2.8,0,2.6-3.2,2.5-6.2v-3.3h5.8v4c0,9.9-2.3,12.6-11,12.6
					c-7.3,0-14.2-2.3-14.2-13.2v-6c0-4.1-3.4-5.9-9.6-5.9l-16,0v13.5c0,2.1,0.6,3,3,3h6.2l0,7.3h-32.5v-7.3h6.2c2.4,0,3-0.9,3-3
					v-34.2c0-2.1-0.6-3.6-3-3.6h-5.9v-6.8h45.5c15.9,0,21.2,5.1,21.1,15.5C1062.3,324.1,1055,326.9,1048.6,328.1"/>
				<path class="st0" d="M1099.9,347.7l29.2,0.1c5.6-0.5,6.6-3.2,6.6-13.9h6.3v20.9l-65.4,0v-7.1h6.2c2.4,0,3-1,3-3v-34.3
					c0-2.1-0.6-3.4-3-3.4h-6.2v-7.2h65.4v20.8h-6.3c0-10.6-1-13.5-6.6-14.1l-29.2,0V323l13.6,0c1.8,0,2.9-0.7,2.9-3.5v-5.7h6.1v25.8
					h-6v-5.7c0-2.9-1.2-3.5-2.9-3.5l-13.6,0L1099.9,347.7L1099.9,347.7z"/>
				<path class="st0" d="M1206.2,300.4h6.4v19.1h-6c0-3.3-4.3-13.8-21.7-14.3c-17.8-0.5-20.1,9.2-13.4,12.3c7.5,3.4,23,2.2,32.4,5.7
					c12.5,4.7,16,20.1,5.1,28.4c-9.8,7.4-26.9,6.5-39.1,1.7c-2.2-0.9-5.8-3.1-5.6-0.2v1.8h-7.4v-20.4h6.6c0,1.2-0.8,5.7,6.6,10.4
					c10.9,7,21.5,7.7,30.4,2.1c4.1-2.6,5.8-9.9-2.5-11.2c-7.2-1.1-18.5-1.9-27-4.1c-6-1.6-10.6-3.6-13.4-7.7
					c-2.3-3.4-6.2-15.2,6.5-21.8c15-7.8,31.7-3.2,39.5,1.2C1205.5,304.4,1206.8,304.4,1206.2,300.4"/>
			</g>
			<g>
				<rect x="656.1" y="386.5" class="st0" width="562.1" height="11.1"/>
				<path class="st0" d="M776.1,480v-5.6h5.5c2.4,0,4-0.7,4-3.3v-32.1c0-2.2-1.1-3.2-4.6-3.2h-4.9v-5.6h31.5v5.6h-4.8
					c-3.8,0-5.1,0.7-5.1,3.3v35.2h14c8.8,0,11-4.3,11.8-15.9h6.3V480L776.1,480"/>
				<path class="st0" d="M959.2,435.9h-2c-4.1,0-5.9,1-7.4,4.7L932.9,480h-11.7l-16.8-40.1c-1.4-3.4-3.2-4-6.5-4h-2.4v-5.5h30.5v5.5
					h-5.3c-2.6,0-3.7,0.6-3.7,1.7c0,1.2,0.5,2.1,0.9,3l10.7,27.3h0.2l11.6-27.3c0.6-1.3,0.8-2,0.8-2.9c0-1.3-1.6-1.9-4.1-1.9h-5.2
					v-5.5h27.6L959.2,435.9"/>
				<path class="st0" d="M1115.7,434.8c13.9,0,17.6,9.8,17.6,20.5s-3.7,20.4-17.2,20.4c-13.9,0-17.9-9.7-17.9-20.4
					S1102.1,434.8,1115.7,434.8 M1115.7,428.9c-18.7,0-31.1,11.5-31.1,26.3c0,14.9,12.4,26.3,31.1,26.3c18.7,0,31.2-11.3,31.2-26.3
					C1146.9,440.4,1134.4,428.9,1115.7,428.9"/>
				<path class="st0" d="M1167.9,439.8h-0.2v31.7c0,1.8,1.3,2.9,3.5,2.9h6.5v5.6h-28.5v-5.6h6c2.6,0,3.5-1.1,3.5-2.9v-32.9
					c0-1.9-0.9-2.7-3.5-2.7h-6v-5.5h25.4l25,35.7h0.2v-26.7c0-2.2-1.3-3.5-4.5-3.5h-5.2v-5.5h28v5.5h-5.1c-3.1,0-4.3,1.2-4.3,2.6
					V480H1196L1167.9,439.8"/>
				<path class="st0" d="M734,473.6l24.4,0.1c4.7-0.5,5.6-2.9,5.6-12.5h5.2V480l-54.7,0.1v-6.5h5.3c2,0,2.5-0.8,2.5-2.7V440
					c0-1.9-0.5-3.1-2.5-3.1h-5.3v-6.5h54.7v18.7H764c0-9.6-0.8-12.2-5.6-12.7l-24.4,0v14.9h11.3c1.5,0,2.5-0.7,2.5-3.2V443h5v23.3
					h-5v-5.2c0-2.6-1-3.2-2.4-3.2l-11.4,0L734,473.6"/>
				<path class="st0" d="M855,473.4l24.5,0.2c4.7-0.5,5.6-3,5.6-12.4h5.2v18.8h-54.7v-6.4h5.2c2,0,2.5-0.9,2.5-2.8v-30.8
					c0-1.9-0.5-3.1-2.5-3.1h-5.2v-6.5h54.7v18.8h-5.2c0-9.6-0.9-12.2-5.6-12.7H855v14.9h11.4c1.4,0,2.4-0.6,2.4-3.2v-5.1h5.1v23.2
					h-5.1V461c0-2.6-1-3.2-2.4-3.2H855V473.4"/>
				<path class="st0" d="M983.2,470.7c0,1.8,0.6,2.7,2.5,2.7h5.2v6.4h-27.1v-6.4h5.2c2,0,2.5-0.9,2.5-2.7v-30.8
					c0-1.9-0.5-3.1-2.5-3.1h-5.2v-6.4h27.1v6.4h-5.2c-2,0-2.5,1.2-2.5,3.1V470.7"/>
				<path class="st0" d="M1073.4,470.7c0,1.9,0.5,2.8,2.6,2.8h5.2v6.4H1054v-6.4h5.2c2.1,0,2.5-0.8,2.5-2.7v-30.9
					c0-1.9-0.4-3.1-2.5-3.1h-5.2v-6.4h27.1v6.4h-5.2c-2,0-2.6,1.2-2.6,3.1V470.7"/>
				<g>
					<path class="st0" d="M1040.6,430.5h5.4v17.2h-5c0-3-3.6-12.4-18.2-12.8c-14.9-0.5-16.8,8.3-11.2,11c6.2,3.1,19.2,2,27.1,5.2
						c10.4,4.2,13.3,18.1,4.2,25.6c-8.1,6.7-22.5,5.9-32.6,1.6c-1.9-0.9-4.8-2.8-4.7-0.2v1.6h-6.2v-18.4h5.5c0,1-0.6,5.1,5.5,9.4
						c9.1,6.3,18,6.9,25.4,1.9c3.3-2.3,4.9-8.9-2.1-10c-6-1-15.5-1.7-22.5-3.7c-5-1.4-8.9-3.2-11.2-6.9c-2-3-5.2-13.8,5.4-19.6
						c12.5-7,26.4-2.9,33,1.1C1040,434.1,1041.1,434,1040.6,430.5"/>
				</g>
				<path class="st0" d="M656.1,449.1v-18.8h54.6v18.8h-5.5c0-13.3-1.1-12-5.4-12.5h-10.6v34.1c0,1.9,0.5,3.1,2.5,3.1h5.2v6h-27.2
					v-6h5.3c2,0,2.5-1.2,2.5-3.1v-34.1H667c-4.7,0.5-5.3-0.4-5.3,12.5H656.1"/>
			</g>
		</g>
	</g>
</g>
</svg>
