<?xml version="1.0" encoding="utf-8"?>
<!-- Generator: Adobe Illustrator 27.0.1, SVG Export Plug-In . SVG Version: 6.00 Build 0)  -->
<svg version="1.1" id="_Слой_1" xmlns="http://www.w3.org/2000/svg" xmlns:xlink="http://www.w3.org/1999/xlink" x="0px"
	 y="0px" viewBox="0 0 997.2 912" style="enable-background:new 0 0 997.2 912;" xml:space="preserve">
<style type="text/css">
	.st0{fill:#FFFFFF;}
</style>
<path class="st0" d="M477,674.7c-8.3,2.8-10.8,14-6.1,20.9c3.2,5.3,10.5,7.3,16.1,4.7c7.4-3.1,9.7-13.2,6-19.8
	C490.1,674.9,482.8,672.4,477,674.7L477,674.7z"/>
<path class="st0" d="M529.1,626.1c0-8.5-9.5-15-17.4-11.8c-6.8,2.1-10.2,10.1-8.3,16.7c1.2,6.3,7.8,11,14.1,10.1
	C524.8,640.4,529.9,633.1,529.1,626.1z"/>
<path class="st0" d="M437,627.3c5.6-1.5,6.1-10.5,0.9-12.7c-3.4-1.2-7-0.5-10.5-0.7c0,4.6,0,9.1,0,13.7
	C430.5,627.5,433.8,627.9,437,627.3L437,627.3z"/>
<path class="st0" d="M475.4,626.2c3.7-1.5,4.7-6.6,2.6-9.8c-2.8-3.8-8.3-2.2-12.4-2.6c0,4.2,0,8.5,0,12.8
	C468.9,626.5,472.2,627,475.4,626.2L475.4,626.2z"/>
<path class="st0" d="M571.5,618c-4.1-4.8-10.9-4.1-16.6-4.2c-0.1,9,0,17.9-0.1,26.8c4.3-0.1,8.8,0.7,12.8-1.2
	C575.6,635.9,576.4,624.3,571.5,618z"/>
<path class="st0" d="M583.2,675.6c-3.5-2.3-7.9-1.1-11.8-1.3c0,4.5,0,9.1,0,13.7c3.4-0.1,6.8,0.3,10.1-0.4
	C586.2,685.9,586.9,678.6,583.2,675.6L583.2,675.6z"/>
<path class="st0" d="M608.8,691.2c3.6,0,7.2,0,10.7,0c-1.7-5.4-3.9-10.6-5.2-16.1C612.8,680.5,610.7,685.8,608.8,691.2L608.8,691.2z
	"/>
<path class="st0" d="M758.8,614.3c-5.9,1.9-9.4,8.5-8.6,14.5c0.4,6.1,5.2,11.5,11.3,12.2c8.4,1.4,15.8-6.9,14.7-15.1
	C776.2,617.4,766.7,611.1,758.8,614.3z"/>
<path class="st0" d="M826.6,460c-8.7-1.6-17.7-0.7-26.5-0.2c0,24.5,0,48.9,0,73.3c10.4,0.3,21.4,0.7,31.2-3.3
	c9.5-4,14.7-14.1,16.2-23.9c1.5-11.3,1.1-23.5-4.3-33.8C840,465.9,833.7,461.3,826.6,460L826.6,460z"/>
<path class="st0" d="M887,550.8c7.9-19.4,15.7-38.8,23.5-58.2c1-12.1,1.5-24.3,1.5-36.6c0-115-43-220.4-113.7-300.7
	c0.5,0.3,0.9,0.7,1.4,1C723.3,68.8,614,10.7,491.1,1.3c-0.1,0-0.1,0-0.2,0c-1.8-0.1-3.5-0.3-5.3-0.4c-0.4,0-0.8-0.1-1.2-0.1
	c-1.5-0.1-3-0.2-4.5-0.3c-0.7,0-1.3-0.1-2-0.1c-1.3-0.1-2.5-0.1-3.8-0.2c-0.9,0-1.9-0.1-2.8-0.1c-1,0-2.1-0.1-3.2-0.1
	c-1.3,0-2.5-0.1-3.8-0.1c-0.8,0-1.5,0-2.3,0c-2,0-4.1,0-6.2,0s-3.9,0-5.9,0C201.5,3.2,0.9,205.2,0,454.3c0,0.6,0,1.1,0,1.7
	c0,2.1,0,4.3,0.1,6.4c0,0.8,0,1.5,0,2.3c0,1.3,0,2.7,0.1,4c0,1,0.1,2,0.1,3c0,1.1,0.1,2.1,0.1,3.2c0.1,1.2,0.1,2.3,0.2,3.5
	c0,0.8,0.1,1.6,0.1,2.4c0.1,1.4,0.2,2.8,0.2,4.2c0,0.3,0,0.6,0.1,1C9.7,621,77.3,740,178.3,817.7c-0.4-0.4-0.7-0.8-1-1.2
	C254.5,876.3,351.2,912,456,912c218.6,0,402.2-155.2,446-361.1C897,550.9,892,551,887,550.8z M56,518c0,78.3,19.7,154.7,56.5,222.5
	c0,0-0.1-0.1-0.1-0.1c-21.4-25.8-39.9-54.1-55-84c-15.3-30.4-27.1-62.6-35.1-95.7C14.1,526.6,10,491.4,10,456
	c0-60.2,11.8-118.6,35-173.6c22.5-53.1,54.6-100.8,95.6-141.8s88.7-73.1,141.8-95.6c55-23.2,113.4-35,173.6-35
	c32.9,0,65.8,3.6,97.6,10.7c31,6.9,61.3,17.2,90.1,30.6c26,12.1,50.9,26.7,74.2,43.6C657,66.7,590.7,52,522,52
	C265,52,56,261.1,56,518L56,518z M555.7,550.8c-7,0-14,0-21,0c0-35.5,0-71,0-106.5c18.1-2.6,36.6-3.8,54.7-1.1
	c9.9,1.3,19.6,6.5,24.5,15.3c7.9,13.5,4,32.1-7.6,42.3c-2.8,2.6-6,4.5-9.3,6.2c0.4,1.6,0.9,3.2,1.8,4.6
	c8.5,13.1,16.9,26.2,25.3,39.2c-8.2,0-16.5,0-24.7,0c-8.2-12.8-16.5-25.6-24.5-38.5c-6.4,0.2-12.8,0.1-19.3,0
	C555.8,525.2,555.7,538,555.7,550.8L555.7,550.8z M424.5,700.1c-6.5-7.5-5.8-20.5,2-26.8c7.1-5.7,17.8-4.9,24.8,0.6
	c-0.9,1.3-1.7,2.6-2.6,3.9c-4.7-3.6-11.5-5.2-16.9-2.3c-6.4,3.3-8.2,12.1-5.3,18.3c1.8,4.7,6.9,7.8,11.9,7.7c4.1,0.2,7.9-2,11-4.5
	c0.9,1.2,1.8,2.3,2.7,3.5C445.1,707.9,431.3,708.1,424.5,700.1L424.5,700.1z M422.2,609.6c5.7,0.3,11.5-0.7,17.1,0.6
	c8.4,2.4,9.6,15.5,2.4,19.9c-4.2,2.9-9.6,1.5-14.4,1.7c0,4.4,0,8.9,0,13.3c-1.7,0-3.4,0-5,0C422.2,633.3,422.3,621.4,422.2,609.6
	L422.2,609.6z M453.5,553.2c-11.4-0.3-23-2.2-33.5-6.8c1.6-5.7,3.2-11.5,4.6-17.3c11.4,4.2,23.5,7.8,35.8,6.2
	c5.1-0.8,10.6-2.3,14.1-6.3c3.1-3.3,3.5-8.4,2.2-12.6c-1.6-4.1-5.4-6.9-9.3-8.5c-10.9-4.3-23.4-4.9-33.4-11.5
	c-12.6-8.7-15.4-27.7-7.2-40.4c6-9.4,17.4-13.9,28.1-15c12.8-1.3,26.1-0.2,38,5c-1.9,5.4-3.5,10.8-5.3,16.2
	c-11.2-4-23.8-6.7-35.4-2.7c-6.7,2.2-10.4,10.4-7.2,16.8c2.3,4.7,7.6,6.6,12.2,8.1c10.6,3.3,22.2,4.5,31.3,11.3
	c13.8,10.8,14.1,34,1.3,45.7C480.4,550.8,466.4,553,453.5,553.2L453.5,553.2z M460.6,609.5c5.6,0.3,11.3-0.5,16.9,0.6
	c6.5,1.7,8.5,10.4,5.1,15.6c-1,1.9-2.9,2.9-4.6,4.1c3.1,5,5.7,10.2,8.5,15.3c-1.8,0-3.7,0-5.5,0c-2.8-4.5-4.9-9.5-7.7-14
	c-2.5-0.5-5-0.3-7.5-0.3c-0.1,4.8,0.1,9.6-0.3,14.3c-1.6,0-3.1-0.1-4.7-0.1C460.5,633.3,460.7,621.4,460.6,609.5L460.6,609.5z
	 M491.1,703.6c-9.1,5.6-22.7,1.4-26.3-8.9c-4.3-9.8,1.5-22.8,12.3-24.9c5.9-1.3,12.4,0,16.9,4C503,681.5,501.5,697.9,491.1,703.6z
	 M500.6,617.1c2.9-4.6,8.1-7.5,13.5-8c7.1-0.8,14.7,2.7,18,9.2c4,7.5,2.4,17.7-4.1,23.3c-6.4,5.5-16.6,5.8-23.2,0.5
	C497.4,636.4,495.6,624.8,500.6,617.1L500.6,617.1z M545,705.4c-0.7-9.2-1.4-18.3-2-27.5c-2.2,7.4-6,14.2-8.8,21.3
	c-1.5,0-3.1-0.1-4.6-0.2c-2.7-7.1-6.6-13.7-8.6-21.1c-0.7,9.2-1.4,18.4-2.1,27.6c-1.7,0-3.3,0-5,0.1c0.8-11.8,2.2-23.5,2.7-35.2
	c1.8-0.2,3.7-0.4,5.5-0.3c3.1,8.1,7.1,15.7,9.8,24c3.2-8.1,6.7-16.1,10.2-24c1.7,0,3.4,0,5.1,0c1,11.9,1.9,23.7,2.9,35.6
	C548.3,705.5,546.7,705.5,545,705.4L545,705.4z M549.9,645.2c-0.1-11.9,0-23.7-0.1-35.6c7.7,0.3,16.3-1.5,23.2,3.2
	c9.8,7.1,9,25.1-2.2,30.4C564.2,646.3,556.9,644.8,549.9,645.2z M586,690.4c-4.3,2.9-9.8,1.7-14.7,2c0,4.4,0,8.7,0,13.1
	c-1.7,0-3.4,0-5.1,0c0-11.9,0-23.7,0-35.6c5.9,0.4,12-0.8,17.7,0.8C591.9,673.6,592.8,685.8,586,690.4z M595.1,634.6
	c-0.3-8.3,0-16.7-0.2-25.1c1.7,0,3.4,0,5.1,0c-0.1,6.8,0,13.6-0.1,20.5c0.1,2.7-0.1,5.7,1.7,7.9c4.1,5.2,14.5,4,16-2.9
	c0.6-8.5,0.2-17,0.2-25.5c1.7,0,3.3,0,5,0c0,8.2,0.1,16.3-0.1,24.5c-0.2,6.8-6.6,11.9-13.2,11.7
	C602.9,646.4,595.7,641.7,595.1,634.6L595.1,634.6z M624.4,705.4c-1.1-3.4-2.3-6.7-3.5-10.1c-4.5-0.1-8.9,0-13.4-0.1
	c-1.2,3.4-2.5,6.8-3.6,10.3c-1.7,0-3.4-0.1-5.2-0.1c4.4-11.8,8.5-23.7,12.8-35.5c1.8,0,3.5,0,5.3,0c4.3,11.9,8.5,23.8,12.8,35.6
	C627.9,705.5,626.2,705.4,624.4,705.4L624.4,705.4z M644,613.4c6.9-6.2,18.4-5.8,25.3,0.3c-0.9,1.2-1.7,2.4-2.5,3.5
	c-5-3.6-12.2-5.3-17.7-1.7c-8.5,5.4-7.5,20.2,1.7,24.3c5.6,2.8,12.2,0.5,16.8-3.3c0.9,1.2,1.8,2.4,2.6,3.5
	c-6.2,6.3-16.8,7.5-24.3,2.7C636.2,636.5,635.3,620.8,644,613.4z M671.7,705.5c-1.6,0-3.3,0-4.9-0.1c-5.1-6.8-9.7-14-14.6-21
	c-1.7-2.3-3-4.8-4.2-7.3c0.3,9.5,0.1,18.9,0.2,28.4c-1.7,0-3.3,0-5,0c0-11.9,0-23.8,0-35.7c1.8,0.1,3.5,0.2,5.3,0.4
	c5.9,9.5,13,18.1,18.5,27.9c-0.4-9.4-0.2-18.8-0.1-28.2c1.6,0,3.3,0,4.9,0.1C671.7,681.8,671.7,693.6,671.7,705.5L671.7,705.5z
	 M681.5,609.6c9.8,0,19.7,0,29.5,0c0,1.4,0,2.8,0,4.3c-4,0-8.1,0-12.2,0c-0.1,10.4,0,20.9,0,31.3c-1.7,0-3.3,0-5,0
	c-0.1-10.5,0-20.9,0-31.3c-4,0-8.1,0-12.1,0C681.6,612.4,681.6,611,681.5,609.6L681.5,609.6z M702.1,690.4c-0.3,5-0.1,10.1-0.1,15.1
	c-1.7,0-3.3,0-5-0.1c-0.1-5,0.2-10-0.1-14.9c-3.8-7-7.9-13.8-11.9-20.6c1.9,0,3.8,0,5.7,0c3,5.4,6.2,10.6,8.8,16.2
	c2.7-5.5,5.5-11.1,9-16.2c1.8-0.2,3.7-0.1,5.5-0.2C710,676.7,705.9,683.5,702.1,690.4L702.1,690.4z M729.4,645.2c-1.6,0-3.1,0-4.7,0
	c-0.4-11.9-0.2-23.8-0.2-35.6c1.7,0,3.4,0,5,0.1C729.6,621.5,729.6,633.3,729.4,645.2L729.4,645.2z M660.6,550.6
	c0-35.8,0-71.6,0-107.4c24.9,0,49.9,0.1,74.8,0c0,5.5,0,11.1,0,16.7c-18,0.2-36.1-0.4-54.1,0.3c0.1,9.2,0,18.3,0,27.5
	c17.8,0.2,35.5,0.1,53.3,0.1c0,5.6,0,11.2,0,16.9c-17.8,0-35.5,0-53.3,0c0,9.7,0.1,19.4,0,29.1c18,0.2,36,0.1,54.1,0
	c0.1,5.6,0,11.2,0,16.8C710.5,550.6,685.6,550.5,660.6,550.6L660.6,550.6z M775.6,641.1c-6.8,6.3-18.3,6.2-25-0.2
	c-6.7-6.3-7.6-17.7-2-24.9c2.8-3.6,7.1-6.2,11.7-6.7c6.7-1.2,14.1,1.7,18,7.3C783.4,623.9,782.3,635,775.6,641.1L775.6,641.1z
	 M825.4,645.1c-1.5,0-3,0.1-4.5,0.1c-3.2-4.1-5.9-8.5-8.9-12.7c-3.4-5.2-7.4-10-10-15.6c0.3,9.4,0.1,18.9,0.1,28.3
	c-1.6,0-3.3,0-4.9,0c-0.1-11.9,0-23.7,0-35.6c1.7,0,3.3,0,5,0c6,9.2,12.8,17.9,18.4,27.4c0.3,0.7,1,0.6,1.7,0.6l-1.2-0.6
	c-0.6-9.1-0.3-18.2-0.2-27.4c1.6,0,3.2,0,4.9,0.1C825.3,621.4,825.5,633.3,825.4,645.1L825.4,645.1z M860.8,529.2
	c-7.2,10.9-19.2,18.5-32.2,20.2c-16.4,2.1-33,1.3-49.4,1.1c0.1-35.4-0.1-70.8,0.1-106.2c14.6-1.8,29.4-2.7,44.1-2
	c11.5,0.4,23.8,3.3,32.1,11.7c10.1,9.8,14,24.3,14.4,38C870.1,504.8,868,518.3,860.8,529.2z"/>
<path class="st0" d="M579.4,494.8c4.8-0.7,9.5-2.7,12.8-6.4c5-5.7,5.9-14.7,2.1-21.3c-2.5-4-6.7-6.6-11.2-7.4
	c-9-1.5-18.3-0.8-27.3-0.1c0,11.9,0,23.7,0,35.6C563.6,495.7,571.6,496,579.4,494.8L579.4,494.8z"/>
<path class="st0" d="M951.1,442.2c-6.8-0.1-13.7-0.1-20.5,0.1c-6.7,16.8-13.4,33.6-20.1,50.4c-1.6,19.8-4.5,39.3-8.5,58.3
	c1.9,0,3.8,0,5.7,0c3.2-7.7,6.1-15.5,9.2-23.2c15.9,0,31.8,0,47.7,0c3,7.7,6.1,15.4,9.1,23.2c7.8,0.1,15.6,0,23.4,0
	C981.8,514.7,966.4,478.4,951.1,442.2L951.1,442.2z M923.6,510.8c5.8-14.3,11.2-28.9,17.2-43.2c5.9,14.3,11.4,28.8,17.2,43.1
	C946.5,510.9,935.1,510.8,923.6,510.8z"/>
</svg>
