<?xml version="1.0" encoding="utf-8"?>
<!-- Generator: Adobe Illustrator 27.0.1, SVG Export Plug-In . SVG Version: 6.00 Build 0)  -->
<svg version="1.1" id="Слой_1" xmlns="http://www.w3.org/2000/svg" xmlns:xlink="http://www.w3.org/1999/xlink" x="0px" y="0px"
	 viewBox="0 0 82 40" style="enable-background:new 0 0 82 40;" xml:space="preserve">
<style type="text/css">
	.st0{fill:#FFFFFF;}
</style>
<g>
	<path class="st0" d="M7.5,0C2.4,0,0,2.9,0,7.4v5.2c0,4.7,0.8,6.7,4.2,8.8L6.8,23c2.1,1.3,2.4,2.2,2.4,4.9v4.6
		c0,1.3-0.6,2.2-1.8,2.2s-1.8-0.8-1.8-2.2v-7.2H0v7.3C0,37.2,2.3,40,7.3,40c5.2,0,7.6-3,7.6-7.4v-5.7c0-4.3-1.1-6.6-4.3-8.6L8,16.7
		c-1.8-1.2-2.3-2-2.3-5V7.4c0-1.3,0.6-2.2,1.7-2.2c1.2,0,1.8,0.8,1.8,2.2v7.2h5.6V7.4C14.9,2.9,12.5,0,7.5,0z"/>
	<path class="st0" d="M16.7,6.1h4v33.3h5.7V6.1h4V0.6H16.7V6.1z"/>
	<path class="st0" d="M68,0.6v5.6h4v33.3h5.7V6.1h4V0.6H68z"/>
	<path class="st0" d="M33.9,0.6l-3.2,38.9h5.7L37.2,29h4.2l0.8,10.4H48L44.8,0.6H33.9z M37.6,23.8l1.4-17.9h0.7L41,23.8H37.6z"/>
	<path class="st0" d="M65.9,36.5V26.4c0-3.2-1.2-5-4.1-5.6v-0.7c2.9-0.4,4.4-2.6,4.4-6.1V7.4c0-4.3-2.5-6.8-7.5-6.8h-7.8v38.9h5.7
		V23.2h3.5v13.3c0,2.2,0.9,2.9,0.9,2.9h5.7C66.8,39.4,65.9,38.7,65.9,36.5z M60.4,14.3c0,2.8-0.6,3.6-2.5,3.6h-1.3v-12h1.5
		c1.8,0,2.3,0.7,2.3,3.6V14.3z"/>
</g>
</svg>
