<?xml version="1.0" encoding="utf-8"?>
<!-- Generator: Adobe Illustrator 27.6.1, SVG Export Plug-In . SVG Version: 6.00 Build 0)  -->
<svg version="1.1"
	 id="Layer_1" xmlns:inkscape="http://www.inkscape.org/namespaces/inkscape" xmlns:svg="http://www.w3.org/2000/svg" xmlns:sodipodi="http://sodipodi.sourceforge.net/DTD/sodipodi-0.dtd"
	 xmlns="http://www.w3.org/2000/svg" xmlns:xlink="http://www.w3.org/1999/xlink" x="0px" y="0px" width="62px" height="44.9px"
	 viewBox="0 0 62 44.9" style="enable-background:new 0 0 62 44.9;" xml:space="preserve">
<style type="text/css">
	.st0{fill-rule:evenodd;clip-rule:evenodd;fill:#FFFFFF;}
</style>
<sodipodi:namedview  bordercolor="#000000" borderopacity="0.25" id="namedview13" inkscape:current-layer="Layer_1" inkscape:cx="30" inkscape:cy="23.045977" inkscape:deskcolor="#d1d1d1" inkscape:pagecheckerboard="0" inkscape:pageopacity="0.0" inkscape:showpageshadow="2" inkscape:window-height="1001" inkscape:window-maximized="1" inkscape:window-width="1920" inkscape:window-x="-9" inkscape:window-y="-9" inkscape:zoom="8.7" pagecolor="#ffffff">
	</sodipodi:namedview>
<g>
	<polygon class="st0" points="54,2.9 54,0 8,0 8,2.9 0,2.9 0,3.7 62,3.7 62,2.9 	"/>
	<path class="st0" d="M55.2,13.9c0.9,0,5-0.2,4.9-4.2c-0.1-4.2-4-4.2-7.4-4.2h-7.5V6c0.7,0,1.2,0.1,1.5,0.2s0.5,0.3,0.6,0.6
		c0.1,0.2,0.2,0.8,0.2,1.8V20c0,1-0.1,1.6-0.2,1.8c-0.1,0.2-0.3,0.4-0.5,0.6c-0.3,0.2-0.7,0.2-1.5,0.2v0.5h8.2v-0.5
		c-0.7,0-1.2-0.1-1.5-0.2s-0.5-0.3-0.6-0.6c-0.1-0.2-0.2-0.8-0.2-1.8v-5.3c4.3-1.3,4.5,1.1,4.7,3.8c0.1,1.7,0.3,3.5,1.5,4.6
		c1.5,1,4.1,0.1,4.5-0.5v-0.5c-1.3,0.6-1.7-0.1-1.8-0.8c0,0,0-0.2,0-0.4c-0.1-1.3-0.3-5.2-2.2-6.4c-0.5-0.3-1.1-0.4-1.8-0.5
		C55.8,14,55.5,13.9,55.2,13.9C55,13.9,55.1,13.9,55.2,13.9z M54.3,13.4c-0.5,0.2-1.4,0.3-2.5,0.3h-0.7V6.4h1.3
		C57.1,6.4,56.3,12.6,54.3,13.4z"/>
	<path class="st0" d="M37.4,22.6h-0.3V23h7v-0.4c-0.4-0.1-0.8-0.2-1-0.5c-0.3-0.4-0.7-1.2-1.2-2.6l-5-14.3h-0.7l-4.9,13.9
		c-0.5,1.4-0.9,2.2-1.2,2.7c-0.3,0.4-0.8,0.7-1.3,0.8V23h4.8v-0.4c-0.7-0.1-1.2-0.2-1.4-0.3c-0.3-0.2-0.5-0.6-0.5-1.1
		c0-0.4,0.1-0.8,0.3-1.4l0.6-1.7h5.1l0.8,2.2c0.2,0.6,0.3,0.9,0.3,1c0,0.2,0.1,0.3,0.1,0.5c0,0.3-0.1,0.5-0.2,0.6
		C38.3,22.6,37.9,22.6,37.4,22.6z M32.9,17.2l2.2-5.9l2.2,5.9H32.9z"/>
	<path class="st0" d="M23.8,6.4c2.6,0,3.2,2.3,3.7,4.7h0.4V5.4H13.4v5.8H14c0.2-1.6,1.1-4.7,3.5-4.7h1.2v13.6c0,0.9,0,1.4-0.1,1.7
		c-0.1,0.3-0.3,0.5-0.5,0.6c-0.3,0.2-0.7,0.3-1.1,0.3h-0.5v0.5h8.4v-0.5h-0.5c-0.5,0-0.8-0.1-1.1-0.3c-0.3-0.2-0.4-0.4-0.5-0.6
		s-0.1-0.8-0.1-1.7V6.4H23.8z"/>
	<path class="st0" d="M10.6,5.2c-0.1,0.5-0.2,0.8-0.3,1C10.2,6.3,10,6.4,9.8,6.4S9.1,6.2,8.5,6C8,5.7,7.5,5.5,7.1,5.4
		C6.6,5.3,6,5.2,5.5,5.2C4,5.2,2.7,5.7,1.7,6.7s-1.5,2.2-1.5,3.6c0,0.8,0.2,1.6,0.5,2.2c0.4,0.7,0.9,1.3,1.5,1.8
		c0.7,0.5,1.8,1.2,3.3,2c1.1,0.6,1.9,1,2.3,1.4c0.4,0.3,0.7,0.7,1,1.1s0.3,0.8,0.3,1.2c0,0.7-0.3,1.3-0.8,1.8S7,22.6,6.1,22.6
		c-1.2,0-2.4-0.5-3.4-1.5c-1.1-1-1.6-2.4-2-4.2H0.3v6.2h1c0.3-0.5,0.4-0.7,0.6-0.8c0.2-0.1,0.4,0.1,1,0.3c0.7,0.3,1.3,0.5,1.8,0.6
		s1,0.2,1.5,0.2c1.7,0,3.1-0.5,4.2-1.6c1.1-1,1.7-2.3,1.7-3.8c0-1.1-0.2-2.7-0.8-3.7c-1-1.4-2.7-2.1-4.3-2.7
		c-0.9-0.4-1.8-0.7-2.4-1.2c-0.2-0.1-0.3-0.2-0.5-0.3C3.7,9.9,3.4,9.6,3.2,9.4C3,9.2,2.9,8.9,2.9,8.5c0-0.6,0.3-1.1,0.7-1.6
		c0.5-0.5,1.2-0.7,2-0.7c1.1,0,2.1,0.4,3.1,1.3c0.9,0.9,1.6,2,1.8,3.5H11l0-5.8l0,0H10.6z"/>
	<path class="st0" d="M11.1,11L11.1,11L11.1,11z"/>
	<rect y="24.6" class="st0" width="62" height="0.8"/>
	<polygon class="st0" points="0,42.1 8,42.1 8,44.9 54,44.9 54,42.1 62,42.1 62,41.3 0,41.3 	"/>
	<path class="st0" d="M44.4,38.5c-0.1,0.2-0.2,0.4-0.3,0.5c-0.2,0.1-0.5,0.2-0.8,0.2h-0.4v0.4h6.2v-0.4h-0.4c-0.3,0-0.6-0.1-0.8-0.2
		s-0.3-0.3-0.4-0.5c-0.1-0.2-0.1-0.6-0.1-1.3v-8.9c0-0.7,0-1.1,0.1-1.3c0.1-0.2,0.2-0.4,0.4-0.5s0.5-0.2,0.8-0.2h0.4V26h-6.2v0.4
		h0.4c0.3,0,0.6,0.1,0.8,0.2s0.3,0.3,0.4,0.5c0.1,0.2,0.1,0.6,0.1,1.3v8.9C44.5,37.9,44.5,38.3,44.4,38.5z"/>
	<path class="st0" d="M30.9,38.5c-0.1,0.2-0.2,0.4-0.4,0.5c-0.2,0.1-0.5,0.2-0.8,0.2h-0.4v0.3h5.4c0.8,0,1.3-0.1,1.7-0.1
		c0.8-0.2,1.5-0.4,2.1-0.7s1.1-0.7,1.5-1.3c0.4-0.5,0.8-1.2,1-2c0.3-0.8,0.4-1.7,0.4-2.6c0-1.4-0.3-2.6-0.8-3.7s-1.4-1.9-2.4-2.4
		c-0.9-0.4-2-0.7-3.4-0.7h-5.4v0.4h0.4c0.3,0,0.6,0.1,0.8,0.2c0.2,0.1,0.3,0.3,0.4,0.5s0.1,0.6,0.1,1.3v8.9
		C31,37.9,31,38.3,30.9,38.5z M33.9,26.8c1,0,1.7,0.1,2.1,0.3c0.6,0.3,1.1,0.8,1.5,1.7c0.5,1,0.7,2.4,0.7,4.1c0,2.2-0.3,3.7-1.1,4.8
		c-0.5,0.8-1.3,1.1-2.3,1.1c-0.3,0-0.5,0-0.7-0.1c-0.1-0.1-0.2-0.2-0.2-0.3c-0.1-0.1-0.1-0.5-0.1-1L33.9,26.8L33.9,26.8z"/>
	<path class="st0" d="M18.4,38.5c-0.1,0.2-0.2,0.4-0.4,0.5c-0.2,0.1-0.5,0.2-0.9,0.2h-0.4v0.4h10.9l0.2-4.4h-0.3
		c-0.6,2.2-1.9,3.7-3.9,3.7h-0.8c-0.4,0-0.6-0.1-0.8-0.2s-0.3-0.2-0.3-0.4c-0.1-0.2-0.1-0.6-0.1-1.4v-4.5c0.6,0,1.6,0.1,1.9,0.2
		c0.7,0.3,1,1.6,1.1,2.3H25v-5.5h-0.4c0,2.3-1.2,2.4-2.7,2.4h-0.3v-5h1.3c0.9,0,1.6,0.1,2,0.2c1.6,0.5,1.9,1.9,2.1,3.4l0,0h0.4V26
		H16.7v0.4h0.4c0.4,0,0.7,0.1,1,0.3c0.2,0.1,0.3,0.3,0.3,0.5c0,0.1,0.1,0.5,0.1,1.1v8.9C18.5,37.9,18.5,38.3,18.4,38.5z"/>
	<path class="st0" d="M1.7,37.9c-0.1,0.3-0.1,0.6-0.3,0.7c-0.1,0.2-0.3,0.3-0.5,0.4c-0.2,0.1-0.4,0.1-0.7,0.1h0v0.4H4v-0.4
		c-0.5,0-0.9-0.1-1.1-0.3c-0.2-0.2-0.4-0.5-0.5-0.8c0-0.2,0-0.6,0-1.2v-9.5l4.3,12.2h0.2l4.2-12.3v10c0,0.7,0,1.1-0.1,1.3
		s-0.2,0.4-0.3,0.5c-0.2,0.1-0.4,0.2-0.8,0.2H9.5v0.4h5.7v-0.4h-0.4c-0.3,0-0.5-0.1-0.7-0.2c-0.2-0.1-0.3-0.3-0.4-0.5
		c-0.1-0.2-0.1-0.6-0.1-1.3v-8.9c0-0.7,0-1.1,0.1-1.3c0.1-0.2,0.2-0.4,0.3-0.5c0.2-0.1,0.4-0.2,0.8-0.2h0.4V26h-4.4l-3,8.9L4.7,26
		H0.2v0.4h0.3c0.3,0,0.5,0.1,0.7,0.2s0.3,0.3,0.4,0.5s0.1,0.6,0.1,1.3v8.5C1.7,37.5,1.7,37.8,1.7,37.9z"/>
	<path class="st0" d="M56.7,39.2h-0.2v0.4h5.4v-0.4c-0.3,0-0.6-0.2-0.8-0.4c-0.2-0.3-0.6-1-0.9-2l-3.8-11.1h-0.5L52,36.5
		c-0.4,1-0.7,1.7-1,2.1c-0.3,0.3-0.6,0.5-1,0.6v0.4h3.7v-0.4c-0.6-0.1-0.9-0.1-1.1-0.2c-0.3-0.2-0.4-0.5-0.4-0.8s0.1-0.7,0.2-1.1
		l0.5-1.3h3.9l0.6,1.7c0.1,0.3,0.2,0.6,0.2,0.7c0,0,0,0,0,0.1s0.1,0.2,0.1,0.4s-0.1,0.4-0.2,0.5C57.5,39.1,57.2,39.2,56.7,39.2z
		 M53.2,34.9l1.7-4.6l1.7,4.6H53.2z"/>
</g>
</svg>
