<?xml version="1.0" encoding="utf-8"?>
<!-- Generator: Adobe Illustrator 27.0.1, SVG Export Plug-In . SVG Version: 6.00 Build 0)  -->
<svg version="1.1" id="Слой_1" xmlns="http://www.w3.org/2000/svg" xmlns:xlink="http://www.w3.org/1999/xlink" x="0px" y="0px"
	 viewBox="0 0 606.9 161.2" style="enable-background:new 0 0 606.9 161.2;" xml:space="preserve">
<style type="text/css">
	.st0{fill:#FFFFFF;}
</style>
<g transform="translate(0.000000,792.000000) scale(0.100000,-0.100000)">
	<path class="st0" d="M321.6,7917.8c-6.1-1-18.5-2.8-27.5-4.1s-19.5-3.1-23.4-3.9c-3.9-1-11.6-2.8-17.3-4.3
		c-19.1-4.5-55.8-16.3-70.2-22.6c-17.3-7.7-35.6-16.7-43.8-21.8c-12.6-7.7-24.4-15.3-25.4-16.5c-0.6-0.6-4.3-3.5-8.1-6.1
		c-17.3-12-45-39.7-57-57c-2.6-3.9-5.5-7.5-6.1-8.1c-2-1.8-13.2-21.2-17.7-30.5c-11.4-24.2-15.3-36.4-22.8-72.9
		c-2.8-13.6-2.8-68-0.2-82.2c1.2-5.9,3.1-15.9,4.3-22c4.9-25.6,19.3-59.2,36.4-84.5c9.4-13.8,38.9-45.8,54.3-58.6
		c7.7-6.3,38.7-27.3,51.5-34.8c10.8-6.3,62.1-31.8,63.9-31.8c0.6,0,5.7-1.8,11-4.3c5.3-2.4,11.4-4.9,13.6-5.9
		c2.2-0.8,6.3-2.4,9.2-3.7c16.9-6.9,40.7-15.3,99.7-35c98.7-32.8,124.6-43.6,154.3-63.7c13.2-9.2,18.7-14.2,28.9-27.1
		c11.8-14.9,17.9-40.3,14-58.2c-7.7-37.2-46-64.5-105.6-75.7c-41.5-7.7-75.1-9-117-4.3c-82,9.2-170.2,36.8-266.8,83.7
		c-12.4,6.1-23.2,11-24,11c-0.6,0-1.2-47-1.2-104.4V6964l8.8-3.7c4.7-2,12.4-5.3,17.1-7.3c4.9-2.2,10-3.9,11.4-3.9
		c1.6,0,3.5-0.6,4.1-1.4c2.6-2.6,53.3-19.7,84.9-28.7c30.7-8.8,47.2-12.6,79.4-18.9c92.4-17.7,213.1-15.9,289,4.1
		c38.7,10.2,62.1,18.7,91.6,33.6c21.6,10.8,52.3,30.1,65.7,41.5c8.3,6.9,35.4,34.2,42.3,42.1c21,25,39.1,62.3,48.4,99.7
		c9.4,37.9,8.1,90.2-2.8,132.3c-22.4,85.9-86.1,149.6-198.8,199.3c-18.1,7.7-21.8,9.4-35.2,14.5c-7.7,3.1-16.5,6.5-19.3,7.5
		c-2.8,1.2-6.9,2.8-9.2,3.9c-2.2,1-38.5,13-80.4,27.1c-88.7,29.5-100.3,33.8-127.2,47.4c-49.7,25.4-74.5,65.7-63.3,102.6
		c4.9,16.1,10.6,25,23.2,36.8c39.3,36.2,130.3,49.7,226.3,33.2c6.7-1.2,11.8-2.2,34.2-7.3c38.7-8.5,99.1-28.3,134.7-44
		c3.9-1.6,9-3.9,11.2-4.7c2.2-1,19.5-9.2,38.3-18.1c18.7-9.2,35-16.5,36-16.5c1.4,0,1.8,37.2,1.6,104.2l-0.6,104.2l-25.4,10
		c-14,5.5-27.3,10.8-29.5,11.6c-24,10.4-103.2,33-142.5,40.7c-24,4.7-30.7,5.9-46.8,8.1c-9,1-22.8,3.1-30.9,4.1
		C447,7920.4,337.3,7920.2,321.6,7917.8z"/>
	<path class="st0" d="M1011.5,7594.4c0-320,0-321.4,11.2-378.6c6.9-34.8,23.6-88.3,29.3-93.6c0.8-0.6,6.1-10.6,12.2-22.4
		c13.2-25.8,20.4-36.4,33.2-49.9c5.3-5.5,9.8-11.2,9.8-12.4s6.1-7.9,13.8-14.9c7.5-6.9,17.7-16.3,22.8-21
		c10.4-9.8,35.8-26.3,56.2-36.4c7.7-3.9,14.5-7.5,15.3-8.3c3.9-5.3,56-22.2,89.6-29.1c71.8-14.7,169.9-15.1,242-0.8
		c35,6.9,93.6,25.8,93.6,30.3c0,1,3.1,2.8,6.9,4.1c3.9,1.2,14.2,6.5,23,11.8c8.8,5.3,18.5,10.8,21.4,12.4
		c2.8,1.4,11.6,8.5,19.1,15.9c7.7,7.1,16.5,14.2,19.3,15.9c2.8,1.4,12.4,11.8,21.4,22.8c8.8,11,17.1,21,18.3,22
		c3.1,2.6,11.2,14.9,15.3,22.4c15.3,28.3,20.1,38.5,20.1,40.9c0,1.6,0.8,2.8,1.8,2.8c4.9,0,22,53.9,29.5,92.6
		c11.4,58.6,11.4,61.5,11.4,377.5v291h-105.8h-105.8V7620c0-286-0.8-315.3-9.4-355.4c-4.7-22.4-15.1-50.9-20.6-56.6
		c-1.4-1.4-2.6-3.7-2.6-4.9c0-3.1-19.9-30.1-27.7-37.2c-17.1-16.3-29.3-24.6-47-32.8c-10.8-4.7-23-9.4-27.3-10
		c-4.5-0.8-7.9-2-7.9-3.1c0-4.9-54.1-10-84.5-7.7c-21.6,1.6-43.8,5.7-43.8,7.9c0,0.8-4.3,2.4-9.6,3.9c-30.3,7.5-68,33.6-86.5,60
		c-22,30.9-31.3,54.1-40.1,98.7c-5.3,27.1-6.3,81-6.3,338.5v268h-105.8h-105.8V7594.4z"/>
	<path class="st0" d="M2105.5,7887c-0.6-1.4-0.8-220.6-0.6-487l0.6-484.4l116-0.6c63.9-0.2,118,0,120.7,0.6l4.5,1v305.9l0.2,305.7
		l4.1-5.1c2.2-2.8,5.5-6.7,7.1-8.8c1.4-1.8,2.8-4.1,2.8-4.7s3.1-5.1,6.7-10c3.5-4.7,8.3-11.4,10.6-14.5c2.2-3.1,5.7-7.1,7.7-8.8
		c1.8-1.8,3.5-4.1,3.5-5.3c0-1.6,13.2-20.1,22-30.5c0.8-1,3.5-5.1,5.5-8.5c2.2-3.7,4.7-6.7,5.5-6.7c1,0,2.6-2.2,3.7-5.1
		c1-2.8,2.8-5.1,3.9-5.1c1,0,2.8-2.6,4.3-6.1c1.4-3.3,3.9-6.1,5.3-6.1c1.6,0,2.8-1.2,2.8-2.4c0-2.4,15.5-24,23.2-32.6
		c1.8-2,3.3-4.3,3.3-5.1c0-1.6,17.1-24.6,23.2-31.5c1.8-2,3.3-4.5,3.3-5.3c0-1,2-3.9,4.5-6.5s7.5-9.4,11.4-15.1
		c4.1-5.7,7.7-10.8,8.5-11.4c0.6-0.6,4.5-5.5,8.3-11.2c3.7-5.5,12.8-17.9,20.1-27.7s14.7-19.7,16.3-22.4c1.6-2.4,4.7-6.3,6.7-8.3
		c1.8-2,3.5-4.5,3.5-5.3c0-1,2.8-4.9,6.1-8.5c3.5-3.7,6.1-7.5,6.1-8.1c0-0.8,1.6-3.5,3.7-5.7c1.8-2.4,5.7-7.7,8.5-11.8
		c2.8-3.9,6.9-9.4,9.2-12.2c2.2-2.6,10.4-13.4,18.3-24.2c10-13.6,15.3-19.3,18.3-19.3c3.5,0.2,15.1,13.2,24.4,28.1
		c1.2,1.6,3.5,4.7,5.1,6.7c6.5,7.7,8.1,9.8,8.1,11c0,0.6,2.2,3.7,5.1,6.7c2.8,3.1,6.3,7.9,7.7,11.2c1.2,3.1,3.1,5.5,3.7,5.5
		c0.8,0,4.9,5.3,9.2,11.6c4.5,6.5,9,13,10.4,14.9c6.3,7.9,20.6,27.1,25,33.8c2.8,4.1,6.7,8.8,8.8,10.6c1.8,1.8,3.5,4.1,3.5,5.1
		c0,1.4,11.2,16.9,14.2,19.7c0.6,0.6,6.5,8.3,12.8,17.3c14.7,20.8,15.5,21.6,27.7,38.3c5.7,7.5,10.4,14.7,10.4,15.5
		c0,1,1.4,2.2,3.1,3.1c1.6,0.6,4.1,3.5,5.1,6.3c1,2.8,2.8,5.1,4.1,5.1c1,0,2,1.2,2,2.6s4.5,7.9,10.2,14.7c5.5,6.7,10.2,13,10.2,14
		s1.2,2.8,2.6,4.1c1.6,1.2,10,12.4,18.7,24.6c9,12.4,16.7,22.8,17.3,23.4c0.6,0.6,2.8,3.7,4.9,7.1c4.3,6.5,6.5,9.6,12,15.5
		c1.8,2,3.5,4.5,3.5,5.1c0,0.8,3.3,5.3,7.1,10.2c3.9,4.7,7.1,9.6,7.1,10.8s1,2.2,2,2.2c1.2,0,3.1,2.2,4.1,5.1c1,2.8,2.8,5.1,4.1,5.1
		c1,0,2,1,2,2.2s1.4,3.5,3.1,5.1c2.6,2.8,3.1-31.5,3.5-305.9l0.6-309l118-0.6c64.9-0.2,120.1,0,122.7,0.6l4.5,1l-0.4,486l-0.6,485.8
		l-131.7,0.6l-131.7,0.4l-4.5-6.5c-2.6-3.7-5.3-7.1-5.9-7.7c-3.1-2.8-14.2-20.4-14.2-22.2c0-1.4-1.4-2.8-3.1-3.5
		c-1.6-0.6-3.5-2.8-4.1-5.1c-0.8-2-2.4-5.1-3.7-6.3c-1.4-1.4-6.1-8.1-10.6-14.9c-4.5-6.7-9.4-13.4-10.6-14.9
		c-1.4-1.4-2.6-3.5-2.6-4.5c0-1-1.6-3.5-3.7-5.5c-2-2-9-11.4-15.3-21c-14.9-21.6-35.2-51.3-37.4-53.9c-0.8-1-5.9-8.3-11.2-16.3
		c-5.3-7.7-16.1-23.4-23.8-34.6c-7.9-11.2-15.5-22.4-16.5-24.8c-1-2.6-2.6-4.7-3.7-4.7s-2.8-2.4-4.1-5.3
		c-1.4-2.8-7.3-11.8-13.4-19.9s-12.4-17.5-14.2-20.8c-1.8-3.3-11.2-16.9-20.6-30.3c-9.4-13.4-24.8-35.8-34.4-49.9
		s-19.1-27.7-21.2-30.3l-4.1-5.1l-4.3,8.1c-2.4,4.3-14.5,22.6-26.7,40.5c-22.8,33-38.9,56.4-55.2,80.4c-4.9,7.3-9.6,14-10.6,15.3
		c-4.7,6.5-19.9,28.1-26.9,38.7c-4.5,6.7-8.5,12.6-9.2,13.2c-0.6,0.6-4.1,5.7-7.5,11.2c-3.7,5.7-7.9,11.6-9.4,13.2
		c-1.6,1.6-4.1,5.3-5.5,7.9c-1.4,2.8-3.5,6.1-4.3,7.1c-3.7,4.7-19.5,27.1-27.3,38.9c-4.3,6.7-8.8,13.2-9.8,14.2
		c-1.6,2-29.9,41.9-34,47.8c-11,16.5-19.9,29.5-27.5,39.7c-5.1,6.7-10.6,14.9-12.2,17.9c-1.8,3.1-5.1,7.5-7.3,9.8
		c-3.7,3.7-7.7,3.9-133.1,3.9C2134.2,7889.5,2106.1,7888.9,2105.5,7887z"/>
	<path class="st0" d="M3454.9,7887c-0.6-1.4-0.8-220.6-0.6-487l0.6-484.4l116-0.6c63.9-0.2,118,0,120.7,0.6l4.5,1v305.9l0.2,305.7
		l4.1-5.1c2.2-2.8,5.5-6.7,7.1-8.8c1.4-1.8,2.8-4.1,2.8-4.7s3.1-5.1,6.7-10c3.5-4.7,8.3-11.4,10.6-14.5c2.2-3.1,5.7-7.1,7.7-8.8
		c1.8-1.8,3.5-4.1,3.5-5.3c0-1.6,13.2-20.1,22-30.5c0.8-1,3.5-5.1,5.5-8.5c2.2-3.7,4.7-6.7,5.5-6.7c1,0,2.6-2.2,3.7-5.1
		c1-2.8,2.8-5.1,3.9-5.1s2.8-2.6,4.3-6.1c1.4-3.3,3.9-6.1,5.3-6.1c1.6,0,2.8-1.2,2.8-2.4c0-2.4,15.5-24,23.2-32.6
		c1.8-2,3.3-4.3,3.3-5.1c0-1.6,17.1-24.6,23.2-31.5c1.8-2,3.3-4.5,3.3-5.3c0-1,2-3.9,4.5-6.5s7.5-9.4,11.4-15.1
		c4.1-5.7,7.7-10.8,8.5-11.4c0.6-0.6,4.5-5.5,8.3-11.2c3.7-5.5,12.8-17.9,20.1-27.7c7.3-9.8,14.7-19.7,16.3-22.4
		c1.6-2.4,4.7-6.3,6.7-8.3c1.8-2,3.5-4.5,3.5-5.3c0-1,2.8-4.9,6.1-8.5c3.5-3.7,6.1-7.5,6.1-8.1c0-0.8,1.6-3.5,3.7-5.7
		c1.8-2.4,5.7-7.7,8.5-11.8c2.8-3.9,6.9-9.4,9.2-12.2c2.2-2.6,10.4-13.4,18.3-24.2c10-13.6,15.3-19.3,18.3-19.3
		c3.5,0.2,15.1,13.2,24.4,28.1c1.2,1.6,3.5,4.7,5.1,6.7c6.5,7.7,8.1,9.8,8.1,11c0,0.6,2.2,3.7,5.1,6.7c2.8,3.1,6.3,7.9,7.7,11.2
		c1.2,3.1,3.1,5.5,3.7,5.5c0.8,0,4.9,5.3,9.2,11.6c4.5,6.5,9,13,10.4,14.9c6.3,7.9,20.6,27.1,25,33.8c2.8,4.1,6.7,8.8,8.8,10.6
		c1.8,1.8,3.5,4.1,3.5,5.1c0,1.4,11.2,16.9,14.2,19.7c0.6,0.6,6.5,8.3,12.8,17.3c14.7,20.8,15.5,21.6,27.7,38.3
		c5.7,7.5,10.4,14.7,10.4,15.5c0,1,1.4,2.2,3.1,3.1c1.6,0.6,4.1,3.5,5.1,6.3c1,2.8,2.8,5.1,4.1,5.1c1,0,2,1.2,2,2.6
		s4.5,7.9,10.2,14.7c5.5,6.7,10.2,13,10.2,14s1.2,2.8,2.6,4.1c1.6,1.2,10,12.4,18.7,24.6c9,12.4,16.7,22.8,17.3,23.4
		c0.6,0.6,2.8,3.7,4.9,7.1c4.3,6.5,6.5,9.6,12,15.5c1.8,2,3.5,4.5,3.5,5.1c0,0.8,3.3,5.3,7.1,10.2c3.9,4.7,7.1,9.6,7.1,10.8
		s1,2.2,2,2.2c1.2,0,3.1,2.2,4.1,5.1s2.8,5.1,4.1,5.1c1,0,2,1,2,2.2s1.4,3.5,3.1,5.1c2.6,2.8,3.1-31.5,3.5-305.9l0.6-309l118-0.6
		c64.9-0.2,120.1,0,122.7,0.6l4.5,1l-0.4,486l-0.6,485.8l-131.7,0.6l-131.7,0.4l-4.5-6.5c-2.6-3.7-5.3-7.1-5.9-7.7
		c-3.1-2.8-14.2-20.4-14.2-22.2c0-1.4-1.4-2.8-3.1-3.5c-1.6-0.6-3.5-2.8-4.1-5.1c-0.8-2-2.4-5.1-3.7-6.3c-1.4-1.4-6.1-8.1-10.6-14.9
		c-4.5-6.7-9.4-13.4-10.6-14.9c-1.4-1.4-2.6-3.5-2.6-4.5c0-1-1.6-3.5-3.7-5.5s-9-11.4-15.3-21c-14.9-21.6-35.2-51.3-37.4-53.9
		c-0.8-1-5.9-8.3-11.2-16.3c-5.3-7.7-16.1-23.4-23.8-34.6c-7.9-11.2-15.5-22.4-16.5-24.8c-1-2.6-2.6-4.7-3.7-4.7s-2.8-2.4-4.1-5.3
		c-1.4-2.8-7.3-11.8-13.4-19.9c-6.1-8.1-12.4-17.5-14.2-20.8c-1.8-3.3-11.2-16.9-20.6-30.3c-9.4-13.4-24.8-35.8-34.4-49.9
		s-19.1-27.7-21.2-30.3l-4.1-5.1l-4.3,8.1c-2.4,4.3-14.5,22.6-26.7,40.5c-22.8,33-38.9,56.4-55.2,80.4c-4.9,7.3-9.6,14-10.6,15.3
		c-4.7,6.5-19.9,28.1-26.9,38.7c-4.5,6.7-8.5,12.6-9.2,13.2c-0.6,0.6-4.1,5.7-7.5,11.2c-3.7,5.7-7.9,11.6-9.4,13.2
		c-1.6,1.6-4.1,5.3-5.5,7.9c-1.4,2.8-3.5,6.1-4.3,7.1c-3.7,4.7-19.5,27.1-27.3,38.9c-4.3,6.7-8.8,13.2-9.8,14.2
		c-1.6,2-29.9,41.9-34,47.8c-11,16.5-19.9,29.5-27.5,39.7c-5.1,6.7-10.6,14.9-12.2,17.9c-1.8,3.1-5.1,7.5-7.3,9.8
		c-3.7,3.7-7.7,3.9-133.1,3.9C3483.6,7889.5,3455.5,7888.9,3454.9,7887z"/>
	<path class="st0" d="M4805.4,7402v-485.4h107.9h107.9V7402v485.4h-107.9h-107.9V7402z"/>
	<path class="st0" d="M5263.3,7781.6v-99.7h147.6h147.6v-385.7v-385.7h107.9h107.9v385.7v385.7h147.6h147.6v99.7v99.7h-403h-403
		V7781.6z"/>
	<path class="st0" d="M2962,6744.2c-3.1-0.6-4.7-2.4-4.7-4.9c0-2-0.8-3.9-2-3.9c-1,0-2-2.2-2-5.1c0-2.8-0.8-5.1-2-5.1
		c-1,0-2-3.3-2-7.1c0-4.9-1-7.1-3.1-7.1c-1.6,0-3.1-1.8-3.1-3.9c0-2.2-0.8-4.7-2-5.3c-1-0.6-2-3.1-2-5.3c0-2-0.8-3.9-2-3.9
		c-1,0-2-2.2-2-5.1c0-3.3-1.2-5.1-3.1-5.1c-1.6,0-3.1-1.8-3.1-3.9c0-2.2-0.8-4.7-2-5.3c-1-0.6-2-3.9-2-7.3c0-3.3-0.8-5.9-2-5.9
		c-1,0-2-2.2-2-5.1c0-3.3-1.2-5.1-3.1-5.1s-3.1-1.8-3.1-5.1c0-2.8-0.8-5.1-2-5.1c-1,0-2-1.8-2-4.1s-0.8-4.1-2-4.1c-1,0-2-2.2-2-4.9
		c0-2.6-1.4-5.3-3.1-6.1c-1.8-0.6-3.1-3.7-3.1-7.3c0-3.3-0.8-6.1-2-6.1c-1,0-2-2.2-2-5.1s-0.8-5.1-2-5.1c-1,0-2-1.8-2-3.9
		c0-2-1.4-4.3-3.1-5.1c-1.6-0.6-3.1-3.1-3.1-5.3s-0.8-4.1-2-4.1c-1,0-2-2.2-2-5.1c0-2.8-0.8-5.1-2-5.1c-1,0-2.4-3.3-3.3-7.1
		c-0.6-3.9-2-7.1-3.1-7.1c-1,0-1.8-1.8-1.8-4.1s-0.8-4.1-2-4.1c-1,0-2-2.2-2-4.9c0-2.6-1.4-5.3-3.1-6.1c-1.6-0.6-3.1-3.1-3.1-5.3
		s-0.8-4.1-2-4.1c-1,0-2-1.8-2-4.1s-0.8-4.1-2-4.1c-1,0-2-3.1-2-6.9c0-4.3-1.2-7.3-3.1-8.1c-1.6-0.6-3.1-3.1-3.1-5.3s-0.8-4.1-2-4.1
		c-1,0-2-2.2-2-5.1c0-2.8-0.8-5.1-2-5.1c-1,0-2-1.8-2-3.9c0-2-1.4-4.3-3.1-5.1c-1.8-0.6-3.1-3.7-3.1-7.3c0-3.3-0.8-6.1-2-6.1
		c-1,0-2-2.2-2-5.1s-0.8-5.1-2-5.1c-1,0-2-1.8-2-3.9c0-2-1.4-4.3-3.1-5.1c-1.6-0.6-3.1-3.1-3.1-5.3s-0.8-4.1-2-4.1c-1,0-2-2.2-2-5.1
		c0-2.8-0.8-5.1-2-5.1c-1,0-2-3.3-2-7.1c0-4.9-1-7.1-3.1-7.1c-1.6,0-3.1-1.8-3.1-4.1s-0.8-4.1-2-4.1c-1,0-2-2.2-2-5.1
		c0-2.8-0.8-5.1-2-5.1c-1,0-2-2.2-2-5.1c0-3.3-1.2-5.1-3.1-5.1c-1.6,0-3.1-1.8-3.1-3.9c0-2.2-0.8-4.7-2-5.3c-1-0.6-2-3.9-2-7.3
		c0-3.3-0.8-5.9-2-5.9c-1,0-2-2.2-2-5.1c0-3.3-1.2-5.1-3.1-5.1s-3.1-1.8-3.1-5.1c0-2.8-0.8-5.1-2-5.1c-1,0-2-1.8-2-4.1
		s-0.8-4.1-2-4.1c-1,0-2-2.2-2-5.1c0-3.3-1.2-5.1-3.1-5.1c-4.9,0-3.7-7.5,1.6-9c2.4-0.6,15.9-1.2,29.9-1.2c23.2,0,25.8,0.4,29.1,4.1
		c1.8,2.2,3.5,5.5,3.5,7.1c0,1.4,1,3.5,2,4.1c1.2,0.6,2,2.8,2,5.1c0,2,1.4,4.1,3.1,4.9c1.8,0.6,3.1,3.7,3.1,7.3c0,3.3,1,6.1,2,6.1
		c1.2,0,2,2.2,2,5.1c0,2.8,1,5.1,2,5.1c1.2,0,2,1.8,2,3.9c0,2,1.4,4.3,3.1,5.1c1.6,0.6,3.1,3.1,3.1,5.3s1,4.1,2,4.1
		c1.2,0,2,3.3,2,7.1s1,7.1,2,7.1c1.2,0,2,2.2,2,5.1c0,3.3,1.2,5.1,3.1,5.1c1.6,0,3.1,1.8,3.1,4.1s1,4.1,2,4.1c1.2,0,2,2.2,2,5.1v5.1
		h115h115v-7.1c0-3.9,1-7.1,2-7.1c1.2,0,2-1.2,2-2.6c0-4.3,6.1-15.7,8.3-15.7c1,0,1.8-2.2,1.8-5.1c0-2.8,1-5.1,2-5.1
		c1.2,0,2-2.2,2-5.1s2.2-8.8,5.1-13.2c2.8-4.5,5.1-9.4,5.1-11.2c0-1.6,1-3.1,2-3.1c1.2,0,2-2.2,2-5.1c0-3.3,1.2-5.1,3.1-5.1
		c2,0,3.1-2.2,3.1-7.1c0-3.9,0.8-7.1,1.8-7.1s2.2-2,2.6-4.5c0.6-4.7,1.2-4.7,32.8-5.3c28.3-0.4,32.2-0.2,33.4,2.8c0.8,2,0,4.5-2,5.9
		s-3.5,4.5-3.5,6.9c0,2.2-0.8,4.3-2,4.3c-1,0-2,1.8-2,4.1s-0.8,4.1-2,4.1c-1,0-2,2.2-2,5.1c0,3.3-1.2,5.1-3.1,5.1
		c-2,0-3.1,2.2-3.1,7.1c0,3.9-0.8,7.1-2,7.1c-1,0-2,1.8-2,3.9c0,2.2-0.8,4.7-2,5.3c-1,0.6-2,3.1-2,5.3c0,2-1.4,3.9-3.1,3.9
		c-1.8,0-3.1,1.8-3.1,5.1c0,2.8-0.8,5.1-2,5.1c-1,0-2,2.2-2,5.1c0,2.8-0.8,5.1-2,5.1c-1,0-2,1.6-2,3.7c0,2-1.4,5.5-3.1,7.7
		c-1.6,2-3.1,5.5-3.1,7.5c0,1.8-0.8,3.5-2,3.5c-1,0-2,2.2-2,5.1c0,2.8-0.8,5.1-1.8,5.1c-1,0-2.4,2.2-3.1,5.1
		c-0.8,2.8-2.2,5.1-3.3,5.1c-1.2,0-2,2.6-2,5.9c0,3.5-0.8,6.7-2,7.3c-1,0.6-2,3.1-2,5.3c0,2-1.4,3.9-3.1,3.9c-1.8,0-3.1,1.8-3.1,5.1
		c0,2.8-0.8,5.1-2,5.1c-1,0-2,1.8-2,3.9c0,2.2-0.8,4.7-2,5.3c-1,0.6-2,3.1-2,5.3c0,2-1.4,3.9-3.1,3.9c-2,0-3.1,2.2-3.1,7.1
		c0,3.9-0.8,7.1-2,7.1c-1,0-2,2.2-2,5.1c0,2.8-0.8,5.1-2,5.1c-1,0-2,1.8-2,4.1s-1.4,4.1-3.1,4.1c-1.8,0-3.1,1.8-3.1,5.1
		c0,2.8-0.8,5.1-2,5.1c-1,0-2,2.2-2,5.1c0,2.8-0.8,5.1-2,5.1c-1,0-2,2.8-2,6.1c0,3.7-1.2,6.7-3.1,7.3c-1.6,0.8-3.1,3.1-3.1,5.1
		c0,2-0.8,3.9-2,3.9c-1,0-2,2.2-2,5.1c0,2.8-0.8,5.1-2,5.1c-1,0-2,1.8-2,4.1s-1.4,4.7-3.1,5.3c-1.6,0.8-3.1,3.1-3.1,5.1
		c0,2-0.8,3.9-2,3.9c-1,0-2,3.3-2,7.1c0,3.9-0.8,7.1-2,7.1c-1,0-2,1.8-2,4.1s-1.4,4.7-3.1,5.3c-1.6,0.8-3.1,3.5-3.1,6.1
		c0,2.6-0.8,4.9-2,4.9c-1,0-2,1.8-2,4.1s-0.8,4.1-2,4.1c-1,0-2,2.8-2,6.1c0,3.7-1.2,6.7-3.1,7.3c-1.6,0.8-3.1,3.5-3.1,6.1
		c0,2.6-0.8,4.9-2,4.9c-1,0-2,1.2-2,2.6c0,4.3-6.1,15.7-8.3,15.7c-1,0-1.8,2.2-1.8,5.1s-0.8,5.1-2,5.1c-1,0-2,2.2-2,5.1
		c0,2.8-2.2,8.8-5.1,13.2c-2.8,4.5-5.1,9.4-5.1,11.2c0,1.6-0.8,3.1-2,3.1c-1,0-2,2.2-2,5.1c0,3.3-1.2,5.1-3.1,5.1
		c-1.6,0-3.1,1.6-3.1,3.9s-1.8,4.3-4.5,5.1C3004.7,6745.6,2969.1,6745.6,2962,6744.2z M2989.1,6661.4c1.6-1.6,2.8-4.9,2.8-7.1
		c0-2.4,1-4.3,2-4.3c1.2,0,2-1.2,2-2.6c0-4.3,6.1-15.7,8.3-15.7c1,0,1.8-3.3,1.8-7.1c0-3.9,1-7.1,2-7.1c1.2,0,2-2.2,2-5.1
		c0-3.3,1.2-5.1,3.1-5.1c1.6,0,3.1-1.8,3.1-3.9c0-2.2,1-4.7,2-5.3c1.2-0.6,2-3.1,2-5.3c0-2,1-3.9,2-3.9c1.2,0,2-3.3,2-7.1
		c0-4.9,1-7.1,3.1-7.1c1.8,0,3.1-1.8,3.1-5.1c0-2.8,1-5.1,2-5.1c1.2,0,2-1.8,2-3.9c0-2.2,1-4.7,2-5.3c1.2-0.6,2-3.1,2-5.3
		c0-2,1.4-3.9,3.1-3.9c1.8,0,3.1-1.8,3.1-5.1c0-2.8,1-5.1,2-5.1c1.2,0,2-2.6,2-5.9c0-3.5,1-6.7,2-7.3c1.2-0.6,2-3.1,2-5.3
		c0-2,1.4-3.9,3.1-3.9c1.8,0,3.1-1.8,3.1-5.1c0-2.8,1-5.1,2-5.1c1.2,0,2-2.2,2-5.1c0-2.8,1-5.1,2-5.1c1.2,0,2-2.8,2-6.1
		c0-3.7,1.2-6.7,3.1-7.3c1.6-0.8,3.1-3.1,3.1-5.1c0-3.7-3.1-3.9-88.5-3.9c-57.6,0-88.5,0.6-88.5,2c0,1.2,1,2,2,2c1.2,0,2,2.2,2,5.1
		c0,2.8,0.8,5.1,1.8,5.1c2.2,0,8.3,11.4,8.3,15.7c0,1.4,1,2.6,2,2.6c1.2,0,2,3.3,2,7.1c0,4.9,1,7.1,3.1,7.1c1.8,0,3.1,1.8,3.1,5.1
		c0,2.8,1,5.1,2,5.1c1.2,0,2,1.8,2,4.1c0,2.2,1,4.1,2,4.1c1.2,0,2,2.2,2,4.9s1.4,5.3,3.1,6.1c1.6,0.6,3.1,3.1,3.1,5.3
		c0,2.2,1,4.1,2,4.1c1.2,0,2,2.8,2,6.1c0,3.5,1,6.1,2,6.1c1.2,0,2,2.2,2,4.9s1.4,5.3,3.1,6.1c1.6,0.6,3.1,3.1,3.1,5.3
		c0,2.2,1,4.1,2,4.1c1.2,0,2,1.8,2,3.9c0,2.2,1,4.7,2,5.3c1.2,0.6,2,3.9,2,7.1c0,3.1,1.4,6.1,3.1,6.9c1.6,0.6,3.1,3.1,3.1,5.3
		c0,2.2,1,4.1,2,4.1c1.2,0,2,2.2,2,5.1c0,2.8,1,5.1,2,5.1c1.2,0,2,1.8,2,3.9c0,2,1.4,4.3,3.1,5.1c1.8,0.6,3.1,3.7,3.1,7.3
		c0,3.3,1,6.1,2,6.1c1.2,0,2,2.2,2,5.1C2981.7,6664.8,2984.6,6665.6,2989.1,6661.4z"/>
	<path class="st0" d="M260.5,6523.8V6308l161.4,0.4l161.2,0.6l0.6,26.1l0.6,25.8H450.8H317.5v69.2v69.2h117h117v25.4v25.4h-117h-117
		v69.2v69.2h131.3h131.3v25.4v25.4H420.3H260.5V6523.8z"/>
	<path class="st0" d="M671.7,6523.8v-215.9l28.1,0.6l27.9,0.6l0.6,165.5c0.2,90.8,1,165.3,1.6,165.3c1.8,0,6.9-5.7,6.9-7.5
		c0-1,3.3-5.3,7.1-9.4c3.9-4.1,7.1-8.3,7.1-9.6c0-1,4.7-6.7,10.2-12.4c5.7-5.7,10.2-11.6,10.2-12.8c0.2-2.8,5.1-9.4,6.9-9.4
		c2.2,0,7.3-5.5,7.3-7.9c0-1.2,1-2.2,2-2.2c1.2,0,2-1.8,2-4.1c0-2.2,1.4-4.1,3.1-4.1s3.1-0.6,3.1-1.4c0-2.6,9.6-12.8,12-12.8
		c1.2,0,2.2-1.8,2.2-4.1c0-4.5,8.3-14.2,12.2-14.2c1,0,2-2,2-4.7c0-2.4,1.8-5.9,4.1-7.5s4.1-4.1,4.1-5.5c0-1.4,1-2.6,2.2-2.6
		c3.1,0,7.9-5.3,7.9-8.5c0.2-3.1,4.9-9.8,6.9-9.8c2.2,0,7.3-5.5,7.3-7.9c0-1.2,1-2.2,2-2.2c1.2,0,2-1.4,2-3.1c0-1.8,1.4-3.7,3.1-4.3
		c1.6-0.8,3.1-2.2,3.1-3.7c0-1.2,1.8-3.7,4.1-5.3s4.1-4.1,4.1-5.5c0-1.4,4.7-7.1,10.2-12.8c5.7-5.7,10.2-11.4,10.2-12.6
		s4.1-6.1,9.2-11c5.1-4.7,9.2-10,9.2-11.6c0-1.6,2.2-4.7,5.1-6.7s5.1-4.7,5.1-5.5c0-2.4,5.5-7.5,7.9-7.5c1.2,0,2.2-1.6,2.2-3.5
		c0-4.3,8.5-14.9,12-14.9c1.2,0,2.2-1.8,2.2-4.3s4.1-8.1,9.2-13.2c5.1-4.9,9.2-10.2,9.2-11.6c0-1.6,3.3-5.7,7.1-9
		c3.9-3.5,7.1-7.1,7.1-8.5c0-1.2,1-2.2,2-2.2c1.2,0,2-1,2-2.2s2-4.5,4.7-7.1c4.3-4.5,5.9-4.9,28.1-4.9c19.7,0,24,0.6,25,3.3
		c1.6,4.1,1.6,420.9,0,425c-1,2.8-5.7,3.3-29.5,3.3h-28.3v-160.8c0-88.3-0.4-160.8-1-160.8c-2.2,0-17.3,16.5-17.3,19.1
		c0,1.4-3.3,5.5-7.1,8.8c-3.9,3.5-7.1,7.1-7.1,8.5c0,1.2-0.8,2.2-2,2.2c-1,0-2,1.2-2,2.6s-1.6,3.9-3.5,5.7c-2,1.6-5.5,5.7-7.7,8.8
		c-2.2,3.3-5.3,6.9-6.5,8.3c-1.4,1.6-2.6,3.5-2.6,4.3c0,0.8-3.3,4.1-7.1,7.5c-3.9,3.3-7.1,7.3-7.1,9c0,3.5-4.9,8.8-7.9,8.8
		c-1.2,0-2.2,1.2-2.2,2.6s-1.8,3.9-4.1,5.5c-2.2,1.6-4.1,4.3-4.1,6.1c0,1.6-3.3,5.9-7.1,9.2c-3.9,3.5-7.1,7.5-7.1,9.4
		c0,1.8-2.2,5.1-5.1,7.1c-2.8,2-5.1,4.7-5.1,5.5c0,2.4-5.5,7.5-7.9,7.5c-1.2,0-2.2,1.8-2.2,4.1c0,4.5-8.3,14.2-12.2,14.2
		c-1,0-2,1.4-2,3.1c0,1.6-0.8,3.1-2,3.1c-1,0-2,1.4-2,3.3c0,1.8-3.3,6.3-7.1,10.2c-3.9,3.7-7.1,7.9-7.1,9.6s-3.3,5.7-7.1,9
		c-3.9,3.5-7.1,6.7-7.1,7.5c0,0.8-1.2,2.8-2.4,4.3c-5.7,6.3-7.7,9-7.7,10.4c0,1.8-10.8,11-12.6,11c-1,0-1.6,1.8-1.6,4.3
		c0,4.5-4.5,10-7.9,10c-1.2,0-2.2,1.4-2.2,3.1c0,1.6-0.8,3.1-2,3.1c-1,0-2,1.4-2,3.3c0,1.8-4.1,7.3-9.2,12.2
		c-5.1,4.7-9.2,9.8-9.2,11c0,1.4-3.3,5.7-7.1,9.6c-3.9,3.9-7.1,7.9-7.1,9s-1.4,1.8-3.1,1.8s-3.1,1.8-3.1,4.1s-0.8,4.1-2,4.1
		c-1,0-2,1-2,2.2c0,6.5-5.9,7.9-33.4,7.9h-27.7V6523.8z"/>
	<path class="st0" d="M1123.5,6714.1v-25.4h72.3h72.3v-190.3V6308h28.5h28.5v190.3v190.3h71.2h71.2v25.4v25.4h-172h-172V6714.1z"/>
	<path class="st0" d="M1549.3,6524.4l0.6-215.3h161.8h161.8v25.4v25.4l-133.7,0.6l-133.9,0.4v69.2v69.2h117h117v25.4v25.4h-117h-117
		v69.2v69.2h131.3h131.3v25.4v25.4h-159.8h-159.8L1549.3,6524.4z"/>
	<path class="st0" d="M1960.4,6524.4l0.6-215.3l28.1-0.6l27.9-0.6v81.6v81.4h58c39.1,0,58-0.6,58-2c0-2.8,9.4-12.2,12.2-12.2
		c1,0,2-2,2-4.7c0-2.4,1.8-5.9,4.1-7.5c2.2-1.6,4.1-4.1,4.1-5.5s1.4-2.6,3.1-2.6s3.1-1.8,3.1-4.1s1-4.1,2-4.1c1.2,0,2-1,2-2.2
		c0-2.8,5.1-7.9,7.9-7.9c1.2,0,2.2-1.6,2.2-3.5c0-4.3,8.5-14.9,12-14.9c1.2,0,2.2-1.8,2.2-4.3c0-2.2,3.3-7.3,7.1-11.2
		c3.9-3.7,7.1-8.1,7.1-10c0-1.6,0.8-3.1,1.6-3.1c1,0,3.1-2.2,4.5-5.1c1.4-2.8,3.9-5.1,5.5-5.1c1.4,0,2.6-1.6,2.6-3.5
		c0-4.3,8.5-14.9,12-14.9c1.2,0,2.2-1.8,2.2-4.3c0-2.2,3.3-7.3,7.1-11.2c3.9-3.7,7.1-7.7,7.1-9c0-1,1.6-3.9,3.5-6.1
		c3.3-3.9,6.1-4.1,37.7-4.1h34.2v7.1c0,3.9-0.8,7.1-2,7.1c-1,0-2,1-2,2.2c0,2.8-5.1,7.9-7.9,7.9c-1.2,0-2.2,1.6-2.2,3.7
		c0,4.1-8.5,14.7-12,14.7c-1.2,0-2.2,1.8-2.2,4.3c0,2.2-3.3,7.1-7.1,10.8c-3.9,3.9-7.1,7.9-7.1,9.4s-3.3,5.5-7.1,9.4
		c-3.9,3.7-7.1,7.9-7.1,9.4c-0.2,3.1-4.9,9.8-6.9,9.8c-2.6,0-7.3,5.7-7.3,9.2c0,3.9-4.7,9.2-7.9,9.2c-1.2,0-2.2,1.2-2.2,2.6
		c0,1.4-1.8,3.9-4.1,5.5c-2.2,1.6-4.1,4.3-4.1,6.1c0,1.6-3.3,5.9-7.1,9.2c-3.9,3.5-7.1,7.3-7.1,9c0,1.4-3.3,5.9-7.1,9.8
		s-7.1,8.3-7.1,10c0,1.6-1.4,3.5-3.1,4.1c-1.6,0.8-3.1,2.4-3.1,4.1c0,2,2.8,2.8,10.2,2.8c5.7,0,10.2,1,10.2,2c0,1.2,3.3,2,7.1,2
		c3.9,0,7.1,1,7.1,2c0,1.2,1.8,2,4.1,2c2.2,0,4.1,1.4,4.1,3.1c0,1.8,1.8,3.1,5.1,3.1c2.8,0,5.1,1,5.1,2c0,1.2,1.8,2,4.3,2
		c3.9,0,10,4.3,10,7.1c0,1.6,5.5,7.1,7.1,7.1c1.6,0,7.1,5.5,7.1,7.1c0,2,5.7,7.1,7.9,7.1c1.2,0,2.2,2.2,2.2,5.1c0,2.8,1,5.1,2,5.1
		c1.2,0,2,1.8,2,3.9c0,2,1.4,4.3,3.1,5.1c1.6,0.6,3.1,3.1,3.1,5.3s1,4.1,2,4.1c1.2,0,2,4.1,2,9.2s1,9.2,2,9.2c1.2,0,2,11.6,2,30.5
		s-0.8,30.5-2,30.5c-1,0-2,3.3-2,7.1s-0.8,7.1-2,7.1c-1,0-2,2.8-2,6.1c0,3.7-1.2,6.7-3.1,7.3c-1.6,0.8-3.1,3.1-3.1,5.3
		c0,2-2.2,6.1-5.1,9c-2.8,2.8-5.1,5.9-5.1,7.1c0,3.1-11.4,14-14.5,14c-1.6,0-4.3,1.8-5.9,4.1c-1.6,2.2-4.1,4.1-5.3,4.1
		c-1.4,0-2.8,1.4-3.7,3.1c-0.6,1.6-2.4,3.1-4.3,3.1c-1.6,0-3.1,1-3.1,2c0,1.2-2.2,2-5.1,2c-2.8,0-5.1,1-5.1,2c0,1.2-2.2,2-4.9,2
		c-2.6,0-5.3,1.4-6.1,3.1c-0.6,2-3.9,3.1-9.4,3.1c-4.5,0-8.1,1-8.1,2c0,1.2-4.1,2-9.2,2c-5.1,0-9.2,1-9.2,2c0,1.4-39.7,2-115,2h-115
		L1960.4,6524.4z M2162.3,6685.6c0.8-2.2,4.5-3.1,14.5-3.1c7.5,0,13.2-0.8,13.2-2c0-1,1.8-2,4.1-2c2.2,0,4.1-0.8,4.1-2
		c0-1,2.2-2,4.9-2c2.6,0,5.3-1.4,6.1-3.1c0.6-1.6,2.6-3.1,4.3-3.1c4.3,0,27.5-23.2,27.5-27.5c0-1.6,1.4-3.7,3.1-4.3
		c1.8-0.8,3.1-3.9,3.1-8.1c0-3.9,1-6.9,2-6.9c1.2,0,2-5.5,2-12.2c0-6.7-0.8-12.2-2-12.2c-1,0-2-4.1-2-9c0-6.1-1-9.4-3.1-10.2
		c-1.6-0.6-3.1-2.8-3.1-4.7c0-2-1.8-5.1-4.1-6.7c-2.2-1.6-4.1-5.1-4.1-7.5c0-2.6-1.2-4.7-2.6-4.7c-1.4,0-3.9-1.8-5.5-4.1
		s-4.7-4.1-6.7-4.1c-1.8,0-4.1-1.4-4.7-3.1c-0.8-1.6-3.1-3.1-5.1-3.1c-2,0-3.9-0.8-3.9-2c0-1-2.2-2-5.1-2c-2.8,0-5.1-0.8-5.1-2
		c0-1-3.3-2-7.1-2c-4.9,0-7.1-1-7.1-3.1c0-2.4-3.3-3.1-16.3-3.1c-9.6,0-16.3-0.8-16.3-2s-23-2-65.1-2H2017v83.4v83.4h72
		C2151.1,6688.6,2161.3,6688.2,2162.3,6685.6z"/>
	<path class="st0" d="M2375.2,6714.1v-25.4h72.3h72.3v-190.3v-190.5l28.1,0.6l27.9,0.6l0.6,189.9l0.4,189.7h71.2h71.2v25.4v25.4
		h-172h-172V6714.1z"/>
	<path class="st0" d="M3287.4,6524.4l0.6-215.3l28.1-0.6l27.9-0.6v215.9v215.7h-28.5H3287L3287.4,6524.4z"/>
	<path class="st0" d="M3460,6523.8V6308h28.5h28.5v165.9c0,109.3,0.6,165.9,2,165.9c1.2,0,2-0.8,2-2c0-1,1.4-2,3.1-2
		c1.6,0,3.1-1.6,3.1-3.5c0-4.3,8.5-14.9,12-14.9c1.2,0,2.2-1.8,2.2-4.3s4.1-8.1,9.2-13.2c5.1-4.9,9.2-10,9.2-11.4
		c0-1.4,4.1-6.5,9.2-11.4c5.1-4.9,9.2-9.8,9.2-11.2s1.6-3.9,3.7-5.7c1.8-1.6,5.3-5.5,7.5-8.5c2.2-3.1,5.1-5.5,6.5-5.5
		c1.4,0,2.6-1.8,2.6-4.1c0-4.5,8.3-14.2,12.2-14.2c1,0,2-1.8,2-4.1c0-2.4,4.1-8.1,9.2-13c5.1-5.1,9.2-10.2,9.2-11.8
		c0-1.4,3.3-5.5,7.1-8.8c3.9-3.5,7.1-7.3,7.1-8.5c0-1.4,1.4-2.6,3.1-2.6s3.1-1.8,3.1-4.1s1-4.1,2-4.1c1.2,0,2-1,2-2.2
		c0-2.8,5.1-7.9,7.9-7.9c1.2,0,2.2-1.8,2.2-4.1c0-4.5,8.3-14.2,12.2-14.2c1,0,2-1.4,2-3.1c0-1.6,1-3.1,2-3.1c1.2,0,2-1.4,2-3.3
		c0-1.8,4.1-7.3,9.2-12.2c5.1-4.7,9.2-10,9.2-11.6c0-1.6,2.2-4.7,5.1-6.7s5.1-4.7,5.1-5.5c0-2.4,5.5-7.5,7.9-7.5
		c1.2,0,2.2-1.6,2.2-3.5c0-4.3,8.5-14.9,12-14.9c1.2,0,2.2-1.8,2.2-4.1c0-2.4,4.1-8.1,9.2-13c5.1-5.1,9.2-10.2,9.2-11.8
		c0-1.4,3.3-5.5,7.1-8.8c3.9-3.5,7.1-7.3,7.1-8.5c0-1.4,1.4-2.6,3.1-2.6c1.6,0,3.1-1.4,3.1-3.1c0-1.8,1.6-5.1,3.9-7.3
		c3.3-3.7,5.9-3.9,27.9-3.5l24.2,0.6l0.6,215.3l0.4,215.1H3804h-28.5l-0.2-164.2c0-90.6-0.6-163-1.2-161.4
		c-0.8,1.6-5.3,6.9-10.2,11.6c-4.7,4.7-8.8,9.8-8.8,11.2c-0.2,3.1-4.9,9.8-6.9,9.8c-2.2,0-7.3,5.5-7.3,7.9c0,1.2-0.8,2.2-2,2.2
		c-1,0-2,1.8-2,4.1s-1.2,4.1-2.6,4.1c-1.6,0-4.1,2.2-5.5,5.1c-1.4,2.8-3.5,5.1-4.5,5.1c-0.8,0-1.6,1.8-1.6,4.1
		c0,2.2-1.4,4.1-3.1,4.1c-1.6,0-3.1,1-3.1,2.2s-3.3,5.3-7.1,9.2c-3.9,3.7-7.1,7.9-7.1,9.6c0,1.4-1.8,3.9-4.1,5.5s-4.1,4.1-4.1,5.5
		c0,1.4-1,2.6-2.2,2.6c-3.3,0-7.9,5.3-7.9,9.2c0,3.3-4.5,9.2-7.1,9.2c-2.6,0-7.1,5.9-7.1,9.8c0,2-2.2,5.1-5.1,6.5
		c-2.8,1.4-5.1,3.5-5.1,4.5s-2.2,4.1-5.1,6.9s-5.1,5.9-5.1,7.1c0,2.6-9.4,12-12.2,12c-1,0-2,1.4-2,3.1c0,1.6-0.8,3.1-2,3.1
		c-1,0-2,1.8-2,4.1s-0.8,4.1-2,4.1c-1,0-2,1.4-2,3.1c0,1.6-1,3.1-2.2,3.1c-3.1,0-7.9,5.3-7.9,8.5c-0.2,3.1-4.9,9.8-6.9,9.8
		c-2.2,0-7.3,5.5-7.3,7.9c0,1.2-0.8,2.2-2,2.2c-1,0-2,1.8-2,4.1s-1.4,4.1-3.1,4.1s-3.1,1-3.1,2c0,2.8-9.4,12.2-12.2,12.2
		c-1,0-2,1.8-2,4.3c0,2.2-3.3,7.3-7.1,11.2c-3.9,3.7-7.1,7.9-7.1,9.4c0,1.2-4.1,6.3-9.2,11.2c-5.1,4.7-9.2,10.4-9.2,12.4
		c0,2-2.2,5.1-5.1,6.5c-2.8,1.4-5.1,3.5-5.1,4.5c0,1-2,4.1-4.5,6.7c-6.9,7.3-9.8,10.8-9.8,12.2c0,0.8-1.2,2.6-2.8,4.3
		c-2.2,2.2-9.4,2.8-30.5,2.8H3460V6523.8z"/>
	<path class="st0" d="M3942.4,6523.8V6308h28.5h28.5v161.8c0,88.9,0.4,161.8,1,161.8c2.2,0,9.2-8.3,9.2-11.2c0-1.6,1-3.1,2-3.1
		c1.2,0,2-1.4,2-3.1s1-3.1,2-3.1c1.2,0,2-1.8,2-4.1s1.4-4.1,3.1-4.1s3.1-1.2,3.1-2.6c0-1.4,1.8-3.9,4.1-5.5s4.1-4.5,4.1-6.3
		c0-1.8,2.2-5.1,5.1-7.1c2.8-2,5.1-5.3,5.1-6.9c0.2-4.1,4.9-10.2,7.9-10.2c1.2,0,2.2-1.8,2.2-4.1s1-4.1,2-4.1c1.2,0,2-1.4,2-3.1
		c0-1.6,1-3.1,2-3.1c1.2,0,2-1.8,2-4.1c0-2.2,1.4-4.1,3.1-4.1s3.1-1.4,3.1-3.1c0-1.6,1-3.1,2-3.1c1.2,0,2-1.4,2-3.3
		c0-1.8,2.2-5.5,5.1-8.1c2.8-2.6,5.1-6.1,5.1-7.9c0-1.6,1-3.1,2-3.1c1.2,0,2-1.4,2-3.1c0-1.6,1-3.1,2-3.1c1.2,0,2-1.4,2-3.1
		c0-1.8,1.4-3.7,3.1-4.3c1.6-0.8,3.1-2.2,3.1-3.7c0-1.2,1.8-3.7,4.1-5.3c2.2-1.6,4.1-4.5,4.1-6.3c0-1.8,2.2-5.1,5.1-7.1
		c2.8-2,5.1-5.3,5.1-7.3c0-1.8,2.2-5.1,5.1-7.3c2.8-2.2,5.1-5.5,5.1-7.5c0-3.7,4.7-9.2,7.9-9.2c1.2,0,2.2-1.6,2.2-3.7
		c0-2,1.8-5.5,3.9-7.9c2-2.2,4.3-5.9,4.7-7.9c0.8-5.1,13.8-6.9,13.8-2c0,1.8,1,3.3,2.2,3.3c3.1,0,12,10.4,12,14
		c0,1.4,2.2,4.5,5.1,6.7c2.8,2.2,5.1,5.5,5.1,7.3c0,2,2.2,5.3,5.1,7.3c2.8,2,5.1,5.3,5.1,7.1c0,1.8,1.8,4.7,4.1,6.3
		c2.2,1.6,4.1,5.1,4.1,7.5c0,2.6,1,4.7,2.2,4.7c3.5,0,7.9,5.5,7.9,9.6c0,2,2.2,5.5,5.1,7.5c2.8,2,5.1,5.3,5.1,7.1
		c0,1.8,1.8,4.7,4.1,6.3c2.2,1.6,4.1,5.1,4.1,7.5c0,2.6,1,4.7,2.2,4.7c3.3,0,7.9,5.3,7.9,9.2s4.7,9.2,7.9,9.2c1.2,0,2.2,1.4,2.2,3.1
		c0,1.6,1,3.1,2,3.1c1.2,0,2,1.8,2,4.1s1,4.1,2,4.1c1.2,0,2,1.4,2,3.1s1.4,3.1,3.1,3.1s3.1,1.8,3.1,4.1s0.8,4.1,1.6,4.1
		c0.8,0,3.3,3.1,5.5,6.7c2,3.5,5.5,8.3,7.5,10.4c2,2.2,3.7,5.3,3.7,6.9c0,1.6,2.2,4.7,5.1,6.9s5.1,5.3,5.1,7.1
		c0,1.8,2.2,5.3,5.1,7.9c2.8,2.6,5.1,6.1,5.1,7.9c0,1.6,1,3.1,2,3.1c1.4,0,2-56,2-163.8V6308h28.5h28.5v215.7v215.7h-30.5
		c-26.3,0-30.5-0.4-30.5-3.1c0-1.8-2.2-5.3-5.1-7.9c-2.8-2.6-5.1-6.3-5.1-8.1c0-1.8-0.8-3.3-2-3.3c-1,0-2-1.4-2-3.1
		s-1.4-3.1-3.1-3.1c-1.6,0-3.1-1.8-3.1-4.1s-0.8-4.1-2-4.1c-1,0-2-1.4-2-3.1s-0.8-3.1-2-3.1c-1,0-2-1.4-2-3.1c0-1.8-2.2-5.3-5.1-7.9
		c-2.8-2.6-5.1-6.3-5.1-8.1c0-1.8-0.8-3.3-2-3.3c-1,0-2-1.4-2-3.1c0-1.6-1.4-3.1-3.1-3.1c-1.6,0-3.1-1.8-3.1-4.1
		c0-2.2-0.8-4.1-2-4.1c-1,0-2-1-2-2c0-2-1.6-4.5-7.5-11.2c-1.4-1.4-2.6-3.7-2.6-4.9s-0.8-2.2-2-2.2c-1,0-2-1.4-2-3.1
		c0-1.8-2.2-5.3-5.1-7.9c-2.8-2.6-5.1-6.3-5.1-8.1c0-1.8-0.8-3.3-2-3.3c-1,0-2-1.2-2-2.8c0-1.6-1.4-3.3-3.1-4.1
		c-1.6-0.6-3.1-2.4-3.1-4.3c0-1.6-0.8-3.1-2-3.1c-1,0-2-1.4-2-3.1c0-1.6-0.8-3.1-2-3.1c-1,0-2-1.4-2-3.1c0-1.8-2.2-5.3-5.1-7.9
		c-2.8-2.6-5.1-6.3-5.1-8.1c0-1.8-0.8-3.3-2-3.3c-1,0-2-1.4-2-3.1c0-1.6-1.4-3.1-3.1-3.1c-1.6,0-3.1-1.8-3.1-4.1
		c0-2.2-0.8-4.1-2-4.1c-1,0-2-1.4-2-3.1c0-1.6-0.8-3.1-2-3.1c-1,0-2-1.8-2-4.1s-1.4-4.1-3.1-4.1c-1.6,0-3.1-1.4-3.1-3.1
		c0-1.6-0.8-3.1-2-3.1c-1,0-2-1.8-2-4.1s-0.8-4.1-2-4.1c-1,0-2-1.4-2-3.1s-1.4-3.1-3.1-3.1s-3.1-1.8-3.1-4.1s-0.8-4.1-2-4.1
		c-1,0-2,0.8-2,1.6c0,1-2.2,3.1-5.1,4.5c-2.8,1.4-5.1,4.5-5.1,6.5c0,4.3-4.5,9.8-7.9,9.8c-1.2,0-2.2,2-2.2,4.7
		c0,2.4-1.8,5.9-4.1,7.5c-2.2,1.6-4.1,5.1-4.1,7.5c0,2.6-1,4.7-2.2,4.7c-3.3,0-7.9,5.3-7.9,9.2s-4.7,9.2-7.9,9.2
		c-1.2,0-2.2,2-2.2,4.7c0,2.4-1.8,5.9-4.1,7.5s-4.1,4.5-4.1,6.3c0,1.8-2.2,5.1-5.1,7.1s-5.1,5.5-5.1,7.5c0,4.1-4.5,9.6-7.9,9.6
		c-1.2,0-2.2,1.8-2.2,4.3c0,2.2-3.3,7.3-7.1,11.2c-3.9,3.7-7.1,8.1-7.1,10c0,1.6-0.8,3.1-2,3.1c-1,0-2,1.4-2,3.1
		c0,1.6-0.8,3.1-2,3.1c-1,0-2,1.8-2,4.1c0,2.2-1.4,4.1-3.1,4.1c-1.6,0-3.1,1.4-3.1,3.1c0,1.6-0.8,3.1-2,3.1c-1,0-2,1.4-2,3.3
		c0,1.8-2.2,5.5-5.1,8.1c-2.8,2.6-5.1,6.1-5.1,7.9c0,1.6-0.8,3.1-2,3.1c-1,0-2,1-2,2.2s-1.2,3.5-2.4,4.9c-6.1,6.7-7.7,9.2-7.7,11.2
		c0,1-0.8,2-2,2c-1,0-2,1.8-2,4.1s-1.4,4.1-3.1,4.1s-3.1,1.4-3.1,3.1c0,1.6-0.8,3.1-2,3.1c-1,0-2,1.8-2,4.1c0,3.9-1.4,4.1-30.5,4.1
		h-30.5V6523.8z"/>
	<path class="st0" d="M4472,6524.4l0.6-215.3l157.7-0.6c86.7-0.2,159.8,0,162.4,0.6c4.5,1,4.7,1.6,4.1,26.1l-0.6,24.8l-133.7,0.6
		l-133.9,0.4v69.2v69.2h117h117v25.4v25.4h-117h-117v69.2v69.2h131.3h131.3v25.4v25.4h-159.8h-159.8L4472,6524.4z"/>
	<path class="st0" d="M4882.7,6523.8V6308h28.5h28.5v165.9c0,109.3,0.6,165.9,2,165.9c1.2,0,2-0.8,2-2c0-1,1.4-2,3.1-2
		c1.6,0,3.1-1.6,3.1-3.5c0-4.3,8.5-14.9,12-14.9c1.2,0,2.2-1.8,2.2-4.1c0-2.4,4.1-8.1,9.2-13c5.1-5.1,9.2-10.2,9.2-11.4
		c0-1.4,4.7-6.9,10.2-12.4c5.7-5.5,10.2-11.2,10.2-13c0-1.6,0.8-3.1,1.6-3.1c1,0,3.1-2.2,4.5-5.1s3.5-5.1,4.5-5.1
		c3.1,0,7.7-5.5,7.7-9.2c0-3.3,4.5-9.2,7.1-9.2s7.1-5.9,7.1-9.2c0-3.9,4.7-9.2,7.9-9.2c1.2,0,2.2-1.2,2.2-2.6s1.8-3.9,4.1-5.5
		c2.2-1.6,4.1-4.3,4.1-6.1c0-1.6,3.3-5.9,7.1-9.2c3.9-3.5,7.1-7.3,7.1-8.5c0-1.4,1.4-2.6,3.1-2.6c1.6,0,3.1-1.8,3.1-4.1s1-4.1,2-4.1
		c1.2,0,2-1,2-2.2c0-2.8,5.1-7.9,7.9-7.9c1.2,0,2.2-2,2.2-4.3c0-4.1,9.2-14,12.8-14c0.8,0,1.4-1.4,1.4-3.1c0-1.6,1-3.1,2-3.1
		c1.2,0,2-1.8,2-4.1s1.4-4.1,3.1-4.1c1.6,0,3.1-1,3.1-2c0-2.8,9.4-12.2,12.2-12.2c1,0,2-2,2-4.7c0-2.4,1.8-5.9,4.1-7.5
		c2.2-1.6,4.1-4.1,4.1-5.5s1-2.6,2.2-2.6c3.1,0,7.9-5.3,7.9-8.5c0.2-3.1,4.9-9.8,6.9-9.8c2.6,0,7.3-5.7,7.3-9.2
		c0-3.9,4.7-9.2,7.9-9.2c1.2,0,2.2-1.2,2.2-2.6s1.8-3.9,4.1-5.5c2.2-1.6,4.1-4.3,4.1-5.7c0-1.6,4.7-7.3,10.2-12.8
		c5.7-5.5,10.2-10.8,10.2-12s1.6-4.1,3.9-6.3c3.3-3.7,5.9-3.9,27.9-3.5l24.2,0.6l0.6,215.3l0.4,215.1h-28.5h-28.5l-0.4-162l-0.6-162
		l-4.5,4.1c-2.6,2.2-4.7,4.7-4.7,5.3c0,2.2-5.5,7.3-7.9,7.3c-1.2,0-2.2,1.6-2.2,3.7c0,4.1-8.5,14.7-12,14.7c-1.2,0-2.2,1.4-2.2,3.1
		c0,1.6-0.8,3.1-2,3.1c-1,0-2,1.4-2,3.3c0,1.6-3.3,6.1-7.1,9.8c-3.9,3.9-7.1,7.7-7.1,9.2c0,1.2-4.5,6.7-10.2,12.4
		c-5.5,5.7-10.2,11.4-10.2,12.8c0,1.4-1.8,3.9-4.1,5.5s-4.1,4.1-4.1,5.5c0,1.4-1,2.6-2.2,2.6c-3.3,0-7.9,5.3-7.9,9.2
		c0,3.3-4.5,9.2-7.1,9.2c-2.6,0-7.1,5.9-7.1,9.2c0,3.9-4.7,9.2-7.9,9.2c-1.2,0-2.2,1.2-2.2,2.6c0,1.4-1.8,3.9-4.1,5.5
		c-2.2,1.6-4.1,4.3-4.1,6.1c0,1.6-3.3,5.9-7.1,9.2c-3.9,3.5-7.1,7.3-7.1,8.8c0,1.2-1.4,2.4-3.1,2.4c-1.6,0-3.1,1.8-3.1,4.1
		s-0.8,4.1-2,4.1c-1,0-2,1-2,2.2c0,2.8-5.1,7.9-7.9,7.9c-1.2,0-2.2,1.6-2.2,3.7c0,4.1-8.5,14.7-12,14.7c-1.2,0-2.2,1.4-2.2,3.1
		s-0.8,3.1-2,3.1c-1,0-2,1.4-2,3.1c0,1.8-4.5,7.5-10.2,13c-5.5,5.5-10.2,11.2-10.2,12.8c0,1.4-1.8,4.1-4.1,5.7
		c-2.2,1.6-4.1,4.1-4.1,5.5s-1.4,2.6-3.1,2.6s-3.1,1.8-3.1,4.1s-0.8,4.1-2,4.1c-1,0-2,1-2,2.2c0,2.2-5.1,7.9-7.1,7.9
		c-2.6,0-7.1,5.9-7.1,9.2c0,3.9-4.7,9.2-7.9,9.2c-1.2,0-2.2,1.2-2.2,2.6c0,1.4-1.8,3.9-4.1,5.5c-2.2,1.6-4.1,4.5-4.1,6.5
		c0,2-1.4,3.7-3.1,3.7c-1.6,0-3.1,1-3.1,2.2c0,6.5-5.9,7.9-33.4,7.9h-27.7V6523.8z"/>
	<path class="st0" d="M5336.6,6714.1v-25.4h71.2h71.2v-190.3V6308h28.5h28.5v190.3v190.3h72.3h72.3v25.4v25.4h-172h-172V6714.1z"/>
</g>
</svg>
