<?xml version="1.0" encoding="utf-8"?>
<!-- Generator: Adobe Illustrator 27.0.1, SVG Export Plug-In . SVG Version: 6.00 Build 0)  -->
<svg version="1.1"
	 id="Layer_1" xmlns:sodipodi="http://sodipodi.sourceforge.net/DTD/sodipodi-0.dtd" xmlns:svg="http://www.w3.org/2000/svg" xmlns:inkscape="http://www.inkscape.org/namespaces/inkscape"
	 xmlns="http://www.w3.org/2000/svg" xmlns:xlink="http://www.w3.org/1999/xlink" x="0px" y="0px" viewBox="0 0 327.1 126.6"
	 style="enable-background:new 0 0 327.1 126.6;" xml:space="preserve">
<style type="text/css">
	.st0{fill:#FFFFFF;}
</style>
<g id="g48253">
	<path id="path32546" class="st0" d="M59.1,9.2c6.8,0.2,13.6,0.2,20.3,0.3c15.5,0.3,19.4,4,19.9,8.9c0,0.6,0.2,1.1,0.2,1.8
		c0.2,2.3,0.5,2.7,1.3,2.7c0.6,0,1.1-0.6,1.1-2.1c0-1.8,0.5-12.9,0.5-17.8c0-1,0-1.9-0.8-1.9c-0.6,0-2.1,0.5-4.5,0.8
		c-2.6,0.5-6.3,0.8-11.5,0.8H25c-1.9,0-8.1-0.3-12.8-0.8C7.9,1.6,6.3,0,5.2,0C4.5,0,3.9,2.1,3.6,3.1C3.2,4.4,0,18.2,0,19.9
		c0,1,0.3,1.5,0.8,1.5c0.6,0,1.1-0.3,1.6-1.6c0.5-1.1,1-2.3,2.7-5c2.6-3.9,6.5-5,16.5-5.2c7.9-0.2,16-0.2,23.9-0.3v68.3
		c0,15.5,0,28.3-0.8,35c-0.6,4.7-1.5,8.2-4.7,8.9c-1.5,0.3-3.4,0.6-4.8,0.6c-1,0-1.3,0.5-1.3,1c0,1,0.8,1.3,2.6,1.3
		c4.8,0,15-0.5,15.8-0.5s11,0.5,19.9,0.5c1.8,0,2.6-0.5,2.6-1.3c0-0.5-0.3-1-1.3-1c-1.5,0-5-0.3-7.3-0.6c-4.8-0.6-5.8-4.2-6.3-8.9
		c-0.8-6.8-0.8-19.5-0.8-35L59.1,9.2z"/>
	<path id="path32548" class="st0" d="M145,126.6c8.7,0,17.4-1.9,24.4-6.8c11.1-7.9,13.7-20.2,13.7-26.8c0-12.9-4.5-22.9-23.6-37.9
		l-4.5-3.6c-15.5-12.1-19.7-17.9-19.7-27.1c0-11.8,8.7-18.7,19.9-18.7c14.9,0,19.2,6.8,20.2,8.6s1.9,6.1,2.1,8.1
		c0.2,1.3,0.3,2.1,1.3,2.1c0.8,0,1.1-1.1,1.1-3.7c0-11,0.6-16.3,0.6-17.1c0-0.8-0.3-1.1-1.6-1.1s-2.6-0.2-5.7-0.8
		c-4-1-8.7-1.6-15-1.6c-20.5,0-33.4,11.8-33.4,29.1c0,11,3.9,21,21,35l7.3,6C167,81.5,171.7,88,171.7,99.1
		c0,10.3-7.6,21.5-23.1,21.5c-10.8,0-21.5-4.5-23.9-16.5c-0.5-2.3-0.5-4.5-0.5-6c0-1.3-0.2-1.8-1.1-1.8c-0.8,0-1.1,0.8-1.3,2.6
		c-0.2,2.6-0.8,9-0.8,17.1c0,4.4,0.2,5,2.4,6.1C130,125.5,137.4,126.6,145,126.6L145,126.6z"/>
	<path id="path32550" class="st0" d="M315.5,92.5c0-6.8,0-11.6,0.3-16.8c0.3-5.7,1.6-8.4,6-9.2c1.9-0.3,2.9-0.5,4-0.5
		c0.6,0,1.3-0.3,1.3-1c0-1-0.8-1.3-2.6-1.3c-4.8,0-15,0.5-15.8,0.5s-11-0.5-18.2-0.5c-1.8,0-2.6,0.3-2.6,1.3c0,0.6,0.6,1,1.3,1
		c1.5,0,4.2,0.2,5.5,0.5c6.5,1.8,7.3,3.6,7.3,16.6v27.4c0,2.7-1.1,4.5-3.2,5.7c-4.2,2.4-12.6,3.4-18.4,3.4
		c-14.9,0-29.5-4.8-42.3-17.3c-5.7-5.5-17.1-22-17.1-44.7c0-18.9,6.6-33.6,16-41C249.1,6.9,261.2,6,271.4,6
		c20.8,0,33.9,6.9,37.9,13.1c2.4,3.9,3.2,8.4,3.4,10.7c0.2,1.5,0.3,2.4,1.1,2.4c1.1,0,1.5-0.8,1.5-3.4c0-16.1,1.1-20.7,1.1-22.9
		c0-0.6-0.3-1.3-1.9-1.5c-4-0.2-9.7-0.8-13.1-1.6c-3-0.7-14.5-2.8-24.7-2.8c-12.4,0-28.4,1.1-42.9,10.2c-14.4,9-27,27.3-27,53.1
		c0,20.2,9.4,37.5,19.2,46c17.9,15.7,40.8,17.3,53.1,17.3c9.4,0,23.9-1.8,34.2-7.3c1.9-1.1,2.1-1.5,2.1-8.7L315.5,92.5z"/>
</g>
</svg>
