<?xml version="1.0" encoding="utf-8"?>
<!-- Generator: Adobe Illustrator 27.0.1, SVG Export Plug-In . SVG Version: 6.00 Build 0)  -->
<svg version="1.1" id="Слой_1" xmlns="http://www.w3.org/2000/svg" xmlns:xlink="http://www.w3.org/1999/xlink" x="0px" y="0px"
	 viewBox="0 0 192 141.1" style="enable-background:new 0 0 192 141.1;" xml:space="preserve">
<style type="text/css">
	.st0{fill:#FFFFFF;}
</style>
<g>
	<path class="st0" d="M121.9,1.1c-8.5,0-14.4,4.1-17.1,11.4l-2.6-0.1L103,0.8L88.5,0l-0.7,40.4l12.3,0.6l0.8-10.3l3.4,0.2
		c2.4,7.5,8.5,12.1,17.6,12.1c12.1,0,19.3-8.7,19.3-23C141.1,4.9,130.1,1.1,121.9,1.1 M122.5,31.6c-3.7,0-7.1-1.4-7.1-4.5
		c0-2.6,2.1-4.1,5.4-4.1c4,0,7.2,1.3,7.2,4.3C128,29.7,126.3,31.6,122.5,31.6 M26.3,51.7l-2.7,13.5L19,52.3L0.1,53.8l5.3,39.3
		l10.9-1l-0.7-16.4l5.2,12.9l8.8-0.9l2.7-14.1l1.4,16.9l11.3-1V50.2L26.3,51.7z"/>
	<path class="st0" d="M65.2,51.4L48.3,51c0,0,9.7,28.6,10,29.4c-1.3,0-2.8-0.1-4.7-0.5c-2.3-0.5-4-1.4-4-1.4s-1.4,7.5-1.7,9.6
		c2.8,1.9,7.5,3.1,12,3.1c10.4,0,17-7.3,21.7-20.9s6.1-18.5,6.1-18.5l-16.9-0.3l-3,17.7L65.2,51.4L65.2,51.4z"/>
	<path class="st0" d="M119.7,91.1l-10.2-39.6L91,51.7l-9,39.9l11.5-0.2l7-14l7.8,13.8L119.7,91.1z"/>
	<path class="st0" d="M88.3,102.2l-9.5,38.4l11.6,0.1l5.8-12l5.9,12.1l11.4,0.1l-9.2-38.8L88.3,102.2z"/>
	<path class="st0" d="M42.5,22.5c0.2-2.1,2.3-20.1,2.3-20.1S40,0.3,32.5,0.3C23,0.3,11.7,5,11.7,21.1c0,14.2,8.1,20.8,19.2,20.8
		c5.1,0,10.1-1.6,14.5-3.6c-0.8-2.7-2.2-7.1-2.9-9.8c-1.8,0.7-5.7,1.8-9.1,1.8c-3.2,0-5.9-1.3-5.9-4.2c0-3.2,2.8-4.5,7.1-4.5
		C37.2,21.7,39.7,22.1,42.5,22.5"/>
	<path class="st0" d="M65.5,0.8c-9.6,0-20.3,5.7-20.3,20.3c0,15.9,10.4,21.1,19.9,21.1c9.7,0,20.9-5,20.9-22
		C85.9,6.3,76.7,0.8,65.5,0.8 M65.8,30.8c-3.7,0-6.1-1.8-6.1-4.3s2.4-4.3,6.2-4.3c3.4,0,6.4,1.1,6.4,4
		C72.3,28.9,69.9,30.8,65.8,30.8"/>
	<path class="st0" d="M141.6,2.9l2.1,17.3c0,0,5.9-1.7,12-1.7c6.5,0,7.6,1,7.6,2.2c0,0.9-0.6,1.3-2.1,1.2c-1.5,0-11-0.8-11-0.8
		l-0.4,7.1c0,0,10.5,0.9,12.1,1c1,0.1,1.5,0.6,1.5,1.4c0,0.9-0.8,1.7-2.3,1.7c-7.4,0-12.9-2-16.9-3.5c-0.3,1-2.8,8.1-3.1,9.2
		c3.5,1.9,11.2,4.9,21.2,4.9c12.1,0,13.9-5.8,13.9-10c0-3.6-2.1-6.2-4.7-7.7c3.2-2,5.3-5.2,5.3-10.5c0-7.6-6.6-14-17.8-14
		C152.1,0.7,145.1,1.7,141.6,2.9"/>
	<path class="st0" d="M136.5,61.3c0.2-3.4,0.7-9.7,0.7-9.7l-14.3-0.8c0,0-1.1,38.6-1.1,39.5c3.7,0.8,10.8,2.2,18.5,2.2
		c10.3,0,14.9-7.5,14.9-16.1C155.3,68.6,150.6,60.8,136.5,61.3 M140.4,82.2c-2.4,0-4-0.3-5.3-0.6c0.1-0.8,0.2-3.8,0.3-4.6
		c1.4-0.1,2.9-0.2,4.3-0.1c2.2,0.1,4.1,0.9,4.1,2.6C143.9,81.6,142.1,82.2,140.4,82.2"/>
	<path class="st0" d="M126.6,101.2l-14.2,0.7l2.8,38.2c0,0,8.2,1.7,17,0.7c9.2-1,13-7.5,13-14.8c0-9.7-4.7-17-18.7-15L126.6,101.2
		L126.6,101.2z M131.4,130.5c-1.8,0.2-3.6,0-5.1-0.1v-4.5c1.3-0.2,2.7-0.4,3.7-0.4c2.8,0,4.3,0.6,4.3,2.5
		C134.2,129.3,133,130.4,131.4,130.5L131.4,130.5z"/>
	<path class="st0" d="M48.2,139.8l10.9,0.3l6.9-13l0.2,13.2l11,0.3l3.1-37.8l-14.4-0.4l-5.3,12l0.1-12.1l-14.4-0.4L48.2,139.8z"/>
	<path class="st0" d="M147.4,139.4l10.4,0.5l0.8-15.3l3,12.2l8.4,0.4l3.8-12.5l-0.2,16l10.3,0.5l3.9-38.4l-17.6-1l-3.9,10.4
		l-2.4-10.8l-17.9-1L147.4,139.4z"/>
	<path class="st0" d="M29.3,102.9c-0.1-2.3-0.1-3.1-0.1-3.1l-13.1,0.5c0,0,0.1,1.2,0.2,3.1c-7.6,1.4-14.8,7.3-14.3,18.3
		c0.5,13.2,9.8,16.8,16.5,17.1c0.1,1.6,0.2,2.9,0.2,2.9l11.2-0.4c0,0,0-1-0.1-3.1c7.8-1.2,15.8-6.2,15.3-18.6
		C44.7,107,35.1,103.5,29.3,102.9 M13.8,126c-0.1-3.1,3.1-3.8,4.6-4c0,0.8,0.3,5.8,0.4,7.7C16.9,129.7,13.9,129,13.8,126
		 M28.9,129.3c0-1.3-0.2-6.2-0.2-7.6c2.3,0,4.9,1,5,3.7C33.8,127.8,31.1,129,28.9,129.3"/>
	<path class="st0" d="M155.6,69.3l9.8,0.6v20.6l11.4,0.8l2.8-20.5l10,0.6l2.5-19L155.5,50L155.6,69.3z"/>
</g>
</svg>
